%TF.GenerationSoftware,KiCad,Pcbnew,8.0.8*%
%TF.CreationDate,2025-02-17T01:58:26-08:00*%
%TF.ProjectId,Integrated FOC Stepper Driver,496e7465-6772-4617-9465-6420464f4320,rev?*%
%TF.SameCoordinates,Original*%
%TF.FileFunction,Copper,L2,Inr*%
%TF.FilePolarity,Positive*%
%FSLAX46Y46*%
G04 Gerber Fmt 4.6, Leading zero omitted, Abs format (unit mm)*
G04 Created by KiCad (PCBNEW 8.0.8) date 2025-02-17 01:58:26*
%MOMM*%
%LPD*%
G01*
G04 APERTURE LIST*
G04 Aperture macros list*
%AMRoundRect*
0 Rectangle with rounded corners*
0 $1 Rounding radius*
0 $2 $3 $4 $5 $6 $7 $8 $9 X,Y pos of 4 corners*
0 Add a 4 corners polygon primitive as box body*
4,1,4,$2,$3,$4,$5,$6,$7,$8,$9,$2,$3,0*
0 Add four circle primitives for the rounded corners*
1,1,$1+$1,$2,$3*
1,1,$1+$1,$4,$5*
1,1,$1+$1,$6,$7*
1,1,$1+$1,$8,$9*
0 Add four rect primitives between the rounded corners*
20,1,$1+$1,$2,$3,$4,$5,0*
20,1,$1+$1,$4,$5,$6,$7,0*
20,1,$1+$1,$6,$7,$8,$9,0*
20,1,$1+$1,$8,$9,$2,$3,0*%
G04 Aperture macros list end*
%TA.AperFunction,ComponentPad*%
%ADD10C,5.600000*%
%TD*%
%TA.AperFunction,ComponentPad*%
%ADD11R,1.700000X1.700000*%
%TD*%
%TA.AperFunction,ComponentPad*%
%ADD12O,1.700000X1.700000*%
%TD*%
%TA.AperFunction,ComponentPad*%
%ADD13RoundRect,0.250000X-0.350000X-0.625000X0.350000X-0.625000X0.350000X0.625000X-0.350000X0.625000X0*%
%TD*%
%TA.AperFunction,ComponentPad*%
%ADD14O,1.200000X1.750000*%
%TD*%
%TA.AperFunction,HeatsinkPad*%
%ADD15O,2.100000X1.000000*%
%TD*%
%TA.AperFunction,HeatsinkPad*%
%ADD16O,1.800000X1.000000*%
%TD*%
%TA.AperFunction,ComponentPad*%
%ADD17C,0.600000*%
%TD*%
%TA.AperFunction,ViaPad*%
%ADD18C,0.600000*%
%TD*%
%TA.AperFunction,ViaPad*%
%ADD19C,0.400000*%
%TD*%
%TA.AperFunction,ViaPad*%
%ADD20C,0.800000*%
%TD*%
%TA.AperFunction,Conductor*%
%ADD21C,0.500000*%
%TD*%
G04 APERTURE END LIST*
D10*
%TO.N,N/C*%
%TO.C,H4*%
X34500000Y-65500000D03*
%TD*%
%TO.N,N/C*%
%TO.C,H3*%
X65500000Y-65500000D03*
%TD*%
D11*
%TO.N,/CAN_H*%
%TO.C,J5*%
X53740000Y-60850000D03*
D12*
%TO.N,Net-(J5-Pin_2)*%
X51200000Y-60850000D03*
%TD*%
D13*
%TO.N,VBUS*%
%TO.C,J1*%
X41500000Y-64500000D03*
D14*
%TO.N,/CAN_H*%
X43500000Y-64500000D03*
%TO.N,/CAN_L*%
X45500000Y-64500000D03*
%TO.N,GND*%
X47500000Y-64500000D03*
%TD*%
D10*
%TO.N,N/C*%
%TO.C,H2*%
X65500000Y-34500000D03*
%TD*%
%TO.N,N/C*%
%TO.C,H1*%
X34500000Y-34500000D03*
%TD*%
D15*
%TO.N,GND*%
%TO.C,J2*%
X36000000Y-52680000D03*
D16*
X31800000Y-52680000D03*
D15*
X36000000Y-61320000D03*
D16*
X31800000Y-61320000D03*
%TD*%
D17*
%TO.N,GND*%
%TO.C,U7*%
X57550000Y-35650000D03*
X58850000Y-35650000D03*
X60150000Y-35650000D03*
X61450000Y-35650000D03*
X57550000Y-34350000D03*
X58850000Y-34350000D03*
X60150000Y-34350000D03*
X61450000Y-34350000D03*
%TD*%
D13*
%TO.N,VBUS*%
%TO.C,J3*%
X52500000Y-64500000D03*
D14*
%TO.N,/CAN_H*%
X54500000Y-64500000D03*
%TO.N,/CAN_L*%
X56500000Y-64500000D03*
%TO.N,GND*%
X58500000Y-64500000D03*
%TD*%
D17*
%TO.N,GND*%
%TO.C,U8*%
X38550000Y-35650000D03*
X39850000Y-35650000D03*
X41150000Y-35650000D03*
X42450000Y-35650000D03*
X38550000Y-34350000D03*
X39850000Y-34350000D03*
X41150000Y-34350000D03*
X42450000Y-34350000D03*
%TD*%
D18*
%TO.N,+3.3V*%
X55475000Y-46750000D03*
D19*
X48451283Y-55248717D03*
D20*
X29950000Y-52100000D03*
X42450000Y-37725000D03*
D19*
X47336971Y-51248815D03*
X55325978Y-48350978D03*
D20*
X49950000Y-54675000D03*
D18*
X66525000Y-46575000D03*
D19*
X43275000Y-47950000D03*
D20*
X30112500Y-50712500D03*
D19*
X51904999Y-52575000D03*
X49126283Y-55923717D03*
D20*
X70100000Y-46275000D03*
D19*
X51551283Y-55098717D03*
X62905000Y-53600000D03*
D18*
X33650000Y-39550000D03*
D19*
X51480259Y-47800908D03*
X52723717Y-45750000D03*
X64467500Y-53600000D03*
X45201283Y-51923717D03*
D18*
X69650000Y-55550000D03*
D19*
X45876283Y-52598717D03*
D20*
X33325000Y-49775000D03*
D19*
X48130136Y-48699999D03*
D20*
X61475000Y-37650000D03*
X32100000Y-50775000D03*
%TO.N,GND*%
X50000000Y-51000000D03*
D18*
X49675000Y-43825000D03*
X55200000Y-55975000D03*
X68875000Y-51700000D03*
D20*
X52150000Y-31200000D03*
D18*
X39375000Y-56875000D03*
X66350000Y-60450000D03*
X36975000Y-37975000D03*
D20*
X41650000Y-43975000D03*
D18*
X31850000Y-54975000D03*
D20*
X41650000Y-40975000D03*
X47350000Y-31025000D03*
D18*
X56850000Y-44725000D03*
X46600000Y-60450000D03*
X33575000Y-29925000D03*
X42875000Y-49375000D03*
X50000000Y-63775000D03*
X55200000Y-36075000D03*
X54476283Y-54176283D03*
D20*
X58350000Y-40950000D03*
D18*
X36600000Y-69425000D03*
X42575000Y-56100000D03*
D20*
X58350000Y-43950000D03*
D18*
X30225000Y-33075000D03*
D20*
X40549999Y-60373289D03*
D18*
X33950000Y-60175000D03*
X58850000Y-55650000D03*
X57025000Y-52200000D03*
D20*
X41650000Y-42975000D03*
D18*
X61725000Y-62000000D03*
D20*
X50025000Y-33050000D03*
D18*
X68900000Y-50025000D03*
X50075000Y-56925000D03*
X53400000Y-42200000D03*
D20*
X64800000Y-48575000D03*
X63300000Y-56275000D03*
X51000000Y-50000000D03*
X41650000Y-39975000D03*
X41650000Y-41975000D03*
D18*
X67900000Y-58100000D03*
D20*
X39865000Y-32300000D03*
D18*
X38175000Y-49475000D03*
X48678858Y-42848223D03*
D20*
X68850000Y-41975000D03*
X58350000Y-39950000D03*
D18*
X43525000Y-68075000D03*
X31850000Y-46775000D03*
D20*
X58350000Y-42950000D03*
D18*
X37350000Y-31925000D03*
X60875000Y-49850000D03*
D20*
X58350000Y-41950000D03*
X49000000Y-50000000D03*
X58865000Y-32300000D03*
D18*
X42900000Y-52875000D03*
D20*
X50000000Y-50000000D03*
D18*
%TO.N,+1V1*%
X44683783Y-46501283D03*
X47550000Y-49000000D03*
X44026283Y-47151283D03*
X52157530Y-51207761D03*
D20*
%TO.N,VBUS*%
X36362500Y-43000000D03*
X63650000Y-40975000D03*
X36362500Y-44000000D03*
X36362500Y-40000000D03*
X63650000Y-43975000D03*
X63650000Y-41975000D03*
X61405000Y-32300000D03*
X36362500Y-42000000D03*
X42362500Y-29900000D03*
X63650000Y-39975000D03*
X63650000Y-42975000D03*
X42309881Y-32750000D03*
X36362500Y-41000000D03*
%TO.N,/B2*%
X49000000Y-36600000D03*
X38595000Y-32800000D03*
X38595000Y-31800000D03*
%TO.N,/B1*%
X41135000Y-31800000D03*
X47000000Y-36600000D03*
X41135000Y-32800000D03*
%TO.N,/A2*%
X57595000Y-31800000D03*
X53000000Y-36600000D03*
X57595000Y-32800000D03*
%TO.N,/A1*%
X60135000Y-32800000D03*
X51000000Y-36600000D03*
X60135000Y-31800000D03*
D19*
%TO.N,/NEOPIXEL*%
X34247500Y-46075000D03*
X49980879Y-46342168D03*
%TO.N,/QSPI_SS*%
X62905000Y-46400000D03*
X57366906Y-48641906D03*
%TO.N,/RUN*%
X69000000Y-48300000D03*
X45700000Y-48300000D03*
%TO.N,/A_CURRENT*%
X47425000Y-54150000D03*
X55272500Y-39575000D03*
%TO.N,/B_CURRENT*%
X48100000Y-54150000D03*
D20*
X38575000Y-37675000D03*
X51827500Y-39575000D03*
%TO.N,+5V*%
X57650000Y-57150000D03*
X33750000Y-58200000D03*
X44125000Y-61925000D03*
D19*
%TO.N,/SCL*%
X50635000Y-47425000D03*
%TO.N,/MT6701_PUSH*%
X49525000Y-45650000D03*
%TO.N,/SDA*%
X52225000Y-49075000D03*
%TO.N,/CAN_TX*%
X60155000Y-56475000D03*
X53370756Y-49768219D03*
D18*
%TO.N,/CAN_S*%
X46375000Y-58325000D03*
D19*
X45325000Y-48725000D03*
%TO.N,/CAN_RX*%
X56345000Y-56475000D03*
X52825000Y-49700000D03*
D18*
%TO.N,/MT6701_ANALOG*%
X49425000Y-53125000D03*
D20*
%TO.N,/VUSB*%
X42100000Y-59925000D03*
D18*
X37447981Y-59344999D03*
X37447982Y-54655001D03*
%TO.N,Net-(D1-DOUT)*%
X69650000Y-60450000D03*
X30325000Y-38850000D03*
D20*
%TO.N,/CAN_L*%
X57615000Y-61425000D03*
%TD*%
D21*
%TO.N,/B2*%
X39545000Y-30850000D02*
X43250000Y-30850000D01*
X38595000Y-31800000D02*
X39545000Y-30850000D01*
X38595000Y-32800000D02*
X38595000Y-31800000D01*
X43250000Y-30850000D02*
X49000000Y-36600000D01*
%TO.N,/B1*%
X41135000Y-32800000D02*
X41135000Y-31800000D01*
X43068630Y-31800000D02*
X47000000Y-35731370D01*
X41135000Y-31800000D02*
X43068630Y-31800000D01*
X47000000Y-35731370D02*
X47000000Y-36600000D01*
%TO.N,/A2*%
X57595000Y-31800000D02*
X56931370Y-31800000D01*
X56931370Y-31800000D02*
X53000000Y-35731370D01*
X53000000Y-35731370D02*
X53000000Y-36600000D01*
X57595000Y-32800000D02*
X57595000Y-31800000D01*
%TO.N,/A1*%
X60135000Y-31800000D02*
X59185000Y-30850000D01*
X59185000Y-30850000D02*
X56750000Y-30850000D01*
X60135000Y-32800000D02*
X60135000Y-31800000D01*
X56750000Y-30850000D02*
X51000000Y-36600000D01*
%TO.N,/CAN_H*%
X44925000Y-65925000D02*
X53350000Y-65925000D01*
X53350000Y-65925000D02*
X54500000Y-64775000D01*
X43500000Y-64500000D02*
X44925000Y-65925000D01*
%TD*%
%TA.AperFunction,Conductor*%
%TO.N,+3.3V*%
G36*
X41578813Y-29220185D02*
G01*
X41624568Y-29272989D01*
X41634512Y-29342147D01*
X41619161Y-29386500D01*
X41535321Y-29531715D01*
X41535318Y-29531722D01*
X41476827Y-29711740D01*
X41476826Y-29711744D01*
X41473252Y-29745750D01*
X41457040Y-29900000D01*
X41463613Y-29962539D01*
X41451043Y-30031269D01*
X41403311Y-30082292D01*
X41340292Y-30099500D01*
X39471080Y-30099500D01*
X39326092Y-30128340D01*
X39326086Y-30128342D01*
X39189508Y-30184914D01*
X39189496Y-30184921D01*
X39140270Y-30217811D01*
X39140271Y-30217812D01*
X39066581Y-30267049D01*
X38442228Y-30891402D01*
X38380905Y-30924887D01*
X38380329Y-30925011D01*
X38315196Y-30938856D01*
X38315192Y-30938857D01*
X38142270Y-31015848D01*
X38142265Y-31015851D01*
X37989129Y-31127111D01*
X37989128Y-31127112D01*
X37912820Y-31211860D01*
X37853333Y-31248508D01*
X37783476Y-31247177D01*
X37754699Y-31233881D01*
X37699522Y-31199210D01*
X37699518Y-31199209D01*
X37529262Y-31139633D01*
X37529249Y-31139630D01*
X37350004Y-31119435D01*
X37349996Y-31119435D01*
X37170750Y-31139630D01*
X37170745Y-31139631D01*
X37000476Y-31199211D01*
X36847737Y-31295184D01*
X36720184Y-31422737D01*
X36624210Y-31575478D01*
X36571792Y-31725283D01*
X36531070Y-31782059D01*
X36466117Y-31807807D01*
X36397556Y-31794351D01*
X36379710Y-31783046D01*
X36378412Y-31782059D01*
X36354919Y-31764200D01*
X36048253Y-31579685D01*
X36048252Y-31579684D01*
X36048248Y-31579682D01*
X36048244Y-31579680D01*
X35723447Y-31429414D01*
X35723441Y-31429411D01*
X35723435Y-31429409D01*
X35553854Y-31372270D01*
X35384273Y-31315131D01*
X35034744Y-31238194D01*
X34678949Y-31199500D01*
X34678948Y-31199500D01*
X34321052Y-31199500D01*
X34321050Y-31199500D01*
X33965255Y-31238194D01*
X33615726Y-31315131D01*
X33383780Y-31393284D01*
X33276565Y-31429409D01*
X33276563Y-31429410D01*
X33276552Y-31429414D01*
X32951755Y-31579680D01*
X32951751Y-31579682D01*
X32755292Y-31697888D01*
X32645081Y-31764200D01*
X32621588Y-31782059D01*
X32360172Y-31980781D01*
X32360163Y-31980789D01*
X32100331Y-32226914D01*
X31868641Y-32499680D01*
X31868634Y-32499690D01*
X31667790Y-32795913D01*
X31667784Y-32795922D01*
X31500151Y-33112111D01*
X31500142Y-33112129D01*
X31367674Y-33444600D01*
X31367672Y-33444607D01*
X31271932Y-33789434D01*
X31271926Y-33789460D01*
X31214029Y-34142614D01*
X31214028Y-34142631D01*
X31194652Y-34499997D01*
X31194652Y-34500002D01*
X31214028Y-34857368D01*
X31214029Y-34857385D01*
X31271926Y-35210539D01*
X31271932Y-35210565D01*
X31367672Y-35555392D01*
X31367674Y-35555399D01*
X31500142Y-35887870D01*
X31500151Y-35887888D01*
X31667784Y-36204077D01*
X31667787Y-36204082D01*
X31667789Y-36204085D01*
X31850529Y-36473607D01*
X31868634Y-36500309D01*
X31868641Y-36500319D01*
X32042342Y-36704815D01*
X32100332Y-36773086D01*
X32360163Y-37019211D01*
X32645081Y-37235800D01*
X32951747Y-37420315D01*
X32951749Y-37420316D01*
X32951751Y-37420317D01*
X32951755Y-37420319D01*
X33276552Y-37570585D01*
X33276565Y-37570591D01*
X33615726Y-37684868D01*
X33965254Y-37761805D01*
X34321052Y-37800500D01*
X34321058Y-37800500D01*
X34678942Y-37800500D01*
X34678948Y-37800500D01*
X35034746Y-37761805D01*
X35384274Y-37684868D01*
X35723435Y-37570591D01*
X36048253Y-37420315D01*
X36133043Y-37369297D01*
X36200631Y-37351602D01*
X36267060Y-37373258D01*
X36311236Y-37427390D01*
X36319133Y-37496812D01*
X36301964Y-37541519D01*
X36249212Y-37625474D01*
X36189631Y-37795745D01*
X36189630Y-37795750D01*
X36169435Y-37974996D01*
X36169435Y-37975003D01*
X36189630Y-38154249D01*
X36189631Y-38154254D01*
X36249211Y-38324523D01*
X36333802Y-38459148D01*
X36345184Y-38477262D01*
X36472738Y-38604816D01*
X36625478Y-38700789D01*
X36795745Y-38760368D01*
X36795750Y-38760369D01*
X36974996Y-38780565D01*
X36975000Y-38780565D01*
X36975004Y-38780565D01*
X37154249Y-38760369D01*
X37154252Y-38760368D01*
X37154255Y-38760368D01*
X37324522Y-38700789D01*
X37477262Y-38604816D01*
X37604816Y-38477262D01*
X37700789Y-38324522D01*
X37700863Y-38324311D01*
X37700950Y-38324189D01*
X37703812Y-38318247D01*
X37704852Y-38318747D01*
X37741579Y-38267531D01*
X37806530Y-38241778D01*
X37875093Y-38255228D01*
X37910058Y-38282283D01*
X37969129Y-38347888D01*
X38122265Y-38459148D01*
X38122270Y-38459151D01*
X38295192Y-38536142D01*
X38295197Y-38536144D01*
X38480354Y-38575500D01*
X38480355Y-38575500D01*
X38669644Y-38575500D01*
X38669646Y-38575500D01*
X38854803Y-38536144D01*
X39027730Y-38459151D01*
X39180871Y-38347888D01*
X39307533Y-38207216D01*
X39402179Y-38043284D01*
X39460674Y-37863256D01*
X39480460Y-37675000D01*
X39460674Y-37486744D01*
X39402179Y-37306716D01*
X39307533Y-37142784D01*
X39180871Y-37002112D01*
X39180870Y-37002111D01*
X39027734Y-36890851D01*
X39027729Y-36890848D01*
X38854807Y-36813857D01*
X38854802Y-36813855D01*
X38709001Y-36782865D01*
X38669646Y-36774500D01*
X38480354Y-36774500D01*
X38447897Y-36781398D01*
X38295197Y-36813855D01*
X38295192Y-36813857D01*
X38122270Y-36890848D01*
X38122265Y-36890851D01*
X37969129Y-37002111D01*
X37842466Y-37142785D01*
X37747821Y-37306715D01*
X37747819Y-37306719D01*
X37734565Y-37347513D01*
X37695127Y-37405188D01*
X37630768Y-37432386D01*
X37561922Y-37420471D01*
X37528953Y-37396875D01*
X37477262Y-37345184D01*
X37324523Y-37249211D01*
X37154254Y-37189631D01*
X37154249Y-37189630D01*
X36975004Y-37169435D01*
X36974996Y-37169435D01*
X36795739Y-37189631D01*
X36795349Y-37189721D01*
X36795090Y-37189705D01*
X36788825Y-37190411D01*
X36788701Y-37189313D01*
X36725611Y-37185442D01*
X36669257Y-37144139D01*
X36644179Y-37078925D01*
X36658339Y-37010505D01*
X36682486Y-36978811D01*
X36899668Y-36773086D01*
X37131365Y-36500311D01*
X37332211Y-36204085D01*
X37499853Y-35887880D01*
X37499856Y-35887870D01*
X37499860Y-35887864D01*
X37529260Y-35814075D01*
X37572360Y-35759082D01*
X37638349Y-35736121D01*
X37706276Y-35752482D01*
X37754575Y-35802969D01*
X37761855Y-35822848D01*
X37762332Y-35822682D01*
X37824211Y-35999523D01*
X37886656Y-36098903D01*
X37920184Y-36152262D01*
X38047738Y-36279816D01*
X38200478Y-36375789D01*
X38339749Y-36424522D01*
X38370745Y-36435368D01*
X38370750Y-36435369D01*
X38549996Y-36455565D01*
X38550000Y-36455565D01*
X38550004Y-36455565D01*
X38729249Y-36435369D01*
X38729252Y-36435368D01*
X38729255Y-36435368D01*
X38899522Y-36375789D01*
X39052262Y-36279816D01*
X39112319Y-36219759D01*
X39173642Y-36186274D01*
X39243334Y-36191258D01*
X39287681Y-36219759D01*
X39347738Y-36279816D01*
X39500478Y-36375789D01*
X39639749Y-36424522D01*
X39670745Y-36435368D01*
X39670750Y-36435369D01*
X39849996Y-36455565D01*
X39850000Y-36455565D01*
X39850004Y-36455565D01*
X40029249Y-36435369D01*
X40029252Y-36435368D01*
X40029255Y-36435368D01*
X40199522Y-36375789D01*
X40352262Y-36279816D01*
X40412319Y-36219759D01*
X40473642Y-36186274D01*
X40543334Y-36191258D01*
X40587681Y-36219759D01*
X40647738Y-36279816D01*
X40800478Y-36375789D01*
X40939749Y-36424522D01*
X40970745Y-36435368D01*
X40970750Y-36435369D01*
X41149996Y-36455565D01*
X41150000Y-36455565D01*
X41150004Y-36455565D01*
X41329249Y-36435369D01*
X41329252Y-36435368D01*
X41329255Y-36435368D01*
X41499522Y-36375789D01*
X41652262Y-36279816D01*
X41712319Y-36219759D01*
X41773642Y-36186274D01*
X41843334Y-36191258D01*
X41887681Y-36219759D01*
X41947738Y-36279816D01*
X42100478Y-36375789D01*
X42239749Y-36424522D01*
X42270745Y-36435368D01*
X42270750Y-36435369D01*
X42449996Y-36455565D01*
X42450000Y-36455565D01*
X42450004Y-36455565D01*
X42629249Y-36435369D01*
X42629252Y-36435368D01*
X42629255Y-36435368D01*
X42799522Y-36375789D01*
X42952262Y-36279816D01*
X43079816Y-36152262D01*
X43175789Y-35999522D01*
X43235368Y-35829255D01*
X43236109Y-35822682D01*
X43255565Y-35650003D01*
X43255565Y-35649996D01*
X43235369Y-35470750D01*
X43235368Y-35470745D01*
X43226423Y-35445183D01*
X43175789Y-35300478D01*
X43168973Y-35289631D01*
X43119285Y-35210552D01*
X43079816Y-35147738D01*
X43019759Y-35087681D01*
X42986274Y-35026358D01*
X42991258Y-34956666D01*
X43019759Y-34912319D01*
X43079816Y-34852262D01*
X43175789Y-34699522D01*
X43235368Y-34529255D01*
X43238664Y-34500002D01*
X43255565Y-34350003D01*
X43255565Y-34349996D01*
X43235369Y-34170750D01*
X43235368Y-34170745D01*
X43225530Y-34142629D01*
X43175789Y-34000478D01*
X43079816Y-33847738D01*
X42952262Y-33720184D01*
X42868499Y-33667552D01*
X42822209Y-33615218D01*
X42811561Y-33546165D01*
X42839936Y-33482316D01*
X42861587Y-33462241D01*
X42885865Y-33444602D01*
X42915752Y-33422888D01*
X43042414Y-33282216D01*
X43125253Y-33138733D01*
X43175816Y-33090522D01*
X43244423Y-33077298D01*
X43309288Y-33103266D01*
X43320318Y-33113056D01*
X46202960Y-35995698D01*
X46236445Y-36057021D01*
X46231461Y-36126713D01*
X46222667Y-36145378D01*
X46172820Y-36231716D01*
X46117931Y-36400648D01*
X46114326Y-36411744D01*
X46094540Y-36600000D01*
X46114326Y-36788256D01*
X46114327Y-36788259D01*
X46172818Y-36968277D01*
X46172821Y-36968284D01*
X46267467Y-37132216D01*
X46360735Y-37235800D01*
X46394129Y-37272888D01*
X46547265Y-37384148D01*
X46547270Y-37384151D01*
X46720192Y-37461142D01*
X46720197Y-37461144D01*
X46905354Y-37500500D01*
X46905355Y-37500500D01*
X47094644Y-37500500D01*
X47094646Y-37500500D01*
X47279803Y-37461144D01*
X47452730Y-37384151D01*
X47605871Y-37272888D01*
X47732533Y-37132216D01*
X47827179Y-36968284D01*
X47882069Y-36799348D01*
X47921505Y-36741676D01*
X47985863Y-36714477D01*
X48054710Y-36726391D01*
X48106186Y-36773635D01*
X48117930Y-36799350D01*
X48172819Y-36968280D01*
X48172821Y-36968284D01*
X48267467Y-37132216D01*
X48360735Y-37235800D01*
X48394129Y-37272888D01*
X48547265Y-37384148D01*
X48547270Y-37384151D01*
X48720192Y-37461142D01*
X48720197Y-37461144D01*
X48905354Y-37500500D01*
X48905355Y-37500500D01*
X49094644Y-37500500D01*
X49094646Y-37500500D01*
X49279803Y-37461144D01*
X49452730Y-37384151D01*
X49605871Y-37272888D01*
X49732533Y-37132216D01*
X49827179Y-36968284D01*
X49882069Y-36799351D01*
X49921506Y-36741675D01*
X49985865Y-36714477D01*
X50054711Y-36726392D01*
X50106187Y-36773636D01*
X50117931Y-36799351D01*
X50172818Y-36968277D01*
X50172821Y-36968284D01*
X50267467Y-37132216D01*
X50360735Y-37235800D01*
X50394129Y-37272888D01*
X50547265Y-37384148D01*
X50547270Y-37384151D01*
X50720192Y-37461142D01*
X50720197Y-37461144D01*
X50905354Y-37500500D01*
X50905355Y-37500500D01*
X51094644Y-37500500D01*
X51094646Y-37500500D01*
X51279803Y-37461144D01*
X51452730Y-37384151D01*
X51605871Y-37272888D01*
X51732533Y-37132216D01*
X51827179Y-36968284D01*
X51882069Y-36799348D01*
X51921505Y-36741675D01*
X51985863Y-36714476D01*
X52054710Y-36726390D01*
X52106186Y-36773634D01*
X52117930Y-36799349D01*
X52172819Y-36968280D01*
X52172821Y-36968284D01*
X52267467Y-37132216D01*
X52360735Y-37235800D01*
X52394129Y-37272888D01*
X52547265Y-37384148D01*
X52547270Y-37384151D01*
X52720192Y-37461142D01*
X52720197Y-37461144D01*
X52905354Y-37500500D01*
X52905355Y-37500500D01*
X53094644Y-37500500D01*
X53094646Y-37500500D01*
X53279803Y-37461144D01*
X53452730Y-37384151D01*
X53605871Y-37272888D01*
X53732533Y-37132216D01*
X53827179Y-36968284D01*
X53885674Y-36788256D01*
X53905460Y-36600000D01*
X53885674Y-36411744D01*
X53827179Y-36231716D01*
X53811227Y-36204086D01*
X53777333Y-36145379D01*
X53760860Y-36077479D01*
X53761719Y-36074996D01*
X54394435Y-36074996D01*
X54394435Y-36075003D01*
X54414630Y-36254249D01*
X54414631Y-36254254D01*
X54474211Y-36424523D01*
X54495450Y-36458324D01*
X54570184Y-36577262D01*
X54697738Y-36704816D01*
X54788080Y-36761582D01*
X54848187Y-36799350D01*
X54850478Y-36800789D01*
X55020745Y-36860368D01*
X55020750Y-36860369D01*
X55199996Y-36880565D01*
X55200000Y-36880565D01*
X55200004Y-36880565D01*
X55379249Y-36860369D01*
X55379252Y-36860368D01*
X55379255Y-36860368D01*
X55549522Y-36800789D01*
X55702262Y-36704816D01*
X55829816Y-36577262D01*
X55925789Y-36424522D01*
X55985368Y-36254255D01*
X55996860Y-36152262D01*
X56005565Y-36075003D01*
X56005565Y-36074996D01*
X55985369Y-35895750D01*
X55985368Y-35895745D01*
X55962100Y-35829249D01*
X55925789Y-35725478D01*
X55829816Y-35572738D01*
X55702262Y-35445184D01*
X55590893Y-35375206D01*
X55549523Y-35349211D01*
X55379254Y-35289631D01*
X55379249Y-35289630D01*
X55200004Y-35269435D01*
X55199996Y-35269435D01*
X55020750Y-35289630D01*
X55020745Y-35289631D01*
X54850476Y-35349211D01*
X54697739Y-35445183D01*
X54694956Y-35447403D01*
X54692817Y-35448275D01*
X54691842Y-35448889D01*
X54691734Y-35448718D01*
X54630268Y-35473809D01*
X54592816Y-35466853D01*
X54599137Y-35483800D01*
X54584285Y-35552073D01*
X54572403Y-35569956D01*
X54570183Y-35572739D01*
X54474211Y-35725476D01*
X54414631Y-35895745D01*
X54414630Y-35895750D01*
X54394435Y-36074996D01*
X53761719Y-36074996D01*
X53783713Y-36011452D01*
X53797033Y-35995704D01*
X54387773Y-35404964D01*
X54449095Y-35371480D01*
X54501196Y-35375206D01*
X54493749Y-35345391D01*
X54516154Y-35279211D01*
X54529961Y-35262776D01*
X56601078Y-33191658D01*
X56662399Y-33158175D01*
X56732091Y-33163159D01*
X56788024Y-33205031D01*
X56796144Y-33217341D01*
X56862467Y-33332216D01*
X56944109Y-33422888D01*
X56989129Y-33472888D01*
X57050502Y-33517478D01*
X57093168Y-33572808D01*
X57099147Y-33642421D01*
X57066542Y-33704216D01*
X57052791Y-33715348D01*
X57053184Y-33715841D01*
X57047737Y-33720184D01*
X56920184Y-33847737D01*
X56824211Y-34000476D01*
X56764631Y-34170745D01*
X56764630Y-34170750D01*
X56744435Y-34349996D01*
X56744435Y-34350003D01*
X56764630Y-34529249D01*
X56764631Y-34529254D01*
X56824211Y-34699523D01*
X56920184Y-34852262D01*
X56980241Y-34912319D01*
X57013726Y-34973642D01*
X57008742Y-35043334D01*
X56980241Y-35087681D01*
X56920184Y-35147737D01*
X56824211Y-35300476D01*
X56764631Y-35470745D01*
X56764630Y-35470750D01*
X56744435Y-35649996D01*
X56744435Y-35650003D01*
X56764630Y-35829249D01*
X56764631Y-35829254D01*
X56824211Y-35999523D01*
X56886656Y-36098903D01*
X56920184Y-36152262D01*
X57047738Y-36279816D01*
X57200478Y-36375789D01*
X57339749Y-36424522D01*
X57370745Y-36435368D01*
X57370750Y-36435369D01*
X57549996Y-36455565D01*
X57550000Y-36455565D01*
X57550004Y-36455565D01*
X57729249Y-36435369D01*
X57729252Y-36435368D01*
X57729255Y-36435368D01*
X57899522Y-36375789D01*
X58052262Y-36279816D01*
X58112319Y-36219759D01*
X58173642Y-36186274D01*
X58243334Y-36191258D01*
X58287681Y-36219759D01*
X58347738Y-36279816D01*
X58500478Y-36375789D01*
X58639749Y-36424522D01*
X58670745Y-36435368D01*
X58670750Y-36435369D01*
X58849996Y-36455565D01*
X58850000Y-36455565D01*
X58850004Y-36455565D01*
X59029249Y-36435369D01*
X59029252Y-36435368D01*
X59029255Y-36435368D01*
X59199522Y-36375789D01*
X59352262Y-36279816D01*
X59412319Y-36219759D01*
X59473642Y-36186274D01*
X59543334Y-36191258D01*
X59587681Y-36219759D01*
X59647738Y-36279816D01*
X59800478Y-36375789D01*
X59939749Y-36424522D01*
X59970745Y-36435368D01*
X59970750Y-36435369D01*
X60149996Y-36455565D01*
X60150000Y-36455565D01*
X60150004Y-36455565D01*
X60329249Y-36435369D01*
X60329252Y-36435368D01*
X60329255Y-36435368D01*
X60499522Y-36375789D01*
X60652262Y-36279816D01*
X60712319Y-36219759D01*
X60773642Y-36186274D01*
X60843334Y-36191258D01*
X60887681Y-36219759D01*
X60947738Y-36279816D01*
X61100478Y-36375789D01*
X61239749Y-36424522D01*
X61270745Y-36435368D01*
X61270750Y-36435369D01*
X61449996Y-36455565D01*
X61450000Y-36455565D01*
X61450004Y-36455565D01*
X61629249Y-36435369D01*
X61629252Y-36435368D01*
X61629255Y-36435368D01*
X61799522Y-36375789D01*
X61952262Y-36279816D01*
X62079816Y-36152262D01*
X62175789Y-35999522D01*
X62235368Y-35829255D01*
X62235368Y-35829254D01*
X62237668Y-35822682D01*
X62239689Y-35823389D01*
X62268747Y-35771417D01*
X62330402Y-35738547D01*
X62400040Y-35744229D01*
X62455552Y-35786658D01*
X62470739Y-35814073D01*
X62500145Y-35887875D01*
X62500151Y-35887888D01*
X62667784Y-36204077D01*
X62667787Y-36204082D01*
X62667789Y-36204085D01*
X62850529Y-36473607D01*
X62868634Y-36500309D01*
X62868641Y-36500319D01*
X63042342Y-36704815D01*
X63100332Y-36773086D01*
X63360163Y-37019211D01*
X63645081Y-37235800D01*
X63951747Y-37420315D01*
X63951749Y-37420316D01*
X63951751Y-37420317D01*
X63951755Y-37420319D01*
X64276552Y-37570585D01*
X64276565Y-37570591D01*
X64615726Y-37684868D01*
X64965254Y-37761805D01*
X65321052Y-37800500D01*
X65321058Y-37800500D01*
X65678942Y-37800500D01*
X65678948Y-37800500D01*
X66034746Y-37761805D01*
X66384274Y-37684868D01*
X66723435Y-37570591D01*
X67048253Y-37420315D01*
X67354919Y-37235800D01*
X67639837Y-37019211D01*
X67899668Y-36773086D01*
X68131365Y-36500311D01*
X68332211Y-36204085D01*
X68499853Y-35887880D01*
X68632324Y-35555403D01*
X68728071Y-35210552D01*
X68765898Y-34979816D01*
X68785970Y-34857385D01*
X68785970Y-34857382D01*
X68785972Y-34857371D01*
X68805348Y-34500000D01*
X68785972Y-34142629D01*
X68782302Y-34120245D01*
X68728073Y-33789460D01*
X68728072Y-33789459D01*
X68728071Y-33789448D01*
X68680465Y-33617986D01*
X68632327Y-33444607D01*
X68632325Y-33444600D01*
X68499857Y-33112129D01*
X68499848Y-33112111D01*
X68332215Y-32795922D01*
X68332213Y-32795919D01*
X68332211Y-32795915D01*
X68131365Y-32499689D01*
X68131361Y-32499684D01*
X68131358Y-32499680D01*
X67899668Y-32226914D01*
X67639837Y-31980789D01*
X67639830Y-31980783D01*
X67639827Y-31980781D01*
X67546171Y-31909586D01*
X67354919Y-31764200D01*
X67048253Y-31579685D01*
X67048252Y-31579684D01*
X67048248Y-31579682D01*
X67048244Y-31579680D01*
X66723447Y-31429414D01*
X66723441Y-31429411D01*
X66723435Y-31429409D01*
X66553854Y-31372270D01*
X66384273Y-31315131D01*
X66034744Y-31238194D01*
X65678949Y-31199500D01*
X65678948Y-31199500D01*
X65321052Y-31199500D01*
X65321050Y-31199500D01*
X64965255Y-31238194D01*
X64615726Y-31315131D01*
X64383780Y-31393284D01*
X64276565Y-31429409D01*
X64276563Y-31429410D01*
X64276552Y-31429414D01*
X63951755Y-31579680D01*
X63951751Y-31579682D01*
X63755292Y-31697888D01*
X63645081Y-31764200D01*
X63621588Y-31782059D01*
X63360172Y-31980781D01*
X63360163Y-31980789D01*
X63100331Y-32226914D01*
X62868641Y-32499680D01*
X62868634Y-32499690D01*
X62667790Y-32795913D01*
X62667784Y-32795922D01*
X62500151Y-33112111D01*
X62500142Y-33112129D01*
X62367674Y-33444600D01*
X62367673Y-33444602D01*
X62274376Y-33780630D01*
X62237474Y-33839959D01*
X62174354Y-33869920D01*
X62105056Y-33860999D01*
X62067215Y-33835137D01*
X61952262Y-33720184D01*
X61799523Y-33624211D01*
X61629254Y-33564631D01*
X61629249Y-33564630D01*
X61450004Y-33544435D01*
X61449996Y-33544435D01*
X61270750Y-33564630D01*
X61270745Y-33564631D01*
X61100476Y-33624211D01*
X60947737Y-33720184D01*
X60887681Y-33780241D01*
X60826358Y-33813726D01*
X60756666Y-33808742D01*
X60712319Y-33780241D01*
X60648978Y-33716900D01*
X60615493Y-33655577D01*
X60620477Y-33585885D01*
X60662349Y-33529952D01*
X60663659Y-33528985D01*
X60740871Y-33472888D01*
X60867533Y-33332216D01*
X60942969Y-33201557D01*
X60993536Y-33153342D01*
X61062143Y-33140118D01*
X61100794Y-33150279D01*
X61125197Y-33161144D01*
X61310354Y-33200500D01*
X61310355Y-33200500D01*
X61499644Y-33200500D01*
X61499646Y-33200500D01*
X61684803Y-33161144D01*
X61857730Y-33084151D01*
X62010871Y-32972888D01*
X62137533Y-32832216D01*
X62232179Y-32668284D01*
X62290674Y-32488256D01*
X62310460Y-32300000D01*
X62290674Y-32111744D01*
X62232179Y-31931716D01*
X62137533Y-31767784D01*
X62010871Y-31627112D01*
X62010870Y-31627111D01*
X61857734Y-31515851D01*
X61857729Y-31515848D01*
X61684807Y-31438857D01*
X61684802Y-31438855D01*
X61539001Y-31407865D01*
X61499646Y-31399500D01*
X61310354Y-31399500D01*
X61270999Y-31407865D01*
X61125198Y-31438855D01*
X61125193Y-31438857D01*
X61100787Y-31449723D01*
X61031537Y-31459006D01*
X60968261Y-31429375D01*
X60942968Y-31398442D01*
X60894869Y-31315132D01*
X60867533Y-31267784D01*
X60740871Y-31127112D01*
X60740870Y-31127111D01*
X60587734Y-31015851D01*
X60587729Y-31015848D01*
X60414807Y-30938857D01*
X60414803Y-30938856D01*
X60349669Y-30925011D01*
X60288188Y-30891818D01*
X60287770Y-30891402D01*
X59663421Y-30267052D01*
X59663414Y-30267046D01*
X59589729Y-30217812D01*
X59589729Y-30217813D01*
X59540491Y-30184913D01*
X59403917Y-30128343D01*
X59403907Y-30128340D01*
X59258920Y-30099500D01*
X59258918Y-30099500D01*
X56676082Y-30099500D01*
X56676080Y-30099500D01*
X56531092Y-30128340D01*
X56531086Y-30128342D01*
X56394508Y-30184914D01*
X56394496Y-30184921D01*
X56345269Y-30217813D01*
X56271588Y-30267044D01*
X56271580Y-30267050D01*
X50847228Y-35691402D01*
X50785905Y-35724887D01*
X50785329Y-35725011D01*
X50720196Y-35738856D01*
X50720192Y-35738857D01*
X50547270Y-35815848D01*
X50547265Y-35815851D01*
X50394129Y-35927111D01*
X50267466Y-36067785D01*
X50172821Y-36231715D01*
X50172818Y-36231722D01*
X50117931Y-36400648D01*
X50078493Y-36458324D01*
X50014135Y-36485522D01*
X49945288Y-36473607D01*
X49893813Y-36426363D01*
X49882069Y-36400648D01*
X49827181Y-36231722D01*
X49827180Y-36231721D01*
X49827179Y-36231716D01*
X49732533Y-36067784D01*
X49605871Y-35927112D01*
X49551851Y-35887864D01*
X49452734Y-35815851D01*
X49452729Y-35815848D01*
X49279807Y-35738857D01*
X49279803Y-35738856D01*
X49214669Y-35725011D01*
X49153188Y-35691818D01*
X49152770Y-35691402D01*
X46511369Y-33050000D01*
X49119540Y-33050000D01*
X49139326Y-33238256D01*
X49139327Y-33238259D01*
X49197818Y-33418277D01*
X49197821Y-33418284D01*
X49292467Y-33582216D01*
X49346676Y-33642421D01*
X49419129Y-33722888D01*
X49572265Y-33834148D01*
X49572270Y-33834151D01*
X49745192Y-33911142D01*
X49745197Y-33911144D01*
X49930354Y-33950500D01*
X49930355Y-33950500D01*
X50119644Y-33950500D01*
X50119646Y-33950500D01*
X50304803Y-33911144D01*
X50477730Y-33834151D01*
X50630871Y-33722888D01*
X50757533Y-33582216D01*
X50852179Y-33418284D01*
X50910674Y-33238256D01*
X50930460Y-33050000D01*
X50910674Y-32861744D01*
X50852179Y-32681716D01*
X50757533Y-32517784D01*
X50630871Y-32377112D01*
X50630870Y-32377111D01*
X50477734Y-32265851D01*
X50477729Y-32265848D01*
X50304807Y-32188857D01*
X50304802Y-32188855D01*
X50159001Y-32157865D01*
X50119646Y-32149500D01*
X49930354Y-32149500D01*
X49897897Y-32156398D01*
X49745197Y-32188855D01*
X49745192Y-32188857D01*
X49572270Y-32265848D01*
X49572265Y-32265851D01*
X49419129Y-32377111D01*
X49292466Y-32517785D01*
X49197821Y-32681715D01*
X49197818Y-32681722D01*
X49148921Y-32832214D01*
X49139326Y-32861744D01*
X49119540Y-33050000D01*
X46511369Y-33050000D01*
X44486369Y-31025000D01*
X46444540Y-31025000D01*
X46464326Y-31213256D01*
X46464327Y-31213259D01*
X46522818Y-31393277D01*
X46522821Y-31393284D01*
X46617467Y-31557216D01*
X46680401Y-31627111D01*
X46744129Y-31697888D01*
X46897265Y-31809148D01*
X46897270Y-31809151D01*
X47070192Y-31886142D01*
X47070197Y-31886144D01*
X47255354Y-31925500D01*
X47255355Y-31925500D01*
X47444644Y-31925500D01*
X47444646Y-31925500D01*
X47629803Y-31886144D01*
X47802730Y-31809151D01*
X47955871Y-31697888D01*
X48082533Y-31557216D01*
X48177179Y-31393284D01*
X48235674Y-31213256D01*
X48237067Y-31200000D01*
X51244540Y-31200000D01*
X51264326Y-31388256D01*
X51264327Y-31388259D01*
X51322818Y-31568277D01*
X51322821Y-31568284D01*
X51417467Y-31732216D01*
X51429649Y-31745745D01*
X51544129Y-31872888D01*
X51697265Y-31984148D01*
X51697270Y-31984151D01*
X51870192Y-32061142D01*
X51870197Y-32061144D01*
X52055354Y-32100500D01*
X52055355Y-32100500D01*
X52244644Y-32100500D01*
X52244646Y-32100500D01*
X52429803Y-32061144D01*
X52602730Y-31984151D01*
X52755871Y-31872888D01*
X52882533Y-31732216D01*
X52977179Y-31568284D01*
X53035674Y-31388256D01*
X53055460Y-31200000D01*
X53035674Y-31011744D01*
X52977179Y-30831716D01*
X52882533Y-30667784D01*
X52755871Y-30527112D01*
X52708624Y-30492785D01*
X52602734Y-30415851D01*
X52602729Y-30415848D01*
X52429807Y-30338857D01*
X52429802Y-30338855D01*
X52284001Y-30307865D01*
X52244646Y-30299500D01*
X52055354Y-30299500D01*
X52022897Y-30306398D01*
X51870197Y-30338855D01*
X51870192Y-30338857D01*
X51697270Y-30415848D01*
X51697265Y-30415851D01*
X51544129Y-30527111D01*
X51417466Y-30667785D01*
X51322821Y-30831715D01*
X51322818Y-30831722D01*
X51264327Y-31011740D01*
X51264326Y-31011744D01*
X51244540Y-31200000D01*
X48237067Y-31200000D01*
X48255460Y-31025000D01*
X48235674Y-30836744D01*
X48177179Y-30656716D01*
X48082533Y-30492784D01*
X47955871Y-30352112D01*
X47937626Y-30338856D01*
X47802734Y-30240851D01*
X47802729Y-30240848D01*
X47629807Y-30163857D01*
X47629802Y-30163855D01*
X47462721Y-30128342D01*
X47444646Y-30124500D01*
X47255354Y-30124500D01*
X47237279Y-30128342D01*
X47070197Y-30163855D01*
X47070192Y-30163857D01*
X46897270Y-30240848D01*
X46897265Y-30240851D01*
X46744129Y-30352111D01*
X46617466Y-30492785D01*
X46522821Y-30656715D01*
X46522818Y-30656722D01*
X46464327Y-30836740D01*
X46464326Y-30836744D01*
X46444540Y-31025000D01*
X44486369Y-31025000D01*
X43728421Y-30267052D01*
X43728414Y-30267046D01*
X43654729Y-30217812D01*
X43654729Y-30217813D01*
X43605491Y-30184913D01*
X43468917Y-30128343D01*
X43468906Y-30128340D01*
X43359521Y-30106581D01*
X43297610Y-30074195D01*
X43263036Y-30013479D01*
X43260392Y-29972003D01*
X43261387Y-29962539D01*
X43267960Y-29900000D01*
X43248174Y-29711744D01*
X43189679Y-29531716D01*
X43105839Y-29386500D01*
X43089366Y-29318599D01*
X43112219Y-29252573D01*
X43167140Y-29209382D01*
X43213226Y-29200500D01*
X66865588Y-29200500D01*
X66932627Y-29220185D01*
X66953269Y-29236819D01*
X70763181Y-33046731D01*
X70796666Y-33108054D01*
X70799500Y-33134412D01*
X70799500Y-66865588D01*
X70779815Y-66932627D01*
X70763181Y-66953269D01*
X66953269Y-70763181D01*
X66891946Y-70796666D01*
X66865588Y-70799500D01*
X33134412Y-70799500D01*
X33067373Y-70779815D01*
X33046731Y-70763181D01*
X31708546Y-69424996D01*
X35794435Y-69424996D01*
X35794435Y-69425003D01*
X35814630Y-69604249D01*
X35814631Y-69604254D01*
X35874211Y-69774523D01*
X35970184Y-69927262D01*
X36097738Y-70054816D01*
X36250478Y-70150789D01*
X36420745Y-70210368D01*
X36420750Y-70210369D01*
X36599996Y-70230565D01*
X36600000Y-70230565D01*
X36600004Y-70230565D01*
X36779249Y-70210369D01*
X36779252Y-70210368D01*
X36779255Y-70210368D01*
X36949522Y-70150789D01*
X37102262Y-70054816D01*
X37229816Y-69927262D01*
X37325789Y-69774522D01*
X37385368Y-69604255D01*
X37405565Y-69425000D01*
X37385368Y-69245745D01*
X37325789Y-69075478D01*
X37229816Y-68922738D01*
X37102262Y-68795184D01*
X37049140Y-68761805D01*
X36949523Y-68699211D01*
X36779254Y-68639631D01*
X36779249Y-68639630D01*
X36600004Y-68619435D01*
X36599996Y-68619435D01*
X36420750Y-68639630D01*
X36420745Y-68639631D01*
X36250476Y-68699211D01*
X36097737Y-68795184D01*
X35970184Y-68922737D01*
X35874211Y-69075476D01*
X35814631Y-69245745D01*
X35814630Y-69245750D01*
X35794435Y-69424996D01*
X31708546Y-69424996D01*
X29236819Y-66953269D01*
X29203334Y-66891946D01*
X29200500Y-66865588D01*
X29200500Y-65499997D01*
X31194652Y-65499997D01*
X31194652Y-65500002D01*
X31196249Y-65529457D01*
X31211449Y-65809812D01*
X31214028Y-65857368D01*
X31214029Y-65857385D01*
X31271926Y-66210539D01*
X31271932Y-66210565D01*
X31367672Y-66555392D01*
X31367674Y-66555399D01*
X31500142Y-66887870D01*
X31500151Y-66887888D01*
X31667784Y-67204077D01*
X31667787Y-67204082D01*
X31667789Y-67204085D01*
X31725791Y-67289632D01*
X31868634Y-67500309D01*
X31868641Y-67500319D01*
X32059893Y-67725478D01*
X32100332Y-67773086D01*
X32360163Y-68019211D01*
X32645081Y-68235800D01*
X32951747Y-68420315D01*
X32951749Y-68420316D01*
X32951751Y-68420317D01*
X32951755Y-68420319D01*
X32960840Y-68424522D01*
X33276565Y-68570591D01*
X33615726Y-68684868D01*
X33965254Y-68761805D01*
X34321052Y-68800500D01*
X34321058Y-68800500D01*
X34678942Y-68800500D01*
X34678948Y-68800500D01*
X35034746Y-68761805D01*
X35384274Y-68684868D01*
X35723435Y-68570591D01*
X36048253Y-68420315D01*
X36354919Y-68235800D01*
X36566453Y-68074996D01*
X42719435Y-68074996D01*
X42719435Y-68075003D01*
X42739630Y-68254249D01*
X42739631Y-68254254D01*
X42799211Y-68424523D01*
X42890989Y-68570585D01*
X42895184Y-68577262D01*
X43022738Y-68704816D01*
X43113080Y-68761582D01*
X43166557Y-68795184D01*
X43175478Y-68800789D01*
X43345745Y-68860368D01*
X43345750Y-68860369D01*
X43524996Y-68880565D01*
X43525000Y-68880565D01*
X43525004Y-68880565D01*
X43704249Y-68860369D01*
X43704252Y-68860368D01*
X43704255Y-68860368D01*
X43874522Y-68800789D01*
X44027262Y-68704816D01*
X44154816Y-68577262D01*
X44250789Y-68424522D01*
X44310368Y-68254255D01*
X44310369Y-68254249D01*
X44330565Y-68075003D01*
X44330565Y-68074996D01*
X44310369Y-67895750D01*
X44310368Y-67895745D01*
X44250788Y-67725476D01*
X44154815Y-67572737D01*
X44027262Y-67445184D01*
X43874523Y-67349211D01*
X43704254Y-67289631D01*
X43704249Y-67289630D01*
X43525004Y-67269435D01*
X43524996Y-67269435D01*
X43345750Y-67289630D01*
X43345745Y-67289631D01*
X43175476Y-67349211D01*
X43022737Y-67445184D01*
X42895184Y-67572737D01*
X42799211Y-67725476D01*
X42739631Y-67895745D01*
X42739630Y-67895750D01*
X42719435Y-68074996D01*
X36566453Y-68074996D01*
X36639837Y-68019211D01*
X36899668Y-67773086D01*
X37131365Y-67500311D01*
X37332211Y-67204085D01*
X37499853Y-66887880D01*
X37632324Y-66555403D01*
X37728071Y-66210552D01*
X37780776Y-65889067D01*
X37785970Y-65857385D01*
X37785970Y-65857382D01*
X37785972Y-65857371D01*
X37805348Y-65500000D01*
X37804910Y-65491930D01*
X37799543Y-65392938D01*
X37785972Y-65142629D01*
X37770868Y-65050500D01*
X37728073Y-64789460D01*
X37728072Y-64789459D01*
X37728071Y-64789448D01*
X37632324Y-64444597D01*
X37504795Y-64124523D01*
X37499857Y-64112129D01*
X37499848Y-64112111D01*
X37347622Y-63824983D01*
X40399500Y-63824983D01*
X40399500Y-65175001D01*
X40399501Y-65175018D01*
X40410000Y-65277796D01*
X40410001Y-65277799D01*
X40465185Y-65444331D01*
X40465187Y-65444336D01*
X40488870Y-65482732D01*
X40557288Y-65593656D01*
X40681344Y-65717712D01*
X40830666Y-65809814D01*
X40997203Y-65864999D01*
X41099991Y-65875500D01*
X41900008Y-65875499D01*
X41900016Y-65875498D01*
X41900019Y-65875498D01*
X41956302Y-65869748D01*
X42002797Y-65864999D01*
X42169334Y-65809814D01*
X42318656Y-65717712D01*
X42442712Y-65593656D01*
X42482310Y-65529456D01*
X42534258Y-65482732D01*
X42603220Y-65471509D01*
X42667303Y-65499352D01*
X42675530Y-65506872D01*
X42783072Y-65614414D01*
X42923212Y-65716232D01*
X43077555Y-65794873D01*
X43242299Y-65848402D01*
X43413389Y-65875500D01*
X43413390Y-65875500D01*
X43586610Y-65875500D01*
X43586611Y-65875500D01*
X43720620Y-65854275D01*
X43789914Y-65863230D01*
X43827699Y-65889067D01*
X44446580Y-66507948D01*
X44446584Y-66507951D01*
X44569498Y-66590080D01*
X44569511Y-66590087D01*
X44706082Y-66646656D01*
X44706087Y-66646658D01*
X44706091Y-66646658D01*
X44706092Y-66646659D01*
X44851079Y-66675500D01*
X44851082Y-66675500D01*
X53423920Y-66675500D01*
X53521462Y-66656096D01*
X53568913Y-66646658D01*
X53637204Y-66618371D01*
X53705491Y-66590086D01*
X53705492Y-66590085D01*
X53705495Y-66590084D01*
X53757399Y-66555403D01*
X53828416Y-66507952D01*
X54424548Y-65911818D01*
X54485871Y-65878334D01*
X54512229Y-65875500D01*
X54586610Y-65875500D01*
X54586611Y-65875500D01*
X54757701Y-65848402D01*
X54922445Y-65794873D01*
X55076788Y-65716232D01*
X55216928Y-65614414D01*
X55339414Y-65491928D01*
X55399682Y-65408975D01*
X55455012Y-65366311D01*
X55524626Y-65360332D01*
X55586421Y-65392938D01*
X55600315Y-65408973D01*
X55660586Y-65491928D01*
X55783072Y-65614414D01*
X55923212Y-65716232D01*
X56077555Y-65794873D01*
X56242299Y-65848402D01*
X56413389Y-65875500D01*
X56413390Y-65875500D01*
X56586610Y-65875500D01*
X56586611Y-65875500D01*
X56757701Y-65848402D01*
X56922445Y-65794873D01*
X57076788Y-65716232D01*
X57216928Y-65614414D01*
X57339414Y-65491928D01*
X57399682Y-65408975D01*
X57455012Y-65366311D01*
X57524626Y-65360332D01*
X57586421Y-65392938D01*
X57600315Y-65408973D01*
X57660586Y-65491928D01*
X57783072Y-65614414D01*
X57923212Y-65716232D01*
X58077555Y-65794873D01*
X58242299Y-65848402D01*
X58413389Y-65875500D01*
X58413390Y-65875500D01*
X58586610Y-65875500D01*
X58586611Y-65875500D01*
X58757701Y-65848402D01*
X58922445Y-65794873D01*
X59076788Y-65716232D01*
X59216928Y-65614414D01*
X59331345Y-65499997D01*
X62194652Y-65499997D01*
X62194652Y-65500002D01*
X62196249Y-65529457D01*
X62211449Y-65809812D01*
X62214028Y-65857368D01*
X62214029Y-65857385D01*
X62271926Y-66210539D01*
X62271932Y-66210565D01*
X62367672Y-66555392D01*
X62367674Y-66555399D01*
X62500142Y-66887870D01*
X62500151Y-66887888D01*
X62667784Y-67204077D01*
X62667787Y-67204082D01*
X62667789Y-67204085D01*
X62725791Y-67289632D01*
X62868634Y-67500309D01*
X62868641Y-67500319D01*
X63059893Y-67725478D01*
X63100332Y-67773086D01*
X63360163Y-68019211D01*
X63645081Y-68235800D01*
X63951747Y-68420315D01*
X63951749Y-68420316D01*
X63951751Y-68420317D01*
X63951755Y-68420319D01*
X63960840Y-68424522D01*
X64276565Y-68570591D01*
X64615726Y-68684868D01*
X64965254Y-68761805D01*
X65321052Y-68800500D01*
X65321058Y-68800500D01*
X65678942Y-68800500D01*
X65678948Y-68800500D01*
X66034746Y-68761805D01*
X66384274Y-68684868D01*
X66723435Y-68570591D01*
X67048253Y-68420315D01*
X67354919Y-68235800D01*
X67639837Y-68019211D01*
X67899668Y-67773086D01*
X68131365Y-67500311D01*
X68332211Y-67204085D01*
X68499853Y-66887880D01*
X68632324Y-66555403D01*
X68728071Y-66210552D01*
X68780776Y-65889067D01*
X68785970Y-65857385D01*
X68785970Y-65857382D01*
X68785972Y-65857371D01*
X68805348Y-65500000D01*
X68804910Y-65491930D01*
X68799543Y-65392938D01*
X68785972Y-65142629D01*
X68770868Y-65050500D01*
X68728073Y-64789460D01*
X68728072Y-64789459D01*
X68728071Y-64789448D01*
X68632324Y-64444597D01*
X68504795Y-64124523D01*
X68499857Y-64112129D01*
X68499848Y-64112111D01*
X68332215Y-63795922D01*
X68332213Y-63795919D01*
X68332211Y-63795915D01*
X68131365Y-63499689D01*
X68131361Y-63499684D01*
X68131358Y-63499680D01*
X67899668Y-63226914D01*
X67820157Y-63151597D01*
X67639837Y-62980789D01*
X67639830Y-62980783D01*
X67639827Y-62980781D01*
X67572245Y-62929407D01*
X67354919Y-62764200D01*
X67048253Y-62579685D01*
X67048252Y-62579684D01*
X67048248Y-62579682D01*
X67048244Y-62579680D01*
X66723447Y-62429414D01*
X66723441Y-62429411D01*
X66723435Y-62429409D01*
X66486340Y-62349522D01*
X66384273Y-62315131D01*
X66034744Y-62238194D01*
X65678949Y-62199500D01*
X65678948Y-62199500D01*
X65321052Y-62199500D01*
X65321050Y-62199500D01*
X64965255Y-62238194D01*
X64615726Y-62315131D01*
X64359970Y-62401306D01*
X64276565Y-62429409D01*
X64276563Y-62429410D01*
X64276552Y-62429414D01*
X63951755Y-62579680D01*
X63951751Y-62579682D01*
X63736578Y-62709148D01*
X63645081Y-62764200D01*
X63564442Y-62825500D01*
X63360172Y-62980781D01*
X63360163Y-62980789D01*
X63100331Y-63226914D01*
X62868641Y-63499680D01*
X62868634Y-63499690D01*
X62667790Y-63795913D01*
X62667784Y-63795922D01*
X62500151Y-64112111D01*
X62500142Y-64112129D01*
X62367674Y-64444600D01*
X62367672Y-64444607D01*
X62271932Y-64789434D01*
X62271926Y-64789460D01*
X62214029Y-65142614D01*
X62214028Y-65142627D01*
X62214028Y-65142629D01*
X62212272Y-65175018D01*
X62194652Y-65499997D01*
X59331345Y-65499997D01*
X59339414Y-65491928D01*
X59441232Y-65351788D01*
X59519873Y-65197445D01*
X59573402Y-65032701D01*
X59600500Y-64861611D01*
X59600500Y-64138389D01*
X59573402Y-63967299D01*
X59519873Y-63802555D01*
X59441232Y-63648212D01*
X59339414Y-63508072D01*
X59216928Y-63385586D01*
X59076788Y-63283768D01*
X58922445Y-63205127D01*
X58757701Y-63151598D01*
X58757699Y-63151597D01*
X58757698Y-63151597D01*
X58626271Y-63130781D01*
X58586611Y-63124500D01*
X58413389Y-63124500D01*
X58373728Y-63130781D01*
X58242302Y-63151597D01*
X58077552Y-63205128D01*
X57923211Y-63283768D01*
X57843256Y-63341859D01*
X57783072Y-63385586D01*
X57783070Y-63385588D01*
X57783069Y-63385588D01*
X57660588Y-63508069D01*
X57660581Y-63508078D01*
X57600317Y-63591023D01*
X57544987Y-63633689D01*
X57475374Y-63639667D01*
X57413579Y-63607061D01*
X57399683Y-63591023D01*
X57339418Y-63508078D01*
X57339414Y-63508072D01*
X57216928Y-63385586D01*
X57076788Y-63283768D01*
X56922445Y-63205127D01*
X56757701Y-63151598D01*
X56757699Y-63151597D01*
X56757698Y-63151597D01*
X56626271Y-63130781D01*
X56586611Y-63124500D01*
X56413389Y-63124500D01*
X56373728Y-63130781D01*
X56242302Y-63151597D01*
X56077552Y-63205128D01*
X55923211Y-63283768D01*
X55843256Y-63341859D01*
X55783072Y-63385586D01*
X55783070Y-63385588D01*
X55783069Y-63385588D01*
X55660588Y-63508069D01*
X55660581Y-63508078D01*
X55600317Y-63591023D01*
X55544987Y-63633689D01*
X55475374Y-63639667D01*
X55413579Y-63607061D01*
X55399683Y-63591023D01*
X55339418Y-63508078D01*
X55339414Y-63508072D01*
X55216928Y-63385586D01*
X55076788Y-63283768D01*
X54922445Y-63205127D01*
X54757701Y-63151598D01*
X54757699Y-63151597D01*
X54757698Y-63151597D01*
X54626271Y-63130781D01*
X54586611Y-63124500D01*
X54413389Y-63124500D01*
X54373728Y-63130781D01*
X54242302Y-63151597D01*
X54077552Y-63205128D01*
X53923211Y-63283768D01*
X53783073Y-63385585D01*
X53675530Y-63493128D01*
X53614207Y-63526612D01*
X53544515Y-63521628D01*
X53488582Y-63479756D01*
X53482310Y-63470543D01*
X53442712Y-63406344D01*
X53318656Y-63282288D01*
X53193559Y-63205128D01*
X53169336Y-63190187D01*
X53169331Y-63190185D01*
X53167862Y-63189698D01*
X53002797Y-63135001D01*
X53002795Y-63135000D01*
X52900010Y-63124500D01*
X52099998Y-63124500D01*
X52099980Y-63124501D01*
X51997203Y-63135000D01*
X51997200Y-63135001D01*
X51830668Y-63190185D01*
X51830663Y-63190187D01*
X51681342Y-63282289D01*
X51557289Y-63406342D01*
X51465187Y-63555663D01*
X51465186Y-63555666D01*
X51410001Y-63722203D01*
X51410001Y-63722204D01*
X51410000Y-63722204D01*
X51399500Y-63824983D01*
X51399500Y-63824991D01*
X51399500Y-64444607D01*
X51399501Y-65050500D01*
X51379816Y-65117539D01*
X51327013Y-65163294D01*
X51275501Y-65174500D01*
X48696128Y-65174500D01*
X48629089Y-65154815D01*
X48583334Y-65102011D01*
X48573390Y-65032853D01*
X48573655Y-65031102D01*
X48600500Y-64861610D01*
X48600500Y-64138389D01*
X48573402Y-63967302D01*
X48573402Y-63967299D01*
X48519873Y-63802555D01*
X48505831Y-63774996D01*
X49194435Y-63774996D01*
X49194435Y-63775003D01*
X49214630Y-63954249D01*
X49214631Y-63954254D01*
X49274211Y-64124523D01*
X49282924Y-64138389D01*
X49370184Y-64277262D01*
X49497738Y-64404816D01*
X49650478Y-64500789D01*
X49820745Y-64560368D01*
X49820750Y-64560369D01*
X49999996Y-64580565D01*
X50000000Y-64580565D01*
X50000004Y-64580565D01*
X50179249Y-64560369D01*
X50179252Y-64560368D01*
X50179255Y-64560368D01*
X50349522Y-64500789D01*
X50502262Y-64404816D01*
X50629816Y-64277262D01*
X50725789Y-64124522D01*
X50785368Y-63954255D01*
X50799932Y-63824996D01*
X50805565Y-63775003D01*
X50805565Y-63774996D01*
X50785369Y-63595750D01*
X50785368Y-63595745D01*
X50751757Y-63499690D01*
X50725789Y-63425478D01*
X50700724Y-63385588D01*
X50686582Y-63363080D01*
X50629816Y-63272738D01*
X50502262Y-63145184D01*
X50469344Y-63124500D01*
X50349523Y-63049211D01*
X50179254Y-62989631D01*
X50179249Y-62989630D01*
X50000004Y-62969435D01*
X49999996Y-62969435D01*
X49820750Y-62989630D01*
X49820745Y-62989631D01*
X49650476Y-63049211D01*
X49497737Y-63145184D01*
X49370184Y-63272737D01*
X49274211Y-63425476D01*
X49214631Y-63595745D01*
X49214630Y-63595750D01*
X49194435Y-63774996D01*
X48505831Y-63774996D01*
X48441232Y-63648212D01*
X48339414Y-63508072D01*
X48216928Y-63385586D01*
X48076788Y-63283768D01*
X47922445Y-63205127D01*
X47757701Y-63151598D01*
X47757699Y-63151597D01*
X47757698Y-63151597D01*
X47626271Y-63130781D01*
X47586611Y-63124500D01*
X47413389Y-63124500D01*
X47373728Y-63130781D01*
X47242302Y-63151597D01*
X47077552Y-63205128D01*
X46923211Y-63283768D01*
X46843256Y-63341859D01*
X46783072Y-63385586D01*
X46783070Y-63385588D01*
X46783069Y-63385588D01*
X46660588Y-63508069D01*
X46660581Y-63508078D01*
X46600317Y-63591023D01*
X46544987Y-63633689D01*
X46475374Y-63639667D01*
X46413579Y-63607061D01*
X46399683Y-63591023D01*
X46339418Y-63508078D01*
X46339414Y-63508072D01*
X46216928Y-63385586D01*
X46076788Y-63283768D01*
X45922445Y-63205127D01*
X45757701Y-63151598D01*
X45757699Y-63151597D01*
X45757698Y-63151597D01*
X45626271Y-63130781D01*
X45586611Y-63124500D01*
X45413389Y-63124500D01*
X45373728Y-63130781D01*
X45242302Y-63151597D01*
X45077552Y-63205128D01*
X44923211Y-63283768D01*
X44843256Y-63341859D01*
X44783072Y-63385586D01*
X44783070Y-63385588D01*
X44783069Y-63385588D01*
X44660588Y-63508069D01*
X44660581Y-63508078D01*
X44600317Y-63591023D01*
X44544987Y-63633689D01*
X44475374Y-63639667D01*
X44413579Y-63607061D01*
X44399683Y-63591023D01*
X44339418Y-63508078D01*
X44339414Y-63508072D01*
X44216928Y-63385586D01*
X44076788Y-63283768D01*
X43922445Y-63205127D01*
X43757701Y-63151598D01*
X43757699Y-63151597D01*
X43757698Y-63151597D01*
X43626271Y-63130781D01*
X43586611Y-63124500D01*
X43413389Y-63124500D01*
X43373728Y-63130781D01*
X43242302Y-63151597D01*
X43077552Y-63205128D01*
X42923211Y-63283768D01*
X42783073Y-63385585D01*
X42675530Y-63493128D01*
X42614207Y-63526612D01*
X42544515Y-63521628D01*
X42488582Y-63479756D01*
X42482310Y-63470543D01*
X42442712Y-63406344D01*
X42318656Y-63282288D01*
X42193559Y-63205128D01*
X42169336Y-63190187D01*
X42169331Y-63190185D01*
X42167862Y-63189698D01*
X42002797Y-63135001D01*
X42002795Y-63135000D01*
X41900010Y-63124500D01*
X41099998Y-63124500D01*
X41099980Y-63124501D01*
X40997203Y-63135000D01*
X40997200Y-63135001D01*
X40830668Y-63190185D01*
X40830663Y-63190187D01*
X40681342Y-63282289D01*
X40557289Y-63406342D01*
X40465187Y-63555663D01*
X40465186Y-63555666D01*
X40410001Y-63722203D01*
X40410001Y-63722204D01*
X40410000Y-63722204D01*
X40399500Y-63824983D01*
X37347622Y-63824983D01*
X37332215Y-63795922D01*
X37332213Y-63795919D01*
X37332211Y-63795915D01*
X37131365Y-63499689D01*
X37131361Y-63499684D01*
X37131358Y-63499680D01*
X36899668Y-63226914D01*
X36820157Y-63151597D01*
X36639837Y-62980789D01*
X36639830Y-62980783D01*
X36639827Y-62980781D01*
X36572245Y-62929407D01*
X36354919Y-62764200D01*
X36179418Y-62658604D01*
X36048254Y-62579685D01*
X36027609Y-62570134D01*
X35999303Y-62557038D01*
X35946727Y-62511026D01*
X35927372Y-62443890D01*
X35947387Y-62376948D01*
X36000415Y-62331454D01*
X36051371Y-62320500D01*
X36648543Y-62320500D01*
X36778582Y-62294632D01*
X36841835Y-62282051D01*
X37023914Y-62206632D01*
X37187782Y-62097139D01*
X37327139Y-61957782D01*
X37349043Y-61925000D01*
X43219540Y-61925000D01*
X43239326Y-62113256D01*
X43239327Y-62113259D01*
X43297818Y-62293277D01*
X43297821Y-62293284D01*
X43392467Y-62457216D01*
X43433027Y-62502262D01*
X43519129Y-62597888D01*
X43672265Y-62709148D01*
X43672270Y-62709151D01*
X43845192Y-62786142D01*
X43845197Y-62786144D01*
X44030354Y-62825500D01*
X44030355Y-62825500D01*
X44219644Y-62825500D01*
X44219646Y-62825500D01*
X44404803Y-62786144D01*
X44577730Y-62709151D01*
X44730871Y-62597888D01*
X44857533Y-62457216D01*
X44952179Y-62293284D01*
X45010674Y-62113256D01*
X45030460Y-61925000D01*
X45010674Y-61736744D01*
X44952179Y-61556716D01*
X44857533Y-61392784D01*
X44730871Y-61252112D01*
X44709719Y-61236744D01*
X44577734Y-61140851D01*
X44577729Y-61140848D01*
X44404807Y-61063857D01*
X44404802Y-61063855D01*
X44259001Y-61032865D01*
X44219646Y-61024500D01*
X44030354Y-61024500D01*
X43997897Y-61031398D01*
X43845197Y-61063855D01*
X43845192Y-61063857D01*
X43672270Y-61140848D01*
X43672265Y-61140851D01*
X43519129Y-61252111D01*
X43392466Y-61392785D01*
X43297821Y-61556715D01*
X43297818Y-61556722D01*
X43244313Y-61721395D01*
X43239326Y-61736744D01*
X43219540Y-61925000D01*
X37349043Y-61925000D01*
X37436632Y-61793914D01*
X37512051Y-61611835D01*
X37535358Y-61494663D01*
X37550500Y-61418543D01*
X37550500Y-61221456D01*
X37512052Y-61028170D01*
X37512051Y-61028169D01*
X37512051Y-61028165D01*
X37461244Y-60905505D01*
X37436635Y-60846092D01*
X37436628Y-60846079D01*
X37327139Y-60682218D01*
X37327136Y-60682214D01*
X37187785Y-60542863D01*
X37187781Y-60542860D01*
X37023920Y-60433371D01*
X37023907Y-60433364D01*
X36878871Y-60373289D01*
X39644539Y-60373289D01*
X39664325Y-60561545D01*
X39664326Y-60561548D01*
X39722817Y-60741566D01*
X39722819Y-60741570D01*
X39722820Y-60741573D01*
X39817466Y-60905505D01*
X39862096Y-60955071D01*
X39944128Y-61046177D01*
X40097264Y-61157437D01*
X40097269Y-61157440D01*
X40270191Y-61234431D01*
X40270196Y-61234433D01*
X40455353Y-61273789D01*
X40455354Y-61273789D01*
X40644643Y-61273789D01*
X40644645Y-61273789D01*
X40829802Y-61234433D01*
X41002729Y-61157440D01*
X41155870Y-61046177D01*
X41282532Y-60905505D01*
X41377178Y-60741573D01*
X41384543Y-60718905D01*
X41423979Y-60661231D01*
X41488337Y-60634032D01*
X41557183Y-60645945D01*
X41575355Y-60656902D01*
X41610200Y-60682218D01*
X41647270Y-60709151D01*
X41820192Y-60786142D01*
X41820197Y-60786144D01*
X42005354Y-60825500D01*
X42005355Y-60825500D01*
X42194644Y-60825500D01*
X42194646Y-60825500D01*
X42379803Y-60786144D01*
X42552730Y-60709151D01*
X42705871Y-60597888D01*
X42832533Y-60457216D01*
X42836701Y-60449996D01*
X45794435Y-60449996D01*
X45794435Y-60450003D01*
X45814630Y-60629249D01*
X45814631Y-60629254D01*
X45874211Y-60799523D01*
X45970184Y-60952262D01*
X46097738Y-61079816D01*
X46250478Y-61175789D01*
X46418067Y-61234431D01*
X46420745Y-61235368D01*
X46420750Y-61235369D01*
X46599996Y-61255565D01*
X46600000Y-61255565D01*
X46600004Y-61255565D01*
X46779249Y-61235369D01*
X46779252Y-61235368D01*
X46779255Y-61235368D01*
X46949522Y-61175789D01*
X47102262Y-61079816D01*
X47229816Y-60952262D01*
X47294072Y-60849999D01*
X49844341Y-60849999D01*
X49844341Y-60850000D01*
X49864936Y-61085403D01*
X49864938Y-61085413D01*
X49926094Y-61313655D01*
X49926096Y-61313659D01*
X49926097Y-61313663D01*
X50010499Y-61494663D01*
X50025965Y-61527830D01*
X50025967Y-61527834D01*
X50085781Y-61613256D01*
X50161505Y-61721401D01*
X50328599Y-61888495D01*
X50425384Y-61956265D01*
X50522165Y-62024032D01*
X50522167Y-62024033D01*
X50522170Y-62024035D01*
X50736337Y-62123903D01*
X50964592Y-62185063D01*
X51141034Y-62200500D01*
X51199999Y-62205659D01*
X51200000Y-62205659D01*
X51200001Y-62205659D01*
X51258966Y-62200500D01*
X51435408Y-62185063D01*
X51663663Y-62123903D01*
X51877830Y-62024035D01*
X52071401Y-61888495D01*
X52193329Y-61766566D01*
X52254648Y-61733084D01*
X52324340Y-61738068D01*
X52380274Y-61779939D01*
X52397189Y-61810917D01*
X52446202Y-61942328D01*
X52446206Y-61942335D01*
X52532452Y-62057544D01*
X52532455Y-62057547D01*
X52647664Y-62143793D01*
X52647671Y-62143797D01*
X52782517Y-62194091D01*
X52782516Y-62194091D01*
X52789444Y-62194835D01*
X52842127Y-62200500D01*
X54637872Y-62200499D01*
X54697483Y-62194091D01*
X54832331Y-62143796D01*
X54947546Y-62057546D01*
X55033796Y-61942331D01*
X55084091Y-61807483D01*
X55090500Y-61747873D01*
X55090500Y-61425000D01*
X56709540Y-61425000D01*
X56729326Y-61613256D01*
X56729327Y-61613259D01*
X56787818Y-61793277D01*
X56787821Y-61793284D01*
X56882467Y-61957216D01*
X56965238Y-62049142D01*
X57009129Y-62097888D01*
X57162265Y-62209148D01*
X57162270Y-62209151D01*
X57335192Y-62286142D01*
X57335197Y-62286144D01*
X57520354Y-62325500D01*
X57520355Y-62325500D01*
X57709644Y-62325500D01*
X57709646Y-62325500D01*
X57894803Y-62286144D01*
X58067730Y-62209151D01*
X58220871Y-62097888D01*
X58309014Y-61999996D01*
X60919435Y-61999996D01*
X60919435Y-62000003D01*
X60939630Y-62179249D01*
X60939631Y-62179254D01*
X60999211Y-62349523D01*
X61058506Y-62443890D01*
X61095184Y-62502262D01*
X61222738Y-62629816D01*
X61375478Y-62725789D01*
X61545745Y-62785368D01*
X61545750Y-62785369D01*
X61724996Y-62805565D01*
X61725000Y-62805565D01*
X61725004Y-62805565D01*
X61904249Y-62785369D01*
X61904252Y-62785368D01*
X61904255Y-62785368D01*
X62074522Y-62725789D01*
X62227262Y-62629816D01*
X62354816Y-62502262D01*
X62450789Y-62349522D01*
X62510368Y-62179255D01*
X62514363Y-62143797D01*
X62530565Y-62000003D01*
X62530565Y-61999996D01*
X62510369Y-61820750D01*
X62510368Y-61820745D01*
X62505727Y-61807482D01*
X62450789Y-61650478D01*
X62426510Y-61611839D01*
X62391874Y-61556715D01*
X62354816Y-61497738D01*
X62227262Y-61370184D01*
X62074523Y-61274211D01*
X61904254Y-61214631D01*
X61904249Y-61214630D01*
X61725004Y-61194435D01*
X61724996Y-61194435D01*
X61545750Y-61214630D01*
X61545745Y-61214631D01*
X61375476Y-61274211D01*
X61222737Y-61370184D01*
X61095184Y-61497737D01*
X60999211Y-61650476D01*
X60939631Y-61820745D01*
X60939630Y-61820750D01*
X60919435Y-61999996D01*
X58309014Y-61999996D01*
X58347533Y-61957216D01*
X58442179Y-61793284D01*
X58500674Y-61613256D01*
X58520460Y-61425000D01*
X58500674Y-61236744D01*
X58442179Y-61056716D01*
X58347533Y-60892784D01*
X58220871Y-60752112D01*
X58220870Y-60752111D01*
X58067734Y-60640851D01*
X58067729Y-60640848D01*
X57894807Y-60563857D01*
X57894802Y-60563855D01*
X57749001Y-60532865D01*
X57709646Y-60524500D01*
X57520354Y-60524500D01*
X57487897Y-60531398D01*
X57335197Y-60563855D01*
X57335192Y-60563857D01*
X57162270Y-60640848D01*
X57162265Y-60640851D01*
X57009129Y-60752111D01*
X56882466Y-60892785D01*
X56787821Y-61056715D01*
X56787818Y-61056722D01*
X56729327Y-61236740D01*
X56729326Y-61236744D01*
X56709540Y-61425000D01*
X55090500Y-61425000D01*
X55090499Y-60449996D01*
X65544435Y-60449996D01*
X65544435Y-60450003D01*
X65564630Y-60629249D01*
X65564631Y-60629254D01*
X65624211Y-60799523D01*
X65720184Y-60952262D01*
X65847738Y-61079816D01*
X66000478Y-61175789D01*
X66168067Y-61234431D01*
X66170745Y-61235368D01*
X66170750Y-61235369D01*
X66349996Y-61255565D01*
X66350000Y-61255565D01*
X66350004Y-61255565D01*
X66529249Y-61235369D01*
X66529252Y-61235368D01*
X66529255Y-61235368D01*
X66699522Y-61175789D01*
X66852262Y-61079816D01*
X66979816Y-60952262D01*
X67075789Y-60799522D01*
X67135368Y-60629255D01*
X67137021Y-60614586D01*
X67155565Y-60450003D01*
X67155565Y-60449996D01*
X68844435Y-60449996D01*
X68844435Y-60450003D01*
X68864630Y-60629249D01*
X68864631Y-60629254D01*
X68924211Y-60799523D01*
X69020184Y-60952262D01*
X69147738Y-61079816D01*
X69300478Y-61175789D01*
X69468067Y-61234431D01*
X69470745Y-61235368D01*
X69470750Y-61235369D01*
X69649996Y-61255565D01*
X69650000Y-61255565D01*
X69650004Y-61255565D01*
X69829249Y-61235369D01*
X69829252Y-61235368D01*
X69829255Y-61235368D01*
X69999522Y-61175789D01*
X70152262Y-61079816D01*
X70279816Y-60952262D01*
X70375789Y-60799522D01*
X70435368Y-60629255D01*
X70437021Y-60614586D01*
X70455565Y-60450003D01*
X70455565Y-60449996D01*
X70435369Y-60270750D01*
X70435368Y-60270745D01*
X70386248Y-60130368D01*
X70375789Y-60100478D01*
X70279816Y-59947738D01*
X70152262Y-59820184D01*
X70138451Y-59811506D01*
X69999523Y-59724211D01*
X69829254Y-59664631D01*
X69829249Y-59664630D01*
X69650004Y-59644435D01*
X69649996Y-59644435D01*
X69470750Y-59664630D01*
X69470745Y-59664631D01*
X69300476Y-59724211D01*
X69147737Y-59820184D01*
X69020184Y-59947737D01*
X68924211Y-60100476D01*
X68864631Y-60270745D01*
X68864630Y-60270750D01*
X68844435Y-60449996D01*
X67155565Y-60449996D01*
X67135369Y-60270750D01*
X67135368Y-60270745D01*
X67086248Y-60130368D01*
X67075789Y-60100478D01*
X66979816Y-59947738D01*
X66852262Y-59820184D01*
X66838451Y-59811506D01*
X66699523Y-59724211D01*
X66529254Y-59664631D01*
X66529249Y-59664630D01*
X66350004Y-59644435D01*
X66349996Y-59644435D01*
X66170750Y-59664630D01*
X66170745Y-59664631D01*
X66000476Y-59724211D01*
X65847737Y-59820184D01*
X65720184Y-59947737D01*
X65624211Y-60100476D01*
X65564631Y-60270745D01*
X65564630Y-60270750D01*
X65544435Y-60449996D01*
X55090499Y-60449996D01*
X55090499Y-59952128D01*
X55084091Y-59892517D01*
X55082810Y-59889083D01*
X55033797Y-59757671D01*
X55033793Y-59757664D01*
X54947547Y-59642455D01*
X54947544Y-59642452D01*
X54832335Y-59556206D01*
X54832328Y-59556202D01*
X54697482Y-59505908D01*
X54697483Y-59505908D01*
X54637883Y-59499501D01*
X54637881Y-59499500D01*
X54637873Y-59499500D01*
X54637864Y-59499500D01*
X52842129Y-59499500D01*
X52842123Y-59499501D01*
X52782516Y-59505908D01*
X52647671Y-59556202D01*
X52647664Y-59556206D01*
X52532455Y-59642452D01*
X52532452Y-59642455D01*
X52446206Y-59757664D01*
X52446203Y-59757669D01*
X52397189Y-59889083D01*
X52355317Y-59945016D01*
X52289853Y-59969433D01*
X52221580Y-59954581D01*
X52193326Y-59933430D01*
X52071402Y-59811506D01*
X52071395Y-59811501D01*
X51877834Y-59675967D01*
X51877830Y-59675965D01*
X51810214Y-59644435D01*
X51663663Y-59576097D01*
X51663659Y-59576096D01*
X51663655Y-59576094D01*
X51435413Y-59514938D01*
X51435403Y-59514936D01*
X51200001Y-59494341D01*
X51199999Y-59494341D01*
X50964596Y-59514936D01*
X50964586Y-59514938D01*
X50736344Y-59576094D01*
X50736335Y-59576098D01*
X50522171Y-59675964D01*
X50522169Y-59675965D01*
X50328597Y-59811505D01*
X50161505Y-59978597D01*
X50025965Y-60172169D01*
X50025964Y-60172171D01*
X49926098Y-60386335D01*
X49926094Y-60386344D01*
X49864938Y-60614586D01*
X49864936Y-60614596D01*
X49844341Y-60849999D01*
X47294072Y-60849999D01*
X47325789Y-60799522D01*
X47385368Y-60629255D01*
X47387021Y-60614586D01*
X47405565Y-60450003D01*
X47405565Y-60449996D01*
X47385369Y-60270750D01*
X47385368Y-60270745D01*
X47336248Y-60130368D01*
X47325789Y-60100478D01*
X47229816Y-59947738D01*
X47102262Y-59820184D01*
X47088451Y-59811506D01*
X46949523Y-59724211D01*
X46779254Y-59664631D01*
X46779249Y-59664630D01*
X46600004Y-59644435D01*
X46599996Y-59644435D01*
X46420750Y-59664630D01*
X46420745Y-59664631D01*
X46250476Y-59724211D01*
X46097737Y-59820184D01*
X45970184Y-59947737D01*
X45874211Y-60100476D01*
X45814631Y-60270745D01*
X45814630Y-60270750D01*
X45794435Y-60449996D01*
X42836701Y-60449996D01*
X42927179Y-60293284D01*
X42985674Y-60113256D01*
X43005460Y-59925000D01*
X42985674Y-59736744D01*
X42927179Y-59556716D01*
X42832533Y-59392784D01*
X42705871Y-59252112D01*
X42705870Y-59252111D01*
X42552734Y-59140851D01*
X42552729Y-59140848D01*
X42379807Y-59063857D01*
X42379802Y-59063855D01*
X42234001Y-59032865D01*
X42194646Y-59024500D01*
X42005354Y-59024500D01*
X41972897Y-59031398D01*
X41820197Y-59063855D01*
X41820192Y-59063857D01*
X41647270Y-59140848D01*
X41647265Y-59140851D01*
X41494129Y-59252111D01*
X41367466Y-59392785D01*
X41272821Y-59556715D01*
X41272818Y-59556723D01*
X41265454Y-59579386D01*
X41226015Y-59637060D01*
X41161656Y-59664257D01*
X41092810Y-59652341D01*
X41074639Y-59641383D01*
X41002733Y-59589140D01*
X41002728Y-59589137D01*
X40829806Y-59512146D01*
X40829801Y-59512144D01*
X40684000Y-59481154D01*
X40644645Y-59472789D01*
X40455353Y-59472789D01*
X40422896Y-59479687D01*
X40270196Y-59512144D01*
X40270191Y-59512146D01*
X40097269Y-59589137D01*
X40097264Y-59589140D01*
X39944128Y-59700400D01*
X39817465Y-59841074D01*
X39722820Y-60005004D01*
X39722817Y-60005011D01*
X39668504Y-60172171D01*
X39664325Y-60185033D01*
X39644539Y-60373289D01*
X36878871Y-60373289D01*
X36841839Y-60357950D01*
X36841829Y-60357947D01*
X36648543Y-60319500D01*
X36648541Y-60319500D01*
X35995863Y-60319500D01*
X35928824Y-60299815D01*
X35883069Y-60247011D01*
X35873125Y-60177853D01*
X35888475Y-60133501D01*
X35907541Y-60100476D01*
X35923095Y-60073536D01*
X35955500Y-59952601D01*
X35955500Y-59827399D01*
X35923095Y-59706464D01*
X35860495Y-59598036D01*
X35771964Y-59509505D01*
X35663536Y-59446905D01*
X35663537Y-59446905D01*
X35623224Y-59436103D01*
X35542601Y-59414500D01*
X35417399Y-59414500D01*
X35336775Y-59436103D01*
X35296463Y-59446905D01*
X35188037Y-59509504D01*
X35188034Y-59509506D01*
X35099506Y-59598034D01*
X35099504Y-59598037D01*
X35036905Y-59706463D01*
X35028792Y-59736740D01*
X35004500Y-59827399D01*
X35004500Y-59952601D01*
X35036905Y-60073536D01*
X35095484Y-60175000D01*
X35099504Y-60181962D01*
X35099505Y-60181964D01*
X35109901Y-60192360D01*
X35143386Y-60253683D01*
X35138402Y-60323375D01*
X35096530Y-60379308D01*
X35069674Y-60394602D01*
X34976085Y-60433368D01*
X34976081Y-60433370D01*
X34928136Y-60465406D01*
X34861458Y-60486283D01*
X34794078Y-60467798D01*
X34747388Y-60415818D01*
X34736026Y-60348420D01*
X34755565Y-60175003D01*
X34755565Y-60174996D01*
X34735369Y-59995750D01*
X34735368Y-59995745D01*
X34720271Y-59952601D01*
X34675789Y-59825478D01*
X34579816Y-59672738D01*
X34452262Y-59545184D01*
X34404126Y-59514938D01*
X34299523Y-59449211D01*
X34129254Y-59389631D01*
X34129249Y-59389630D01*
X33950004Y-59369435D01*
X33949996Y-59369435D01*
X33770750Y-59389630D01*
X33770745Y-59389631D01*
X33600476Y-59449211D01*
X33447737Y-59545184D01*
X33320184Y-59672737D01*
X33224211Y-59825476D01*
X33164631Y-59995745D01*
X33164630Y-59995750D01*
X33144435Y-60174996D01*
X33144435Y-60175003D01*
X33164630Y-60354249D01*
X33164631Y-60354254D01*
X33224211Y-60524523D01*
X33297304Y-60640849D01*
X33320184Y-60677262D01*
X33447738Y-60804816D01*
X33513408Y-60846079D01*
X33599941Y-60900452D01*
X33600478Y-60900789D01*
X33613956Y-60905505D01*
X33770745Y-60960368D01*
X33770750Y-60960369D01*
X33949996Y-60980565D01*
X33950000Y-60980565D01*
X33950004Y-60980565D01*
X34129249Y-60960369D01*
X34129252Y-60960368D01*
X34129255Y-60960368D01*
X34299522Y-60900789D01*
X34300059Y-60900451D01*
X34300461Y-60900337D01*
X34305795Y-60897769D01*
X34306244Y-60898702D01*
X34367292Y-60881446D01*
X34434129Y-60901807D01*
X34479348Y-60955071D01*
X34488592Y-61024326D01*
X34487656Y-61029631D01*
X34449500Y-61221454D01*
X34449500Y-61418543D01*
X34487947Y-61611829D01*
X34487950Y-61611839D01*
X34563364Y-61793907D01*
X34563371Y-61793920D01*
X34672860Y-61957781D01*
X34672863Y-61957785D01*
X34702897Y-61987819D01*
X34736382Y-62049142D01*
X34731398Y-62118834D01*
X34689526Y-62174767D01*
X34624062Y-62199184D01*
X34615216Y-62199500D01*
X34321050Y-62199500D01*
X33965255Y-62238194D01*
X33615726Y-62315131D01*
X33359970Y-62401306D01*
X33276565Y-62429409D01*
X33276563Y-62429410D01*
X33276552Y-62429414D01*
X32951755Y-62579680D01*
X32951751Y-62579682D01*
X32736578Y-62709148D01*
X32645081Y-62764200D01*
X32564442Y-62825500D01*
X32360172Y-62980781D01*
X32360163Y-62980789D01*
X32100331Y-63226914D01*
X31868641Y-63499680D01*
X31868634Y-63499690D01*
X31667790Y-63795913D01*
X31667784Y-63795922D01*
X31500151Y-64112111D01*
X31500142Y-64112129D01*
X31367674Y-64444600D01*
X31367672Y-64444607D01*
X31271932Y-64789434D01*
X31271926Y-64789460D01*
X31214029Y-65142614D01*
X31214028Y-65142627D01*
X31214028Y-65142629D01*
X31212272Y-65175018D01*
X31194652Y-65499997D01*
X29200500Y-65499997D01*
X29200500Y-61221456D01*
X30399500Y-61221456D01*
X30399500Y-61418543D01*
X30437947Y-61611829D01*
X30437950Y-61611839D01*
X30513364Y-61793907D01*
X30513371Y-61793920D01*
X30622860Y-61957781D01*
X30622863Y-61957785D01*
X30762214Y-62097136D01*
X30762218Y-62097139D01*
X30926079Y-62206628D01*
X30926092Y-62206635D01*
X31002286Y-62238195D01*
X31108165Y-62282051D01*
X31108169Y-62282051D01*
X31108170Y-62282052D01*
X31301456Y-62320500D01*
X31301459Y-62320500D01*
X32298543Y-62320500D01*
X32428582Y-62294632D01*
X32491835Y-62282051D01*
X32673914Y-62206632D01*
X32837782Y-62097139D01*
X32977139Y-61957782D01*
X33086632Y-61793914D01*
X33162051Y-61611835D01*
X33185358Y-61494663D01*
X33200500Y-61418543D01*
X33200500Y-61221456D01*
X33162052Y-61028170D01*
X33162051Y-61028169D01*
X33162051Y-61028165D01*
X33111244Y-60905505D01*
X33086635Y-60846092D01*
X33086628Y-60846079D01*
X32977139Y-60682218D01*
X32977136Y-60682214D01*
X32837785Y-60542863D01*
X32837781Y-60542860D01*
X32673920Y-60433371D01*
X32673907Y-60433364D01*
X32491839Y-60357950D01*
X32491829Y-60357947D01*
X32298543Y-60319500D01*
X32298541Y-60319500D01*
X31301459Y-60319500D01*
X31301457Y-60319500D01*
X31108170Y-60357947D01*
X31108160Y-60357950D01*
X30926092Y-60433364D01*
X30926079Y-60433371D01*
X30762218Y-60542860D01*
X30762214Y-60542863D01*
X30622863Y-60682214D01*
X30622860Y-60682218D01*
X30513371Y-60846079D01*
X30513364Y-60846092D01*
X30437950Y-61028160D01*
X30437947Y-61028170D01*
X30399500Y-61221456D01*
X29200500Y-61221456D01*
X29200500Y-59344995D01*
X36642416Y-59344995D01*
X36642416Y-59345002D01*
X36662611Y-59524248D01*
X36662612Y-59524253D01*
X36722192Y-59694522D01*
X36804478Y-59825478D01*
X36818165Y-59847261D01*
X36945719Y-59974815D01*
X37098459Y-60070788D01*
X37219826Y-60113256D01*
X37268726Y-60130367D01*
X37268731Y-60130368D01*
X37447977Y-60150564D01*
X37447981Y-60150564D01*
X37447985Y-60150564D01*
X37627230Y-60130368D01*
X37627233Y-60130367D01*
X37627236Y-60130367D01*
X37797503Y-60070788D01*
X37950243Y-59974815D01*
X38077797Y-59847261D01*
X38173770Y-59694521D01*
X38233349Y-59524254D01*
X38234399Y-59514936D01*
X38253546Y-59345002D01*
X38253546Y-59344995D01*
X38233350Y-59165749D01*
X38233349Y-59165744D01*
X38224638Y-59140849D01*
X38173770Y-58995477D01*
X38166653Y-58984151D01*
X38077796Y-58842736D01*
X37950243Y-58715183D01*
X37797504Y-58619210D01*
X37627235Y-58559630D01*
X37627230Y-58559629D01*
X37447985Y-58539434D01*
X37447977Y-58539434D01*
X37268731Y-58559629D01*
X37268726Y-58559630D01*
X37098457Y-58619210D01*
X36945718Y-58715183D01*
X36818165Y-58842736D01*
X36722192Y-58995475D01*
X36662612Y-59165744D01*
X36662611Y-59165749D01*
X36642416Y-59344995D01*
X29200500Y-59344995D01*
X29200500Y-58200000D01*
X32844540Y-58200000D01*
X32864326Y-58388256D01*
X32864327Y-58388259D01*
X32922818Y-58568277D01*
X32922821Y-58568284D01*
X33017467Y-58732216D01*
X33101720Y-58825788D01*
X33144129Y-58872888D01*
X33297265Y-58984148D01*
X33297270Y-58984151D01*
X33470192Y-59061142D01*
X33470197Y-59061144D01*
X33655354Y-59100500D01*
X33655355Y-59100500D01*
X33844644Y-59100500D01*
X33844646Y-59100500D01*
X34029803Y-59061144D01*
X34202730Y-58984151D01*
X34355871Y-58872888D01*
X34482533Y-58732216D01*
X34577179Y-58568284D01*
X34635674Y-58388256D01*
X34642323Y-58324996D01*
X45569435Y-58324996D01*
X45569435Y-58325003D01*
X45589630Y-58504249D01*
X45589631Y-58504254D01*
X45649211Y-58674523D01*
X45744258Y-58825788D01*
X45745184Y-58827262D01*
X45872738Y-58954816D01*
X46025478Y-59050789D01*
X46167544Y-59100500D01*
X46195745Y-59110368D01*
X46195750Y-59110369D01*
X46374996Y-59130565D01*
X46375000Y-59130565D01*
X46375004Y-59130565D01*
X46554249Y-59110369D01*
X46554252Y-59110368D01*
X46554255Y-59110368D01*
X46724522Y-59050789D01*
X46877262Y-58954816D01*
X47004816Y-58827262D01*
X47100789Y-58674522D01*
X47160368Y-58504255D01*
X47166535Y-58449522D01*
X47180565Y-58325003D01*
X47180565Y-58324996D01*
X47160369Y-58145750D01*
X47160368Y-58145745D01*
X47144360Y-58099996D01*
X67094435Y-58099996D01*
X67094435Y-58100003D01*
X67114630Y-58279249D01*
X67114631Y-58279254D01*
X67174211Y-58449523D01*
X67243397Y-58559631D01*
X67270184Y-58602262D01*
X67397738Y-58729816D01*
X67550478Y-58825789D01*
X67554688Y-58827262D01*
X67720745Y-58885368D01*
X67720750Y-58885369D01*
X67899996Y-58905565D01*
X67900000Y-58905565D01*
X67900004Y-58905565D01*
X68079249Y-58885369D01*
X68079252Y-58885368D01*
X68079255Y-58885368D01*
X68249522Y-58825789D01*
X68402262Y-58729816D01*
X68529816Y-58602262D01*
X68625789Y-58449522D01*
X68685368Y-58279255D01*
X68694298Y-58200000D01*
X68705565Y-58100003D01*
X68705565Y-58099996D01*
X68685369Y-57920750D01*
X68685368Y-57920745D01*
X68625789Y-57750478D01*
X68529816Y-57597738D01*
X68402262Y-57470184D01*
X68249523Y-57374211D01*
X68079254Y-57314631D01*
X68079249Y-57314630D01*
X67900004Y-57294435D01*
X67899996Y-57294435D01*
X67720750Y-57314630D01*
X67720745Y-57314631D01*
X67550476Y-57374211D01*
X67397737Y-57470184D01*
X67270184Y-57597737D01*
X67174211Y-57750476D01*
X67114631Y-57920745D01*
X67114630Y-57920750D01*
X67094435Y-58099996D01*
X47144360Y-58099996D01*
X47113479Y-58011744D01*
X47100789Y-57975478D01*
X47074821Y-57934151D01*
X47010457Y-57831716D01*
X47004816Y-57822738D01*
X46877262Y-57695184D01*
X46856624Y-57682216D01*
X46724523Y-57599211D01*
X46554254Y-57539631D01*
X46554249Y-57539630D01*
X46375004Y-57519435D01*
X46374996Y-57519435D01*
X46195750Y-57539630D01*
X46195745Y-57539631D01*
X46025476Y-57599211D01*
X45872737Y-57695184D01*
X45745184Y-57822737D01*
X45649211Y-57975476D01*
X45589631Y-58145745D01*
X45589630Y-58145750D01*
X45569435Y-58324996D01*
X34642323Y-58324996D01*
X34655460Y-58200000D01*
X34635674Y-58011744D01*
X34577179Y-57831716D01*
X34482533Y-57667784D01*
X34355871Y-57527112D01*
X34355870Y-57527111D01*
X34202734Y-57415851D01*
X34202729Y-57415848D01*
X34029807Y-57338857D01*
X34029802Y-57338855D01*
X33884001Y-57307865D01*
X33844646Y-57299500D01*
X33655354Y-57299500D01*
X33622897Y-57306398D01*
X33470197Y-57338855D01*
X33470192Y-57338857D01*
X33297270Y-57415848D01*
X33297265Y-57415851D01*
X33144129Y-57527111D01*
X33017466Y-57667785D01*
X32922821Y-57831715D01*
X32922818Y-57831722D01*
X32864521Y-58011144D01*
X32864326Y-58011744D01*
X32844540Y-58200000D01*
X29200500Y-58200000D01*
X29200500Y-56874996D01*
X38569435Y-56874996D01*
X38569435Y-56875003D01*
X38589630Y-57054249D01*
X38589631Y-57054254D01*
X38649211Y-57224523D01*
X38743267Y-57374211D01*
X38745184Y-57377262D01*
X38872738Y-57504816D01*
X38963080Y-57561582D01*
X39022966Y-57599211D01*
X39025478Y-57600789D01*
X39168367Y-57650788D01*
X39195745Y-57660368D01*
X39195750Y-57660369D01*
X39374996Y-57680565D01*
X39375000Y-57680565D01*
X39375004Y-57680565D01*
X39554249Y-57660369D01*
X39554252Y-57660368D01*
X39554255Y-57660368D01*
X39724522Y-57600789D01*
X39877262Y-57504816D01*
X40004816Y-57377262D01*
X40100789Y-57224522D01*
X40160368Y-57054255D01*
X40160369Y-57054249D01*
X40174932Y-56924996D01*
X49269435Y-56924996D01*
X49269435Y-56925003D01*
X49289630Y-57104249D01*
X49289631Y-57104254D01*
X49349211Y-57274523D01*
X49389635Y-57338857D01*
X49445184Y-57427262D01*
X49572738Y-57554816D01*
X49725478Y-57650789D01*
X49852352Y-57695184D01*
X49895745Y-57710368D01*
X49895750Y-57710369D01*
X50074996Y-57730565D01*
X50075000Y-57730565D01*
X50075004Y-57730565D01*
X50254249Y-57710369D01*
X50254252Y-57710368D01*
X50254255Y-57710368D01*
X50424522Y-57650789D01*
X50577262Y-57554816D01*
X50704816Y-57427262D01*
X50800789Y-57274522D01*
X50860368Y-57104255D01*
X50865450Y-57059151D01*
X50880565Y-56925003D01*
X50880565Y-56924996D01*
X50860369Y-56745750D01*
X50860368Y-56745745D01*
X50815593Y-56617785D01*
X50800789Y-56575478D01*
X50704816Y-56422738D01*
X50577262Y-56295184D01*
X50567191Y-56288856D01*
X50424523Y-56199211D01*
X50254254Y-56139631D01*
X50254249Y-56139630D01*
X50075004Y-56119435D01*
X50074996Y-56119435D01*
X49895750Y-56139630D01*
X49895745Y-56139631D01*
X49725476Y-56199211D01*
X49572737Y-56295184D01*
X49445184Y-56422737D01*
X49349211Y-56575476D01*
X49289631Y-56745745D01*
X49289630Y-56745750D01*
X49269435Y-56924996D01*
X40174932Y-56924996D01*
X40180565Y-56875003D01*
X40180565Y-56874996D01*
X40160369Y-56695750D01*
X40160368Y-56695745D01*
X40100789Y-56525478D01*
X40004816Y-56372738D01*
X39877262Y-56245184D01*
X39836803Y-56219762D01*
X39724523Y-56149211D01*
X39583875Y-56099996D01*
X41769435Y-56099996D01*
X41769435Y-56100003D01*
X41789630Y-56279249D01*
X41789631Y-56279254D01*
X41849211Y-56449523D01*
X41896936Y-56525476D01*
X41945184Y-56602262D01*
X42072738Y-56729816D01*
X42225478Y-56825789D01*
X42366104Y-56874996D01*
X42395745Y-56885368D01*
X42395750Y-56885369D01*
X42574996Y-56905565D01*
X42575000Y-56905565D01*
X42575004Y-56905565D01*
X42754249Y-56885369D01*
X42754252Y-56885368D01*
X42754255Y-56885368D01*
X42924522Y-56825789D01*
X43077262Y-56729816D01*
X43204816Y-56602262D01*
X43300789Y-56449522D01*
X43360368Y-56279255D01*
X43360369Y-56279249D01*
X43380565Y-56100003D01*
X43380565Y-56099996D01*
X43366481Y-55974996D01*
X54394435Y-55974996D01*
X54394435Y-55975003D01*
X54414630Y-56154249D01*
X54414631Y-56154254D01*
X54474211Y-56324523D01*
X54535924Y-56422738D01*
X54570184Y-56477262D01*
X54697738Y-56604816D01*
X54788080Y-56661582D01*
X54849131Y-56699943D01*
X54850478Y-56700789D01*
X54937128Y-56731109D01*
X55020745Y-56760368D01*
X55020750Y-56760369D01*
X55199996Y-56780565D01*
X55200000Y-56780565D01*
X55200004Y-56780565D01*
X55379249Y-56760369D01*
X55379251Y-56760368D01*
X55379255Y-56760368D01*
X55379258Y-56760366D01*
X55379262Y-56760366D01*
X55489409Y-56721823D01*
X55549522Y-56700789D01*
X55549522Y-56700788D01*
X55551939Y-56699943D01*
X55621717Y-56696380D01*
X55682345Y-56731109D01*
X55708835Y-56773010D01*
X55712137Y-56781716D01*
X55720183Y-56802932D01*
X55768499Y-56872929D01*
X55816817Y-56942929D01*
X55922505Y-57036560D01*
X55944150Y-57055736D01*
X56092022Y-57133345D01*
X56094775Y-57134790D01*
X56259944Y-57175500D01*
X56430056Y-57175500D01*
X56595225Y-57134790D01*
X56595227Y-57134788D01*
X56601085Y-57133345D01*
X56670887Y-57136414D01*
X56727949Y-57176734D01*
X56754081Y-57240780D01*
X56764326Y-57338256D01*
X56764327Y-57338259D01*
X56822818Y-57518277D01*
X56822821Y-57518284D01*
X56917467Y-57682216D01*
X56961001Y-57730565D01*
X57044129Y-57822888D01*
X57197265Y-57934148D01*
X57197270Y-57934151D01*
X57370192Y-58011142D01*
X57370197Y-58011144D01*
X57555354Y-58050500D01*
X57555355Y-58050500D01*
X57744644Y-58050500D01*
X57744646Y-58050500D01*
X57929803Y-58011144D01*
X58102730Y-57934151D01*
X58255871Y-57822888D01*
X58382533Y-57682216D01*
X58477179Y-57518284D01*
X58535674Y-57338256D01*
X58555460Y-57150000D01*
X58535674Y-56961744D01*
X58477179Y-56781716D01*
X58382533Y-56617784D01*
X58322848Y-56551497D01*
X58292618Y-56488505D01*
X58301243Y-56419170D01*
X58345985Y-56365505D01*
X58412637Y-56344547D01*
X58480039Y-56362952D01*
X58480888Y-56363480D01*
X58500476Y-56375788D01*
X58500478Y-56375789D01*
X58670745Y-56435368D01*
X58670750Y-56435369D01*
X58849996Y-56455565D01*
X58850000Y-56455565D01*
X58850004Y-56455565D01*
X59029249Y-56435369D01*
X59029252Y-56435368D01*
X59029255Y-56435368D01*
X59199522Y-56375789D01*
X59204380Y-56372737D01*
X59262580Y-56336167D01*
X59329817Y-56317166D01*
X59396652Y-56337533D01*
X59441867Y-56390801D01*
X59451649Y-56456106D01*
X59449648Y-56472590D01*
X59449355Y-56475000D01*
X59449630Y-56477262D01*
X59469859Y-56643869D01*
X59469860Y-56643874D01*
X59530182Y-56802931D01*
X59579926Y-56874996D01*
X59626817Y-56942929D01*
X59732505Y-57036560D01*
X59754150Y-57055736D01*
X59902022Y-57133345D01*
X59904775Y-57134790D01*
X60069944Y-57175500D01*
X60240056Y-57175500D01*
X60405225Y-57134790D01*
X60549342Y-57059151D01*
X60555849Y-57055736D01*
X60555850Y-57055734D01*
X60555852Y-57055734D01*
X60683183Y-56942929D01*
X60779818Y-56802930D01*
X60840140Y-56643872D01*
X60860645Y-56475000D01*
X60840140Y-56306128D01*
X60833816Y-56289454D01*
X60828334Y-56275000D01*
X62394540Y-56275000D01*
X62414326Y-56463256D01*
X62414327Y-56463259D01*
X62472818Y-56643277D01*
X62472821Y-56643284D01*
X62567467Y-56807216D01*
X62673523Y-56925003D01*
X62694129Y-56947888D01*
X62847265Y-57059148D01*
X62847270Y-57059151D01*
X63020192Y-57136142D01*
X63020197Y-57136144D01*
X63205354Y-57175500D01*
X63205355Y-57175500D01*
X63394644Y-57175500D01*
X63394646Y-57175500D01*
X63579803Y-57136144D01*
X63752730Y-57059151D01*
X63905871Y-56947888D01*
X64032533Y-56807216D01*
X64127179Y-56643284D01*
X64185674Y-56463256D01*
X64205460Y-56275000D01*
X64185674Y-56086744D01*
X64127179Y-55906716D01*
X64032533Y-55742784D01*
X63905871Y-55602112D01*
X63899851Y-55597738D01*
X63752734Y-55490851D01*
X63752729Y-55490848D01*
X63579807Y-55413857D01*
X63579802Y-55413855D01*
X63424238Y-55380790D01*
X63394646Y-55374500D01*
X63205354Y-55374500D01*
X63175766Y-55380789D01*
X63020197Y-55413855D01*
X63020192Y-55413857D01*
X62847270Y-55490848D01*
X62847265Y-55490851D01*
X62694129Y-55602111D01*
X62567466Y-55742785D01*
X62472821Y-55906715D01*
X62472818Y-55906722D01*
X62440213Y-56007071D01*
X62414326Y-56086744D01*
X62394540Y-56275000D01*
X60828334Y-56275000D01*
X60799592Y-56199211D01*
X60779818Y-56147070D01*
X60774683Y-56139631D01*
X60726230Y-56069435D01*
X60683183Y-56007071D01*
X60555852Y-55894266D01*
X60555849Y-55894263D01*
X60405226Y-55815210D01*
X60240056Y-55774500D01*
X60069944Y-55774500D01*
X59904776Y-55815209D01*
X59827141Y-55855956D01*
X59758632Y-55869681D01*
X59693579Y-55844188D01*
X59652635Y-55787573D01*
X59646295Y-55732275D01*
X59655565Y-55650002D01*
X59655565Y-55649996D01*
X59635369Y-55470750D01*
X59635368Y-55470745D01*
X59591432Y-55345184D01*
X59575789Y-55300478D01*
X59479816Y-55147738D01*
X59352262Y-55020184D01*
X59280357Y-54975003D01*
X59199523Y-54924211D01*
X59029254Y-54864631D01*
X59029249Y-54864630D01*
X58850004Y-54844435D01*
X58849996Y-54844435D01*
X58670750Y-54864630D01*
X58670745Y-54864631D01*
X58500476Y-54924211D01*
X58347737Y-55020184D01*
X58220184Y-55147737D01*
X58124211Y-55300476D01*
X58064631Y-55470745D01*
X58064630Y-55470750D01*
X58044435Y-55649996D01*
X58044435Y-55650003D01*
X58064630Y-55829249D01*
X58064631Y-55829254D01*
X58124211Y-55999523D01*
X58220184Y-56152262D01*
X58226361Y-56158439D01*
X58259846Y-56219762D01*
X58254862Y-56289454D01*
X58212990Y-56345387D01*
X58147526Y-56369804D01*
X58088244Y-56359399D01*
X57929807Y-56288857D01*
X57929802Y-56288855D01*
X57784001Y-56257865D01*
X57744646Y-56249500D01*
X57555354Y-56249500D01*
X57522897Y-56256398D01*
X57370197Y-56288855D01*
X57370192Y-56288857D01*
X57193516Y-56367520D01*
X57124266Y-56376805D01*
X57060989Y-56347177D01*
X57027138Y-56298212D01*
X56989592Y-56199211D01*
X56969818Y-56147070D01*
X56964683Y-56139631D01*
X56916230Y-56069435D01*
X56873183Y-56007071D01*
X56745852Y-55894266D01*
X56745849Y-55894263D01*
X56595226Y-55815210D01*
X56430056Y-55774500D01*
X56259944Y-55774500D01*
X56109802Y-55811506D01*
X56039999Y-55808437D01*
X55982937Y-55768117D01*
X55963085Y-55732064D01*
X55952141Y-55700788D01*
X55925789Y-55625478D01*
X55829816Y-55472738D01*
X55702262Y-55345184D01*
X55653639Y-55314632D01*
X55549523Y-55249211D01*
X55379254Y-55189631D01*
X55379249Y-55189630D01*
X55200004Y-55169435D01*
X55199996Y-55169435D01*
X55020750Y-55189630D01*
X55020745Y-55189631D01*
X54850476Y-55249211D01*
X54697737Y-55345184D01*
X54570184Y-55472737D01*
X54474211Y-55625476D01*
X54414631Y-55795745D01*
X54414630Y-55795750D01*
X54394435Y-55974996D01*
X43366481Y-55974996D01*
X43360369Y-55920750D01*
X43360368Y-55920745D01*
X43337697Y-55855956D01*
X43300789Y-55750478D01*
X43204816Y-55597738D01*
X43077262Y-55470184D01*
X43061955Y-55460566D01*
X42924523Y-55374211D01*
X42754254Y-55314631D01*
X42754249Y-55314630D01*
X42575004Y-55294435D01*
X42574996Y-55294435D01*
X42395750Y-55314630D01*
X42395745Y-55314631D01*
X42225476Y-55374211D01*
X42072737Y-55470184D01*
X41945184Y-55597737D01*
X41849211Y-55750476D01*
X41789631Y-55920745D01*
X41789630Y-55920750D01*
X41769435Y-56099996D01*
X39583875Y-56099996D01*
X39554254Y-56089631D01*
X39554249Y-56089630D01*
X39375004Y-56069435D01*
X39374996Y-56069435D01*
X39195750Y-56089630D01*
X39195745Y-56089631D01*
X39025476Y-56149211D01*
X38872737Y-56245184D01*
X38745184Y-56372737D01*
X38649211Y-56525476D01*
X38589631Y-56695745D01*
X38589630Y-56695750D01*
X38569435Y-56874996D01*
X29200500Y-56874996D01*
X29200500Y-54974996D01*
X31044435Y-54974996D01*
X31044435Y-54975003D01*
X31064630Y-55154249D01*
X31064631Y-55154254D01*
X31124211Y-55324523D01*
X31197003Y-55440370D01*
X31220184Y-55477262D01*
X31347738Y-55604816D01*
X31500478Y-55700789D01*
X31589857Y-55732064D01*
X31670745Y-55760368D01*
X31670750Y-55760369D01*
X31849996Y-55780565D01*
X31850000Y-55780565D01*
X31850004Y-55780565D01*
X32029249Y-55760369D01*
X32029252Y-55760368D01*
X32029255Y-55760368D01*
X32199522Y-55700789D01*
X32352262Y-55604816D01*
X32479816Y-55477262D01*
X32575789Y-55324522D01*
X32635368Y-55154255D01*
X32635369Y-55154249D01*
X32655565Y-54975003D01*
X32655565Y-54974996D01*
X32635369Y-54795750D01*
X32635368Y-54795745D01*
X32594358Y-54678545D01*
X32586118Y-54654997D01*
X36642417Y-54654997D01*
X36642417Y-54655004D01*
X36662612Y-54834250D01*
X36662613Y-54834255D01*
X36722193Y-55004524D01*
X36732033Y-55020184D01*
X36818166Y-55157263D01*
X36945720Y-55284817D01*
X37008910Y-55324522D01*
X37088449Y-55374500D01*
X37098460Y-55380790D01*
X37192960Y-55413857D01*
X37268727Y-55440369D01*
X37268732Y-55440370D01*
X37447978Y-55460566D01*
X37447982Y-55460566D01*
X37447986Y-55460566D01*
X37627231Y-55440370D01*
X37627234Y-55440369D01*
X37627237Y-55440369D01*
X37797504Y-55380790D01*
X37950244Y-55284817D01*
X38077798Y-55157263D01*
X38173771Y-55004523D01*
X38233350Y-54834256D01*
X38237860Y-54794229D01*
X38253547Y-54655004D01*
X38253547Y-54654997D01*
X38233351Y-54475751D01*
X38233350Y-54475746D01*
X38207533Y-54401965D01*
X38173771Y-54305479D01*
X38077798Y-54152739D01*
X38075059Y-54150000D01*
X46719355Y-54150000D01*
X46739859Y-54318869D01*
X46739860Y-54318874D01*
X46800182Y-54477931D01*
X46852064Y-54553094D01*
X46896817Y-54617929D01*
X46965239Y-54678545D01*
X47024150Y-54730736D01*
X47167742Y-54806099D01*
X47174775Y-54809790D01*
X47339944Y-54850500D01*
X47510056Y-54850500D01*
X47675225Y-54809790D01*
X47704874Y-54794228D01*
X47773381Y-54780503D01*
X47820125Y-54794228D01*
X47849775Y-54809790D01*
X48014944Y-54850500D01*
X48185056Y-54850500D01*
X48350225Y-54809790D01*
X48437500Y-54763984D01*
X48500849Y-54730736D01*
X48500850Y-54730734D01*
X48500852Y-54730734D01*
X48628183Y-54617929D01*
X48724818Y-54477930D01*
X48785140Y-54318872D01*
X48802454Y-54176279D01*
X53670718Y-54176279D01*
X53670718Y-54176286D01*
X53690913Y-54355532D01*
X53690914Y-54355537D01*
X53750494Y-54525806D01*
X53813123Y-54625478D01*
X53846467Y-54678545D01*
X53974021Y-54806099D01*
X54126761Y-54902072D01*
X54190031Y-54924211D01*
X54297028Y-54961651D01*
X54297033Y-54961652D01*
X54476279Y-54981848D01*
X54476283Y-54981848D01*
X54476287Y-54981848D01*
X54655532Y-54961652D01*
X54655535Y-54961651D01*
X54655538Y-54961651D01*
X54825805Y-54902072D01*
X54978545Y-54806099D01*
X55106099Y-54678545D01*
X55202072Y-54525805D01*
X55261651Y-54355538D01*
X55265782Y-54318874D01*
X55281848Y-54176286D01*
X55281848Y-54176279D01*
X55261652Y-53997033D01*
X55261651Y-53997028D01*
X55256086Y-53981125D01*
X55202072Y-53826761D01*
X55199124Y-53822070D01*
X55115751Y-53689382D01*
X55106099Y-53674021D01*
X54978545Y-53546467D01*
X54961911Y-53536015D01*
X54825806Y-53450494D01*
X54655537Y-53390914D01*
X54655532Y-53390913D01*
X54476287Y-53370718D01*
X54476279Y-53370718D01*
X54297033Y-53390913D01*
X54297028Y-53390914D01*
X54126759Y-53450494D01*
X53974020Y-53546467D01*
X53846467Y-53674020D01*
X53750494Y-53826759D01*
X53690914Y-53997028D01*
X53690913Y-53997033D01*
X53670718Y-54176279D01*
X48802454Y-54176279D01*
X48805645Y-54150000D01*
X48785140Y-53981128D01*
X48760492Y-53916138D01*
X48755126Y-53846476D01*
X48788274Y-53784970D01*
X48849412Y-53751148D01*
X48919130Y-53755750D01*
X48942404Y-53767173D01*
X48970728Y-53784970D01*
X49075475Y-53850788D01*
X49245745Y-53910368D01*
X49245750Y-53910369D01*
X49424996Y-53930565D01*
X49425000Y-53930565D01*
X49425004Y-53930565D01*
X49604249Y-53910369D01*
X49604252Y-53910368D01*
X49604255Y-53910368D01*
X49774522Y-53850789D01*
X49927262Y-53754816D01*
X50054816Y-53627262D01*
X50150789Y-53474522D01*
X50210368Y-53304255D01*
X50227307Y-53153920D01*
X50230565Y-53125003D01*
X50230565Y-53124996D01*
X50210369Y-52945750D01*
X50210368Y-52945745D01*
X50185612Y-52874996D01*
X50150789Y-52775478D01*
X50054816Y-52622738D01*
X49927262Y-52495184D01*
X49816821Y-52425789D01*
X49774523Y-52399211D01*
X49604254Y-52339631D01*
X49604249Y-52339630D01*
X49425004Y-52319435D01*
X49424996Y-52319435D01*
X49245750Y-52339630D01*
X49245745Y-52339631D01*
X49075476Y-52399211D01*
X48922737Y-52495184D01*
X48795184Y-52622737D01*
X48699211Y-52775476D01*
X48639631Y-52945745D01*
X48639630Y-52945750D01*
X48619435Y-53124996D01*
X48619435Y-53125003D01*
X48639630Y-53304249D01*
X48639632Y-53304257D01*
X48680533Y-53421147D01*
X48684094Y-53490926D01*
X48649365Y-53551553D01*
X48587371Y-53583780D01*
X48517796Y-53577374D01*
X48505865Y-53571897D01*
X48350226Y-53490210D01*
X48185056Y-53449500D01*
X48014944Y-53449500D01*
X47849775Y-53490210D01*
X47820123Y-53505772D01*
X47751615Y-53519495D01*
X47704877Y-53505772D01*
X47691764Y-53498890D01*
X47675225Y-53490210D01*
X47510056Y-53449500D01*
X47339944Y-53449500D01*
X47174773Y-53490210D01*
X47024150Y-53569263D01*
X46896816Y-53682072D01*
X46800182Y-53822068D01*
X46739860Y-53981125D01*
X46739859Y-53981130D01*
X46719355Y-54150000D01*
X38075059Y-54150000D01*
X37950244Y-54025185D01*
X37797505Y-53929212D01*
X37627236Y-53869632D01*
X37627231Y-53869631D01*
X37447986Y-53849436D01*
X37447978Y-53849436D01*
X37268732Y-53869631D01*
X37268727Y-53869632D01*
X37098458Y-53929212D01*
X36945719Y-54025185D01*
X36818166Y-54152738D01*
X36722193Y-54305477D01*
X36662613Y-54475746D01*
X36662612Y-54475751D01*
X36642417Y-54654997D01*
X32586118Y-54654997D01*
X32575789Y-54625478D01*
X32571044Y-54617927D01*
X32479815Y-54472737D01*
X32352262Y-54345184D01*
X32199523Y-54249211D01*
X32029254Y-54189631D01*
X32029249Y-54189630D01*
X31850004Y-54169435D01*
X31849996Y-54169435D01*
X31670750Y-54189630D01*
X31670745Y-54189631D01*
X31500476Y-54249211D01*
X31347737Y-54345184D01*
X31220184Y-54472737D01*
X31124211Y-54625476D01*
X31064631Y-54795745D01*
X31064630Y-54795750D01*
X31044435Y-54974996D01*
X29200500Y-54974996D01*
X29200500Y-52778543D01*
X30399499Y-52778543D01*
X30437947Y-52971829D01*
X30437950Y-52971839D01*
X30513364Y-53153907D01*
X30513371Y-53153920D01*
X30622860Y-53317781D01*
X30622863Y-53317785D01*
X30762214Y-53457136D01*
X30762218Y-53457139D01*
X30926079Y-53566628D01*
X30926092Y-53566635D01*
X31072461Y-53627262D01*
X31108165Y-53642051D01*
X31108169Y-53642051D01*
X31108170Y-53642052D01*
X31301456Y-53680500D01*
X31301459Y-53680500D01*
X32298543Y-53680500D01*
X32455704Y-53649238D01*
X32491835Y-53642051D01*
X32673914Y-53566632D01*
X32837782Y-53457139D01*
X32977139Y-53317782D01*
X33086632Y-53153914D01*
X33098609Y-53125000D01*
X33127914Y-53054249D01*
X33162051Y-52971835D01*
X33200500Y-52778543D01*
X34449499Y-52778543D01*
X34487947Y-52971829D01*
X34487950Y-52971839D01*
X34563364Y-53153907D01*
X34563371Y-53153920D01*
X34672860Y-53317781D01*
X34672863Y-53317785D01*
X34812214Y-53457136D01*
X34812218Y-53457139D01*
X34976079Y-53566628D01*
X34976088Y-53566633D01*
X35069673Y-53605397D01*
X35124076Y-53649238D01*
X35146141Y-53715532D01*
X35128862Y-53783231D01*
X35109904Y-53807637D01*
X35099504Y-53818037D01*
X35036905Y-53926463D01*
X35035806Y-53930565D01*
X35004500Y-54047399D01*
X35004500Y-54172601D01*
X35036905Y-54293536D01*
X35099505Y-54401964D01*
X35188036Y-54490495D01*
X35296464Y-54553095D01*
X35417399Y-54585500D01*
X35417401Y-54585500D01*
X35542599Y-54585500D01*
X35542601Y-54585500D01*
X35663536Y-54553095D01*
X35771964Y-54490495D01*
X35860495Y-54401964D01*
X35923095Y-54293536D01*
X35955500Y-54172601D01*
X35955500Y-54047399D01*
X35923095Y-53926464D01*
X35888475Y-53866499D01*
X35872004Y-53798598D01*
X35894857Y-53732572D01*
X35949778Y-53689382D01*
X35995863Y-53680500D01*
X36648543Y-53680500D01*
X36805704Y-53649238D01*
X36841835Y-53642051D01*
X37023914Y-53566632D01*
X37187782Y-53457139D01*
X37327139Y-53317782D01*
X37436632Y-53153914D01*
X37448609Y-53125000D01*
X37477914Y-53054249D01*
X37512051Y-52971835D01*
X37531314Y-52874996D01*
X42094435Y-52874996D01*
X42094435Y-52875003D01*
X42114630Y-53054249D01*
X42114631Y-53054254D01*
X42174211Y-53224523D01*
X42232810Y-53317782D01*
X42270184Y-53377262D01*
X42397738Y-53504816D01*
X42488080Y-53561582D01*
X42496117Y-53566632D01*
X42550478Y-53600789D01*
X42668398Y-53642051D01*
X42720745Y-53660368D01*
X42720750Y-53660369D01*
X42899996Y-53680565D01*
X42900000Y-53680565D01*
X42900004Y-53680565D01*
X43079249Y-53660369D01*
X43079252Y-53660368D01*
X43079255Y-53660368D01*
X43249522Y-53600789D01*
X43402262Y-53504816D01*
X43529816Y-53377262D01*
X43625789Y-53224522D01*
X43685368Y-53054255D01*
X43694654Y-52971839D01*
X43705565Y-52875003D01*
X43705565Y-52874996D01*
X43685369Y-52695750D01*
X43685368Y-52695745D01*
X43659821Y-52622737D01*
X43625789Y-52525478D01*
X43529816Y-52372738D01*
X43402262Y-52245184D01*
X43340027Y-52206079D01*
X43330346Y-52199996D01*
X56219435Y-52199996D01*
X56219435Y-52200003D01*
X56239630Y-52379249D01*
X56239631Y-52379254D01*
X56299211Y-52549523D01*
X56391089Y-52695745D01*
X56395184Y-52702262D01*
X56522738Y-52829816D01*
X56675478Y-52925789D01*
X56845745Y-52985368D01*
X56845750Y-52985369D01*
X57024996Y-53005565D01*
X57025000Y-53005565D01*
X57025004Y-53005565D01*
X57204249Y-52985369D01*
X57204252Y-52985368D01*
X57204255Y-52985368D01*
X57374522Y-52925789D01*
X57527262Y-52829816D01*
X57654816Y-52702262D01*
X57750789Y-52549522D01*
X57810368Y-52379255D01*
X57810369Y-52379249D01*
X57830565Y-52200003D01*
X57830565Y-52199996D01*
X57810369Y-52020750D01*
X57810368Y-52020745D01*
X57769119Y-51902863D01*
X57750789Y-51850478D01*
X57656235Y-51699996D01*
X68069435Y-51699996D01*
X68069435Y-51700003D01*
X68089630Y-51879249D01*
X68089631Y-51879254D01*
X68149211Y-52049523D01*
X68211850Y-52149211D01*
X68245184Y-52202262D01*
X68372738Y-52329816D01*
X68525478Y-52425789D01*
X68695745Y-52485368D01*
X68695750Y-52485369D01*
X68874996Y-52505565D01*
X68875000Y-52505565D01*
X68875004Y-52505565D01*
X69054249Y-52485369D01*
X69054252Y-52485368D01*
X69054255Y-52485368D01*
X69224522Y-52425789D01*
X69377262Y-52329816D01*
X69504816Y-52202262D01*
X69600789Y-52049522D01*
X69660368Y-51879255D01*
X69662409Y-51861142D01*
X69680565Y-51700003D01*
X69680565Y-51699996D01*
X69660369Y-51520750D01*
X69660368Y-51520745D01*
X69613572Y-51387010D01*
X69600789Y-51350478D01*
X69504816Y-51197738D01*
X69377262Y-51070184D01*
X69377260Y-51070182D01*
X69223098Y-50973315D01*
X69176808Y-50920981D01*
X69166160Y-50851927D01*
X69194535Y-50788079D01*
X69243542Y-50754425D01*
X69243247Y-50753812D01*
X69247227Y-50751894D01*
X69248127Y-50751276D01*
X69249522Y-50750789D01*
X69402262Y-50654816D01*
X69529816Y-50527262D01*
X69625789Y-50374522D01*
X69685368Y-50204255D01*
X69685901Y-50199523D01*
X69705565Y-50025003D01*
X69705565Y-50024996D01*
X69685369Y-49845750D01*
X69685368Y-49845745D01*
X69677942Y-49824522D01*
X69625789Y-49675478D01*
X69617690Y-49662589D01*
X69549619Y-49554254D01*
X69529816Y-49522738D01*
X69402262Y-49395184D01*
X69385720Y-49384790D01*
X69249523Y-49299211D01*
X69074151Y-49237846D01*
X69017375Y-49197124D01*
X68991628Y-49132171D01*
X69005084Y-49063609D01*
X69053471Y-49013207D01*
X69085429Y-49000407D01*
X69250225Y-48959790D01*
X69316172Y-48925178D01*
X69400849Y-48880736D01*
X69400850Y-48880734D01*
X69400852Y-48880734D01*
X69528183Y-48767929D01*
X69624818Y-48627930D01*
X69685140Y-48468872D01*
X69705645Y-48300000D01*
X69685140Y-48131128D01*
X69624818Y-47972070D01*
X69528183Y-47832071D01*
X69400852Y-47719266D01*
X69400849Y-47719263D01*
X69250226Y-47640210D01*
X69085056Y-47599500D01*
X68914944Y-47599500D01*
X68749773Y-47640210D01*
X68599150Y-47719263D01*
X68471816Y-47832072D01*
X68375182Y-47972068D01*
X68314860Y-48131125D01*
X68314859Y-48131130D01*
X68294355Y-48300000D01*
X68314859Y-48468869D01*
X68314860Y-48468874D01*
X68375182Y-48627931D01*
X68403831Y-48669435D01*
X68471817Y-48767929D01*
X68531440Y-48820750D01*
X68599150Y-48880736D01*
X68749774Y-48959790D01*
X68749773Y-48959790D01*
X68846483Y-48983626D01*
X68906864Y-49018782D01*
X68938653Y-49081001D01*
X68931757Y-49150530D01*
X68888366Y-49205293D01*
X68830693Y-49227243D01*
X68720749Y-49239630D01*
X68720745Y-49239631D01*
X68550476Y-49299211D01*
X68397737Y-49395184D01*
X68270184Y-49522737D01*
X68174211Y-49675476D01*
X68114631Y-49845745D01*
X68114630Y-49845750D01*
X68094435Y-50024996D01*
X68094435Y-50025003D01*
X68114630Y-50204249D01*
X68114631Y-50204254D01*
X68174211Y-50374523D01*
X68241220Y-50481166D01*
X68270184Y-50527262D01*
X68397738Y-50654816D01*
X68463675Y-50696247D01*
X68551900Y-50751683D01*
X68598191Y-50804018D01*
X68608839Y-50873072D01*
X68580464Y-50936920D01*
X68531459Y-50970577D01*
X68531753Y-50971188D01*
X68527794Y-50973094D01*
X68526888Y-50973717D01*
X68525479Y-50974210D01*
X68372737Y-51070184D01*
X68245184Y-51197737D01*
X68149211Y-51350476D01*
X68089631Y-51520745D01*
X68089630Y-51520750D01*
X68069435Y-51699996D01*
X57656235Y-51699996D01*
X57654816Y-51697738D01*
X57527262Y-51570184D01*
X57506730Y-51557283D01*
X57374523Y-51474211D01*
X57204254Y-51414631D01*
X57204249Y-51414630D01*
X57025004Y-51394435D01*
X57024996Y-51394435D01*
X56845750Y-51414630D01*
X56845745Y-51414631D01*
X56675476Y-51474211D01*
X56522737Y-51570184D01*
X56395184Y-51697737D01*
X56299211Y-51850476D01*
X56239631Y-52020745D01*
X56239630Y-52020750D01*
X56219435Y-52199996D01*
X43330346Y-52199996D01*
X43249523Y-52149211D01*
X43079254Y-52089631D01*
X43079249Y-52089630D01*
X42900004Y-52069435D01*
X42899996Y-52069435D01*
X42720750Y-52089630D01*
X42720745Y-52089631D01*
X42550476Y-52149211D01*
X42397737Y-52245184D01*
X42270184Y-52372737D01*
X42174211Y-52525476D01*
X42114631Y-52695745D01*
X42114630Y-52695750D01*
X42094435Y-52874996D01*
X37531314Y-52874996D01*
X37550500Y-52778541D01*
X37550500Y-52581459D01*
X37550500Y-52581456D01*
X37512052Y-52388170D01*
X37512051Y-52388169D01*
X37512051Y-52388165D01*
X37487882Y-52329815D01*
X37436635Y-52206092D01*
X37436628Y-52206079D01*
X37327139Y-52042218D01*
X37327136Y-52042214D01*
X37187785Y-51902863D01*
X37187781Y-51902860D01*
X37023920Y-51793371D01*
X37023907Y-51793364D01*
X36841839Y-51717950D01*
X36841829Y-51717947D01*
X36648543Y-51679500D01*
X36648541Y-51679500D01*
X35351459Y-51679500D01*
X35351457Y-51679500D01*
X35158170Y-51717947D01*
X35158160Y-51717950D01*
X34976092Y-51793364D01*
X34976079Y-51793371D01*
X34812218Y-51902860D01*
X34812214Y-51902863D01*
X34672863Y-52042214D01*
X34672860Y-52042218D01*
X34563371Y-52206079D01*
X34563364Y-52206092D01*
X34487950Y-52388160D01*
X34487947Y-52388170D01*
X34449500Y-52581456D01*
X34449500Y-52581459D01*
X34449500Y-52778541D01*
X34449500Y-52778543D01*
X34449499Y-52778543D01*
X33200500Y-52778543D01*
X33200500Y-52778541D01*
X33200500Y-52581459D01*
X33200500Y-52581456D01*
X33162052Y-52388170D01*
X33162051Y-52388169D01*
X33162051Y-52388165D01*
X33137882Y-52329815D01*
X33086635Y-52206092D01*
X33086628Y-52206079D01*
X32977139Y-52042218D01*
X32977136Y-52042214D01*
X32837785Y-51902863D01*
X32837781Y-51902860D01*
X32673920Y-51793371D01*
X32673907Y-51793364D01*
X32491839Y-51717950D01*
X32491829Y-51717947D01*
X32298543Y-51679500D01*
X32298541Y-51679500D01*
X31301459Y-51679500D01*
X31301457Y-51679500D01*
X31108170Y-51717947D01*
X31108160Y-51717950D01*
X30926092Y-51793364D01*
X30926079Y-51793371D01*
X30762218Y-51902860D01*
X30762214Y-51902863D01*
X30622863Y-52042214D01*
X30622860Y-52042218D01*
X30513371Y-52206079D01*
X30513364Y-52206092D01*
X30437950Y-52388160D01*
X30437947Y-52388170D01*
X30399500Y-52581456D01*
X30399500Y-52581459D01*
X30399500Y-52778541D01*
X30399500Y-52778543D01*
X30399499Y-52778543D01*
X29200500Y-52778543D01*
X29200500Y-49474996D01*
X37369435Y-49474996D01*
X37369435Y-49475003D01*
X37389630Y-49654249D01*
X37389631Y-49654254D01*
X37449211Y-49824523D01*
X37503944Y-49911629D01*
X37545184Y-49977262D01*
X37672738Y-50104816D01*
X37761148Y-50160368D01*
X37823461Y-50199522D01*
X37825478Y-50200789D01*
X37976343Y-50253579D01*
X37995745Y-50260368D01*
X37995750Y-50260369D01*
X38174996Y-50280565D01*
X38175000Y-50280565D01*
X38175004Y-50280565D01*
X38354249Y-50260369D01*
X38354252Y-50260368D01*
X38354255Y-50260368D01*
X38524522Y-50200789D01*
X38677262Y-50104816D01*
X38804816Y-49977262D01*
X38900789Y-49824522D01*
X38960368Y-49654255D01*
X38963122Y-49629815D01*
X38980565Y-49475003D01*
X38980565Y-49474996D01*
X38969298Y-49374996D01*
X42069435Y-49374996D01*
X42069435Y-49375003D01*
X42089630Y-49554249D01*
X42089631Y-49554254D01*
X42149211Y-49724523D01*
X42225384Y-49845750D01*
X42245184Y-49877262D01*
X42372738Y-50004816D01*
X42525478Y-50100789D01*
X42536984Y-50104815D01*
X42695745Y-50160368D01*
X42695750Y-50160369D01*
X42874996Y-50180565D01*
X42875000Y-50180565D01*
X42875004Y-50180565D01*
X43054249Y-50160369D01*
X43054252Y-50160368D01*
X43054255Y-50160368D01*
X43224522Y-50100789D01*
X43377262Y-50004816D01*
X43504816Y-49877262D01*
X43600789Y-49724522D01*
X43660368Y-49554255D01*
X43663919Y-49522738D01*
X43680565Y-49375003D01*
X43680565Y-49374996D01*
X43660369Y-49195750D01*
X43660368Y-49195745D01*
X43638122Y-49132171D01*
X43600789Y-49025478D01*
X43584781Y-49000002D01*
X43537766Y-48925178D01*
X43504816Y-48872738D01*
X43377262Y-48745184D01*
X43345140Y-48725000D01*
X44619355Y-48725000D01*
X44639859Y-48893869D01*
X44639860Y-48893874D01*
X44700182Y-49052931D01*
X44754878Y-49132171D01*
X44796817Y-49192929D01*
X44861454Y-49250192D01*
X44924150Y-49305736D01*
X45074773Y-49384789D01*
X45074775Y-49384790D01*
X45239944Y-49425500D01*
X45410056Y-49425500D01*
X45575225Y-49384790D01*
X45685120Y-49327112D01*
X45725849Y-49305736D01*
X45725850Y-49305734D01*
X45725852Y-49305734D01*
X45853183Y-49192929D01*
X45949818Y-49052930D01*
X45969892Y-48999996D01*
X46744435Y-48999996D01*
X46744435Y-49000003D01*
X46764630Y-49179249D01*
X46764631Y-49179254D01*
X46824211Y-49349523D01*
X46898520Y-49467784D01*
X46920184Y-49502262D01*
X47047738Y-49629816D01*
X47120409Y-49675478D01*
X47198461Y-49724522D01*
X47200478Y-49725789D01*
X47340421Y-49774757D01*
X47370745Y-49785368D01*
X47370750Y-49785369D01*
X47549996Y-49805565D01*
X47550000Y-49805565D01*
X47550004Y-49805565D01*
X47729249Y-49785369D01*
X47729252Y-49785368D01*
X47729255Y-49785368D01*
X47899522Y-49725789D01*
X47923236Y-49710888D01*
X47990470Y-49691888D01*
X48057306Y-49712254D01*
X48102521Y-49765521D01*
X48112528Y-49828842D01*
X48094540Y-50000000D01*
X48114326Y-50188256D01*
X48114327Y-50188259D01*
X48172818Y-50368277D01*
X48172821Y-50368284D01*
X48267467Y-50532216D01*
X48308642Y-50577945D01*
X48394129Y-50672888D01*
X48547265Y-50784148D01*
X48547270Y-50784151D01*
X48720192Y-50861142D01*
X48720197Y-50861144D01*
X48905354Y-50900500D01*
X48905355Y-50900500D01*
X48972432Y-50900500D01*
X49039471Y-50920185D01*
X49085226Y-50972989D01*
X49095752Y-51011535D01*
X49114326Y-51188256D01*
X49114327Y-51188259D01*
X49172818Y-51368277D01*
X49172821Y-51368284D01*
X49267467Y-51532216D01*
X49301654Y-51570184D01*
X49394129Y-51672888D01*
X49547265Y-51784148D01*
X49547270Y-51784151D01*
X49720192Y-51861142D01*
X49720197Y-51861144D01*
X49905354Y-51900500D01*
X49905355Y-51900500D01*
X50094644Y-51900500D01*
X50094646Y-51900500D01*
X50279803Y-51861144D01*
X50452730Y-51784151D01*
X50605871Y-51672888D01*
X50732533Y-51532216D01*
X50827179Y-51368284D01*
X50885674Y-51188256D01*
X50904247Y-51011536D01*
X50930832Y-50946924D01*
X50988129Y-50906939D01*
X51027568Y-50900500D01*
X51094644Y-50900500D01*
X51094646Y-50900500D01*
X51227218Y-50872321D01*
X51296885Y-50877637D01*
X51352619Y-50919774D01*
X51376724Y-50985354D01*
X51371859Y-51021291D01*
X51373712Y-51021714D01*
X51372160Y-51028511D01*
X51351965Y-51207757D01*
X51351965Y-51207764D01*
X51372160Y-51387010D01*
X51372161Y-51387015D01*
X51431741Y-51557284D01*
X51508535Y-51679500D01*
X51527714Y-51710023D01*
X51655268Y-51837577D01*
X51808008Y-51933550D01*
X51978275Y-51993129D01*
X51978280Y-51993130D01*
X52157526Y-52013326D01*
X52157530Y-52013326D01*
X52157534Y-52013326D01*
X52336779Y-51993130D01*
X52336782Y-51993129D01*
X52336785Y-51993129D01*
X52507052Y-51933550D01*
X52659792Y-51837577D01*
X52787346Y-51710023D01*
X52883319Y-51557283D01*
X52942898Y-51387016D01*
X52945009Y-51368284D01*
X52963095Y-51207764D01*
X52963095Y-51207757D01*
X52942899Y-51028511D01*
X52942898Y-51028506D01*
X52923586Y-50973315D01*
X52883319Y-50858239D01*
X52787346Y-50705499D01*
X52694028Y-50612181D01*
X52660543Y-50550858D01*
X52665527Y-50481166D01*
X52707399Y-50425233D01*
X52772863Y-50400816D01*
X52781709Y-50400500D01*
X52910058Y-50400500D01*
X52910058Y-50400499D01*
X52971946Y-50385245D01*
X53041748Y-50388313D01*
X53059245Y-50395843D01*
X53120531Y-50428009D01*
X53285700Y-50468719D01*
X53455812Y-50468719D01*
X53620981Y-50428009D01*
X53722891Y-50374522D01*
X53771605Y-50348955D01*
X53771606Y-50348953D01*
X53771608Y-50348953D01*
X53898939Y-50236148D01*
X53995574Y-50096149D01*
X54055896Y-49937091D01*
X54066471Y-49849996D01*
X60069435Y-49849996D01*
X60069435Y-49850003D01*
X60089630Y-50029249D01*
X60089631Y-50029254D01*
X60149211Y-50199523D01*
X60200240Y-50280734D01*
X60245184Y-50352262D01*
X60372738Y-50479816D01*
X60448248Y-50527262D01*
X60485800Y-50550858D01*
X60525478Y-50575789D01*
X60695745Y-50635368D01*
X60695750Y-50635369D01*
X60874996Y-50655565D01*
X60875000Y-50655565D01*
X60875004Y-50655565D01*
X61054249Y-50635369D01*
X61054252Y-50635368D01*
X61054255Y-50635368D01*
X61224522Y-50575789D01*
X61377262Y-50479816D01*
X61504816Y-50352262D01*
X61600789Y-50199522D01*
X61660368Y-50029255D01*
X61660369Y-50029249D01*
X61680565Y-49850003D01*
X61680565Y-49849996D01*
X61660369Y-49670750D01*
X61660368Y-49670745D01*
X61600788Y-49500476D01*
X61528097Y-49384790D01*
X61504816Y-49347738D01*
X61377262Y-49220184D01*
X61312124Y-49179255D01*
X61224523Y-49124211D01*
X61054254Y-49064631D01*
X61054249Y-49064630D01*
X60875004Y-49044435D01*
X60874996Y-49044435D01*
X60695750Y-49064630D01*
X60695745Y-49064631D01*
X60525476Y-49124211D01*
X60372737Y-49220184D01*
X60245184Y-49347737D01*
X60149211Y-49500476D01*
X60089631Y-49670745D01*
X60089630Y-49670750D01*
X60069435Y-49849996D01*
X54066471Y-49849996D01*
X54076401Y-49768219D01*
X54055896Y-49599347D01*
X53995574Y-49440289D01*
X53898939Y-49300290D01*
X53782488Y-49197124D01*
X53771605Y-49187482D01*
X53620982Y-49108429D01*
X53455812Y-49067719D01*
X53285700Y-49067719D01*
X53285699Y-49067719D01*
X53223805Y-49082974D01*
X53154003Y-49079904D01*
X53136512Y-49072376D01*
X53075225Y-49040210D01*
X53036633Y-49030697D01*
X53004932Y-49022884D01*
X52944552Y-48987727D01*
X52912764Y-48925507D01*
X52911515Y-48917457D01*
X52910140Y-48906128D01*
X52900509Y-48880734D01*
X52873978Y-48810775D01*
X52849818Y-48747070D01*
X52848516Y-48745184D01*
X52783145Y-48650478D01*
X52777228Y-48641906D01*
X56661261Y-48641906D01*
X56681765Y-48810775D01*
X56681766Y-48810780D01*
X56742088Y-48969837D01*
X56780494Y-49025476D01*
X56838723Y-49109835D01*
X56926369Y-49187482D01*
X56966056Y-49222642D01*
X57099293Y-49292570D01*
X57116681Y-49301696D01*
X57281850Y-49342406D01*
X57451962Y-49342406D01*
X57617131Y-49301696D01*
X57715263Y-49250192D01*
X57767755Y-49222642D01*
X57767756Y-49222640D01*
X57767758Y-49222640D01*
X57895089Y-49109835D01*
X57991724Y-48969836D01*
X58052046Y-48810778D01*
X58072551Y-48641906D01*
X58064427Y-48575000D01*
X63894540Y-48575000D01*
X63914326Y-48763256D01*
X63914327Y-48763259D01*
X63972818Y-48943277D01*
X63972821Y-48943284D01*
X64067467Y-49107216D01*
X64139739Y-49187482D01*
X64194129Y-49247888D01*
X64347265Y-49359148D01*
X64347270Y-49359151D01*
X64520192Y-49436142D01*
X64520197Y-49436144D01*
X64705354Y-49475500D01*
X64705355Y-49475500D01*
X64894644Y-49475500D01*
X64894646Y-49475500D01*
X65079803Y-49436144D01*
X65252730Y-49359151D01*
X65405871Y-49247888D01*
X65532533Y-49107216D01*
X65627179Y-48943284D01*
X65685674Y-48763256D01*
X65705460Y-48575000D01*
X65685674Y-48386744D01*
X65627179Y-48206716D01*
X65532533Y-48042784D01*
X65405871Y-47902112D01*
X65393229Y-47892927D01*
X65252734Y-47790851D01*
X65252729Y-47790848D01*
X65079807Y-47713857D01*
X65079802Y-47713855D01*
X64934001Y-47682865D01*
X64894646Y-47674500D01*
X64705354Y-47674500D01*
X64672897Y-47681398D01*
X64520197Y-47713855D01*
X64520192Y-47713857D01*
X64347270Y-47790848D01*
X64347265Y-47790851D01*
X64194129Y-47902111D01*
X64067466Y-48042785D01*
X63972821Y-48206715D01*
X63972818Y-48206722D01*
X63918304Y-48374500D01*
X63914326Y-48386744D01*
X63894540Y-48575000D01*
X58064427Y-48575000D01*
X58052046Y-48473034D01*
X58050466Y-48468869D01*
X57991723Y-48313974D01*
X57923151Y-48214632D01*
X57895089Y-48173977D01*
X57767758Y-48061172D01*
X57767755Y-48061169D01*
X57617132Y-47982116D01*
X57451962Y-47941406D01*
X57281850Y-47941406D01*
X57116679Y-47982116D01*
X56966056Y-48061169D01*
X56838722Y-48173978D01*
X56742088Y-48313974D01*
X56681766Y-48473031D01*
X56681765Y-48473036D01*
X56661261Y-48641906D01*
X52777228Y-48641906D01*
X52753183Y-48607071D01*
X52625852Y-48494266D01*
X52625849Y-48494263D01*
X52475226Y-48415210D01*
X52310056Y-48374500D01*
X52139944Y-48374500D01*
X51974773Y-48415210D01*
X51824150Y-48494263D01*
X51696816Y-48607072D01*
X51600182Y-48747068D01*
X51539860Y-48906125D01*
X51539859Y-48906131D01*
X51519940Y-49070178D01*
X51492318Y-49134356D01*
X51434384Y-49173412D01*
X51364531Y-49174947D01*
X51346408Y-49168511D01*
X51279803Y-49138856D01*
X51279801Y-49138855D01*
X51279800Y-49138855D01*
X51146374Y-49110495D01*
X51094646Y-49099500D01*
X50905354Y-49099500D01*
X50872897Y-49106398D01*
X50720197Y-49138855D01*
X50720192Y-49138857D01*
X50550436Y-49214439D01*
X50481186Y-49223724D01*
X50449564Y-49214439D01*
X50279807Y-49138857D01*
X50279802Y-49138855D01*
X50130938Y-49107214D01*
X50094646Y-49099500D01*
X49905354Y-49099500D01*
X49872897Y-49106398D01*
X49720197Y-49138855D01*
X49720192Y-49138857D01*
X49550436Y-49214439D01*
X49481186Y-49223724D01*
X49449564Y-49214439D01*
X49279807Y-49138857D01*
X49279802Y-49138855D01*
X49130938Y-49107214D01*
X49094646Y-49099500D01*
X48905354Y-49099500D01*
X48872897Y-49106398D01*
X48720197Y-49138855D01*
X48720192Y-49138857D01*
X48547270Y-49215848D01*
X48547268Y-49215849D01*
X48539585Y-49221432D01*
X48473777Y-49244909D01*
X48405724Y-49229081D01*
X48357031Y-49178974D01*
X48343158Y-49110495D01*
X48343479Y-49107267D01*
X48354077Y-49013207D01*
X48355565Y-49000002D01*
X48355565Y-48999996D01*
X48335369Y-48820750D01*
X48335368Y-48820745D01*
X48301865Y-48725000D01*
X48275789Y-48650478D01*
X48179816Y-48497738D01*
X48052262Y-48370184D01*
X47962808Y-48313976D01*
X47899523Y-48274211D01*
X47729254Y-48214631D01*
X47729249Y-48214630D01*
X47550004Y-48194435D01*
X47549996Y-48194435D01*
X47370750Y-48214630D01*
X47370745Y-48214631D01*
X47200476Y-48274211D01*
X47047737Y-48370184D01*
X46920184Y-48497737D01*
X46824211Y-48650476D01*
X46764631Y-48820745D01*
X46764630Y-48820750D01*
X46744435Y-48999996D01*
X45969892Y-48999996D01*
X45977141Y-48980881D01*
X46019319Y-48925178D01*
X46035452Y-48915058D01*
X46100852Y-48880734D01*
X46228183Y-48767929D01*
X46324818Y-48627930D01*
X46385140Y-48468872D01*
X46405645Y-48300000D01*
X46385140Y-48131128D01*
X46324818Y-47972070D01*
X46228183Y-47832071D01*
X46100852Y-47719266D01*
X46100849Y-47719263D01*
X45950226Y-47640210D01*
X45785056Y-47599500D01*
X45614944Y-47599500D01*
X45449773Y-47640210D01*
X45299150Y-47719263D01*
X45171816Y-47832072D01*
X45075182Y-47972068D01*
X45075180Y-47972074D01*
X45047856Y-48044119D01*
X45005678Y-48099822D01*
X44989543Y-48109942D01*
X44924151Y-48144263D01*
X44924148Y-48144266D01*
X44853650Y-48206722D01*
X44796816Y-48257072D01*
X44700182Y-48397068D01*
X44639860Y-48556125D01*
X44639859Y-48556130D01*
X44619355Y-48725000D01*
X43345140Y-48725000D01*
X43224523Y-48649211D01*
X43054254Y-48589631D01*
X43054249Y-48589630D01*
X42875004Y-48569435D01*
X42874996Y-48569435D01*
X42695750Y-48589630D01*
X42695745Y-48589631D01*
X42525476Y-48649211D01*
X42372737Y-48745184D01*
X42245184Y-48872737D01*
X42149211Y-49025476D01*
X42089631Y-49195745D01*
X42089630Y-49195750D01*
X42069435Y-49374996D01*
X38969298Y-49374996D01*
X38960369Y-49295750D01*
X38960368Y-49295745D01*
X38940733Y-49239631D01*
X38900789Y-49125478D01*
X38890076Y-49108429D01*
X38849866Y-49044435D01*
X38804816Y-48972738D01*
X38677262Y-48845184D01*
X38638368Y-48820745D01*
X38524523Y-48749211D01*
X38354254Y-48689631D01*
X38354249Y-48689630D01*
X38175004Y-48669435D01*
X38174996Y-48669435D01*
X37995750Y-48689630D01*
X37995745Y-48689631D01*
X37825476Y-48749211D01*
X37672737Y-48845184D01*
X37545184Y-48972737D01*
X37449211Y-49125476D01*
X37389631Y-49295745D01*
X37389630Y-49295750D01*
X37369435Y-49474996D01*
X29200500Y-49474996D01*
X29200500Y-46774996D01*
X31044435Y-46774996D01*
X31044435Y-46775003D01*
X31064630Y-46954249D01*
X31064631Y-46954254D01*
X31124211Y-47124523D01*
X31206903Y-47256125D01*
X31220184Y-47277262D01*
X31347738Y-47404816D01*
X31500478Y-47500789D01*
X31500527Y-47500806D01*
X31670745Y-47560368D01*
X31670750Y-47560369D01*
X31849996Y-47580565D01*
X31850000Y-47580565D01*
X31850004Y-47580565D01*
X32029249Y-47560369D01*
X32029252Y-47560368D01*
X32029255Y-47560368D01*
X32199522Y-47500789D01*
X32352262Y-47404816D01*
X32479816Y-47277262D01*
X32558976Y-47151279D01*
X43220718Y-47151279D01*
X43220718Y-47151286D01*
X43240913Y-47330532D01*
X43240914Y-47330537D01*
X43300494Y-47500806D01*
X43358970Y-47593869D01*
X43396467Y-47653545D01*
X43524021Y-47781099D01*
X43676761Y-47877072D01*
X43847028Y-47936651D01*
X43847033Y-47936652D01*
X44026279Y-47956848D01*
X44026283Y-47956848D01*
X44026287Y-47956848D01*
X44205532Y-47936652D01*
X44205535Y-47936651D01*
X44205538Y-47936651D01*
X44375805Y-47877072D01*
X44528545Y-47781099D01*
X44656099Y-47653545D01*
X44752072Y-47500805D01*
X44802258Y-47357379D01*
X44842978Y-47300606D01*
X44878340Y-47281296D01*
X45033305Y-47227072D01*
X45186045Y-47131099D01*
X45313599Y-47003545D01*
X45409572Y-46850805D01*
X45469151Y-46680538D01*
X45469152Y-46680532D01*
X45489348Y-46501286D01*
X45489348Y-46501279D01*
X45469152Y-46322033D01*
X45469151Y-46322028D01*
X45437343Y-46231125D01*
X45409572Y-46151761D01*
X45405439Y-46145184D01*
X45359499Y-46072070D01*
X45313599Y-45999021D01*
X45186045Y-45871467D01*
X45102336Y-45818869D01*
X45033306Y-45775494D01*
X44863037Y-45715914D01*
X44863032Y-45715913D01*
X44683787Y-45695718D01*
X44683779Y-45695718D01*
X44504533Y-45715913D01*
X44504528Y-45715914D01*
X44334259Y-45775494D01*
X44181520Y-45871467D01*
X44053967Y-45999020D01*
X43957994Y-46151760D01*
X43907808Y-46295184D01*
X43867086Y-46351960D01*
X43831721Y-46371270D01*
X43676763Y-46425492D01*
X43524020Y-46521467D01*
X43396467Y-46649020D01*
X43300494Y-46801759D01*
X43240914Y-46972028D01*
X43240913Y-46972033D01*
X43220718Y-47151279D01*
X32558976Y-47151279D01*
X32575789Y-47124522D01*
X32635368Y-46954255D01*
X32635369Y-46954249D01*
X32655565Y-46775003D01*
X32655565Y-46774996D01*
X32635369Y-46595750D01*
X32635368Y-46595745D01*
X32602313Y-46501279D01*
X32575789Y-46425478D01*
X32479816Y-46272738D01*
X32352262Y-46145184D01*
X32308883Y-46117927D01*
X32240566Y-46075000D01*
X33541855Y-46075000D01*
X33562359Y-46243869D01*
X33562360Y-46243874D01*
X33622682Y-46402931D01*
X33684975Y-46493177D01*
X33719317Y-46542929D01*
X33778940Y-46595750D01*
X33846650Y-46655736D01*
X33984206Y-46727931D01*
X33997275Y-46734790D01*
X34162444Y-46775500D01*
X34332556Y-46775500D01*
X34497725Y-46734790D01*
X34578469Y-46692412D01*
X34648349Y-46655736D01*
X34648350Y-46655734D01*
X34648352Y-46655734D01*
X34775683Y-46542929D01*
X34872318Y-46402930D01*
X34932640Y-46243872D01*
X34953145Y-46075000D01*
X34932640Y-45906128D01*
X34872318Y-45747070D01*
X34850812Y-45715914D01*
X34827664Y-45682378D01*
X34805315Y-45650000D01*
X48819355Y-45650000D01*
X48839859Y-45818869D01*
X48839860Y-45818874D01*
X48900182Y-45977931D01*
X48949384Y-46049211D01*
X48996817Y-46117929D01*
X49059314Y-46173296D01*
X49124150Y-46230736D01*
X49213440Y-46277599D01*
X49263653Y-46326183D01*
X49278910Y-46372448D01*
X49295738Y-46511036D01*
X49295739Y-46511042D01*
X49356061Y-46670099D01*
X49400714Y-46734789D01*
X49452696Y-46810097D01*
X49558384Y-46903728D01*
X49580029Y-46922904D01*
X49730653Y-47001958D01*
X49730652Y-47001958D01*
X49816065Y-47023009D01*
X49883374Y-47039599D01*
X49943754Y-47074755D01*
X49975543Y-47136974D01*
X49969642Y-47203965D01*
X49949860Y-47256126D01*
X49949859Y-47256130D01*
X49929355Y-47425000D01*
X49949859Y-47593869D01*
X49949860Y-47593874D01*
X50010182Y-47752931D01*
X50036357Y-47790851D01*
X50106817Y-47892929D01*
X50178967Y-47956848D01*
X50234150Y-48005736D01*
X50339769Y-48061169D01*
X50384775Y-48084790D01*
X50549944Y-48125500D01*
X50720056Y-48125500D01*
X50885225Y-48084790D01*
X50965260Y-48042784D01*
X51035849Y-48005736D01*
X51035850Y-48005734D01*
X51035852Y-48005734D01*
X51163183Y-47892929D01*
X51259818Y-47752930D01*
X51320140Y-47593872D01*
X51340645Y-47425000D01*
X51320140Y-47256128D01*
X51259818Y-47097070D01*
X51163183Y-46957071D01*
X51035852Y-46844266D01*
X51035849Y-46844263D01*
X50885226Y-46765210D01*
X50732504Y-46727568D01*
X50672123Y-46692412D01*
X50640335Y-46630192D01*
X50646236Y-46563201D01*
X50666019Y-46511040D01*
X50679502Y-46400000D01*
X62199355Y-46400000D01*
X62219859Y-46568869D01*
X62219860Y-46568874D01*
X62280182Y-46727931D01*
X62312672Y-46775000D01*
X62376817Y-46867929D01*
X62474253Y-46954249D01*
X62504150Y-46980736D01*
X62622152Y-47042668D01*
X62654775Y-47059790D01*
X62819944Y-47100500D01*
X62990056Y-47100500D01*
X63155225Y-47059790D01*
X63262390Y-47003545D01*
X63305849Y-46980736D01*
X63305850Y-46980734D01*
X63305852Y-46980734D01*
X63433183Y-46867929D01*
X63529818Y-46727930D01*
X63590140Y-46568872D01*
X63610645Y-46400000D01*
X63590140Y-46231128D01*
X63529818Y-46072070D01*
X63514039Y-46049211D01*
X63489898Y-46014236D01*
X63433183Y-45932071D01*
X63305852Y-45819266D01*
X63305849Y-45819263D01*
X63155226Y-45740210D01*
X62990056Y-45699500D01*
X62819944Y-45699500D01*
X62654773Y-45740210D01*
X62504150Y-45819263D01*
X62376816Y-45932072D01*
X62280182Y-46072068D01*
X62219860Y-46231125D01*
X62219859Y-46231130D01*
X62199355Y-46400000D01*
X50679502Y-46400000D01*
X50686524Y-46342168D01*
X50666019Y-46173296D01*
X50605697Y-46014238D01*
X50595193Y-45999021D01*
X50571355Y-45964486D01*
X50509062Y-45874239D01*
X50381731Y-45761434D01*
X50354359Y-45747068D01*
X50292437Y-45714568D01*
X50242225Y-45665983D01*
X50226968Y-45619719D01*
X50210140Y-45481128D01*
X50149818Y-45322070D01*
X50053183Y-45182071D01*
X49925852Y-45069266D01*
X49925849Y-45069263D01*
X49775226Y-44990210D01*
X49610056Y-44949500D01*
X49439944Y-44949500D01*
X49274773Y-44990210D01*
X49124150Y-45069263D01*
X48996816Y-45182072D01*
X48900182Y-45322068D01*
X48839860Y-45481125D01*
X48839859Y-45481130D01*
X48819355Y-45650000D01*
X34805315Y-45650000D01*
X34775683Y-45607071D01*
X34666529Y-45510369D01*
X34648349Y-45494263D01*
X34497726Y-45415210D01*
X34332556Y-45374500D01*
X34162444Y-45374500D01*
X33997273Y-45415210D01*
X33846650Y-45494263D01*
X33719316Y-45607072D01*
X33622682Y-45747068D01*
X33562360Y-45906125D01*
X33562359Y-45906130D01*
X33541855Y-46075000D01*
X32240566Y-46075000D01*
X32199523Y-46049211D01*
X32029254Y-45989631D01*
X32029249Y-45989630D01*
X31850004Y-45969435D01*
X31849996Y-45969435D01*
X31670750Y-45989630D01*
X31670745Y-45989631D01*
X31500476Y-46049211D01*
X31347737Y-46145184D01*
X31220184Y-46272737D01*
X31124211Y-46425476D01*
X31064631Y-46595745D01*
X31064630Y-46595750D01*
X31044435Y-46774996D01*
X29200500Y-46774996D01*
X29200500Y-40000000D01*
X35457040Y-40000000D01*
X35476826Y-40188256D01*
X35476827Y-40188259D01*
X35535318Y-40368277D01*
X35535320Y-40368281D01*
X35535321Y-40368284D01*
X35574499Y-40436142D01*
X35575572Y-40438001D01*
X35592043Y-40505901D01*
X35575572Y-40561999D01*
X35535320Y-40631718D01*
X35535318Y-40631722D01*
X35493073Y-40761740D01*
X35476826Y-40811744D01*
X35457040Y-41000000D01*
X35476826Y-41188256D01*
X35476827Y-41188259D01*
X35535318Y-41368277D01*
X35535320Y-41368281D01*
X35535321Y-41368284D01*
X35562080Y-41414632D01*
X35575572Y-41438001D01*
X35592043Y-41505901D01*
X35575572Y-41561999D01*
X35535320Y-41631718D01*
X35535318Y-41631722D01*
X35493073Y-41761740D01*
X35476826Y-41811744D01*
X35457040Y-42000000D01*
X35476826Y-42188256D01*
X35476827Y-42188259D01*
X35535318Y-42368277D01*
X35535320Y-42368281D01*
X35535321Y-42368284D01*
X35575571Y-42437999D01*
X35575572Y-42438001D01*
X35592043Y-42505901D01*
X35575572Y-42561999D01*
X35535320Y-42631718D01*
X35535318Y-42631722D01*
X35493073Y-42761740D01*
X35476826Y-42811744D01*
X35457040Y-43000000D01*
X35476826Y-43188256D01*
X35476827Y-43188259D01*
X35535318Y-43368277D01*
X35535320Y-43368281D01*
X35535321Y-43368284D01*
X35575571Y-43437999D01*
X35575572Y-43438001D01*
X35592043Y-43505901D01*
X35575572Y-43561999D01*
X35535320Y-43631718D01*
X35535318Y-43631722D01*
X35510973Y-43706650D01*
X35476826Y-43811744D01*
X35457040Y-44000000D01*
X35476826Y-44188256D01*
X35476827Y-44188259D01*
X35535318Y-44368277D01*
X35535321Y-44368284D01*
X35629967Y-44532216D01*
X35711609Y-44622888D01*
X35756629Y-44672888D01*
X35909765Y-44784148D01*
X35909770Y-44784151D01*
X36082692Y-44861142D01*
X36082697Y-44861144D01*
X36267854Y-44900500D01*
X36267855Y-44900500D01*
X36457144Y-44900500D01*
X36457146Y-44900500D01*
X36642303Y-44861144D01*
X36815230Y-44784151D01*
X36968371Y-44672888D01*
X37095033Y-44532216D01*
X37189679Y-44368284D01*
X37248174Y-44188256D01*
X37267960Y-44000000D01*
X37248174Y-43811744D01*
X37189679Y-43631716D01*
X37149427Y-43561999D01*
X37132954Y-43494101D01*
X37149427Y-43438001D01*
X37189679Y-43368284D01*
X37248174Y-43188256D01*
X37267960Y-43000000D01*
X37248174Y-42811744D01*
X37189679Y-42631716D01*
X37149427Y-42561999D01*
X37132954Y-42494101D01*
X37149427Y-42438001D01*
X37189679Y-42368284D01*
X37248174Y-42188256D01*
X37267960Y-42000000D01*
X37248174Y-41811744D01*
X37189679Y-41631716D01*
X37149427Y-41561999D01*
X37132954Y-41494101D01*
X37149427Y-41438001D01*
X37189679Y-41368284D01*
X37248174Y-41188256D01*
X37267960Y-41000000D01*
X37248174Y-40811744D01*
X37189679Y-40631716D01*
X37149427Y-40561999D01*
X37132954Y-40494101D01*
X37149427Y-40438001D01*
X37189679Y-40368284D01*
X37248174Y-40188256D01*
X37267960Y-40000000D01*
X37265332Y-39975000D01*
X40744540Y-39975000D01*
X40764326Y-40163256D01*
X40764327Y-40163259D01*
X40822818Y-40343277D01*
X40822820Y-40343281D01*
X40822821Y-40343284D01*
X40863071Y-40412999D01*
X40863072Y-40413001D01*
X40879543Y-40480901D01*
X40863072Y-40536999D01*
X40822820Y-40606718D01*
X40822818Y-40606722D01*
X40772450Y-40761740D01*
X40764326Y-40786744D01*
X40744540Y-40975000D01*
X40764326Y-41163256D01*
X40764327Y-41163259D01*
X40822818Y-41343277D01*
X40822820Y-41343281D01*
X40822821Y-41343284D01*
X40852353Y-41394435D01*
X40863072Y-41413001D01*
X40879543Y-41480901D01*
X40863072Y-41536999D01*
X40822820Y-41606718D01*
X40822818Y-41606722D01*
X40772450Y-41761740D01*
X40764326Y-41786744D01*
X40744540Y-41975000D01*
X40764326Y-42163256D01*
X40764327Y-42163259D01*
X40822818Y-42343277D01*
X40822820Y-42343281D01*
X40822821Y-42343284D01*
X40863071Y-42412999D01*
X40863072Y-42413001D01*
X40879543Y-42480901D01*
X40863072Y-42536999D01*
X40822820Y-42606718D01*
X40822818Y-42606722D01*
X40772450Y-42761740D01*
X40764326Y-42786744D01*
X40744540Y-42975000D01*
X40764326Y-43163256D01*
X40764327Y-43163259D01*
X40822818Y-43343277D01*
X40822820Y-43343281D01*
X40822821Y-43343284D01*
X40863071Y-43412999D01*
X40863072Y-43413001D01*
X40879543Y-43480901D01*
X40863072Y-43536999D01*
X40822820Y-43606718D01*
X40822818Y-43606722D01*
X40790350Y-43706650D01*
X40764326Y-43786744D01*
X40744540Y-43975000D01*
X40764326Y-44163256D01*
X40764327Y-44163259D01*
X40822818Y-44343277D01*
X40822821Y-44343284D01*
X40917467Y-44507216D01*
X41010346Y-44610368D01*
X41044129Y-44647888D01*
X41197265Y-44759148D01*
X41197270Y-44759151D01*
X41370192Y-44836142D01*
X41370197Y-44836144D01*
X41555354Y-44875500D01*
X41555355Y-44875500D01*
X41744644Y-44875500D01*
X41744646Y-44875500D01*
X41929803Y-44836144D01*
X42102730Y-44759151D01*
X42149741Y-44724996D01*
X56044435Y-44724996D01*
X56044435Y-44725003D01*
X56064630Y-44904249D01*
X56064631Y-44904254D01*
X56124211Y-45074523D01*
X56191789Y-45182072D01*
X56220184Y-45227262D01*
X56347738Y-45354816D01*
X56500478Y-45450789D01*
X56587182Y-45481128D01*
X56670745Y-45510368D01*
X56670750Y-45510369D01*
X56849996Y-45530565D01*
X56850000Y-45530565D01*
X56850004Y-45530565D01*
X57029249Y-45510369D01*
X57029252Y-45510368D01*
X57029255Y-45510368D01*
X57199522Y-45450789D01*
X57352262Y-45354816D01*
X57479816Y-45227262D01*
X57575789Y-45074522D01*
X57635368Y-44904255D01*
X57649060Y-44782729D01*
X57676126Y-44718316D01*
X57733720Y-44678761D01*
X57803557Y-44676622D01*
X57845165Y-44696295D01*
X57897265Y-44734148D01*
X57897270Y-44734151D01*
X58070192Y-44811142D01*
X58070197Y-44811144D01*
X58255354Y-44850500D01*
X58255355Y-44850500D01*
X58444644Y-44850500D01*
X58444646Y-44850500D01*
X58629803Y-44811144D01*
X58802730Y-44734151D01*
X58955871Y-44622888D01*
X59082533Y-44482216D01*
X59177179Y-44318284D01*
X59235674Y-44138256D01*
X59255460Y-43950000D01*
X59235674Y-43761744D01*
X59177179Y-43581716D01*
X59172730Y-43574011D01*
X59164039Y-43558958D01*
X59136927Y-43511999D01*
X59120454Y-43444101D01*
X59136927Y-43388001D01*
X59177179Y-43318284D01*
X59235674Y-43138256D01*
X59255460Y-42950000D01*
X59235674Y-42761744D01*
X59177179Y-42581716D01*
X59136927Y-42511999D01*
X59120454Y-42444101D01*
X59136927Y-42388001D01*
X59177179Y-42318284D01*
X59235674Y-42138256D01*
X59255460Y-41950000D01*
X59235674Y-41761744D01*
X59177179Y-41581716D01*
X59136927Y-41511999D01*
X59120454Y-41444101D01*
X59136927Y-41388001D01*
X59177179Y-41318284D01*
X59235674Y-41138256D01*
X59255460Y-40950000D01*
X59235674Y-40761744D01*
X59177179Y-40581716D01*
X59136927Y-40511999D01*
X59120454Y-40444101D01*
X59136927Y-40388001D01*
X59177179Y-40318284D01*
X59235674Y-40138256D01*
X59252832Y-39975000D01*
X62744540Y-39975000D01*
X62764326Y-40163256D01*
X62764327Y-40163259D01*
X62822818Y-40343277D01*
X62822820Y-40343281D01*
X62822821Y-40343284D01*
X62863071Y-40412999D01*
X62863072Y-40413001D01*
X62879543Y-40480901D01*
X62863072Y-40536999D01*
X62822820Y-40606718D01*
X62822818Y-40606722D01*
X62772450Y-40761740D01*
X62764326Y-40786744D01*
X62744540Y-40975000D01*
X62764326Y-41163256D01*
X62764327Y-41163259D01*
X62822818Y-41343277D01*
X62822820Y-41343281D01*
X62822821Y-41343284D01*
X62852353Y-41394435D01*
X62863072Y-41413001D01*
X62879543Y-41480901D01*
X62863072Y-41536999D01*
X62822820Y-41606718D01*
X62822818Y-41606722D01*
X62772450Y-41761740D01*
X62764326Y-41786744D01*
X62744540Y-41975000D01*
X62764326Y-42163256D01*
X62764327Y-42163259D01*
X62822818Y-42343277D01*
X62822820Y-42343281D01*
X62822821Y-42343284D01*
X62863071Y-42412999D01*
X62863072Y-42413001D01*
X62879543Y-42480901D01*
X62863072Y-42536999D01*
X62822820Y-42606718D01*
X62822818Y-42606722D01*
X62772450Y-42761740D01*
X62764326Y-42786744D01*
X62744540Y-42975000D01*
X62764326Y-43163256D01*
X62764327Y-43163259D01*
X62822818Y-43343277D01*
X62822820Y-43343281D01*
X62822821Y-43343284D01*
X62863071Y-43412999D01*
X62863072Y-43413001D01*
X62879543Y-43480901D01*
X62863072Y-43536999D01*
X62822820Y-43606718D01*
X62822818Y-43606722D01*
X62790350Y-43706650D01*
X62764326Y-43786744D01*
X62744540Y-43975000D01*
X62764326Y-44163256D01*
X62764327Y-44163259D01*
X62822818Y-44343277D01*
X62822821Y-44343284D01*
X62917467Y-44507216D01*
X63010346Y-44610368D01*
X63044129Y-44647888D01*
X63197265Y-44759148D01*
X63197270Y-44759151D01*
X63370192Y-44836142D01*
X63370197Y-44836144D01*
X63555354Y-44875500D01*
X63555355Y-44875500D01*
X63744644Y-44875500D01*
X63744646Y-44875500D01*
X63929803Y-44836144D01*
X64102730Y-44759151D01*
X64255871Y-44647888D01*
X64382533Y-44507216D01*
X64477179Y-44343284D01*
X64535674Y-44163256D01*
X64555460Y-43975000D01*
X64535674Y-43786744D01*
X64477179Y-43606716D01*
X64436927Y-43536999D01*
X64420454Y-43469101D01*
X64436927Y-43413001D01*
X64477179Y-43343284D01*
X64535674Y-43163256D01*
X64555460Y-42975000D01*
X64535674Y-42786744D01*
X64477179Y-42606716D01*
X64436927Y-42536999D01*
X64420454Y-42469101D01*
X64436927Y-42413001D01*
X64477179Y-42343284D01*
X64535674Y-42163256D01*
X64555460Y-41975000D01*
X67944540Y-41975000D01*
X67964326Y-42163256D01*
X67964327Y-42163259D01*
X68022818Y-42343277D01*
X68022820Y-42343281D01*
X68022821Y-42343284D01*
X68117467Y-42507216D01*
X68229573Y-42631722D01*
X68244129Y-42647888D01*
X68397265Y-42759148D01*
X68397270Y-42759151D01*
X68570192Y-42836142D01*
X68570197Y-42836144D01*
X68755354Y-42875500D01*
X68755355Y-42875500D01*
X68944644Y-42875500D01*
X68944646Y-42875500D01*
X69129803Y-42836144D01*
X69302730Y-42759151D01*
X69455871Y-42647888D01*
X69582533Y-42507216D01*
X69677179Y-42343284D01*
X69735674Y-42163256D01*
X69755460Y-41975000D01*
X69735674Y-41786744D01*
X69677179Y-41606716D01*
X69582533Y-41442784D01*
X69455871Y-41302112D01*
X69455870Y-41302111D01*
X69302734Y-41190851D01*
X69302729Y-41190848D01*
X69129807Y-41113857D01*
X69129802Y-41113855D01*
X68984001Y-41082865D01*
X68944646Y-41074500D01*
X68755354Y-41074500D01*
X68722897Y-41081398D01*
X68570197Y-41113855D01*
X68570192Y-41113857D01*
X68397270Y-41190848D01*
X68397265Y-41190851D01*
X68244129Y-41302111D01*
X68117466Y-41442785D01*
X68022821Y-41606715D01*
X68022818Y-41606722D01*
X67972450Y-41761740D01*
X67964326Y-41786744D01*
X67944540Y-41975000D01*
X64555460Y-41975000D01*
X64535674Y-41786744D01*
X64477179Y-41606716D01*
X64436927Y-41536999D01*
X64420454Y-41469101D01*
X64436927Y-41413001D01*
X64477179Y-41343284D01*
X64535674Y-41163256D01*
X64555460Y-40975000D01*
X64535674Y-40786744D01*
X64477179Y-40606716D01*
X64436927Y-40536999D01*
X64420454Y-40469101D01*
X64436927Y-40413001D01*
X64477179Y-40343284D01*
X64535674Y-40163256D01*
X64555460Y-39975000D01*
X64535674Y-39786744D01*
X64477179Y-39606716D01*
X64382533Y-39442784D01*
X64255871Y-39302112D01*
X64255870Y-39302111D01*
X64102734Y-39190851D01*
X64102729Y-39190848D01*
X63929807Y-39113857D01*
X63929802Y-39113855D01*
X63784001Y-39082865D01*
X63744646Y-39074500D01*
X63555354Y-39074500D01*
X63522897Y-39081398D01*
X63370197Y-39113855D01*
X63370192Y-39113857D01*
X63197270Y-39190848D01*
X63197265Y-39190851D01*
X63044129Y-39302111D01*
X62917466Y-39442785D01*
X62822821Y-39606715D01*
X62822818Y-39606722D01*
X62764327Y-39786740D01*
X62764326Y-39786744D01*
X62744540Y-39975000D01*
X59252832Y-39975000D01*
X59255460Y-39950000D01*
X59235674Y-39761744D01*
X59177179Y-39581716D01*
X59082533Y-39417784D01*
X58955871Y-39277112D01*
X58914519Y-39247068D01*
X58802734Y-39165851D01*
X58802729Y-39165848D01*
X58629807Y-39088857D01*
X58629802Y-39088855D01*
X58484001Y-39057865D01*
X58444646Y-39049500D01*
X58255354Y-39049500D01*
X58222897Y-39056398D01*
X58070197Y-39088855D01*
X58070192Y-39088857D01*
X57897270Y-39165848D01*
X57897265Y-39165851D01*
X57744129Y-39277111D01*
X57617466Y-39417785D01*
X57522821Y-39581715D01*
X57522818Y-39581722D01*
X57470134Y-39743869D01*
X57464326Y-39761744D01*
X57444540Y-39950000D01*
X57464326Y-40138256D01*
X57464327Y-40138259D01*
X57522818Y-40318277D01*
X57522820Y-40318281D01*
X57522821Y-40318284D01*
X57551690Y-40368287D01*
X57563072Y-40388001D01*
X57579543Y-40455901D01*
X57563072Y-40511998D01*
X57534204Y-40562001D01*
X57522820Y-40581718D01*
X57522818Y-40581722D01*
X57464327Y-40761740D01*
X57464326Y-40761744D01*
X57444540Y-40950000D01*
X57464326Y-41138256D01*
X57464327Y-41138259D01*
X57522818Y-41318277D01*
X57522820Y-41318281D01*
X57522821Y-41318284D01*
X57551690Y-41368287D01*
X57563072Y-41388001D01*
X57579543Y-41455901D01*
X57563072Y-41511998D01*
X57534204Y-41562001D01*
X57522820Y-41581718D01*
X57522818Y-41581722D01*
X57464327Y-41761740D01*
X57464326Y-41761744D01*
X57444540Y-41950000D01*
X57464326Y-42138256D01*
X57464327Y-42138259D01*
X57522818Y-42318277D01*
X57522820Y-42318281D01*
X57522821Y-42318284D01*
X57563071Y-42387999D01*
X57563072Y-42388001D01*
X57579543Y-42455901D01*
X57563072Y-42511998D01*
X57534204Y-42562001D01*
X57522820Y-42581718D01*
X57522818Y-42581722D01*
X57464327Y-42761740D01*
X57464326Y-42761744D01*
X57444540Y-42950000D01*
X57464326Y-43138256D01*
X57464327Y-43138259D01*
X57522818Y-43318277D01*
X57522820Y-43318281D01*
X57522821Y-43318284D01*
X57551690Y-43368287D01*
X57563072Y-43388001D01*
X57579543Y-43455901D01*
X57563072Y-43511998D01*
X57527270Y-43574011D01*
X57522820Y-43581718D01*
X57522818Y-43581722D01*
X57482227Y-43706650D01*
X57464326Y-43761744D01*
X57445630Y-43939630D01*
X57445310Y-43942677D01*
X57418725Y-44007291D01*
X57361428Y-44047276D01*
X57291609Y-44049936D01*
X57256017Y-44034709D01*
X57199523Y-43999211D01*
X57029254Y-43939631D01*
X57029249Y-43939630D01*
X56850004Y-43919435D01*
X56849996Y-43919435D01*
X56670750Y-43939630D01*
X56670745Y-43939631D01*
X56500476Y-43999211D01*
X56347737Y-44095184D01*
X56220184Y-44222737D01*
X56124211Y-44375476D01*
X56064631Y-44545745D01*
X56064630Y-44545750D01*
X56044435Y-44724996D01*
X42149741Y-44724996D01*
X42255871Y-44647888D01*
X42382533Y-44507216D01*
X42477179Y-44343284D01*
X42535674Y-44163256D01*
X42555460Y-43975000D01*
X42535674Y-43786744D01*
X42477179Y-43606716D01*
X42436927Y-43536999D01*
X42420454Y-43469101D01*
X42436927Y-43413001D01*
X42477179Y-43343284D01*
X42535674Y-43163256D01*
X42555460Y-42975000D01*
X42542135Y-42848219D01*
X47873293Y-42848219D01*
X47873293Y-42848226D01*
X47893488Y-43027472D01*
X47893489Y-43027477D01*
X47953069Y-43197746D01*
X48028804Y-43318277D01*
X48049042Y-43350485D01*
X48176596Y-43478039D01*
X48181151Y-43480901D01*
X48310220Y-43562001D01*
X48329336Y-43574012D01*
X48422816Y-43606722D01*
X48499603Y-43633591D01*
X48499608Y-43633592D01*
X48678854Y-43653788D01*
X48678858Y-43653788D01*
X48678860Y-43653788D01*
X48711837Y-43650072D01*
X48736910Y-43647247D01*
X48805732Y-43659301D01*
X48857111Y-43706650D01*
X48874736Y-43774260D01*
X48874015Y-43784349D01*
X48869436Y-43824996D01*
X48869435Y-43825003D01*
X48889630Y-44004249D01*
X48889631Y-44004254D01*
X48949211Y-44174523D01*
X49039538Y-44318277D01*
X49045184Y-44327262D01*
X49172738Y-44454816D01*
X49216342Y-44482214D01*
X49317450Y-44545745D01*
X49325478Y-44550789D01*
X49495745Y-44610368D01*
X49495750Y-44610369D01*
X49674996Y-44630565D01*
X49675000Y-44630565D01*
X49675004Y-44630565D01*
X49854249Y-44610369D01*
X49854252Y-44610368D01*
X49854255Y-44610368D01*
X50024522Y-44550789D01*
X50177262Y-44454816D01*
X50304816Y-44327262D01*
X50400789Y-44174522D01*
X50460368Y-44004255D01*
X50460369Y-44004249D01*
X50480565Y-43825003D01*
X50480565Y-43824996D01*
X50460369Y-43645750D01*
X50460368Y-43645745D01*
X50437962Y-43581712D01*
X50400789Y-43475478D01*
X50304816Y-43322738D01*
X50177262Y-43195184D01*
X50126449Y-43163256D01*
X50024523Y-43099211D01*
X49854254Y-43039631D01*
X49854249Y-43039630D01*
X49675004Y-43019435D01*
X49674995Y-43019435D01*
X49616945Y-43025975D01*
X49548124Y-43013920D01*
X49496745Y-42966570D01*
X49479121Y-42898960D01*
X49479843Y-42888870D01*
X49484423Y-42848224D01*
X49484423Y-42848219D01*
X49464227Y-42668973D01*
X49464226Y-42668968D01*
X49451191Y-42631716D01*
X49404647Y-42498701D01*
X49308674Y-42345961D01*
X49181120Y-42218407D01*
X49151830Y-42200003D01*
X49151819Y-42199996D01*
X52594435Y-42199996D01*
X52594435Y-42200003D01*
X52614630Y-42379249D01*
X52614631Y-42379254D01*
X52674211Y-42549523D01*
X52749264Y-42668968D01*
X52770184Y-42702262D01*
X52897738Y-42829816D01*
X53050478Y-42925789D01*
X53191115Y-42975000D01*
X53220745Y-42985368D01*
X53220750Y-42985369D01*
X53399996Y-43005565D01*
X53400000Y-43005565D01*
X53400004Y-43005565D01*
X53579249Y-42985369D01*
X53579252Y-42985368D01*
X53579255Y-42985368D01*
X53749522Y-42925789D01*
X53902262Y-42829816D01*
X54029816Y-42702262D01*
X54125789Y-42549522D01*
X54185368Y-42379255D01*
X54186604Y-42368284D01*
X54205565Y-42200003D01*
X54205565Y-42199996D01*
X54185369Y-42020750D01*
X54185368Y-42020745D01*
X54125788Y-41850476D01*
X54029815Y-41697737D01*
X53902262Y-41570184D01*
X53749523Y-41474211D01*
X53579254Y-41414631D01*
X53579249Y-41414630D01*
X53400004Y-41394435D01*
X53399996Y-41394435D01*
X53220750Y-41414630D01*
X53220745Y-41414631D01*
X53050476Y-41474211D01*
X52897737Y-41570184D01*
X52770184Y-41697737D01*
X52674211Y-41850476D01*
X52614631Y-42020745D01*
X52614630Y-42020750D01*
X52594435Y-42199996D01*
X49151819Y-42199996D01*
X49028381Y-42122434D01*
X48858112Y-42062854D01*
X48858107Y-42062853D01*
X48678862Y-42042658D01*
X48678854Y-42042658D01*
X48499608Y-42062853D01*
X48499603Y-42062854D01*
X48329334Y-42122434D01*
X48176595Y-42218407D01*
X48049042Y-42345960D01*
X47953069Y-42498699D01*
X47893489Y-42668968D01*
X47893488Y-42668973D01*
X47873293Y-42848219D01*
X42542135Y-42848219D01*
X42535674Y-42786744D01*
X42477179Y-42606716D01*
X42436927Y-42536999D01*
X42420454Y-42469101D01*
X42436927Y-42413001D01*
X42477179Y-42343284D01*
X42535674Y-42163256D01*
X42555460Y-41975000D01*
X42535674Y-41786744D01*
X42477179Y-41606716D01*
X42436927Y-41536999D01*
X42420454Y-41469101D01*
X42436927Y-41413001D01*
X42477179Y-41343284D01*
X42535674Y-41163256D01*
X42555460Y-40975000D01*
X42535674Y-40786744D01*
X42477179Y-40606716D01*
X42436927Y-40536999D01*
X42420454Y-40469101D01*
X42436927Y-40413001D01*
X42477179Y-40343284D01*
X42535674Y-40163256D01*
X42555460Y-39975000D01*
X42535674Y-39786744D01*
X42477179Y-39606716D01*
X42458868Y-39575000D01*
X50922040Y-39575000D01*
X50941826Y-39763256D01*
X50941827Y-39763259D01*
X51000318Y-39943277D01*
X51000321Y-39943284D01*
X51094967Y-40107216D01*
X51221629Y-40247888D01*
X51374765Y-40359148D01*
X51374770Y-40359151D01*
X51547692Y-40436142D01*
X51547697Y-40436144D01*
X51732854Y-40475500D01*
X51732855Y-40475500D01*
X51922144Y-40475500D01*
X51922146Y-40475500D01*
X52107303Y-40436144D01*
X52280230Y-40359151D01*
X52433371Y-40247888D01*
X52560033Y-40107216D01*
X52654679Y-39943284D01*
X52713174Y-39763256D01*
X52732960Y-39575000D01*
X54566855Y-39575000D01*
X54587359Y-39743869D01*
X54587360Y-39743874D01*
X54647682Y-39902931D01*
X54680172Y-39950000D01*
X54744317Y-40042929D01*
X54850005Y-40136560D01*
X54871650Y-40155736D01*
X55022273Y-40234789D01*
X55022275Y-40234790D01*
X55187444Y-40275500D01*
X55357556Y-40275500D01*
X55522725Y-40234790D01*
X55602192Y-40193081D01*
X55673349Y-40155736D01*
X55673350Y-40155734D01*
X55673352Y-40155734D01*
X55800683Y-40042929D01*
X55897318Y-39902930D01*
X55957640Y-39743872D01*
X55978145Y-39575000D01*
X55957640Y-39406128D01*
X55897318Y-39247070D01*
X55869463Y-39206716D01*
X55822623Y-39138857D01*
X55800683Y-39107071D01*
X55673352Y-38994266D01*
X55673349Y-38994263D01*
X55522726Y-38915210D01*
X55357556Y-38874500D01*
X55187444Y-38874500D01*
X55022273Y-38915210D01*
X54871650Y-38994263D01*
X54744316Y-39107072D01*
X54647682Y-39247068D01*
X54587360Y-39406125D01*
X54587359Y-39406130D01*
X54566855Y-39575000D01*
X52732960Y-39575000D01*
X52713174Y-39386744D01*
X52654679Y-39206716D01*
X52560033Y-39042784D01*
X52433371Y-38902112D01*
X52433370Y-38902111D01*
X52280234Y-38790851D01*
X52280229Y-38790848D01*
X52107307Y-38713857D01*
X52107302Y-38713855D01*
X51961501Y-38682865D01*
X51922146Y-38674500D01*
X51732854Y-38674500D01*
X51700397Y-38681398D01*
X51547697Y-38713855D01*
X51547692Y-38713857D01*
X51374770Y-38790848D01*
X51374765Y-38790851D01*
X51221629Y-38902111D01*
X51094966Y-39042785D01*
X51000321Y-39206715D01*
X51000318Y-39206722D01*
X50953030Y-39352262D01*
X50941826Y-39386744D01*
X50922040Y-39575000D01*
X42458868Y-39575000D01*
X42382533Y-39442784D01*
X42255871Y-39302112D01*
X42255870Y-39302111D01*
X42102734Y-39190851D01*
X42102729Y-39190848D01*
X41929807Y-39113857D01*
X41929802Y-39113855D01*
X41784001Y-39082865D01*
X41744646Y-39074500D01*
X41555354Y-39074500D01*
X41522897Y-39081398D01*
X41370197Y-39113855D01*
X41370192Y-39113857D01*
X41197270Y-39190848D01*
X41197265Y-39190851D01*
X41044129Y-39302111D01*
X40917466Y-39442785D01*
X40822821Y-39606715D01*
X40822818Y-39606722D01*
X40764327Y-39786740D01*
X40764326Y-39786744D01*
X40744540Y-39975000D01*
X37265332Y-39975000D01*
X37248174Y-39811744D01*
X37189679Y-39631716D01*
X37095033Y-39467784D01*
X36968371Y-39327112D01*
X36968370Y-39327111D01*
X36815234Y-39215851D01*
X36815229Y-39215848D01*
X36642307Y-39138857D01*
X36642302Y-39138855D01*
X36492765Y-39107071D01*
X36457146Y-39099500D01*
X36267854Y-39099500D01*
X36235397Y-39106398D01*
X36082697Y-39138855D01*
X36082692Y-39138857D01*
X35909770Y-39215848D01*
X35909765Y-39215851D01*
X35756629Y-39327111D01*
X35629966Y-39467785D01*
X35535321Y-39631715D01*
X35535318Y-39631722D01*
X35484950Y-39786740D01*
X35476826Y-39811744D01*
X35457040Y-40000000D01*
X29200500Y-40000000D01*
X29200500Y-38849996D01*
X29519435Y-38849996D01*
X29519435Y-38850003D01*
X29539630Y-39029249D01*
X29539631Y-39029254D01*
X29599211Y-39199523D01*
X29679381Y-39327112D01*
X29695184Y-39352262D01*
X29822738Y-39479816D01*
X29975478Y-39575789D01*
X30135305Y-39631715D01*
X30145745Y-39635368D01*
X30145750Y-39635369D01*
X30324996Y-39655565D01*
X30325000Y-39655565D01*
X30325004Y-39655565D01*
X30504249Y-39635369D01*
X30504252Y-39635368D01*
X30504255Y-39635368D01*
X30674522Y-39575789D01*
X30827262Y-39479816D01*
X30954816Y-39352262D01*
X31050789Y-39199522D01*
X31110368Y-39029255D01*
X31110369Y-39029249D01*
X31130565Y-38850003D01*
X31130565Y-38849996D01*
X31110369Y-38670750D01*
X31110368Y-38670745D01*
X31050788Y-38500476D01*
X30954815Y-38347737D01*
X30827262Y-38220184D01*
X30674523Y-38124211D01*
X30504254Y-38064631D01*
X30504249Y-38064630D01*
X30325004Y-38044435D01*
X30324996Y-38044435D01*
X30145750Y-38064630D01*
X30145745Y-38064631D01*
X29975476Y-38124211D01*
X29822737Y-38220184D01*
X29695184Y-38347737D01*
X29599211Y-38500476D01*
X29539631Y-38670745D01*
X29539630Y-38670750D01*
X29519435Y-38849996D01*
X29200500Y-38849996D01*
X29200500Y-33300668D01*
X29220185Y-33233629D01*
X29272989Y-33187874D01*
X29342147Y-33177930D01*
X29405703Y-33206955D01*
X29441542Y-33259713D01*
X29499211Y-33424523D01*
X29574557Y-33544435D01*
X29595184Y-33577262D01*
X29722738Y-33704816D01*
X29760057Y-33728265D01*
X29857406Y-33789434D01*
X29875478Y-33800789D01*
X30009648Y-33847737D01*
X30045745Y-33860368D01*
X30045750Y-33860369D01*
X30224996Y-33880565D01*
X30225000Y-33880565D01*
X30225004Y-33880565D01*
X30404249Y-33860369D01*
X30404252Y-33860368D01*
X30404255Y-33860368D01*
X30574522Y-33800789D01*
X30727262Y-33704816D01*
X30854816Y-33577262D01*
X30950789Y-33424522D01*
X31010368Y-33254255D01*
X31010369Y-33254249D01*
X31030565Y-33075003D01*
X31030565Y-33074996D01*
X31010369Y-32895750D01*
X31010368Y-32895745D01*
X31007107Y-32886426D01*
X30950789Y-32725478D01*
X30923291Y-32681716D01*
X30854815Y-32572737D01*
X30727262Y-32445184D01*
X30574523Y-32349211D01*
X30404254Y-32289631D01*
X30404249Y-32289630D01*
X30291339Y-32276909D01*
X30226925Y-32249843D01*
X30187369Y-32192248D01*
X30185232Y-32122411D01*
X30217541Y-32066008D01*
X31451834Y-30831715D01*
X32571031Y-29712517D01*
X32632353Y-29679034D01*
X32702045Y-29684018D01*
X32757978Y-29725890D01*
X32782395Y-29791354D01*
X32781931Y-29814083D01*
X32769435Y-29924995D01*
X32769435Y-29925003D01*
X32789630Y-30104249D01*
X32789631Y-30104254D01*
X32849211Y-30274523D01*
X32889635Y-30338857D01*
X32945184Y-30427262D01*
X33072738Y-30554816D01*
X33225478Y-30650789D01*
X33274050Y-30667785D01*
X33395745Y-30710368D01*
X33395750Y-30710369D01*
X33574996Y-30730565D01*
X33575000Y-30730565D01*
X33575004Y-30730565D01*
X33754249Y-30710369D01*
X33754252Y-30710368D01*
X33754255Y-30710368D01*
X33924522Y-30650789D01*
X34077262Y-30554816D01*
X34204816Y-30427262D01*
X34300789Y-30274522D01*
X34360368Y-30104255D01*
X34363755Y-30074195D01*
X34380565Y-29925003D01*
X34380565Y-29924996D01*
X34360369Y-29745750D01*
X34360368Y-29745745D01*
X34348742Y-29712519D01*
X34300789Y-29575478D01*
X34273291Y-29531716D01*
X34204815Y-29422737D01*
X34194259Y-29412181D01*
X34160774Y-29350858D01*
X34165758Y-29281166D01*
X34207630Y-29225233D01*
X34273094Y-29200816D01*
X34281940Y-29200500D01*
X41511774Y-29200500D01*
X41578813Y-29220185D01*
G37*
%TD.AperFunction*%
%TD*%
M02*
