%TF.GenerationSoftware,KiCad,Pcbnew,8.0.8*%
%TF.CreationDate,2025-02-17T00:55:54-08:00*%
%TF.ProjectId,Integrated FOC Stepper Driver,496e7465-6772-4617-9465-6420464f4320,rev?*%
%TF.SameCoordinates,Original*%
%TF.FileFunction,Soldermask,Top*%
%TF.FilePolarity,Negative*%
%FSLAX46Y46*%
G04 Gerber Fmt 4.6, Leading zero omitted, Abs format (unit mm)*
G04 Created by KiCad (PCBNEW 8.0.8) date 2025-02-17 00:55:54*
%MOMM*%
%LPD*%
G01*
G04 APERTURE LIST*
G04 Aperture macros list*
%AMRoundRect*
0 Rectangle with rounded corners*
0 $1 Rounding radius*
0 $2 $3 $4 $5 $6 $7 $8 $9 X,Y pos of 4 corners*
0 Add a 4 corners polygon primitive as box body*
4,1,4,$2,$3,$4,$5,$6,$7,$8,$9,$2,$3,0*
0 Add four circle primitives for the rounded corners*
1,1,$1+$1,$2,$3*
1,1,$1+$1,$4,$5*
1,1,$1+$1,$6,$7*
1,1,$1+$1,$8,$9*
0 Add four rect primitives between the rounded corners*
20,1,$1+$1,$2,$3,$4,$5,0*
20,1,$1+$1,$4,$5,$6,$7,0*
20,1,$1+$1,$6,$7,$8,$9,0*
20,1,$1+$1,$8,$9,$2,$3,0*%
%AMRotRect*
0 Rectangle, with rotation*
0 The origin of the aperture is its center*
0 $1 length*
0 $2 width*
0 $3 Rotation angle, in degrees counterclockwise*
0 Add horizontal line*
21,1,$1,$2,0,0,$3*%
G04 Aperture macros list end*
%ADD10RoundRect,0.155000X-0.040659X-0.259862X0.259862X0.040659X0.040659X0.259862X-0.259862X-0.040659X0*%
%ADD11RoundRect,0.155000X0.040659X0.259862X-0.259862X-0.040659X-0.040659X-0.259862X0.259862X0.040659X0*%
%ADD12C,5.600000*%
%ADD13RoundRect,0.160000X-0.197500X-0.160000X0.197500X-0.160000X0.197500X0.160000X-0.197500X0.160000X0*%
%ADD14RoundRect,0.160000X-0.026517X-0.252791X0.252791X0.026517X0.026517X0.252791X-0.252791X-0.026517X0*%
%ADD15RoundRect,0.160000X-0.160000X0.197500X-0.160000X-0.197500X0.160000X-0.197500X0.160000X0.197500X0*%
%ADD16RoundRect,0.090000X-0.360000X0.660000X-0.360000X-0.660000X0.360000X-0.660000X0.360000X0.660000X0*%
%ADD17RoundRect,0.160000X0.197500X0.160000X-0.197500X0.160000X-0.197500X-0.160000X0.197500X-0.160000X0*%
%ADD18RoundRect,0.150000X-0.150000X0.650000X-0.150000X-0.650000X0.150000X-0.650000X0.150000X0.650000X0*%
%ADD19RoundRect,0.237500X-0.237500X0.300000X-0.237500X-0.300000X0.237500X-0.300000X0.237500X0.300000X0*%
%ADD20RoundRect,0.155000X0.212500X0.155000X-0.212500X0.155000X-0.212500X-0.155000X0.212500X-0.155000X0*%
%ADD21RoundRect,0.155000X-0.259862X0.040659X0.040659X-0.259862X0.259862X-0.040659X-0.040659X0.259862X0*%
%ADD22RoundRect,0.249999X0.737501X2.450001X-0.737501X2.450001X-0.737501X-2.450001X0.737501X-2.450001X0*%
%ADD23R,1.700000X1.700000*%
%ADD24O,1.700000X1.700000*%
%ADD25RoundRect,0.250000X0.250000X1.500000X-0.250000X1.500000X-0.250000X-1.500000X0.250000X-1.500000X0*%
%ADD26RoundRect,0.250001X0.499999X1.449999X-0.499999X1.449999X-0.499999X-1.449999X0.499999X-1.449999X0*%
%ADD27RotRect,1.400000X1.200000X45.000000*%
%ADD28RoundRect,0.237500X-0.300000X-0.237500X0.300000X-0.237500X0.300000X0.237500X-0.300000X0.237500X0*%
%ADD29RoundRect,0.155000X0.155000X-0.212500X0.155000X0.212500X-0.155000X0.212500X-0.155000X-0.212500X0*%
%ADD30RoundRect,0.200000X-0.200000X0.750000X-0.200000X-0.750000X0.200000X-0.750000X0.200000X0.750000X0*%
%ADD31RoundRect,0.250000X-0.350000X-0.625000X0.350000X-0.625000X0.350000X0.625000X-0.350000X0.625000X0*%
%ADD32O,1.200000X1.750000*%
%ADD33RoundRect,0.200000X-0.750000X-0.200000X0.750000X-0.200000X0.750000X0.200000X-0.750000X0.200000X0*%
%ADD34R,1.700000X0.900000*%
%ADD35RoundRect,0.237500X0.237500X-0.300000X0.237500X0.300000X-0.237500X0.300000X-0.237500X-0.300000X0*%
%ADD36RoundRect,0.155000X-0.212500X-0.155000X0.212500X-0.155000X0.212500X0.155000X-0.212500X0.155000X0*%
%ADD37RoundRect,0.160000X0.160000X-0.197500X0.160000X0.197500X-0.160000X0.197500X-0.160000X-0.197500X0*%
%ADD38RoundRect,0.150000X-0.150000X0.825000X-0.150000X-0.825000X0.150000X-0.825000X0.150000X0.825000X0*%
%ADD39RoundRect,0.160000X-0.252791X0.026517X0.026517X-0.252791X0.252791X-0.026517X-0.026517X0.252791X0*%
%ADD40C,0.650000*%
%ADD41R,1.240000X0.600000*%
%ADD42R,1.240000X0.300000*%
%ADD43O,2.100000X1.000000*%
%ADD44O,1.800000X1.000000*%
%ADD45RoundRect,0.155000X0.259862X-0.040659X-0.040659X0.259862X-0.259862X0.040659X0.040659X-0.259862X0*%
%ADD46R,3.100000X2.600000*%
%ADD47R,0.600000X1.550000*%
%ADD48RoundRect,0.237500X0.300000X0.237500X-0.300000X0.237500X-0.300000X-0.237500X0.300000X-0.237500X0*%
%ADD49RoundRect,0.249999X-0.737501X-2.450001X0.737501X-2.450001X0.737501X2.450001X-0.737501X2.450001X0*%
%ADD50RoundRect,0.162500X0.162500X-0.617500X0.162500X0.617500X-0.162500X0.617500X-0.162500X-0.617500X0*%
%ADD51RoundRect,0.155000X-0.155000X0.212500X-0.155000X-0.212500X0.155000X-0.212500X0.155000X0.212500X0*%
%ADD52RoundRect,0.050000X0.238649X0.309359X-0.309359X-0.238649X-0.238649X-0.309359X0.309359X0.238649X0*%
%ADD53RoundRect,0.050000X-0.238649X0.309359X-0.309359X0.238649X0.238649X-0.309359X0.309359X-0.238649X0*%
%ADD54RotRect,3.200000X3.200000X225.000000*%
G04 APERTURE END LIST*
D10*
%TO.C,C18*%
X45373717Y-41826283D03*
X46176283Y-41023717D03*
%TD*%
D11*
%TO.C,C10*%
X53526283Y-44873717D03*
X52723717Y-45676283D03*
%TD*%
D12*
%TO.C,H4*%
X34500000Y-65500000D03*
%TD*%
D13*
%TO.C,R1*%
X33052500Y-46075000D03*
X34247500Y-46075000D03*
%TD*%
D11*
%TO.C,C20*%
X51551283Y-55098717D03*
X50748717Y-55901283D03*
%TD*%
D14*
%TO.C,R11*%
X54630008Y-47594992D03*
X55475000Y-46750000D03*
%TD*%
D15*
%TO.C,R2*%
X30925000Y-62852500D03*
X30925000Y-64047500D03*
%TD*%
D13*
%TO.C,R8*%
X64502500Y-46775000D03*
X65697500Y-46775000D03*
%TD*%
D16*
%TO.C,D2*%
X69650000Y-55550000D03*
X66350000Y-55550000D03*
X66350000Y-60450000D03*
X69650000Y-60450000D03*
%TD*%
D17*
%TO.C,R7*%
X65697500Y-45825000D03*
X64502500Y-45825000D03*
%TD*%
D12*
%TO.C,H3*%
X65500000Y-65500000D03*
%TD*%
D18*
%TO.C,U4*%
X62905000Y-46400000D03*
X61635000Y-46400000D03*
X60365000Y-46400000D03*
X59095000Y-46400000D03*
X59095000Y-53600000D03*
X60365000Y-53600000D03*
X61635000Y-53600000D03*
X62905000Y-53600000D03*
%TD*%
D10*
%TO.C,C7*%
X48323717Y-56726283D03*
X49126283Y-55923717D03*
%TD*%
D19*
%TO.C,C1*%
X38275000Y-63425000D03*
X38275000Y-65150000D03*
%TD*%
D20*
%TO.C,C25*%
X42300000Y-29900000D03*
X41165000Y-29900000D03*
%TD*%
D17*
%TO.C,R6*%
X41525000Y-53675000D03*
X40330000Y-53675000D03*
%TD*%
D21*
%TO.C,C15*%
X43881217Y-45698717D03*
X44683783Y-46501283D03*
%TD*%
D15*
%TO.C,R3*%
X29925000Y-62852500D03*
X29925000Y-64047500D03*
%TD*%
D22*
%TO.C,C22*%
X63637500Y-42000000D03*
X58362500Y-42000000D03*
%TD*%
D23*
%TO.C,J5*%
X53740000Y-60850000D03*
D24*
X51200000Y-60850000D03*
%TD*%
D25*
%TO.C,J4*%
X53000000Y-36725000D03*
X51000000Y-36725000D03*
X49000000Y-36725000D03*
X47000000Y-36725000D03*
D26*
X55350000Y-30975000D03*
X44650000Y-30975000D03*
%TD*%
D27*
%TO.C,Y1*%
X47123223Y-44403858D03*
X48678858Y-42848223D03*
X47476777Y-41646142D03*
X45921142Y-43201777D03*
%TD*%
D28*
%TO.C,C4*%
X40850000Y-56100000D03*
X42575000Y-56100000D03*
%TD*%
D29*
%TO.C,C17*%
X64450000Y-53560000D03*
X64450000Y-52425000D03*
%TD*%
D13*
%TO.C,R5*%
X40330000Y-54675000D03*
X41525000Y-54675000D03*
%TD*%
D21*
%TO.C,C19*%
X44372434Y-44047434D03*
X45175000Y-44850000D03*
%TD*%
D10*
%TO.C,C8*%
X44398717Y-52726283D03*
X45201283Y-51923717D03*
%TD*%
D11*
%TO.C,C13*%
X56151283Y-47523717D03*
X55348717Y-48326283D03*
%TD*%
D30*
%TO.C,D3*%
X45050000Y-58175000D03*
X43150000Y-58175000D03*
X44100000Y-61175000D03*
%TD*%
D31*
%TO.C,J1*%
X41500000Y-64500000D03*
D32*
X43500000Y-64500000D03*
X45500000Y-64500000D03*
X47500000Y-64500000D03*
%TD*%
D12*
%TO.C,H2*%
X65500000Y-34500000D03*
%TD*%
D33*
%TO.C,U2*%
X32100000Y-48875000D03*
X32100000Y-50775000D03*
X35100000Y-49825000D03*
%TD*%
D34*
%TO.C,SW2*%
X68875000Y-51700000D03*
X68875000Y-48300000D03*
%TD*%
D21*
%TO.C,C9*%
X42473717Y-47123717D03*
X43276283Y-47926283D03*
%TD*%
D35*
%TO.C,C5*%
X30100000Y-50700000D03*
X30100000Y-48975000D03*
%TD*%
D36*
%TO.C,C24*%
X63832500Y-29750000D03*
X64967500Y-29750000D03*
%TD*%
D10*
%TO.C,C12*%
X45073717Y-53401283D03*
X45876283Y-52598717D03*
%TD*%
D37*
%TO.C,R10*%
X48900000Y-61522500D03*
X48900000Y-60327500D03*
%TD*%
D14*
%TO.C,R12*%
X53952504Y-46922496D03*
X54797496Y-46077504D03*
%TD*%
D12*
%TO.C,H1*%
X34500000Y-34500000D03*
%TD*%
D38*
%TO.C,U5*%
X60155000Y-56475000D03*
X58885000Y-56475000D03*
X57615000Y-56475000D03*
X56345000Y-56475000D03*
X56345000Y-61425000D03*
X57615000Y-61425000D03*
X58885000Y-61425000D03*
X60155000Y-61425000D03*
%TD*%
D13*
%TO.C,R14*%
X51827500Y-39575000D03*
X53022500Y-39575000D03*
%TD*%
D20*
%TO.C,C3*%
X31135000Y-37800000D03*
X30000000Y-37800000D03*
%TD*%
D39*
%TO.C,R9*%
X45902504Y-45577504D03*
X46747496Y-46422496D03*
%TD*%
D40*
%TO.C,J2*%
X35480000Y-54110000D03*
X35480000Y-59890000D03*
D41*
X36600000Y-53800000D03*
X36600000Y-54600000D03*
D42*
X36600000Y-55750000D03*
X36600000Y-56750000D03*
X36600000Y-57250000D03*
X36600000Y-58250000D03*
D41*
X36600000Y-59400000D03*
X36600000Y-60200000D03*
X36600000Y-60200000D03*
X36600000Y-59400000D03*
D42*
X36600000Y-58750000D03*
X36600000Y-57750000D03*
X36600000Y-56250000D03*
X36600000Y-55250000D03*
D41*
X36600000Y-54600000D03*
X36600000Y-53800000D03*
D43*
X36000000Y-52680000D03*
D44*
X31800000Y-52680000D03*
D43*
X36000000Y-61320000D03*
D44*
X31800000Y-61320000D03*
%TD*%
D45*
%TO.C,C16*%
X54476283Y-54176283D03*
X53673717Y-53373717D03*
%TD*%
D17*
%TO.C,R4*%
X70020000Y-47075000D03*
X68825000Y-47075000D03*
%TD*%
D34*
%TO.C,SW1*%
X68875000Y-40300000D03*
X68875000Y-43700000D03*
%TD*%
D16*
%TO.C,D1*%
X33650000Y-39550000D03*
X30350000Y-39550000D03*
X30350000Y-44450000D03*
X33650000Y-44450000D03*
%TD*%
D21*
%TO.C,C14*%
X43223717Y-46348717D03*
X44026283Y-47151283D03*
%TD*%
D46*
%TO.C,U7*%
X59500000Y-35000000D03*
D47*
X57595000Y-37700000D03*
X58865000Y-37700000D03*
X60135000Y-37700000D03*
X61405000Y-37700000D03*
X61405000Y-32300000D03*
X60135000Y-32300000D03*
X58865000Y-32300000D03*
X57595000Y-32300000D03*
%TD*%
D48*
%TO.C,C2*%
X35412500Y-47275000D03*
X33687500Y-47275000D03*
%TD*%
D31*
%TO.C,J3*%
X52500000Y-64500000D03*
D32*
X54500000Y-64500000D03*
X56500000Y-64500000D03*
X58500000Y-64500000D03*
%TD*%
D46*
%TO.C,U8*%
X40500000Y-35000000D03*
D47*
X38595000Y-37700000D03*
X39865000Y-37700000D03*
X41135000Y-37700000D03*
X42405000Y-37700000D03*
X42405000Y-32300000D03*
X41135000Y-32300000D03*
X39865000Y-32300000D03*
X38595000Y-32300000D03*
%TD*%
D10*
%TO.C,C11*%
X47648717Y-56051283D03*
X48451283Y-55248717D03*
%TD*%
D49*
%TO.C,C23*%
X36362500Y-42000000D03*
X41637500Y-42000000D03*
%TD*%
D50*
%TO.C,U1*%
X39600000Y-61350000D03*
X40550000Y-61350000D03*
X41500000Y-61350000D03*
X41500000Y-58650000D03*
X39600000Y-58650000D03*
%TD*%
D20*
%TO.C,C6*%
X68492500Y-53875000D03*
X67357500Y-53875000D03*
%TD*%
D51*
%TO.C,C21*%
X61475000Y-58032500D03*
X61475000Y-59167500D03*
%TD*%
D52*
%TO.C,U3*%
X54269157Y-49407798D03*
X53986314Y-49124955D03*
X53703472Y-48842113D03*
X53420629Y-48559270D03*
X53137786Y-48276427D03*
X52854944Y-47993585D03*
X52572101Y-47710742D03*
X52289258Y-47427899D03*
X52006415Y-47145056D03*
X51723573Y-46862214D03*
X51440730Y-46579371D03*
X51157887Y-46296528D03*
X50875045Y-46013686D03*
X50592202Y-45730843D03*
D53*
X49407798Y-45730843D03*
X49124955Y-46013686D03*
X48842113Y-46296528D03*
X48559270Y-46579371D03*
X48276427Y-46862214D03*
X47993585Y-47145056D03*
X47710742Y-47427899D03*
X47427899Y-47710742D03*
X47145056Y-47993585D03*
X46862214Y-48276427D03*
X46579371Y-48559270D03*
X46296528Y-48842113D03*
X46013686Y-49124955D03*
X45730843Y-49407798D03*
D52*
X45730843Y-50592202D03*
X46013686Y-50875045D03*
X46296528Y-51157887D03*
X46579371Y-51440730D03*
X46862214Y-51723573D03*
X47145056Y-52006415D03*
X47427899Y-52289258D03*
X47710742Y-52572101D03*
X47993585Y-52854944D03*
X48276427Y-53137786D03*
X48559270Y-53420629D03*
X48842113Y-53703472D03*
X49124955Y-53986314D03*
X49407798Y-54269157D03*
D53*
X50592202Y-54269157D03*
X50875045Y-53986314D03*
X51157887Y-53703472D03*
X51440730Y-53420629D03*
X51723573Y-53137786D03*
X52006415Y-52854944D03*
X52289258Y-52572101D03*
X52572101Y-52289258D03*
X52854944Y-52006415D03*
X53137786Y-51723573D03*
X53420629Y-51440730D03*
X53703472Y-51157887D03*
X53986314Y-50875045D03*
X54269157Y-50592202D03*
D54*
X50000000Y-50000000D03*
%TD*%
D17*
%TO.C,R13*%
X55272500Y-39575000D03*
X54077500Y-39575000D03*
%TD*%
M02*
