%TF.GenerationSoftware,KiCad,Pcbnew,8.0.8*%
%TF.CreationDate,2025-02-17T01:58:32-08:00*%
%TF.ProjectId,Integrated FOC Stepper Driver,496e7465-6772-4617-9465-6420464f4320,rev?*%
%TF.SameCoordinates,Original*%
%TF.FileFunction,Drillmap*%
%TF.FilePolarity,Positive*%
%FSLAX45Y45*%
G04 Gerber Fmt 4.5, Leading zero omitted, Abs format (unit mm)*
G04 Created by KiCad (PCBNEW 8.0.8) date 2025-02-17 01:58:32*
%MOMM*%
%LPD*%
G01*
G04 APERTURE LIST*
%ADD10C,0.050000*%
%ADD11C,0.200000*%
%ADD12C,0.100000*%
G04 APERTURE END LIST*
D10*
X2900000Y-3300000D02*
X2900000Y-6700000D01*
X6700000Y-2900000D02*
X3300000Y-2900000D01*
X7100000Y-3300000D02*
X7100000Y-6700000D01*
X6700000Y-7100000D02*
X7100000Y-6700000D01*
X6700000Y-7100000D02*
X3300000Y-7100000D01*
X3300000Y-2900000D02*
X2900000Y-3300000D01*
X3300000Y-7100000D02*
X2900000Y-6700000D01*
X6700000Y-2900000D02*
X7100000Y-3300000D01*
D11*
D12*
X3515500Y-5378500D02*
X3580500Y-5443500D01*
X3580500Y-5378500D02*
X3515500Y-5443500D01*
X3515500Y-5956500D02*
X3580500Y-6021500D01*
X3580500Y-5956500D02*
X3515500Y-6021500D01*
D11*
X3158277Y-7413984D02*
X3158277Y-7213984D01*
X3158277Y-7213984D02*
X3205896Y-7213984D01*
X3205896Y-7213984D02*
X3234467Y-7223508D01*
X3234467Y-7223508D02*
X3253515Y-7242555D01*
X3253515Y-7242555D02*
X3263039Y-7261603D01*
X3263039Y-7261603D02*
X3272562Y-7299698D01*
X3272562Y-7299698D02*
X3272562Y-7328269D01*
X3272562Y-7328269D02*
X3263039Y-7366365D01*
X3263039Y-7366365D02*
X3253515Y-7385412D01*
X3253515Y-7385412D02*
X3234467Y-7404460D01*
X3234467Y-7404460D02*
X3205896Y-7413984D01*
X3205896Y-7413984D02*
X3158277Y-7413984D01*
X3358277Y-7413984D02*
X3358277Y-7280650D01*
X3358277Y-7318746D02*
X3367801Y-7299698D01*
X3367801Y-7299698D02*
X3377324Y-7290174D01*
X3377324Y-7290174D02*
X3396372Y-7280650D01*
X3396372Y-7280650D02*
X3415420Y-7280650D01*
X3482086Y-7413984D02*
X3482086Y-7280650D01*
X3482086Y-7213984D02*
X3472562Y-7223508D01*
X3472562Y-7223508D02*
X3482086Y-7233031D01*
X3482086Y-7233031D02*
X3491610Y-7223508D01*
X3491610Y-7223508D02*
X3482086Y-7213984D01*
X3482086Y-7213984D02*
X3482086Y-7233031D01*
X3605896Y-7413984D02*
X3586848Y-7404460D01*
X3586848Y-7404460D02*
X3577324Y-7385412D01*
X3577324Y-7385412D02*
X3577324Y-7213984D01*
X3710658Y-7413984D02*
X3691610Y-7404460D01*
X3691610Y-7404460D02*
X3682086Y-7385412D01*
X3682086Y-7385412D02*
X3682086Y-7213984D01*
X3939229Y-7413984D02*
X3939229Y-7213984D01*
X3939229Y-7213984D02*
X4005896Y-7356841D01*
X4005896Y-7356841D02*
X4072562Y-7213984D01*
X4072562Y-7213984D02*
X4072562Y-7413984D01*
X4253515Y-7413984D02*
X4253515Y-7309222D01*
X4253515Y-7309222D02*
X4243991Y-7290174D01*
X4243991Y-7290174D02*
X4224944Y-7280650D01*
X4224944Y-7280650D02*
X4186848Y-7280650D01*
X4186848Y-7280650D02*
X4167801Y-7290174D01*
X4253515Y-7404460D02*
X4234467Y-7413984D01*
X4234467Y-7413984D02*
X4186848Y-7413984D01*
X4186848Y-7413984D02*
X4167801Y-7404460D01*
X4167801Y-7404460D02*
X4158277Y-7385412D01*
X4158277Y-7385412D02*
X4158277Y-7366365D01*
X4158277Y-7366365D02*
X4167801Y-7347317D01*
X4167801Y-7347317D02*
X4186848Y-7337793D01*
X4186848Y-7337793D02*
X4234467Y-7337793D01*
X4234467Y-7337793D02*
X4253515Y-7328269D01*
X4348753Y-7280650D02*
X4348753Y-7480650D01*
X4348753Y-7290174D02*
X4367801Y-7280650D01*
X4367801Y-7280650D02*
X4405896Y-7280650D01*
X4405896Y-7280650D02*
X4424944Y-7290174D01*
X4424944Y-7290174D02*
X4434467Y-7299698D01*
X4434467Y-7299698D02*
X4443991Y-7318746D01*
X4443991Y-7318746D02*
X4443991Y-7375888D01*
X4443991Y-7375888D02*
X4434467Y-7394936D01*
X4434467Y-7394936D02*
X4424944Y-7404460D01*
X4424944Y-7404460D02*
X4405896Y-7413984D01*
X4405896Y-7413984D02*
X4367801Y-7413984D01*
X4367801Y-7413984D02*
X4348753Y-7404460D01*
X4529705Y-7394936D02*
X4539229Y-7404460D01*
X4539229Y-7404460D02*
X4529705Y-7413984D01*
X4529705Y-7413984D02*
X4520182Y-7404460D01*
X4520182Y-7404460D02*
X4529705Y-7394936D01*
X4529705Y-7394936D02*
X4529705Y-7413984D01*
X4529705Y-7290174D02*
X4539229Y-7299698D01*
X4539229Y-7299698D02*
X4529705Y-7309222D01*
X4529705Y-7309222D02*
X4520182Y-7299698D01*
X4520182Y-7299698D02*
X4529705Y-7290174D01*
X4529705Y-7290174D02*
X4529705Y-7309222D01*
D12*
X2832500Y-7710000D02*
X2897500Y-7775000D01*
X2897500Y-7710000D02*
X2832500Y-7775000D01*
D11*
X3196372Y-7633984D02*
X3215420Y-7633984D01*
X3215420Y-7633984D02*
X3234467Y-7643508D01*
X3234467Y-7643508D02*
X3243991Y-7653031D01*
X3243991Y-7653031D02*
X3253515Y-7672079D01*
X3253515Y-7672079D02*
X3263039Y-7710174D01*
X3263039Y-7710174D02*
X3263039Y-7757793D01*
X3263039Y-7757793D02*
X3253515Y-7795888D01*
X3253515Y-7795888D02*
X3243991Y-7814936D01*
X3243991Y-7814936D02*
X3234467Y-7824460D01*
X3234467Y-7824460D02*
X3215420Y-7833984D01*
X3215420Y-7833984D02*
X3196372Y-7833984D01*
X3196372Y-7833984D02*
X3177324Y-7824460D01*
X3177324Y-7824460D02*
X3167801Y-7814936D01*
X3167801Y-7814936D02*
X3158277Y-7795888D01*
X3158277Y-7795888D02*
X3148753Y-7757793D01*
X3148753Y-7757793D02*
X3148753Y-7710174D01*
X3148753Y-7710174D02*
X3158277Y-7672079D01*
X3158277Y-7672079D02*
X3167801Y-7653031D01*
X3167801Y-7653031D02*
X3177324Y-7643508D01*
X3177324Y-7643508D02*
X3196372Y-7633984D01*
X3348753Y-7814936D02*
X3358277Y-7824460D01*
X3358277Y-7824460D02*
X3348753Y-7833984D01*
X3348753Y-7833984D02*
X3339229Y-7824460D01*
X3339229Y-7824460D02*
X3348753Y-7814936D01*
X3348753Y-7814936D02*
X3348753Y-7833984D01*
X3529705Y-7633984D02*
X3491610Y-7633984D01*
X3491610Y-7633984D02*
X3472562Y-7643508D01*
X3472562Y-7643508D02*
X3463039Y-7653031D01*
X3463039Y-7653031D02*
X3443991Y-7681603D01*
X3443991Y-7681603D02*
X3434467Y-7719698D01*
X3434467Y-7719698D02*
X3434467Y-7795888D01*
X3434467Y-7795888D02*
X3443991Y-7814936D01*
X3443991Y-7814936D02*
X3453515Y-7824460D01*
X3453515Y-7824460D02*
X3472562Y-7833984D01*
X3472562Y-7833984D02*
X3510658Y-7833984D01*
X3510658Y-7833984D02*
X3529705Y-7824460D01*
X3529705Y-7824460D02*
X3539229Y-7814936D01*
X3539229Y-7814936D02*
X3548753Y-7795888D01*
X3548753Y-7795888D02*
X3548753Y-7748269D01*
X3548753Y-7748269D02*
X3539229Y-7729222D01*
X3539229Y-7729222D02*
X3529705Y-7719698D01*
X3529705Y-7719698D02*
X3510658Y-7710174D01*
X3510658Y-7710174D02*
X3472562Y-7710174D01*
X3472562Y-7710174D02*
X3453515Y-7719698D01*
X3453515Y-7719698D02*
X3443991Y-7729222D01*
X3443991Y-7729222D02*
X3434467Y-7748269D01*
X3729705Y-7633984D02*
X3634467Y-7633984D01*
X3634467Y-7633984D02*
X3624943Y-7729222D01*
X3624943Y-7729222D02*
X3634467Y-7719698D01*
X3634467Y-7719698D02*
X3653515Y-7710174D01*
X3653515Y-7710174D02*
X3701134Y-7710174D01*
X3701134Y-7710174D02*
X3720182Y-7719698D01*
X3720182Y-7719698D02*
X3729705Y-7729222D01*
X3729705Y-7729222D02*
X3739229Y-7748269D01*
X3739229Y-7748269D02*
X3739229Y-7795888D01*
X3739229Y-7795888D02*
X3729705Y-7814936D01*
X3729705Y-7814936D02*
X3720182Y-7824460D01*
X3720182Y-7824460D02*
X3701134Y-7833984D01*
X3701134Y-7833984D02*
X3653515Y-7833984D01*
X3653515Y-7833984D02*
X3634467Y-7824460D01*
X3634467Y-7824460D02*
X3624943Y-7814936D01*
X3863039Y-7633984D02*
X3882086Y-7633984D01*
X3882086Y-7633984D02*
X3901134Y-7643508D01*
X3901134Y-7643508D02*
X3910658Y-7653031D01*
X3910658Y-7653031D02*
X3920182Y-7672079D01*
X3920182Y-7672079D02*
X3929705Y-7710174D01*
X3929705Y-7710174D02*
X3929705Y-7757793D01*
X3929705Y-7757793D02*
X3920182Y-7795888D01*
X3920182Y-7795888D02*
X3910658Y-7814936D01*
X3910658Y-7814936D02*
X3901134Y-7824460D01*
X3901134Y-7824460D02*
X3882086Y-7833984D01*
X3882086Y-7833984D02*
X3863039Y-7833984D01*
X3863039Y-7833984D02*
X3843991Y-7824460D01*
X3843991Y-7824460D02*
X3834467Y-7814936D01*
X3834467Y-7814936D02*
X3824943Y-7795888D01*
X3824943Y-7795888D02*
X3815420Y-7757793D01*
X3815420Y-7757793D02*
X3815420Y-7710174D01*
X3815420Y-7710174D02*
X3824943Y-7672079D01*
X3824943Y-7672079D02*
X3834467Y-7653031D01*
X3834467Y-7653031D02*
X3843991Y-7643508D01*
X3843991Y-7643508D02*
X3863039Y-7633984D01*
X4015420Y-7833984D02*
X4015420Y-7700650D01*
X4015420Y-7719698D02*
X4024943Y-7710174D01*
X4024943Y-7710174D02*
X4043991Y-7700650D01*
X4043991Y-7700650D02*
X4072563Y-7700650D01*
X4072563Y-7700650D02*
X4091610Y-7710174D01*
X4091610Y-7710174D02*
X4101134Y-7729222D01*
X4101134Y-7729222D02*
X4101134Y-7833984D01*
X4101134Y-7729222D02*
X4110658Y-7710174D01*
X4110658Y-7710174D02*
X4129705Y-7700650D01*
X4129705Y-7700650D02*
X4158277Y-7700650D01*
X4158277Y-7700650D02*
X4177324Y-7710174D01*
X4177324Y-7710174D02*
X4186848Y-7729222D01*
X4186848Y-7729222D02*
X4186848Y-7833984D01*
X4282086Y-7833984D02*
X4282086Y-7700650D01*
X4282086Y-7719698D02*
X4291610Y-7710174D01*
X4291610Y-7710174D02*
X4310658Y-7700650D01*
X4310658Y-7700650D02*
X4339229Y-7700650D01*
X4339229Y-7700650D02*
X4358277Y-7710174D01*
X4358277Y-7710174D02*
X4367801Y-7729222D01*
X4367801Y-7729222D02*
X4367801Y-7833984D01*
X4367801Y-7729222D02*
X4377325Y-7710174D01*
X4377325Y-7710174D02*
X4396372Y-7700650D01*
X4396372Y-7700650D02*
X4424944Y-7700650D01*
X4424944Y-7700650D02*
X4443991Y-7710174D01*
X4443991Y-7710174D02*
X4453515Y-7729222D01*
X4453515Y-7729222D02*
X4453515Y-7833984D01*
X4843991Y-7624460D02*
X4672563Y-7881603D01*
X5101134Y-7633984D02*
X5120182Y-7633984D01*
X5120182Y-7633984D02*
X5139229Y-7643508D01*
X5139229Y-7643508D02*
X5148753Y-7653031D01*
X5148753Y-7653031D02*
X5158277Y-7672079D01*
X5158277Y-7672079D02*
X5167801Y-7710174D01*
X5167801Y-7710174D02*
X5167801Y-7757793D01*
X5167801Y-7757793D02*
X5158277Y-7795888D01*
X5158277Y-7795888D02*
X5148753Y-7814936D01*
X5148753Y-7814936D02*
X5139229Y-7824460D01*
X5139229Y-7824460D02*
X5120182Y-7833984D01*
X5120182Y-7833984D02*
X5101134Y-7833984D01*
X5101134Y-7833984D02*
X5082087Y-7824460D01*
X5082087Y-7824460D02*
X5072563Y-7814936D01*
X5072563Y-7814936D02*
X5063039Y-7795888D01*
X5063039Y-7795888D02*
X5053515Y-7757793D01*
X5053515Y-7757793D02*
X5053515Y-7710174D01*
X5053515Y-7710174D02*
X5063039Y-7672079D01*
X5063039Y-7672079D02*
X5072563Y-7653031D01*
X5072563Y-7653031D02*
X5082087Y-7643508D01*
X5082087Y-7643508D02*
X5101134Y-7633984D01*
X5253515Y-7814936D02*
X5263039Y-7824460D01*
X5263039Y-7824460D02*
X5253515Y-7833984D01*
X5253515Y-7833984D02*
X5243991Y-7824460D01*
X5243991Y-7824460D02*
X5253515Y-7814936D01*
X5253515Y-7814936D02*
X5253515Y-7833984D01*
X5386848Y-7633984D02*
X5405896Y-7633984D01*
X5405896Y-7633984D02*
X5424944Y-7643508D01*
X5424944Y-7643508D02*
X5434468Y-7653031D01*
X5434468Y-7653031D02*
X5443991Y-7672079D01*
X5443991Y-7672079D02*
X5453515Y-7710174D01*
X5453515Y-7710174D02*
X5453515Y-7757793D01*
X5453515Y-7757793D02*
X5443991Y-7795888D01*
X5443991Y-7795888D02*
X5434468Y-7814936D01*
X5434468Y-7814936D02*
X5424944Y-7824460D01*
X5424944Y-7824460D02*
X5405896Y-7833984D01*
X5405896Y-7833984D02*
X5386848Y-7833984D01*
X5386848Y-7833984D02*
X5367801Y-7824460D01*
X5367801Y-7824460D02*
X5358277Y-7814936D01*
X5358277Y-7814936D02*
X5348753Y-7795888D01*
X5348753Y-7795888D02*
X5339229Y-7757793D01*
X5339229Y-7757793D02*
X5339229Y-7710174D01*
X5339229Y-7710174D02*
X5348753Y-7672079D01*
X5348753Y-7672079D02*
X5358277Y-7653031D01*
X5358277Y-7653031D02*
X5367801Y-7643508D01*
X5367801Y-7643508D02*
X5386848Y-7633984D01*
X5529706Y-7653031D02*
X5539229Y-7643508D01*
X5539229Y-7643508D02*
X5558277Y-7633984D01*
X5558277Y-7633984D02*
X5605896Y-7633984D01*
X5605896Y-7633984D02*
X5624944Y-7643508D01*
X5624944Y-7643508D02*
X5634467Y-7653031D01*
X5634467Y-7653031D02*
X5643991Y-7672079D01*
X5643991Y-7672079D02*
X5643991Y-7691127D01*
X5643991Y-7691127D02*
X5634467Y-7719698D01*
X5634467Y-7719698D02*
X5520182Y-7833984D01*
X5520182Y-7833984D02*
X5643991Y-7833984D01*
X5824944Y-7633984D02*
X5729706Y-7633984D01*
X5729706Y-7633984D02*
X5720182Y-7729222D01*
X5720182Y-7729222D02*
X5729706Y-7719698D01*
X5729706Y-7719698D02*
X5748753Y-7710174D01*
X5748753Y-7710174D02*
X5796372Y-7710174D01*
X5796372Y-7710174D02*
X5815420Y-7719698D01*
X5815420Y-7719698D02*
X5824944Y-7729222D01*
X5824944Y-7729222D02*
X5834467Y-7748269D01*
X5834467Y-7748269D02*
X5834467Y-7795888D01*
X5834467Y-7795888D02*
X5824944Y-7814936D01*
X5824944Y-7814936D02*
X5815420Y-7824460D01*
X5815420Y-7824460D02*
X5796372Y-7833984D01*
X5796372Y-7833984D02*
X5748753Y-7833984D01*
X5748753Y-7833984D02*
X5729706Y-7824460D01*
X5729706Y-7824460D02*
X5720182Y-7814936D01*
X6005896Y-7633984D02*
X5967801Y-7633984D01*
X5967801Y-7633984D02*
X5948753Y-7643508D01*
X5948753Y-7643508D02*
X5939229Y-7653031D01*
X5939229Y-7653031D02*
X5920182Y-7681603D01*
X5920182Y-7681603D02*
X5910658Y-7719698D01*
X5910658Y-7719698D02*
X5910658Y-7795888D01*
X5910658Y-7795888D02*
X5920182Y-7814936D01*
X5920182Y-7814936D02*
X5929706Y-7824460D01*
X5929706Y-7824460D02*
X5948753Y-7833984D01*
X5948753Y-7833984D02*
X5986848Y-7833984D01*
X5986848Y-7833984D02*
X6005896Y-7824460D01*
X6005896Y-7824460D02*
X6015420Y-7814936D01*
X6015420Y-7814936D02*
X6024944Y-7795888D01*
X6024944Y-7795888D02*
X6024944Y-7748269D01*
X6024944Y-7748269D02*
X6015420Y-7729222D01*
X6015420Y-7729222D02*
X6005896Y-7719698D01*
X6005896Y-7719698D02*
X5986848Y-7710174D01*
X5986848Y-7710174D02*
X5948753Y-7710174D01*
X5948753Y-7710174D02*
X5929706Y-7719698D01*
X5929706Y-7719698D02*
X5920182Y-7729222D01*
X5920182Y-7729222D02*
X5910658Y-7748269D01*
X6101134Y-7633984D02*
X6101134Y-7672079D01*
X6177325Y-7633984D02*
X6177325Y-7672079D01*
X6472563Y-7910174D02*
X6463039Y-7900650D01*
X6463039Y-7900650D02*
X6443991Y-7872079D01*
X6443991Y-7872079D02*
X6434468Y-7853031D01*
X6434468Y-7853031D02*
X6424944Y-7824460D01*
X6424944Y-7824460D02*
X6415420Y-7776841D01*
X6415420Y-7776841D02*
X6415420Y-7738746D01*
X6415420Y-7738746D02*
X6424944Y-7691127D01*
X6424944Y-7691127D02*
X6434468Y-7662555D01*
X6434468Y-7662555D02*
X6443991Y-7643508D01*
X6443991Y-7643508D02*
X6463039Y-7614936D01*
X6463039Y-7614936D02*
X6472563Y-7605412D01*
X6539229Y-7653031D02*
X6548753Y-7643508D01*
X6548753Y-7643508D02*
X6567801Y-7633984D01*
X6567801Y-7633984D02*
X6615420Y-7633984D01*
X6615420Y-7633984D02*
X6634468Y-7643508D01*
X6634468Y-7643508D02*
X6643991Y-7653031D01*
X6643991Y-7653031D02*
X6653515Y-7672079D01*
X6653515Y-7672079D02*
X6653515Y-7691127D01*
X6653515Y-7691127D02*
X6643991Y-7719698D01*
X6643991Y-7719698D02*
X6529706Y-7833984D01*
X6529706Y-7833984D02*
X6653515Y-7833984D01*
X6891610Y-7833984D02*
X6891610Y-7633984D01*
X6977325Y-7833984D02*
X6977325Y-7729222D01*
X6977325Y-7729222D02*
X6967801Y-7710174D01*
X6967801Y-7710174D02*
X6948753Y-7700650D01*
X6948753Y-7700650D02*
X6920182Y-7700650D01*
X6920182Y-7700650D02*
X6901134Y-7710174D01*
X6901134Y-7710174D02*
X6891610Y-7719698D01*
X7101134Y-7833984D02*
X7082087Y-7824460D01*
X7082087Y-7824460D02*
X7072563Y-7814936D01*
X7072563Y-7814936D02*
X7063039Y-7795888D01*
X7063039Y-7795888D02*
X7063039Y-7738746D01*
X7063039Y-7738746D02*
X7072563Y-7719698D01*
X7072563Y-7719698D02*
X7082087Y-7710174D01*
X7082087Y-7710174D02*
X7101134Y-7700650D01*
X7101134Y-7700650D02*
X7129706Y-7700650D01*
X7129706Y-7700650D02*
X7148753Y-7710174D01*
X7148753Y-7710174D02*
X7158277Y-7719698D01*
X7158277Y-7719698D02*
X7167801Y-7738746D01*
X7167801Y-7738746D02*
X7167801Y-7795888D01*
X7167801Y-7795888D02*
X7158277Y-7814936D01*
X7158277Y-7814936D02*
X7148753Y-7824460D01*
X7148753Y-7824460D02*
X7129706Y-7833984D01*
X7129706Y-7833984D02*
X7101134Y-7833984D01*
X7282087Y-7833984D02*
X7263039Y-7824460D01*
X7263039Y-7824460D02*
X7253515Y-7805412D01*
X7253515Y-7805412D02*
X7253515Y-7633984D01*
X7434468Y-7824460D02*
X7415420Y-7833984D01*
X7415420Y-7833984D02*
X7377325Y-7833984D01*
X7377325Y-7833984D02*
X7358277Y-7824460D01*
X7358277Y-7824460D02*
X7348753Y-7805412D01*
X7348753Y-7805412D02*
X7348753Y-7729222D01*
X7348753Y-7729222D02*
X7358277Y-7710174D01*
X7358277Y-7710174D02*
X7377325Y-7700650D01*
X7377325Y-7700650D02*
X7415420Y-7700650D01*
X7415420Y-7700650D02*
X7434468Y-7710174D01*
X7434468Y-7710174D02*
X7443991Y-7729222D01*
X7443991Y-7729222D02*
X7443991Y-7748269D01*
X7443991Y-7748269D02*
X7348753Y-7767317D01*
X7520182Y-7824460D02*
X7539230Y-7833984D01*
X7539230Y-7833984D02*
X7577325Y-7833984D01*
X7577325Y-7833984D02*
X7596372Y-7824460D01*
X7596372Y-7824460D02*
X7605896Y-7805412D01*
X7605896Y-7805412D02*
X7605896Y-7795888D01*
X7605896Y-7795888D02*
X7596372Y-7776841D01*
X7596372Y-7776841D02*
X7577325Y-7767317D01*
X7577325Y-7767317D02*
X7548753Y-7767317D01*
X7548753Y-7767317D02*
X7529706Y-7757793D01*
X7529706Y-7757793D02*
X7520182Y-7738746D01*
X7520182Y-7738746D02*
X7520182Y-7729222D01*
X7520182Y-7729222D02*
X7529706Y-7710174D01*
X7529706Y-7710174D02*
X7548753Y-7700650D01*
X7548753Y-7700650D02*
X7577325Y-7700650D01*
X7577325Y-7700650D02*
X7596372Y-7710174D01*
X7672563Y-7910174D02*
X7682087Y-7900650D01*
X7682087Y-7900650D02*
X7701134Y-7872079D01*
X7701134Y-7872079D02*
X7710658Y-7853031D01*
X7710658Y-7853031D02*
X7720182Y-7824460D01*
X7720182Y-7824460D02*
X7729706Y-7776841D01*
X7729706Y-7776841D02*
X7729706Y-7738746D01*
X7729706Y-7738746D02*
X7720182Y-7691127D01*
X7720182Y-7691127D02*
X7710658Y-7662555D01*
X7710658Y-7662555D02*
X7701134Y-7643508D01*
X7701134Y-7643508D02*
X7682087Y-7614936D01*
X7682087Y-7614936D02*
X7672563Y-7605412D01*
X8034468Y-7910174D02*
X8024944Y-7900650D01*
X8024944Y-7900650D02*
X8005896Y-7872079D01*
X8005896Y-7872079D02*
X7996372Y-7853031D01*
X7996372Y-7853031D02*
X7986849Y-7824460D01*
X7986849Y-7824460D02*
X7977325Y-7776841D01*
X7977325Y-7776841D02*
X7977325Y-7738746D01*
X7977325Y-7738746D02*
X7986849Y-7691127D01*
X7986849Y-7691127D02*
X7996372Y-7662555D01*
X7996372Y-7662555D02*
X8005896Y-7643508D01*
X8005896Y-7643508D02*
X8024944Y-7614936D01*
X8024944Y-7614936D02*
X8034468Y-7605412D01*
X8110658Y-7700650D02*
X8110658Y-7833984D01*
X8110658Y-7719698D02*
X8120182Y-7710174D01*
X8120182Y-7710174D02*
X8139230Y-7700650D01*
X8139230Y-7700650D02*
X8167801Y-7700650D01*
X8167801Y-7700650D02*
X8186849Y-7710174D01*
X8186849Y-7710174D02*
X8196372Y-7729222D01*
X8196372Y-7729222D02*
X8196372Y-7833984D01*
X8320182Y-7833984D02*
X8301134Y-7824460D01*
X8301134Y-7824460D02*
X8291611Y-7814936D01*
X8291611Y-7814936D02*
X8282087Y-7795888D01*
X8282087Y-7795888D02*
X8282087Y-7738746D01*
X8282087Y-7738746D02*
X8291611Y-7719698D01*
X8291611Y-7719698D02*
X8301134Y-7710174D01*
X8301134Y-7710174D02*
X8320182Y-7700650D01*
X8320182Y-7700650D02*
X8348753Y-7700650D01*
X8348753Y-7700650D02*
X8367801Y-7710174D01*
X8367801Y-7710174D02*
X8377325Y-7719698D01*
X8377325Y-7719698D02*
X8386849Y-7738746D01*
X8386849Y-7738746D02*
X8386849Y-7795888D01*
X8386849Y-7795888D02*
X8377325Y-7814936D01*
X8377325Y-7814936D02*
X8367801Y-7824460D01*
X8367801Y-7824460D02*
X8348753Y-7833984D01*
X8348753Y-7833984D02*
X8320182Y-7833984D01*
X8443992Y-7700650D02*
X8520182Y-7700650D01*
X8472563Y-7633984D02*
X8472563Y-7805412D01*
X8472563Y-7805412D02*
X8482087Y-7824460D01*
X8482087Y-7824460D02*
X8501134Y-7833984D01*
X8501134Y-7833984D02*
X8520182Y-7833984D01*
X8739230Y-7700650D02*
X8739230Y-7900650D01*
X8739230Y-7710174D02*
X8758277Y-7700650D01*
X8758277Y-7700650D02*
X8796373Y-7700650D01*
X8796373Y-7700650D02*
X8815420Y-7710174D01*
X8815420Y-7710174D02*
X8824944Y-7719698D01*
X8824944Y-7719698D02*
X8834468Y-7738746D01*
X8834468Y-7738746D02*
X8834468Y-7795888D01*
X8834468Y-7795888D02*
X8824944Y-7814936D01*
X8824944Y-7814936D02*
X8815420Y-7824460D01*
X8815420Y-7824460D02*
X8796373Y-7833984D01*
X8796373Y-7833984D02*
X8758277Y-7833984D01*
X8758277Y-7833984D02*
X8739230Y-7824460D01*
X8948754Y-7833984D02*
X8929706Y-7824460D01*
X8929706Y-7824460D02*
X8920182Y-7805412D01*
X8920182Y-7805412D02*
X8920182Y-7633984D01*
X9110658Y-7833984D02*
X9110658Y-7729222D01*
X9110658Y-7729222D02*
X9101135Y-7710174D01*
X9101135Y-7710174D02*
X9082087Y-7700650D01*
X9082087Y-7700650D02*
X9043992Y-7700650D01*
X9043992Y-7700650D02*
X9024944Y-7710174D01*
X9110658Y-7824460D02*
X9091611Y-7833984D01*
X9091611Y-7833984D02*
X9043992Y-7833984D01*
X9043992Y-7833984D02*
X9024944Y-7824460D01*
X9024944Y-7824460D02*
X9015420Y-7805412D01*
X9015420Y-7805412D02*
X9015420Y-7786365D01*
X9015420Y-7786365D02*
X9024944Y-7767317D01*
X9024944Y-7767317D02*
X9043992Y-7757793D01*
X9043992Y-7757793D02*
X9091611Y-7757793D01*
X9091611Y-7757793D02*
X9110658Y-7748269D01*
X9177325Y-7700650D02*
X9253515Y-7700650D01*
X9205896Y-7633984D02*
X9205896Y-7805412D01*
X9205896Y-7805412D02*
X9215420Y-7824460D01*
X9215420Y-7824460D02*
X9234468Y-7833984D01*
X9234468Y-7833984D02*
X9253515Y-7833984D01*
X9396373Y-7824460D02*
X9377325Y-7833984D01*
X9377325Y-7833984D02*
X9339230Y-7833984D01*
X9339230Y-7833984D02*
X9320182Y-7824460D01*
X9320182Y-7824460D02*
X9310658Y-7805412D01*
X9310658Y-7805412D02*
X9310658Y-7729222D01*
X9310658Y-7729222D02*
X9320182Y-7710174D01*
X9320182Y-7710174D02*
X9339230Y-7700650D01*
X9339230Y-7700650D02*
X9377325Y-7700650D01*
X9377325Y-7700650D02*
X9396373Y-7710174D01*
X9396373Y-7710174D02*
X9405896Y-7729222D01*
X9405896Y-7729222D02*
X9405896Y-7748269D01*
X9405896Y-7748269D02*
X9310658Y-7767317D01*
X9577325Y-7833984D02*
X9577325Y-7633984D01*
X9577325Y-7824460D02*
X9558277Y-7833984D01*
X9558277Y-7833984D02*
X9520182Y-7833984D01*
X9520182Y-7833984D02*
X9501135Y-7824460D01*
X9501135Y-7824460D02*
X9491611Y-7814936D01*
X9491611Y-7814936D02*
X9482087Y-7795888D01*
X9482087Y-7795888D02*
X9482087Y-7738746D01*
X9482087Y-7738746D02*
X9491611Y-7719698D01*
X9491611Y-7719698D02*
X9501135Y-7710174D01*
X9501135Y-7710174D02*
X9520182Y-7700650D01*
X9520182Y-7700650D02*
X9558277Y-7700650D01*
X9558277Y-7700650D02*
X9577325Y-7710174D01*
X9653516Y-7910174D02*
X9663039Y-7900650D01*
X9663039Y-7900650D02*
X9682087Y-7872079D01*
X9682087Y-7872079D02*
X9691611Y-7853031D01*
X9691611Y-7853031D02*
X9701135Y-7824460D01*
X9701135Y-7824460D02*
X9710658Y-7776841D01*
X9710658Y-7776841D02*
X9710658Y-7738746D01*
X9710658Y-7738746D02*
X9701135Y-7691127D01*
X9701135Y-7691127D02*
X9691611Y-7662555D01*
X9691611Y-7662555D02*
X9682087Y-7643508D01*
X9682087Y-7643508D02*
X9663039Y-7614936D01*
X9663039Y-7614936D02*
X9653516Y-7605412D01*
M02*
