%TF.GenerationSoftware,KiCad,Pcbnew,8.0.8*%
%TF.CreationDate,2025-02-17T00:55:54-08:00*%
%TF.ProjectId,Integrated FOC Stepper Driver,496e7465-6772-4617-9465-6420464f4320,rev?*%
%TF.SameCoordinates,Original*%
%TF.FileFunction,Legend,Bot*%
%TF.FilePolarity,Positive*%
%FSLAX46Y46*%
G04 Gerber Fmt 4.6, Leading zero omitted, Abs format (unit mm)*
G04 Created by KiCad (PCBNEW 8.0.8) date 2025-02-17 00:55:54*
%MOMM*%
%LPD*%
G01*
G04 APERTURE LIST*
%ADD10C,0.150000*%
%ADD11C,0.120000*%
G04 APERTURE END LIST*
D10*
X54719580Y-51357142D02*
X54767200Y-51309523D01*
X54767200Y-51309523D02*
X54814819Y-51166666D01*
X54814819Y-51166666D02*
X54814819Y-51071428D01*
X54814819Y-51071428D02*
X54767200Y-50928571D01*
X54767200Y-50928571D02*
X54671961Y-50833333D01*
X54671961Y-50833333D02*
X54576723Y-50785714D01*
X54576723Y-50785714D02*
X54386247Y-50738095D01*
X54386247Y-50738095D02*
X54243390Y-50738095D01*
X54243390Y-50738095D02*
X54052914Y-50785714D01*
X54052914Y-50785714D02*
X53957676Y-50833333D01*
X53957676Y-50833333D02*
X53862438Y-50928571D01*
X53862438Y-50928571D02*
X53814819Y-51071428D01*
X53814819Y-51071428D02*
X53814819Y-51166666D01*
X53814819Y-51166666D02*
X53862438Y-51309523D01*
X53862438Y-51309523D02*
X53910057Y-51357142D01*
X53910057Y-51738095D02*
X53862438Y-51785714D01*
X53862438Y-51785714D02*
X53814819Y-51880952D01*
X53814819Y-51880952D02*
X53814819Y-52119047D01*
X53814819Y-52119047D02*
X53862438Y-52214285D01*
X53862438Y-52214285D02*
X53910057Y-52261904D01*
X53910057Y-52261904D02*
X54005295Y-52309523D01*
X54005295Y-52309523D02*
X54100533Y-52309523D01*
X54100533Y-52309523D02*
X54243390Y-52261904D01*
X54243390Y-52261904D02*
X54814819Y-51690476D01*
X54814819Y-51690476D02*
X54814819Y-52309523D01*
X53814819Y-53166666D02*
X53814819Y-52976190D01*
X53814819Y-52976190D02*
X53862438Y-52880952D01*
X53862438Y-52880952D02*
X53910057Y-52833333D01*
X53910057Y-52833333D02*
X54052914Y-52738095D01*
X54052914Y-52738095D02*
X54243390Y-52690476D01*
X54243390Y-52690476D02*
X54624342Y-52690476D01*
X54624342Y-52690476D02*
X54719580Y-52738095D01*
X54719580Y-52738095D02*
X54767200Y-52785714D01*
X54767200Y-52785714D02*
X54814819Y-52880952D01*
X54814819Y-52880952D02*
X54814819Y-53071428D01*
X54814819Y-53071428D02*
X54767200Y-53166666D01*
X54767200Y-53166666D02*
X54719580Y-53214285D01*
X54719580Y-53214285D02*
X54624342Y-53261904D01*
X54624342Y-53261904D02*
X54386247Y-53261904D01*
X54386247Y-53261904D02*
X54291009Y-53214285D01*
X54291009Y-53214285D02*
X54243390Y-53166666D01*
X54243390Y-53166666D02*
X54195771Y-53071428D01*
X54195771Y-53071428D02*
X54195771Y-52880952D01*
X54195771Y-52880952D02*
X54243390Y-52785714D01*
X54243390Y-52785714D02*
X54291009Y-52738095D01*
X54291009Y-52738095D02*
X54386247Y-52690476D01*
X46204819Y-49238095D02*
X47014342Y-49238095D01*
X47014342Y-49238095D02*
X47109580Y-49285714D01*
X47109580Y-49285714D02*
X47157200Y-49333333D01*
X47157200Y-49333333D02*
X47204819Y-49428571D01*
X47204819Y-49428571D02*
X47204819Y-49619047D01*
X47204819Y-49619047D02*
X47157200Y-49714285D01*
X47157200Y-49714285D02*
X47109580Y-49761904D01*
X47109580Y-49761904D02*
X47014342Y-49809523D01*
X47014342Y-49809523D02*
X46204819Y-49809523D01*
X46204819Y-50714285D02*
X46204819Y-50523809D01*
X46204819Y-50523809D02*
X46252438Y-50428571D01*
X46252438Y-50428571D02*
X46300057Y-50380952D01*
X46300057Y-50380952D02*
X46442914Y-50285714D01*
X46442914Y-50285714D02*
X46633390Y-50238095D01*
X46633390Y-50238095D02*
X47014342Y-50238095D01*
X47014342Y-50238095D02*
X47109580Y-50285714D01*
X47109580Y-50285714D02*
X47157200Y-50333333D01*
X47157200Y-50333333D02*
X47204819Y-50428571D01*
X47204819Y-50428571D02*
X47204819Y-50619047D01*
X47204819Y-50619047D02*
X47157200Y-50714285D01*
X47157200Y-50714285D02*
X47109580Y-50761904D01*
X47109580Y-50761904D02*
X47014342Y-50809523D01*
X47014342Y-50809523D02*
X46776247Y-50809523D01*
X46776247Y-50809523D02*
X46681009Y-50761904D01*
X46681009Y-50761904D02*
X46633390Y-50714285D01*
X46633390Y-50714285D02*
X46585771Y-50619047D01*
X46585771Y-50619047D02*
X46585771Y-50428571D01*
X46585771Y-50428571D02*
X46633390Y-50333333D01*
X46633390Y-50333333D02*
X46681009Y-50285714D01*
X46681009Y-50285714D02*
X46776247Y-50238095D01*
D11*
%TO.C,C26*%
X52840000Y-51884165D02*
X52840000Y-52115835D01*
X53560000Y-51884165D02*
X53560000Y-52115835D01*
%TO.C,U6*%
X47440000Y-48050000D02*
X47440000Y-50000000D01*
X47440000Y-51950000D02*
X47440000Y-50000000D01*
X52560000Y-48050000D02*
X52560000Y-50000000D01*
X52560000Y-51950000D02*
X52560000Y-50000000D01*
X52795000Y-52940000D02*
X52465000Y-52700000D01*
X52795000Y-52460000D01*
X52795000Y-52940000D01*
G36*
X52795000Y-52940000D02*
G01*
X52465000Y-52700000D01*
X52795000Y-52460000D01*
X52795000Y-52940000D01*
G37*
%TD*%
M02*
