%TF.GenerationSoftware,KiCad,Pcbnew,8.0.8*%
%TF.CreationDate,2025-02-17T00:55:54-08:00*%
%TF.ProjectId,Integrated FOC Stepper Driver,496e7465-6772-4617-9465-6420464f4320,rev?*%
%TF.SameCoordinates,Original*%
%TF.FileFunction,Copper,L6,Bot*%
%TF.FilePolarity,Positive*%
%FSLAX46Y46*%
G04 Gerber Fmt 4.6, Leading zero omitted, Abs format (unit mm)*
G04 Created by KiCad (PCBNEW 8.0.8) date 2025-02-17 00:55:54*
%MOMM*%
%LPD*%
G01*
G04 APERTURE LIST*
G04 Aperture macros list*
%AMRoundRect*
0 Rectangle with rounded corners*
0 $1 Rounding radius*
0 $2 $3 $4 $5 $6 $7 $8 $9 X,Y pos of 4 corners*
0 Add a 4 corners polygon primitive as box body*
4,1,4,$2,$3,$4,$5,$6,$7,$8,$9,$2,$3,0*
0 Add four circle primitives for the rounded corners*
1,1,$1+$1,$2,$3*
1,1,$1+$1,$4,$5*
1,1,$1+$1,$6,$7*
1,1,$1+$1,$8,$9*
0 Add four rect primitives between the rounded corners*
20,1,$1+$1,$2,$3,$4,$5,0*
20,1,$1+$1,$4,$5,$6,$7,0*
20,1,$1+$1,$6,$7,$8,$9,0*
20,1,$1+$1,$8,$9,$2,$3,0*%
G04 Aperture macros list end*
%TA.AperFunction,ComponentPad*%
%ADD10C,5.600000*%
%TD*%
%TA.AperFunction,ComponentPad*%
%ADD11R,1.700000X1.700000*%
%TD*%
%TA.AperFunction,ComponentPad*%
%ADD12O,1.700000X1.700000*%
%TD*%
%TA.AperFunction,ComponentPad*%
%ADD13RoundRect,0.250000X-0.350000X-0.625000X0.350000X-0.625000X0.350000X0.625000X-0.350000X0.625000X0*%
%TD*%
%TA.AperFunction,ComponentPad*%
%ADD14O,1.200000X1.750000*%
%TD*%
%TA.AperFunction,HeatsinkPad*%
%ADD15O,2.100000X1.000000*%
%TD*%
%TA.AperFunction,HeatsinkPad*%
%ADD16O,1.800000X1.000000*%
%TD*%
%TA.AperFunction,ComponentPad*%
%ADD17C,0.600000*%
%TD*%
%TA.AperFunction,SMDPad,CuDef*%
%ADD18R,4.900000X2.950000*%
%TD*%
%TA.AperFunction,SMDPad,CuDef*%
%ADD19RoundRect,0.155000X0.155000X-0.212500X0.155000X0.212500X-0.155000X0.212500X-0.155000X-0.212500X0*%
%TD*%
%TA.AperFunction,SMDPad,CuDef*%
%ADD20RoundRect,0.150000X0.150000X-0.725000X0.150000X0.725000X-0.150000X0.725000X-0.150000X-0.725000X0*%
%TD*%
%TA.AperFunction,ViaPad*%
%ADD21C,0.600000*%
%TD*%
%TA.AperFunction,ViaPad*%
%ADD22C,0.400000*%
%TD*%
%TA.AperFunction,ViaPad*%
%ADD23C,0.800000*%
%TD*%
%TA.AperFunction,Conductor*%
%ADD24C,0.500000*%
%TD*%
%TA.AperFunction,Conductor*%
%ADD25C,0.200000*%
%TD*%
%TA.AperFunction,Conductor*%
%ADD26C,0.150000*%
%TD*%
%TA.AperFunction,Conductor*%
%ADD27C,0.300000*%
%TD*%
G04 APERTURE END LIST*
D10*
%TO.P,H4,1*%
%TO.N,N/C*%
X34500000Y-65500000D03*
%TD*%
%TO.P,H3,1*%
%TO.N,N/C*%
X65500000Y-65500000D03*
%TD*%
D11*
%TO.P,J5,1,Pin_1*%
%TO.N,/CAN_H*%
X53740000Y-60850000D03*
D12*
%TO.P,J5,2,Pin_2*%
%TO.N,Net-(J5-Pin_2)*%
X51200000Y-60850000D03*
%TD*%
D13*
%TO.P,J1,1,Pin_1*%
%TO.N,VBUS*%
X41500000Y-64500000D03*
D14*
%TO.P,J1,2,Pin_2*%
%TO.N,/CAN_H*%
X43500000Y-64500000D03*
%TO.P,J1,3,Pin_3*%
%TO.N,/CAN_L*%
X45500000Y-64500000D03*
%TO.P,J1,4,Pin_4*%
%TO.N,GND*%
X47500000Y-64500000D03*
%TD*%
D10*
%TO.P,H2,1*%
%TO.N,N/C*%
X65500000Y-34500000D03*
%TD*%
%TO.P,H1,1*%
%TO.N,N/C*%
X34500000Y-34500000D03*
%TD*%
D15*
%TO.P,J2,S1,SHIELD*%
%TO.N,GND*%
X36000000Y-52680000D03*
D16*
X31800000Y-52680000D03*
D15*
X36000000Y-61320000D03*
D16*
X31800000Y-61320000D03*
%TD*%
D17*
%TO.P,U7,9,GND*%
%TO.N,GND*%
X57550000Y-35650000D03*
X58850000Y-35650000D03*
X60150000Y-35650000D03*
X61450000Y-35650000D03*
D18*
X59500000Y-35000000D03*
D17*
X57550000Y-34350000D03*
X58850000Y-34350000D03*
X60150000Y-34350000D03*
X61450000Y-34350000D03*
%TD*%
D13*
%TO.P,J3,1,Pin_1*%
%TO.N,VBUS*%
X52500000Y-64500000D03*
D14*
%TO.P,J3,2,Pin_2*%
%TO.N,/CAN_H*%
X54500000Y-64500000D03*
%TO.P,J3,3,Pin_3*%
%TO.N,/CAN_L*%
X56500000Y-64500000D03*
%TO.P,J3,4,Pin_4*%
%TO.N,GND*%
X58500000Y-64500000D03*
%TD*%
D17*
%TO.P,U8,9,GND*%
%TO.N,GND*%
X38550000Y-35650000D03*
X39850000Y-35650000D03*
X41150000Y-35650000D03*
X42450000Y-35650000D03*
D18*
X40500000Y-35000000D03*
D17*
X38550000Y-34350000D03*
X39850000Y-34350000D03*
X41150000Y-34350000D03*
X42450000Y-34350000D03*
%TD*%
D19*
%TO.P,C26,1*%
%TO.N,+3.3V*%
X53200000Y-52567500D03*
%TO.P,C26,2*%
%TO.N,GND*%
X53200000Y-51432500D03*
%TD*%
D20*
%TO.P,U6,1,VDD*%
%TO.N,+3.3V*%
X51905000Y-52575000D03*
%TO.P,U6,2,MODE*%
%TO.N,GND*%
X50635000Y-52575000D03*
%TO.P,U6,3,OUT*%
%TO.N,/MT6701_ANALOG*%
X49365000Y-52575000D03*
%TO.P,U6,4,GND*%
%TO.N,GND*%
X48095000Y-52575000D03*
%TO.P,U6,5,PUSH*%
%TO.N,/MT6701_PUSH*%
X48095000Y-47425000D03*
%TO.P,U6,6,A*%
%TO.N,/SDA*%
X49365000Y-47425000D03*
%TO.P,U6,7,B*%
%TO.N,/SCL*%
X50635000Y-47425000D03*
%TO.P,U6,8,Z*%
%TO.N,+3.3V*%
X51905000Y-47425000D03*
%TD*%
D21*
%TO.N,+3.3V*%
X55475000Y-46750000D03*
D22*
X48451283Y-55248717D03*
D23*
X29950000Y-52100000D03*
X42450000Y-37725000D03*
D22*
X47336971Y-51248815D03*
X55325978Y-48350978D03*
D23*
X49950000Y-54675000D03*
D21*
X66525000Y-46575000D03*
D22*
X43275000Y-47950000D03*
D23*
X30112500Y-50712500D03*
D22*
X51904999Y-52575000D03*
X49126283Y-55923717D03*
D23*
X70100000Y-46275000D03*
D22*
X51551283Y-55098717D03*
X62905000Y-53600000D03*
D21*
X33650000Y-39550000D03*
D22*
X51480259Y-47800908D03*
X52723717Y-45750000D03*
X64467500Y-53600000D03*
X45201283Y-51923717D03*
D21*
X69650000Y-55550000D03*
D22*
X45876283Y-52598717D03*
D23*
X33325000Y-49775000D03*
D22*
X48130136Y-48699999D03*
D23*
X61475000Y-37650000D03*
X32100000Y-50775000D03*
%TO.N,GND*%
X50000000Y-51000000D03*
D21*
X49675000Y-43825000D03*
X55200000Y-55975000D03*
X68875000Y-51700000D03*
X39375000Y-56875000D03*
X66350000Y-60450000D03*
X36975000Y-37975000D03*
X31850000Y-54975000D03*
X56850000Y-44725000D03*
X46600000Y-60450000D03*
D23*
X41637500Y-42000000D03*
D21*
X33600000Y-30250000D03*
X42875000Y-49375000D03*
X50000000Y-63775000D03*
X55200000Y-36075000D03*
X54476283Y-54176283D03*
X36600000Y-69425000D03*
X42575000Y-56100000D03*
X30450000Y-33250000D03*
D23*
X40549999Y-60373289D03*
D21*
X33950000Y-60175000D03*
X58850000Y-55650000D03*
X57025000Y-52200000D03*
X61725000Y-62000000D03*
X68900000Y-50025000D03*
X50075000Y-56925000D03*
X53400000Y-42200000D03*
D23*
X51000000Y-50000000D03*
D21*
X68775000Y-37800000D03*
X67900000Y-58100000D03*
D23*
X39865000Y-32300000D03*
D21*
X38175000Y-49475000D03*
X48678858Y-42848223D03*
X43525000Y-68075000D03*
X66550000Y-29975000D03*
X31850000Y-46775000D03*
X37350000Y-31925000D03*
X60875000Y-49850000D03*
D23*
X49000000Y-50000000D03*
X58865000Y-32300000D03*
D21*
X42900000Y-52875000D03*
D23*
X58362500Y-42000000D03*
X50000000Y-50000000D03*
D21*
%TO.N,+1V1*%
X44683783Y-46501283D03*
X47451485Y-48871562D03*
X44026283Y-47151283D03*
X52157530Y-51207761D03*
D23*
%TO.N,VBUS*%
X63637500Y-42000000D03*
X61405000Y-32300000D03*
X36362500Y-42000000D03*
X42362500Y-29900000D03*
X42309881Y-32750000D03*
%TO.N,/B2*%
X49000000Y-36600000D03*
X38595000Y-32800000D03*
X38595000Y-31800000D03*
%TO.N,/B1*%
X41135000Y-31800000D03*
X47000000Y-36600000D03*
X41135000Y-32800000D03*
%TO.N,/A2*%
X57595000Y-31800000D03*
X53000000Y-36600000D03*
X57595000Y-32800000D03*
%TO.N,/A1*%
X60135000Y-32800000D03*
X51000000Y-36600000D03*
X60135000Y-31800000D03*
D22*
%TO.N,/NEOPIXEL*%
X34247500Y-46075000D03*
D21*
X49980879Y-46342168D03*
D22*
%TO.N,/QSPI_SS*%
X62905000Y-46400000D03*
X57366906Y-48641906D03*
%TO.N,/RUN*%
X69000000Y-48300000D03*
X45700000Y-48300000D03*
%TO.N,/A_CURRENT*%
X47609997Y-54150000D03*
X55272500Y-39575000D03*
%TO.N,/B_CURRENT*%
X48100000Y-54150000D03*
D23*
X38575000Y-37675000D03*
X51827500Y-39575000D03*
%TO.N,+5V*%
X57650000Y-57150000D03*
X33750000Y-58200000D03*
X44125000Y-61925000D03*
D22*
%TO.N,/SCL*%
X50635000Y-47425000D03*
%TO.N,/MT6701_PUSH*%
X49525000Y-45650000D03*
%TO.N,/SDA*%
X52225000Y-49075000D03*
%TO.N,/CAN_TX*%
X60155000Y-56475000D03*
X53370756Y-49768219D03*
D21*
%TO.N,/CAN_S*%
X46400000Y-58075000D03*
D22*
X45325000Y-48725000D03*
%TO.N,/CAN_RX*%
X56345000Y-56475000D03*
X52825000Y-49700000D03*
D21*
%TO.N,/MT6701_ANALOG*%
X49350000Y-53225000D03*
D23*
%TO.N,/VUSB*%
X42100000Y-59925000D03*
D21*
X37447981Y-59344999D03*
X37447982Y-54655001D03*
%TO.N,Net-(D1-DOUT)*%
X69650000Y-60450000D03*
X30325000Y-38850000D03*
D23*
%TO.N,/CAN_L*%
X57615000Y-61425000D03*
%TD*%
D24*
%TO.N,+3.3V*%
X51856167Y-47425000D02*
X51480259Y-47800908D01*
D25*
X51912499Y-52567500D02*
X51904999Y-52575000D01*
X53200000Y-52567500D02*
X51912499Y-52567500D01*
D24*
X51904999Y-47425000D02*
X51856167Y-47425000D01*
D25*
%TO.N,GND*%
X53200000Y-51432500D02*
X54476283Y-52708783D01*
X54476283Y-52708783D02*
X54476283Y-54176283D01*
D26*
%TO.N,/QSPI_SS*%
X57366906Y-48641906D02*
X60663094Y-48641906D01*
X60663094Y-48641906D02*
X62905000Y-46400000D01*
D27*
%TO.N,/MT6701_PUSH*%
X48095001Y-47004999D02*
X49450000Y-45650000D01*
X49450000Y-45650000D02*
X49525000Y-45650000D01*
D26*
%TO.N,/SDA*%
X50000000Y-48625000D02*
X49365000Y-47990000D01*
X52225000Y-49075000D02*
X51775000Y-48625000D01*
X51775000Y-48625000D02*
X50000000Y-48625000D01*
X49365000Y-47990000D02*
X49365000Y-47425000D01*
%TO.N,/CAN_TX*%
X56636400Y-55486400D02*
X57625000Y-56475000D01*
X56636400Y-53357479D02*
X56636400Y-55486400D01*
X53370756Y-49768219D02*
X53370756Y-50091835D01*
X57625000Y-56475000D02*
X60155000Y-56475000D01*
X53370756Y-50091835D02*
X56636400Y-53357479D01*
D25*
%TO.N,/CAN_S*%
X44751283Y-56426283D02*
X44751283Y-49298717D01*
X46400000Y-58075000D02*
X44751283Y-56426283D01*
X44751283Y-49298717D02*
X45325000Y-48725000D01*
D26*
%TO.N,/CAN_RX*%
X52825000Y-49900000D02*
X56345000Y-53420000D01*
X56345000Y-53420000D02*
X56345000Y-56475000D01*
X52825000Y-49700000D02*
X52825000Y-49900000D01*
%TO.N,/MT6701_ANALOG*%
X49365000Y-53210000D02*
X49350000Y-53225000D01*
X49365000Y-52575000D02*
X49365000Y-53210000D01*
D25*
%TO.N,Net-(D1-DOUT)*%
X43446887Y-29650000D02*
X64875000Y-29650000D01*
X69450000Y-32925000D02*
X69450000Y-54575000D01*
X64875000Y-29650000D02*
X66225000Y-31000000D01*
X42356887Y-30740000D02*
X43446887Y-29650000D01*
X70150000Y-59950000D02*
X69650000Y-60450000D01*
X70150000Y-55275000D02*
X70150000Y-59950000D01*
X69450000Y-54575000D02*
X70150000Y-55275000D01*
X67525000Y-31000000D02*
X69450000Y-32925000D01*
X30325000Y-38850000D02*
X30325000Y-34100000D01*
X33685000Y-30740000D02*
X42356887Y-30740000D01*
X30325000Y-34100000D02*
X33685000Y-30740000D01*
X66225000Y-31000000D02*
X67525000Y-31000000D01*
D24*
%TO.N,/CAN_L*%
X56500000Y-64500000D02*
X56500000Y-62540000D01*
X56500000Y-62540000D02*
X57615000Y-61425000D01*
%TD*%
%TA.AperFunction,Conductor*%
%TO.N,GND*%
G36*
X53151013Y-51042840D02*
G01*
X53168495Y-51057375D01*
X53617495Y-51506375D01*
X53650980Y-51567698D01*
X53645996Y-51637390D01*
X53604124Y-51693323D01*
X53538660Y-51717740D01*
X53495221Y-51713133D01*
X53458359Y-51702424D01*
X53458356Y-51702423D01*
X53421210Y-51699500D01*
X53008317Y-51699500D01*
X52941278Y-51679815D01*
X52895523Y-51627011D01*
X52885579Y-51557853D01*
X52891276Y-51534545D01*
X52942896Y-51387023D01*
X52942899Y-51387010D01*
X52963095Y-51207764D01*
X52963095Y-51207759D01*
X52957594Y-51158941D01*
X52969648Y-51090119D01*
X53016997Y-51038739D01*
X53084607Y-51021114D01*
X53151013Y-51042840D01*
G37*
%TD.AperFunction*%
%TA.AperFunction,Conductor*%
G36*
X41578813Y-29220185D02*
G01*
X41624568Y-29272989D01*
X41634512Y-29342147D01*
X41619161Y-29386500D01*
X41535321Y-29531715D01*
X41535318Y-29531722D01*
X41476827Y-29711740D01*
X41476826Y-29711744D01*
X41457040Y-29900000D01*
X41467817Y-30002541D01*
X41455249Y-30071268D01*
X41407517Y-30122292D01*
X41344497Y-30139500D01*
X33771670Y-30139500D01*
X33771654Y-30139499D01*
X33764058Y-30139499D01*
X33605943Y-30139499D01*
X33529579Y-30159961D01*
X33453214Y-30180423D01*
X33453209Y-30180426D01*
X33316290Y-30259475D01*
X33316282Y-30259481D01*
X29844481Y-33731282D01*
X29844479Y-33731285D01*
X29794361Y-33818094D01*
X29794359Y-33818096D01*
X29765425Y-33868209D01*
X29765424Y-33868210D01*
X29765423Y-33868215D01*
X29724499Y-34020943D01*
X29724499Y-34020945D01*
X29724499Y-34189046D01*
X29724500Y-34189059D01*
X29724500Y-38267587D01*
X29704815Y-38334626D01*
X29697450Y-38344896D01*
X29695186Y-38347734D01*
X29599211Y-38500476D01*
X29539631Y-38670745D01*
X29539630Y-38670750D01*
X29519435Y-38849996D01*
X29519435Y-38850003D01*
X29539630Y-39029249D01*
X29539631Y-39029254D01*
X29599211Y-39199523D01*
X29629086Y-39247068D01*
X29695184Y-39352262D01*
X29822738Y-39479816D01*
X29975478Y-39575789D01*
X30145745Y-39635368D01*
X30145750Y-39635369D01*
X30324996Y-39655565D01*
X30325000Y-39655565D01*
X30325004Y-39655565D01*
X30504249Y-39635369D01*
X30504252Y-39635368D01*
X30504255Y-39635368D01*
X30674522Y-39575789D01*
X30715571Y-39549996D01*
X32844435Y-39549996D01*
X32844435Y-39550003D01*
X32864630Y-39729249D01*
X32864631Y-39729254D01*
X32924211Y-39899523D01*
X33014318Y-40042927D01*
X33020184Y-40052262D01*
X33147738Y-40179816D01*
X33300478Y-40275789D01*
X33470745Y-40335368D01*
X33470750Y-40335369D01*
X33649996Y-40355565D01*
X33650000Y-40355565D01*
X33650004Y-40355565D01*
X33829249Y-40335369D01*
X33829252Y-40335368D01*
X33829255Y-40335368D01*
X33999522Y-40275789D01*
X34152262Y-40179816D01*
X34279816Y-40052262D01*
X34375789Y-39899522D01*
X34435368Y-39729255D01*
X34443671Y-39655565D01*
X34452749Y-39575000D01*
X50922040Y-39575000D01*
X50941826Y-39763256D01*
X50941827Y-39763259D01*
X51000318Y-39943277D01*
X51000321Y-39943284D01*
X51094967Y-40107216D01*
X51221629Y-40247888D01*
X51374765Y-40359148D01*
X51374770Y-40359151D01*
X51547692Y-40436142D01*
X51547697Y-40436144D01*
X51732854Y-40475500D01*
X51732855Y-40475500D01*
X51922144Y-40475500D01*
X51922146Y-40475500D01*
X52107303Y-40436144D01*
X52280230Y-40359151D01*
X52433371Y-40247888D01*
X52560033Y-40107216D01*
X52654679Y-39943284D01*
X52713174Y-39763256D01*
X52732960Y-39575000D01*
X54566855Y-39575000D01*
X54587359Y-39743869D01*
X54587360Y-39743874D01*
X54647682Y-39902931D01*
X54709975Y-39993177D01*
X54744317Y-40042929D01*
X54850005Y-40136560D01*
X54871650Y-40155736D01*
X55022273Y-40234789D01*
X55022275Y-40234790D01*
X55187444Y-40275500D01*
X55357556Y-40275500D01*
X55522725Y-40234790D01*
X55627470Y-40179815D01*
X55673349Y-40155736D01*
X55673350Y-40155734D01*
X55673352Y-40155734D01*
X55800683Y-40042929D01*
X55897318Y-39902930D01*
X55957640Y-39743872D01*
X55978145Y-39575000D01*
X55957640Y-39406128D01*
X55897318Y-39247070D01*
X55869463Y-39206716D01*
X55862976Y-39197318D01*
X55800683Y-39107071D01*
X55673352Y-38994266D01*
X55673349Y-38994263D01*
X55522726Y-38915210D01*
X55357556Y-38874500D01*
X55187444Y-38874500D01*
X55022273Y-38915210D01*
X54871650Y-38994263D01*
X54744316Y-39107072D01*
X54647682Y-39247068D01*
X54587360Y-39406125D01*
X54587359Y-39406130D01*
X54566855Y-39575000D01*
X52732960Y-39575000D01*
X52713174Y-39386744D01*
X52654679Y-39206716D01*
X52560033Y-39042784D01*
X52433371Y-38902112D01*
X52433370Y-38902111D01*
X52280234Y-38790851D01*
X52280229Y-38790848D01*
X52107307Y-38713857D01*
X52107302Y-38713855D01*
X51961501Y-38682865D01*
X51922146Y-38674500D01*
X51732854Y-38674500D01*
X51700397Y-38681398D01*
X51547697Y-38713855D01*
X51547692Y-38713857D01*
X51374770Y-38790848D01*
X51374765Y-38790851D01*
X51221629Y-38902111D01*
X51094966Y-39042785D01*
X51000321Y-39206715D01*
X51000318Y-39206722D01*
X50941827Y-39386740D01*
X50941826Y-39386744D01*
X50922040Y-39575000D01*
X34452749Y-39575000D01*
X34455565Y-39550003D01*
X34455565Y-39549996D01*
X34435369Y-39370750D01*
X34435368Y-39370745D01*
X34375789Y-39200478D01*
X34375188Y-39199522D01*
X34279815Y-39047737D01*
X34152262Y-38920184D01*
X33999523Y-38824211D01*
X33829254Y-38764631D01*
X33829249Y-38764630D01*
X33650004Y-38744435D01*
X33649996Y-38744435D01*
X33470750Y-38764630D01*
X33470745Y-38764631D01*
X33300476Y-38824211D01*
X33147737Y-38920184D01*
X33020184Y-39047737D01*
X32924211Y-39200476D01*
X32864631Y-39370745D01*
X32864630Y-39370750D01*
X32844435Y-39549996D01*
X30715571Y-39549996D01*
X30827262Y-39479816D01*
X30954816Y-39352262D01*
X31050789Y-39199522D01*
X31110368Y-39029255D01*
X31110369Y-39029249D01*
X31130565Y-38850003D01*
X31130565Y-38849996D01*
X31110369Y-38670750D01*
X31110368Y-38670745D01*
X31053824Y-38509151D01*
X31050789Y-38500478D01*
X31024821Y-38459151D01*
X30954813Y-38347734D01*
X30952550Y-38344896D01*
X30951659Y-38342715D01*
X30951111Y-38341842D01*
X30951264Y-38341745D01*
X30926144Y-38280209D01*
X30925500Y-38267587D01*
X30925500Y-34400096D01*
X30945185Y-34333057D01*
X30961815Y-34312419D01*
X30989719Y-34284515D01*
X31051041Y-34251031D01*
X31120733Y-34256015D01*
X31176666Y-34297887D01*
X31201083Y-34363351D01*
X31201217Y-34378910D01*
X31194652Y-34499997D01*
X31194652Y-34500002D01*
X31214028Y-34857368D01*
X31214029Y-34857385D01*
X31271926Y-35210539D01*
X31271932Y-35210565D01*
X31367672Y-35555392D01*
X31367674Y-35555399D01*
X31500142Y-35887870D01*
X31500151Y-35887888D01*
X31667784Y-36204077D01*
X31667787Y-36204082D01*
X31667789Y-36204085D01*
X31850529Y-36473607D01*
X31868634Y-36500309D01*
X31868641Y-36500319D01*
X32050549Y-36714477D01*
X32100332Y-36773086D01*
X32360163Y-37019211D01*
X32645081Y-37235800D01*
X32951747Y-37420315D01*
X32951749Y-37420316D01*
X32951751Y-37420317D01*
X32951755Y-37420319D01*
X33276552Y-37570585D01*
X33276565Y-37570591D01*
X33615726Y-37684868D01*
X33965254Y-37761805D01*
X34321052Y-37800500D01*
X34321058Y-37800500D01*
X34678942Y-37800500D01*
X34678948Y-37800500D01*
X35034746Y-37761805D01*
X35384274Y-37684868D01*
X35413561Y-37675000D01*
X37669540Y-37675000D01*
X37689326Y-37863256D01*
X37689327Y-37863259D01*
X37747818Y-38043277D01*
X37747821Y-38043284D01*
X37842467Y-38207216D01*
X37942598Y-38318422D01*
X37969129Y-38347888D01*
X38122265Y-38459148D01*
X38122270Y-38459151D01*
X38295192Y-38536142D01*
X38295197Y-38536144D01*
X38480354Y-38575500D01*
X38480355Y-38575500D01*
X38669644Y-38575500D01*
X38669646Y-38575500D01*
X38854803Y-38536144D01*
X39027730Y-38459151D01*
X39180871Y-38347888D01*
X39307533Y-38207216D01*
X39402179Y-38043284D01*
X39460674Y-37863256D01*
X39475205Y-37725000D01*
X41544540Y-37725000D01*
X41564326Y-37913256D01*
X41564327Y-37913259D01*
X41622818Y-38093277D01*
X41622821Y-38093284D01*
X41717467Y-38257216D01*
X41793665Y-38341842D01*
X41844129Y-38397888D01*
X41997265Y-38509148D01*
X41997270Y-38509151D01*
X42170192Y-38586142D01*
X42170197Y-38586144D01*
X42355354Y-38625500D01*
X42355355Y-38625500D01*
X42544644Y-38625500D01*
X42544646Y-38625500D01*
X42729803Y-38586144D01*
X42902730Y-38509151D01*
X43055871Y-38397888D01*
X43182533Y-38257216D01*
X43277179Y-38093284D01*
X43335674Y-37913256D01*
X43355460Y-37725000D01*
X43347577Y-37650000D01*
X60569540Y-37650000D01*
X60589326Y-37838256D01*
X60589327Y-37838259D01*
X60647818Y-38018277D01*
X60647821Y-38018284D01*
X60742467Y-38182216D01*
X60819336Y-38267587D01*
X60869129Y-38322888D01*
X61022265Y-38434148D01*
X61022270Y-38434151D01*
X61195192Y-38511142D01*
X61195197Y-38511144D01*
X61380354Y-38550500D01*
X61380355Y-38550500D01*
X61569644Y-38550500D01*
X61569646Y-38550500D01*
X61754803Y-38511144D01*
X61927730Y-38434151D01*
X62080871Y-38322888D01*
X62207533Y-38182216D01*
X62302179Y-38018284D01*
X62360674Y-37838256D01*
X62380460Y-37650000D01*
X62360674Y-37461744D01*
X62302179Y-37281716D01*
X62207533Y-37117784D01*
X62080871Y-36977112D01*
X62080870Y-36977111D01*
X61927734Y-36865851D01*
X61927729Y-36865848D01*
X61754807Y-36788857D01*
X61754802Y-36788855D01*
X61609001Y-36757865D01*
X61569646Y-36749500D01*
X61380354Y-36749500D01*
X61347897Y-36756398D01*
X61195197Y-36788855D01*
X61195192Y-36788857D01*
X61022270Y-36865848D01*
X61022265Y-36865851D01*
X60869129Y-36977111D01*
X60742466Y-37117785D01*
X60647821Y-37281715D01*
X60647818Y-37281722D01*
X60589521Y-37461144D01*
X60589326Y-37461744D01*
X60569540Y-37650000D01*
X43347577Y-37650000D01*
X43335674Y-37536744D01*
X43277179Y-37356716D01*
X43182533Y-37192784D01*
X43055871Y-37052112D01*
X43055870Y-37052111D01*
X42902734Y-36940851D01*
X42902729Y-36940848D01*
X42729807Y-36863857D01*
X42729802Y-36863855D01*
X42584001Y-36832865D01*
X42544646Y-36824500D01*
X42355354Y-36824500D01*
X42322897Y-36831398D01*
X42170197Y-36863855D01*
X42170192Y-36863857D01*
X41997270Y-36940848D01*
X41997265Y-36940851D01*
X41844129Y-37052111D01*
X41717466Y-37192785D01*
X41622821Y-37356715D01*
X41622818Y-37356722D01*
X41588696Y-37461740D01*
X41564326Y-37536744D01*
X41544540Y-37725000D01*
X39475205Y-37725000D01*
X39480460Y-37675000D01*
X39460674Y-37486744D01*
X39402179Y-37306716D01*
X39307533Y-37142784D01*
X39180871Y-37002112D01*
X39180870Y-37002111D01*
X39027734Y-36890851D01*
X39027729Y-36890848D01*
X38854807Y-36813857D01*
X38854802Y-36813855D01*
X38709001Y-36782865D01*
X38669646Y-36774500D01*
X38480354Y-36774500D01*
X38447897Y-36781398D01*
X38295197Y-36813855D01*
X38295192Y-36813857D01*
X38122270Y-36890848D01*
X38122265Y-36890851D01*
X37969129Y-37002111D01*
X37842466Y-37142785D01*
X37747821Y-37306715D01*
X37747818Y-37306722D01*
X37697644Y-37461144D01*
X37689326Y-37486744D01*
X37669540Y-37675000D01*
X35413561Y-37675000D01*
X35723435Y-37570591D01*
X36048253Y-37420315D01*
X36354919Y-37235800D01*
X36639837Y-37019211D01*
X36899668Y-36773086D01*
X37046688Y-36600000D01*
X46094540Y-36600000D01*
X46114326Y-36788256D01*
X46114327Y-36788259D01*
X46172818Y-36968277D01*
X46172821Y-36968284D01*
X46267467Y-37132216D01*
X46322003Y-37192784D01*
X46394129Y-37272888D01*
X46547265Y-37384148D01*
X46547270Y-37384151D01*
X46720192Y-37461142D01*
X46720197Y-37461144D01*
X46905354Y-37500500D01*
X46905355Y-37500500D01*
X47094644Y-37500500D01*
X47094646Y-37500500D01*
X47279803Y-37461144D01*
X47452730Y-37384151D01*
X47605871Y-37272888D01*
X47732533Y-37132216D01*
X47827179Y-36968284D01*
X47882069Y-36799351D01*
X47921506Y-36741675D01*
X47985865Y-36714477D01*
X48054711Y-36726392D01*
X48106187Y-36773636D01*
X48117931Y-36799351D01*
X48172818Y-36968277D01*
X48172821Y-36968284D01*
X48267467Y-37132216D01*
X48322003Y-37192784D01*
X48394129Y-37272888D01*
X48547265Y-37384148D01*
X48547270Y-37384151D01*
X48720192Y-37461142D01*
X48720197Y-37461144D01*
X48905354Y-37500500D01*
X48905355Y-37500500D01*
X49094644Y-37500500D01*
X49094646Y-37500500D01*
X49279803Y-37461144D01*
X49452730Y-37384151D01*
X49605871Y-37272888D01*
X49732533Y-37132216D01*
X49827179Y-36968284D01*
X49882069Y-36799351D01*
X49921506Y-36741675D01*
X49985865Y-36714477D01*
X50054711Y-36726392D01*
X50106187Y-36773636D01*
X50117931Y-36799351D01*
X50172818Y-36968277D01*
X50172821Y-36968284D01*
X50267467Y-37132216D01*
X50322003Y-37192784D01*
X50394129Y-37272888D01*
X50547265Y-37384148D01*
X50547270Y-37384151D01*
X50720192Y-37461142D01*
X50720197Y-37461144D01*
X50905354Y-37500500D01*
X50905355Y-37500500D01*
X51094644Y-37500500D01*
X51094646Y-37500500D01*
X51279803Y-37461144D01*
X51452730Y-37384151D01*
X51605871Y-37272888D01*
X51732533Y-37132216D01*
X51827179Y-36968284D01*
X51882069Y-36799351D01*
X51921506Y-36741675D01*
X51985865Y-36714477D01*
X52054711Y-36726392D01*
X52106187Y-36773636D01*
X52117931Y-36799351D01*
X52172818Y-36968277D01*
X52172821Y-36968284D01*
X52267467Y-37132216D01*
X52322003Y-37192784D01*
X52394129Y-37272888D01*
X52547265Y-37384148D01*
X52547270Y-37384151D01*
X52720192Y-37461142D01*
X52720197Y-37461144D01*
X52905354Y-37500500D01*
X52905355Y-37500500D01*
X53094644Y-37500500D01*
X53094646Y-37500500D01*
X53279803Y-37461144D01*
X53452730Y-37384151D01*
X53605871Y-37272888D01*
X53732533Y-37132216D01*
X53827179Y-36968284D01*
X53885674Y-36788256D01*
X53905460Y-36600000D01*
X53885674Y-36411744D01*
X53827179Y-36231716D01*
X53732533Y-36067784D01*
X53605871Y-35927112D01*
X53551859Y-35887870D01*
X53452734Y-35815851D01*
X53452729Y-35815848D01*
X53279807Y-35738857D01*
X53279802Y-35738855D01*
X53134001Y-35707865D01*
X53094646Y-35699500D01*
X52905354Y-35699500D01*
X52872897Y-35706398D01*
X52720197Y-35738855D01*
X52720192Y-35738857D01*
X52547270Y-35815848D01*
X52547265Y-35815851D01*
X52394129Y-35927111D01*
X52267466Y-36067785D01*
X52172821Y-36231715D01*
X52172818Y-36231722D01*
X52117931Y-36400648D01*
X52078493Y-36458324D01*
X52014135Y-36485522D01*
X51945288Y-36473607D01*
X51893813Y-36426363D01*
X51882069Y-36400648D01*
X51827181Y-36231722D01*
X51827180Y-36231721D01*
X51827179Y-36231716D01*
X51732533Y-36067784D01*
X51605871Y-35927112D01*
X51551859Y-35887870D01*
X51452734Y-35815851D01*
X51452729Y-35815848D01*
X51279807Y-35738857D01*
X51279802Y-35738855D01*
X51134001Y-35707865D01*
X51094646Y-35699500D01*
X50905354Y-35699500D01*
X50872897Y-35706398D01*
X50720197Y-35738855D01*
X50720192Y-35738857D01*
X50547270Y-35815848D01*
X50547265Y-35815851D01*
X50394129Y-35927111D01*
X50267466Y-36067785D01*
X50172821Y-36231715D01*
X50172818Y-36231722D01*
X50117931Y-36400648D01*
X50078493Y-36458324D01*
X50014135Y-36485522D01*
X49945288Y-36473607D01*
X49893813Y-36426363D01*
X49882069Y-36400648D01*
X49827181Y-36231722D01*
X49827180Y-36231721D01*
X49827179Y-36231716D01*
X49732533Y-36067784D01*
X49605871Y-35927112D01*
X49551859Y-35887870D01*
X49452734Y-35815851D01*
X49452729Y-35815848D01*
X49279807Y-35738857D01*
X49279802Y-35738855D01*
X49134001Y-35707865D01*
X49094646Y-35699500D01*
X48905354Y-35699500D01*
X48872897Y-35706398D01*
X48720197Y-35738855D01*
X48720192Y-35738857D01*
X48547270Y-35815848D01*
X48547265Y-35815851D01*
X48394129Y-35927111D01*
X48267466Y-36067785D01*
X48172821Y-36231715D01*
X48172818Y-36231722D01*
X48117931Y-36400648D01*
X48078493Y-36458324D01*
X48014135Y-36485522D01*
X47945288Y-36473607D01*
X47893813Y-36426363D01*
X47882069Y-36400648D01*
X47827181Y-36231722D01*
X47827180Y-36231721D01*
X47827179Y-36231716D01*
X47732533Y-36067784D01*
X47605871Y-35927112D01*
X47551859Y-35887870D01*
X47452734Y-35815851D01*
X47452729Y-35815848D01*
X47279807Y-35738857D01*
X47279802Y-35738855D01*
X47134001Y-35707865D01*
X47094646Y-35699500D01*
X46905354Y-35699500D01*
X46872897Y-35706398D01*
X46720197Y-35738855D01*
X46720192Y-35738857D01*
X46547270Y-35815848D01*
X46547265Y-35815851D01*
X46394129Y-35927111D01*
X46267466Y-36067785D01*
X46172821Y-36231715D01*
X46172818Y-36231722D01*
X46117931Y-36400648D01*
X46114326Y-36411744D01*
X46094540Y-36600000D01*
X37046688Y-36600000D01*
X37131365Y-36500311D01*
X37332211Y-36204085D01*
X37499853Y-35887880D01*
X37632324Y-35555403D01*
X37728071Y-35210552D01*
X37785972Y-34857371D01*
X37805348Y-34500000D01*
X37785972Y-34142629D01*
X37728071Y-33789448D01*
X37671070Y-33584148D01*
X37632327Y-33444607D01*
X37632325Y-33444600D01*
X37609716Y-33387855D01*
X37603189Y-33318291D01*
X37635307Y-33256241D01*
X37695873Y-33221405D01*
X37765658Y-33224845D01*
X37822505Y-33265467D01*
X37832293Y-33279953D01*
X37862466Y-33332214D01*
X37862467Y-33332216D01*
X37989129Y-33472888D01*
X38142265Y-33584148D01*
X38142270Y-33584151D01*
X38315192Y-33661142D01*
X38315197Y-33661144D01*
X38500354Y-33700500D01*
X38500355Y-33700500D01*
X38689644Y-33700500D01*
X38689646Y-33700500D01*
X38874803Y-33661144D01*
X39047730Y-33584151D01*
X39200871Y-33472888D01*
X39327533Y-33332216D01*
X39422179Y-33168284D01*
X39480674Y-32988256D01*
X39500460Y-32800000D01*
X39480674Y-32611744D01*
X39422179Y-32431716D01*
X39381927Y-32361999D01*
X39365454Y-32294101D01*
X39381927Y-32238001D01*
X39422179Y-32168284D01*
X39480674Y-31988256D01*
X39500460Y-31800000D01*
X39480674Y-31611744D01*
X39454447Y-31531025D01*
X39445282Y-31502818D01*
X39443287Y-31432977D01*
X39479367Y-31373144D01*
X39542068Y-31342316D01*
X39563213Y-31340500D01*
X40166787Y-31340500D01*
X40233826Y-31360185D01*
X40279581Y-31412989D01*
X40289525Y-31482147D01*
X40284718Y-31502818D01*
X40252979Y-31600500D01*
X40249326Y-31611744D01*
X40229540Y-31800000D01*
X40249326Y-31988256D01*
X40249327Y-31988259D01*
X40307818Y-32168277D01*
X40307820Y-32168281D01*
X40307821Y-32168284D01*
X40341671Y-32226914D01*
X40348072Y-32238001D01*
X40364543Y-32305901D01*
X40348072Y-32361998D01*
X40309762Y-32428355D01*
X40307820Y-32431718D01*
X40307818Y-32431722D01*
X40267346Y-32556284D01*
X40249326Y-32611744D01*
X40229540Y-32800000D01*
X40249326Y-32988256D01*
X40249327Y-32988259D01*
X40307818Y-33168277D01*
X40307821Y-33168284D01*
X40402467Y-33332216D01*
X40452565Y-33387855D01*
X40529129Y-33472888D01*
X40682265Y-33584148D01*
X40682270Y-33584151D01*
X40855192Y-33661142D01*
X40855197Y-33661144D01*
X41040354Y-33700500D01*
X41040355Y-33700500D01*
X41229644Y-33700500D01*
X41229646Y-33700500D01*
X41414803Y-33661144D01*
X41587730Y-33584151D01*
X41683967Y-33514230D01*
X41749770Y-33490752D01*
X41817824Y-33506577D01*
X41829729Y-33514228D01*
X41857147Y-33534148D01*
X41857150Y-33534150D01*
X41857151Y-33534151D01*
X42030073Y-33611142D01*
X42030078Y-33611144D01*
X42215235Y-33650500D01*
X42215236Y-33650500D01*
X42404525Y-33650500D01*
X42404527Y-33650500D01*
X42589684Y-33611144D01*
X42762611Y-33534151D01*
X42915752Y-33422888D01*
X43042414Y-33282216D01*
X43137060Y-33118284D01*
X43195555Y-32938256D01*
X43215341Y-32750000D01*
X43195555Y-32561744D01*
X43137060Y-32381716D01*
X43042414Y-32217784D01*
X42915752Y-32077112D01*
X42915751Y-32077111D01*
X42762615Y-31965851D01*
X42762610Y-31965848D01*
X42589688Y-31888857D01*
X42589683Y-31888855D01*
X42435691Y-31856124D01*
X42404527Y-31849500D01*
X42215235Y-31849500D01*
X42184071Y-31856123D01*
X42114405Y-31850806D01*
X42058672Y-31808668D01*
X42055297Y-31800000D01*
X56689540Y-31800000D01*
X56709326Y-31988256D01*
X56709327Y-31988259D01*
X56767818Y-32168277D01*
X56767820Y-32168281D01*
X56767821Y-32168284D01*
X56801671Y-32226914D01*
X56808072Y-32238001D01*
X56824543Y-32305901D01*
X56808072Y-32361998D01*
X56769762Y-32428355D01*
X56767820Y-32431718D01*
X56767818Y-32431722D01*
X56727346Y-32556284D01*
X56709326Y-32611744D01*
X56689540Y-32800000D01*
X56709326Y-32988256D01*
X56709327Y-32988259D01*
X56767818Y-33168277D01*
X56767821Y-33168284D01*
X56862467Y-33332216D01*
X56912565Y-33387855D01*
X56989129Y-33472888D01*
X57142265Y-33584148D01*
X57142270Y-33584151D01*
X57315192Y-33661142D01*
X57315197Y-33661144D01*
X57500354Y-33700500D01*
X57500355Y-33700500D01*
X57689644Y-33700500D01*
X57689646Y-33700500D01*
X57874803Y-33661144D01*
X58047730Y-33584151D01*
X58200871Y-33472888D01*
X58327533Y-33332216D01*
X58422179Y-33168284D01*
X58480674Y-32988256D01*
X58500460Y-32800000D01*
X58480674Y-32611744D01*
X58422179Y-32431716D01*
X58381927Y-32361999D01*
X58365454Y-32294101D01*
X58381927Y-32238001D01*
X58422179Y-32168284D01*
X58480674Y-31988256D01*
X58500460Y-31800000D01*
X59229540Y-31800000D01*
X59249326Y-31988256D01*
X59249327Y-31988259D01*
X59307818Y-32168277D01*
X59307820Y-32168281D01*
X59307821Y-32168284D01*
X59341671Y-32226914D01*
X59348072Y-32238001D01*
X59364543Y-32305901D01*
X59348072Y-32361998D01*
X59309762Y-32428355D01*
X59307820Y-32431718D01*
X59307818Y-32431722D01*
X59267346Y-32556284D01*
X59249326Y-32611744D01*
X59229540Y-32800000D01*
X59249326Y-32988256D01*
X59249327Y-32988259D01*
X59307818Y-33168277D01*
X59307821Y-33168284D01*
X59402467Y-33332216D01*
X59452565Y-33387855D01*
X59529129Y-33472888D01*
X59682265Y-33584148D01*
X59682270Y-33584151D01*
X59855192Y-33661142D01*
X59855197Y-33661144D01*
X60040354Y-33700500D01*
X60040355Y-33700500D01*
X60229644Y-33700500D01*
X60229646Y-33700500D01*
X60414803Y-33661144D01*
X60587730Y-33584151D01*
X60740871Y-33472888D01*
X60867533Y-33332216D01*
X60942969Y-33201557D01*
X60993536Y-33153342D01*
X61062143Y-33140118D01*
X61100794Y-33150279D01*
X61125197Y-33161144D01*
X61310354Y-33200500D01*
X61310355Y-33200500D01*
X61499644Y-33200500D01*
X61499646Y-33200500D01*
X61684803Y-33161144D01*
X61857730Y-33084151D01*
X62010871Y-32972888D01*
X62137533Y-32832216D01*
X62232179Y-32668284D01*
X62290674Y-32488256D01*
X62310460Y-32300000D01*
X62290674Y-32111744D01*
X62232179Y-31931716D01*
X62137533Y-31767784D01*
X62010871Y-31627112D01*
X61989719Y-31611744D01*
X61857734Y-31515851D01*
X61857729Y-31515848D01*
X61684807Y-31438857D01*
X61684802Y-31438855D01*
X61539001Y-31407865D01*
X61499646Y-31399500D01*
X61310354Y-31399500D01*
X61270999Y-31407865D01*
X61125198Y-31438855D01*
X61125193Y-31438857D01*
X61100787Y-31449723D01*
X61031537Y-31459006D01*
X60968261Y-31429375D01*
X60942968Y-31398442D01*
X60867533Y-31267784D01*
X60740871Y-31127112D01*
X60715547Y-31108713D01*
X60587734Y-31015851D01*
X60587729Y-31015848D01*
X60414807Y-30938857D01*
X60414802Y-30938855D01*
X60269001Y-30907865D01*
X60229646Y-30899500D01*
X60040354Y-30899500D01*
X60007897Y-30906398D01*
X59855197Y-30938855D01*
X59855192Y-30938857D01*
X59682270Y-31015848D01*
X59682265Y-31015851D01*
X59529129Y-31127111D01*
X59402466Y-31267785D01*
X59307821Y-31431715D01*
X59307818Y-31431722D01*
X59252979Y-31600500D01*
X59249326Y-31611744D01*
X59229540Y-31800000D01*
X58500460Y-31800000D01*
X58480674Y-31611744D01*
X58422179Y-31431716D01*
X58327533Y-31267784D01*
X58200871Y-31127112D01*
X58175547Y-31108713D01*
X58047734Y-31015851D01*
X58047729Y-31015848D01*
X57874807Y-30938857D01*
X57874802Y-30938855D01*
X57729001Y-30907865D01*
X57689646Y-30899500D01*
X57500354Y-30899500D01*
X57467897Y-30906398D01*
X57315197Y-30938855D01*
X57315192Y-30938857D01*
X57142270Y-31015848D01*
X57142265Y-31015851D01*
X56989129Y-31127111D01*
X56862466Y-31267785D01*
X56767821Y-31431715D01*
X56767818Y-31431722D01*
X56712979Y-31600500D01*
X56709326Y-31611744D01*
X56689540Y-31800000D01*
X42055297Y-31800000D01*
X42034973Y-31747797D01*
X42020674Y-31611744D01*
X41994447Y-31531025D01*
X41985282Y-31502818D01*
X41983287Y-31432977D01*
X42019367Y-31373144D01*
X42082068Y-31342316D01*
X42103213Y-31340500D01*
X42270218Y-31340500D01*
X42270234Y-31340501D01*
X42277830Y-31340501D01*
X42435941Y-31340501D01*
X42435944Y-31340501D01*
X42588672Y-31299577D01*
X42638791Y-31270639D01*
X42725603Y-31220520D01*
X42837407Y-31108716D01*
X42837407Y-31108714D01*
X42847615Y-31098507D01*
X42847616Y-31098504D01*
X43659304Y-30286819D01*
X43720627Y-30253334D01*
X43746985Y-30250500D01*
X64574903Y-30250500D01*
X64641942Y-30270185D01*
X64662584Y-30286819D01*
X65367353Y-30991588D01*
X65400838Y-31052911D01*
X65395854Y-31122603D01*
X65353982Y-31178536D01*
X65293079Y-31202542D01*
X64965255Y-31238194D01*
X64615726Y-31315131D01*
X64368471Y-31398442D01*
X64276565Y-31429409D01*
X64276563Y-31429410D01*
X64276552Y-31429414D01*
X63951755Y-31579680D01*
X63951751Y-31579682D01*
X63723367Y-31717096D01*
X63645081Y-31764200D01*
X63556768Y-31831333D01*
X63360172Y-31980781D01*
X63360163Y-31980789D01*
X63100331Y-32226914D01*
X62868641Y-32499680D01*
X62868634Y-32499690D01*
X62667790Y-32795913D01*
X62667784Y-32795922D01*
X62500151Y-33112111D01*
X62500142Y-33112129D01*
X62367674Y-33444600D01*
X62367672Y-33444607D01*
X62271932Y-33789434D01*
X62271926Y-33789460D01*
X62214029Y-34142614D01*
X62214028Y-34142631D01*
X62194652Y-34499997D01*
X62194652Y-34500002D01*
X62214028Y-34857368D01*
X62214029Y-34857385D01*
X62271926Y-35210539D01*
X62271932Y-35210565D01*
X62367672Y-35555392D01*
X62367674Y-35555399D01*
X62500142Y-35887870D01*
X62500151Y-35887888D01*
X62667784Y-36204077D01*
X62667787Y-36204082D01*
X62667789Y-36204085D01*
X62850529Y-36473607D01*
X62868634Y-36500309D01*
X62868641Y-36500319D01*
X63050549Y-36714477D01*
X63100332Y-36773086D01*
X63360163Y-37019211D01*
X63645081Y-37235800D01*
X63951747Y-37420315D01*
X63951749Y-37420316D01*
X63951751Y-37420317D01*
X63951755Y-37420319D01*
X64276552Y-37570585D01*
X64276565Y-37570591D01*
X64615726Y-37684868D01*
X64965254Y-37761805D01*
X65321052Y-37800500D01*
X65321058Y-37800500D01*
X65678942Y-37800500D01*
X65678948Y-37800500D01*
X66034746Y-37761805D01*
X66384274Y-37684868D01*
X66723435Y-37570591D01*
X67048253Y-37420315D01*
X67354919Y-37235800D01*
X67639837Y-37019211D01*
X67899668Y-36773086D01*
X68131365Y-36500311D01*
X68332211Y-36204085D01*
X68499853Y-35887880D01*
X68610307Y-35610660D01*
X68653407Y-35555669D01*
X68719396Y-35532708D01*
X68787323Y-35549069D01*
X68835622Y-35599557D01*
X68849500Y-35656558D01*
X68849500Y-47518481D01*
X68829815Y-47585520D01*
X68777011Y-47631275D01*
X68755183Y-47638876D01*
X68749776Y-47640208D01*
X68749774Y-47640209D01*
X68599150Y-47719263D01*
X68471816Y-47832072D01*
X68375182Y-47972068D01*
X68314860Y-48131125D01*
X68314859Y-48131130D01*
X68294355Y-48300000D01*
X68314859Y-48468869D01*
X68314860Y-48468874D01*
X68375182Y-48627931D01*
X68419622Y-48692312D01*
X68471817Y-48767929D01*
X68599148Y-48880734D01*
X68749775Y-48959790D01*
X68755171Y-48961120D01*
X68815550Y-48996271D01*
X68847343Y-49058488D01*
X68849500Y-49081517D01*
X68849500Y-54488330D01*
X68849499Y-54488348D01*
X68849499Y-54654054D01*
X68849498Y-54654054D01*
X68890424Y-54806789D01*
X68890425Y-54806790D01*
X68915661Y-54850499D01*
X68915662Y-54850501D01*
X68969475Y-54943709D01*
X68969481Y-54943717D01*
X68970834Y-54945070D01*
X68971610Y-54946491D01*
X68974426Y-54950161D01*
X68973853Y-54950600D01*
X69004319Y-55006393D01*
X68999335Y-55076085D01*
X68988147Y-55098723D01*
X68924211Y-55200476D01*
X68864631Y-55370745D01*
X68864630Y-55370750D01*
X68844435Y-55549996D01*
X68844435Y-55550003D01*
X68864630Y-55729249D01*
X68864631Y-55729254D01*
X68924211Y-55899523D01*
X68991789Y-56007072D01*
X69020184Y-56052262D01*
X69147738Y-56179816D01*
X69300478Y-56275789D01*
X69466455Y-56333867D01*
X69523230Y-56374588D01*
X69548978Y-56439540D01*
X69549500Y-56450908D01*
X69549500Y-59549092D01*
X69529815Y-59616131D01*
X69477011Y-59661886D01*
X69466463Y-59666130D01*
X69410093Y-59685854D01*
X69300478Y-59724210D01*
X69147737Y-59820184D01*
X69020184Y-59947737D01*
X68924211Y-60100476D01*
X68864631Y-60270745D01*
X68864630Y-60270750D01*
X68844435Y-60449996D01*
X68844435Y-60450003D01*
X68864630Y-60629249D01*
X68864631Y-60629254D01*
X68924211Y-60799523D01*
X68955928Y-60850000D01*
X69020184Y-60952262D01*
X69147738Y-61079816D01*
X69300478Y-61175789D01*
X69446948Y-61227041D01*
X69470745Y-61235368D01*
X69470750Y-61235369D01*
X69649996Y-61255565D01*
X69650000Y-61255565D01*
X69650004Y-61255565D01*
X69829249Y-61235369D01*
X69829252Y-61235368D01*
X69829255Y-61235368D01*
X69999522Y-61175789D01*
X70152262Y-61079816D01*
X70279816Y-60952262D01*
X70375789Y-60799522D01*
X70435368Y-60629255D01*
X70445161Y-60542330D01*
X70472226Y-60477920D01*
X70480700Y-60468534D01*
X70492020Y-60457214D01*
X70587820Y-60361415D01*
X70649142Y-60327932D01*
X70718834Y-60332916D01*
X70774767Y-60374788D01*
X70799184Y-60440253D01*
X70799500Y-60449098D01*
X70799500Y-66865588D01*
X70779815Y-66932627D01*
X70763181Y-66953269D01*
X66953269Y-70763181D01*
X66891946Y-70796666D01*
X66865588Y-70799500D01*
X33134412Y-70799500D01*
X33067373Y-70779815D01*
X33046731Y-70763181D01*
X29236819Y-66953269D01*
X29203334Y-66891946D01*
X29200500Y-66865588D01*
X29200500Y-65499997D01*
X31194652Y-65499997D01*
X31194652Y-65500002D01*
X31196249Y-65529457D01*
X31211449Y-65809812D01*
X31214028Y-65857368D01*
X31214029Y-65857385D01*
X31271926Y-66210539D01*
X31271932Y-66210565D01*
X31367672Y-66555392D01*
X31367674Y-66555399D01*
X31500142Y-66887870D01*
X31500151Y-66887888D01*
X31667784Y-67204077D01*
X31667790Y-67204086D01*
X31868634Y-67500309D01*
X31868641Y-67500319D01*
X32100331Y-67773085D01*
X32100332Y-67773086D01*
X32360163Y-68019211D01*
X32645081Y-68235800D01*
X32951747Y-68420315D01*
X32951749Y-68420316D01*
X32951751Y-68420317D01*
X32951755Y-68420319D01*
X33276552Y-68570585D01*
X33276565Y-68570591D01*
X33615726Y-68684868D01*
X33965254Y-68761805D01*
X34321052Y-68800500D01*
X34321058Y-68800500D01*
X34678942Y-68800500D01*
X34678948Y-68800500D01*
X35034746Y-68761805D01*
X35384274Y-68684868D01*
X35723435Y-68570591D01*
X36048253Y-68420315D01*
X36354919Y-68235800D01*
X36639837Y-68019211D01*
X36899668Y-67773086D01*
X37131365Y-67500311D01*
X37332211Y-67204085D01*
X37499853Y-66887880D01*
X37632324Y-66555403D01*
X37728071Y-66210552D01*
X37783000Y-65875499D01*
X37785970Y-65857385D01*
X37785970Y-65857382D01*
X37785972Y-65857371D01*
X37805348Y-65500000D01*
X37804910Y-65491930D01*
X37799543Y-65392938D01*
X37785972Y-65142629D01*
X37767950Y-65032701D01*
X37728073Y-64789460D01*
X37728072Y-64789459D01*
X37728071Y-64789448D01*
X37632324Y-64444597D01*
X37499853Y-64112120D01*
X37347622Y-63824983D01*
X40399500Y-63824983D01*
X40399500Y-65175001D01*
X40399501Y-65175018D01*
X40410000Y-65277796D01*
X40410001Y-65277799D01*
X40465185Y-65444331D01*
X40465187Y-65444336D01*
X40488870Y-65482732D01*
X40557288Y-65593656D01*
X40681344Y-65717712D01*
X40830666Y-65809814D01*
X40997203Y-65864999D01*
X41099991Y-65875500D01*
X41900008Y-65875499D01*
X41900016Y-65875498D01*
X41900019Y-65875498D01*
X41956302Y-65869748D01*
X42002797Y-65864999D01*
X42169334Y-65809814D01*
X42318656Y-65717712D01*
X42442712Y-65593656D01*
X42482310Y-65529456D01*
X42534258Y-65482732D01*
X42603220Y-65471509D01*
X42667303Y-65499352D01*
X42675530Y-65506872D01*
X42783072Y-65614414D01*
X42923212Y-65716232D01*
X43077555Y-65794873D01*
X43242299Y-65848402D01*
X43413389Y-65875500D01*
X43413390Y-65875500D01*
X43586610Y-65875500D01*
X43586611Y-65875500D01*
X43757701Y-65848402D01*
X43922445Y-65794873D01*
X44076788Y-65716232D01*
X44216928Y-65614414D01*
X44339414Y-65491928D01*
X44399682Y-65408975D01*
X44455012Y-65366311D01*
X44524626Y-65360332D01*
X44586421Y-65392938D01*
X44600315Y-65408973D01*
X44660586Y-65491928D01*
X44783072Y-65614414D01*
X44923212Y-65716232D01*
X45077555Y-65794873D01*
X45242299Y-65848402D01*
X45413389Y-65875500D01*
X45413390Y-65875500D01*
X45586610Y-65875500D01*
X45586611Y-65875500D01*
X45757701Y-65848402D01*
X45922445Y-65794873D01*
X46076788Y-65716232D01*
X46216928Y-65614414D01*
X46339414Y-65491928D01*
X46441232Y-65351788D01*
X46519873Y-65197445D01*
X46573402Y-65032701D01*
X46600500Y-64861611D01*
X46600500Y-64138389D01*
X46573402Y-63967299D01*
X46527160Y-63824983D01*
X51399500Y-63824983D01*
X51399500Y-65175001D01*
X51399501Y-65175018D01*
X51410000Y-65277796D01*
X51410001Y-65277799D01*
X51465185Y-65444331D01*
X51465187Y-65444336D01*
X51488870Y-65482732D01*
X51557288Y-65593656D01*
X51681344Y-65717712D01*
X51830666Y-65809814D01*
X51997203Y-65864999D01*
X52099991Y-65875500D01*
X52900008Y-65875499D01*
X52900016Y-65875498D01*
X52900019Y-65875498D01*
X52956302Y-65869748D01*
X53002797Y-65864999D01*
X53169334Y-65809814D01*
X53318656Y-65717712D01*
X53442712Y-65593656D01*
X53482310Y-65529456D01*
X53534258Y-65482732D01*
X53603220Y-65471509D01*
X53667303Y-65499352D01*
X53675530Y-65506872D01*
X53783072Y-65614414D01*
X53923212Y-65716232D01*
X54077555Y-65794873D01*
X54242299Y-65848402D01*
X54413389Y-65875500D01*
X54413390Y-65875500D01*
X54586610Y-65875500D01*
X54586611Y-65875500D01*
X54757701Y-65848402D01*
X54922445Y-65794873D01*
X55076788Y-65716232D01*
X55216928Y-65614414D01*
X55339414Y-65491928D01*
X55399682Y-65408975D01*
X55455012Y-65366311D01*
X55524626Y-65360332D01*
X55586421Y-65392938D01*
X55600315Y-65408973D01*
X55660586Y-65491928D01*
X55783072Y-65614414D01*
X55923212Y-65716232D01*
X56077555Y-65794873D01*
X56242299Y-65848402D01*
X56413389Y-65875500D01*
X56413390Y-65875500D01*
X56586610Y-65875500D01*
X56586611Y-65875500D01*
X56757701Y-65848402D01*
X56922445Y-65794873D01*
X57076788Y-65716232D01*
X57216928Y-65614414D01*
X57331345Y-65499997D01*
X62194652Y-65499997D01*
X62194652Y-65500002D01*
X62196249Y-65529457D01*
X62211449Y-65809812D01*
X62214028Y-65857368D01*
X62214029Y-65857385D01*
X62271926Y-66210539D01*
X62271932Y-66210565D01*
X62367672Y-66555392D01*
X62367674Y-66555399D01*
X62500142Y-66887870D01*
X62500151Y-66887888D01*
X62667784Y-67204077D01*
X62667790Y-67204086D01*
X62868634Y-67500309D01*
X62868641Y-67500319D01*
X63100331Y-67773085D01*
X63100332Y-67773086D01*
X63360163Y-68019211D01*
X63645081Y-68235800D01*
X63951747Y-68420315D01*
X63951749Y-68420316D01*
X63951751Y-68420317D01*
X63951755Y-68420319D01*
X64276552Y-68570585D01*
X64276565Y-68570591D01*
X64615726Y-68684868D01*
X64965254Y-68761805D01*
X65321052Y-68800500D01*
X65321058Y-68800500D01*
X65678942Y-68800500D01*
X65678948Y-68800500D01*
X66034746Y-68761805D01*
X66384274Y-68684868D01*
X66723435Y-68570591D01*
X67048253Y-68420315D01*
X67354919Y-68235800D01*
X67639837Y-68019211D01*
X67899668Y-67773086D01*
X68131365Y-67500311D01*
X68332211Y-67204085D01*
X68499853Y-66887880D01*
X68632324Y-66555403D01*
X68728071Y-66210552D01*
X68783000Y-65875499D01*
X68785970Y-65857385D01*
X68785970Y-65857382D01*
X68785972Y-65857371D01*
X68805348Y-65500000D01*
X68804910Y-65491930D01*
X68799543Y-65392938D01*
X68785972Y-65142629D01*
X68767950Y-65032701D01*
X68728073Y-64789460D01*
X68728072Y-64789459D01*
X68728071Y-64789448D01*
X68632324Y-64444597D01*
X68499853Y-64112120D01*
X68347622Y-63824983D01*
X68332215Y-63795922D01*
X68332213Y-63795919D01*
X68332211Y-63795915D01*
X68131365Y-63499689D01*
X68131361Y-63499684D01*
X68131358Y-63499680D01*
X67899668Y-63226914D01*
X67820157Y-63151597D01*
X67639837Y-62980789D01*
X67639830Y-62980783D01*
X67639827Y-62980781D01*
X67572245Y-62929407D01*
X67354919Y-62764200D01*
X67048253Y-62579685D01*
X67048252Y-62579684D01*
X67048248Y-62579682D01*
X67048244Y-62579680D01*
X66723447Y-62429414D01*
X66723441Y-62429411D01*
X66723435Y-62429409D01*
X66553854Y-62372270D01*
X66384273Y-62315131D01*
X66034744Y-62238194D01*
X65678949Y-62199500D01*
X65678948Y-62199500D01*
X65321052Y-62199500D01*
X65321050Y-62199500D01*
X64965255Y-62238194D01*
X64615726Y-62315131D01*
X64359970Y-62401306D01*
X64276565Y-62429409D01*
X64276563Y-62429410D01*
X64276552Y-62429414D01*
X63951755Y-62579680D01*
X63951751Y-62579682D01*
X63921493Y-62597888D01*
X63645081Y-62764200D01*
X63578851Y-62814547D01*
X63360172Y-62980781D01*
X63360163Y-62980789D01*
X63100331Y-63226914D01*
X62868641Y-63499680D01*
X62868634Y-63499690D01*
X62667790Y-63795913D01*
X62667784Y-63795922D01*
X62500151Y-64112111D01*
X62500142Y-64112129D01*
X62367674Y-64444600D01*
X62367672Y-64444607D01*
X62271932Y-64789434D01*
X62271926Y-64789460D01*
X62214029Y-65142614D01*
X62214028Y-65142627D01*
X62214028Y-65142629D01*
X62212272Y-65175018D01*
X62194652Y-65499997D01*
X57331345Y-65499997D01*
X57339414Y-65491928D01*
X57441232Y-65351788D01*
X57519873Y-65197445D01*
X57573402Y-65032701D01*
X57600500Y-64861611D01*
X57600500Y-64138389D01*
X57573402Y-63967299D01*
X57519873Y-63802555D01*
X57441232Y-63648212D01*
X57339414Y-63508072D01*
X57286819Y-63455477D01*
X57253334Y-63394154D01*
X57250500Y-63367796D01*
X57250500Y-62902228D01*
X57270185Y-62835189D01*
X57286815Y-62814551D01*
X57767770Y-62333595D01*
X57829091Y-62300112D01*
X57829427Y-62300039D01*
X57894803Y-62286144D01*
X58067730Y-62209151D01*
X58220871Y-62097888D01*
X58347533Y-61957216D01*
X58442179Y-61793284D01*
X58500674Y-61613256D01*
X58520460Y-61425000D01*
X58500674Y-61236744D01*
X58442179Y-61056716D01*
X58347533Y-60892784D01*
X58220871Y-60752112D01*
X58220870Y-60752111D01*
X58067734Y-60640851D01*
X58067729Y-60640848D01*
X57894807Y-60563857D01*
X57894802Y-60563855D01*
X57749001Y-60532865D01*
X57709646Y-60524500D01*
X57520354Y-60524500D01*
X57487897Y-60531398D01*
X57335197Y-60563855D01*
X57335192Y-60563857D01*
X57162270Y-60640848D01*
X57162265Y-60640851D01*
X57009129Y-60752111D01*
X56882466Y-60892785D01*
X56787821Y-61056715D01*
X56787819Y-61056719D01*
X56732478Y-61227041D01*
X56702228Y-61276403D01*
X55917052Y-62061578D01*
X55917049Y-62061581D01*
X55892790Y-62097887D01*
X55892791Y-62097888D01*
X55834914Y-62184508D01*
X55778343Y-62321082D01*
X55778340Y-62321092D01*
X55749500Y-62466079D01*
X55749500Y-63367796D01*
X55729815Y-63434835D01*
X55713181Y-63455477D01*
X55660588Y-63508069D01*
X55660581Y-63508078D01*
X55600317Y-63591023D01*
X55544987Y-63633689D01*
X55475374Y-63639667D01*
X55413579Y-63607061D01*
X55399683Y-63591023D01*
X55339418Y-63508078D01*
X55339414Y-63508072D01*
X55216928Y-63385586D01*
X55076788Y-63283768D01*
X54922445Y-63205127D01*
X54757701Y-63151598D01*
X54757699Y-63151597D01*
X54757698Y-63151597D01*
X54626271Y-63130781D01*
X54586611Y-63124500D01*
X54413389Y-63124500D01*
X54373728Y-63130781D01*
X54242302Y-63151597D01*
X54077552Y-63205128D01*
X53923211Y-63283768D01*
X53783073Y-63385585D01*
X53675530Y-63493128D01*
X53614207Y-63526612D01*
X53544515Y-63521628D01*
X53488582Y-63479756D01*
X53482310Y-63470543D01*
X53460285Y-63434835D01*
X53442712Y-63406344D01*
X53318656Y-63282288D01*
X53193559Y-63205128D01*
X53169336Y-63190187D01*
X53169331Y-63190185D01*
X53167862Y-63189698D01*
X53002797Y-63135001D01*
X53002795Y-63135000D01*
X52900010Y-63124500D01*
X52099998Y-63124500D01*
X52099980Y-63124501D01*
X51997203Y-63135000D01*
X51997200Y-63135001D01*
X51830668Y-63190185D01*
X51830663Y-63190187D01*
X51681342Y-63282289D01*
X51557289Y-63406342D01*
X51465187Y-63555663D01*
X51465186Y-63555666D01*
X51410001Y-63722203D01*
X51410001Y-63722204D01*
X51410000Y-63722204D01*
X51399500Y-63824983D01*
X46527160Y-63824983D01*
X46519873Y-63802555D01*
X46441232Y-63648212D01*
X46339414Y-63508072D01*
X46216928Y-63385586D01*
X46076788Y-63283768D01*
X45922445Y-63205127D01*
X45757701Y-63151598D01*
X45757699Y-63151597D01*
X45757698Y-63151597D01*
X45626271Y-63130781D01*
X45586611Y-63124500D01*
X45413389Y-63124500D01*
X45373728Y-63130781D01*
X45242302Y-63151597D01*
X45077552Y-63205128D01*
X44923211Y-63283768D01*
X44843256Y-63341859D01*
X44783072Y-63385586D01*
X44783070Y-63385588D01*
X44783069Y-63385588D01*
X44660588Y-63508069D01*
X44660581Y-63508078D01*
X44600317Y-63591023D01*
X44544987Y-63633689D01*
X44475374Y-63639667D01*
X44413579Y-63607061D01*
X44399683Y-63591023D01*
X44339418Y-63508078D01*
X44339414Y-63508072D01*
X44216928Y-63385586D01*
X44076788Y-63283768D01*
X43922445Y-63205127D01*
X43757701Y-63151598D01*
X43757699Y-63151597D01*
X43757698Y-63151597D01*
X43626271Y-63130781D01*
X43586611Y-63124500D01*
X43413389Y-63124500D01*
X43373728Y-63130781D01*
X43242302Y-63151597D01*
X43077552Y-63205128D01*
X42923211Y-63283768D01*
X42783073Y-63385585D01*
X42675530Y-63493128D01*
X42614207Y-63526612D01*
X42544515Y-63521628D01*
X42488582Y-63479756D01*
X42482310Y-63470543D01*
X42460285Y-63434835D01*
X42442712Y-63406344D01*
X42318656Y-63282288D01*
X42193559Y-63205128D01*
X42169336Y-63190187D01*
X42169331Y-63190185D01*
X42167862Y-63189698D01*
X42002797Y-63135001D01*
X42002795Y-63135000D01*
X41900010Y-63124500D01*
X41099998Y-63124500D01*
X41099980Y-63124501D01*
X40997203Y-63135000D01*
X40997200Y-63135001D01*
X40830668Y-63190185D01*
X40830663Y-63190187D01*
X40681342Y-63282289D01*
X40557289Y-63406342D01*
X40465187Y-63555663D01*
X40465186Y-63555666D01*
X40410001Y-63722203D01*
X40410001Y-63722204D01*
X40410000Y-63722204D01*
X40399500Y-63824983D01*
X37347622Y-63824983D01*
X37332215Y-63795922D01*
X37332213Y-63795919D01*
X37332211Y-63795915D01*
X37131365Y-63499689D01*
X37131361Y-63499684D01*
X37131358Y-63499680D01*
X36899668Y-63226914D01*
X36820157Y-63151597D01*
X36639837Y-62980789D01*
X36639830Y-62980783D01*
X36639827Y-62980781D01*
X36572245Y-62929407D01*
X36354919Y-62764200D01*
X36048253Y-62579685D01*
X36048252Y-62579684D01*
X36048248Y-62579682D01*
X36048244Y-62579680D01*
X35723447Y-62429414D01*
X35723441Y-62429411D01*
X35723435Y-62429409D01*
X35553854Y-62372270D01*
X35384273Y-62315131D01*
X35034744Y-62238194D01*
X34678949Y-62199500D01*
X34678948Y-62199500D01*
X34321052Y-62199500D01*
X34321050Y-62199500D01*
X33965255Y-62238194D01*
X33615726Y-62315131D01*
X33359970Y-62401306D01*
X33276565Y-62429409D01*
X33276563Y-62429410D01*
X33276552Y-62429414D01*
X32951755Y-62579680D01*
X32951751Y-62579682D01*
X32921493Y-62597888D01*
X32645081Y-62764200D01*
X32578851Y-62814547D01*
X32360172Y-62980781D01*
X32360163Y-62980789D01*
X32100331Y-63226914D01*
X31868641Y-63499680D01*
X31868634Y-63499690D01*
X31667790Y-63795913D01*
X31667784Y-63795922D01*
X31500151Y-64112111D01*
X31500142Y-64112129D01*
X31367674Y-64444600D01*
X31367672Y-64444607D01*
X31271932Y-64789434D01*
X31271926Y-64789460D01*
X31214029Y-65142614D01*
X31214028Y-65142627D01*
X31214028Y-65142629D01*
X31212272Y-65175018D01*
X31194652Y-65499997D01*
X29200500Y-65499997D01*
X29200500Y-61925000D01*
X43219540Y-61925000D01*
X43239326Y-62113256D01*
X43239327Y-62113259D01*
X43297818Y-62293277D01*
X43297821Y-62293284D01*
X43392467Y-62457216D01*
X43502734Y-62579680D01*
X43519129Y-62597888D01*
X43672265Y-62709148D01*
X43672270Y-62709151D01*
X43845192Y-62786142D01*
X43845197Y-62786144D01*
X44030354Y-62825500D01*
X44030355Y-62825500D01*
X44219644Y-62825500D01*
X44219646Y-62825500D01*
X44404803Y-62786144D01*
X44577730Y-62709151D01*
X44730871Y-62597888D01*
X44857533Y-62457216D01*
X44952179Y-62293284D01*
X45010674Y-62113256D01*
X45030460Y-61925000D01*
X45010674Y-61736744D01*
X44952179Y-61556716D01*
X44857533Y-61392784D01*
X44730871Y-61252112D01*
X44730870Y-61252111D01*
X44577734Y-61140851D01*
X44577729Y-61140848D01*
X44404807Y-61063857D01*
X44404802Y-61063855D01*
X44259001Y-61032865D01*
X44219646Y-61024500D01*
X44030354Y-61024500D01*
X43997897Y-61031398D01*
X43845197Y-61063855D01*
X43845192Y-61063857D01*
X43672270Y-61140848D01*
X43672265Y-61140851D01*
X43519129Y-61252111D01*
X43392466Y-61392785D01*
X43297821Y-61556715D01*
X43297818Y-61556722D01*
X43244313Y-61721395D01*
X43239326Y-61736744D01*
X43219540Y-61925000D01*
X29200500Y-61925000D01*
X29200500Y-60849999D01*
X49844341Y-60849999D01*
X49844341Y-60850000D01*
X49864936Y-61085403D01*
X49864938Y-61085413D01*
X49926094Y-61313655D01*
X49926096Y-61313659D01*
X49926097Y-61313663D01*
X50010499Y-61494663D01*
X50025965Y-61527830D01*
X50025967Y-61527834D01*
X50046191Y-61556716D01*
X50161505Y-61721401D01*
X50328599Y-61888495D01*
X50425384Y-61956265D01*
X50522165Y-62024032D01*
X50522167Y-62024033D01*
X50522170Y-62024035D01*
X50736337Y-62123903D01*
X50964592Y-62185063D01*
X51141034Y-62200500D01*
X51199999Y-62205659D01*
X51200000Y-62205659D01*
X51200001Y-62205659D01*
X51258966Y-62200500D01*
X51435408Y-62185063D01*
X51663663Y-62123903D01*
X51877830Y-62024035D01*
X52071401Y-61888495D01*
X52193329Y-61766566D01*
X52254648Y-61733084D01*
X52324340Y-61738068D01*
X52380274Y-61779939D01*
X52397189Y-61810917D01*
X52446202Y-61942328D01*
X52446206Y-61942335D01*
X52532452Y-62057544D01*
X52532455Y-62057547D01*
X52647664Y-62143793D01*
X52647671Y-62143797D01*
X52782517Y-62194091D01*
X52782516Y-62194091D01*
X52789444Y-62194835D01*
X52842127Y-62200500D01*
X54637872Y-62200499D01*
X54697483Y-62194091D01*
X54832331Y-62143796D01*
X54947546Y-62057546D01*
X55033796Y-61942331D01*
X55084091Y-61807483D01*
X55090500Y-61747873D01*
X55090499Y-59952128D01*
X55084091Y-59892517D01*
X55082810Y-59889083D01*
X55033797Y-59757671D01*
X55033793Y-59757664D01*
X54947547Y-59642455D01*
X54947544Y-59642452D01*
X54832335Y-59556206D01*
X54832328Y-59556202D01*
X54697482Y-59505908D01*
X54697483Y-59505908D01*
X54637883Y-59499501D01*
X54637881Y-59499500D01*
X54637873Y-59499500D01*
X54637864Y-59499500D01*
X52842129Y-59499500D01*
X52842123Y-59499501D01*
X52782516Y-59505908D01*
X52647671Y-59556202D01*
X52647664Y-59556206D01*
X52532455Y-59642452D01*
X52532452Y-59642455D01*
X52446206Y-59757664D01*
X52446203Y-59757669D01*
X52397189Y-59889083D01*
X52355317Y-59945016D01*
X52289853Y-59969433D01*
X52221580Y-59954581D01*
X52193326Y-59933430D01*
X52071402Y-59811506D01*
X52071395Y-59811501D01*
X51877834Y-59675967D01*
X51877830Y-59675965D01*
X51853526Y-59664632D01*
X51663663Y-59576097D01*
X51663659Y-59576096D01*
X51663655Y-59576094D01*
X51435413Y-59514938D01*
X51435403Y-59514936D01*
X51200001Y-59494341D01*
X51199999Y-59494341D01*
X50964596Y-59514936D01*
X50964586Y-59514938D01*
X50736344Y-59576094D01*
X50736335Y-59576098D01*
X50522171Y-59675964D01*
X50522169Y-59675965D01*
X50328597Y-59811505D01*
X50161505Y-59978597D01*
X50025965Y-60172169D01*
X50025964Y-60172171D01*
X49926098Y-60386335D01*
X49926094Y-60386344D01*
X49864938Y-60614586D01*
X49864936Y-60614596D01*
X49844341Y-60849999D01*
X29200500Y-60849999D01*
X29200500Y-59827399D01*
X35004500Y-59827399D01*
X35004500Y-59952601D01*
X35036905Y-60073536D01*
X35099505Y-60181964D01*
X35188036Y-60270495D01*
X35296464Y-60333095D01*
X35417399Y-60365500D01*
X35417401Y-60365500D01*
X35542599Y-60365500D01*
X35542601Y-60365500D01*
X35663536Y-60333095D01*
X35771964Y-60270495D01*
X35860495Y-60181964D01*
X35923095Y-60073536D01*
X35955500Y-59952601D01*
X35955500Y-59827399D01*
X35923095Y-59706464D01*
X35860495Y-59598036D01*
X35771964Y-59509505D01*
X35663536Y-59446905D01*
X35663537Y-59446905D01*
X35623224Y-59436103D01*
X35542601Y-59414500D01*
X35417399Y-59414500D01*
X35336775Y-59436103D01*
X35296463Y-59446905D01*
X35188037Y-59509504D01*
X35188034Y-59509506D01*
X35099506Y-59598034D01*
X35099504Y-59598037D01*
X35036905Y-59706463D01*
X35028792Y-59736740D01*
X35004500Y-59827399D01*
X29200500Y-59827399D01*
X29200500Y-59344995D01*
X36642416Y-59344995D01*
X36642416Y-59345002D01*
X36662611Y-59524248D01*
X36662612Y-59524253D01*
X36722192Y-59694522D01*
X36801151Y-59820184D01*
X36818165Y-59847261D01*
X36945719Y-59974815D01*
X37098459Y-60070788D01*
X37219826Y-60113256D01*
X37268726Y-60130367D01*
X37268731Y-60130368D01*
X37447977Y-60150564D01*
X37447981Y-60150564D01*
X37447985Y-60150564D01*
X37627230Y-60130368D01*
X37627233Y-60130367D01*
X37627236Y-60130367D01*
X37797503Y-60070788D01*
X37950243Y-59974815D01*
X38000058Y-59925000D01*
X41194540Y-59925000D01*
X41214326Y-60113256D01*
X41214327Y-60113259D01*
X41272818Y-60293277D01*
X41272821Y-60293284D01*
X41367467Y-60457216D01*
X41463487Y-60563857D01*
X41494129Y-60597888D01*
X41647265Y-60709148D01*
X41647270Y-60709151D01*
X41820192Y-60786142D01*
X41820197Y-60786144D01*
X42005354Y-60825500D01*
X42005355Y-60825500D01*
X42194644Y-60825500D01*
X42194646Y-60825500D01*
X42379803Y-60786144D01*
X42552730Y-60709151D01*
X42705871Y-60597888D01*
X42832533Y-60457216D01*
X42927179Y-60293284D01*
X42985674Y-60113256D01*
X43005460Y-59925000D01*
X42985674Y-59736744D01*
X42927179Y-59556716D01*
X42832533Y-59392784D01*
X42705871Y-59252112D01*
X42705870Y-59252111D01*
X42552734Y-59140851D01*
X42552729Y-59140848D01*
X42379807Y-59063857D01*
X42379802Y-59063855D01*
X42234001Y-59032865D01*
X42194646Y-59024500D01*
X42005354Y-59024500D01*
X41972897Y-59031398D01*
X41820197Y-59063855D01*
X41820192Y-59063857D01*
X41647270Y-59140848D01*
X41647265Y-59140851D01*
X41494129Y-59252111D01*
X41367466Y-59392785D01*
X41272821Y-59556715D01*
X41272818Y-59556722D01*
X41218398Y-59724211D01*
X41214326Y-59736744D01*
X41194540Y-59925000D01*
X38000058Y-59925000D01*
X38077797Y-59847261D01*
X38173770Y-59694521D01*
X38233349Y-59524254D01*
X38236138Y-59499500D01*
X38253546Y-59345002D01*
X38253546Y-59344995D01*
X38233350Y-59165749D01*
X38233349Y-59165744D01*
X38224638Y-59140849D01*
X38173770Y-58995477D01*
X38166653Y-58984151D01*
X38077796Y-58842736D01*
X37950243Y-58715183D01*
X37797504Y-58619210D01*
X37627235Y-58559630D01*
X37627230Y-58559629D01*
X37447985Y-58539434D01*
X37447977Y-58539434D01*
X37268731Y-58559629D01*
X37268726Y-58559630D01*
X37098457Y-58619210D01*
X36945718Y-58715183D01*
X36818165Y-58842736D01*
X36722192Y-58995475D01*
X36662612Y-59165744D01*
X36662611Y-59165749D01*
X36642416Y-59344995D01*
X29200500Y-59344995D01*
X29200500Y-58200000D01*
X32844540Y-58200000D01*
X32864326Y-58388256D01*
X32864327Y-58388259D01*
X32922818Y-58568277D01*
X32922821Y-58568284D01*
X33017467Y-58732216D01*
X33079210Y-58800788D01*
X33144129Y-58872888D01*
X33297265Y-58984148D01*
X33297270Y-58984151D01*
X33470192Y-59061142D01*
X33470197Y-59061144D01*
X33655354Y-59100500D01*
X33655355Y-59100500D01*
X33844644Y-59100500D01*
X33844646Y-59100500D01*
X34029803Y-59061144D01*
X34202730Y-58984151D01*
X34355871Y-58872888D01*
X34482533Y-58732216D01*
X34577179Y-58568284D01*
X34635674Y-58388256D01*
X34655460Y-58200000D01*
X34635674Y-58011744D01*
X34577179Y-57831716D01*
X34482533Y-57667784D01*
X34355871Y-57527112D01*
X34355870Y-57527111D01*
X34202734Y-57415851D01*
X34202729Y-57415848D01*
X34029807Y-57338857D01*
X34029802Y-57338855D01*
X33884001Y-57307865D01*
X33844646Y-57299500D01*
X33655354Y-57299500D01*
X33622897Y-57306398D01*
X33470197Y-57338855D01*
X33470192Y-57338857D01*
X33297270Y-57415848D01*
X33297265Y-57415851D01*
X33144129Y-57527111D01*
X33017466Y-57667785D01*
X32922821Y-57831715D01*
X32922818Y-57831722D01*
X32864521Y-58011144D01*
X32864326Y-58011744D01*
X32844540Y-58200000D01*
X29200500Y-58200000D01*
X29200500Y-56505337D01*
X44150781Y-56505337D01*
X44191706Y-56658068D01*
X44214260Y-56697131D01*
X44214261Y-56697135D01*
X44270758Y-56794992D01*
X44270764Y-56795000D01*
X44389632Y-56913868D01*
X44389638Y-56913873D01*
X45569298Y-58093533D01*
X45602783Y-58154856D01*
X45604837Y-58167330D01*
X45614630Y-58254249D01*
X45674210Y-58424521D01*
X45746415Y-58539434D01*
X45770184Y-58577262D01*
X45897738Y-58704816D01*
X46050478Y-58800789D01*
X46220745Y-58860368D01*
X46220750Y-58860369D01*
X46399996Y-58880565D01*
X46400000Y-58880565D01*
X46400004Y-58880565D01*
X46579249Y-58860369D01*
X46579252Y-58860368D01*
X46579255Y-58860368D01*
X46749522Y-58800789D01*
X46902262Y-58704816D01*
X47029816Y-58577262D01*
X47125789Y-58424522D01*
X47185368Y-58254255D01*
X47195162Y-58167330D01*
X47205565Y-58075003D01*
X47205565Y-58074996D01*
X47185369Y-57895750D01*
X47185368Y-57895745D01*
X47125788Y-57725476D01*
X47029815Y-57572737D01*
X46902262Y-57445184D01*
X46749521Y-57349210D01*
X46579249Y-57289630D01*
X46492330Y-57279837D01*
X46427916Y-57252770D01*
X46418533Y-57244298D01*
X45388102Y-56213867D01*
X45354617Y-56152544D01*
X45351783Y-56126186D01*
X45351783Y-54150000D01*
X46904352Y-54150000D01*
X46924856Y-54318869D01*
X46924857Y-54318874D01*
X46985179Y-54477931D01*
X47037061Y-54553094D01*
X47081814Y-54617929D01*
X47162574Y-54689476D01*
X47209147Y-54730736D01*
X47354054Y-54806789D01*
X47359772Y-54809790D01*
X47524941Y-54850500D01*
X47673477Y-54850500D01*
X47740516Y-54870185D01*
X47786271Y-54922989D01*
X47796215Y-54992147D01*
X47789419Y-55018471D01*
X47766143Y-55079842D01*
X47766142Y-55079847D01*
X47745638Y-55248717D01*
X47766142Y-55417586D01*
X47766143Y-55417591D01*
X47826465Y-55576648D01*
X47888758Y-55666894D01*
X47923100Y-55716646D01*
X47988404Y-55774500D01*
X48050433Y-55829453D01*
X48201056Y-55908506D01*
X48201058Y-55908507D01*
X48342404Y-55943345D01*
X48402784Y-55978501D01*
X48434573Y-56040720D01*
X48435825Y-56048795D01*
X48441142Y-56092586D01*
X48441143Y-56092592D01*
X48501465Y-56251647D01*
X48501465Y-56251648D01*
X48539071Y-56306128D01*
X48598100Y-56391646D01*
X48692188Y-56475000D01*
X48725433Y-56504453D01*
X48876056Y-56583506D01*
X48876058Y-56583507D01*
X49041227Y-56624217D01*
X49211339Y-56624217D01*
X49376508Y-56583507D01*
X49455975Y-56541798D01*
X49527132Y-56504453D01*
X49527133Y-56504451D01*
X49527135Y-56504451D01*
X49654466Y-56391646D01*
X49751101Y-56251647D01*
X49811423Y-56092589D01*
X49831928Y-55923717D01*
X49811423Y-55754845D01*
X49807109Y-55743472D01*
X49801741Y-55673810D01*
X49834888Y-55612303D01*
X49896026Y-55578481D01*
X49923051Y-55575500D01*
X50044644Y-55575500D01*
X50044646Y-55575500D01*
X50229803Y-55536144D01*
X50402730Y-55459151D01*
X50555871Y-55347888D01*
X50659605Y-55232679D01*
X50719089Y-55196032D01*
X50788946Y-55197362D01*
X50846995Y-55236249D01*
X50867695Y-55271682D01*
X50926465Y-55426647D01*
X50926465Y-55426648D01*
X50988758Y-55516894D01*
X51023100Y-55566646D01*
X51128788Y-55660277D01*
X51150433Y-55679453D01*
X51301056Y-55758506D01*
X51301058Y-55758507D01*
X51466227Y-55799217D01*
X51636339Y-55799217D01*
X51801508Y-55758507D01*
X51881270Y-55716644D01*
X51952132Y-55679453D01*
X51952133Y-55679451D01*
X51952135Y-55679451D01*
X52079466Y-55566646D01*
X52176101Y-55426647D01*
X52236423Y-55267589D01*
X52256928Y-55098717D01*
X52236423Y-54929845D01*
X52176101Y-54770787D01*
X52079466Y-54630788D01*
X51952135Y-54517983D01*
X51952132Y-54517980D01*
X51801509Y-54438927D01*
X51636339Y-54398217D01*
X51466227Y-54398217D01*
X51301056Y-54438927D01*
X51150433Y-54517981D01*
X51045849Y-54610634D01*
X50982615Y-54640355D01*
X50913352Y-54631171D01*
X50860049Y-54585999D01*
X50840302Y-54530782D01*
X50835674Y-54486744D01*
X50832810Y-54477931D01*
X50777181Y-54306722D01*
X50777180Y-54306721D01*
X50777179Y-54306716D01*
X50682533Y-54142784D01*
X50555871Y-54002112D01*
X50485231Y-53950789D01*
X50402734Y-53890851D01*
X50402729Y-53890848D01*
X50229807Y-53813857D01*
X50229802Y-53813855D01*
X50165006Y-53800083D01*
X50103524Y-53766891D01*
X50069748Y-53705728D01*
X50074400Y-53636013D01*
X50084055Y-53615672D01*
X50116744Y-53560398D01*
X50162598Y-53402569D01*
X50165500Y-53365694D01*
X50165500Y-51784306D01*
X50162598Y-51747431D01*
X50158032Y-51731716D01*
X50118541Y-51595787D01*
X50116744Y-51589602D01*
X50033081Y-51448135D01*
X50033079Y-51448133D01*
X50033076Y-51448129D01*
X49916870Y-51331923D01*
X49916862Y-51331917D01*
X49801896Y-51263927D01*
X49775398Y-51248256D01*
X49775397Y-51248255D01*
X49775396Y-51248255D01*
X49775393Y-51248254D01*
X49617573Y-51202402D01*
X49617567Y-51202401D01*
X49580701Y-51199500D01*
X49580694Y-51199500D01*
X49149306Y-51199500D01*
X49149298Y-51199500D01*
X49112432Y-51202401D01*
X49112426Y-51202402D01*
X48954606Y-51248254D01*
X48954603Y-51248255D01*
X48813137Y-51331917D01*
X48813129Y-51331923D01*
X48696923Y-51448129D01*
X48696917Y-51448137D01*
X48613255Y-51589603D01*
X48613254Y-51589606D01*
X48567402Y-51747426D01*
X48567401Y-51747432D01*
X48564500Y-51784298D01*
X48564500Y-53039955D01*
X48563720Y-53053839D01*
X48544435Y-53224997D01*
X48544435Y-53225003D01*
X48562223Y-53382880D01*
X48550168Y-53451702D01*
X48502819Y-53503081D01*
X48435209Y-53520705D01*
X48381378Y-53506560D01*
X48350225Y-53490209D01*
X48185056Y-53449500D01*
X48014944Y-53449500D01*
X48014943Y-53449500D01*
X47884672Y-53481608D01*
X47825323Y-53481608D01*
X47695053Y-53449500D01*
X47524941Y-53449500D01*
X47359770Y-53490210D01*
X47209147Y-53569263D01*
X47081813Y-53682072D01*
X46985179Y-53822068D01*
X46924857Y-53981125D01*
X46924856Y-53981130D01*
X46904352Y-54150000D01*
X45351783Y-54150000D01*
X45351783Y-53319677D01*
X45371468Y-53252638D01*
X45424272Y-53206883D01*
X45493430Y-53196939D01*
X45533409Y-53209881D01*
X45626056Y-53258506D01*
X45626058Y-53258507D01*
X45791227Y-53299217D01*
X45961339Y-53299217D01*
X46126508Y-53258507D01*
X46243815Y-53196939D01*
X46277132Y-53179453D01*
X46277133Y-53179451D01*
X46277135Y-53179451D01*
X46404466Y-53066646D01*
X46501101Y-52926647D01*
X46561423Y-52767589D01*
X46581928Y-52598717D01*
X46561423Y-52429845D01*
X46501101Y-52270787D01*
X46404466Y-52130788D01*
X46277135Y-52017983D01*
X46277132Y-52017980D01*
X46126509Y-51938927D01*
X45985161Y-51904088D01*
X45924780Y-51868932D01*
X45892992Y-51806712D01*
X45891740Y-51798636D01*
X45891205Y-51794227D01*
X45886423Y-51754845D01*
X45886422Y-51754843D01*
X45886422Y-51754841D01*
X45856332Y-51675500D01*
X45826101Y-51595787D01*
X45821832Y-51589603D01*
X45741526Y-51473260D01*
X45729466Y-51455788D01*
X45602135Y-51342983D01*
X45602132Y-51342980D01*
X45451508Y-51263926D01*
X45451506Y-51263925D01*
X45446100Y-51262593D01*
X45422440Y-51248815D01*
X46631326Y-51248815D01*
X46651830Y-51417684D01*
X46651831Y-51417689D01*
X46712153Y-51576746D01*
X46774446Y-51666992D01*
X46808788Y-51716744D01*
X46851799Y-51754848D01*
X46936121Y-51829551D01*
X47086744Y-51908604D01*
X47086746Y-51908605D01*
X47251915Y-51949315D01*
X47422027Y-51949315D01*
X47587196Y-51908605D01*
X47666663Y-51866896D01*
X47737820Y-51829551D01*
X47737821Y-51829549D01*
X47737823Y-51829549D01*
X47865154Y-51716744D01*
X47961789Y-51576745D01*
X48022111Y-51417687D01*
X48042616Y-51248815D01*
X48022111Y-51079943D01*
X47961789Y-50920885D01*
X47950590Y-50904661D01*
X47918546Y-50858237D01*
X47865154Y-50780886D01*
X47770287Y-50696841D01*
X47737820Y-50668078D01*
X47587197Y-50589025D01*
X47422027Y-50548315D01*
X47251915Y-50548315D01*
X47086744Y-50589025D01*
X46936121Y-50668078D01*
X46808787Y-50780887D01*
X46712153Y-50920883D01*
X46651831Y-51079940D01*
X46651830Y-51079945D01*
X46631326Y-51248815D01*
X45422440Y-51248815D01*
X45385721Y-51227432D01*
X45353937Y-51165211D01*
X45351783Y-51142198D01*
X45351783Y-49598814D01*
X45371468Y-49531775D01*
X45388097Y-49511136D01*
X45470122Y-49429111D01*
X45528126Y-49396398D01*
X45575225Y-49384790D01*
X45725852Y-49305734D01*
X45853183Y-49192929D01*
X45949818Y-49052930D01*
X45977141Y-48980881D01*
X46019319Y-48925178D01*
X46035452Y-48915058D01*
X46100852Y-48880734D01*
X46111210Y-48871558D01*
X46645920Y-48871558D01*
X46645920Y-48871565D01*
X46666115Y-49050811D01*
X46666116Y-49050816D01*
X46725696Y-49221085D01*
X46763176Y-49280733D01*
X46821669Y-49373824D01*
X46949223Y-49501378D01*
X47015348Y-49542927D01*
X47085075Y-49586740D01*
X47101963Y-49597351D01*
X47268812Y-49655734D01*
X47272230Y-49656930D01*
X47272235Y-49656931D01*
X47451481Y-49677127D01*
X47451485Y-49677127D01*
X47451489Y-49677127D01*
X47630734Y-49656931D01*
X47630737Y-49656930D01*
X47630740Y-49656930D01*
X47801007Y-49597351D01*
X47953747Y-49501378D01*
X48018307Y-49436818D01*
X48079630Y-49403333D01*
X48105988Y-49400499D01*
X48215192Y-49400499D01*
X48380361Y-49359789D01*
X48493726Y-49300290D01*
X48530985Y-49280735D01*
X48530986Y-49280733D01*
X48530988Y-49280733D01*
X48658319Y-49167928D01*
X48754954Y-49027929D01*
X48815276Y-48868871D01*
X48816174Y-48861473D01*
X48843793Y-48797296D01*
X48901725Y-48758238D01*
X48971578Y-48756700D01*
X48973865Y-48757341D01*
X49112426Y-48797597D01*
X49112429Y-48797597D01*
X49112431Y-48797598D01*
X49149306Y-48800500D01*
X49310258Y-48800500D01*
X49377297Y-48820185D01*
X49397939Y-48836819D01*
X49539485Y-48978365D01*
X49646635Y-49085515D01*
X49777865Y-49161281D01*
X49924234Y-49200500D01*
X51437820Y-49200500D01*
X51504859Y-49220185D01*
X51550614Y-49272989D01*
X51553762Y-49280529D01*
X51600182Y-49402931D01*
X51625969Y-49440289D01*
X51696817Y-49542929D01*
X51802505Y-49636560D01*
X51824150Y-49655736D01*
X51974774Y-49734790D01*
X51999079Y-49740780D01*
X52045065Y-49752114D01*
X52105445Y-49787269D01*
X52137234Y-49849488D01*
X52138485Y-49857559D01*
X52139858Y-49868864D01*
X52139860Y-49868875D01*
X52200182Y-50027930D01*
X52200182Y-50027931D01*
X52296817Y-50167930D01*
X52319276Y-50187826D01*
X52344440Y-50218648D01*
X52347977Y-50224775D01*
X52364446Y-50292676D01*
X52341591Y-50358701D01*
X52286667Y-50401889D01*
X52226704Y-50409989D01*
X52157534Y-50402196D01*
X52157526Y-50402196D01*
X51978280Y-50422391D01*
X51978275Y-50422392D01*
X51808006Y-50481972D01*
X51655267Y-50577945D01*
X51527714Y-50705498D01*
X51431741Y-50858237D01*
X51372161Y-51028506D01*
X51372160Y-51028511D01*
X51351965Y-51207756D01*
X51351965Y-51207758D01*
X51351965Y-51207761D01*
X51356528Y-51248256D01*
X51357970Y-51261059D01*
X51345914Y-51329881D01*
X51322431Y-51362622D01*
X51236920Y-51448133D01*
X51236917Y-51448137D01*
X51153255Y-51589603D01*
X51153254Y-51589606D01*
X51107402Y-51747426D01*
X51107401Y-51747432D01*
X51104500Y-51784298D01*
X51104500Y-53365701D01*
X51107401Y-53402567D01*
X51107402Y-53402573D01*
X51153254Y-53560393D01*
X51153255Y-53560396D01*
X51153256Y-53560398D01*
X51185945Y-53615672D01*
X51236917Y-53701862D01*
X51236923Y-53701870D01*
X51353129Y-53818076D01*
X51353133Y-53818079D01*
X51353135Y-53818081D01*
X51494602Y-53901744D01*
X51536224Y-53913836D01*
X51652426Y-53947597D01*
X51652429Y-53947597D01*
X51652431Y-53947598D01*
X51689306Y-53950500D01*
X51689314Y-53950500D01*
X52120686Y-53950500D01*
X52120694Y-53950500D01*
X52157569Y-53947598D01*
X52157571Y-53947597D01*
X52157573Y-53947597D01*
X52220853Y-53929212D01*
X52315398Y-53901744D01*
X52456865Y-53818081D01*
X52573081Y-53701865D01*
X52656744Y-53560398D01*
X52678570Y-53485271D01*
X52716175Y-53426388D01*
X52779648Y-53397181D01*
X52832241Y-53400792D01*
X52941637Y-53432575D01*
X52941640Y-53432575D01*
X52941642Y-53432576D01*
X52978797Y-53435500D01*
X53421202Y-53435499D01*
X53458358Y-53432576D01*
X53617400Y-53386370D01*
X53759954Y-53302063D01*
X53877063Y-53184954D01*
X53961370Y-53042400D01*
X54007346Y-52884151D01*
X54007575Y-52883362D01*
X54007576Y-52883356D01*
X54010499Y-52846210D01*
X54010500Y-52846203D01*
X54010499Y-52288798D01*
X54007576Y-52251642D01*
X53996866Y-52214777D01*
X53997065Y-52144911D01*
X54035006Y-52086240D01*
X54098644Y-52057396D01*
X54167774Y-52067537D01*
X54203623Y-52092503D01*
X55733181Y-53622061D01*
X55766666Y-53683384D01*
X55769500Y-53709742D01*
X55769500Y-56036980D01*
X55749815Y-56104019D01*
X55747550Y-56107420D01*
X55720183Y-56147068D01*
X55720182Y-56147068D01*
X55659860Y-56306125D01*
X55659859Y-56306130D01*
X55639355Y-56475000D01*
X55659859Y-56643869D01*
X55659860Y-56643874D01*
X55720182Y-56802931D01*
X55782475Y-56893177D01*
X55816817Y-56942929D01*
X55922505Y-57036560D01*
X55944150Y-57055736D01*
X56092022Y-57133345D01*
X56094775Y-57134790D01*
X56259944Y-57175500D01*
X56430056Y-57175500D01*
X56595225Y-57134790D01*
X56595227Y-57134788D01*
X56601085Y-57133345D01*
X56670887Y-57136414D01*
X56727949Y-57176734D01*
X56754081Y-57240780D01*
X56764326Y-57338256D01*
X56764327Y-57338259D01*
X56822818Y-57518277D01*
X56822821Y-57518284D01*
X56917467Y-57682216D01*
X57044129Y-57822888D01*
X57197265Y-57934148D01*
X57197270Y-57934151D01*
X57370192Y-58011142D01*
X57370197Y-58011144D01*
X57555354Y-58050500D01*
X57555355Y-58050500D01*
X57744644Y-58050500D01*
X57744646Y-58050500D01*
X57929803Y-58011144D01*
X58102730Y-57934151D01*
X58255871Y-57822888D01*
X58382533Y-57682216D01*
X58477179Y-57518284D01*
X58535674Y-57338256D01*
X58554247Y-57161536D01*
X58580832Y-57096924D01*
X58638129Y-57056939D01*
X58677568Y-57050500D01*
X59713612Y-57050500D01*
X59771238Y-57064704D01*
X59832628Y-57096924D01*
X59904775Y-57134790D01*
X60069944Y-57175500D01*
X60240056Y-57175500D01*
X60405225Y-57134790D01*
X60484692Y-57093081D01*
X60555849Y-57055736D01*
X60555850Y-57055734D01*
X60555852Y-57055734D01*
X60683183Y-56942929D01*
X60779818Y-56802930D01*
X60840140Y-56643872D01*
X60860645Y-56475000D01*
X60840140Y-56306128D01*
X60779818Y-56147070D01*
X60683183Y-56007071D01*
X60555852Y-55894266D01*
X60555849Y-55894263D01*
X60405226Y-55815210D01*
X60240056Y-55774500D01*
X60069944Y-55774500D01*
X59904773Y-55815210D01*
X59771238Y-55885296D01*
X59713612Y-55899500D01*
X57914742Y-55899500D01*
X57847703Y-55879815D01*
X57827061Y-55863181D01*
X57248219Y-55284339D01*
X57214734Y-55223016D01*
X57211900Y-55196658D01*
X57211900Y-53600000D01*
X62199355Y-53600000D01*
X62219859Y-53768869D01*
X62219860Y-53768874D01*
X62280182Y-53927931D01*
X62327715Y-53996793D01*
X62376817Y-54067929D01*
X62472547Y-54152738D01*
X62504150Y-54180736D01*
X62654773Y-54259789D01*
X62654775Y-54259790D01*
X62819944Y-54300500D01*
X62990056Y-54300500D01*
X63155225Y-54259790D01*
X63234692Y-54218081D01*
X63305849Y-54180736D01*
X63305850Y-54180734D01*
X63305852Y-54180734D01*
X63433183Y-54067929D01*
X63529818Y-53927930D01*
X63570308Y-53821164D01*
X63612485Y-53765462D01*
X63678083Y-53741404D01*
X63746273Y-53756631D01*
X63795407Y-53806306D01*
X63802192Y-53821165D01*
X63842681Y-53927928D01*
X63842682Y-53927931D01*
X63890215Y-53996793D01*
X63939317Y-54067929D01*
X64035047Y-54152738D01*
X64066650Y-54180736D01*
X64217273Y-54259789D01*
X64217275Y-54259790D01*
X64382444Y-54300500D01*
X64552556Y-54300500D01*
X64717725Y-54259790D01*
X64797192Y-54218081D01*
X64868349Y-54180736D01*
X64868350Y-54180734D01*
X64868352Y-54180734D01*
X64995683Y-54067929D01*
X65092318Y-53927930D01*
X65152640Y-53768872D01*
X65173145Y-53600000D01*
X65152640Y-53431128D01*
X65150842Y-53426388D01*
X65092317Y-53272068D01*
X65032189Y-53184959D01*
X64995683Y-53132071D01*
X64868352Y-53019266D01*
X64868349Y-53019263D01*
X64717726Y-52940210D01*
X64552556Y-52899500D01*
X64382444Y-52899500D01*
X64217273Y-52940210D01*
X64066650Y-53019263D01*
X63939316Y-53132072D01*
X63842682Y-53272068D01*
X63802192Y-53378835D01*
X63760014Y-53434538D01*
X63694417Y-53458595D01*
X63626227Y-53443368D01*
X63577093Y-53393692D01*
X63570308Y-53378835D01*
X63541193Y-53302065D01*
X63529818Y-53272070D01*
X63520455Y-53258506D01*
X63469689Y-53184959D01*
X63433183Y-53132071D01*
X63305852Y-53019266D01*
X63305849Y-53019263D01*
X63155226Y-52940210D01*
X62990056Y-52899500D01*
X62819944Y-52899500D01*
X62654773Y-52940210D01*
X62504150Y-53019263D01*
X62376816Y-53132072D01*
X62280182Y-53272068D01*
X62219860Y-53431125D01*
X62219859Y-53431130D01*
X62199355Y-53600000D01*
X57211900Y-53600000D01*
X57211900Y-53281711D01*
X57210235Y-53275498D01*
X57210234Y-53275496D01*
X57205682Y-53258507D01*
X57172681Y-53135344D01*
X57096915Y-53004114D01*
X54095773Y-50002972D01*
X54062288Y-49941649D01*
X54060358Y-49900344D01*
X54066533Y-49849488D01*
X54076401Y-49768219D01*
X54055896Y-49599347D01*
X53995574Y-49440289D01*
X53972399Y-49406715D01*
X53959318Y-49387763D01*
X53898939Y-49300290D01*
X53771608Y-49187485D01*
X53771605Y-49187482D01*
X53620982Y-49108429D01*
X53455812Y-49067719D01*
X53285700Y-49067719D01*
X53285699Y-49067719D01*
X53223805Y-49082974D01*
X53154003Y-49079904D01*
X53136512Y-49072376D01*
X53075225Y-49040210D01*
X53036633Y-49030697D01*
X53004932Y-49022884D01*
X52944552Y-48987727D01*
X52912764Y-48925507D01*
X52911515Y-48917457D01*
X52910140Y-48906128D01*
X52900509Y-48880734D01*
X52883855Y-48836819D01*
X52849818Y-48747070D01*
X52753183Y-48607071D01*
X52725611Y-48582644D01*
X52689211Y-48550396D01*
X52652084Y-48491207D01*
X52652852Y-48421341D01*
X52656242Y-48412125D01*
X52674007Y-48350978D01*
X54620333Y-48350978D01*
X54640837Y-48519847D01*
X54640838Y-48519852D01*
X54701160Y-48678909D01*
X54710412Y-48692312D01*
X54797795Y-48818907D01*
X54857234Y-48871565D01*
X54925128Y-48931714D01*
X55059811Y-49002401D01*
X55075753Y-49010768D01*
X55240922Y-49051478D01*
X55411034Y-49051478D01*
X55576203Y-49010768D01*
X55670802Y-48961118D01*
X55726827Y-48931714D01*
X55726828Y-48931712D01*
X55726830Y-48931712D01*
X55854161Y-48818907D01*
X55950796Y-48678908D01*
X55964829Y-48641906D01*
X56661261Y-48641906D01*
X56681765Y-48810775D01*
X56681766Y-48810780D01*
X56742088Y-48969837D01*
X56798442Y-49051478D01*
X56838723Y-49109835D01*
X56904297Y-49167928D01*
X56966056Y-49222642D01*
X57114002Y-49300290D01*
X57116681Y-49301696D01*
X57281850Y-49342406D01*
X57451962Y-49342406D01*
X57617131Y-49301696D01*
X57691380Y-49262726D01*
X57750668Y-49231610D01*
X57808294Y-49217406D01*
X60738858Y-49217406D01*
X60738860Y-49217406D01*
X60885229Y-49178187D01*
X61016459Y-49102421D01*
X63003202Y-47115676D01*
X63061204Y-47082963D01*
X63155225Y-47059790D01*
X63305852Y-46980734D01*
X63433183Y-46867929D01*
X63529818Y-46727930D01*
X63587818Y-46574996D01*
X65719435Y-46574996D01*
X65719435Y-46575003D01*
X65739630Y-46754249D01*
X65739631Y-46754254D01*
X65799211Y-46924523D01*
X65848864Y-47003545D01*
X65895184Y-47077262D01*
X66022738Y-47204816D01*
X66066735Y-47232461D01*
X66175186Y-47300606D01*
X66175478Y-47300789D01*
X66260496Y-47330538D01*
X66345745Y-47360368D01*
X66345750Y-47360369D01*
X66524996Y-47380565D01*
X66525000Y-47380565D01*
X66525004Y-47380565D01*
X66704249Y-47360369D01*
X66704252Y-47360368D01*
X66704255Y-47360368D01*
X66874522Y-47300789D01*
X67027262Y-47204816D01*
X67154816Y-47077262D01*
X67250789Y-46924522D01*
X67310368Y-46754255D01*
X67310847Y-46750003D01*
X67330565Y-46575003D01*
X67330565Y-46574996D01*
X67310369Y-46395750D01*
X67310368Y-46395745D01*
X67252767Y-46231131D01*
X67250789Y-46225478D01*
X67246044Y-46217927D01*
X67154815Y-46072737D01*
X67027262Y-45945184D01*
X66874523Y-45849211D01*
X66704254Y-45789631D01*
X66704249Y-45789630D01*
X66525004Y-45769435D01*
X66524996Y-45769435D01*
X66345750Y-45789630D01*
X66345745Y-45789631D01*
X66175476Y-45849211D01*
X66022737Y-45945184D01*
X65895184Y-46072737D01*
X65799211Y-46225476D01*
X65739631Y-46395745D01*
X65739630Y-46395750D01*
X65719435Y-46574996D01*
X63587818Y-46574996D01*
X63590140Y-46568872D01*
X63610645Y-46400000D01*
X63590140Y-46231128D01*
X63529818Y-46072070D01*
X63516241Y-46052401D01*
X63489170Y-46013181D01*
X63433183Y-45932071D01*
X63338316Y-45848026D01*
X63305849Y-45819263D01*
X63155226Y-45740210D01*
X62990056Y-45699500D01*
X62819944Y-45699500D01*
X62654773Y-45740210D01*
X62504150Y-45819263D01*
X62376816Y-45932072D01*
X62280182Y-46072068D01*
X62280182Y-46072069D01*
X62219858Y-46231131D01*
X62219857Y-46231134D01*
X62219468Y-46234341D01*
X62218530Y-46236518D01*
X62218064Y-46238411D01*
X62217749Y-46238333D01*
X62191840Y-46298516D01*
X62184055Y-46307063D01*
X60461033Y-48030087D01*
X60399710Y-48063572D01*
X60373352Y-48066406D01*
X57808294Y-48066406D01*
X57750668Y-48052202D01*
X57617132Y-47982116D01*
X57451962Y-47941406D01*
X57281850Y-47941406D01*
X57116679Y-47982116D01*
X56966056Y-48061169D01*
X56838722Y-48173978D01*
X56742088Y-48313974D01*
X56681766Y-48473031D01*
X56681765Y-48473036D01*
X56661261Y-48641906D01*
X55964829Y-48641906D01*
X56011118Y-48519850D01*
X56031623Y-48350978D01*
X56011118Y-48182106D01*
X56008035Y-48173978D01*
X55967239Y-48066406D01*
X55950796Y-48023048D01*
X55922542Y-47982116D01*
X55894442Y-47941406D01*
X55854161Y-47883049D01*
X55726830Y-47770244D01*
X55726827Y-47770241D01*
X55681942Y-47746684D01*
X55631729Y-47698099D01*
X55615755Y-47630080D01*
X55639091Y-47564222D01*
X55694327Y-47521436D01*
X55698614Y-47519846D01*
X55753033Y-47500804D01*
X55824522Y-47475789D01*
X55977262Y-47379816D01*
X56104816Y-47252262D01*
X56200789Y-47099522D01*
X56260368Y-46929255D01*
X56260901Y-46924523D01*
X56280565Y-46750003D01*
X56280565Y-46749996D01*
X56260369Y-46570750D01*
X56260368Y-46570745D01*
X56250634Y-46542927D01*
X56200789Y-46400478D01*
X56182436Y-46371270D01*
X56151499Y-46322033D01*
X56104816Y-46247738D01*
X55977262Y-46120184D01*
X55910017Y-46077931D01*
X55824523Y-46024211D01*
X55654254Y-45964631D01*
X55654249Y-45964630D01*
X55475004Y-45944435D01*
X55474996Y-45944435D01*
X55295750Y-45964630D01*
X55295745Y-45964631D01*
X55125476Y-46024211D01*
X54972737Y-46120184D01*
X54845184Y-46247737D01*
X54749211Y-46400476D01*
X54689631Y-46570745D01*
X54689630Y-46570750D01*
X54669435Y-46749996D01*
X54669435Y-46750003D01*
X54689630Y-46929249D01*
X54689631Y-46929254D01*
X54749211Y-47099523D01*
X54845184Y-47252262D01*
X54972737Y-47379815D01*
X54972743Y-47379820D01*
X55110272Y-47466236D01*
X55156563Y-47518570D01*
X55167211Y-47587624D01*
X55138836Y-47651472D01*
X55082704Y-47688359D01*
X55082768Y-47688527D01*
X55082016Y-47688812D01*
X55080446Y-47689844D01*
X55076246Y-47691000D01*
X55075752Y-47691187D01*
X54925128Y-47770241D01*
X54797794Y-47883050D01*
X54701160Y-48023046D01*
X54640838Y-48182103D01*
X54640837Y-48182108D01*
X54620333Y-48350978D01*
X52674007Y-48350978D01*
X52702597Y-48252573D01*
X52702598Y-48252567D01*
X52705499Y-48215701D01*
X52705500Y-48215694D01*
X52705500Y-46634306D01*
X52702598Y-46597431D01*
X52702596Y-46597425D01*
X52702303Y-46595815D01*
X52702399Y-46594902D01*
X52702101Y-46591114D01*
X52702803Y-46591058D01*
X52709617Y-46526330D01*
X52753336Y-46471829D01*
X52801746Y-46453333D01*
X52801490Y-46452295D01*
X52808773Y-46450500D01*
X52973942Y-46409790D01*
X53084127Y-46351960D01*
X53124566Y-46330736D01*
X53124567Y-46330734D01*
X53124569Y-46330734D01*
X53251900Y-46217929D01*
X53348535Y-46077930D01*
X53408857Y-45918872D01*
X53429362Y-45750000D01*
X53408857Y-45581128D01*
X53348535Y-45422070D01*
X53342865Y-45413856D01*
X53302112Y-45354815D01*
X53251900Y-45282071D01*
X53157033Y-45198026D01*
X53124566Y-45169263D01*
X52973943Y-45090210D01*
X52808773Y-45049500D01*
X52638661Y-45049500D01*
X52473490Y-45090210D01*
X52322867Y-45169263D01*
X52195533Y-45282072D01*
X52098899Y-45422068D01*
X52038577Y-45581125D01*
X52038576Y-45581130D01*
X52018072Y-45749999D01*
X52037567Y-45910553D01*
X52026107Y-45979477D01*
X51979203Y-46031263D01*
X51914471Y-46049500D01*
X51689298Y-46049500D01*
X51652432Y-46052401D01*
X51652426Y-46052402D01*
X51494606Y-46098254D01*
X51494603Y-46098255D01*
X51353137Y-46181917D01*
X51346969Y-46186702D01*
X51345072Y-46184256D01*
X51296358Y-46210857D01*
X51226666Y-46205873D01*
X51194296Y-46185069D01*
X51193031Y-46186702D01*
X51186862Y-46181917D01*
X51045396Y-46098255D01*
X51045393Y-46098254D01*
X50887573Y-46052402D01*
X50887567Y-46052401D01*
X50850701Y-46049500D01*
X50850694Y-46049500D01*
X50810925Y-46049500D01*
X50743886Y-46029815D01*
X50705932Y-45991472D01*
X50610699Y-45839911D01*
X50610694Y-45839905D01*
X50483141Y-45712352D01*
X50330400Y-45616378D01*
X50294792Y-45603918D01*
X50238016Y-45563196D01*
X50212652Y-45501820D01*
X50211735Y-45494266D01*
X50210140Y-45481128D01*
X50149818Y-45322070D01*
X50122208Y-45282071D01*
X50100416Y-45250500D01*
X50053183Y-45182071D01*
X49925852Y-45069266D01*
X49925849Y-45069263D01*
X49775226Y-44990210D01*
X49610056Y-44949500D01*
X49439944Y-44949500D01*
X49274773Y-44990210D01*
X49124151Y-45069263D01*
X49124149Y-45069265D01*
X49056470Y-45129222D01*
X49043143Y-45139502D01*
X49035333Y-45144720D01*
X49035322Y-45144729D01*
X49009677Y-45170374D01*
X49004233Y-45175500D01*
X48996816Y-45182071D01*
X48991853Y-45187674D01*
X48991571Y-45187424D01*
X48986258Y-45193794D01*
X48166873Y-46013181D01*
X48105550Y-46046666D01*
X48079192Y-46049500D01*
X47879298Y-46049500D01*
X47842432Y-46052401D01*
X47842426Y-46052402D01*
X47684606Y-46098254D01*
X47684603Y-46098255D01*
X47543137Y-46181917D01*
X47543129Y-46181923D01*
X47426923Y-46298129D01*
X47426917Y-46298137D01*
X47343255Y-46439603D01*
X47343254Y-46439606D01*
X47297402Y-46597426D01*
X47297401Y-46597432D01*
X47294500Y-46634298D01*
X47294500Y-47990418D01*
X47274815Y-48057457D01*
X47222011Y-48103212D01*
X47211455Y-48107460D01*
X47101962Y-48145773D01*
X46949222Y-48241746D01*
X46821669Y-48369299D01*
X46725696Y-48522038D01*
X46666116Y-48692307D01*
X46666115Y-48692312D01*
X46645920Y-48871558D01*
X46111210Y-48871558D01*
X46228183Y-48767929D01*
X46324818Y-48627930D01*
X46385140Y-48468872D01*
X46405645Y-48300000D01*
X46385140Y-48131128D01*
X46380490Y-48118868D01*
X46359520Y-48063572D01*
X46324818Y-47972070D01*
X46228183Y-47832071D01*
X46100852Y-47719266D01*
X46100849Y-47719263D01*
X45950226Y-47640210D01*
X45785056Y-47599500D01*
X45614944Y-47599500D01*
X45449773Y-47640210D01*
X45299150Y-47719263D01*
X45171816Y-47832072D01*
X45075182Y-47972068D01*
X45075180Y-47972074D01*
X45047856Y-48044119D01*
X45005678Y-48099822D01*
X44989543Y-48109942D01*
X44924151Y-48144263D01*
X44924148Y-48144266D01*
X44814116Y-48241746D01*
X44796816Y-48257072D01*
X44700182Y-48397068D01*
X44700182Y-48397069D01*
X44646380Y-48538934D01*
X44618119Y-48582644D01*
X44382569Y-48818195D01*
X44270764Y-48929999D01*
X44270762Y-48930001D01*
X44253566Y-48959788D01*
X44242840Y-48978366D01*
X44191706Y-49066932D01*
X44150782Y-49219660D01*
X44150782Y-49219662D01*
X44150782Y-49387763D01*
X44150783Y-49387776D01*
X44150783Y-56339613D01*
X44150782Y-56339631D01*
X44150782Y-56505337D01*
X44150781Y-56505337D01*
X29200500Y-56505337D01*
X29200500Y-54654997D01*
X36642417Y-54654997D01*
X36642417Y-54655004D01*
X36662612Y-54834250D01*
X36662613Y-54834255D01*
X36722193Y-55004524D01*
X36767158Y-55076085D01*
X36818166Y-55157263D01*
X36945720Y-55284817D01*
X37098460Y-55380790D01*
X37229512Y-55426647D01*
X37268727Y-55440369D01*
X37268732Y-55440370D01*
X37447978Y-55460566D01*
X37447982Y-55460566D01*
X37447986Y-55460566D01*
X37627231Y-55440370D01*
X37627234Y-55440369D01*
X37627237Y-55440369D01*
X37797504Y-55380790D01*
X37950244Y-55284817D01*
X38077798Y-55157263D01*
X38173771Y-55004523D01*
X38233350Y-54834256D01*
X38236445Y-54806789D01*
X38253547Y-54655004D01*
X38253547Y-54654997D01*
X38233351Y-54475751D01*
X38233350Y-54475746D01*
X38207533Y-54401965D01*
X38173771Y-54305479D01*
X38170642Y-54300500D01*
X38134564Y-54243081D01*
X38077798Y-54152739D01*
X37950244Y-54025185D01*
X37913522Y-54002111D01*
X37797505Y-53929212D01*
X37627236Y-53869632D01*
X37627231Y-53869631D01*
X37447986Y-53849436D01*
X37447978Y-53849436D01*
X37268732Y-53869631D01*
X37268727Y-53869632D01*
X37098458Y-53929212D01*
X36945719Y-54025185D01*
X36818166Y-54152738D01*
X36722193Y-54305477D01*
X36662613Y-54475746D01*
X36662612Y-54475751D01*
X36642417Y-54654997D01*
X29200500Y-54654997D01*
X29200500Y-54047399D01*
X35004500Y-54047399D01*
X35004500Y-54172601D01*
X35036905Y-54293536D01*
X35099505Y-54401964D01*
X35188036Y-54490495D01*
X35296464Y-54553095D01*
X35417399Y-54585500D01*
X35417401Y-54585500D01*
X35542599Y-54585500D01*
X35542601Y-54585500D01*
X35663536Y-54553095D01*
X35771964Y-54490495D01*
X35860495Y-54401964D01*
X35923095Y-54293536D01*
X35955500Y-54172601D01*
X35955500Y-54047399D01*
X35923095Y-53926464D01*
X35860495Y-53818036D01*
X35771964Y-53729505D01*
X35663536Y-53666905D01*
X35663537Y-53666905D01*
X35623224Y-53656103D01*
X35542601Y-53634500D01*
X35417399Y-53634500D01*
X35336775Y-53656103D01*
X35296463Y-53666905D01*
X35188037Y-53729504D01*
X35188034Y-53729506D01*
X35099506Y-53818034D01*
X35099504Y-53818037D01*
X35036905Y-53926463D01*
X35033398Y-53939551D01*
X35004500Y-54047399D01*
X29200500Y-54047399D01*
X29200500Y-52911898D01*
X29220185Y-52844859D01*
X29272989Y-52799104D01*
X29342147Y-52789160D01*
X29397381Y-52811578D01*
X29496176Y-52883356D01*
X29497270Y-52884151D01*
X29670192Y-52961142D01*
X29670197Y-52961144D01*
X29855354Y-53000500D01*
X29855355Y-53000500D01*
X30044644Y-53000500D01*
X30044646Y-53000500D01*
X30229803Y-52961144D01*
X30402730Y-52884151D01*
X30555871Y-52772888D01*
X30682533Y-52632216D01*
X30777179Y-52468284D01*
X30835674Y-52288256D01*
X30855460Y-52100000D01*
X30835674Y-51911744D01*
X30777179Y-51731716D01*
X30682533Y-51567784D01*
X30682530Y-51567781D01*
X30681066Y-51565765D01*
X30680577Y-51564397D01*
X30679284Y-51562156D01*
X30679693Y-51561919D01*
X30657585Y-51499960D01*
X30673409Y-51431905D01*
X30708502Y-51392557D01*
X30718371Y-51385388D01*
X30845033Y-51244716D01*
X30939679Y-51080784D01*
X30978165Y-50962335D01*
X31017602Y-50904661D01*
X31081961Y-50877462D01*
X31150807Y-50889376D01*
X31202283Y-50936620D01*
X31214027Y-50962336D01*
X31272818Y-51143277D01*
X31272821Y-51143284D01*
X31367467Y-51307216D01*
X31439326Y-51387023D01*
X31494129Y-51447888D01*
X31647265Y-51559148D01*
X31647270Y-51559151D01*
X31820192Y-51636142D01*
X31820197Y-51636144D01*
X32005354Y-51675500D01*
X32005355Y-51675500D01*
X32194644Y-51675500D01*
X32194646Y-51675500D01*
X32379803Y-51636144D01*
X32552730Y-51559151D01*
X32705871Y-51447888D01*
X32832533Y-51307216D01*
X32927179Y-51143284D01*
X32985674Y-50963256D01*
X33005460Y-50775000D01*
X33005459Y-50774998D01*
X33006139Y-50768537D01*
X33008980Y-50768835D01*
X33025145Y-50713785D01*
X33077949Y-50668030D01*
X33147107Y-50658086D01*
X33155230Y-50659532D01*
X33230354Y-50675500D01*
X33230355Y-50675500D01*
X33419644Y-50675500D01*
X33419646Y-50675500D01*
X33604803Y-50636144D01*
X33777730Y-50559151D01*
X33930871Y-50447888D01*
X34057533Y-50307216D01*
X34152179Y-50143284D01*
X34210674Y-49963256D01*
X34230460Y-49775000D01*
X34210674Y-49586744D01*
X34152179Y-49406716D01*
X34057533Y-49242784D01*
X33930871Y-49102112D01*
X33920020Y-49094228D01*
X33777734Y-48990851D01*
X33777729Y-48990848D01*
X33604807Y-48913857D01*
X33604802Y-48913855D01*
X33459001Y-48882865D01*
X33419646Y-48874500D01*
X33230354Y-48874500D01*
X33201025Y-48880734D01*
X33045197Y-48913855D01*
X33045192Y-48913857D01*
X32872270Y-48990848D01*
X32872265Y-48990851D01*
X32719129Y-49102111D01*
X32592466Y-49242785D01*
X32497821Y-49406715D01*
X32497818Y-49406722D01*
X32439327Y-49586740D01*
X32439326Y-49586744D01*
X32419540Y-49775000D01*
X32418861Y-49781463D01*
X32416019Y-49781164D01*
X32399855Y-49836214D01*
X32347051Y-49881969D01*
X32277893Y-49891913D01*
X32269764Y-49890466D01*
X32194646Y-49874500D01*
X32005354Y-49874500D01*
X31972897Y-49881398D01*
X31820197Y-49913855D01*
X31820192Y-49913857D01*
X31647270Y-49990848D01*
X31647265Y-49990851D01*
X31494129Y-50102111D01*
X31367466Y-50242785D01*
X31272821Y-50406715D01*
X31272819Y-50406719D01*
X31234334Y-50525164D01*
X31194896Y-50582839D01*
X31130537Y-50610037D01*
X31061691Y-50598122D01*
X31010215Y-50550878D01*
X30998472Y-50525163D01*
X30998174Y-50524246D01*
X30998174Y-50524244D01*
X30958418Y-50401889D01*
X30939681Y-50344221D01*
X30939678Y-50344215D01*
X30918317Y-50307216D01*
X30845033Y-50180284D01*
X30718371Y-50039612D01*
X30718367Y-50039609D01*
X30565234Y-49928351D01*
X30565229Y-49928348D01*
X30392307Y-49851357D01*
X30392302Y-49851355D01*
X30246501Y-49820365D01*
X30207146Y-49812000D01*
X30017854Y-49812000D01*
X29985397Y-49818898D01*
X29832697Y-49851355D01*
X29832692Y-49851357D01*
X29659770Y-49928348D01*
X29659765Y-49928351D01*
X29506632Y-50039609D01*
X29506629Y-50039611D01*
X29506629Y-50039612D01*
X29450355Y-50102111D01*
X29416650Y-50139544D01*
X29357163Y-50176192D01*
X29287306Y-50174861D01*
X29229258Y-50135974D01*
X29201448Y-50071878D01*
X29200500Y-50056571D01*
X29200500Y-47950000D01*
X42569355Y-47950000D01*
X42589859Y-48118869D01*
X42589860Y-48118874D01*
X42650182Y-48277931D01*
X42675063Y-48313976D01*
X42746817Y-48417929D01*
X42824526Y-48486773D01*
X42874150Y-48530736D01*
X43019594Y-48607071D01*
X43024775Y-48609790D01*
X43189944Y-48650500D01*
X43360056Y-48650500D01*
X43525225Y-48609790D01*
X43617109Y-48561565D01*
X43675849Y-48530736D01*
X43675850Y-48530734D01*
X43675852Y-48530734D01*
X43803183Y-48417929D01*
X43899818Y-48277930D01*
X43960140Y-48118872D01*
X43967354Y-48059455D01*
X43994975Y-47995278D01*
X44052909Y-47956221D01*
X44076565Y-47951182D01*
X44137913Y-47944270D01*
X44205532Y-47936652D01*
X44205535Y-47936651D01*
X44205538Y-47936651D01*
X44375805Y-47877072D01*
X44528545Y-47781099D01*
X44656099Y-47653545D01*
X44752072Y-47500805D01*
X44802258Y-47357379D01*
X44842978Y-47300606D01*
X44878340Y-47281296D01*
X45033305Y-47227072D01*
X45186045Y-47131099D01*
X45313599Y-47003545D01*
X45409572Y-46850805D01*
X45469151Y-46680538D01*
X45469152Y-46680532D01*
X45489348Y-46501286D01*
X45489348Y-46501279D01*
X45469152Y-46322033D01*
X45469151Y-46322028D01*
X45409572Y-46151761D01*
X45313599Y-45999021D01*
X45186045Y-45871467D01*
X45135816Y-45839906D01*
X45033306Y-45775494D01*
X44863037Y-45715914D01*
X44863032Y-45715913D01*
X44683787Y-45695718D01*
X44683779Y-45695718D01*
X44504533Y-45715913D01*
X44504528Y-45715914D01*
X44334259Y-45775494D01*
X44181520Y-45871467D01*
X44053967Y-45999020D01*
X43957994Y-46151760D01*
X43907808Y-46295184D01*
X43867086Y-46351960D01*
X43831721Y-46371270D01*
X43676763Y-46425492D01*
X43524020Y-46521467D01*
X43396467Y-46649020D01*
X43300494Y-46801759D01*
X43240914Y-46972028D01*
X43240913Y-46972033D01*
X43219938Y-47158202D01*
X43216874Y-47157856D01*
X43201033Y-47211805D01*
X43148229Y-47257560D01*
X43126393Y-47265163D01*
X43024773Y-47290210D01*
X42874150Y-47369263D01*
X42746816Y-47482072D01*
X42650182Y-47622068D01*
X42589860Y-47781125D01*
X42589859Y-47781130D01*
X42569355Y-47950000D01*
X29200500Y-47950000D01*
X29200500Y-46075000D01*
X33541855Y-46075000D01*
X33562359Y-46243869D01*
X33562360Y-46243874D01*
X33622682Y-46402931D01*
X33655517Y-46450500D01*
X33719317Y-46542929D01*
X33822452Y-46634298D01*
X33846650Y-46655736D01*
X33984206Y-46727931D01*
X33997275Y-46734790D01*
X34162444Y-46775500D01*
X34332556Y-46775500D01*
X34497725Y-46734790D01*
X34577192Y-46693081D01*
X34648349Y-46655736D01*
X34648350Y-46655734D01*
X34648352Y-46655734D01*
X34775683Y-46542929D01*
X34872318Y-46402930D01*
X34932640Y-46243872D01*
X34953145Y-46075000D01*
X34932640Y-45906128D01*
X34872318Y-45747070D01*
X34850812Y-45715914D01*
X34836872Y-45695718D01*
X34775683Y-45607071D01*
X34648352Y-45494266D01*
X34648349Y-45494263D01*
X34497726Y-45415210D01*
X34332556Y-45374500D01*
X34162444Y-45374500D01*
X33997273Y-45415210D01*
X33846650Y-45494263D01*
X33719316Y-45607072D01*
X33622682Y-45747068D01*
X33562360Y-45906125D01*
X33562359Y-45906130D01*
X33541855Y-46075000D01*
X29200500Y-46075000D01*
X29200500Y-42000000D01*
X35457040Y-42000000D01*
X35476826Y-42188256D01*
X35476827Y-42188259D01*
X35535318Y-42368277D01*
X35535321Y-42368284D01*
X35629967Y-42532216D01*
X35756629Y-42672888D01*
X35909765Y-42784148D01*
X35909770Y-42784151D01*
X36082692Y-42861142D01*
X36082697Y-42861144D01*
X36267854Y-42900500D01*
X36267855Y-42900500D01*
X36457144Y-42900500D01*
X36457146Y-42900500D01*
X36642303Y-42861144D01*
X36815230Y-42784151D01*
X36968371Y-42672888D01*
X37095033Y-42532216D01*
X37189679Y-42368284D01*
X37248174Y-42188256D01*
X37267960Y-42000000D01*
X62732040Y-42000000D01*
X62751826Y-42188256D01*
X62751827Y-42188259D01*
X62810318Y-42368277D01*
X62810321Y-42368284D01*
X62904967Y-42532216D01*
X63031629Y-42672888D01*
X63184765Y-42784148D01*
X63184770Y-42784151D01*
X63357692Y-42861142D01*
X63357697Y-42861144D01*
X63542854Y-42900500D01*
X63542855Y-42900500D01*
X63732144Y-42900500D01*
X63732146Y-42900500D01*
X63917303Y-42861144D01*
X64090230Y-42784151D01*
X64243371Y-42672888D01*
X64370033Y-42532216D01*
X64464679Y-42368284D01*
X64523174Y-42188256D01*
X64542960Y-42000000D01*
X64523174Y-41811744D01*
X64464679Y-41631716D01*
X64370033Y-41467784D01*
X64243371Y-41327112D01*
X64243370Y-41327111D01*
X64090234Y-41215851D01*
X64090229Y-41215848D01*
X63917307Y-41138857D01*
X63917302Y-41138855D01*
X63771501Y-41107865D01*
X63732146Y-41099500D01*
X63542854Y-41099500D01*
X63510397Y-41106398D01*
X63357697Y-41138855D01*
X63357692Y-41138857D01*
X63184770Y-41215848D01*
X63184765Y-41215851D01*
X63031629Y-41327111D01*
X62904966Y-41467785D01*
X62810321Y-41631715D01*
X62810318Y-41631722D01*
X62751827Y-41811740D01*
X62751826Y-41811744D01*
X62732040Y-42000000D01*
X37267960Y-42000000D01*
X37248174Y-41811744D01*
X37189679Y-41631716D01*
X37095033Y-41467784D01*
X36968371Y-41327112D01*
X36968370Y-41327111D01*
X36815234Y-41215851D01*
X36815229Y-41215848D01*
X36642307Y-41138857D01*
X36642302Y-41138855D01*
X36496501Y-41107865D01*
X36457146Y-41099500D01*
X36267854Y-41099500D01*
X36235397Y-41106398D01*
X36082697Y-41138855D01*
X36082692Y-41138857D01*
X35909770Y-41215848D01*
X35909765Y-41215851D01*
X35756629Y-41327111D01*
X35629966Y-41467785D01*
X35535321Y-41631715D01*
X35535318Y-41631722D01*
X35476827Y-41811740D01*
X35476826Y-41811744D01*
X35457040Y-42000000D01*
X29200500Y-42000000D01*
X29200500Y-33134412D01*
X29220185Y-33067373D01*
X29236819Y-33046731D01*
X33046731Y-29236819D01*
X33108054Y-29203334D01*
X33134412Y-29200500D01*
X41511774Y-29200500D01*
X41578813Y-29220185D01*
G37*
%TD.AperFunction*%
%TA.AperFunction,Conductor*%
G36*
X37693826Y-31360185D02*
G01*
X37739581Y-31412989D01*
X37749525Y-31482147D01*
X37744718Y-31502818D01*
X37712979Y-31600500D01*
X37709326Y-31611744D01*
X37689540Y-31800000D01*
X37709326Y-31988256D01*
X37709327Y-31988259D01*
X37767818Y-32168277D01*
X37767820Y-32168281D01*
X37767821Y-32168284D01*
X37801671Y-32226914D01*
X37808072Y-32238001D01*
X37824543Y-32305901D01*
X37808072Y-32361998D01*
X37769762Y-32428355D01*
X37767820Y-32431718D01*
X37767818Y-32431722D01*
X37727346Y-32556284D01*
X37709326Y-32611744D01*
X37689540Y-32800000D01*
X37709326Y-32988256D01*
X37709327Y-32988259D01*
X37710006Y-32994719D01*
X37708672Y-32994859D01*
X37703897Y-33057406D01*
X37661758Y-33113138D01*
X37596177Y-33137240D01*
X37527976Y-33122060D01*
X37478809Y-33072418D01*
X37478370Y-33071598D01*
X37332215Y-32795922D01*
X37332213Y-32795919D01*
X37332211Y-32795915D01*
X37131365Y-32499689D01*
X37131361Y-32499684D01*
X37131358Y-32499680D01*
X36899668Y-32226914D01*
X36837770Y-32168281D01*
X36639837Y-31980789D01*
X36639830Y-31980783D01*
X36639827Y-31980781D01*
X36572245Y-31929407D01*
X36354919Y-31764200D01*
X36179418Y-31658604D01*
X36048254Y-31579685D01*
X36045236Y-31578289D01*
X36042533Y-31577039D01*
X35989957Y-31531025D01*
X35970603Y-31463890D01*
X35990617Y-31396948D01*
X36043645Y-31351454D01*
X36094601Y-31340500D01*
X37626787Y-31340500D01*
X37693826Y-31360185D01*
G37*
%TD.AperFunction*%
%TA.AperFunction,Conductor*%
G36*
X66932627Y-29220185D02*
G01*
X66953269Y-29236819D01*
X68037398Y-30320948D01*
X68070883Y-30382271D01*
X68065899Y-30451963D01*
X68024027Y-30507896D01*
X67958563Y-30532313D01*
X67890290Y-30517461D01*
X67887718Y-30516017D01*
X67806904Y-30469360D01*
X67806904Y-30469359D01*
X67806900Y-30469358D01*
X67756785Y-30440423D01*
X67604057Y-30399499D01*
X67445943Y-30399499D01*
X67438347Y-30399499D01*
X67438331Y-30399500D01*
X66525097Y-30399500D01*
X66458058Y-30379815D01*
X66437416Y-30363181D01*
X65486416Y-29412181D01*
X65452931Y-29350858D01*
X65457915Y-29281166D01*
X65499787Y-29225233D01*
X65565251Y-29200816D01*
X65574097Y-29200500D01*
X66865588Y-29200500D01*
X66932627Y-29220185D01*
G37*
%TD.AperFunction*%
%TD*%
M02*
