%TF.GenerationSoftware,KiCad,Pcbnew,8.0.8*%
%TF.CreationDate,2025-02-17T00:55:54-08:00*%
%TF.ProjectId,Integrated FOC Stepper Driver,496e7465-6772-4617-9465-6420464f4320,rev?*%
%TF.SameCoordinates,Original*%
%TF.FileFunction,Copper,L3,Inr*%
%TF.FilePolarity,Positive*%
%FSLAX46Y46*%
G04 Gerber Fmt 4.6, Leading zero omitted, Abs format (unit mm)*
G04 Created by KiCad (PCBNEW 8.0.8) date 2025-02-17 00:55:54*
%MOMM*%
%LPD*%
G01*
G04 APERTURE LIST*
G04 Aperture macros list*
%AMRoundRect*
0 Rectangle with rounded corners*
0 $1 Rounding radius*
0 $2 $3 $4 $5 $6 $7 $8 $9 X,Y pos of 4 corners*
0 Add a 4 corners polygon primitive as box body*
4,1,4,$2,$3,$4,$5,$6,$7,$8,$9,$2,$3,0*
0 Add four circle primitives for the rounded corners*
1,1,$1+$1,$2,$3*
1,1,$1+$1,$4,$5*
1,1,$1+$1,$6,$7*
1,1,$1+$1,$8,$9*
0 Add four rect primitives between the rounded corners*
20,1,$1+$1,$2,$3,$4,$5,0*
20,1,$1+$1,$4,$5,$6,$7,0*
20,1,$1+$1,$6,$7,$8,$9,0*
20,1,$1+$1,$8,$9,$2,$3,0*%
G04 Aperture macros list end*
%TA.AperFunction,ComponentPad*%
%ADD10C,5.600000*%
%TD*%
%TA.AperFunction,ComponentPad*%
%ADD11R,1.700000X1.700000*%
%TD*%
%TA.AperFunction,ComponentPad*%
%ADD12O,1.700000X1.700000*%
%TD*%
%TA.AperFunction,ComponentPad*%
%ADD13RoundRect,0.250000X-0.350000X-0.625000X0.350000X-0.625000X0.350000X0.625000X-0.350000X0.625000X0*%
%TD*%
%TA.AperFunction,ComponentPad*%
%ADD14O,1.200000X1.750000*%
%TD*%
%TA.AperFunction,HeatsinkPad*%
%ADD15O,2.100000X1.000000*%
%TD*%
%TA.AperFunction,HeatsinkPad*%
%ADD16O,1.800000X1.000000*%
%TD*%
%TA.AperFunction,ComponentPad*%
%ADD17C,0.600000*%
%TD*%
%TA.AperFunction,ViaPad*%
%ADD18C,0.600000*%
%TD*%
%TA.AperFunction,ViaPad*%
%ADD19C,0.400000*%
%TD*%
%TA.AperFunction,ViaPad*%
%ADD20C,0.800000*%
%TD*%
%TA.AperFunction,Conductor*%
%ADD21C,0.200000*%
%TD*%
%TA.AperFunction,Conductor*%
%ADD22C,0.150000*%
%TD*%
%TA.AperFunction,Conductor*%
%ADD23C,0.500000*%
%TD*%
G04 APERTURE END LIST*
D10*
%TO.N,N/C*%
%TO.C,H4*%
X34500000Y-65500000D03*
%TD*%
%TO.N,N/C*%
%TO.C,H3*%
X65500000Y-65500000D03*
%TD*%
D11*
%TO.N,/CAN_H*%
%TO.C,J5*%
X53740000Y-60850000D03*
D12*
%TO.N,Net-(J5-Pin_2)*%
X51200000Y-60850000D03*
%TD*%
D13*
%TO.N,VBUS*%
%TO.C,J1*%
X41500000Y-64500000D03*
D14*
%TO.N,/CAN_H*%
X43500000Y-64500000D03*
%TO.N,/CAN_L*%
X45500000Y-64500000D03*
%TO.N,GND*%
X47500000Y-64500000D03*
%TD*%
D10*
%TO.N,N/C*%
%TO.C,H2*%
X65500000Y-34500000D03*
%TD*%
%TO.N,N/C*%
%TO.C,H1*%
X34500000Y-34500000D03*
%TD*%
D15*
%TO.N,GND*%
%TO.C,J2*%
X36000000Y-52680000D03*
D16*
X31800000Y-52680000D03*
D15*
X36000000Y-61320000D03*
D16*
X31800000Y-61320000D03*
%TD*%
D17*
%TO.N,GND*%
%TO.C,U7*%
X57550000Y-35650000D03*
X58850000Y-35650000D03*
X60150000Y-35650000D03*
X61450000Y-35650000D03*
X57550000Y-34350000D03*
X58850000Y-34350000D03*
X60150000Y-34350000D03*
X61450000Y-34350000D03*
%TD*%
D13*
%TO.N,VBUS*%
%TO.C,J3*%
X52500000Y-64500000D03*
D14*
%TO.N,/CAN_H*%
X54500000Y-64500000D03*
%TO.N,/CAN_L*%
X56500000Y-64500000D03*
%TO.N,GND*%
X58500000Y-64500000D03*
%TD*%
D17*
%TO.N,GND*%
%TO.C,U8*%
X38550000Y-35650000D03*
X39850000Y-35650000D03*
X41150000Y-35650000D03*
X42450000Y-35650000D03*
X38550000Y-34350000D03*
X39850000Y-34350000D03*
X41150000Y-34350000D03*
X42450000Y-34350000D03*
%TD*%
D18*
%TO.N,+3.3V*%
X55475000Y-46750000D03*
D19*
X48451283Y-55248717D03*
D20*
X29950000Y-52100000D03*
X42450000Y-37725000D03*
D19*
X47336971Y-51248815D03*
X55325978Y-48350978D03*
D20*
X49950000Y-54675000D03*
D18*
X66525000Y-46575000D03*
D19*
X43275000Y-47950000D03*
D20*
X30112500Y-50712500D03*
D19*
X51904999Y-52575000D03*
X49126283Y-55923717D03*
D20*
X70100000Y-46275000D03*
D19*
X51551283Y-55098717D03*
X62905000Y-53600000D03*
D18*
X33650000Y-39550000D03*
D19*
X51480259Y-47800908D03*
X52723717Y-45750000D03*
X64467500Y-53600000D03*
X45201283Y-51923717D03*
D18*
X69650000Y-55550000D03*
D19*
X45876283Y-52598717D03*
D20*
X33325000Y-49775000D03*
D19*
X48130136Y-48699999D03*
D20*
X61475000Y-37650000D03*
X32100000Y-50775000D03*
%TO.N,GND*%
X50000000Y-51000000D03*
D18*
X49675000Y-43825000D03*
X55200000Y-55975000D03*
X68875000Y-51700000D03*
X39375000Y-56875000D03*
X66350000Y-60450000D03*
X36975000Y-37975000D03*
X31850000Y-54975000D03*
X56850000Y-44725000D03*
X46600000Y-60450000D03*
D20*
X41637500Y-42000000D03*
D18*
X33600000Y-30250000D03*
X42875000Y-49375000D03*
X50000000Y-63775000D03*
X55200000Y-36075000D03*
X54476283Y-54176283D03*
X36600000Y-69425000D03*
X42575000Y-56100000D03*
X30450000Y-33250000D03*
D20*
X40549999Y-60373289D03*
D18*
X33950000Y-60175000D03*
X58850000Y-55650000D03*
X57025000Y-52200000D03*
X61725000Y-62000000D03*
X68900000Y-50025000D03*
X50075000Y-56925000D03*
X53400000Y-42200000D03*
D20*
X51000000Y-50000000D03*
D18*
X68775000Y-37800000D03*
X67900000Y-58100000D03*
D20*
X39865000Y-32300000D03*
D18*
X38175000Y-49475000D03*
X48678858Y-42848223D03*
X43525000Y-68075000D03*
X66550000Y-29975000D03*
X31850000Y-46775000D03*
X37350000Y-31925000D03*
X60875000Y-49850000D03*
D20*
X49000000Y-50000000D03*
X58865000Y-32300000D03*
D18*
X42900000Y-52875000D03*
D20*
X58362500Y-42000000D03*
X50000000Y-50000000D03*
D18*
%TO.N,+1V1*%
X44683783Y-46501283D03*
X47451485Y-48871562D03*
X44026283Y-47151283D03*
X52157530Y-51207761D03*
D20*
%TO.N,VBUS*%
X63637500Y-42000000D03*
X61405000Y-32300000D03*
X36362500Y-42000000D03*
X42362500Y-29900000D03*
X42309881Y-32750000D03*
%TO.N,/B2*%
X49000000Y-36600000D03*
X38595000Y-32800000D03*
X38595000Y-31800000D03*
%TO.N,/B1*%
X41135000Y-31800000D03*
X47000000Y-36600000D03*
X41135000Y-32800000D03*
%TO.N,/A2*%
X57595000Y-31800000D03*
X53000000Y-36600000D03*
X57595000Y-32800000D03*
%TO.N,/A1*%
X60135000Y-32800000D03*
X51000000Y-36600000D03*
X60135000Y-31800000D03*
D19*
%TO.N,/NEOPIXEL*%
X34247500Y-46075000D03*
D18*
X49980879Y-46342168D03*
D19*
%TO.N,/QSPI_SS*%
X62905000Y-46400000D03*
X57366906Y-48641906D03*
%TO.N,/RUN*%
X69000000Y-48300000D03*
X45700000Y-48300000D03*
%TO.N,/A_CURRENT*%
X47609997Y-54150000D03*
X55272500Y-39575000D03*
%TO.N,/B_CURRENT*%
X48100000Y-54150000D03*
D20*
X38575000Y-37675000D03*
X51827500Y-39575000D03*
%TO.N,+5V*%
X57650000Y-57150000D03*
X33750000Y-58200000D03*
X44125000Y-61925000D03*
D19*
%TO.N,/SCL*%
X50635000Y-47425000D03*
%TO.N,/MT6701_PUSH*%
X49525000Y-45650000D03*
%TO.N,/SDA*%
X52225000Y-49075000D03*
%TO.N,/CAN_TX*%
X60155000Y-56475000D03*
X53370756Y-49768219D03*
D18*
%TO.N,/CAN_S*%
X46400000Y-58075000D03*
D19*
X45325000Y-48725000D03*
%TO.N,/CAN_RX*%
X56345000Y-56475000D03*
X52825000Y-49700000D03*
D18*
%TO.N,/MT6701_ANALOG*%
X49350000Y-53225000D03*
D20*
%TO.N,/VUSB*%
X42100000Y-59925000D03*
D18*
X37447981Y-59344999D03*
X37447982Y-54655001D03*
%TO.N,Net-(D1-DOUT)*%
X69650000Y-60450000D03*
X30325000Y-38850000D03*
D20*
%TO.N,/CAN_L*%
X57615000Y-61425000D03*
%TD*%
D21*
%TO.N,+1V1*%
X47451485Y-48871562D02*
X47451485Y-49376485D01*
X45081206Y-46501283D02*
X44683783Y-46501283D01*
X49700000Y-51625000D02*
X51740291Y-51625000D01*
X47451485Y-49376485D02*
X49700000Y-51625000D01*
X51740291Y-51625000D02*
X52157530Y-51207761D01*
X47451485Y-48871562D02*
X45081206Y-46501283D01*
%TO.N,/NEOPIXEL*%
X49980879Y-46342168D02*
X49292168Y-46342168D01*
X35300000Y-43250000D02*
X34247500Y-44302500D01*
X34247500Y-44302500D02*
X34247500Y-46075000D01*
X49292168Y-46342168D02*
X46200000Y-43250000D01*
X46200000Y-43250000D02*
X35300000Y-43250000D01*
D22*
%TO.N,/RUN*%
X46000233Y-48300000D02*
X50775233Y-53075000D01*
X45700000Y-48300000D02*
X46000233Y-48300000D01*
X50775233Y-53075000D02*
X64225000Y-53075000D01*
X64225000Y-53075000D02*
X69000000Y-48300000D01*
D23*
%TO.N,/B_CURRENT*%
X40475000Y-39575000D02*
X51827500Y-39575000D01*
X38575000Y-37675000D02*
X40475000Y-39575000D01*
%TO.N,+5V*%
X33750000Y-58200000D02*
X41435661Y-58200000D01*
X41435661Y-58200000D02*
X44125000Y-60889339D01*
X44125000Y-60889339D02*
X44125000Y-61925000D01*
%TD*%
%TA.AperFunction,Conductor*%
%TO.N,GND*%
G36*
X41578813Y-29220185D02*
G01*
X41624568Y-29272989D01*
X41634512Y-29342147D01*
X41619161Y-29386500D01*
X41535321Y-29531715D01*
X41535318Y-29531722D01*
X41476827Y-29711740D01*
X41476826Y-29711744D01*
X41457040Y-29900000D01*
X41476826Y-30088256D01*
X41476827Y-30088259D01*
X41535318Y-30268277D01*
X41535321Y-30268284D01*
X41629967Y-30432216D01*
X41756629Y-30572888D01*
X41909765Y-30684148D01*
X41909770Y-30684151D01*
X42082692Y-30761142D01*
X42082697Y-30761144D01*
X42267854Y-30800500D01*
X42267855Y-30800500D01*
X42457144Y-30800500D01*
X42457146Y-30800500D01*
X42642303Y-30761144D01*
X42815230Y-30684151D01*
X42968371Y-30572888D01*
X43095033Y-30432216D01*
X43189679Y-30268284D01*
X43248174Y-30088256D01*
X43267960Y-29900000D01*
X43248174Y-29711744D01*
X43189679Y-29531716D01*
X43105839Y-29386500D01*
X43089366Y-29318599D01*
X43112219Y-29252573D01*
X43167140Y-29209382D01*
X43213226Y-29200500D01*
X66865588Y-29200500D01*
X66932627Y-29220185D01*
X66953269Y-29236819D01*
X70763181Y-33046731D01*
X70796666Y-33108054D01*
X70799500Y-33134412D01*
X70799500Y-45426773D01*
X70779815Y-45493812D01*
X70727011Y-45539567D01*
X70657853Y-45549511D01*
X70602616Y-45527092D01*
X70552733Y-45490851D01*
X70552729Y-45490848D01*
X70379807Y-45413857D01*
X70379802Y-45413855D01*
X70234001Y-45382865D01*
X70194646Y-45374500D01*
X70005354Y-45374500D01*
X69972897Y-45381398D01*
X69820197Y-45413855D01*
X69820192Y-45413857D01*
X69647270Y-45490848D01*
X69647265Y-45490851D01*
X69494129Y-45602111D01*
X69367466Y-45742785D01*
X69272821Y-45906715D01*
X69272818Y-45906722D01*
X69214327Y-46086740D01*
X69214326Y-46086744D01*
X69194540Y-46275000D01*
X69214326Y-46463256D01*
X69214327Y-46463259D01*
X69272818Y-46643277D01*
X69272821Y-46643284D01*
X69367467Y-46807216D01*
X69452581Y-46901744D01*
X69494129Y-46947888D01*
X69647265Y-47059148D01*
X69647270Y-47059151D01*
X69820192Y-47136142D01*
X69820197Y-47136144D01*
X70005354Y-47175500D01*
X70005355Y-47175500D01*
X70194644Y-47175500D01*
X70194646Y-47175500D01*
X70379803Y-47136144D01*
X70552730Y-47059151D01*
X70561709Y-47052626D01*
X70602615Y-47022908D01*
X70668421Y-46999428D01*
X70736475Y-47015253D01*
X70785170Y-47065359D01*
X70799500Y-47123226D01*
X70799500Y-66865588D01*
X70779815Y-66932627D01*
X70763181Y-66953269D01*
X66953269Y-70763181D01*
X66891946Y-70796666D01*
X66865588Y-70799500D01*
X33134412Y-70799500D01*
X33067373Y-70779815D01*
X33046731Y-70763181D01*
X29236819Y-66953269D01*
X29203334Y-66891946D01*
X29200500Y-66865588D01*
X29200500Y-65499997D01*
X31194652Y-65499997D01*
X31194652Y-65500002D01*
X31196249Y-65529457D01*
X31211449Y-65809812D01*
X31214028Y-65857368D01*
X31214029Y-65857385D01*
X31271926Y-66210539D01*
X31271932Y-66210565D01*
X31367672Y-66555392D01*
X31367674Y-66555399D01*
X31500142Y-66887870D01*
X31500151Y-66887888D01*
X31667784Y-67204077D01*
X31667790Y-67204086D01*
X31868634Y-67500309D01*
X31868641Y-67500319D01*
X32100331Y-67773085D01*
X32100332Y-67773086D01*
X32360163Y-68019211D01*
X32645081Y-68235800D01*
X32951747Y-68420315D01*
X32951749Y-68420316D01*
X32951751Y-68420317D01*
X32951755Y-68420319D01*
X33276552Y-68570585D01*
X33276565Y-68570591D01*
X33615726Y-68684868D01*
X33965254Y-68761805D01*
X34321052Y-68800500D01*
X34321058Y-68800500D01*
X34678942Y-68800500D01*
X34678948Y-68800500D01*
X35034746Y-68761805D01*
X35384274Y-68684868D01*
X35723435Y-68570591D01*
X36048253Y-68420315D01*
X36354919Y-68235800D01*
X36639837Y-68019211D01*
X36899668Y-67773086D01*
X37131365Y-67500311D01*
X37332211Y-67204085D01*
X37499853Y-66887880D01*
X37632324Y-66555403D01*
X37728071Y-66210552D01*
X37783000Y-65875499D01*
X37785970Y-65857385D01*
X37785970Y-65857382D01*
X37785972Y-65857371D01*
X37805348Y-65500000D01*
X37804910Y-65491930D01*
X37799543Y-65392938D01*
X37785972Y-65142629D01*
X37767950Y-65032701D01*
X37728073Y-64789460D01*
X37728072Y-64789459D01*
X37728071Y-64789448D01*
X37632324Y-64444597D01*
X37499853Y-64112120D01*
X37347622Y-63824983D01*
X40399500Y-63824983D01*
X40399500Y-65175001D01*
X40399501Y-65175018D01*
X40410000Y-65277796D01*
X40410001Y-65277799D01*
X40465185Y-65444331D01*
X40465187Y-65444336D01*
X40488870Y-65482732D01*
X40557288Y-65593656D01*
X40681344Y-65717712D01*
X40830666Y-65809814D01*
X40997203Y-65864999D01*
X41099991Y-65875500D01*
X41900008Y-65875499D01*
X41900016Y-65875498D01*
X41900019Y-65875498D01*
X41956302Y-65869748D01*
X42002797Y-65864999D01*
X42169334Y-65809814D01*
X42318656Y-65717712D01*
X42442712Y-65593656D01*
X42482310Y-65529456D01*
X42534258Y-65482732D01*
X42603220Y-65471509D01*
X42667303Y-65499352D01*
X42675530Y-65506872D01*
X42783072Y-65614414D01*
X42923212Y-65716232D01*
X43077555Y-65794873D01*
X43242299Y-65848402D01*
X43413389Y-65875500D01*
X43413390Y-65875500D01*
X43586610Y-65875500D01*
X43586611Y-65875500D01*
X43757701Y-65848402D01*
X43922445Y-65794873D01*
X44076788Y-65716232D01*
X44216928Y-65614414D01*
X44339414Y-65491928D01*
X44399682Y-65408975D01*
X44455012Y-65366311D01*
X44524626Y-65360332D01*
X44586421Y-65392938D01*
X44600315Y-65408973D01*
X44660586Y-65491928D01*
X44783072Y-65614414D01*
X44923212Y-65716232D01*
X45077555Y-65794873D01*
X45242299Y-65848402D01*
X45413389Y-65875500D01*
X45413390Y-65875500D01*
X45586610Y-65875500D01*
X45586611Y-65875500D01*
X45757701Y-65848402D01*
X45922445Y-65794873D01*
X46076788Y-65716232D01*
X46216928Y-65614414D01*
X46339414Y-65491928D01*
X46441232Y-65351788D01*
X46519873Y-65197445D01*
X46573402Y-65032701D01*
X46600500Y-64861611D01*
X46600500Y-64138389D01*
X46573402Y-63967299D01*
X46527160Y-63824983D01*
X51399500Y-63824983D01*
X51399500Y-65175001D01*
X51399501Y-65175018D01*
X51410000Y-65277796D01*
X51410001Y-65277799D01*
X51465185Y-65444331D01*
X51465187Y-65444336D01*
X51488870Y-65482732D01*
X51557288Y-65593656D01*
X51681344Y-65717712D01*
X51830666Y-65809814D01*
X51997203Y-65864999D01*
X52099991Y-65875500D01*
X52900008Y-65875499D01*
X52900016Y-65875498D01*
X52900019Y-65875498D01*
X52956302Y-65869748D01*
X53002797Y-65864999D01*
X53169334Y-65809814D01*
X53318656Y-65717712D01*
X53442712Y-65593656D01*
X53482310Y-65529456D01*
X53534258Y-65482732D01*
X53603220Y-65471509D01*
X53667303Y-65499352D01*
X53675530Y-65506872D01*
X53783072Y-65614414D01*
X53923212Y-65716232D01*
X54077555Y-65794873D01*
X54242299Y-65848402D01*
X54413389Y-65875500D01*
X54413390Y-65875500D01*
X54586610Y-65875500D01*
X54586611Y-65875500D01*
X54757701Y-65848402D01*
X54922445Y-65794873D01*
X55076788Y-65716232D01*
X55216928Y-65614414D01*
X55339414Y-65491928D01*
X55399682Y-65408975D01*
X55455012Y-65366311D01*
X55524626Y-65360332D01*
X55586421Y-65392938D01*
X55600315Y-65408973D01*
X55660586Y-65491928D01*
X55783072Y-65614414D01*
X55923212Y-65716232D01*
X56077555Y-65794873D01*
X56242299Y-65848402D01*
X56413389Y-65875500D01*
X56413390Y-65875500D01*
X56586610Y-65875500D01*
X56586611Y-65875500D01*
X56757701Y-65848402D01*
X56922445Y-65794873D01*
X57076788Y-65716232D01*
X57216928Y-65614414D01*
X57331345Y-65499997D01*
X62194652Y-65499997D01*
X62194652Y-65500002D01*
X62196249Y-65529457D01*
X62211449Y-65809812D01*
X62214028Y-65857368D01*
X62214029Y-65857385D01*
X62271926Y-66210539D01*
X62271932Y-66210565D01*
X62367672Y-66555392D01*
X62367674Y-66555399D01*
X62500142Y-66887870D01*
X62500151Y-66887888D01*
X62667784Y-67204077D01*
X62667790Y-67204086D01*
X62868634Y-67500309D01*
X62868641Y-67500319D01*
X63100331Y-67773085D01*
X63100332Y-67773086D01*
X63360163Y-68019211D01*
X63645081Y-68235800D01*
X63951747Y-68420315D01*
X63951749Y-68420316D01*
X63951751Y-68420317D01*
X63951755Y-68420319D01*
X64276552Y-68570585D01*
X64276565Y-68570591D01*
X64615726Y-68684868D01*
X64965254Y-68761805D01*
X65321052Y-68800500D01*
X65321058Y-68800500D01*
X65678942Y-68800500D01*
X65678948Y-68800500D01*
X66034746Y-68761805D01*
X66384274Y-68684868D01*
X66723435Y-68570591D01*
X67048253Y-68420315D01*
X67354919Y-68235800D01*
X67639837Y-68019211D01*
X67899668Y-67773086D01*
X68131365Y-67500311D01*
X68332211Y-67204085D01*
X68499853Y-66887880D01*
X68632324Y-66555403D01*
X68728071Y-66210552D01*
X68783000Y-65875499D01*
X68785970Y-65857385D01*
X68785970Y-65857382D01*
X68785972Y-65857371D01*
X68805348Y-65500000D01*
X68804910Y-65491930D01*
X68799543Y-65392938D01*
X68785972Y-65142629D01*
X68767950Y-65032701D01*
X68728073Y-64789460D01*
X68728072Y-64789459D01*
X68728071Y-64789448D01*
X68632324Y-64444597D01*
X68499853Y-64112120D01*
X68347622Y-63824983D01*
X68332215Y-63795922D01*
X68332213Y-63795919D01*
X68332211Y-63795915D01*
X68131365Y-63499689D01*
X68131361Y-63499684D01*
X68131358Y-63499680D01*
X67899668Y-63226914D01*
X67820157Y-63151597D01*
X67639837Y-62980789D01*
X67639830Y-62980783D01*
X67639827Y-62980781D01*
X67572245Y-62929407D01*
X67354919Y-62764200D01*
X67048253Y-62579685D01*
X67048252Y-62579684D01*
X67048248Y-62579682D01*
X67048244Y-62579680D01*
X66723447Y-62429414D01*
X66723441Y-62429411D01*
X66723435Y-62429409D01*
X66553854Y-62372270D01*
X66384273Y-62315131D01*
X66034744Y-62238194D01*
X65678949Y-62199500D01*
X65678948Y-62199500D01*
X65321052Y-62199500D01*
X65321050Y-62199500D01*
X64965255Y-62238194D01*
X64615726Y-62315131D01*
X64359970Y-62401306D01*
X64276565Y-62429409D01*
X64276563Y-62429410D01*
X64276552Y-62429414D01*
X63951755Y-62579680D01*
X63951751Y-62579682D01*
X63921493Y-62597888D01*
X63645081Y-62764200D01*
X63564442Y-62825500D01*
X63360172Y-62980781D01*
X63360163Y-62980789D01*
X63100331Y-63226914D01*
X62868641Y-63499680D01*
X62868634Y-63499690D01*
X62667790Y-63795913D01*
X62667784Y-63795922D01*
X62500151Y-64112111D01*
X62500142Y-64112129D01*
X62367674Y-64444600D01*
X62367672Y-64444607D01*
X62271932Y-64789434D01*
X62271926Y-64789460D01*
X62214029Y-65142614D01*
X62214028Y-65142627D01*
X62214028Y-65142629D01*
X62212272Y-65175018D01*
X62194652Y-65499997D01*
X57331345Y-65499997D01*
X57339414Y-65491928D01*
X57441232Y-65351788D01*
X57519873Y-65197445D01*
X57573402Y-65032701D01*
X57600500Y-64861611D01*
X57600500Y-64138389D01*
X57573402Y-63967299D01*
X57519873Y-63802555D01*
X57441232Y-63648212D01*
X57339414Y-63508072D01*
X57216928Y-63385586D01*
X57076788Y-63283768D01*
X56922445Y-63205127D01*
X56757701Y-63151598D01*
X56757699Y-63151597D01*
X56757698Y-63151597D01*
X56626271Y-63130781D01*
X56586611Y-63124500D01*
X56413389Y-63124500D01*
X56373728Y-63130781D01*
X56242302Y-63151597D01*
X56077552Y-63205128D01*
X55923211Y-63283768D01*
X55843256Y-63341859D01*
X55783072Y-63385586D01*
X55783070Y-63385588D01*
X55783069Y-63385588D01*
X55660588Y-63508069D01*
X55660581Y-63508078D01*
X55600317Y-63591023D01*
X55544987Y-63633689D01*
X55475374Y-63639667D01*
X55413579Y-63607061D01*
X55399683Y-63591023D01*
X55339418Y-63508078D01*
X55339414Y-63508072D01*
X55216928Y-63385586D01*
X55076788Y-63283768D01*
X54922445Y-63205127D01*
X54757701Y-63151598D01*
X54757699Y-63151597D01*
X54757698Y-63151597D01*
X54626271Y-63130781D01*
X54586611Y-63124500D01*
X54413389Y-63124500D01*
X54373728Y-63130781D01*
X54242302Y-63151597D01*
X54077552Y-63205128D01*
X53923211Y-63283768D01*
X53783073Y-63385585D01*
X53675530Y-63493128D01*
X53614207Y-63526612D01*
X53544515Y-63521628D01*
X53488582Y-63479756D01*
X53482310Y-63470543D01*
X53442712Y-63406344D01*
X53318656Y-63282288D01*
X53193559Y-63205128D01*
X53169336Y-63190187D01*
X53169331Y-63190185D01*
X53167862Y-63189698D01*
X53002797Y-63135001D01*
X53002795Y-63135000D01*
X52900010Y-63124500D01*
X52099998Y-63124500D01*
X52099980Y-63124501D01*
X51997203Y-63135000D01*
X51997200Y-63135001D01*
X51830668Y-63190185D01*
X51830663Y-63190187D01*
X51681342Y-63282289D01*
X51557289Y-63406342D01*
X51465187Y-63555663D01*
X51465186Y-63555666D01*
X51410001Y-63722203D01*
X51410001Y-63722204D01*
X51410000Y-63722204D01*
X51399500Y-63824983D01*
X46527160Y-63824983D01*
X46519873Y-63802555D01*
X46441232Y-63648212D01*
X46339414Y-63508072D01*
X46216928Y-63385586D01*
X46076788Y-63283768D01*
X45922445Y-63205127D01*
X45757701Y-63151598D01*
X45757699Y-63151597D01*
X45757698Y-63151597D01*
X45626271Y-63130781D01*
X45586611Y-63124500D01*
X45413389Y-63124500D01*
X45373728Y-63130781D01*
X45242302Y-63151597D01*
X45077552Y-63205128D01*
X44923211Y-63283768D01*
X44843256Y-63341859D01*
X44783072Y-63385586D01*
X44783070Y-63385588D01*
X44783069Y-63385588D01*
X44660588Y-63508069D01*
X44660581Y-63508078D01*
X44600317Y-63591023D01*
X44544987Y-63633689D01*
X44475374Y-63639667D01*
X44413579Y-63607061D01*
X44399683Y-63591023D01*
X44339418Y-63508078D01*
X44339414Y-63508072D01*
X44216928Y-63385586D01*
X44076788Y-63283768D01*
X43922445Y-63205127D01*
X43757701Y-63151598D01*
X43757699Y-63151597D01*
X43757698Y-63151597D01*
X43626271Y-63130781D01*
X43586611Y-63124500D01*
X43413389Y-63124500D01*
X43373728Y-63130781D01*
X43242302Y-63151597D01*
X43077552Y-63205128D01*
X42923211Y-63283768D01*
X42783073Y-63385585D01*
X42675530Y-63493128D01*
X42614207Y-63526612D01*
X42544515Y-63521628D01*
X42488582Y-63479756D01*
X42482310Y-63470543D01*
X42442712Y-63406344D01*
X42318656Y-63282288D01*
X42193559Y-63205128D01*
X42169336Y-63190187D01*
X42169331Y-63190185D01*
X42167862Y-63189698D01*
X42002797Y-63135001D01*
X42002795Y-63135000D01*
X41900010Y-63124500D01*
X41099998Y-63124500D01*
X41099980Y-63124501D01*
X40997203Y-63135000D01*
X40997200Y-63135001D01*
X40830668Y-63190185D01*
X40830663Y-63190187D01*
X40681342Y-63282289D01*
X40557289Y-63406342D01*
X40465187Y-63555663D01*
X40465186Y-63555666D01*
X40410001Y-63722203D01*
X40410001Y-63722204D01*
X40410000Y-63722204D01*
X40399500Y-63824983D01*
X37347622Y-63824983D01*
X37332215Y-63795922D01*
X37332213Y-63795919D01*
X37332211Y-63795915D01*
X37131365Y-63499689D01*
X37131361Y-63499684D01*
X37131358Y-63499680D01*
X36899668Y-63226914D01*
X36820157Y-63151597D01*
X36639837Y-62980789D01*
X36639830Y-62980783D01*
X36639827Y-62980781D01*
X36572245Y-62929407D01*
X36354919Y-62764200D01*
X36048253Y-62579685D01*
X36048252Y-62579684D01*
X36048248Y-62579682D01*
X36048244Y-62579680D01*
X35723447Y-62429414D01*
X35723441Y-62429411D01*
X35723435Y-62429409D01*
X35553854Y-62372270D01*
X35384273Y-62315131D01*
X35034744Y-62238194D01*
X34678949Y-62199500D01*
X34678948Y-62199500D01*
X34321052Y-62199500D01*
X34321050Y-62199500D01*
X33965255Y-62238194D01*
X33615726Y-62315131D01*
X33359970Y-62401306D01*
X33276565Y-62429409D01*
X33276563Y-62429410D01*
X33276552Y-62429414D01*
X32951755Y-62579680D01*
X32951751Y-62579682D01*
X32921493Y-62597888D01*
X32645081Y-62764200D01*
X32564442Y-62825500D01*
X32360172Y-62980781D01*
X32360163Y-62980789D01*
X32100331Y-63226914D01*
X31868641Y-63499680D01*
X31868634Y-63499690D01*
X31667790Y-63795913D01*
X31667784Y-63795922D01*
X31500151Y-64112111D01*
X31500142Y-64112129D01*
X31367674Y-64444600D01*
X31367672Y-64444607D01*
X31271932Y-64789434D01*
X31271926Y-64789460D01*
X31214029Y-65142614D01*
X31214028Y-65142627D01*
X31214028Y-65142629D01*
X31212272Y-65175018D01*
X31194652Y-65499997D01*
X29200500Y-65499997D01*
X29200500Y-59827399D01*
X35004500Y-59827399D01*
X35004500Y-59952601D01*
X35036905Y-60073536D01*
X35099505Y-60181964D01*
X35188036Y-60270495D01*
X35296464Y-60333095D01*
X35417399Y-60365500D01*
X35417401Y-60365500D01*
X35542599Y-60365500D01*
X35542601Y-60365500D01*
X35663536Y-60333095D01*
X35771964Y-60270495D01*
X35860495Y-60181964D01*
X35923095Y-60073536D01*
X35955500Y-59952601D01*
X35955500Y-59827399D01*
X35923095Y-59706464D01*
X35860495Y-59598036D01*
X35771964Y-59509505D01*
X35663536Y-59446905D01*
X35663537Y-59446905D01*
X35623224Y-59436103D01*
X35542601Y-59414500D01*
X35417399Y-59414500D01*
X35336775Y-59436103D01*
X35296463Y-59446905D01*
X35188037Y-59509504D01*
X35188034Y-59509506D01*
X35099506Y-59598034D01*
X35099504Y-59598037D01*
X35036905Y-59706463D01*
X35028792Y-59736740D01*
X35004500Y-59827399D01*
X29200500Y-59827399D01*
X29200500Y-58200000D01*
X32844540Y-58200000D01*
X32864326Y-58388256D01*
X32864327Y-58388259D01*
X32922818Y-58568277D01*
X32922821Y-58568284D01*
X33017467Y-58732216D01*
X33079210Y-58800788D01*
X33144129Y-58872888D01*
X33297265Y-58984148D01*
X33297270Y-58984151D01*
X33470192Y-59061142D01*
X33470197Y-59061144D01*
X33655354Y-59100500D01*
X33655355Y-59100500D01*
X33844644Y-59100500D01*
X33844646Y-59100500D01*
X34029803Y-59061144D01*
X34202730Y-58984151D01*
X34204776Y-58982664D01*
X34216452Y-58974182D01*
X34282258Y-58950702D01*
X34289337Y-58950500D01*
X36563168Y-58950500D01*
X36630207Y-58970185D01*
X36675962Y-59022989D01*
X36685906Y-59092147D01*
X36680209Y-59115455D01*
X36662614Y-59165736D01*
X36662611Y-59165749D01*
X36642416Y-59344995D01*
X36642416Y-59345002D01*
X36662611Y-59524248D01*
X36662612Y-59524253D01*
X36722192Y-59694522D01*
X36801151Y-59820184D01*
X36818165Y-59847261D01*
X36945719Y-59974815D01*
X37098459Y-60070788D01*
X37219826Y-60113256D01*
X37268726Y-60130367D01*
X37268731Y-60130368D01*
X37447977Y-60150564D01*
X37447981Y-60150564D01*
X37447985Y-60150564D01*
X37627230Y-60130368D01*
X37627233Y-60130367D01*
X37627236Y-60130367D01*
X37797503Y-60070788D01*
X37950243Y-59974815D01*
X38077797Y-59847261D01*
X38173770Y-59694521D01*
X38233349Y-59524254D01*
X38236138Y-59499500D01*
X38253546Y-59345002D01*
X38253546Y-59344995D01*
X38233350Y-59165749D01*
X38233347Y-59165736D01*
X38215753Y-59115455D01*
X38212191Y-59045676D01*
X38246919Y-58985049D01*
X38308913Y-58952821D01*
X38332794Y-58950500D01*
X41073431Y-58950500D01*
X41140470Y-58970185D01*
X41161112Y-58986819D01*
X41378834Y-59204541D01*
X41412319Y-59265864D01*
X41407335Y-59335556D01*
X41383307Y-59375190D01*
X41367468Y-59392782D01*
X41367464Y-59392787D01*
X41272821Y-59556715D01*
X41272818Y-59556722D01*
X41218398Y-59724211D01*
X41214326Y-59736744D01*
X41194540Y-59925000D01*
X41214326Y-60113256D01*
X41214327Y-60113259D01*
X41272818Y-60293277D01*
X41272821Y-60293284D01*
X41367467Y-60457216D01*
X41463487Y-60563857D01*
X41494129Y-60597888D01*
X41647265Y-60709148D01*
X41647270Y-60709151D01*
X41820192Y-60786142D01*
X41820197Y-60786144D01*
X42005354Y-60825500D01*
X42005355Y-60825500D01*
X42194644Y-60825500D01*
X42194646Y-60825500D01*
X42379803Y-60786144D01*
X42552730Y-60709151D01*
X42658600Y-60632231D01*
X42724403Y-60608753D01*
X42792457Y-60624578D01*
X42819160Y-60644867D01*
X43067078Y-60892784D01*
X43338181Y-61163887D01*
X43371666Y-61225210D01*
X43374500Y-61251568D01*
X43374500Y-61390677D01*
X43357887Y-61452677D01*
X43297821Y-61556714D01*
X43244313Y-61721395D01*
X43239326Y-61736744D01*
X43219540Y-61925000D01*
X43239326Y-62113256D01*
X43239327Y-62113259D01*
X43297818Y-62293277D01*
X43297821Y-62293284D01*
X43392467Y-62457216D01*
X43502734Y-62579680D01*
X43519129Y-62597888D01*
X43672265Y-62709148D01*
X43672270Y-62709151D01*
X43845192Y-62786142D01*
X43845197Y-62786144D01*
X44030354Y-62825500D01*
X44030355Y-62825500D01*
X44219644Y-62825500D01*
X44219646Y-62825500D01*
X44404803Y-62786144D01*
X44577730Y-62709151D01*
X44730871Y-62597888D01*
X44857533Y-62457216D01*
X44952179Y-62293284D01*
X45010674Y-62113256D01*
X45030460Y-61925000D01*
X45010674Y-61736744D01*
X44952179Y-61556716D01*
X44892113Y-61452677D01*
X44875500Y-61390677D01*
X44875500Y-60849999D01*
X49844341Y-60849999D01*
X49844341Y-60850000D01*
X49864936Y-61085403D01*
X49864938Y-61085413D01*
X49926094Y-61313655D01*
X49926096Y-61313659D01*
X49926097Y-61313663D01*
X50010499Y-61494663D01*
X50025965Y-61527830D01*
X50025967Y-61527834D01*
X50046191Y-61556716D01*
X50161505Y-61721401D01*
X50328599Y-61888495D01*
X50425384Y-61956265D01*
X50522165Y-62024032D01*
X50522167Y-62024033D01*
X50522170Y-62024035D01*
X50736337Y-62123903D01*
X50964592Y-62185063D01*
X51141034Y-62200500D01*
X51199999Y-62205659D01*
X51200000Y-62205659D01*
X51200001Y-62205659D01*
X51258966Y-62200500D01*
X51435408Y-62185063D01*
X51663663Y-62123903D01*
X51877830Y-62024035D01*
X52071401Y-61888495D01*
X52193329Y-61766566D01*
X52254648Y-61733084D01*
X52324340Y-61738068D01*
X52380274Y-61779939D01*
X52397189Y-61810917D01*
X52446202Y-61942328D01*
X52446206Y-61942335D01*
X52532452Y-62057544D01*
X52532455Y-62057547D01*
X52647664Y-62143793D01*
X52647671Y-62143797D01*
X52782517Y-62194091D01*
X52782516Y-62194091D01*
X52789444Y-62194835D01*
X52842127Y-62200500D01*
X54637872Y-62200499D01*
X54697483Y-62194091D01*
X54832331Y-62143796D01*
X54947546Y-62057546D01*
X55033796Y-61942331D01*
X55084091Y-61807483D01*
X55090500Y-61747873D01*
X55090500Y-61425000D01*
X56709540Y-61425000D01*
X56729326Y-61613256D01*
X56729327Y-61613259D01*
X56787818Y-61793277D01*
X56787821Y-61793284D01*
X56882467Y-61957216D01*
X56972803Y-62057544D01*
X57009129Y-62097888D01*
X57162265Y-62209148D01*
X57162270Y-62209151D01*
X57335192Y-62286142D01*
X57335197Y-62286144D01*
X57520354Y-62325500D01*
X57520355Y-62325500D01*
X57709644Y-62325500D01*
X57709646Y-62325500D01*
X57894803Y-62286144D01*
X58067730Y-62209151D01*
X58220871Y-62097888D01*
X58347533Y-61957216D01*
X58442179Y-61793284D01*
X58500674Y-61613256D01*
X58520460Y-61425000D01*
X58500674Y-61236744D01*
X58442179Y-61056716D01*
X58347533Y-60892784D01*
X58220871Y-60752112D01*
X58220870Y-60752111D01*
X58067734Y-60640851D01*
X58067729Y-60640848D01*
X57894807Y-60563857D01*
X57894802Y-60563855D01*
X57749001Y-60532865D01*
X57709646Y-60524500D01*
X57520354Y-60524500D01*
X57487897Y-60531398D01*
X57335197Y-60563855D01*
X57335192Y-60563857D01*
X57162270Y-60640848D01*
X57162265Y-60640851D01*
X57009129Y-60752111D01*
X56882466Y-60892785D01*
X56787821Y-61056715D01*
X56787818Y-61056722D01*
X56729327Y-61236740D01*
X56729326Y-61236744D01*
X56709540Y-61425000D01*
X55090500Y-61425000D01*
X55090499Y-60449996D01*
X68844435Y-60449996D01*
X68844435Y-60450003D01*
X68864630Y-60629249D01*
X68864631Y-60629254D01*
X68924211Y-60799523D01*
X68955928Y-60850000D01*
X69020184Y-60952262D01*
X69147738Y-61079816D01*
X69300478Y-61175789D01*
X69370258Y-61200206D01*
X69470745Y-61235368D01*
X69470750Y-61235369D01*
X69649996Y-61255565D01*
X69650000Y-61255565D01*
X69650004Y-61255565D01*
X69829249Y-61235369D01*
X69829252Y-61235368D01*
X69829255Y-61235368D01*
X69999522Y-61175789D01*
X70152262Y-61079816D01*
X70279816Y-60952262D01*
X70375789Y-60799522D01*
X70435368Y-60629255D01*
X70437678Y-60608753D01*
X70455565Y-60450003D01*
X70455565Y-60449996D01*
X70435369Y-60270750D01*
X70435368Y-60270745D01*
X70412480Y-60205335D01*
X70375789Y-60100478D01*
X70279816Y-59947738D01*
X70152262Y-59820184D01*
X70138451Y-59811506D01*
X69999523Y-59724211D01*
X69829254Y-59664631D01*
X69829249Y-59664630D01*
X69650004Y-59644435D01*
X69649996Y-59644435D01*
X69470750Y-59664630D01*
X69470745Y-59664631D01*
X69300476Y-59724211D01*
X69147737Y-59820184D01*
X69020184Y-59947737D01*
X68924211Y-60100476D01*
X68864631Y-60270745D01*
X68864630Y-60270750D01*
X68844435Y-60449996D01*
X55090499Y-60449996D01*
X55090499Y-59952128D01*
X55084091Y-59892517D01*
X55082810Y-59889083D01*
X55033797Y-59757671D01*
X55033793Y-59757664D01*
X54947547Y-59642455D01*
X54947544Y-59642452D01*
X54832335Y-59556206D01*
X54832328Y-59556202D01*
X54697482Y-59505908D01*
X54697483Y-59505908D01*
X54637883Y-59499501D01*
X54637881Y-59499500D01*
X54637873Y-59499500D01*
X54637864Y-59499500D01*
X52842129Y-59499500D01*
X52842123Y-59499501D01*
X52782516Y-59505908D01*
X52647671Y-59556202D01*
X52647664Y-59556206D01*
X52532455Y-59642452D01*
X52532452Y-59642455D01*
X52446206Y-59757664D01*
X52446203Y-59757669D01*
X52397189Y-59889083D01*
X52355317Y-59945016D01*
X52289853Y-59969433D01*
X52221580Y-59954581D01*
X52193326Y-59933430D01*
X52071402Y-59811506D01*
X52071395Y-59811501D01*
X51877834Y-59675967D01*
X51877830Y-59675965D01*
X51810214Y-59644435D01*
X51663663Y-59576097D01*
X51663659Y-59576096D01*
X51663655Y-59576094D01*
X51435413Y-59514938D01*
X51435403Y-59514936D01*
X51200001Y-59494341D01*
X51199999Y-59494341D01*
X50964596Y-59514936D01*
X50964586Y-59514938D01*
X50736344Y-59576094D01*
X50736335Y-59576098D01*
X50522171Y-59675964D01*
X50522169Y-59675965D01*
X50328597Y-59811505D01*
X50161505Y-59978597D01*
X50025965Y-60172169D01*
X50025964Y-60172171D01*
X49926098Y-60386335D01*
X49926094Y-60386344D01*
X49864938Y-60614586D01*
X49864936Y-60614596D01*
X49844341Y-60849999D01*
X44875500Y-60849999D01*
X44875500Y-60815421D01*
X44865512Y-60765210D01*
X44865512Y-60765207D01*
X44846660Y-60670434D01*
X44846659Y-60670427D01*
X44792408Y-60539456D01*
X44790764Y-60534861D01*
X44707954Y-60410927D01*
X44707953Y-60410926D01*
X44707951Y-60410923D01*
X44603416Y-60306388D01*
X43939480Y-59642452D01*
X42372026Y-58074996D01*
X45594435Y-58074996D01*
X45594435Y-58075003D01*
X45614630Y-58254249D01*
X45614631Y-58254254D01*
X45674211Y-58424523D01*
X45764538Y-58568277D01*
X45770184Y-58577262D01*
X45897738Y-58704816D01*
X46050478Y-58800789D01*
X46220745Y-58860368D01*
X46220750Y-58860369D01*
X46399996Y-58880565D01*
X46400000Y-58880565D01*
X46400004Y-58880565D01*
X46579249Y-58860369D01*
X46579252Y-58860368D01*
X46579255Y-58860368D01*
X46749522Y-58800789D01*
X46902262Y-58704816D01*
X47029816Y-58577262D01*
X47125789Y-58424522D01*
X47185368Y-58254255D01*
X47205565Y-58075000D01*
X47198437Y-58011740D01*
X47185369Y-57895750D01*
X47185368Y-57895745D01*
X47125788Y-57725476D01*
X47057658Y-57617048D01*
X47029816Y-57572738D01*
X46902262Y-57445184D01*
X46749523Y-57349211D01*
X46579254Y-57289631D01*
X46579249Y-57289630D01*
X46400004Y-57269435D01*
X46399996Y-57269435D01*
X46220750Y-57289630D01*
X46220745Y-57289631D01*
X46050476Y-57349211D01*
X45897737Y-57445184D01*
X45770184Y-57572737D01*
X45674211Y-57725476D01*
X45614631Y-57895745D01*
X45614630Y-57895750D01*
X45594435Y-58074996D01*
X42372026Y-58074996D01*
X41914082Y-57617052D01*
X41914075Y-57617046D01*
X41840390Y-57567812D01*
X41840390Y-57567813D01*
X41791152Y-57534913D01*
X41654578Y-57478343D01*
X41654568Y-57478340D01*
X41509581Y-57449500D01*
X41509579Y-57449500D01*
X34289337Y-57449500D01*
X34222298Y-57429815D01*
X34216452Y-57425818D01*
X34202734Y-57415851D01*
X34202729Y-57415848D01*
X34029807Y-57338857D01*
X34029802Y-57338855D01*
X33884001Y-57307865D01*
X33844646Y-57299500D01*
X33655354Y-57299500D01*
X33622897Y-57306398D01*
X33470197Y-57338855D01*
X33470192Y-57338857D01*
X33297270Y-57415848D01*
X33297265Y-57415851D01*
X33144129Y-57527111D01*
X33017466Y-57667785D01*
X32922821Y-57831715D01*
X32922818Y-57831722D01*
X32864521Y-58011144D01*
X32864326Y-58011744D01*
X32844540Y-58200000D01*
X29200500Y-58200000D01*
X29200500Y-54654997D01*
X36642417Y-54654997D01*
X36642417Y-54655004D01*
X36662612Y-54834250D01*
X36662613Y-54834255D01*
X36722193Y-55004524D01*
X36769519Y-55079842D01*
X36818166Y-55157263D01*
X36945720Y-55284817D01*
X37098460Y-55380790D01*
X37229512Y-55426647D01*
X37268727Y-55440369D01*
X37268732Y-55440370D01*
X37447978Y-55460566D01*
X37447982Y-55460566D01*
X37447986Y-55460566D01*
X37627231Y-55440370D01*
X37627234Y-55440369D01*
X37627237Y-55440369D01*
X37797504Y-55380790D01*
X37950244Y-55284817D01*
X38077798Y-55157263D01*
X38173771Y-55004523D01*
X38233350Y-54834256D01*
X38236107Y-54809789D01*
X38253547Y-54655004D01*
X38253547Y-54654997D01*
X38233351Y-54475751D01*
X38233350Y-54475746D01*
X38207533Y-54401965D01*
X38173771Y-54305479D01*
X38170642Y-54300500D01*
X38134564Y-54243081D01*
X38077798Y-54152739D01*
X37950244Y-54025185D01*
X37913522Y-54002111D01*
X37797505Y-53929212D01*
X37627236Y-53869632D01*
X37627231Y-53869631D01*
X37447986Y-53849436D01*
X37447978Y-53849436D01*
X37268732Y-53869631D01*
X37268727Y-53869632D01*
X37098458Y-53929212D01*
X36945719Y-54025185D01*
X36818166Y-54152738D01*
X36722193Y-54305477D01*
X36662613Y-54475746D01*
X36662612Y-54475751D01*
X36642417Y-54654997D01*
X29200500Y-54654997D01*
X29200500Y-54047399D01*
X35004500Y-54047399D01*
X35004500Y-54172601D01*
X35036905Y-54293536D01*
X35099505Y-54401964D01*
X35188036Y-54490495D01*
X35296464Y-54553095D01*
X35417399Y-54585500D01*
X35417401Y-54585500D01*
X35542599Y-54585500D01*
X35542601Y-54585500D01*
X35663536Y-54553095D01*
X35771964Y-54490495D01*
X35860495Y-54401964D01*
X35923095Y-54293536D01*
X35955500Y-54172601D01*
X35955500Y-54047399D01*
X35923095Y-53926464D01*
X35860495Y-53818036D01*
X35771964Y-53729505D01*
X35663536Y-53666905D01*
X35663537Y-53666905D01*
X35623224Y-53656103D01*
X35542601Y-53634500D01*
X35417399Y-53634500D01*
X35336775Y-53656103D01*
X35296463Y-53666905D01*
X35188037Y-53729504D01*
X35188034Y-53729506D01*
X35099506Y-53818034D01*
X35099504Y-53818037D01*
X35036905Y-53926463D01*
X35033398Y-53939551D01*
X35004500Y-54047399D01*
X29200500Y-54047399D01*
X29200500Y-52911898D01*
X29220185Y-52844859D01*
X29272989Y-52799104D01*
X29342147Y-52789160D01*
X29397381Y-52811578D01*
X29485330Y-52875476D01*
X29497270Y-52884151D01*
X29670192Y-52961142D01*
X29670197Y-52961144D01*
X29855354Y-53000500D01*
X29855355Y-53000500D01*
X30044644Y-53000500D01*
X30044646Y-53000500D01*
X30229803Y-52961144D01*
X30402730Y-52884151D01*
X30555871Y-52772888D01*
X30682533Y-52632216D01*
X30777179Y-52468284D01*
X30835674Y-52288256D01*
X30855460Y-52100000D01*
X30836932Y-51923717D01*
X44495638Y-51923717D01*
X44516142Y-52092586D01*
X44516143Y-52092591D01*
X44576465Y-52251648D01*
X44638758Y-52341894D01*
X44673100Y-52391646D01*
X44759599Y-52468277D01*
X44800433Y-52504453D01*
X44951056Y-52583506D01*
X44951058Y-52583507D01*
X45092404Y-52618345D01*
X45152784Y-52653501D01*
X45184573Y-52715720D01*
X45185825Y-52723795D01*
X45191142Y-52767586D01*
X45191143Y-52767592D01*
X45251465Y-52926647D01*
X45251465Y-52926648D01*
X45302442Y-53000500D01*
X45348100Y-53066646D01*
X45414593Y-53125553D01*
X45475433Y-53179453D01*
X45626056Y-53258506D01*
X45626058Y-53258507D01*
X45791227Y-53299217D01*
X45961339Y-53299217D01*
X46126508Y-53258507D01*
X46221008Y-53208909D01*
X46277132Y-53179453D01*
X46277133Y-53179451D01*
X46277135Y-53179451D01*
X46404466Y-53066646D01*
X46501101Y-52926647D01*
X46561423Y-52767589D01*
X46581928Y-52598717D01*
X46561423Y-52429845D01*
X46552428Y-52406128D01*
X46539514Y-52372075D01*
X46501101Y-52270787D01*
X46404466Y-52130788D01*
X46277135Y-52017983D01*
X46277132Y-52017980D01*
X46126509Y-51938927D01*
X45985161Y-51904088D01*
X45924780Y-51868932D01*
X45892992Y-51806712D01*
X45891740Y-51798636D01*
X45886423Y-51754848D01*
X45886422Y-51754841D01*
X45841405Y-51636142D01*
X45826101Y-51595787D01*
X45802723Y-51561919D01*
X45741526Y-51473260D01*
X45729466Y-51455788D01*
X45615623Y-51354932D01*
X45602132Y-51342980D01*
X45451509Y-51263927D01*
X45286339Y-51223217D01*
X45116227Y-51223217D01*
X44951056Y-51263927D01*
X44800433Y-51342980D01*
X44673099Y-51455789D01*
X44576465Y-51595785D01*
X44516143Y-51754842D01*
X44516142Y-51754847D01*
X44495638Y-51923717D01*
X30836932Y-51923717D01*
X30835674Y-51911744D01*
X30777179Y-51731716D01*
X30682533Y-51567784D01*
X30682530Y-51567781D01*
X30681066Y-51565765D01*
X30680577Y-51564397D01*
X30679284Y-51562156D01*
X30679693Y-51561919D01*
X30657585Y-51499960D01*
X30673409Y-51431905D01*
X30708502Y-51392557D01*
X30718371Y-51385388D01*
X30845033Y-51244716D01*
X30939679Y-51080784D01*
X30978165Y-50962335D01*
X31017602Y-50904661D01*
X31081961Y-50877462D01*
X31150807Y-50889376D01*
X31202283Y-50936620D01*
X31214027Y-50962336D01*
X31272818Y-51143277D01*
X31272821Y-51143284D01*
X31367467Y-51307216D01*
X31444307Y-51392555D01*
X31494129Y-51447888D01*
X31647265Y-51559148D01*
X31647270Y-51559151D01*
X31820192Y-51636142D01*
X31820197Y-51636144D01*
X32005354Y-51675500D01*
X32005355Y-51675500D01*
X32194644Y-51675500D01*
X32194646Y-51675500D01*
X32379803Y-51636144D01*
X32552730Y-51559151D01*
X32705871Y-51447888D01*
X32832533Y-51307216D01*
X32927179Y-51143284D01*
X32985674Y-50963256D01*
X33005460Y-50775000D01*
X33005459Y-50774998D01*
X33006139Y-50768537D01*
X33008980Y-50768835D01*
X33025145Y-50713785D01*
X33077949Y-50668030D01*
X33147107Y-50658086D01*
X33155230Y-50659532D01*
X33230354Y-50675500D01*
X33230355Y-50675500D01*
X33419644Y-50675500D01*
X33419646Y-50675500D01*
X33604803Y-50636144D01*
X33777730Y-50559151D01*
X33930871Y-50447888D01*
X34057533Y-50307216D01*
X34152179Y-50143284D01*
X34210674Y-49963256D01*
X34230460Y-49775000D01*
X34210674Y-49586744D01*
X34152179Y-49406716D01*
X34057533Y-49242784D01*
X33930871Y-49102112D01*
X33904530Y-49082974D01*
X33777734Y-48990851D01*
X33777729Y-48990848D01*
X33604807Y-48913857D01*
X33604802Y-48913855D01*
X33459001Y-48882865D01*
X33419646Y-48874500D01*
X33230354Y-48874500D01*
X33201025Y-48880734D01*
X33045197Y-48913855D01*
X33045192Y-48913857D01*
X32872270Y-48990848D01*
X32872265Y-48990851D01*
X32719129Y-49102111D01*
X32592466Y-49242785D01*
X32497821Y-49406715D01*
X32497818Y-49406722D01*
X32453563Y-49542927D01*
X32439326Y-49586744D01*
X32419540Y-49775000D01*
X32418861Y-49781463D01*
X32416019Y-49781164D01*
X32399855Y-49836214D01*
X32347051Y-49881969D01*
X32277893Y-49891913D01*
X32269764Y-49890466D01*
X32194646Y-49874500D01*
X32005354Y-49874500D01*
X31972897Y-49881398D01*
X31820197Y-49913855D01*
X31820192Y-49913857D01*
X31647270Y-49990848D01*
X31647265Y-49990851D01*
X31494129Y-50102111D01*
X31367466Y-50242785D01*
X31272821Y-50406715D01*
X31272819Y-50406719D01*
X31234334Y-50525164D01*
X31194896Y-50582839D01*
X31130537Y-50610037D01*
X31061691Y-50598122D01*
X31010215Y-50550878D01*
X30998472Y-50525163D01*
X30998174Y-50524246D01*
X30998174Y-50524244D01*
X30949353Y-50373990D01*
X30939681Y-50344221D01*
X30939678Y-50344215D01*
X30918317Y-50307216D01*
X30845033Y-50180284D01*
X30718371Y-50039612D01*
X30718367Y-50039609D01*
X30565234Y-49928351D01*
X30565229Y-49928348D01*
X30392307Y-49851357D01*
X30392302Y-49851355D01*
X30246501Y-49820365D01*
X30207146Y-49812000D01*
X30017854Y-49812000D01*
X29985397Y-49818898D01*
X29832697Y-49851355D01*
X29832692Y-49851357D01*
X29659770Y-49928348D01*
X29659765Y-49928351D01*
X29506632Y-50039609D01*
X29506629Y-50039611D01*
X29506629Y-50039612D01*
X29450355Y-50102111D01*
X29416650Y-50139544D01*
X29357163Y-50176192D01*
X29287306Y-50174861D01*
X29229258Y-50135974D01*
X29201448Y-50071878D01*
X29200500Y-50056571D01*
X29200500Y-46075000D01*
X33541855Y-46075000D01*
X33562359Y-46243869D01*
X33562360Y-46243874D01*
X33622682Y-46402931D01*
X33655517Y-46450500D01*
X33719317Y-46542929D01*
X33825005Y-46636560D01*
X33846650Y-46655736D01*
X33984206Y-46727931D01*
X33997275Y-46734790D01*
X34162444Y-46775500D01*
X34332556Y-46775500D01*
X34497725Y-46734790D01*
X34579844Y-46691690D01*
X34648349Y-46655736D01*
X34648350Y-46655734D01*
X34648352Y-46655734D01*
X34775683Y-46542929D01*
X34872318Y-46402930D01*
X34932640Y-46243872D01*
X34953145Y-46075000D01*
X34932640Y-45906128D01*
X34929350Y-45897454D01*
X34911054Y-45849211D01*
X34872318Y-45747070D01*
X34869948Y-45743637D01*
X34868989Y-45740727D01*
X34868831Y-45740426D01*
X34868881Y-45740399D01*
X34848067Y-45677283D01*
X34848000Y-45673199D01*
X34848000Y-44602597D01*
X34867685Y-44535558D01*
X34884319Y-44514916D01*
X35512417Y-43886819D01*
X35573740Y-43853334D01*
X35600098Y-43850500D01*
X45899903Y-43850500D01*
X45966942Y-43870185D01*
X45987584Y-43886819D01*
X48807307Y-46706542D01*
X48807317Y-46706553D01*
X48811647Y-46710883D01*
X48811648Y-46710884D01*
X48923452Y-46822688D01*
X49005398Y-46869999D01*
X49060383Y-46901745D01*
X49213111Y-46942669D01*
X49213114Y-46942669D01*
X49378821Y-46942669D01*
X49378837Y-46942668D01*
X49398467Y-46942668D01*
X49465506Y-46962353D01*
X49475782Y-46969723D01*
X49478615Y-46971982D01*
X49478617Y-46971984D01*
X49559662Y-47022908D01*
X49625961Y-47064567D01*
X49631357Y-47067957D01*
X49801624Y-47127536D01*
X49838974Y-47131744D01*
X49903386Y-47158809D01*
X49942942Y-47216403D01*
X49948186Y-47269910D01*
X49929355Y-47424999D01*
X49949859Y-47593869D01*
X49949860Y-47593874D01*
X50010182Y-47752931D01*
X50029647Y-47781130D01*
X50106817Y-47892929D01*
X50196147Y-47972068D01*
X50234150Y-48005736D01*
X50339769Y-48061169D01*
X50384775Y-48084790D01*
X50549944Y-48125500D01*
X50720057Y-48125500D01*
X50730312Y-48122972D01*
X50750682Y-48117951D01*
X50820483Y-48121018D01*
X50877546Y-48161336D01*
X50882402Y-48167898D01*
X50892211Y-48182108D01*
X50952075Y-48268836D01*
X51079409Y-48381644D01*
X51230032Y-48460697D01*
X51230034Y-48460698D01*
X51395203Y-48501408D01*
X51533488Y-48501408D01*
X51600527Y-48521093D01*
X51646282Y-48573897D01*
X51656226Y-48643055D01*
X51635538Y-48695848D01*
X51600183Y-48747068D01*
X51600182Y-48747068D01*
X51539860Y-48906125D01*
X51539859Y-48906130D01*
X51519355Y-49075000D01*
X51539859Y-49243869D01*
X51539860Y-49243874D01*
X51600182Y-49402931D01*
X51625969Y-49440289D01*
X51696817Y-49542929D01*
X51802505Y-49636560D01*
X51824150Y-49655736D01*
X51974774Y-49734790D01*
X51999079Y-49740780D01*
X52045065Y-49752114D01*
X52105445Y-49787269D01*
X52137234Y-49849488D01*
X52138485Y-49857559D01*
X52139858Y-49868864D01*
X52139860Y-49868875D01*
X52200182Y-50027930D01*
X52200182Y-50027931D01*
X52247271Y-50096150D01*
X52296817Y-50167929D01*
X52326685Y-50194390D01*
X52363812Y-50253579D01*
X52363044Y-50323444D01*
X52324627Y-50381804D01*
X52260756Y-50410129D01*
X52230576Y-50410425D01*
X52157535Y-50402196D01*
X52157526Y-50402196D01*
X51978280Y-50422391D01*
X51978275Y-50422392D01*
X51808006Y-50481972D01*
X51655267Y-50577945D01*
X51527714Y-50705498D01*
X51431741Y-50858237D01*
X51402623Y-50941454D01*
X51361901Y-50998230D01*
X51296948Y-51023978D01*
X51285581Y-51024500D01*
X50000097Y-51024500D01*
X49933058Y-51004815D01*
X49912416Y-50988181D01*
X48436344Y-49512109D01*
X48402859Y-49450786D01*
X48407843Y-49381094D01*
X48449715Y-49325161D01*
X48466392Y-49314635D01*
X48530988Y-49280733D01*
X48658319Y-49167928D01*
X48754954Y-49027929D01*
X48815276Y-48868871D01*
X48835781Y-48699999D01*
X48815276Y-48531127D01*
X48754954Y-48372069D01*
X48743044Y-48354815D01*
X48705208Y-48300000D01*
X48658319Y-48232070D01*
X48559205Y-48144263D01*
X48530985Y-48119262D01*
X48380362Y-48040209D01*
X48215192Y-47999499D01*
X48045080Y-47999499D01*
X47879912Y-48040208D01*
X47775387Y-48095068D01*
X47706878Y-48108793D01*
X47676807Y-48102313D01*
X47630737Y-48086193D01*
X47543816Y-48076399D01*
X47479402Y-48049332D01*
X47470019Y-48040860D01*
X45568796Y-46139638D01*
X45568794Y-46139635D01*
X45449923Y-46020764D01*
X45449922Y-46020763D01*
X45363110Y-45970643D01*
X45363110Y-45970642D01*
X45363106Y-45970641D01*
X45312991Y-45941706D01*
X45312990Y-45941705D01*
X45312989Y-45941705D01*
X45267617Y-45929547D01*
X45212032Y-45897454D01*
X45186045Y-45871467D01*
X45033306Y-45775494D01*
X44863037Y-45715914D01*
X44863032Y-45715913D01*
X44683787Y-45695718D01*
X44683779Y-45695718D01*
X44504533Y-45715913D01*
X44504528Y-45715914D01*
X44334259Y-45775494D01*
X44181520Y-45871467D01*
X44053967Y-45999020D01*
X43957994Y-46151760D01*
X43907808Y-46295184D01*
X43867086Y-46351960D01*
X43831721Y-46371270D01*
X43676763Y-46425492D01*
X43524020Y-46521467D01*
X43396467Y-46649020D01*
X43300494Y-46801759D01*
X43240914Y-46972028D01*
X43240913Y-46972033D01*
X43219938Y-47158202D01*
X43216874Y-47157856D01*
X43201033Y-47211805D01*
X43148229Y-47257560D01*
X43126393Y-47265163D01*
X43024773Y-47290210D01*
X42874150Y-47369263D01*
X42746816Y-47482072D01*
X42650182Y-47622068D01*
X42589860Y-47781125D01*
X42589859Y-47781130D01*
X42569355Y-47950000D01*
X42589859Y-48118869D01*
X42589860Y-48118874D01*
X42650182Y-48277931D01*
X42675063Y-48313976D01*
X42746817Y-48417929D01*
X42832981Y-48494263D01*
X42874150Y-48530736D01*
X43019594Y-48607071D01*
X43024775Y-48609790D01*
X43189944Y-48650500D01*
X43360056Y-48650500D01*
X43525225Y-48609790D01*
X43604692Y-48568081D01*
X43675849Y-48530736D01*
X43675850Y-48530734D01*
X43675852Y-48530734D01*
X43803183Y-48417929D01*
X43899818Y-48277930D01*
X43960140Y-48118872D01*
X43967354Y-48059455D01*
X43994975Y-47995278D01*
X44052909Y-47956221D01*
X44076565Y-47951182D01*
X44137913Y-47944270D01*
X44205532Y-47936652D01*
X44205535Y-47936651D01*
X44205538Y-47936651D01*
X44375805Y-47877072D01*
X44528545Y-47781099D01*
X44656099Y-47653545D01*
X44752072Y-47500805D01*
X44802258Y-47357380D01*
X44842980Y-47300605D01*
X44878338Y-47281297D01*
X44903802Y-47272386D01*
X44973577Y-47268824D01*
X45032435Y-47301747D01*
X45285966Y-47555279D01*
X45319451Y-47616602D01*
X45314467Y-47686294D01*
X45280512Y-47735775D01*
X45171818Y-47832069D01*
X45075182Y-47972068D01*
X45075180Y-47972074D01*
X45047856Y-48044119D01*
X45005678Y-48099822D01*
X44989543Y-48109942D01*
X44924151Y-48144263D01*
X44924148Y-48144266D01*
X44825038Y-48232070D01*
X44796816Y-48257072D01*
X44700182Y-48397068D01*
X44639860Y-48556125D01*
X44639859Y-48556130D01*
X44619355Y-48725000D01*
X44639859Y-48893869D01*
X44639860Y-48893874D01*
X44700182Y-49052931D01*
X44739461Y-49109835D01*
X44796817Y-49192929D01*
X44895928Y-49280733D01*
X44924150Y-49305736D01*
X45067733Y-49381094D01*
X45074775Y-49384790D01*
X45239944Y-49425500D01*
X45410056Y-49425500D01*
X45575225Y-49384790D01*
X45655980Y-49342406D01*
X45725849Y-49305736D01*
X45725850Y-49305734D01*
X45725852Y-49305734D01*
X45853183Y-49192929D01*
X45860992Y-49181615D01*
X45915269Y-49137624D01*
X45984717Y-49129961D01*
X46047284Y-49161061D01*
X46050724Y-49164371D01*
X47243067Y-50356714D01*
X47276552Y-50418037D01*
X47271568Y-50487729D01*
X47229696Y-50543662D01*
X47185062Y-50564792D01*
X47086743Y-50589025D01*
X46936121Y-50668078D01*
X46808787Y-50780887D01*
X46712153Y-50920883D01*
X46651831Y-51079940D01*
X46651830Y-51079945D01*
X46631326Y-51248815D01*
X46651830Y-51417684D01*
X46651831Y-51417689D01*
X46712153Y-51576746D01*
X46726252Y-51597171D01*
X46808788Y-51716744D01*
X46851798Y-51754847D01*
X46936121Y-51829551D01*
X47086744Y-51908604D01*
X47086746Y-51908605D01*
X47251915Y-51949315D01*
X47422027Y-51949315D01*
X47587196Y-51908605D01*
X47666663Y-51866896D01*
X47737820Y-51829551D01*
X47737821Y-51829549D01*
X47737823Y-51829549D01*
X47865154Y-51716744D01*
X47961789Y-51576745D01*
X48022111Y-51417687D01*
X48022111Y-51417682D01*
X48023906Y-51410403D01*
X48025513Y-51410799D01*
X48049551Y-51354932D01*
X48107480Y-51315868D01*
X48177333Y-51314324D01*
X48232716Y-51346363D01*
X49146200Y-52259847D01*
X49179685Y-52321170D01*
X49174701Y-52390862D01*
X49132829Y-52446795D01*
X49099474Y-52464569D01*
X49000480Y-52499208D01*
X48847737Y-52595184D01*
X48720184Y-52722737D01*
X48624211Y-52875476D01*
X48564631Y-53045745D01*
X48564630Y-53045750D01*
X48544435Y-53224996D01*
X48544435Y-53225003D01*
X48562223Y-53382880D01*
X48550168Y-53451702D01*
X48502819Y-53503081D01*
X48435209Y-53520705D01*
X48381378Y-53506560D01*
X48350225Y-53490209D01*
X48185056Y-53449500D01*
X48014944Y-53449500D01*
X48014943Y-53449500D01*
X47884672Y-53481608D01*
X47825323Y-53481608D01*
X47695053Y-53449500D01*
X47524941Y-53449500D01*
X47359770Y-53490210D01*
X47209147Y-53569263D01*
X47081813Y-53682072D01*
X46985179Y-53822068D01*
X46924857Y-53981125D01*
X46924856Y-53981130D01*
X46904352Y-54150000D01*
X46924856Y-54318869D01*
X46924857Y-54318874D01*
X46985179Y-54477931D01*
X47037061Y-54553094D01*
X47081814Y-54617929D01*
X47162574Y-54689476D01*
X47209147Y-54730736D01*
X47359770Y-54809789D01*
X47359772Y-54809790D01*
X47524941Y-54850500D01*
X47673477Y-54850500D01*
X47740516Y-54870185D01*
X47786271Y-54922989D01*
X47796215Y-54992147D01*
X47789419Y-55018471D01*
X47766143Y-55079842D01*
X47766142Y-55079847D01*
X47745638Y-55248717D01*
X47766142Y-55417586D01*
X47766143Y-55417591D01*
X47826465Y-55576648D01*
X47888758Y-55666894D01*
X47923100Y-55716646D01*
X47988404Y-55774500D01*
X48050433Y-55829453D01*
X48201056Y-55908506D01*
X48201058Y-55908507D01*
X48342404Y-55943345D01*
X48402784Y-55978501D01*
X48434573Y-56040720D01*
X48435825Y-56048795D01*
X48441142Y-56092586D01*
X48441143Y-56092592D01*
X48501465Y-56251647D01*
X48501465Y-56251648D01*
X48563758Y-56341894D01*
X48598100Y-56391646D01*
X48694572Y-56477112D01*
X48725433Y-56504453D01*
X48876056Y-56583506D01*
X48876058Y-56583507D01*
X49041227Y-56624217D01*
X49211339Y-56624217D01*
X49376508Y-56583507D01*
X49455975Y-56541798D01*
X49527132Y-56504453D01*
X49527133Y-56504451D01*
X49527135Y-56504451D01*
X49560378Y-56475000D01*
X55639355Y-56475000D01*
X55659859Y-56643869D01*
X55659860Y-56643874D01*
X55720182Y-56802931D01*
X55782475Y-56893177D01*
X55816817Y-56942929D01*
X55922505Y-57036560D01*
X55944150Y-57055736D01*
X56092022Y-57133345D01*
X56094775Y-57134790D01*
X56259944Y-57175500D01*
X56430056Y-57175500D01*
X56595225Y-57134790D01*
X56595227Y-57134788D01*
X56601085Y-57133345D01*
X56670887Y-57136414D01*
X56727949Y-57176734D01*
X56754081Y-57240780D01*
X56764326Y-57338256D01*
X56764327Y-57338259D01*
X56822818Y-57518277D01*
X56822821Y-57518284D01*
X56917467Y-57682216D01*
X57044129Y-57822888D01*
X57197265Y-57934148D01*
X57197270Y-57934151D01*
X57370192Y-58011142D01*
X57370197Y-58011144D01*
X57555354Y-58050500D01*
X57555355Y-58050500D01*
X57744644Y-58050500D01*
X57744646Y-58050500D01*
X57929803Y-58011144D01*
X58102730Y-57934151D01*
X58255871Y-57822888D01*
X58382533Y-57682216D01*
X58477179Y-57518284D01*
X58535674Y-57338256D01*
X58555460Y-57150000D01*
X58535674Y-56961744D01*
X58477179Y-56781716D01*
X58382533Y-56617784D01*
X58255871Y-56477112D01*
X58252964Y-56475000D01*
X59449355Y-56475000D01*
X59469859Y-56643869D01*
X59469860Y-56643874D01*
X59530182Y-56802931D01*
X59592475Y-56893177D01*
X59626817Y-56942929D01*
X59732505Y-57036560D01*
X59754150Y-57055736D01*
X59902022Y-57133345D01*
X59904775Y-57134790D01*
X60069944Y-57175500D01*
X60240056Y-57175500D01*
X60405225Y-57134790D01*
X60484692Y-57093081D01*
X60555849Y-57055736D01*
X60555850Y-57055734D01*
X60555852Y-57055734D01*
X60683183Y-56942929D01*
X60779818Y-56802930D01*
X60840140Y-56643872D01*
X60860645Y-56475000D01*
X60840140Y-56306128D01*
X60779818Y-56147070D01*
X60683183Y-56007071D01*
X60555852Y-55894266D01*
X60555849Y-55894263D01*
X60405226Y-55815210D01*
X60240056Y-55774500D01*
X60069944Y-55774500D01*
X59904773Y-55815210D01*
X59754150Y-55894263D01*
X59626816Y-56007072D01*
X59530182Y-56147068D01*
X59469860Y-56306125D01*
X59469859Y-56306130D01*
X59449355Y-56475000D01*
X58252964Y-56475000D01*
X58249647Y-56472590D01*
X58102734Y-56365851D01*
X58102729Y-56365848D01*
X57929807Y-56288857D01*
X57929802Y-56288855D01*
X57784001Y-56257865D01*
X57744646Y-56249500D01*
X57555354Y-56249500D01*
X57522897Y-56256398D01*
X57370197Y-56288855D01*
X57370192Y-56288857D01*
X57193516Y-56367520D01*
X57124266Y-56376805D01*
X57060989Y-56347177D01*
X57027138Y-56298212D01*
X57008664Y-56249500D01*
X56969818Y-56147070D01*
X56873183Y-56007071D01*
X56745852Y-55894266D01*
X56745849Y-55894263D01*
X56595226Y-55815210D01*
X56430056Y-55774500D01*
X56259944Y-55774500D01*
X56094773Y-55815210D01*
X55944150Y-55894263D01*
X55816816Y-56007072D01*
X55720182Y-56147068D01*
X55659860Y-56306125D01*
X55659859Y-56306130D01*
X55639355Y-56475000D01*
X49560378Y-56475000D01*
X49654466Y-56391646D01*
X49751101Y-56251647D01*
X49811423Y-56092589D01*
X49831928Y-55923717D01*
X49811423Y-55754845D01*
X49807109Y-55743472D01*
X49801741Y-55673810D01*
X49834888Y-55612303D01*
X49896026Y-55578481D01*
X49923051Y-55575500D01*
X50044644Y-55575500D01*
X50044646Y-55575500D01*
X50229803Y-55536144D01*
X50402730Y-55459151D01*
X50555871Y-55347888D01*
X50659605Y-55232679D01*
X50719089Y-55196032D01*
X50788946Y-55197362D01*
X50846995Y-55236249D01*
X50867695Y-55271682D01*
X50926465Y-55426647D01*
X50926465Y-55426648D01*
X50988758Y-55516894D01*
X51023100Y-55566646D01*
X51128788Y-55660277D01*
X51150433Y-55679453D01*
X51301056Y-55758506D01*
X51301058Y-55758507D01*
X51466227Y-55799217D01*
X51636339Y-55799217D01*
X51801508Y-55758507D01*
X51881270Y-55716644D01*
X51952132Y-55679453D01*
X51952133Y-55679451D01*
X51952135Y-55679451D01*
X52079466Y-55566646D01*
X52090959Y-55549996D01*
X68844435Y-55549996D01*
X68844435Y-55550003D01*
X68864630Y-55729249D01*
X68864631Y-55729254D01*
X68924211Y-55899523D01*
X68991789Y-56007072D01*
X69020184Y-56052262D01*
X69147738Y-56179816D01*
X69300478Y-56275789D01*
X69387182Y-56306128D01*
X69470745Y-56335368D01*
X69470750Y-56335369D01*
X69649996Y-56355565D01*
X69650000Y-56355565D01*
X69650004Y-56355565D01*
X69829249Y-56335369D01*
X69829252Y-56335368D01*
X69829255Y-56335368D01*
X69999522Y-56275789D01*
X70152262Y-56179816D01*
X70279816Y-56052262D01*
X70375789Y-55899522D01*
X70435368Y-55729255D01*
X70436789Y-55716644D01*
X70455565Y-55550003D01*
X70455565Y-55549996D01*
X70435369Y-55370750D01*
X70435368Y-55370745D01*
X70399271Y-55267586D01*
X70375789Y-55200478D01*
X70372995Y-55196032D01*
X70279815Y-55047737D01*
X70152262Y-54920184D01*
X69999523Y-54824211D01*
X69829254Y-54764631D01*
X69829249Y-54764630D01*
X69650004Y-54744435D01*
X69649996Y-54744435D01*
X69470750Y-54764630D01*
X69470745Y-54764631D01*
X69300476Y-54824211D01*
X69147737Y-54920184D01*
X69020184Y-55047737D01*
X68924211Y-55200476D01*
X68864631Y-55370745D01*
X68864630Y-55370750D01*
X68844435Y-55549996D01*
X52090959Y-55549996D01*
X52176101Y-55426647D01*
X52236423Y-55267589D01*
X52256928Y-55098717D01*
X52236423Y-54929845D01*
X52176101Y-54770787D01*
X52171852Y-54764632D01*
X52121812Y-54692136D01*
X52079466Y-54630788D01*
X51952135Y-54517983D01*
X51952132Y-54517980D01*
X51801509Y-54438927D01*
X51636339Y-54398217D01*
X51466227Y-54398217D01*
X51301056Y-54438927D01*
X51150433Y-54517981D01*
X51045849Y-54610634D01*
X50982615Y-54640355D01*
X50913352Y-54631171D01*
X50860049Y-54585999D01*
X50840302Y-54530782D01*
X50835674Y-54486744D01*
X50832810Y-54477931D01*
X50777181Y-54306722D01*
X50777180Y-54306721D01*
X50777179Y-54306716D01*
X50682533Y-54142784D01*
X50555871Y-54002112D01*
X50485231Y-53950789D01*
X50402734Y-53890851D01*
X50402729Y-53890848D01*
X50229807Y-53813857D01*
X50229802Y-53813855D01*
X50134951Y-53793694D01*
X50073469Y-53760501D01*
X50039693Y-53699338D01*
X50044345Y-53629624D01*
X50055735Y-53606436D01*
X50075789Y-53574522D01*
X50110429Y-53475525D01*
X50151151Y-53418750D01*
X50216103Y-53393002D01*
X50284665Y-53406458D01*
X50315152Y-53428799D01*
X50421868Y-53535515D01*
X50553098Y-53611281D01*
X50699467Y-53650500D01*
X62095632Y-53650500D01*
X62162671Y-53670185D01*
X62208426Y-53722989D01*
X62218727Y-53759550D01*
X62219857Y-53768862D01*
X62219860Y-53768874D01*
X62280182Y-53927931D01*
X62327715Y-53996793D01*
X62376817Y-54067929D01*
X62472547Y-54152738D01*
X62504150Y-54180736D01*
X62654773Y-54259789D01*
X62654775Y-54259790D01*
X62819944Y-54300500D01*
X62990056Y-54300500D01*
X63155225Y-54259790D01*
X63234692Y-54218081D01*
X63305849Y-54180736D01*
X63305850Y-54180734D01*
X63305852Y-54180734D01*
X63433183Y-54067929D01*
X63529818Y-53927930D01*
X63570308Y-53821164D01*
X63612485Y-53765462D01*
X63678083Y-53741404D01*
X63746273Y-53756631D01*
X63795407Y-53806306D01*
X63802192Y-53821165D01*
X63842681Y-53927928D01*
X63842682Y-53927931D01*
X63890215Y-53996793D01*
X63939317Y-54067929D01*
X64035047Y-54152738D01*
X64066650Y-54180736D01*
X64217273Y-54259789D01*
X64217275Y-54259790D01*
X64382444Y-54300500D01*
X64552556Y-54300500D01*
X64717725Y-54259790D01*
X64797192Y-54218081D01*
X64868349Y-54180736D01*
X64868350Y-54180734D01*
X64868352Y-54180734D01*
X64995683Y-54067929D01*
X65092318Y-53927930D01*
X65152640Y-53768872D01*
X65173145Y-53600000D01*
X65152640Y-53431128D01*
X65092318Y-53272070D01*
X65087254Y-53264734D01*
X65048721Y-53208909D01*
X65026838Y-53142555D01*
X65044303Y-53074903D01*
X65063086Y-53050792D01*
X69098202Y-49015676D01*
X69156204Y-48982963D01*
X69250225Y-48959790D01*
X69400852Y-48880734D01*
X69528183Y-48767929D01*
X69624818Y-48627930D01*
X69685140Y-48468872D01*
X69705645Y-48300000D01*
X69685140Y-48131128D01*
X69681024Y-48120276D01*
X69662542Y-48071542D01*
X69624818Y-47972070D01*
X69623237Y-47969780D01*
X69590476Y-47922318D01*
X69528183Y-47832071D01*
X69400852Y-47719266D01*
X69400849Y-47719263D01*
X69250226Y-47640210D01*
X69085056Y-47599500D01*
X68914944Y-47599500D01*
X68749773Y-47640210D01*
X68599150Y-47719263D01*
X68471816Y-47832072D01*
X68375182Y-47972068D01*
X68314858Y-48131131D01*
X68314857Y-48131134D01*
X68314468Y-48134341D01*
X68313530Y-48136518D01*
X68313064Y-48138411D01*
X68312749Y-48138333D01*
X68286840Y-48198516D01*
X68279055Y-48207063D01*
X64022939Y-52463181D01*
X63961616Y-52496666D01*
X63935258Y-52499500D01*
X52710301Y-52499500D01*
X52643262Y-52479815D01*
X52597507Y-52427011D01*
X52591321Y-52409244D01*
X52557919Y-52321170D01*
X52529817Y-52247070D01*
X52514928Y-52225500D01*
X52443429Y-52121916D01*
X52421546Y-52055562D01*
X52439011Y-51987910D01*
X52490279Y-51940440D01*
X52504531Y-51934432D01*
X52507052Y-51933550D01*
X52659792Y-51837577D01*
X52787346Y-51710023D01*
X52883319Y-51557283D01*
X52942898Y-51387016D01*
X52942899Y-51387010D01*
X52963095Y-51207764D01*
X52963095Y-51207757D01*
X52942899Y-51028511D01*
X52942898Y-51028506D01*
X52883318Y-50858237D01*
X52787345Y-50705498D01*
X52694028Y-50612181D01*
X52660543Y-50550858D01*
X52665527Y-50481166D01*
X52707399Y-50425233D01*
X52772863Y-50400816D01*
X52781709Y-50400500D01*
X52910058Y-50400500D01*
X52910058Y-50400499D01*
X52971946Y-50385245D01*
X53041748Y-50388313D01*
X53059245Y-50395843D01*
X53120531Y-50428009D01*
X53285700Y-50468719D01*
X53455812Y-50468719D01*
X53620981Y-50428009D01*
X53709016Y-50381804D01*
X53771605Y-50348955D01*
X53771606Y-50348953D01*
X53771608Y-50348953D01*
X53898939Y-50236148D01*
X53995574Y-50096149D01*
X54055896Y-49937091D01*
X54076401Y-49768219D01*
X54055896Y-49599347D01*
X53995574Y-49440289D01*
X53972399Y-49406715D01*
X53961232Y-49390537D01*
X53898939Y-49300290D01*
X53771608Y-49187485D01*
X53771605Y-49187482D01*
X53620982Y-49108429D01*
X53455812Y-49067719D01*
X53285700Y-49067719D01*
X53285699Y-49067719D01*
X53223805Y-49082974D01*
X53154003Y-49079904D01*
X53136512Y-49072376D01*
X53075225Y-49040210D01*
X53036633Y-49030697D01*
X53004932Y-49022884D01*
X52944552Y-48987727D01*
X52912764Y-48925507D01*
X52911515Y-48917457D01*
X52910140Y-48906128D01*
X52900509Y-48880734D01*
X52873978Y-48810775D01*
X52849818Y-48747070D01*
X52753183Y-48607071D01*
X52654733Y-48519852D01*
X52625849Y-48494263D01*
X52475226Y-48415210D01*
X52310056Y-48374500D01*
X52171771Y-48374500D01*
X52104732Y-48354815D01*
X52101407Y-48350978D01*
X54620333Y-48350978D01*
X54640837Y-48519847D01*
X54640838Y-48519852D01*
X54701160Y-48678909D01*
X54715718Y-48699999D01*
X54797795Y-48818907D01*
X54882416Y-48893874D01*
X54925128Y-48931714D01*
X55038536Y-48991235D01*
X55075753Y-49010768D01*
X55240922Y-49051478D01*
X55411034Y-49051478D01*
X55576203Y-49010768D01*
X55655670Y-48969059D01*
X55726827Y-48931714D01*
X55726828Y-48931712D01*
X55726830Y-48931712D01*
X55854161Y-48818907D01*
X55950796Y-48678908D01*
X55964829Y-48641906D01*
X56661261Y-48641906D01*
X56681765Y-48810775D01*
X56681766Y-48810780D01*
X56742088Y-48969837D01*
X56790664Y-49040210D01*
X56838723Y-49109835D01*
X56904297Y-49167928D01*
X56966056Y-49222642D01*
X57114002Y-49300290D01*
X57116681Y-49301696D01*
X57281850Y-49342406D01*
X57451962Y-49342406D01*
X57617131Y-49301696D01*
X57696598Y-49259987D01*
X57767755Y-49222642D01*
X57767756Y-49222640D01*
X57767758Y-49222640D01*
X57895089Y-49109835D01*
X57991724Y-48969836D01*
X58052046Y-48810778D01*
X58072551Y-48641906D01*
X58052046Y-48473034D01*
X58050466Y-48468869D01*
X57991723Y-48313974D01*
X57935728Y-48232853D01*
X57895089Y-48173977D01*
X57784946Y-48076399D01*
X57767755Y-48061169D01*
X57617132Y-47982116D01*
X57451962Y-47941406D01*
X57281850Y-47941406D01*
X57116679Y-47982116D01*
X56966056Y-48061169D01*
X56838722Y-48173978D01*
X56742088Y-48313974D01*
X56681766Y-48473031D01*
X56681765Y-48473036D01*
X56661261Y-48641906D01*
X55964829Y-48641906D01*
X56011118Y-48519850D01*
X56031623Y-48350978D01*
X56011118Y-48182106D01*
X56008035Y-48173978D01*
X55965253Y-48061169D01*
X55950796Y-48023048D01*
X55938846Y-48005736D01*
X55914029Y-47969782D01*
X55854161Y-47883049D01*
X55726830Y-47770244D01*
X55726827Y-47770241D01*
X55681942Y-47746684D01*
X55631729Y-47698099D01*
X55615755Y-47630080D01*
X55639091Y-47564222D01*
X55694327Y-47521436D01*
X55698614Y-47519846D01*
X55753033Y-47500804D01*
X55824522Y-47475789D01*
X55977262Y-47379816D01*
X56104816Y-47252262D01*
X56200789Y-47099522D01*
X56260368Y-46929255D01*
X56260901Y-46924523D01*
X56280565Y-46750003D01*
X56280565Y-46749996D01*
X56260369Y-46570750D01*
X56260368Y-46570745D01*
X56200788Y-46400476D01*
X56200489Y-46400000D01*
X62199355Y-46400000D01*
X62219859Y-46568869D01*
X62219860Y-46568874D01*
X62280182Y-46727931D01*
X62342475Y-46818177D01*
X62376817Y-46867929D01*
X62477438Y-46957071D01*
X62504150Y-46980736D01*
X62654773Y-47059789D01*
X62654775Y-47059790D01*
X62819944Y-47100500D01*
X62990056Y-47100500D01*
X63155225Y-47059790D01*
X63270234Y-46999428D01*
X63305849Y-46980736D01*
X63305850Y-46980734D01*
X63305852Y-46980734D01*
X63433183Y-46867929D01*
X63529818Y-46727930D01*
X63587818Y-46574996D01*
X65719435Y-46574996D01*
X65719435Y-46575003D01*
X65739630Y-46754249D01*
X65739631Y-46754254D01*
X65799211Y-46924523D01*
X65856221Y-47015253D01*
X65895184Y-47077262D01*
X66022738Y-47204816D01*
X66106680Y-47257560D01*
X66158641Y-47290210D01*
X66175478Y-47300789D01*
X66260496Y-47330538D01*
X66345745Y-47360368D01*
X66345750Y-47360369D01*
X66524996Y-47380565D01*
X66525000Y-47380565D01*
X66525004Y-47380565D01*
X66704249Y-47360369D01*
X66704252Y-47360368D01*
X66704255Y-47360368D01*
X66874522Y-47300789D01*
X67027262Y-47204816D01*
X67154816Y-47077262D01*
X67250789Y-46924522D01*
X67310368Y-46754255D01*
X67310369Y-46754249D01*
X67330565Y-46575003D01*
X67330565Y-46574996D01*
X67310369Y-46395750D01*
X67310368Y-46395745D01*
X67257224Y-46243869D01*
X67250789Y-46225478D01*
X67246044Y-46217927D01*
X67184628Y-46120184D01*
X67154816Y-46072738D01*
X67027262Y-45945184D01*
X67021725Y-45941705D01*
X66874523Y-45849211D01*
X66704254Y-45789631D01*
X66704249Y-45789630D01*
X66525004Y-45769435D01*
X66524996Y-45769435D01*
X66345750Y-45789630D01*
X66345745Y-45789631D01*
X66175476Y-45849211D01*
X66022737Y-45945184D01*
X65895184Y-46072737D01*
X65799211Y-46225476D01*
X65739631Y-46395745D01*
X65739630Y-46395750D01*
X65719435Y-46574996D01*
X63587818Y-46574996D01*
X63590140Y-46568872D01*
X63610645Y-46400000D01*
X63590140Y-46231128D01*
X63529818Y-46072070D01*
X63433183Y-45932071D01*
X63305852Y-45819266D01*
X63305849Y-45819263D01*
X63155226Y-45740210D01*
X62990056Y-45699500D01*
X62819944Y-45699500D01*
X62654773Y-45740210D01*
X62504150Y-45819263D01*
X62376816Y-45932072D01*
X62280182Y-46072068D01*
X62219860Y-46231125D01*
X62219859Y-46231130D01*
X62199355Y-46400000D01*
X56200489Y-46400000D01*
X56156966Y-46330734D01*
X56104816Y-46247738D01*
X55977262Y-46120184D01*
X55924043Y-46086744D01*
X55824523Y-46024211D01*
X55654254Y-45964631D01*
X55654249Y-45964630D01*
X55475004Y-45944435D01*
X55474996Y-45944435D01*
X55295750Y-45964630D01*
X55295745Y-45964631D01*
X55125476Y-46024211D01*
X54972737Y-46120184D01*
X54845184Y-46247737D01*
X54749211Y-46400476D01*
X54689631Y-46570745D01*
X54689630Y-46570750D01*
X54669435Y-46749996D01*
X54669435Y-46750003D01*
X54689630Y-46929249D01*
X54689631Y-46929254D01*
X54749211Y-47099523D01*
X54845184Y-47252262D01*
X54972737Y-47379815D01*
X54972743Y-47379820D01*
X55110272Y-47466236D01*
X55156563Y-47518570D01*
X55167211Y-47587624D01*
X55138836Y-47651472D01*
X55082704Y-47688359D01*
X55082768Y-47688527D01*
X55082016Y-47688812D01*
X55080446Y-47689844D01*
X55076246Y-47691000D01*
X55075752Y-47691187D01*
X54925128Y-47770241D01*
X54797794Y-47883050D01*
X54701160Y-48023046D01*
X54640838Y-48182103D01*
X54640837Y-48182108D01*
X54620333Y-48350978D01*
X52101407Y-48350978D01*
X52058977Y-48302011D01*
X52049033Y-48232853D01*
X52069721Y-48180060D01*
X52082645Y-48161336D01*
X52105077Y-48128838D01*
X52165399Y-47969780D01*
X52185904Y-47800908D01*
X52165399Y-47632036D01*
X52161619Y-47622070D01*
X52122851Y-47519846D01*
X52105077Y-47472978D01*
X52100423Y-47466236D01*
X52040771Y-47379816D01*
X52008442Y-47332979D01*
X51881111Y-47220174D01*
X51881108Y-47220171D01*
X51730485Y-47141118D01*
X51565315Y-47100408D01*
X51395203Y-47100408D01*
X51395202Y-47100408D01*
X51364573Y-47107957D01*
X51294771Y-47104887D01*
X51237709Y-47064567D01*
X51232859Y-47058014D01*
X51163183Y-46957071D01*
X51035849Y-46844263D01*
X50885226Y-46765210D01*
X50829568Y-46751492D01*
X50769188Y-46716336D01*
X50737399Y-46654117D01*
X50742202Y-46590139D01*
X50747499Y-46575003D01*
X50758722Y-46542929D01*
X50766246Y-46521427D01*
X50766248Y-46521417D01*
X50786444Y-46342171D01*
X50786444Y-46342164D01*
X50766248Y-46162918D01*
X50766247Y-46162913D01*
X50739593Y-46086740D01*
X50706668Y-45992646D01*
X50689064Y-45964630D01*
X50652678Y-45906722D01*
X50610695Y-45839906D01*
X50520789Y-45750000D01*
X52018072Y-45750000D01*
X52038576Y-45918869D01*
X52038577Y-45918874D01*
X52098899Y-46077931D01*
X52149861Y-46151761D01*
X52195534Y-46217929D01*
X52282737Y-46295184D01*
X52322867Y-46330736D01*
X52460423Y-46402931D01*
X52473492Y-46409790D01*
X52638661Y-46450500D01*
X52808773Y-46450500D01*
X52973942Y-46409790D01*
X53102784Y-46342168D01*
X53124566Y-46330736D01*
X53124567Y-46330734D01*
X53124569Y-46330734D01*
X53251900Y-46217929D01*
X53348535Y-46077930D01*
X53408857Y-45918872D01*
X53429362Y-45750000D01*
X53408857Y-45581128D01*
X53348535Y-45422070D01*
X53342865Y-45413856D01*
X53314193Y-45372318D01*
X53251900Y-45282071D01*
X53124569Y-45169266D01*
X53124566Y-45169263D01*
X52973943Y-45090210D01*
X52808773Y-45049500D01*
X52638661Y-45049500D01*
X52473490Y-45090210D01*
X52322867Y-45169263D01*
X52195533Y-45282072D01*
X52098899Y-45422068D01*
X52038577Y-45581125D01*
X52038576Y-45581130D01*
X52018072Y-45750000D01*
X50520789Y-45750000D01*
X50483141Y-45712352D01*
X50427329Y-45677283D01*
X50330400Y-45616378D01*
X50294792Y-45603918D01*
X50238016Y-45563196D01*
X50212652Y-45501820D01*
X50211680Y-45493812D01*
X50210140Y-45481128D01*
X50149818Y-45322070D01*
X50122208Y-45282071D01*
X50115476Y-45272318D01*
X50053183Y-45182071D01*
X49925852Y-45069266D01*
X49925849Y-45069263D01*
X49775226Y-44990210D01*
X49610056Y-44949500D01*
X49439944Y-44949500D01*
X49274773Y-44990210D01*
X49124150Y-45069264D01*
X49075961Y-45111955D01*
X49012727Y-45141675D01*
X48943464Y-45132491D01*
X48906054Y-45106819D01*
X46687590Y-42888355D01*
X46687588Y-42888352D01*
X46568717Y-42769481D01*
X46568716Y-42769480D01*
X46481904Y-42719360D01*
X46481904Y-42719359D01*
X46481900Y-42719358D01*
X46431785Y-42690423D01*
X46279057Y-42649499D01*
X46120943Y-42649499D01*
X46113347Y-42649499D01*
X46113331Y-42649500D01*
X37242093Y-42649500D01*
X37175054Y-42629815D01*
X37129299Y-42577011D01*
X37119355Y-42507853D01*
X37134706Y-42463500D01*
X37189679Y-42368284D01*
X37248174Y-42188256D01*
X37267960Y-42000000D01*
X62732040Y-42000000D01*
X62751826Y-42188256D01*
X62751827Y-42188259D01*
X62810318Y-42368277D01*
X62810321Y-42368284D01*
X62904967Y-42532216D01*
X63010570Y-42649500D01*
X63031629Y-42672888D01*
X63184765Y-42784148D01*
X63184770Y-42784151D01*
X63357692Y-42861142D01*
X63357697Y-42861144D01*
X63542854Y-42900500D01*
X63542855Y-42900500D01*
X63732144Y-42900500D01*
X63732146Y-42900500D01*
X63917303Y-42861144D01*
X64090230Y-42784151D01*
X64243371Y-42672888D01*
X64370033Y-42532216D01*
X64464679Y-42368284D01*
X64523174Y-42188256D01*
X64542960Y-42000000D01*
X64523174Y-41811744D01*
X64464679Y-41631716D01*
X64370033Y-41467784D01*
X64243371Y-41327112D01*
X64243370Y-41327111D01*
X64090234Y-41215851D01*
X64090229Y-41215848D01*
X63917307Y-41138857D01*
X63917302Y-41138855D01*
X63771501Y-41107865D01*
X63732146Y-41099500D01*
X63542854Y-41099500D01*
X63510397Y-41106398D01*
X63357697Y-41138855D01*
X63357692Y-41138857D01*
X63184770Y-41215848D01*
X63184765Y-41215851D01*
X63031629Y-41327111D01*
X62904966Y-41467785D01*
X62810321Y-41631715D01*
X62810318Y-41631722D01*
X62751827Y-41811740D01*
X62751826Y-41811744D01*
X62732040Y-42000000D01*
X37267960Y-42000000D01*
X37248174Y-41811744D01*
X37189679Y-41631716D01*
X37095033Y-41467784D01*
X36968371Y-41327112D01*
X36968370Y-41327111D01*
X36815234Y-41215851D01*
X36815229Y-41215848D01*
X36642307Y-41138857D01*
X36642302Y-41138855D01*
X36496501Y-41107865D01*
X36457146Y-41099500D01*
X36267854Y-41099500D01*
X36235397Y-41106398D01*
X36082697Y-41138855D01*
X36082692Y-41138857D01*
X35909770Y-41215848D01*
X35909765Y-41215851D01*
X35756629Y-41327111D01*
X35629966Y-41467785D01*
X35535321Y-41631715D01*
X35535318Y-41631722D01*
X35476827Y-41811740D01*
X35476826Y-41811744D01*
X35457040Y-42000000D01*
X35476826Y-42188256D01*
X35476827Y-42188259D01*
X35535318Y-42368277D01*
X35535321Y-42368284D01*
X35590294Y-42463500D01*
X35606767Y-42531400D01*
X35583914Y-42597427D01*
X35528993Y-42640618D01*
X35482907Y-42649500D01*
X35386670Y-42649500D01*
X35386654Y-42649499D01*
X35379058Y-42649499D01*
X35220943Y-42649499D01*
X35144579Y-42669961D01*
X35068214Y-42690423D01*
X35068209Y-42690426D01*
X34931290Y-42769475D01*
X34931282Y-42769481D01*
X33766981Y-43933782D01*
X33766979Y-43933785D01*
X33716861Y-44020594D01*
X33716859Y-44020596D01*
X33687925Y-44070709D01*
X33687924Y-44070710D01*
X33687923Y-44070715D01*
X33646999Y-44223443D01*
X33646999Y-44223445D01*
X33646999Y-44391546D01*
X33647000Y-44391559D01*
X33647000Y-45673199D01*
X33627315Y-45740238D01*
X33625051Y-45743638D01*
X33622682Y-45747069D01*
X33562360Y-45906125D01*
X33562359Y-45906130D01*
X33541855Y-46075000D01*
X29200500Y-46075000D01*
X29200500Y-38849996D01*
X29519435Y-38849996D01*
X29519435Y-38850003D01*
X29539630Y-39029249D01*
X29539631Y-39029254D01*
X29599211Y-39199523D01*
X29629086Y-39247068D01*
X29695184Y-39352262D01*
X29822738Y-39479816D01*
X29975478Y-39575789D01*
X30145745Y-39635368D01*
X30145750Y-39635369D01*
X30324996Y-39655565D01*
X30325000Y-39655565D01*
X30325004Y-39655565D01*
X30504249Y-39635369D01*
X30504252Y-39635368D01*
X30504255Y-39635368D01*
X30674522Y-39575789D01*
X30715571Y-39549996D01*
X32844435Y-39549996D01*
X32844435Y-39550003D01*
X32864630Y-39729249D01*
X32864631Y-39729254D01*
X32924211Y-39899523D01*
X33014318Y-40042927D01*
X33020184Y-40052262D01*
X33147738Y-40179816D01*
X33300478Y-40275789D01*
X33442544Y-40325500D01*
X33470745Y-40335368D01*
X33470750Y-40335369D01*
X33649996Y-40355565D01*
X33650000Y-40355565D01*
X33650004Y-40355565D01*
X33829249Y-40335369D01*
X33829252Y-40335368D01*
X33829255Y-40335368D01*
X33999522Y-40275789D01*
X34152262Y-40179816D01*
X34279816Y-40052262D01*
X34375789Y-39899522D01*
X34435368Y-39729255D01*
X34443671Y-39655565D01*
X34455565Y-39550003D01*
X34455565Y-39549996D01*
X34435369Y-39370750D01*
X34435368Y-39370745D01*
X34375789Y-39200478D01*
X34375188Y-39199522D01*
X34279815Y-39047737D01*
X34152262Y-38920184D01*
X33999523Y-38824211D01*
X33829254Y-38764631D01*
X33829249Y-38764630D01*
X33650004Y-38744435D01*
X33649996Y-38744435D01*
X33470750Y-38764630D01*
X33470745Y-38764631D01*
X33300476Y-38824211D01*
X33147737Y-38920184D01*
X33020184Y-39047737D01*
X32924211Y-39200476D01*
X32864631Y-39370745D01*
X32864630Y-39370750D01*
X32844435Y-39549996D01*
X30715571Y-39549996D01*
X30827262Y-39479816D01*
X30954816Y-39352262D01*
X31050789Y-39199522D01*
X31110368Y-39029255D01*
X31110369Y-39029249D01*
X31130565Y-38850003D01*
X31130565Y-38849996D01*
X31110369Y-38670750D01*
X31110368Y-38670745D01*
X31094536Y-38625500D01*
X31050789Y-38500478D01*
X31024821Y-38459151D01*
X30954815Y-38347737D01*
X30827262Y-38220184D01*
X30674523Y-38124211D01*
X30504254Y-38064631D01*
X30504249Y-38064630D01*
X30325004Y-38044435D01*
X30324996Y-38044435D01*
X30145750Y-38064630D01*
X30145745Y-38064631D01*
X29975476Y-38124211D01*
X29822737Y-38220184D01*
X29695184Y-38347737D01*
X29599211Y-38500476D01*
X29539631Y-38670745D01*
X29539630Y-38670750D01*
X29519435Y-38849996D01*
X29200500Y-38849996D01*
X29200500Y-34499997D01*
X31194652Y-34499997D01*
X31194652Y-34500002D01*
X31214028Y-34857368D01*
X31214029Y-34857385D01*
X31271926Y-35210539D01*
X31271932Y-35210565D01*
X31367672Y-35555392D01*
X31367674Y-35555399D01*
X31500142Y-35887870D01*
X31500151Y-35887888D01*
X31667784Y-36204077D01*
X31667787Y-36204082D01*
X31667789Y-36204085D01*
X31850529Y-36473607D01*
X31868634Y-36500309D01*
X31868641Y-36500319D01*
X32050549Y-36714477D01*
X32100332Y-36773086D01*
X32360163Y-37019211D01*
X32645081Y-37235800D01*
X32951747Y-37420315D01*
X32951749Y-37420316D01*
X32951751Y-37420317D01*
X32951755Y-37420319D01*
X33276552Y-37570585D01*
X33276565Y-37570591D01*
X33615726Y-37684868D01*
X33965254Y-37761805D01*
X34321052Y-37800500D01*
X34321058Y-37800500D01*
X34678942Y-37800500D01*
X34678948Y-37800500D01*
X35034746Y-37761805D01*
X35384274Y-37684868D01*
X35413561Y-37675000D01*
X37669540Y-37675000D01*
X37689326Y-37863256D01*
X37689327Y-37863259D01*
X37747818Y-38043277D01*
X37747821Y-38043284D01*
X37842467Y-38207216D01*
X37946619Y-38322888D01*
X37969129Y-38347888D01*
X38122265Y-38459148D01*
X38122270Y-38459151D01*
X38295191Y-38536142D01*
X38295193Y-38536142D01*
X38295197Y-38536144D01*
X38360329Y-38549987D01*
X38421809Y-38583178D01*
X38422228Y-38583596D01*
X39996584Y-40157952D01*
X40029307Y-40179816D01*
X40119505Y-40240084D01*
X40119506Y-40240084D01*
X40119507Y-40240085D01*
X40256082Y-40296656D01*
X40256087Y-40296658D01*
X40256091Y-40296658D01*
X40256092Y-40296659D01*
X40401079Y-40325500D01*
X40401082Y-40325500D01*
X40401083Y-40325500D01*
X40548918Y-40325500D01*
X51288163Y-40325500D01*
X51355202Y-40345185D01*
X51361048Y-40349182D01*
X51374765Y-40359148D01*
X51374770Y-40359151D01*
X51547692Y-40436142D01*
X51547697Y-40436144D01*
X51732854Y-40475500D01*
X51732855Y-40475500D01*
X51922144Y-40475500D01*
X51922146Y-40475500D01*
X52107303Y-40436144D01*
X52280230Y-40359151D01*
X52433371Y-40247888D01*
X52560033Y-40107216D01*
X52654679Y-39943284D01*
X52713174Y-39763256D01*
X52732960Y-39575000D01*
X54566855Y-39575000D01*
X54587359Y-39743869D01*
X54587360Y-39743874D01*
X54647682Y-39902931D01*
X54709975Y-39993177D01*
X54744317Y-40042929D01*
X54850005Y-40136560D01*
X54871650Y-40155736D01*
X55022273Y-40234789D01*
X55022275Y-40234790D01*
X55187444Y-40275500D01*
X55357556Y-40275500D01*
X55522725Y-40234790D01*
X55627472Y-40179814D01*
X55673349Y-40155736D01*
X55673350Y-40155734D01*
X55673352Y-40155734D01*
X55800683Y-40042929D01*
X55897318Y-39902930D01*
X55957640Y-39743872D01*
X55978145Y-39575000D01*
X55957640Y-39406128D01*
X55897318Y-39247070D01*
X55869463Y-39206716D01*
X55862976Y-39197318D01*
X55800683Y-39107071D01*
X55673352Y-38994266D01*
X55673349Y-38994263D01*
X55522726Y-38915210D01*
X55357556Y-38874500D01*
X55187444Y-38874500D01*
X55022273Y-38915210D01*
X54871650Y-38994263D01*
X54744316Y-39107072D01*
X54647682Y-39247068D01*
X54587360Y-39406125D01*
X54587359Y-39406130D01*
X54566855Y-39575000D01*
X52732960Y-39575000D01*
X52713174Y-39386744D01*
X52654679Y-39206716D01*
X52560033Y-39042784D01*
X52433371Y-38902112D01*
X52433370Y-38902111D01*
X52280234Y-38790851D01*
X52280229Y-38790848D01*
X52107307Y-38713857D01*
X52107302Y-38713855D01*
X51961444Y-38682853D01*
X51922146Y-38674500D01*
X51732854Y-38674500D01*
X51700397Y-38681398D01*
X51547697Y-38713855D01*
X51547692Y-38713857D01*
X51374770Y-38790848D01*
X51374765Y-38790851D01*
X51361048Y-38800818D01*
X51295242Y-38824298D01*
X51288163Y-38824500D01*
X42777821Y-38824500D01*
X42710782Y-38804815D01*
X42665027Y-38752011D01*
X42655083Y-38682853D01*
X42684108Y-38619297D01*
X42727385Y-38587221D01*
X42842108Y-38536142D01*
X42902730Y-38509151D01*
X43055871Y-38397888D01*
X43182533Y-38257216D01*
X43277179Y-38093284D01*
X43335674Y-37913256D01*
X43355460Y-37725000D01*
X43347577Y-37650000D01*
X60569540Y-37650000D01*
X60589326Y-37838256D01*
X60589327Y-37838259D01*
X60647818Y-38018277D01*
X60647821Y-38018284D01*
X60742467Y-38182216D01*
X60869129Y-38322888D01*
X61022265Y-38434148D01*
X61022270Y-38434151D01*
X61195192Y-38511142D01*
X61195197Y-38511144D01*
X61380354Y-38550500D01*
X61380355Y-38550500D01*
X61569644Y-38550500D01*
X61569646Y-38550500D01*
X61754803Y-38511144D01*
X61927730Y-38434151D01*
X62080871Y-38322888D01*
X62207533Y-38182216D01*
X62302179Y-38018284D01*
X62360674Y-37838256D01*
X62380460Y-37650000D01*
X62360674Y-37461744D01*
X62302179Y-37281716D01*
X62207533Y-37117784D01*
X62080871Y-36977112D01*
X62080870Y-36977111D01*
X61927734Y-36865851D01*
X61927729Y-36865848D01*
X61754807Y-36788857D01*
X61754802Y-36788855D01*
X61609001Y-36757865D01*
X61569646Y-36749500D01*
X61380354Y-36749500D01*
X61347897Y-36756398D01*
X61195197Y-36788855D01*
X61195192Y-36788857D01*
X61022270Y-36865848D01*
X61022265Y-36865851D01*
X60869129Y-36977111D01*
X60742466Y-37117785D01*
X60647821Y-37281715D01*
X60647818Y-37281722D01*
X60589521Y-37461144D01*
X60589326Y-37461744D01*
X60569540Y-37650000D01*
X43347577Y-37650000D01*
X43335674Y-37536744D01*
X43277179Y-37356716D01*
X43182533Y-37192784D01*
X43055871Y-37052112D01*
X43055870Y-37052111D01*
X42902734Y-36940851D01*
X42902729Y-36940848D01*
X42729807Y-36863857D01*
X42729802Y-36863855D01*
X42584001Y-36832865D01*
X42544646Y-36824500D01*
X42355354Y-36824500D01*
X42322897Y-36831398D01*
X42170197Y-36863855D01*
X42170192Y-36863857D01*
X41997270Y-36940848D01*
X41997265Y-36940851D01*
X41844129Y-37052111D01*
X41717466Y-37192785D01*
X41622821Y-37356715D01*
X41622818Y-37356722D01*
X41588696Y-37461740D01*
X41564326Y-37536744D01*
X41544540Y-37725000D01*
X41564326Y-37913256D01*
X41564327Y-37913259D01*
X41622818Y-38093277D01*
X41622821Y-38093284D01*
X41717467Y-38257216D01*
X41776599Y-38322888D01*
X41844129Y-38397888D01*
X41997265Y-38509148D01*
X41997270Y-38509151D01*
X42172615Y-38587221D01*
X42225852Y-38632471D01*
X42246173Y-38699320D01*
X42227127Y-38766544D01*
X42174761Y-38812799D01*
X42122179Y-38824500D01*
X40837230Y-38824500D01*
X40770191Y-38804815D01*
X40749549Y-38788181D01*
X39487770Y-37526402D01*
X39457521Y-37477041D01*
X39402179Y-37306716D01*
X39307533Y-37142784D01*
X39180871Y-37002112D01*
X39180870Y-37002111D01*
X39027734Y-36890851D01*
X39027729Y-36890848D01*
X38854807Y-36813857D01*
X38854802Y-36813855D01*
X38709001Y-36782865D01*
X38669646Y-36774500D01*
X38480354Y-36774500D01*
X38447897Y-36781398D01*
X38295197Y-36813855D01*
X38295192Y-36813857D01*
X38122270Y-36890848D01*
X38122265Y-36890851D01*
X37969129Y-37002111D01*
X37842466Y-37142785D01*
X37747821Y-37306715D01*
X37747818Y-37306722D01*
X37697644Y-37461144D01*
X37689326Y-37486744D01*
X37669540Y-37675000D01*
X35413561Y-37675000D01*
X35723435Y-37570591D01*
X36048253Y-37420315D01*
X36354919Y-37235800D01*
X36639837Y-37019211D01*
X36899668Y-36773086D01*
X37046688Y-36600000D01*
X46094540Y-36600000D01*
X46114326Y-36788256D01*
X46114327Y-36788259D01*
X46172818Y-36968277D01*
X46172821Y-36968284D01*
X46267467Y-37132216D01*
X46322003Y-37192784D01*
X46394129Y-37272888D01*
X46547265Y-37384148D01*
X46547270Y-37384151D01*
X46720192Y-37461142D01*
X46720197Y-37461144D01*
X46905354Y-37500500D01*
X46905355Y-37500500D01*
X47094644Y-37500500D01*
X47094646Y-37500500D01*
X47279803Y-37461144D01*
X47452730Y-37384151D01*
X47605871Y-37272888D01*
X47732533Y-37132216D01*
X47827179Y-36968284D01*
X47882069Y-36799351D01*
X47921506Y-36741675D01*
X47985865Y-36714477D01*
X48054711Y-36726392D01*
X48106187Y-36773636D01*
X48117931Y-36799351D01*
X48172818Y-36968277D01*
X48172821Y-36968284D01*
X48267467Y-37132216D01*
X48322003Y-37192784D01*
X48394129Y-37272888D01*
X48547265Y-37384148D01*
X48547270Y-37384151D01*
X48720192Y-37461142D01*
X48720197Y-37461144D01*
X48905354Y-37500500D01*
X48905355Y-37500500D01*
X49094644Y-37500500D01*
X49094646Y-37500500D01*
X49279803Y-37461144D01*
X49452730Y-37384151D01*
X49605871Y-37272888D01*
X49732533Y-37132216D01*
X49827179Y-36968284D01*
X49882069Y-36799351D01*
X49921506Y-36741675D01*
X49985865Y-36714477D01*
X50054711Y-36726392D01*
X50106187Y-36773636D01*
X50117931Y-36799351D01*
X50172818Y-36968277D01*
X50172821Y-36968284D01*
X50267467Y-37132216D01*
X50322003Y-37192784D01*
X50394129Y-37272888D01*
X50547265Y-37384148D01*
X50547270Y-37384151D01*
X50720192Y-37461142D01*
X50720197Y-37461144D01*
X50905354Y-37500500D01*
X50905355Y-37500500D01*
X51094644Y-37500500D01*
X51094646Y-37500500D01*
X51279803Y-37461144D01*
X51452730Y-37384151D01*
X51605871Y-37272888D01*
X51732533Y-37132216D01*
X51827179Y-36968284D01*
X51882069Y-36799351D01*
X51921506Y-36741675D01*
X51985865Y-36714477D01*
X52054711Y-36726392D01*
X52106187Y-36773636D01*
X52117931Y-36799351D01*
X52172818Y-36968277D01*
X52172821Y-36968284D01*
X52267467Y-37132216D01*
X52322003Y-37192784D01*
X52394129Y-37272888D01*
X52547265Y-37384148D01*
X52547270Y-37384151D01*
X52720192Y-37461142D01*
X52720197Y-37461144D01*
X52905354Y-37500500D01*
X52905355Y-37500500D01*
X53094644Y-37500500D01*
X53094646Y-37500500D01*
X53279803Y-37461144D01*
X53452730Y-37384151D01*
X53605871Y-37272888D01*
X53732533Y-37132216D01*
X53827179Y-36968284D01*
X53885674Y-36788256D01*
X53905460Y-36600000D01*
X53885674Y-36411744D01*
X53827179Y-36231716D01*
X53732533Y-36067784D01*
X53605871Y-35927112D01*
X53551859Y-35887870D01*
X53452734Y-35815851D01*
X53452729Y-35815848D01*
X53279807Y-35738857D01*
X53279802Y-35738855D01*
X53134001Y-35707865D01*
X53094646Y-35699500D01*
X52905354Y-35699500D01*
X52872897Y-35706398D01*
X52720197Y-35738855D01*
X52720192Y-35738857D01*
X52547270Y-35815848D01*
X52547265Y-35815851D01*
X52394129Y-35927111D01*
X52267466Y-36067785D01*
X52172821Y-36231715D01*
X52172818Y-36231722D01*
X52117931Y-36400648D01*
X52078493Y-36458324D01*
X52014135Y-36485522D01*
X51945288Y-36473607D01*
X51893813Y-36426363D01*
X51882069Y-36400648D01*
X51827181Y-36231722D01*
X51827180Y-36231721D01*
X51827179Y-36231716D01*
X51732533Y-36067784D01*
X51605871Y-35927112D01*
X51551859Y-35887870D01*
X51452734Y-35815851D01*
X51452729Y-35815848D01*
X51279807Y-35738857D01*
X51279802Y-35738855D01*
X51134001Y-35707865D01*
X51094646Y-35699500D01*
X50905354Y-35699500D01*
X50872897Y-35706398D01*
X50720197Y-35738855D01*
X50720192Y-35738857D01*
X50547270Y-35815848D01*
X50547265Y-35815851D01*
X50394129Y-35927111D01*
X50267466Y-36067785D01*
X50172821Y-36231715D01*
X50172818Y-36231722D01*
X50117931Y-36400648D01*
X50078493Y-36458324D01*
X50014135Y-36485522D01*
X49945288Y-36473607D01*
X49893813Y-36426363D01*
X49882069Y-36400648D01*
X49827181Y-36231722D01*
X49827180Y-36231721D01*
X49827179Y-36231716D01*
X49732533Y-36067784D01*
X49605871Y-35927112D01*
X49551859Y-35887870D01*
X49452734Y-35815851D01*
X49452729Y-35815848D01*
X49279807Y-35738857D01*
X49279802Y-35738855D01*
X49134001Y-35707865D01*
X49094646Y-35699500D01*
X48905354Y-35699500D01*
X48872897Y-35706398D01*
X48720197Y-35738855D01*
X48720192Y-35738857D01*
X48547270Y-35815848D01*
X48547265Y-35815851D01*
X48394129Y-35927111D01*
X48267466Y-36067785D01*
X48172821Y-36231715D01*
X48172818Y-36231722D01*
X48117931Y-36400648D01*
X48078493Y-36458324D01*
X48014135Y-36485522D01*
X47945288Y-36473607D01*
X47893813Y-36426363D01*
X47882069Y-36400648D01*
X47827181Y-36231722D01*
X47827180Y-36231721D01*
X47827179Y-36231716D01*
X47732533Y-36067784D01*
X47605871Y-35927112D01*
X47551859Y-35887870D01*
X47452734Y-35815851D01*
X47452729Y-35815848D01*
X47279807Y-35738857D01*
X47279802Y-35738855D01*
X47134001Y-35707865D01*
X47094646Y-35699500D01*
X46905354Y-35699500D01*
X46872897Y-35706398D01*
X46720197Y-35738855D01*
X46720192Y-35738857D01*
X46547270Y-35815848D01*
X46547265Y-35815851D01*
X46394129Y-35927111D01*
X46267466Y-36067785D01*
X46172821Y-36231715D01*
X46172818Y-36231722D01*
X46117931Y-36400648D01*
X46114326Y-36411744D01*
X46094540Y-36600000D01*
X37046688Y-36600000D01*
X37131365Y-36500311D01*
X37332211Y-36204085D01*
X37499853Y-35887880D01*
X37632324Y-35555403D01*
X37728071Y-35210552D01*
X37785972Y-34857371D01*
X37805348Y-34500000D01*
X37805348Y-34499997D01*
X62194652Y-34499997D01*
X62194652Y-34500002D01*
X62214028Y-34857368D01*
X62214029Y-34857385D01*
X62271926Y-35210539D01*
X62271932Y-35210565D01*
X62367672Y-35555392D01*
X62367674Y-35555399D01*
X62500142Y-35887870D01*
X62500151Y-35887888D01*
X62667784Y-36204077D01*
X62667787Y-36204082D01*
X62667789Y-36204085D01*
X62850529Y-36473607D01*
X62868634Y-36500309D01*
X62868641Y-36500319D01*
X63050549Y-36714477D01*
X63100332Y-36773086D01*
X63360163Y-37019211D01*
X63645081Y-37235800D01*
X63951747Y-37420315D01*
X63951749Y-37420316D01*
X63951751Y-37420317D01*
X63951755Y-37420319D01*
X64276552Y-37570585D01*
X64276565Y-37570591D01*
X64615726Y-37684868D01*
X64965254Y-37761805D01*
X65321052Y-37800500D01*
X65321058Y-37800500D01*
X65678942Y-37800500D01*
X65678948Y-37800500D01*
X66034746Y-37761805D01*
X66384274Y-37684868D01*
X66723435Y-37570591D01*
X67048253Y-37420315D01*
X67354919Y-37235800D01*
X67639837Y-37019211D01*
X67899668Y-36773086D01*
X68131365Y-36500311D01*
X68332211Y-36204085D01*
X68499853Y-35887880D01*
X68632324Y-35555403D01*
X68728071Y-35210552D01*
X68785972Y-34857371D01*
X68805348Y-34500000D01*
X68785972Y-34142629D01*
X68728071Y-33789448D01*
X68671070Y-33584148D01*
X68632327Y-33444607D01*
X68632325Y-33444600D01*
X68499857Y-33112129D01*
X68499848Y-33112111D01*
X68478369Y-33071598D01*
X68332211Y-32795915D01*
X68131365Y-32499689D01*
X68131361Y-32499684D01*
X68131358Y-32499680D01*
X67899668Y-32226914D01*
X67837770Y-32168281D01*
X67639837Y-31980789D01*
X67639830Y-31980783D01*
X67639827Y-31980781D01*
X67572245Y-31929407D01*
X67354919Y-31764200D01*
X67048253Y-31579685D01*
X67048252Y-31579684D01*
X67048248Y-31579682D01*
X67048244Y-31579680D01*
X66723447Y-31429414D01*
X66723441Y-31429411D01*
X66723435Y-31429409D01*
X66553854Y-31372270D01*
X66384273Y-31315131D01*
X66034744Y-31238194D01*
X65678949Y-31199500D01*
X65678948Y-31199500D01*
X65321052Y-31199500D01*
X65321050Y-31199500D01*
X64965255Y-31238194D01*
X64615726Y-31315131D01*
X64368471Y-31398442D01*
X64276565Y-31429409D01*
X64276563Y-31429410D01*
X64276552Y-31429414D01*
X63951755Y-31579680D01*
X63951751Y-31579682D01*
X63723367Y-31717096D01*
X63645081Y-31764200D01*
X63556768Y-31831333D01*
X63360172Y-31980781D01*
X63360163Y-31980789D01*
X63100331Y-32226914D01*
X62868641Y-32499680D01*
X62868634Y-32499690D01*
X62667790Y-32795913D01*
X62667784Y-32795922D01*
X62500151Y-33112111D01*
X62500142Y-33112129D01*
X62367674Y-33444600D01*
X62367672Y-33444607D01*
X62271932Y-33789434D01*
X62271926Y-33789460D01*
X62214029Y-34142614D01*
X62214028Y-34142631D01*
X62194652Y-34499997D01*
X37805348Y-34499997D01*
X37785972Y-34142629D01*
X37728071Y-33789448D01*
X37671070Y-33584148D01*
X37632327Y-33444607D01*
X37632325Y-33444600D01*
X37609716Y-33387855D01*
X37603189Y-33318291D01*
X37635307Y-33256241D01*
X37695873Y-33221405D01*
X37765658Y-33224845D01*
X37822505Y-33265467D01*
X37832293Y-33279953D01*
X37862466Y-33332214D01*
X37862467Y-33332216D01*
X37989129Y-33472888D01*
X38142265Y-33584148D01*
X38142270Y-33584151D01*
X38315192Y-33661142D01*
X38315197Y-33661144D01*
X38500354Y-33700500D01*
X38500355Y-33700500D01*
X38689644Y-33700500D01*
X38689646Y-33700500D01*
X38874803Y-33661144D01*
X39047730Y-33584151D01*
X39200871Y-33472888D01*
X39327533Y-33332216D01*
X39422179Y-33168284D01*
X39480674Y-32988256D01*
X39500460Y-32800000D01*
X39480674Y-32611744D01*
X39422179Y-32431716D01*
X39381927Y-32361999D01*
X39365454Y-32294101D01*
X39381927Y-32238001D01*
X39422179Y-32168284D01*
X39480674Y-31988256D01*
X39500460Y-31800000D01*
X40229540Y-31800000D01*
X40249326Y-31988256D01*
X40249327Y-31988259D01*
X40307818Y-32168277D01*
X40307820Y-32168281D01*
X40307821Y-32168284D01*
X40341671Y-32226914D01*
X40348072Y-32238001D01*
X40364543Y-32305901D01*
X40348072Y-32361999D01*
X40307820Y-32431718D01*
X40307818Y-32431722D01*
X40265573Y-32561740D01*
X40249326Y-32611744D01*
X40229540Y-32800000D01*
X40249326Y-32988256D01*
X40249327Y-32988259D01*
X40307818Y-33168277D01*
X40307821Y-33168284D01*
X40402467Y-33332216D01*
X40452565Y-33387855D01*
X40529129Y-33472888D01*
X40682265Y-33584148D01*
X40682270Y-33584151D01*
X40855192Y-33661142D01*
X40855197Y-33661144D01*
X41040354Y-33700500D01*
X41040355Y-33700500D01*
X41229644Y-33700500D01*
X41229646Y-33700500D01*
X41414803Y-33661144D01*
X41587730Y-33584151D01*
X41683967Y-33514230D01*
X41749770Y-33490752D01*
X41817824Y-33506577D01*
X41829729Y-33514228D01*
X41857147Y-33534148D01*
X41857150Y-33534150D01*
X41857151Y-33534151D01*
X42030073Y-33611142D01*
X42030078Y-33611144D01*
X42215235Y-33650500D01*
X42215236Y-33650500D01*
X42404525Y-33650500D01*
X42404527Y-33650500D01*
X42589684Y-33611144D01*
X42762611Y-33534151D01*
X42915752Y-33422888D01*
X43042414Y-33282216D01*
X43137060Y-33118284D01*
X43195555Y-32938256D01*
X43215341Y-32750000D01*
X43195555Y-32561744D01*
X43137060Y-32381716D01*
X43042414Y-32217784D01*
X42915752Y-32077112D01*
X42915751Y-32077111D01*
X42762615Y-31965851D01*
X42762610Y-31965848D01*
X42589688Y-31888857D01*
X42589683Y-31888855D01*
X42435691Y-31856124D01*
X42404527Y-31849500D01*
X42215235Y-31849500D01*
X42184071Y-31856123D01*
X42114405Y-31850806D01*
X42058672Y-31808668D01*
X42055297Y-31800000D01*
X56689540Y-31800000D01*
X56709326Y-31988256D01*
X56709327Y-31988259D01*
X56767818Y-32168277D01*
X56767820Y-32168281D01*
X56767821Y-32168284D01*
X56801671Y-32226914D01*
X56808072Y-32238001D01*
X56824543Y-32305901D01*
X56808072Y-32361999D01*
X56767820Y-32431718D01*
X56767818Y-32431722D01*
X56725573Y-32561740D01*
X56709326Y-32611744D01*
X56689540Y-32800000D01*
X56709326Y-32988256D01*
X56709327Y-32988259D01*
X56767818Y-33168277D01*
X56767821Y-33168284D01*
X56862467Y-33332216D01*
X56912565Y-33387855D01*
X56989129Y-33472888D01*
X57142265Y-33584148D01*
X57142270Y-33584151D01*
X57315192Y-33661142D01*
X57315197Y-33661144D01*
X57500354Y-33700500D01*
X57500355Y-33700500D01*
X57689644Y-33700500D01*
X57689646Y-33700500D01*
X57874803Y-33661144D01*
X58047730Y-33584151D01*
X58200871Y-33472888D01*
X58327533Y-33332216D01*
X58422179Y-33168284D01*
X58480674Y-32988256D01*
X58500460Y-32800000D01*
X58480674Y-32611744D01*
X58422179Y-32431716D01*
X58381927Y-32361999D01*
X58365454Y-32294101D01*
X58381927Y-32238001D01*
X58422179Y-32168284D01*
X58480674Y-31988256D01*
X58500460Y-31800000D01*
X59229540Y-31800000D01*
X59249326Y-31988256D01*
X59249327Y-31988259D01*
X59307818Y-32168277D01*
X59307820Y-32168281D01*
X59307821Y-32168284D01*
X59341671Y-32226914D01*
X59348072Y-32238001D01*
X59364543Y-32305901D01*
X59348072Y-32361999D01*
X59307820Y-32431718D01*
X59307818Y-32431722D01*
X59265573Y-32561740D01*
X59249326Y-32611744D01*
X59229540Y-32800000D01*
X59249326Y-32988256D01*
X59249327Y-32988259D01*
X59307818Y-33168277D01*
X59307821Y-33168284D01*
X59402467Y-33332216D01*
X59452565Y-33387855D01*
X59529129Y-33472888D01*
X59682265Y-33584148D01*
X59682270Y-33584151D01*
X59855192Y-33661142D01*
X59855197Y-33661144D01*
X60040354Y-33700500D01*
X60040355Y-33700500D01*
X60229644Y-33700500D01*
X60229646Y-33700500D01*
X60414803Y-33661144D01*
X60587730Y-33584151D01*
X60740871Y-33472888D01*
X60867533Y-33332216D01*
X60942969Y-33201557D01*
X60993536Y-33153342D01*
X61062143Y-33140118D01*
X61100794Y-33150279D01*
X61125197Y-33161144D01*
X61310354Y-33200500D01*
X61310355Y-33200500D01*
X61499644Y-33200500D01*
X61499646Y-33200500D01*
X61684803Y-33161144D01*
X61857730Y-33084151D01*
X62010871Y-32972888D01*
X62137533Y-32832216D01*
X62232179Y-32668284D01*
X62290674Y-32488256D01*
X62310460Y-32300000D01*
X62290674Y-32111744D01*
X62232179Y-31931716D01*
X62137533Y-31767784D01*
X62010871Y-31627112D01*
X61989719Y-31611744D01*
X61857734Y-31515851D01*
X61857729Y-31515848D01*
X61684807Y-31438857D01*
X61684802Y-31438855D01*
X61539001Y-31407865D01*
X61499646Y-31399500D01*
X61310354Y-31399500D01*
X61270999Y-31407865D01*
X61125198Y-31438855D01*
X61125193Y-31438857D01*
X61100787Y-31449723D01*
X61031537Y-31459006D01*
X60968261Y-31429375D01*
X60942968Y-31398442D01*
X60894869Y-31315132D01*
X60867533Y-31267784D01*
X60740871Y-31127112D01*
X60740870Y-31127111D01*
X60587734Y-31015851D01*
X60587729Y-31015848D01*
X60414807Y-30938857D01*
X60414802Y-30938855D01*
X60269001Y-30907865D01*
X60229646Y-30899500D01*
X60040354Y-30899500D01*
X60007897Y-30906398D01*
X59855197Y-30938855D01*
X59855192Y-30938857D01*
X59682270Y-31015848D01*
X59682265Y-31015851D01*
X59529129Y-31127111D01*
X59402466Y-31267785D01*
X59307821Y-31431715D01*
X59307818Y-31431722D01*
X59249327Y-31611740D01*
X59249326Y-31611744D01*
X59229540Y-31800000D01*
X58500460Y-31800000D01*
X58480674Y-31611744D01*
X58422179Y-31431716D01*
X58327533Y-31267784D01*
X58200871Y-31127112D01*
X58200870Y-31127111D01*
X58047734Y-31015851D01*
X58047729Y-31015848D01*
X57874807Y-30938857D01*
X57874802Y-30938855D01*
X57729001Y-30907865D01*
X57689646Y-30899500D01*
X57500354Y-30899500D01*
X57467897Y-30906398D01*
X57315197Y-30938855D01*
X57315192Y-30938857D01*
X57142270Y-31015848D01*
X57142265Y-31015851D01*
X56989129Y-31127111D01*
X56862466Y-31267785D01*
X56767821Y-31431715D01*
X56767818Y-31431722D01*
X56709327Y-31611740D01*
X56709326Y-31611744D01*
X56689540Y-31800000D01*
X42055297Y-31800000D01*
X42034973Y-31747797D01*
X42020674Y-31611744D01*
X41962179Y-31431716D01*
X41867533Y-31267784D01*
X41740871Y-31127112D01*
X41740870Y-31127111D01*
X41587734Y-31015851D01*
X41587729Y-31015848D01*
X41414807Y-30938857D01*
X41414802Y-30938855D01*
X41269001Y-30907865D01*
X41229646Y-30899500D01*
X41040354Y-30899500D01*
X41007897Y-30906398D01*
X40855197Y-30938855D01*
X40855192Y-30938857D01*
X40682270Y-31015848D01*
X40682265Y-31015851D01*
X40529129Y-31127111D01*
X40402466Y-31267785D01*
X40307821Y-31431715D01*
X40307818Y-31431722D01*
X40249327Y-31611740D01*
X40249326Y-31611744D01*
X40229540Y-31800000D01*
X39500460Y-31800000D01*
X39480674Y-31611744D01*
X39422179Y-31431716D01*
X39327533Y-31267784D01*
X39200871Y-31127112D01*
X39200870Y-31127111D01*
X39047734Y-31015851D01*
X39047729Y-31015848D01*
X38874807Y-30938857D01*
X38874802Y-30938855D01*
X38729001Y-30907865D01*
X38689646Y-30899500D01*
X38500354Y-30899500D01*
X38467897Y-30906398D01*
X38315197Y-30938855D01*
X38315192Y-30938857D01*
X38142270Y-31015848D01*
X38142265Y-31015851D01*
X37989129Y-31127111D01*
X37862466Y-31267785D01*
X37767821Y-31431715D01*
X37767818Y-31431722D01*
X37709327Y-31611740D01*
X37709326Y-31611744D01*
X37689540Y-31800000D01*
X37709326Y-31988256D01*
X37709327Y-31988259D01*
X37767818Y-32168277D01*
X37767820Y-32168281D01*
X37767821Y-32168284D01*
X37801671Y-32226914D01*
X37808072Y-32238001D01*
X37824543Y-32305901D01*
X37808072Y-32361999D01*
X37767820Y-32431718D01*
X37767818Y-32431722D01*
X37725573Y-32561740D01*
X37709326Y-32611744D01*
X37689540Y-32800000D01*
X37709326Y-32988256D01*
X37709327Y-32988259D01*
X37710006Y-32994719D01*
X37708672Y-32994859D01*
X37703897Y-33057406D01*
X37661758Y-33113138D01*
X37596177Y-33137240D01*
X37527976Y-33122060D01*
X37478809Y-33072418D01*
X37478370Y-33071598D01*
X37332215Y-32795922D01*
X37332213Y-32795919D01*
X37332211Y-32795915D01*
X37131365Y-32499689D01*
X37131361Y-32499684D01*
X37131358Y-32499680D01*
X36899668Y-32226914D01*
X36837770Y-32168281D01*
X36639837Y-31980789D01*
X36639830Y-31980783D01*
X36639827Y-31980781D01*
X36572245Y-31929407D01*
X36354919Y-31764200D01*
X36048253Y-31579685D01*
X36048252Y-31579684D01*
X36048248Y-31579682D01*
X36048244Y-31579680D01*
X35723447Y-31429414D01*
X35723441Y-31429411D01*
X35723435Y-31429409D01*
X35553854Y-31372270D01*
X35384273Y-31315131D01*
X35034744Y-31238194D01*
X34678949Y-31199500D01*
X34678948Y-31199500D01*
X34321052Y-31199500D01*
X34321050Y-31199500D01*
X33965255Y-31238194D01*
X33615726Y-31315131D01*
X33368471Y-31398442D01*
X33276565Y-31429409D01*
X33276563Y-31429410D01*
X33276552Y-31429414D01*
X32951755Y-31579680D01*
X32951751Y-31579682D01*
X32723367Y-31717096D01*
X32645081Y-31764200D01*
X32556768Y-31831333D01*
X32360172Y-31980781D01*
X32360163Y-31980789D01*
X32100331Y-32226914D01*
X31868641Y-32499680D01*
X31868634Y-32499690D01*
X31667790Y-32795913D01*
X31667784Y-32795922D01*
X31500151Y-33112111D01*
X31500142Y-33112129D01*
X31367674Y-33444600D01*
X31367672Y-33444607D01*
X31271932Y-33789434D01*
X31271926Y-33789460D01*
X31214029Y-34142614D01*
X31214028Y-34142631D01*
X31194652Y-34499997D01*
X29200500Y-34499997D01*
X29200500Y-33134412D01*
X29220185Y-33067373D01*
X29236819Y-33046731D01*
X33046731Y-29236819D01*
X33108054Y-29203334D01*
X33134412Y-29200500D01*
X41511774Y-29200500D01*
X41578813Y-29220185D01*
G37*
%TD.AperFunction*%
%TD*%
M02*
