M48
; DRILL file {KiCad 8.0.8} date 2025-02-17T00:55:57-0800
; FORMAT={-:-/ absolute / inch / decimal}
; #@! TF.CreationDate,2025-02-17T00:55:57-08:00
; #@! TF.GenerationSoftware,Kicad,Pcbnew,8.0.8
; #@! TF.FileFunction,Plated,1,6,PTH
FMAT,2
INCH
; #@! TA.AperFunction,Plated,PTH,ViaDrill
T1C0.0079
; #@! TA.AperFunction,Plated,PTH,ViaDrill
T2C0.0118
; #@! TA.AperFunction,Plated,PTH,ComponentDrill
T3C0.0118
; #@! TA.AperFunction,Plated,PTH,ViaDrill
T4C0.0157
; #@! TA.AperFunction,Plated,PTH,ComponentDrill
T5C0.0236
; #@! TA.AperFunction,Plated,PTH,ComponentDrill
T6C0.0295
; #@! TA.AperFunction,Plated,PTH,ComponentDrill
T7C0.0394
; #@! TA.AperFunction,Plated,PTH,ComponentDrill
T8C0.1260
%
G90
G05
T1
X1.3483Y-1.814
X1.7037Y-1.8878
X1.7796Y-2.0442
X1.7844Y-1.9183
X1.7992Y-1.9016
X1.8062Y-2.0708
X1.8637Y-2.0177
X1.8744Y-2.1319
X1.8937Y-2.1319
X1.8949Y-1.9173
X1.9075Y-2.1751
X1.9341Y-2.2017
X1.9498Y-1.7972
X1.9935Y-1.8671
X2.0268Y-1.8819
X2.0296Y-2.1692
X2.0435Y-2.0699
X2.0561Y-1.9321
X2.0757Y-1.8012
X2.0797Y-1.9567
X2.1012Y-1.9594
X2.1761Y-1.5581
X2.1782Y-1.9036
X2.2183Y-2.2234
X2.2585Y-1.915
X2.3683Y-2.2234
X2.4766Y-1.8268
X2.4766Y-2.1102
X2.5381Y-2.1102
X2.7165Y-1.9016
T2
X1.1939Y-1.5295
X1.1988Y-1.3091
X1.2539Y-1.8415
X1.2539Y-2.1644
X1.3228Y-1.1909
X1.3248Y-1.5571
X1.3366Y-2.3691
X1.4409Y-2.7333
X1.4557Y-1.4951
X1.4705Y-1.2569
X1.4743Y-2.3364
X1.4743Y-2.1518
X1.503Y-1.9478
X1.5502Y-2.2392
X1.6762Y-2.2087
X1.688Y-1.9439
X1.689Y-2.0817
X1.7136Y-2.6801
X1.7333Y-1.8563
X1.7592Y-1.8308
X1.8268Y-2.2864
X1.8346Y-2.3799
X1.8682Y-1.9241
X1.9165Y-1.6869
X1.9429Y-2.0955
X1.9557Y-1.7254
X1.9678Y-1.8245
X1.9685Y-2.5108
X1.9715Y-2.2411
X2.0534Y-2.0161
X2.1024Y-1.6614
X2.1447Y-2.1329
X2.1732Y-1.4203
X2.1732Y-2.2037
X2.1841Y-1.8406
X2.2382Y-1.7608
X2.2451Y-2.0551
X2.3169Y-2.1909
X2.3967Y-1.9626
X2.4301Y-2.4409
X2.6122Y-2.3799
X2.6191Y-1.8337
X2.6201Y-1.1801
X2.6732Y-2.2874
X2.7077Y-1.4882
X2.7116Y-2.0354
X2.7126Y-1.9695
X2.7421Y-2.187
X2.7421Y-2.3799
T3
X1.5177Y-1.3524
X1.5177Y-1.4035
X1.5689Y-1.3524
X1.5689Y-1.4035
X1.6201Y-1.3524
X1.6201Y-1.4035
X1.6713Y-1.3524
X1.6713Y-1.4035
X2.2657Y-1.3524
X2.2657Y-1.4035
X2.3169Y-1.3524
X2.3169Y-1.4035
X2.3681Y-1.3524
X2.3681Y-1.4035
X2.4193Y-1.3524
X2.4193Y-1.4035
T4
X1.1791Y-2.0512
X1.1855Y-1.9966
X1.2638Y-1.999
X1.312Y-1.9596
X1.3287Y-2.2913
X1.4316Y-1.6535
X1.5187Y-1.4833
X1.5195Y-1.252
X1.5195Y-1.2913
X1.5695Y-1.2717
X1.5965Y-2.3769
X1.6195Y-1.252
X1.6195Y-1.2913
X1.6393Y-1.6535
X1.6575Y-2.3593
X1.6657Y-1.2894
X1.6678Y-1.1772
X1.6713Y-1.4852
X1.7372Y-2.438
X1.8504Y-1.4409
X1.9291Y-1.4409
X1.9291Y-1.9685
X1.9665Y-2.1526
X1.9685Y-1.9685
X1.9685Y-2.0079
X2.0079Y-1.4409
X2.0079Y-1.9685
X2.0405Y-1.5581
X2.0866Y-1.4409
X2.2675Y-1.252
X2.2675Y-1.2913
X2.2683Y-2.4183
X2.2697Y-2.25
X2.2977Y-1.6535
X2.3175Y-1.2717
X2.3675Y-1.252
X2.3675Y-1.2913
X2.4175Y-1.2717
X2.4203Y-1.4823
X2.5054Y-1.6535
X2.7598Y-1.8219
T6
X1.6339Y-2.5394
X1.7126Y-2.5394
X1.7913Y-2.5394
X1.8701Y-2.5394
X2.0669Y-2.5394
X2.1457Y-2.5394
X2.2244Y-2.5394
X2.3031Y-2.5394
T7
X2.0157Y-2.3957
X2.1157Y-2.3957
T8
X1.3583Y-1.3583
X1.3583Y-2.5787
X2.5787Y-1.3583
X2.5787Y-2.5787
T5
G00X1.2677Y-2.074
M15
G01X1.2362Y-2.074
M16
G05
G00X1.2677Y-2.4142
M15
G01X1.2362Y-2.4142
M16
G05
G00X1.439Y-2.074
M15
G01X1.3957Y-2.074
M16
G05
G00X1.439Y-2.4142
M15
G01X1.3957Y-2.4142
M16
G05
M30
