M48
; DRILL file {KiCad 9.0.0} date 2025-02-20T17:26:34-0800
; FORMAT={-:-/ absolute / inch / decimal}
; #@! TF.CreationDate,2025-02-20T17:26:34-08:00
; #@! TF.GenerationSoftware,Kicad,Pcbnew,9.0.0
; #@! TF.FileFunction,Plated,1,6,PTH
FMAT,2
INCH
; #@! TA.AperFunction,Plated,PTH,ViaDrill
T1C0.0079
; #@! TA.AperFunction,Plated,PTH,ViaDrill
T2C0.0118
; #@! TA.AperFunction,Plated,PTH,ComponentDrill
T3C0.0118
; #@! TA.AperFunction,Plated,PTH,ViaDrill
T4C0.0157
; #@! TA.AperFunction,Plated,PTH,ComponentDrill
T5C0.0236
; #@! TA.AperFunction,Plated,PTH,ComponentDrill
T6C0.0295
; #@! TA.AperFunction,Plated,PTH,ComponentDrill
T7C0.0374
; #@! TA.AperFunction,Plated,PTH,ComponentDrill
T8C0.0394
; #@! TA.AperFunction,Plated,PTH,ComponentDrill
T9C0.1260
%
G90
G05
T1
X1.7484Y-1.8579
T2
X1.4252Y-2.2835
X1.4513Y-1.9882
X1.4685Y-2.376
X1.4852Y-1.872
X1.4852Y-2.124
X1.4961Y-2.2559
X1.5177Y-1.2661
X1.5242Y-2.0133
X1.5264Y-2.0799
X1.5555Y-1.2661
X1.5623Y-1.781
X1.5659Y-1.7028
X1.604Y-1.9236
X1.6128Y-2.1398
X1.614Y-2.1004
X1.6536Y-2.0592
X1.6638Y-1.7031
X1.6791Y-2.1398
X1.6801Y-1.8278
X1.7206Y-1.9253
X1.721Y-2.0537
X1.7227Y-2.0994
X1.7228Y-1.748
X1.7498Y-1.8123
X1.7544Y-1.9006
X1.7583Y-1.6811
X1.7875Y-2.0551
X1.7878Y-2.026
X1.7969Y-1.913
X1.7984Y-2.102
X1.8299Y-2.2622
X1.8303Y-2.3776
X1.8504Y-1.7331
X1.8504Y-2.0
X1.8504Y-2.0472
X1.8898Y-2.0
X1.8898Y-2.0472
X1.8898Y-2.3366
X1.9039Y-2.1861
X1.9134Y-1.7319
X1.9148Y-1.8219
X1.9291Y-2.0
X1.9325Y-2.1857
X1.9393Y-1.8366
X1.9467Y-1.9183
X1.9528Y-1.7319
X1.9552Y-2.3976
X1.9606Y-2.1811
X1.9685Y-2.2707
X1.9734Y-1.8079
X1.978Y-1.9185
X1.9921Y-1.7331
X1.9971Y-2.0
X2.0209Y-2.1343
X2.0472Y-2.2697
X2.0636Y-1.8665
X2.1663Y-2.3959
X2.2445Y-2.0276
X2.2445Y-2.0669
X2.3612Y-2.2959
X2.3612Y-2.3959
X2.3614Y-2.25
X2.4177Y-1.2728
X2.4577Y-1.9144
X2.4606Y-2.1969
X2.5118Y-2.4134
X2.5354Y-2.1969
X2.6772Y-2.2126
X2.69Y-2.4774
T3
X1.5177Y-1.4508
X1.5177Y-1.502
X1.5689Y-1.4508
X1.5689Y-1.502
X1.6201Y-1.4508
X1.6201Y-1.502
X1.6713Y-1.4508
X1.6713Y-1.502
X2.2657Y-1.4508
X2.2657Y-1.502
X2.3169Y-1.4508
X2.3169Y-1.502
X2.3681Y-1.4508
X2.3681Y-1.502
X2.4193Y-1.4508
X2.4193Y-1.502
T4
X1.2224Y-1.5197
X1.2224Y-1.5984
X1.2224Y-1.6772
X1.2323Y-2.2835
X1.2461Y-1.9035
X1.25Y-2.1063
X1.2972Y-1.5197
X1.2972Y-1.5984
X1.2972Y-1.6772
X1.3287Y-2.2854
X1.3602Y-1.5197
X1.3602Y-1.5984
X1.3602Y-1.6772
X1.3858Y-1.9528
X1.4252Y-2.4134
X1.435Y-1.5197
X1.435Y-1.5984
X1.435Y-1.6772
X1.4921Y-2.5177
X1.5195Y-1.3504
X1.5195Y-1.3898
X1.5289Y-1.6295
X1.5695Y-1.3504
X1.5695Y-1.3898
X1.6083Y-2.2461
X1.6128Y-1.647
X1.6195Y-1.3504
X1.6195Y-1.3898
X1.6695Y-1.3504
X1.6695Y-1.3898
X1.6695Y-1.5925
X1.7047Y-2.6634
X1.7431Y-1.6073
X1.8228Y-1.687
X1.8622Y-1.6043
X1.8858Y-1.2543
X1.9705Y-2.498
X1.9724Y-2.6555
X1.9744Y-1.3445
X2.0448Y-2.3602
X2.0787Y-2.1693
X2.0886Y-1.2382
X2.0937Y-1.8335
X2.1496Y-2.6909
X2.1573Y-2.0226
X2.1646Y-2.127
X2.188Y-1.9317
X2.2008Y-1.44
X2.2008Y-1.4951
X2.2583Y-1.8031
X2.2675Y-1.3504
X2.2675Y-1.3898
X2.2675Y-1.5827
X2.2717Y-2.6378
X2.3012Y-2.2835
X2.3175Y-1.3504
X2.3175Y-1.3898
X2.3268Y-2.1614
X2.3671Y-2.0878
X2.3675Y-1.3504
X2.3675Y-1.3898
X2.3681Y-2.5531
X2.4035Y-1.6652
X2.4079Y-2.3675
X2.4175Y-1.3504
X2.4175Y-1.3898
X2.4175Y-1.5827
X2.4242Y-1.9783
X2.4242Y-2.0531
X2.498Y-2.123
X2.502Y-1.5197
X2.502Y-1.5984
X2.502Y-1.6772
X2.5118Y-2.2835
X2.5551Y-2.3474
X2.5768Y-1.5197
X2.5768Y-1.5984
X2.5768Y-1.6772
X2.6043Y-2.2992
X2.6398Y-1.5197
X2.6398Y-1.5984
X2.6398Y-1.6772
X2.6772Y-2.0472
X2.7047Y-2.4134
X2.7146Y-1.5197
X2.7146Y-1.5984
X2.7146Y-1.6772
T6
X1.6142Y-2.5
X1.6929Y-2.5
X1.7717Y-2.5
X1.8504Y-2.5
X2.0866Y-2.5
X2.1654Y-2.5
X2.2441Y-2.5
X2.3228Y-2.5
T7
X1.8209Y-1.5354
X1.9193Y-1.5354
X2.0177Y-1.5354
X2.1161Y-1.5354
T8
X1.5945Y-2.3563
X1.6945Y-2.3563
X2.4854Y-1.7913
X2.5854Y-1.7913
X2.6854Y-1.7913
T9
X1.3583Y-1.3583
X1.3583Y-2.5787
X2.5787Y-1.3583
X2.5787Y-2.5787
T5
G00X1.312Y-1.828
M15
G01X1.2805Y-1.828
M16
G05
G00X1.312Y-2.1681
M15
G01X1.2805Y-2.1681
M16
G05
G00X1.4833Y-1.828
M15
G01X1.44Y-1.828
M16
G05
G00X1.4833Y-2.1681
M15
G01X1.44Y-2.1681
M16
G05
M30
