%TF.GenerationSoftware,KiCad,Pcbnew,9.0.0*%
%TF.CreationDate,2025-02-21T22:51:25-08:00*%
%TF.ProjectId,Integrated FOC Stepper Driver,496e7465-6772-4617-9465-6420464f4320,rev?*%
%TF.SameCoordinates,Original*%
%TF.FileFunction,Copper,L6,Bot*%
%TF.FilePolarity,Positive*%
%FSLAX46Y46*%
G04 Gerber Fmt 4.6, Leading zero omitted, Abs format (unit mm)*
G04 Created by KiCad (PCBNEW 9.0.0) date 2025-02-21 22:51:25*
%MOMM*%
%LPD*%
G01*
G04 APERTURE LIST*
G04 Aperture macros list*
%AMRoundRect*
0 Rectangle with rounded corners*
0 $1 Rounding radius*
0 $2 $3 $4 $5 $6 $7 $8 $9 X,Y pos of 4 corners*
0 Add a 4 corners polygon primitive as box body*
4,1,4,$2,$3,$4,$5,$6,$7,$8,$9,$2,$3,0*
0 Add four circle primitives for the rounded corners*
1,1,$1+$1,$2,$3*
1,1,$1+$1,$4,$5*
1,1,$1+$1,$6,$7*
1,1,$1+$1,$8,$9*
0 Add four rect primitives between the rounded corners*
20,1,$1+$1,$2,$3,$4,$5,0*
20,1,$1+$1,$4,$5,$6,$7,0*
20,1,$1+$1,$6,$7,$8,$9,0*
20,1,$1+$1,$8,$9,$2,$3,0*%
G04 Aperture macros list end*
%TA.AperFunction,ComponentPad*%
%ADD10C,5.600000*%
%TD*%
%TA.AperFunction,ComponentPad*%
%ADD11R,1.700000X1.700000*%
%TD*%
%TA.AperFunction,ComponentPad*%
%ADD12O,1.700000X1.700000*%
%TD*%
%TA.AperFunction,HeatsinkPad*%
%ADD13O,2.100000X1.000000*%
%TD*%
%TA.AperFunction,HeatsinkPad*%
%ADD14O,1.800000X1.000000*%
%TD*%
%TA.AperFunction,ComponentPad*%
%ADD15C,0.600000*%
%TD*%
%TA.AperFunction,SMDPad,CuDef*%
%ADD16R,4.900000X2.950000*%
%TD*%
%TA.AperFunction,ComponentPad*%
%ADD17RoundRect,0.250000X-0.350000X-0.625000X0.350000X-0.625000X0.350000X0.625000X-0.350000X0.625000X0*%
%TD*%
%TA.AperFunction,ComponentPad*%
%ADD18O,1.200000X1.750000*%
%TD*%
%TA.AperFunction,ComponentPad*%
%ADD19RoundRect,0.250000X0.600000X0.725000X-0.600000X0.725000X-0.600000X-0.725000X0.600000X-0.725000X0*%
%TD*%
%TA.AperFunction,ComponentPad*%
%ADD20O,1.700000X1.950000*%
%TD*%
%TA.AperFunction,SMDPad,CuDef*%
%ADD21RoundRect,0.225000X0.250000X-0.225000X0.250000X0.225000X-0.250000X0.225000X-0.250000X-0.225000X0*%
%TD*%
%TA.AperFunction,SMDPad,CuDef*%
%ADD22RoundRect,0.150000X0.150000X-0.725000X0.150000X0.725000X-0.150000X0.725000X-0.150000X-0.725000X0*%
%TD*%
%TA.AperFunction,ViaPad*%
%ADD23C,0.600000*%
%TD*%
%TA.AperFunction,ViaPad*%
%ADD24C,0.800000*%
%TD*%
%TA.AperFunction,Conductor*%
%ADD25C,0.200000*%
%TD*%
%TA.AperFunction,Conductor*%
%ADD26C,0.500000*%
%TD*%
%TA.AperFunction,Conductor*%
%ADD27C,1.000000*%
%TD*%
G04 APERTURE END LIST*
D10*
%TO.P,H4,1*%
%TO.N,N/C*%
X34500000Y-65500000D03*
%TD*%
D11*
%TO.P,J5,1,Pin_1*%
%TO.N,/CAN_H*%
X40500000Y-59850000D03*
D12*
%TO.P,J5,2,Pin_2*%
%TO.N,Net-(J5-Pin_2)*%
X43040000Y-59850000D03*
%TD*%
D11*
%TO.P,J2,1,Pin_1*%
%TO.N,Net-(J2-Pin_1)*%
X68210000Y-45500000D03*
D12*
%TO.P,J2,2,Pin_2*%
%TO.N,Net-(J2-Pin_2)*%
X65670000Y-45500000D03*
%TO.P,J2,3,Pin_3*%
%TO.N,GND*%
X63130000Y-45500000D03*
%TD*%
D13*
%TO.P,J1,S1,SHIELD*%
%TO.N,GND*%
X37125000Y-46430000D03*
D14*
X32925000Y-46430000D03*
D13*
X37125000Y-55070000D03*
D14*
X32925000Y-55070000D03*
%TD*%
D15*
%TO.P,U6,9,GND*%
%TO.N,GND*%
X57550000Y-38150000D03*
X58850000Y-38150000D03*
X60150000Y-38150000D03*
X61450000Y-38150000D03*
D16*
X59500000Y-37500000D03*
D15*
X57550000Y-36850000D03*
X58850000Y-36850000D03*
X60150000Y-36850000D03*
X61450000Y-36850000D03*
%TD*%
D10*
%TO.P,H2,1*%
%TO.N,N/C*%
X65500000Y-34500000D03*
%TD*%
D17*
%TO.P,J4,1,Pin_1*%
%TO.N,VBUS*%
X53000000Y-63500000D03*
D18*
%TO.P,J4,2,Pin_2*%
%TO.N,/CAN_H*%
X55000000Y-63500000D03*
%TO.P,J4,3,Pin_3*%
%TO.N,/CAN_L*%
X57000000Y-63500000D03*
%TO.P,J4,4,Pin_4*%
%TO.N,GND*%
X59000000Y-63500000D03*
%TD*%
D15*
%TO.P,U7,9,GND*%
%TO.N,GND*%
X38550000Y-38150000D03*
X39850000Y-38150000D03*
X41150000Y-38150000D03*
X42450000Y-38150000D03*
D16*
X40500000Y-37500000D03*
D15*
X38550000Y-36850000D03*
X39850000Y-36850000D03*
X41150000Y-36850000D03*
X42450000Y-36850000D03*
%TD*%
D17*
%TO.P,J3,1,Pin_1*%
%TO.N,VBUS*%
X41000000Y-63500000D03*
D18*
%TO.P,J3,2,Pin_2*%
%TO.N,/CAN_H*%
X43000000Y-63500000D03*
%TO.P,J3,3,Pin_3*%
%TO.N,/CAN_L*%
X45000000Y-63500000D03*
%TO.P,J3,4,Pin_4*%
%TO.N,GND*%
X47000000Y-63500000D03*
%TD*%
D10*
%TO.P,H3,1*%
%TO.N,N/C*%
X65500000Y-65500000D03*
%TD*%
D19*
%TO.P,J6,1,Pin_1*%
%TO.N,/A2*%
X53750000Y-39000000D03*
D20*
%TO.P,J6,2,Pin_2*%
%TO.N,/A1*%
X51250000Y-39000000D03*
%TO.P,J6,3,Pin_3*%
%TO.N,/B2*%
X48750000Y-39000000D03*
%TO.P,J6,4,Pin_4*%
%TO.N,/B1*%
X46250000Y-39000000D03*
%TD*%
D10*
%TO.P,H1,1*%
%TO.N,N/C*%
X34500000Y-34500000D03*
%TD*%
D21*
%TO.P,C25,1*%
%TO.N,+3.3V*%
X53600000Y-50775000D03*
%TO.P,C25,2*%
%TO.N,GND*%
X53600000Y-49225000D03*
%TD*%
D22*
%TO.P,U8,1,VDD*%
%TO.N,+3.3V*%
X51905000Y-52575000D03*
%TO.P,U8,2,MODE*%
%TO.N,GND*%
X50635000Y-52575000D03*
%TO.P,U8,3,OUT*%
%TO.N,/MT6701_ANALOG*%
X49365000Y-52575000D03*
%TO.P,U8,4,GND*%
%TO.N,GND*%
X48095000Y-52575000D03*
%TO.P,U8,5,PUSH*%
%TO.N,/MT6701_PUSH*%
X48095000Y-47425000D03*
%TO.P,U8,6,A*%
%TO.N,/SDA*%
X49365000Y-47425000D03*
%TO.P,U8,7,B*%
%TO.N,/SCL*%
X50635000Y-47425000D03*
%TO.P,U8,8,Z*%
%TO.N,+3.3V*%
X51905000Y-47425000D03*
%TD*%
D23*
%TO.N,+3.3V*%
X45680000Y-53390000D03*
X50240000Y-48730000D03*
D24*
X61575000Y-52150000D03*
D23*
X45640000Y-48590000D03*
X40965000Y-54350000D03*
X42002500Y-52302500D03*
X62426567Y-48625219D03*
D24*
X61405000Y-40200000D03*
D23*
X43760000Y-44400000D03*
X48600000Y-43990000D03*
X49600000Y-43990000D03*
X44410000Y-47190000D03*
D24*
X42405000Y-40450000D03*
D23*
X51330000Y-54210000D03*
X52415000Y-47410000D03*
D24*
X61050000Y-42295000D03*
%TO.N,GND*%
X34550000Y-40600000D03*
D23*
X48000000Y-59350000D03*
D24*
X57360000Y-45800000D03*
X67050000Y-42600000D03*
X39865000Y-35300000D03*
D23*
X37300000Y-60350000D03*
X39681250Y-45237500D03*
X44660000Y-42700000D03*
D24*
X52800000Y-55100000D03*
X32950000Y-38600000D03*
X50050000Y-63450000D03*
D23*
X49000000Y-50800000D03*
D24*
X61575000Y-50250000D03*
X34550000Y-42600000D03*
X31650000Y-48350000D03*
X35200000Y-49600000D03*
X64900000Y-59625000D03*
X54794881Y-51375000D03*
X58865000Y-35300000D03*
X60150000Y-64850000D03*
X58865000Y-34300000D03*
D23*
X42675000Y-46425000D03*
D24*
X32950000Y-40600000D03*
X66150000Y-58400000D03*
D23*
X40995000Y-53350000D03*
D24*
X60125000Y-53030000D03*
X39865000Y-34300000D03*
D23*
X52000000Y-57650000D03*
X61410000Y-32330000D03*
D24*
X54980000Y-54025000D03*
X43300000Y-67650000D03*
D23*
X47000000Y-50800000D03*
D24*
X46300000Y-42850000D03*
X50100000Y-67450000D03*
X65450000Y-42600000D03*
X34550000Y-38600000D03*
D23*
X47000000Y-44020000D03*
D24*
X54600000Y-68350000D03*
X68000000Y-52000000D03*
D23*
X37725000Y-53950000D03*
D24*
X61161372Y-60134644D03*
X55575000Y-49065000D03*
D23*
X48000000Y-52000000D03*
X46480000Y-57460000D03*
D24*
X47300000Y-40750000D03*
X31300000Y-58000000D03*
X67050000Y-40600000D03*
D23*
X37725000Y-47550000D03*
X44443750Y-46031250D03*
D24*
X59100000Y-54900000D03*
X53180000Y-46570000D03*
X67050000Y-38600000D03*
X63800000Y-58000000D03*
X32950000Y-42600000D03*
D23*
X42260000Y-43260000D03*
D24*
X51937500Y-59950000D03*
D23*
X50000000Y-57675000D03*
D24*
X50150000Y-34150000D03*
D23*
X39775000Y-43250000D03*
X47000000Y-52000000D03*
D24*
X31750000Y-53500000D03*
X65450000Y-40600000D03*
D23*
X46490000Y-60390000D03*
X68325000Y-62925000D03*
X48000000Y-50800000D03*
X40741268Y-48858732D03*
D24*
X53050000Y-31450000D03*
X40850000Y-57050000D03*
X65450000Y-38600000D03*
X58450000Y-58000000D03*
X37900000Y-63950000D03*
D23*
X38550000Y-32160000D03*
D24*
X57700000Y-67000000D03*
D23*
X50600000Y-44020000D03*
D24*
X33750000Y-58050000D03*
D23*
%TO.N,+1V1*%
X50727492Y-50799999D03*
X45411254Y-51461254D03*
D24*
%TO.N,VBUS*%
X31050000Y-40600000D03*
X55900000Y-36575000D03*
X68950000Y-42600000D03*
X42405000Y-35300000D03*
X31050000Y-38600000D03*
X36450000Y-38600000D03*
D23*
X39510000Y-32160000D03*
D24*
X55900000Y-37975000D03*
X36450000Y-40600000D03*
X42405000Y-34300000D03*
X63550000Y-38600000D03*
X61405000Y-35300000D03*
X68950000Y-40600000D03*
X44275000Y-40825000D03*
X31050000Y-42600000D03*
X68950000Y-38600000D03*
X61405000Y-34300000D03*
X47900000Y-31860000D03*
X63550000Y-40600000D03*
X63550000Y-42600000D03*
X36450000Y-42600000D03*
D23*
%TO.N,/USB_D+*%
X57010000Y-51500000D03*
X36863907Y-50499999D03*
%TO.N,/USB_D-*%
X57010000Y-52500000D03*
X38713632Y-51138490D03*
D24*
%TO.N,/B2*%
X38595000Y-34300000D03*
X38595000Y-35300000D03*
%TO.N,/B1*%
X41135000Y-34300000D03*
X41135000Y-35300000D03*
%TO.N,/A2*%
X57595000Y-34300000D03*
X57595000Y-35300000D03*
%TO.N,/A1*%
X60135000Y-34300000D03*
X60135000Y-35300000D03*
D23*
%TO.N,/NEOPIXEL*%
X38000000Y-57300000D03*
X43702569Y-48901594D03*
%TO.N,/A_CURRENT*%
X48359527Y-55525811D03*
D24*
X40965748Y-41834252D03*
X57595000Y-40200000D03*
D23*
%TO.N,/B_CURRENT*%
X49084474Y-55516833D03*
D24*
X38835000Y-41390000D03*
D23*
%TO.N,+5V*%
X59975000Y-58315000D03*
D24*
X63450000Y-53925000D03*
X68700000Y-61300000D03*
X36200000Y-61300000D03*
D23*
%TO.N,/SCL*%
X48636962Y-46275513D03*
%TO.N,/MT6701_PUSH*%
X44562500Y-48275000D03*
%TO.N,/SDA*%
X49257757Y-46650001D03*
%TO.N,/CAN_TX*%
X49446758Y-48724999D03*
X59975000Y-60855000D03*
%TO.N,/CAN_S*%
X43755882Y-53325000D03*
X55025000Y-60855000D03*
%TO.N,/CAN_RX*%
X50125000Y-45919492D03*
X59980000Y-57150000D03*
%TO.N,/MT6701_ANALOG*%
X49800000Y-55400000D03*
%TO.N,/VUSB*%
X38771232Y-52828768D03*
X62500000Y-55800000D03*
%TO.N,Net-(D1-DOUT)*%
X63800000Y-61300000D03*
X36200000Y-58000000D03*
%TO.N,Net-(U3-VOUT)*%
X49662500Y-60900000D03*
X64400000Y-55800000D03*
%TO.N,Net-(J2-Pin_2)*%
X43713536Y-52163993D03*
%TO.N,Net-(J2-Pin_1)*%
X45401422Y-52199539D03*
%TO.N,Net-(U1-RUN)*%
X68000000Y-56200000D03*
X42650000Y-54350000D03*
%TD*%
D25*
%TO.N,+3.3V*%
X51905000Y-52575000D02*
X51905000Y-53635000D01*
X51474999Y-48730000D02*
X50240000Y-48730000D01*
X52400000Y-47425000D02*
X52415000Y-47410000D01*
X51905000Y-48299999D02*
X51474999Y-48730000D01*
X51905000Y-47425000D02*
X51905000Y-48299999D01*
X51905000Y-47425000D02*
X52400000Y-47425000D01*
D26*
X53600000Y-50775000D02*
X53600000Y-50880000D01*
X53600000Y-50880000D02*
X51905000Y-52575000D01*
D25*
X51905000Y-53635000D02*
X51330000Y-54210000D01*
%TO.N,GND*%
X50635000Y-52575000D02*
X50635000Y-57040000D01*
X50635000Y-57040000D02*
X50000000Y-57675000D01*
%TO.N,+1V1*%
X50197491Y-51330000D02*
X50727492Y-50799999D01*
X45542508Y-51330000D02*
X50197491Y-51330000D01*
X45411254Y-51461254D02*
X45542508Y-51330000D01*
D26*
%TO.N,VBUS*%
X42405000Y-34300000D02*
X42405000Y-35300000D01*
D27*
%TO.N,/B2*%
X38595000Y-35300000D02*
X38595000Y-34300000D01*
X44828478Y-31400000D02*
X48750000Y-35321522D01*
X38595000Y-33595000D02*
X38991000Y-33199000D01*
X41781530Y-31400000D02*
X44828478Y-31400000D01*
X39982530Y-33199000D02*
X41781530Y-31400000D01*
X48750000Y-35321522D02*
X48750000Y-39000000D01*
X38595000Y-34300000D02*
X38595000Y-33595000D01*
X38991000Y-33199000D02*
X39982530Y-33199000D01*
%TO.N,/B1*%
X41135000Y-34300000D02*
X41135000Y-33745000D01*
X42180000Y-32700000D02*
X44290000Y-32700000D01*
X41135000Y-33745000D02*
X42180000Y-32700000D01*
X41135000Y-35300000D02*
X41135000Y-34300000D01*
X46250000Y-34660000D02*
X46250000Y-39000000D01*
X44290000Y-32700000D02*
X46250000Y-34660000D01*
%TO.N,/A2*%
X56040990Y-34300000D02*
X53750000Y-36590990D01*
X53750000Y-36590990D02*
X53750000Y-39000000D01*
X57595000Y-34300000D02*
X56040990Y-34300000D01*
X57595000Y-35300000D02*
X57595000Y-34300000D01*
%TO.N,/A1*%
X55502512Y-33000000D02*
X51250000Y-37252512D01*
X60135000Y-33745000D02*
X59390000Y-33000000D01*
X60135000Y-34300000D02*
X60135000Y-33745000D01*
X59390000Y-33000000D02*
X55502512Y-33000000D01*
X60135000Y-35300000D02*
X60135000Y-34300000D01*
X51250000Y-37252512D02*
X51250000Y-39000000D01*
D25*
%TO.N,/SCL*%
X48889782Y-46275513D02*
X49040294Y-46125001D01*
X49040294Y-46125001D02*
X49475220Y-46125001D01*
X50635000Y-47284781D02*
X50635000Y-47425000D01*
X49475220Y-46125001D02*
X50635000Y-47284781D01*
X48636962Y-46275513D02*
X48889782Y-46275513D01*
%TO.N,/MT6701_PUSH*%
X45412500Y-47425000D02*
X44562500Y-48275000D01*
X48095000Y-47425000D02*
X45412500Y-47425000D01*
%TO.N,/MT6701_ANALOG*%
X49800000Y-55400000D02*
X49800000Y-53475000D01*
X49365000Y-53040000D02*
X49365000Y-52575000D01*
X49800000Y-53475000D02*
X49365000Y-53040000D01*
%TD*%
%TA.AperFunction,Conductor*%
%TO.N,GND*%
G36*
X54943039Y-45019685D02*
G01*
X54988794Y-45072489D01*
X55000000Y-45124000D01*
X55000000Y-55876000D01*
X54980315Y-55943039D01*
X54927511Y-55988794D01*
X54876000Y-56000000D01*
X50124542Y-56000000D01*
X50057503Y-55980315D01*
X50011748Y-55927511D01*
X50001804Y-55858353D01*
X50030829Y-55794797D01*
X50062538Y-55768614D01*
X50076613Y-55760489D01*
X50160489Y-55676613D01*
X50219799Y-55573886D01*
X50250500Y-55459309D01*
X50250500Y-55340691D01*
X50219799Y-55226114D01*
X50160489Y-55123387D01*
X50086818Y-55049716D01*
X50053334Y-54988392D01*
X50050500Y-54962035D01*
X50050500Y-54150691D01*
X50879500Y-54150691D01*
X50879500Y-54269309D01*
X50910201Y-54383886D01*
X50969511Y-54486613D01*
X51053387Y-54570489D01*
X51156114Y-54629799D01*
X51270691Y-54660500D01*
X51270694Y-54660500D01*
X51389306Y-54660500D01*
X51389309Y-54660500D01*
X51503886Y-54629799D01*
X51606613Y-54570489D01*
X51690489Y-54486613D01*
X51749799Y-54383886D01*
X51780500Y-54269309D01*
X51780500Y-54165121D01*
X51800185Y-54098082D01*
X51816819Y-54077440D01*
X51858147Y-54036112D01*
X52029455Y-53864804D01*
X52029458Y-53864802D01*
X52046896Y-53847364D01*
X52046897Y-53847364D01*
X52117364Y-53776897D01*
X52155500Y-53684828D01*
X52155500Y-53664912D01*
X52175185Y-53597873D01*
X52219071Y-53559845D01*
X52218286Y-53558699D01*
X52227760Y-53552207D01*
X52227765Y-53552206D01*
X52307206Y-53472765D01*
X52352585Y-53369991D01*
X52355500Y-53344865D01*
X52355499Y-52742253D01*
X52375183Y-52675215D01*
X52391813Y-52654578D01*
X53634574Y-51411819D01*
X53695897Y-51378334D01*
X53722255Y-51375500D01*
X53885630Y-51375500D01*
X53885636Y-51375500D01*
X53958625Y-51364866D01*
X54016118Y-51336759D01*
X54071210Y-51309827D01*
X54159827Y-51221210D01*
X54189513Y-51160485D01*
X54214866Y-51108625D01*
X54225500Y-51035636D01*
X54225500Y-50514364D01*
X54214866Y-50441375D01*
X54184960Y-50380201D01*
X54159827Y-50328789D01*
X54071210Y-50240172D01*
X53958628Y-50185135D01*
X53958626Y-50185134D01*
X53958625Y-50185134D01*
X53885636Y-50174500D01*
X53314364Y-50174500D01*
X53241375Y-50185134D01*
X53241373Y-50185134D01*
X53241371Y-50185135D01*
X53128789Y-50240172D01*
X53040172Y-50328789D01*
X52985135Y-50441371D01*
X52985134Y-50441373D01*
X52985134Y-50441375D01*
X52974500Y-50514364D01*
X52974500Y-50514369D01*
X52974500Y-50887745D01*
X52954815Y-50954784D01*
X52938181Y-50975426D01*
X52348906Y-51564700D01*
X52287583Y-51598185D01*
X52217891Y-51593201D01*
X52211152Y-51590459D01*
X52152814Y-51564700D01*
X52124992Y-51552415D01*
X52099865Y-51549500D01*
X51710143Y-51549500D01*
X51710117Y-51549502D01*
X51685012Y-51552413D01*
X51685008Y-51552415D01*
X51582235Y-51597793D01*
X51502794Y-51677234D01*
X51457415Y-51780006D01*
X51457415Y-51780008D01*
X51454500Y-51805131D01*
X51454500Y-53344856D01*
X51454502Y-53344882D01*
X51457413Y-53369987D01*
X51457415Y-53369991D01*
X51502793Y-53472764D01*
X51520203Y-53490174D01*
X51524541Y-53498119D01*
X51531789Y-53503545D01*
X51541023Y-53528304D01*
X51553688Y-53551497D01*
X51553042Y-53560526D01*
X51556206Y-53569009D01*
X51550589Y-53594829D01*
X51548704Y-53621189D01*
X51542885Y-53630242D01*
X51541354Y-53637282D01*
X51520203Y-53665536D01*
X51462558Y-53723181D01*
X51401235Y-53756666D01*
X51374877Y-53759500D01*
X51270691Y-53759500D01*
X51156114Y-53790201D01*
X51156112Y-53790201D01*
X51156112Y-53790202D01*
X51053387Y-53849511D01*
X51053384Y-53849513D01*
X50969513Y-53933384D01*
X50969511Y-53933387D01*
X50910201Y-54036114D01*
X50879500Y-54150691D01*
X50050500Y-54150691D01*
X50050500Y-53425173D01*
X50050499Y-53425170D01*
X50033574Y-53384309D01*
X50012364Y-53333103D01*
X49941897Y-53262636D01*
X49934832Y-53255571D01*
X49934825Y-53255565D01*
X49851818Y-53172558D01*
X49818333Y-53111235D01*
X49815499Y-53084877D01*
X49815499Y-51805143D01*
X49815499Y-51805136D01*
X49813973Y-51791978D01*
X49812586Y-51780012D01*
X49812585Y-51780010D01*
X49812585Y-51780009D01*
X49801360Y-51754586D01*
X49792288Y-51685308D01*
X49822112Y-51622123D01*
X49881361Y-51585092D01*
X49914794Y-51580500D01*
X50247317Y-51580500D01*
X50247319Y-51580500D01*
X50339388Y-51542364D01*
X50594932Y-51286817D01*
X50656255Y-51253333D01*
X50682614Y-51250499D01*
X50786798Y-51250499D01*
X50786801Y-51250499D01*
X50901378Y-51219798D01*
X51004105Y-51160488D01*
X51087981Y-51076612D01*
X51147291Y-50973885D01*
X51177992Y-50859308D01*
X51177992Y-50740690D01*
X51147291Y-50626113D01*
X51087981Y-50523386D01*
X51004105Y-50439510D01*
X50901378Y-50380200D01*
X50786801Y-50349499D01*
X50668183Y-50349499D01*
X50553606Y-50380200D01*
X50553604Y-50380200D01*
X50553604Y-50380201D01*
X50450879Y-50439510D01*
X50450876Y-50439512D01*
X50367005Y-50523383D01*
X50367003Y-50523386D01*
X50307693Y-50626113D01*
X50276992Y-50740690D01*
X50276992Y-50740692D01*
X50276992Y-50844876D01*
X50268347Y-50874316D01*
X50261824Y-50904303D01*
X50258069Y-50909318D01*
X50257307Y-50911915D01*
X50240673Y-50932557D01*
X50130049Y-51043181D01*
X50068726Y-51076666D01*
X50042368Y-51079500D01*
X45684262Y-51079500D01*
X45622262Y-51062887D01*
X45585143Y-51041456D01*
X45585144Y-51041456D01*
X45563401Y-51035630D01*
X45470563Y-51010754D01*
X45351945Y-51010754D01*
X45237368Y-51041455D01*
X45237366Y-51041455D01*
X45237366Y-51041456D01*
X45134641Y-51100765D01*
X45134638Y-51100767D01*
X45050767Y-51184638D01*
X45050765Y-51184641D01*
X44991773Y-51286818D01*
X44991455Y-51287368D01*
X44960754Y-51401945D01*
X44960754Y-51520563D01*
X44991455Y-51635140D01*
X45050765Y-51737867D01*
X45050768Y-51737870D01*
X45055712Y-51744313D01*
X45054684Y-51745101D01*
X45084182Y-51799122D01*
X45079198Y-51868814D01*
X45050700Y-51913158D01*
X45040937Y-51922921D01*
X45040933Y-51922926D01*
X44981623Y-52025653D01*
X44950922Y-52140230D01*
X44950922Y-52258848D01*
X44981623Y-52373425D01*
X45040933Y-52476152D01*
X45124809Y-52560028D01*
X45227536Y-52619338D01*
X45342113Y-52650039D01*
X45342116Y-52650039D01*
X45460728Y-52650039D01*
X45460731Y-52650039D01*
X45575308Y-52619338D01*
X45678035Y-52560028D01*
X45761911Y-52476152D01*
X45821221Y-52373425D01*
X45851922Y-52258848D01*
X45851922Y-52140230D01*
X45821221Y-52025653D01*
X45761911Y-51922926D01*
X45761906Y-51922921D01*
X45756964Y-51916480D01*
X45757991Y-51915691D01*
X45728493Y-51861670D01*
X45733477Y-51791978D01*
X45745512Y-51768011D01*
X45752659Y-51756950D01*
X45771743Y-51737867D01*
X45828356Y-51639809D01*
X45830044Y-51637199D01*
X45854242Y-51616337D01*
X45877372Y-51594284D01*
X45880782Y-51593456D01*
X45882963Y-51591577D01*
X45896286Y-51589695D01*
X45934191Y-51580500D01*
X48815206Y-51580500D01*
X48882245Y-51600185D01*
X48928000Y-51652989D01*
X48937944Y-51722147D01*
X48928640Y-51754587D01*
X48917415Y-51780007D01*
X48917415Y-51780008D01*
X48914500Y-51805131D01*
X48914500Y-53344856D01*
X48914502Y-53344882D01*
X48917413Y-53369987D01*
X48917415Y-53369991D01*
X48962793Y-53472764D01*
X48962794Y-53472765D01*
X49042235Y-53552206D01*
X49145009Y-53597585D01*
X49170135Y-53600500D01*
X49425501Y-53600499D01*
X49492539Y-53620183D01*
X49538294Y-53672987D01*
X49549500Y-53724499D01*
X49549500Y-54962035D01*
X49540855Y-54991472D01*
X49534332Y-55021463D01*
X49530577Y-55026478D01*
X49529815Y-55029074D01*
X49513181Y-55049716D01*
X49513180Y-55049717D01*
X49457190Y-55105706D01*
X49395867Y-55139190D01*
X49326175Y-55134205D01*
X49307509Y-55125410D01*
X49258365Y-55097036D01*
X49258364Y-55097035D01*
X49248968Y-55094517D01*
X49143783Y-55066333D01*
X49025165Y-55066333D01*
X48910588Y-55097034D01*
X48910586Y-55097034D01*
X48910586Y-55097035D01*
X48807861Y-55156344D01*
X48807855Y-55156349D01*
X48805113Y-55159091D01*
X48802232Y-55160663D01*
X48801415Y-55161291D01*
X48801317Y-55161163D01*
X48743788Y-55192573D01*
X48674097Y-55187584D01*
X48641950Y-55169780D01*
X48636143Y-55165324D01*
X48628070Y-55160663D01*
X48533413Y-55106012D01*
X48418836Y-55075311D01*
X48300218Y-55075311D01*
X48185641Y-55106012D01*
X48185639Y-55106012D01*
X48185639Y-55106013D01*
X48082914Y-55165322D01*
X48082911Y-55165324D01*
X47999040Y-55249195D01*
X47999038Y-55249198D01*
X47939728Y-55351925D01*
X47909027Y-55466502D01*
X47909027Y-55585120D01*
X47939728Y-55699697D01*
X47999038Y-55802424D01*
X47999039Y-55802425D01*
X48003102Y-55809462D01*
X48001410Y-55810438D01*
X48022767Y-55865689D01*
X48008725Y-55934133D01*
X47959908Y-55984120D01*
X47899196Y-56000000D01*
X44124000Y-56000000D01*
X44056961Y-55980315D01*
X44011206Y-55927511D01*
X44000000Y-55876000D01*
X44000000Y-53769346D01*
X44019685Y-53702307D01*
X44036319Y-53681665D01*
X44053072Y-53664912D01*
X44116371Y-53601613D01*
X44175681Y-53498886D01*
X44206382Y-53384309D01*
X44206382Y-53330691D01*
X45229500Y-53330691D01*
X45229500Y-53449309D01*
X45260201Y-53563886D01*
X45319511Y-53666613D01*
X45403387Y-53750489D01*
X45506114Y-53809799D01*
X45620691Y-53840500D01*
X45620694Y-53840500D01*
X45739306Y-53840500D01*
X45739309Y-53840500D01*
X45853886Y-53809799D01*
X45956613Y-53750489D01*
X46040489Y-53666613D01*
X46099799Y-53563886D01*
X46130500Y-53449309D01*
X46130500Y-53330691D01*
X46099799Y-53216114D01*
X46040489Y-53113387D01*
X45956613Y-53029511D01*
X45853886Y-52970201D01*
X45739309Y-52939500D01*
X45620691Y-52939500D01*
X45506114Y-52970201D01*
X45506112Y-52970201D01*
X45506112Y-52970202D01*
X45403387Y-53029511D01*
X45403384Y-53029513D01*
X45319513Y-53113384D01*
X45319511Y-53113387D01*
X45260201Y-53216114D01*
X45229500Y-53330691D01*
X44206382Y-53330691D01*
X44206382Y-53265691D01*
X44175681Y-53151114D01*
X44116371Y-53048387D01*
X44036318Y-52968334D01*
X44002834Y-52907010D01*
X44000000Y-52880653D01*
X44000000Y-52565993D01*
X44019685Y-52498954D01*
X44036319Y-52478312D01*
X44038480Y-52476151D01*
X44074025Y-52440606D01*
X44133335Y-52337879D01*
X44164036Y-52223302D01*
X44164036Y-52104684D01*
X44133335Y-51990107D01*
X44074025Y-51887380D01*
X44036319Y-51849674D01*
X44002834Y-51788351D01*
X44000000Y-51761993D01*
X44000000Y-49292627D01*
X44019685Y-49225588D01*
X44036319Y-49204946D01*
X44063058Y-49178207D01*
X44122368Y-49075480D01*
X44153069Y-48960903D01*
X44153069Y-48842285D01*
X44140690Y-48796086D01*
X44142353Y-48726237D01*
X44181516Y-48668375D01*
X44245744Y-48640871D01*
X44314646Y-48652458D01*
X44322452Y-48656600D01*
X44388614Y-48694799D01*
X44503191Y-48725500D01*
X44503194Y-48725500D01*
X44621806Y-48725500D01*
X44621809Y-48725500D01*
X44736386Y-48694799D01*
X44839113Y-48635489D01*
X44922989Y-48551613D01*
X44958113Y-48490776D01*
X45008680Y-48442561D01*
X45077287Y-48429339D01*
X45142152Y-48455307D01*
X45182680Y-48512221D01*
X45189500Y-48552777D01*
X45189500Y-48649309D01*
X45220201Y-48763886D01*
X45279511Y-48866613D01*
X45363387Y-48950489D01*
X45466114Y-49009799D01*
X45580691Y-49040500D01*
X45580694Y-49040500D01*
X45699306Y-49040500D01*
X45699309Y-49040500D01*
X45813886Y-49009799D01*
X45916613Y-48950489D01*
X46000489Y-48866613D01*
X46059799Y-48763886D01*
X46090500Y-48649309D01*
X46090500Y-48530691D01*
X46059799Y-48416114D01*
X46000489Y-48313387D01*
X45916613Y-48229511D01*
X45813886Y-48170201D01*
X45699309Y-48139500D01*
X45580691Y-48139500D01*
X45466114Y-48170201D01*
X45466112Y-48170201D01*
X45466112Y-48170202D01*
X45363387Y-48229511D01*
X45363384Y-48229513D01*
X45279513Y-48313384D01*
X45279511Y-48313387D01*
X45244387Y-48374223D01*
X45193819Y-48422438D01*
X45125212Y-48435660D01*
X45060347Y-48409692D01*
X45019819Y-48352777D01*
X45013000Y-48312222D01*
X45013000Y-48230122D01*
X45032685Y-48163083D01*
X45049319Y-48142441D01*
X45479941Y-47711819D01*
X45541264Y-47678334D01*
X45567622Y-47675500D01*
X47520501Y-47675500D01*
X47587540Y-47695185D01*
X47633295Y-47747989D01*
X47644501Y-47799500D01*
X47644501Y-48194856D01*
X47644502Y-48194882D01*
X47647413Y-48219987D01*
X47647415Y-48219991D01*
X47692793Y-48322764D01*
X47692794Y-48322765D01*
X47772235Y-48402206D01*
X47875009Y-48447585D01*
X47900135Y-48450500D01*
X48289864Y-48450499D01*
X48289879Y-48450497D01*
X48289882Y-48450497D01*
X48314987Y-48447586D01*
X48314988Y-48447585D01*
X48314991Y-48447585D01*
X48417765Y-48402206D01*
X48497206Y-48322765D01*
X48542585Y-48219991D01*
X48545500Y-48194865D01*
X48545499Y-46850012D01*
X48547464Y-46843318D01*
X48546243Y-46836450D01*
X48557181Y-46810228D01*
X48565184Y-46782974D01*
X48570455Y-46778406D01*
X48573142Y-46771966D01*
X48596519Y-46755821D01*
X48617987Y-46737219D01*
X48626275Y-46735271D01*
X48630634Y-46732261D01*
X48657385Y-46727960D01*
X48665383Y-46726081D01*
X48667430Y-46726013D01*
X48696271Y-46726013D01*
X48700351Y-46724919D01*
X48712053Y-46724531D01*
X48740246Y-46731802D01*
X48769016Y-46736288D01*
X48773676Y-46740424D01*
X48779709Y-46741980D01*
X48799494Y-46763338D01*
X48821273Y-46782667D01*
X48824705Y-46790553D01*
X48827191Y-46793236D01*
X48828100Y-46798352D01*
X48835943Y-46816368D01*
X48837957Y-46823886D01*
X48853042Y-46850013D01*
X48897268Y-46926614D01*
X48897269Y-46926615D01*
X48897887Y-46927685D01*
X48914500Y-46989686D01*
X48914500Y-48194856D01*
X48914502Y-48194882D01*
X48917413Y-48219987D01*
X48917415Y-48219991D01*
X48962793Y-48322764D01*
X49019773Y-48379744D01*
X49053258Y-48441067D01*
X49048274Y-48510759D01*
X49039481Y-48529422D01*
X49026960Y-48551109D01*
X49026959Y-48551113D01*
X48996258Y-48665690D01*
X48996258Y-48784308D01*
X49026959Y-48898885D01*
X49086269Y-49001612D01*
X49170145Y-49085488D01*
X49272872Y-49144798D01*
X49387449Y-49175499D01*
X49387452Y-49175499D01*
X49506064Y-49175499D01*
X49506067Y-49175499D01*
X49620644Y-49144798D01*
X49723371Y-49085488D01*
X49753198Y-49055660D01*
X49814518Y-49022176D01*
X49884210Y-49027160D01*
X49928559Y-49055661D01*
X49963387Y-49090489D01*
X50066114Y-49149799D01*
X50180691Y-49180500D01*
X50180694Y-49180500D01*
X50299306Y-49180500D01*
X50299309Y-49180500D01*
X50413886Y-49149799D01*
X50516613Y-49090489D01*
X50590283Y-49016819D01*
X50651606Y-48983334D01*
X50677964Y-48980500D01*
X51524825Y-48980500D01*
X51524827Y-48980500D01*
X51616896Y-48942364D01*
X52084757Y-48474501D01*
X52122349Y-48448750D01*
X52124986Y-48447585D01*
X52124991Y-48447585D01*
X52227765Y-48402206D01*
X52307206Y-48322765D01*
X52352585Y-48219991D01*
X52355500Y-48194865D01*
X52355499Y-47984499D01*
X52375183Y-47917461D01*
X52427987Y-47871706D01*
X52466482Y-47863331D01*
X52466249Y-47861561D01*
X52474305Y-47860500D01*
X52474309Y-47860500D01*
X52588886Y-47829799D01*
X52691613Y-47770489D01*
X52775489Y-47686613D01*
X52834799Y-47583886D01*
X52865500Y-47469309D01*
X52865500Y-47350691D01*
X52834799Y-47236114D01*
X52775489Y-47133387D01*
X52691613Y-47049511D01*
X52588886Y-46990201D01*
X52474309Y-46959500D01*
X52474305Y-46959499D01*
X52466249Y-46958439D01*
X52466607Y-46955714D01*
X52412460Y-46939815D01*
X52366705Y-46887011D01*
X52355499Y-46835500D01*
X52355499Y-46655143D01*
X52355499Y-46655136D01*
X52355497Y-46655117D01*
X52352586Y-46630012D01*
X52352585Y-46630010D01*
X52352585Y-46630009D01*
X52307206Y-46527235D01*
X52227765Y-46447794D01*
X52227763Y-46447793D01*
X52124992Y-46402415D01*
X52099865Y-46399500D01*
X51710143Y-46399500D01*
X51710117Y-46399502D01*
X51685012Y-46402413D01*
X51685008Y-46402415D01*
X51582235Y-46447793D01*
X51502794Y-46527234D01*
X51457415Y-46630006D01*
X51457415Y-46630008D01*
X51454500Y-46655131D01*
X51454500Y-48194856D01*
X51454502Y-48194882D01*
X51457413Y-48219987D01*
X51457414Y-48219989D01*
X51476196Y-48262527D01*
X51478972Y-48283729D01*
X51486445Y-48303763D01*
X51483417Y-48317681D01*
X51485267Y-48331806D01*
X51476139Y-48351142D01*
X51471595Y-48372036D01*
X51457199Y-48391266D01*
X51455442Y-48394990D01*
X51450444Y-48400291D01*
X51407558Y-48443179D01*
X51346236Y-48476666D01*
X51319875Y-48479500D01*
X51158301Y-48479500D01*
X51091262Y-48459815D01*
X51045507Y-48407011D01*
X51035563Y-48337853D01*
X51044865Y-48305417D01*
X51082585Y-48219991D01*
X51085500Y-48194865D01*
X51085499Y-46655136D01*
X51085497Y-46655117D01*
X51082586Y-46630012D01*
X51082585Y-46630010D01*
X51082585Y-46630009D01*
X51037206Y-46527235D01*
X50957765Y-46447794D01*
X50957763Y-46447793D01*
X50854992Y-46402415D01*
X50829868Y-46399500D01*
X50580864Y-46399500D01*
X50513825Y-46379815D01*
X50468070Y-46327011D01*
X50458126Y-46257853D01*
X50482495Y-46200004D01*
X50485477Y-46196116D01*
X50485489Y-46196105D01*
X50544799Y-46093378D01*
X50575500Y-45978801D01*
X50575500Y-45860183D01*
X50544799Y-45745606D01*
X50485489Y-45642879D01*
X50401613Y-45559003D01*
X50298886Y-45499693D01*
X50184309Y-45468992D01*
X50065691Y-45468992D01*
X49951114Y-45499693D01*
X49951112Y-45499693D01*
X49951112Y-45499694D01*
X49848387Y-45559003D01*
X49848384Y-45559005D01*
X49764513Y-45642876D01*
X49764511Y-45642879D01*
X49705200Y-45745606D01*
X49692711Y-45792216D01*
X49656345Y-45851875D01*
X49593498Y-45882404D01*
X49537200Y-45876012D01*
X49537027Y-45876884D01*
X49526589Y-45874807D01*
X49525489Y-45874683D01*
X49525052Y-45874502D01*
X49525049Y-45874501D01*
X49525048Y-45874501D01*
X49090122Y-45874501D01*
X48990466Y-45874501D01*
X48990464Y-45874501D01*
X48990462Y-45874502D01*
X48961322Y-45886572D01*
X48891852Y-45894041D01*
X48851871Y-45879398D01*
X48810848Y-45855714D01*
X48696271Y-45825013D01*
X48577653Y-45825013D01*
X48463076Y-45855714D01*
X48463074Y-45855714D01*
X48463074Y-45855715D01*
X48360349Y-45915024D01*
X48360346Y-45915026D01*
X48276475Y-45998897D01*
X48276473Y-45998900D01*
X48221926Y-46093378D01*
X48217163Y-46101627D01*
X48186462Y-46216204D01*
X48186462Y-46216206D01*
X48186462Y-46275500D01*
X48166777Y-46342539D01*
X48113973Y-46388294D01*
X48062463Y-46399500D01*
X47900144Y-46399500D01*
X47900117Y-46399502D01*
X47875012Y-46402413D01*
X47875008Y-46402415D01*
X47772235Y-46447793D01*
X47692794Y-46527234D01*
X47647415Y-46630006D01*
X47647415Y-46630008D01*
X47644500Y-46655131D01*
X47644500Y-47050500D01*
X47624815Y-47117539D01*
X47572011Y-47163294D01*
X47520500Y-47174500D01*
X45476770Y-47174500D01*
X45476762Y-47174499D01*
X45462328Y-47174499D01*
X45362673Y-47174499D01*
X45362672Y-47174499D01*
X45335706Y-47185669D01*
X45308740Y-47196839D01*
X45270603Y-47212636D01*
X45270601Y-47212637D01*
X45200137Y-47283101D01*
X45200136Y-47283103D01*
X45200135Y-47283104D01*
X45119353Y-47363886D01*
X45051045Y-47432194D01*
X44989722Y-47465678D01*
X44920030Y-47460694D01*
X44864097Y-47418822D01*
X44839680Y-47353358D01*
X44843588Y-47312423D01*
X44860500Y-47249309D01*
X44860500Y-47130691D01*
X44829799Y-47016114D01*
X44770489Y-46913387D01*
X44686613Y-46829511D01*
X44583886Y-46770201D01*
X44469309Y-46739500D01*
X44350691Y-46739500D01*
X44261727Y-46763338D01*
X44236110Y-46770202D01*
X44186000Y-46799134D01*
X44118100Y-46815607D01*
X44052073Y-46792755D01*
X44008883Y-46737834D01*
X44000000Y-46691747D01*
X44000000Y-45124000D01*
X44019685Y-45056961D01*
X44072489Y-45011206D01*
X44124000Y-45000000D01*
X54876000Y-45000000D01*
X54943039Y-45019685D01*
G37*
%TD.AperFunction*%
%TD*%
%TA.AperFunction,Conductor*%
%TO.N,VBUS*%
G36*
X41506595Y-30220185D02*
G01*
X41552350Y-30272989D01*
X41562294Y-30342147D01*
X41533269Y-30405703D01*
X41487008Y-30439061D01*
X41436364Y-30460037D01*
X41436364Y-30460038D01*
X41390845Y-30478892D01*
X41307619Y-30513366D01*
X41307609Y-30513371D01*
X41143749Y-30622859D01*
X41074070Y-30692538D01*
X41004391Y-30762218D01*
X41004388Y-30762221D01*
X39604429Y-32162181D01*
X39577501Y-32176884D01*
X39551683Y-32193477D01*
X39545482Y-32194368D01*
X39543106Y-32195666D01*
X39516748Y-32198500D01*
X39474444Y-32198500D01*
X39407405Y-32178815D01*
X39361650Y-32126011D01*
X39351041Y-32086649D01*
X39350500Y-32081155D01*
X39319738Y-31926510D01*
X39319737Y-31926503D01*
X39275501Y-31819707D01*
X39259397Y-31780827D01*
X39259390Y-31780814D01*
X39171789Y-31649711D01*
X39171786Y-31649707D01*
X39060292Y-31538213D01*
X39060288Y-31538210D01*
X38929185Y-31450609D01*
X38929172Y-31450602D01*
X38783501Y-31390264D01*
X38783489Y-31390261D01*
X38628845Y-31359500D01*
X38628842Y-31359500D01*
X38471158Y-31359500D01*
X38471155Y-31359500D01*
X38316510Y-31390261D01*
X38316498Y-31390264D01*
X38170827Y-31450602D01*
X38170814Y-31450609D01*
X38039711Y-31538210D01*
X38039707Y-31538213D01*
X37928213Y-31649707D01*
X37928210Y-31649711D01*
X37840609Y-31780814D01*
X37840602Y-31780827D01*
X37780264Y-31926498D01*
X37780261Y-31926510D01*
X37749500Y-32081153D01*
X37749500Y-32238846D01*
X37780261Y-32393489D01*
X37780264Y-32393501D01*
X37840602Y-32539172D01*
X37840609Y-32539185D01*
X37928210Y-32670288D01*
X37928213Y-32670292D01*
X37928818Y-32670897D01*
X37929033Y-32671291D01*
X37932076Y-32674999D01*
X37931372Y-32675575D01*
X37962303Y-32732220D01*
X37957319Y-32801912D01*
X37928819Y-32846259D01*
X37817860Y-32957218D01*
X37709408Y-33119528D01*
X37655796Y-33164333D01*
X37586471Y-33173040D01*
X37523443Y-33142885D01*
X37491745Y-33098090D01*
X37490412Y-33094872D01*
X37487215Y-33087153D01*
X37476642Y-33067373D01*
X37334353Y-32801169D01*
X37334352Y-32801167D01*
X37334347Y-32801158D01*
X37154183Y-32531524D01*
X36948458Y-32280847D01*
X36948457Y-32280846D01*
X36948453Y-32280841D01*
X36719158Y-32051546D01*
X36468481Y-31845821D01*
X36468480Y-31845820D01*
X36468476Y-31845817D01*
X36198842Y-31665653D01*
X36198837Y-31665650D01*
X36198830Y-31665646D01*
X35912854Y-31512788D01*
X35912849Y-31512786D01*
X35613247Y-31388686D01*
X35302913Y-31294548D01*
X35302902Y-31294545D01*
X34984874Y-31231287D01*
X34984857Y-31231284D01*
X34740812Y-31207248D01*
X34662143Y-31199500D01*
X34337857Y-31199500D01*
X34265099Y-31206666D01*
X34015142Y-31231284D01*
X34015125Y-31231287D01*
X33697097Y-31294545D01*
X33697086Y-31294548D01*
X33386752Y-31388686D01*
X33087150Y-31512786D01*
X33087145Y-31512788D01*
X32801169Y-31665646D01*
X32801151Y-31665657D01*
X32531532Y-31845811D01*
X32531518Y-31845821D01*
X32280841Y-32051546D01*
X32051546Y-32280841D01*
X31845821Y-32531518D01*
X31845811Y-32531532D01*
X31665657Y-32801151D01*
X31665646Y-32801169D01*
X31512788Y-33087145D01*
X31512786Y-33087150D01*
X31388686Y-33386752D01*
X31294548Y-33697086D01*
X31294545Y-33697097D01*
X31231287Y-34015125D01*
X31231284Y-34015142D01*
X31199500Y-34337860D01*
X31199500Y-34662139D01*
X31231284Y-34984857D01*
X31231287Y-34984874D01*
X31294545Y-35302902D01*
X31294548Y-35302913D01*
X31388686Y-35613247D01*
X31512786Y-35912849D01*
X31512788Y-35912854D01*
X31665646Y-36198830D01*
X31665657Y-36198848D01*
X31845811Y-36468467D01*
X31845821Y-36468481D01*
X32051546Y-36719158D01*
X32280841Y-36948453D01*
X32280846Y-36948457D01*
X32280847Y-36948458D01*
X32531524Y-37154183D01*
X32801158Y-37334347D01*
X32801167Y-37334352D01*
X32801169Y-37334353D01*
X33047728Y-37466142D01*
X33097573Y-37515104D01*
X33113033Y-37583242D01*
X33089201Y-37648922D01*
X33033644Y-37691290D01*
X32989275Y-37699500D01*
X32861306Y-37699500D01*
X32687341Y-37734103D01*
X32687332Y-37734106D01*
X32523459Y-37801983D01*
X32523446Y-37801990D01*
X32375965Y-37900535D01*
X32375961Y-37900538D01*
X32250538Y-38025961D01*
X32250535Y-38025965D01*
X32151990Y-38173446D01*
X32151983Y-38173459D01*
X32084106Y-38337332D01*
X32084103Y-38337341D01*
X32049500Y-38511304D01*
X32049500Y-38688695D01*
X32084103Y-38862658D01*
X32084106Y-38862667D01*
X32151983Y-39026540D01*
X32151990Y-39026553D01*
X32250535Y-39174034D01*
X32250538Y-39174038D01*
X32375961Y-39299461D01*
X32375965Y-39299464D01*
X32523446Y-39398009D01*
X32523459Y-39398016D01*
X32629380Y-39441889D01*
X32687334Y-39465894D01*
X32707594Y-39469924D01*
X32750118Y-39478383D01*
X32812028Y-39510768D01*
X32846603Y-39571484D01*
X32842863Y-39641253D01*
X32801996Y-39697925D01*
X32750118Y-39721617D01*
X32687340Y-39734104D01*
X32687332Y-39734106D01*
X32523459Y-39801983D01*
X32523446Y-39801990D01*
X32375965Y-39900535D01*
X32375961Y-39900538D01*
X32250538Y-40025961D01*
X32250535Y-40025965D01*
X32151990Y-40173446D01*
X32151983Y-40173459D01*
X32084106Y-40337332D01*
X32084103Y-40337341D01*
X32049500Y-40511304D01*
X32049500Y-40688695D01*
X32084103Y-40862658D01*
X32084106Y-40862667D01*
X32151983Y-41026540D01*
X32151990Y-41026553D01*
X32250535Y-41174034D01*
X32250538Y-41174038D01*
X32375961Y-41299461D01*
X32375965Y-41299464D01*
X32523446Y-41398009D01*
X32523459Y-41398016D01*
X32646363Y-41448923D01*
X32687334Y-41465894D01*
X32707594Y-41469924D01*
X32750118Y-41478383D01*
X32812028Y-41510768D01*
X32846603Y-41571484D01*
X32842863Y-41641253D01*
X32801996Y-41697925D01*
X32750118Y-41721617D01*
X32687340Y-41734104D01*
X32687332Y-41734106D01*
X32523459Y-41801983D01*
X32523446Y-41801990D01*
X32375965Y-41900535D01*
X32375961Y-41900538D01*
X32250538Y-42025961D01*
X32250535Y-42025965D01*
X32151990Y-42173446D01*
X32151983Y-42173459D01*
X32084106Y-42337332D01*
X32084103Y-42337341D01*
X32049500Y-42511304D01*
X32049500Y-42688695D01*
X32084103Y-42862658D01*
X32084106Y-42862667D01*
X32151983Y-43026540D01*
X32151990Y-43026553D01*
X32250535Y-43174034D01*
X32250538Y-43174038D01*
X32375961Y-43299461D01*
X32375965Y-43299464D01*
X32523446Y-43398009D01*
X32523459Y-43398016D01*
X32646363Y-43448923D01*
X32687334Y-43465894D01*
X32687336Y-43465894D01*
X32687341Y-43465896D01*
X32861304Y-43500499D01*
X32861307Y-43500500D01*
X32861309Y-43500500D01*
X33038693Y-43500500D01*
X33038694Y-43500499D01*
X33096682Y-43488964D01*
X33212658Y-43465896D01*
X33212661Y-43465894D01*
X33212666Y-43465894D01*
X33376069Y-43398211D01*
X33376540Y-43398016D01*
X33376540Y-43398015D01*
X33376547Y-43398013D01*
X33524035Y-43299464D01*
X33649464Y-43174035D01*
X33649466Y-43174031D01*
X33653328Y-43169327D01*
X33655249Y-43170904D01*
X33700477Y-43133085D01*
X33769799Y-43124357D01*
X33832835Y-43154493D01*
X33846097Y-43169798D01*
X33846672Y-43169327D01*
X33850538Y-43174038D01*
X33975961Y-43299461D01*
X33975965Y-43299464D01*
X34123446Y-43398009D01*
X34123459Y-43398016D01*
X34246363Y-43448923D01*
X34287334Y-43465894D01*
X34287336Y-43465894D01*
X34287341Y-43465896D01*
X34461304Y-43500499D01*
X34461307Y-43500500D01*
X34461309Y-43500500D01*
X34638693Y-43500500D01*
X34638694Y-43500499D01*
X34696682Y-43488964D01*
X34812658Y-43465896D01*
X34812661Y-43465894D01*
X34812666Y-43465894D01*
X34976069Y-43398211D01*
X34976540Y-43398016D01*
X34976540Y-43398015D01*
X34976547Y-43398013D01*
X35124035Y-43299464D01*
X35249464Y-43174035D01*
X35348013Y-43026547D01*
X35415894Y-42862666D01*
X35450500Y-42688691D01*
X35450500Y-42511309D01*
X35450500Y-42511306D01*
X35450499Y-42511304D01*
X35415896Y-42337341D01*
X35415893Y-42337332D01*
X35348016Y-42173459D01*
X35348009Y-42173446D01*
X35249464Y-42025965D01*
X35249461Y-42025961D01*
X35124038Y-41900538D01*
X35124034Y-41900535D01*
X34976553Y-41801990D01*
X34976540Y-41801983D01*
X34812667Y-41734106D01*
X34812658Y-41734103D01*
X34749882Y-41721617D01*
X34687971Y-41689232D01*
X34653397Y-41628517D01*
X34657136Y-41558747D01*
X34698003Y-41502075D01*
X34749882Y-41478383D01*
X34812658Y-41465896D01*
X34812661Y-41465894D01*
X34812666Y-41465894D01*
X34976547Y-41398013D01*
X35121281Y-41301304D01*
X37934500Y-41301304D01*
X37934500Y-41478695D01*
X37969103Y-41652658D01*
X37969106Y-41652667D01*
X38036983Y-41816540D01*
X38036990Y-41816553D01*
X38135535Y-41964034D01*
X38135538Y-41964038D01*
X38260961Y-42089461D01*
X38260965Y-42089464D01*
X38408446Y-42188009D01*
X38408459Y-42188016D01*
X38531363Y-42238923D01*
X38572334Y-42255894D01*
X38572336Y-42255894D01*
X38572341Y-42255896D01*
X38746304Y-42290499D01*
X38746307Y-42290500D01*
X38746309Y-42290500D01*
X38923693Y-42290500D01*
X38923694Y-42290499D01*
X38996783Y-42275961D01*
X39097658Y-42255896D01*
X39097661Y-42255894D01*
X39097666Y-42255894D01*
X39261547Y-42188013D01*
X39409035Y-42089464D01*
X39534464Y-41964035D01*
X39633013Y-41816547D01*
X39700894Y-41652666D01*
X39703165Y-41641253D01*
X39729119Y-41510768D01*
X39735500Y-41478691D01*
X39735500Y-41301309D01*
X39735500Y-41301306D01*
X39735499Y-41301304D01*
X39700896Y-41127341D01*
X39700893Y-41127332D01*
X39633016Y-40963459D01*
X39633009Y-40963446D01*
X39534464Y-40815965D01*
X39534461Y-40815961D01*
X39409038Y-40690538D01*
X39409034Y-40690535D01*
X39261553Y-40591990D01*
X39261540Y-40591983D01*
X39097667Y-40524106D01*
X39097658Y-40524103D01*
X38923694Y-40489500D01*
X38923691Y-40489500D01*
X38746309Y-40489500D01*
X38746306Y-40489500D01*
X38572341Y-40524103D01*
X38572332Y-40524106D01*
X38408459Y-40591983D01*
X38408446Y-40591990D01*
X38260965Y-40690535D01*
X38260961Y-40690538D01*
X38135538Y-40815961D01*
X38135535Y-40815965D01*
X38036990Y-40963446D01*
X38036983Y-40963459D01*
X37969106Y-41127332D01*
X37969103Y-41127341D01*
X37934500Y-41301304D01*
X35121281Y-41301304D01*
X35124035Y-41299464D01*
X35163286Y-41260213D01*
X35215964Y-41207536D01*
X35249461Y-41174038D01*
X35249464Y-41174035D01*
X35348013Y-41026547D01*
X35349054Y-41024035D01*
X35372117Y-40968355D01*
X35415894Y-40862666D01*
X35425184Y-40815965D01*
X35445733Y-40712658D01*
X35450500Y-40688691D01*
X35450500Y-40511309D01*
X35450500Y-40511306D01*
X35450499Y-40511304D01*
X35415896Y-40337341D01*
X35415893Y-40337332D01*
X35407765Y-40317710D01*
X35356382Y-40193657D01*
X35348016Y-40173459D01*
X35348009Y-40173446D01*
X35249464Y-40025965D01*
X35249461Y-40025961D01*
X35124038Y-39900538D01*
X35124034Y-39900535D01*
X34976553Y-39801990D01*
X34976540Y-39801983D01*
X34812667Y-39734106D01*
X34812658Y-39734103D01*
X34749882Y-39721617D01*
X34687971Y-39689232D01*
X34653397Y-39628517D01*
X34657136Y-39558747D01*
X34698003Y-39502075D01*
X34749882Y-39478383D01*
X34812658Y-39465896D01*
X34812661Y-39465894D01*
X34812666Y-39465894D01*
X34976547Y-39398013D01*
X35124035Y-39299464D01*
X35249464Y-39174035D01*
X35348013Y-39026547D01*
X35415894Y-38862666D01*
X35450500Y-38688691D01*
X35450500Y-38511309D01*
X35450500Y-38511306D01*
X35450499Y-38511304D01*
X35415896Y-38337341D01*
X35415893Y-38337332D01*
X35348016Y-38173459D01*
X35348009Y-38173446D01*
X35249464Y-38025965D01*
X35249461Y-38025961D01*
X35155035Y-37931535D01*
X35121550Y-37870212D01*
X35126534Y-37800520D01*
X35168406Y-37744587D01*
X35218523Y-37722237D01*
X35302923Y-37705449D01*
X35613246Y-37611314D01*
X35912847Y-37487215D01*
X36198842Y-37334347D01*
X36468476Y-37154183D01*
X36719153Y-36948458D01*
X36948458Y-36719153D01*
X37154183Y-36468476D01*
X37322399Y-36216722D01*
X37376010Y-36171919D01*
X37445335Y-36163212D01*
X37508362Y-36193366D01*
X37545082Y-36252809D01*
X37549500Y-36285615D01*
X37549500Y-39022870D01*
X37549501Y-39022876D01*
X37555908Y-39082483D01*
X37606202Y-39217328D01*
X37606206Y-39217335D01*
X37692452Y-39332544D01*
X37692455Y-39332547D01*
X37807664Y-39418793D01*
X37807671Y-39418797D01*
X37942517Y-39469091D01*
X37942516Y-39469091D01*
X37949444Y-39469835D01*
X38002127Y-39475500D01*
X41833812Y-39475499D01*
X41900851Y-39495184D01*
X41946606Y-39547988D01*
X41956550Y-39617146D01*
X41927525Y-39680702D01*
X41902704Y-39702601D01*
X41830961Y-39750538D01*
X41705538Y-39875961D01*
X41705535Y-39875965D01*
X41606990Y-40023446D01*
X41606983Y-40023459D01*
X41539106Y-40187332D01*
X41539103Y-40187341D01*
X41504500Y-40361304D01*
X41504500Y-40538695D01*
X41539103Y-40712658D01*
X41539106Y-40712667D01*
X41606983Y-40876540D01*
X41606990Y-40876553D01*
X41626576Y-40905865D01*
X41647454Y-40972543D01*
X41628969Y-41039923D01*
X41576991Y-41086613D01*
X41508021Y-41097789D01*
X41454583Y-41077858D01*
X41392301Y-41036242D01*
X41392288Y-41036235D01*
X41228415Y-40968358D01*
X41228406Y-40968355D01*
X41054442Y-40933752D01*
X41054439Y-40933752D01*
X40877057Y-40933752D01*
X40877054Y-40933752D01*
X40703089Y-40968355D01*
X40703080Y-40968358D01*
X40539207Y-41036235D01*
X40539194Y-41036242D01*
X40391713Y-41134787D01*
X40391709Y-41134790D01*
X40266286Y-41260213D01*
X40266283Y-41260217D01*
X40167738Y-41407698D01*
X40167731Y-41407711D01*
X40099854Y-41571584D01*
X40099851Y-41571593D01*
X40065248Y-41745556D01*
X40065248Y-41922947D01*
X40099851Y-42096910D01*
X40099854Y-42096919D01*
X40167731Y-42260792D01*
X40167735Y-42260799D01*
X40204328Y-42315564D01*
X40225206Y-42382240D01*
X40206722Y-42449621D01*
X40154744Y-42496311D01*
X40085774Y-42507488D01*
X40053775Y-42499017D01*
X40008497Y-42480263D01*
X40008489Y-42480261D01*
X39853845Y-42449500D01*
X39853842Y-42449500D01*
X39696158Y-42449500D01*
X39696155Y-42449500D01*
X39541510Y-42480261D01*
X39541498Y-42480264D01*
X39395827Y-42540602D01*
X39395814Y-42540609D01*
X39264711Y-42628210D01*
X39264707Y-42628213D01*
X39153213Y-42739707D01*
X39153210Y-42739711D01*
X39065609Y-42870814D01*
X39065602Y-42870827D01*
X39005264Y-43016498D01*
X39005261Y-43016510D01*
X38974500Y-43171153D01*
X38974500Y-43328846D01*
X39005261Y-43483489D01*
X39005264Y-43483501D01*
X39065602Y-43629172D01*
X39065609Y-43629185D01*
X39153210Y-43760288D01*
X39153213Y-43760292D01*
X39264707Y-43871786D01*
X39264711Y-43871789D01*
X39395814Y-43959390D01*
X39395827Y-43959397D01*
X39541498Y-44019735D01*
X39541503Y-44019737D01*
X39696153Y-44050499D01*
X39696156Y-44050500D01*
X39696158Y-44050500D01*
X39853844Y-44050500D01*
X39853845Y-44050499D01*
X40008497Y-44019737D01*
X40121166Y-43973067D01*
X40154172Y-43959397D01*
X40154172Y-43959396D01*
X40154179Y-43959394D01*
X40285289Y-43871789D01*
X40396789Y-43760289D01*
X40484394Y-43629179D01*
X40544737Y-43483497D01*
X40575500Y-43328842D01*
X40575500Y-43171158D01*
X40575500Y-43171155D01*
X40575499Y-43171153D01*
X40557204Y-43079179D01*
X40544737Y-43016503D01*
X40531480Y-42984498D01*
X40484397Y-42870827D01*
X40484391Y-42870816D01*
X40470125Y-42849465D01*
X40449248Y-42782787D01*
X40467733Y-42715407D01*
X40519712Y-42668718D01*
X40588682Y-42657542D01*
X40620675Y-42666012D01*
X40703082Y-42700146D01*
X40703085Y-42700146D01*
X40703089Y-42700148D01*
X40877052Y-42734751D01*
X40877055Y-42734752D01*
X40877057Y-42734752D01*
X41054441Y-42734752D01*
X41054442Y-42734751D01*
X41112430Y-42723216D01*
X41228406Y-42700148D01*
X41228409Y-42700146D01*
X41228414Y-42700146D01*
X41392295Y-42632265D01*
X41392300Y-42632261D01*
X41392303Y-42632260D01*
X41459995Y-42587029D01*
X41526672Y-42566150D01*
X41594053Y-42584634D01*
X41640743Y-42636612D01*
X41651920Y-42705582D01*
X41631989Y-42759020D01*
X41550612Y-42880809D01*
X41550602Y-42880827D01*
X41490264Y-43026498D01*
X41490261Y-43026510D01*
X41459500Y-43181153D01*
X41459500Y-43338846D01*
X41490261Y-43493489D01*
X41490264Y-43493501D01*
X41550602Y-43639172D01*
X41550609Y-43639185D01*
X41638210Y-43770288D01*
X41638213Y-43770292D01*
X41749707Y-43881786D01*
X41749711Y-43881789D01*
X41880814Y-43969390D01*
X41880827Y-43969397D01*
X42004992Y-44020827D01*
X42026503Y-44029737D01*
X42181153Y-44060499D01*
X42181156Y-44060500D01*
X42181158Y-44060500D01*
X42338844Y-44060500D01*
X42338845Y-44060499D01*
X42493497Y-44029737D01*
X42639179Y-43969394D01*
X42770289Y-43881789D01*
X42881789Y-43770289D01*
X42969394Y-43639179D01*
X43029737Y-43493497D01*
X43060500Y-43338842D01*
X43060500Y-43181158D01*
X43060500Y-43181155D01*
X43060499Y-43181153D01*
X43029737Y-43026503D01*
X43012338Y-42984498D01*
X42969397Y-42880827D01*
X42969390Y-42880814D01*
X42881789Y-42749711D01*
X42881786Y-42749707D01*
X42770292Y-42638213D01*
X42770288Y-42638210D01*
X42639185Y-42550609D01*
X42639172Y-42550602D01*
X42493501Y-42490264D01*
X42493489Y-42490261D01*
X42338845Y-42459500D01*
X42338842Y-42459500D01*
X42181158Y-42459500D01*
X42181155Y-42459500D01*
X42026510Y-42490261D01*
X42026498Y-42490264D01*
X41880827Y-42550602D01*
X41880818Y-42550607D01*
X41837844Y-42579321D01*
X41771166Y-42600197D01*
X41703786Y-42581711D01*
X41657097Y-42529731D01*
X41645922Y-42460761D01*
X41665852Y-42407327D01*
X41743916Y-42290499D01*
X41763756Y-42260807D01*
X41763757Y-42260804D01*
X41763761Y-42260799D01*
X41831642Y-42096918D01*
X41833126Y-42089461D01*
X41866247Y-41922947D01*
X41866248Y-41922945D01*
X41866248Y-41745558D01*
X41866247Y-41745556D01*
X41831644Y-41571593D01*
X41831641Y-41571584D01*
X41763764Y-41407711D01*
X41763762Y-41407707D01*
X41763761Y-41407705D01*
X41744171Y-41378386D01*
X41723293Y-41311709D01*
X41741777Y-41244329D01*
X41793756Y-41197638D01*
X41862726Y-41186462D01*
X41916164Y-41206393D01*
X41978447Y-41248009D01*
X41978453Y-41248013D01*
X41978455Y-41248014D01*
X41978459Y-41248016D01*
X42101363Y-41298923D01*
X42142334Y-41315894D01*
X42142336Y-41315894D01*
X42142341Y-41315896D01*
X42316304Y-41350499D01*
X42316307Y-41350500D01*
X42316309Y-41350500D01*
X42493693Y-41350500D01*
X42493694Y-41350499D01*
X42551682Y-41338964D01*
X42667658Y-41315896D01*
X42667661Y-41315894D01*
X42667666Y-41315894D01*
X42831547Y-41248013D01*
X42979035Y-41149464D01*
X43104464Y-41024035D01*
X43203013Y-40876547D01*
X43270894Y-40712666D01*
X43305500Y-40538691D01*
X43305500Y-40361309D01*
X43305500Y-40361306D01*
X43305499Y-40361304D01*
X43270896Y-40187341D01*
X43270893Y-40187332D01*
X43257546Y-40155110D01*
X43239402Y-40111304D01*
X43203016Y-40023459D01*
X43203009Y-40023446D01*
X43104464Y-39875965D01*
X43104461Y-39875961D01*
X42979038Y-39750538D01*
X42979034Y-39750535D01*
X42907296Y-39702601D01*
X42862491Y-39648989D01*
X42853784Y-39579664D01*
X42883939Y-39516636D01*
X42943382Y-39479917D01*
X42976186Y-39475499D01*
X42997872Y-39475499D01*
X43057483Y-39469091D01*
X43192331Y-39418796D01*
X43307546Y-39332546D01*
X43393796Y-39217331D01*
X43444091Y-39082483D01*
X43450500Y-39022873D01*
X43450499Y-35977128D01*
X43444091Y-35917517D01*
X43442349Y-35912847D01*
X43393797Y-35782671D01*
X43393793Y-35782664D01*
X43307547Y-35667455D01*
X43307544Y-35667452D01*
X43192335Y-35581206D01*
X43192328Y-35581202D01*
X43057482Y-35530908D01*
X43057483Y-35530908D01*
X42997883Y-35524501D01*
X42997881Y-35524500D01*
X42997873Y-35524500D01*
X42997865Y-35524500D01*
X42259500Y-35524500D01*
X42192461Y-35504815D01*
X42146706Y-35452011D01*
X42135500Y-35400500D01*
X42135500Y-34210782D01*
X42155185Y-34143743D01*
X42171819Y-34123101D01*
X42558101Y-33736819D01*
X42619424Y-33703334D01*
X42645782Y-33700500D01*
X43824218Y-33700500D01*
X43891257Y-33720185D01*
X43911899Y-33736819D01*
X45213181Y-35038101D01*
X45246666Y-35099424D01*
X45249500Y-35125782D01*
X45249500Y-37914800D01*
X45229815Y-37981839D01*
X45220506Y-37994365D01*
X45094951Y-38167179D01*
X44998444Y-38356585D01*
X44932753Y-38558760D01*
X44899500Y-38768713D01*
X44899500Y-39231286D01*
X44931254Y-39431776D01*
X44932754Y-39441243D01*
X44997741Y-39641253D01*
X44998444Y-39643414D01*
X45094951Y-39832820D01*
X45219890Y-40004786D01*
X45370213Y-40155109D01*
X45542179Y-40280048D01*
X45542181Y-40280049D01*
X45542184Y-40280051D01*
X45731588Y-40376557D01*
X45933757Y-40442246D01*
X46143713Y-40475500D01*
X46143714Y-40475500D01*
X46285365Y-40475500D01*
X46352404Y-40495185D01*
X46398159Y-40547989D01*
X46408103Y-40617147D01*
X46406982Y-40623691D01*
X46399500Y-40661304D01*
X46399500Y-40838695D01*
X46434103Y-41012658D01*
X46434106Y-41012667D01*
X46501983Y-41176540D01*
X46501990Y-41176553D01*
X46600535Y-41324034D01*
X46600538Y-41324038D01*
X46725961Y-41449461D01*
X46725965Y-41449464D01*
X46873446Y-41548009D01*
X46873459Y-41548016D01*
X46988182Y-41595535D01*
X47037334Y-41615894D01*
X47037336Y-41615894D01*
X47037341Y-41615896D01*
X47211304Y-41650499D01*
X47211307Y-41650500D01*
X47211309Y-41650500D01*
X47388693Y-41650500D01*
X47388694Y-41650499D01*
X47446682Y-41638964D01*
X47562658Y-41615896D01*
X47562661Y-41615894D01*
X47562666Y-41615894D01*
X47726547Y-41548013D01*
X47874035Y-41449464D01*
X47999464Y-41324035D01*
X48098013Y-41176547D01*
X48099054Y-41174035D01*
X48116015Y-41133085D01*
X48165894Y-41012666D01*
X48168810Y-40998009D01*
X48200499Y-40838695D01*
X48200500Y-40838693D01*
X48200500Y-40661306D01*
X48200499Y-40661304D01*
X48179072Y-40553581D01*
X48185299Y-40483990D01*
X48228162Y-40428812D01*
X48294052Y-40405568D01*
X48339002Y-40411458D01*
X48433757Y-40442246D01*
X48643713Y-40475500D01*
X48643714Y-40475500D01*
X48856286Y-40475500D01*
X48856287Y-40475500D01*
X49066243Y-40442246D01*
X49268412Y-40376557D01*
X49457816Y-40280051D01*
X49479789Y-40264086D01*
X49629786Y-40155109D01*
X49629788Y-40155106D01*
X49629792Y-40155104D01*
X49780104Y-40004792D01*
X49899683Y-39840204D01*
X49955011Y-39797540D01*
X50024624Y-39791561D01*
X50086420Y-39824166D01*
X50100313Y-39840199D01*
X50203925Y-39982809D01*
X50219896Y-40004792D01*
X50370213Y-40155109D01*
X50542179Y-40280048D01*
X50542181Y-40280049D01*
X50542184Y-40280051D01*
X50731588Y-40376557D01*
X50933757Y-40442246D01*
X51143713Y-40475500D01*
X51143714Y-40475500D01*
X51356286Y-40475500D01*
X51356287Y-40475500D01*
X51566243Y-40442246D01*
X51768412Y-40376557D01*
X51957816Y-40280051D01*
X52097934Y-40178250D01*
X52129784Y-40155110D01*
X52129784Y-40155109D01*
X52129792Y-40155104D01*
X52268604Y-40016291D01*
X52329923Y-39982809D01*
X52399615Y-39987793D01*
X52455549Y-40029664D01*
X52461821Y-40038878D01*
X52465185Y-40044333D01*
X52465186Y-40044334D01*
X52557288Y-40193656D01*
X52681344Y-40317712D01*
X52830666Y-40409814D01*
X52997203Y-40464999D01*
X53099991Y-40475500D01*
X54400008Y-40475499D01*
X54502797Y-40464999D01*
X54669334Y-40409814D01*
X54818656Y-40317712D01*
X54942712Y-40193656D01*
X55034814Y-40044334D01*
X55089999Y-39877797D01*
X55100500Y-39775009D01*
X55100499Y-38224992D01*
X55089999Y-38122203D01*
X55034814Y-37955666D01*
X54942712Y-37806344D01*
X54818656Y-37682288D01*
X54818655Y-37682287D01*
X54809402Y-37676580D01*
X54762678Y-37624632D01*
X54750500Y-37571042D01*
X54750500Y-37056772D01*
X54770185Y-36989733D01*
X54786819Y-36969091D01*
X55583991Y-36171919D01*
X56391119Y-35364790D01*
X56397707Y-35361193D01*
X56402059Y-35355071D01*
X56427954Y-35344677D01*
X56452440Y-35331307D01*
X56459930Y-35331842D01*
X56466901Y-35329045D01*
X56494300Y-35334300D01*
X56522132Y-35336291D01*
X56528145Y-35340792D01*
X56535519Y-35342207D01*
X56555727Y-35361441D01*
X56578065Y-35378163D01*
X56581949Y-35386398D01*
X56586130Y-35390377D01*
X56595286Y-35414673D01*
X56599276Y-35423131D01*
X56599905Y-35425714D01*
X56632949Y-35591835D01*
X56650943Y-35635277D01*
X56653205Y-35644564D01*
X56652002Y-35670298D01*
X56654757Y-35695924D01*
X56650329Y-35706096D01*
X56649943Y-35714358D01*
X56641660Y-35726011D01*
X56631995Y-35748216D01*
X56606203Y-35782669D01*
X56606202Y-35782671D01*
X56555908Y-35917517D01*
X56549501Y-35977116D01*
X56549501Y-35977123D01*
X56549500Y-35977135D01*
X56549500Y-39022870D01*
X56549501Y-39022876D01*
X56555908Y-39082483D01*
X56606202Y-39217328D01*
X56606206Y-39217335D01*
X56692452Y-39332544D01*
X56692455Y-39332547D01*
X56807664Y-39418793D01*
X56807669Y-39418796D01*
X56842473Y-39431777D01*
X56898407Y-39473646D01*
X56922825Y-39539110D01*
X56907974Y-39607384D01*
X56898876Y-39620870D01*
X56898920Y-39620900D01*
X56796990Y-39773446D01*
X56796983Y-39773459D01*
X56729106Y-39937332D01*
X56729103Y-39937341D01*
X56694500Y-40111304D01*
X56694500Y-40288695D01*
X56729103Y-40462658D01*
X56729106Y-40462667D01*
X56796983Y-40626540D01*
X56796990Y-40626553D01*
X56895535Y-40774034D01*
X56895538Y-40774038D01*
X57020961Y-40899461D01*
X57020965Y-40899464D01*
X57168446Y-40998009D01*
X57168459Y-40998016D01*
X57260747Y-41036242D01*
X57332334Y-41065894D01*
X57332336Y-41065894D01*
X57332341Y-41065896D01*
X57506304Y-41100499D01*
X57506307Y-41100500D01*
X57506309Y-41100500D01*
X57683693Y-41100500D01*
X57683694Y-41100499D01*
X57753505Y-41086613D01*
X57857658Y-41065896D01*
X57857661Y-41065894D01*
X57857666Y-41065894D01*
X58021547Y-40998013D01*
X58169035Y-40899464D01*
X58294464Y-40774035D01*
X58393013Y-40626547D01*
X58460894Y-40462666D01*
X58461131Y-40461478D01*
X58495499Y-40288695D01*
X58495500Y-40288693D01*
X58495500Y-40111306D01*
X58495499Y-40111304D01*
X58460896Y-39937341D01*
X58460893Y-39937332D01*
X58393016Y-39773459D01*
X58393014Y-39773455D01*
X58393013Y-39773453D01*
X58343599Y-39699500D01*
X58322812Y-39668390D01*
X58301934Y-39601713D01*
X58320418Y-39534333D01*
X58372397Y-39487642D01*
X58425914Y-39475499D01*
X60574086Y-39475499D01*
X60641125Y-39495184D01*
X60686880Y-39547988D01*
X60696824Y-39617146D01*
X60677188Y-39668390D01*
X60606990Y-39773447D01*
X60606983Y-39773459D01*
X60539106Y-39937332D01*
X60539103Y-39937341D01*
X60504500Y-40111304D01*
X60504500Y-40288695D01*
X60539103Y-40462658D01*
X60539106Y-40462667D01*
X60606983Y-40626540D01*
X60606990Y-40626553D01*
X60705535Y-40774034D01*
X60705538Y-40774038D01*
X60830961Y-40899461D01*
X60830965Y-40899464D01*
X60978446Y-40998009D01*
X60978459Y-40998016D01*
X61070747Y-41036242D01*
X61142334Y-41065894D01*
X61142336Y-41065894D01*
X61142341Y-41065896D01*
X61316304Y-41100499D01*
X61316307Y-41100500D01*
X61316309Y-41100500D01*
X61493693Y-41100500D01*
X61493694Y-41100499D01*
X61563505Y-41086613D01*
X61667658Y-41065896D01*
X61667661Y-41065894D01*
X61667666Y-41065894D01*
X61831547Y-40998013D01*
X61979035Y-40899464D01*
X62104464Y-40774035D01*
X62203013Y-40626547D01*
X62270894Y-40462666D01*
X62271131Y-40461478D01*
X62305499Y-40288695D01*
X62305500Y-40288693D01*
X62305500Y-40111306D01*
X62305499Y-40111304D01*
X62270896Y-39937341D01*
X62270893Y-39937332D01*
X62203016Y-39773459D01*
X62203009Y-39773446D01*
X62101080Y-39620900D01*
X62102244Y-39620121D01*
X62077692Y-39562318D01*
X62089481Y-39493450D01*
X62136631Y-39441889D01*
X62157521Y-39431778D01*
X62192331Y-39418796D01*
X62307546Y-39332546D01*
X62393796Y-39217331D01*
X62444091Y-39082483D01*
X62450500Y-39022873D01*
X62450499Y-36285613D01*
X62470184Y-36218575D01*
X62522987Y-36172820D01*
X62592146Y-36162876D01*
X62655702Y-36191901D01*
X62677599Y-36216721D01*
X62723633Y-36285615D01*
X62845811Y-36468467D01*
X62845821Y-36468481D01*
X63051546Y-36719158D01*
X63280841Y-36948453D01*
X63280846Y-36948457D01*
X63280847Y-36948458D01*
X63531524Y-37154183D01*
X63801158Y-37334347D01*
X63801167Y-37334352D01*
X63801169Y-37334353D01*
X64087145Y-37487211D01*
X64087147Y-37487211D01*
X64087153Y-37487215D01*
X64386754Y-37611314D01*
X64697077Y-37705449D01*
X64781474Y-37722236D01*
X64843385Y-37754621D01*
X64877959Y-37815337D01*
X64874220Y-37885106D01*
X64844965Y-37931535D01*
X64750535Y-38025965D01*
X64651990Y-38173446D01*
X64651983Y-38173459D01*
X64584106Y-38337332D01*
X64584103Y-38337341D01*
X64549500Y-38511304D01*
X64549500Y-38688695D01*
X64584103Y-38862658D01*
X64584106Y-38862667D01*
X64651983Y-39026540D01*
X64651990Y-39026553D01*
X64750535Y-39174034D01*
X64750538Y-39174038D01*
X64875961Y-39299461D01*
X64875965Y-39299464D01*
X65023446Y-39398009D01*
X65023459Y-39398016D01*
X65129380Y-39441889D01*
X65187334Y-39465894D01*
X65207594Y-39469924D01*
X65250118Y-39478383D01*
X65312028Y-39510768D01*
X65346603Y-39571484D01*
X65342863Y-39641253D01*
X65301996Y-39697925D01*
X65250118Y-39721617D01*
X65187340Y-39734104D01*
X65187332Y-39734106D01*
X65023459Y-39801983D01*
X65023446Y-39801990D01*
X64875965Y-39900535D01*
X64875961Y-39900538D01*
X64750538Y-40025961D01*
X64750535Y-40025965D01*
X64651990Y-40173446D01*
X64651983Y-40173459D01*
X64584106Y-40337332D01*
X64584103Y-40337341D01*
X64549500Y-40511304D01*
X64549500Y-40688695D01*
X64584103Y-40862658D01*
X64584106Y-40862667D01*
X64651983Y-41026540D01*
X64651990Y-41026553D01*
X64750535Y-41174034D01*
X64750538Y-41174038D01*
X64875961Y-41299461D01*
X64875965Y-41299464D01*
X65023446Y-41398009D01*
X65023459Y-41398016D01*
X65146363Y-41448923D01*
X65187334Y-41465894D01*
X65207594Y-41469924D01*
X65250118Y-41478383D01*
X65312028Y-41510768D01*
X65346603Y-41571484D01*
X65342863Y-41641253D01*
X65301996Y-41697925D01*
X65250118Y-41721617D01*
X65187340Y-41734104D01*
X65187332Y-41734106D01*
X65023459Y-41801983D01*
X65023446Y-41801990D01*
X64875965Y-41900535D01*
X64875961Y-41900538D01*
X64750538Y-42025961D01*
X64750535Y-42025965D01*
X64651990Y-42173446D01*
X64651983Y-42173459D01*
X64584106Y-42337332D01*
X64584103Y-42337341D01*
X64549500Y-42511304D01*
X64549500Y-42688695D01*
X64584103Y-42862658D01*
X64584106Y-42862667D01*
X64651983Y-43026540D01*
X64651990Y-43026553D01*
X64750535Y-43174034D01*
X64750538Y-43174038D01*
X64875961Y-43299461D01*
X64875965Y-43299464D01*
X65023446Y-43398009D01*
X65023459Y-43398016D01*
X65146363Y-43448923D01*
X65187334Y-43465894D01*
X65187336Y-43465894D01*
X65187341Y-43465896D01*
X65361304Y-43500499D01*
X65361307Y-43500500D01*
X65361309Y-43500500D01*
X65538693Y-43500500D01*
X65538694Y-43500499D01*
X65596682Y-43488964D01*
X65712658Y-43465896D01*
X65712661Y-43465894D01*
X65712666Y-43465894D01*
X65876069Y-43398211D01*
X65876540Y-43398016D01*
X65876540Y-43398015D01*
X65876547Y-43398013D01*
X66024035Y-43299464D01*
X66149464Y-43174035D01*
X66149466Y-43174031D01*
X66153328Y-43169327D01*
X66155249Y-43170904D01*
X66200477Y-43133085D01*
X66269799Y-43124357D01*
X66332835Y-43154493D01*
X66346097Y-43169798D01*
X66346672Y-43169327D01*
X66350538Y-43174038D01*
X66475961Y-43299461D01*
X66475965Y-43299464D01*
X66623446Y-43398009D01*
X66623459Y-43398016D01*
X66746363Y-43448923D01*
X66787334Y-43465894D01*
X66787336Y-43465894D01*
X66787341Y-43465896D01*
X66961304Y-43500499D01*
X66961307Y-43500500D01*
X66961309Y-43500500D01*
X67138693Y-43500500D01*
X67138694Y-43500499D01*
X67196682Y-43488964D01*
X67312658Y-43465896D01*
X67312661Y-43465894D01*
X67312666Y-43465894D01*
X67476069Y-43398211D01*
X67476540Y-43398016D01*
X67476540Y-43398015D01*
X67476547Y-43398013D01*
X67624035Y-43299464D01*
X67749464Y-43174035D01*
X67848013Y-43026547D01*
X67915894Y-42862666D01*
X67950500Y-42688691D01*
X67950500Y-42511309D01*
X67950500Y-42511306D01*
X67950499Y-42511304D01*
X67915896Y-42337341D01*
X67915893Y-42337332D01*
X67848016Y-42173459D01*
X67848009Y-42173446D01*
X67749464Y-42025965D01*
X67749461Y-42025961D01*
X67624038Y-41900538D01*
X67624034Y-41900535D01*
X67476553Y-41801990D01*
X67476540Y-41801983D01*
X67312667Y-41734106D01*
X67312658Y-41734103D01*
X67249882Y-41721617D01*
X67187971Y-41689232D01*
X67153397Y-41628517D01*
X67157136Y-41558747D01*
X67198003Y-41502075D01*
X67249882Y-41478383D01*
X67312658Y-41465896D01*
X67312661Y-41465894D01*
X67312666Y-41465894D01*
X67476547Y-41398013D01*
X67624035Y-41299464D01*
X67749464Y-41174035D01*
X67848013Y-41026547D01*
X67849054Y-41024035D01*
X67872117Y-40968355D01*
X67915894Y-40862666D01*
X67925184Y-40815965D01*
X67945733Y-40712658D01*
X67950500Y-40688691D01*
X67950500Y-40511309D01*
X67950500Y-40511306D01*
X67950499Y-40511304D01*
X67915896Y-40337341D01*
X67915893Y-40337332D01*
X67907765Y-40317710D01*
X67856382Y-40193657D01*
X67848016Y-40173459D01*
X67848009Y-40173446D01*
X67749464Y-40025965D01*
X67749461Y-40025961D01*
X67624038Y-39900538D01*
X67624034Y-39900535D01*
X67476553Y-39801990D01*
X67476540Y-39801983D01*
X67312667Y-39734106D01*
X67312658Y-39734103D01*
X67249882Y-39721617D01*
X67187971Y-39689232D01*
X67153397Y-39628517D01*
X67157136Y-39558747D01*
X67198003Y-39502075D01*
X67249882Y-39478383D01*
X67312658Y-39465896D01*
X67312661Y-39465894D01*
X67312666Y-39465894D01*
X67476547Y-39398013D01*
X67624035Y-39299464D01*
X67749464Y-39174035D01*
X67848013Y-39026547D01*
X67915894Y-38862666D01*
X67950500Y-38688691D01*
X67950500Y-38511309D01*
X67950500Y-38511306D01*
X67950499Y-38511304D01*
X67915896Y-38337341D01*
X67915893Y-38337332D01*
X67848016Y-38173459D01*
X67848009Y-38173446D01*
X67749464Y-38025965D01*
X67749461Y-38025961D01*
X67624038Y-37900538D01*
X67624034Y-37900535D01*
X67476553Y-37801990D01*
X67476540Y-37801983D01*
X67312667Y-37734106D01*
X67312658Y-37734103D01*
X67138694Y-37699500D01*
X67138691Y-37699500D01*
X67010725Y-37699500D01*
X66943686Y-37679815D01*
X66897931Y-37627011D01*
X66887987Y-37557853D01*
X66917012Y-37494297D01*
X66952272Y-37466142D01*
X67089140Y-37392984D01*
X67198842Y-37334347D01*
X67468476Y-37154183D01*
X67719153Y-36948458D01*
X67948458Y-36719153D01*
X68154183Y-36468476D01*
X68334347Y-36198842D01*
X68487215Y-35912847D01*
X68611314Y-35613246D01*
X68705449Y-35302923D01*
X68705451Y-35302913D01*
X68705454Y-35302902D01*
X68758125Y-35038101D01*
X68768714Y-34984868D01*
X68800500Y-34662143D01*
X68800500Y-34337857D01*
X68768714Y-34015132D01*
X68743293Y-33887332D01*
X68705454Y-33697097D01*
X68705451Y-33697086D01*
X68705450Y-33697083D01*
X68705449Y-33697077D01*
X68611314Y-33386754D01*
X68487215Y-33087153D01*
X68476642Y-33067373D01*
X68334353Y-32801169D01*
X68334352Y-32801167D01*
X68334347Y-32801158D01*
X68154183Y-32531524D01*
X67948458Y-32280847D01*
X67948457Y-32280846D01*
X67948453Y-32280841D01*
X67719158Y-32051546D01*
X67468481Y-31845821D01*
X67468480Y-31845820D01*
X67468476Y-31845817D01*
X67198842Y-31665653D01*
X67198837Y-31665650D01*
X67198830Y-31665646D01*
X66912854Y-31512788D01*
X66912849Y-31512786D01*
X66613247Y-31388686D01*
X66302913Y-31294548D01*
X66302902Y-31294545D01*
X65984874Y-31231287D01*
X65984857Y-31231284D01*
X65740812Y-31207248D01*
X65662143Y-31199500D01*
X65337857Y-31199500D01*
X65265099Y-31206666D01*
X65015142Y-31231284D01*
X65015125Y-31231287D01*
X64697097Y-31294545D01*
X64697086Y-31294548D01*
X64386752Y-31388686D01*
X64087150Y-31512786D01*
X64087145Y-31512788D01*
X63801169Y-31665646D01*
X63801151Y-31665657D01*
X63531532Y-31845811D01*
X63531518Y-31845821D01*
X63280841Y-32051546D01*
X63051546Y-32280841D01*
X62845821Y-32531518D01*
X62845811Y-32531532D01*
X62665657Y-32801151D01*
X62665646Y-32801169D01*
X62512788Y-33087145D01*
X62512786Y-33087150D01*
X62388686Y-33386752D01*
X62294548Y-33697086D01*
X62294545Y-33697097D01*
X62231287Y-34015125D01*
X62231284Y-34015142D01*
X62199500Y-34337860D01*
X62199500Y-34662139D01*
X62231284Y-34984857D01*
X62231287Y-34984874D01*
X62294545Y-35302902D01*
X62294548Y-35302913D01*
X62294550Y-35302922D01*
X62294551Y-35302923D01*
X62330059Y-35419977D01*
X62330682Y-35489842D01*
X62293434Y-35548954D01*
X62230140Y-35578545D01*
X62168066Y-35572152D01*
X62057485Y-35530909D01*
X62057483Y-35530908D01*
X61997883Y-35524501D01*
X61997881Y-35524500D01*
X61997873Y-35524500D01*
X61997865Y-35524500D01*
X61259500Y-35524500D01*
X61192461Y-35504815D01*
X61146706Y-35452011D01*
X61135500Y-35400500D01*
X61135500Y-33646458D01*
X61135499Y-33646455D01*
X61110915Y-33522861D01*
X61097051Y-33453164D01*
X61049258Y-33337782D01*
X61021632Y-33271086D01*
X61021631Y-33271085D01*
X61019301Y-33265459D01*
X61021324Y-33264620D01*
X61009082Y-33205874D01*
X61034072Y-33140626D01*
X61090370Y-33099246D01*
X61160102Y-33094872D01*
X61170602Y-33098210D01*
X61170676Y-33097969D01*
X61176492Y-33099732D01*
X61176503Y-33099737D01*
X61331153Y-33130499D01*
X61331156Y-33130500D01*
X61331158Y-33130500D01*
X61488844Y-33130500D01*
X61488845Y-33130499D01*
X61643497Y-33099737D01*
X61789179Y-33039394D01*
X61920289Y-32951789D01*
X62031789Y-32840289D01*
X62119394Y-32709179D01*
X62179737Y-32563497D01*
X62210500Y-32408842D01*
X62210500Y-32251158D01*
X62210500Y-32251155D01*
X62210499Y-32251153D01*
X62204871Y-32222859D01*
X62179737Y-32096503D01*
X62162465Y-32054804D01*
X62119397Y-31950827D01*
X62119390Y-31950814D01*
X62031789Y-31819711D01*
X62031786Y-31819707D01*
X61920292Y-31708213D01*
X61920288Y-31708210D01*
X61789185Y-31620609D01*
X61789172Y-31620602D01*
X61643501Y-31560264D01*
X61643489Y-31560261D01*
X61488845Y-31529500D01*
X61488842Y-31529500D01*
X61331158Y-31529500D01*
X61331155Y-31529500D01*
X61176510Y-31560261D01*
X61176498Y-31560264D01*
X61030827Y-31620602D01*
X61030814Y-31620609D01*
X60899711Y-31708210D01*
X60899707Y-31708213D01*
X60788213Y-31819707D01*
X60788210Y-31819711D01*
X60700609Y-31950814D01*
X60700602Y-31950827D01*
X60640264Y-32096498D01*
X60640261Y-32096510D01*
X60609500Y-32251153D01*
X60609500Y-32408846D01*
X60628014Y-32501924D01*
X60621787Y-32571516D01*
X60578923Y-32626693D01*
X60513033Y-32649937D01*
X60445037Y-32633869D01*
X60418716Y-32613796D01*
X60171479Y-32366559D01*
X60171459Y-32366537D01*
X60027785Y-32222863D01*
X60027781Y-32222860D01*
X59863920Y-32113371D01*
X59863907Y-32113364D01*
X59722530Y-32054804D01*
X59722522Y-32054802D01*
X59714652Y-32051542D01*
X59681836Y-32037949D01*
X59585188Y-32018724D01*
X59581604Y-32018011D01*
X59581596Y-32018009D01*
X59488544Y-31999500D01*
X59488541Y-31999500D01*
X55403971Y-31999500D01*
X55403967Y-31999500D01*
X55310915Y-32018009D01*
X55310903Y-32018012D01*
X55307324Y-32018724D01*
X55210676Y-32037949D01*
X55177860Y-32051542D01*
X55169991Y-32054801D01*
X55169981Y-32054804D01*
X55028604Y-32113364D01*
X55028591Y-32113371D01*
X54864731Y-32222859D01*
X54806750Y-32280841D01*
X54725373Y-32362218D01*
X54725370Y-32362221D01*
X50612221Y-36475370D01*
X50612218Y-36475373D01*
X50542538Y-36545052D01*
X50472859Y-36614731D01*
X50363371Y-36778592D01*
X50363364Y-36778605D01*
X50320196Y-36882826D01*
X50320196Y-36882827D01*
X50307255Y-36914069D01*
X50287949Y-36960676D01*
X50287947Y-36960682D01*
X50249500Y-37153968D01*
X50249500Y-37914800D01*
X50243474Y-37935321D01*
X50242216Y-37956672D01*
X50232069Y-37974162D01*
X50229815Y-37981839D01*
X50225692Y-37987859D01*
X50221510Y-37993593D01*
X50219896Y-37995208D01*
X50100319Y-38159793D01*
X50100192Y-38159967D01*
X50072518Y-38181229D01*
X50044989Y-38202459D01*
X50044876Y-38202468D01*
X50044788Y-38202537D01*
X50010086Y-38205456D01*
X49975375Y-38208438D01*
X49975275Y-38208385D01*
X49975164Y-38208395D01*
X49944611Y-38192206D01*
X49913580Y-38175833D01*
X49913468Y-38175704D01*
X49913426Y-38175682D01*
X49913383Y-38175605D01*
X49899682Y-38159793D01*
X49777241Y-37991266D01*
X49778108Y-37990635D01*
X49751641Y-37931581D01*
X49750500Y-37914800D01*
X49750500Y-35426197D01*
X49750501Y-35426176D01*
X49750501Y-35222980D01*
X49738179Y-35161038D01*
X49744406Y-35091446D01*
X49787268Y-35036268D01*
X49853157Y-35013023D01*
X49883988Y-35015228D01*
X49887332Y-35015893D01*
X49887334Y-35015894D01*
X49956676Y-35029687D01*
X50061306Y-35050500D01*
X50061309Y-35050500D01*
X50238693Y-35050500D01*
X50238694Y-35050499D01*
X50310240Y-35036268D01*
X50412658Y-35015896D01*
X50412661Y-35015894D01*
X50412666Y-35015894D01*
X50576547Y-34948013D01*
X50724035Y-34849464D01*
X50849464Y-34724035D01*
X50948013Y-34576547D01*
X51015894Y-34412666D01*
X51050500Y-34238691D01*
X51050500Y-34061309D01*
X51050500Y-34061306D01*
X51050499Y-34061304D01*
X51015896Y-33887341D01*
X51015893Y-33887332D01*
X50948016Y-33723459D01*
X50948009Y-33723446D01*
X50849464Y-33575965D01*
X50849461Y-33575961D01*
X50724038Y-33450538D01*
X50724034Y-33450535D01*
X50576553Y-33351990D01*
X50576540Y-33351983D01*
X50412667Y-33284106D01*
X50412658Y-33284103D01*
X50238694Y-33249500D01*
X50238691Y-33249500D01*
X50061309Y-33249500D01*
X50061306Y-33249500D01*
X49887341Y-33284103D01*
X49887332Y-33284106D01*
X49723459Y-33351983D01*
X49723446Y-33351990D01*
X49575965Y-33450535D01*
X49575961Y-33450538D01*
X49450538Y-33575961D01*
X49450535Y-33575965D01*
X49351990Y-33723446D01*
X49351983Y-33723459D01*
X49284106Y-33887332D01*
X49284103Y-33887341D01*
X49249500Y-34061304D01*
X49249500Y-34106739D01*
X49229815Y-34173778D01*
X49177011Y-34219533D01*
X49107853Y-34229477D01*
X49044297Y-34200452D01*
X49037819Y-34194420D01*
X47673423Y-32830024D01*
X46204702Y-31361304D01*
X52149500Y-31361304D01*
X52149500Y-31538695D01*
X52184103Y-31712658D01*
X52184106Y-31712667D01*
X52251983Y-31876540D01*
X52251990Y-31876553D01*
X52350535Y-32024034D01*
X52350538Y-32024038D01*
X52475961Y-32149461D01*
X52475965Y-32149464D01*
X52623446Y-32248009D01*
X52623459Y-32248016D01*
X52702722Y-32280847D01*
X52787334Y-32315894D01*
X52787336Y-32315894D01*
X52787341Y-32315896D01*
X52961304Y-32350499D01*
X52961307Y-32350500D01*
X52961309Y-32350500D01*
X53138693Y-32350500D01*
X53138694Y-32350499D01*
X53196682Y-32338964D01*
X53312658Y-32315896D01*
X53312661Y-32315894D01*
X53312666Y-32315894D01*
X53468954Y-32251158D01*
X53476540Y-32248016D01*
X53476540Y-32248015D01*
X53476547Y-32248013D01*
X53624035Y-32149464D01*
X53749464Y-32024035D01*
X53848013Y-31876547D01*
X53915894Y-31712666D01*
X53916781Y-31708211D01*
X53950499Y-31538695D01*
X53950500Y-31538693D01*
X53950500Y-31361306D01*
X53950499Y-31361304D01*
X53915896Y-31187341D01*
X53915893Y-31187332D01*
X53848016Y-31023459D01*
X53848009Y-31023446D01*
X53749464Y-30875965D01*
X53749461Y-30875961D01*
X53624038Y-30750538D01*
X53624034Y-30750535D01*
X53476553Y-30651990D01*
X53476540Y-30651983D01*
X53312667Y-30584106D01*
X53312658Y-30584103D01*
X53138694Y-30549500D01*
X53138691Y-30549500D01*
X52961309Y-30549500D01*
X52961306Y-30549500D01*
X52787341Y-30584103D01*
X52787332Y-30584106D01*
X52623459Y-30651983D01*
X52623446Y-30651990D01*
X52475965Y-30750535D01*
X52475961Y-30750538D01*
X52350538Y-30875961D01*
X52350535Y-30875965D01*
X52251990Y-31023446D01*
X52251983Y-31023459D01*
X52184106Y-31187332D01*
X52184103Y-31187341D01*
X52149500Y-31361304D01*
X46204702Y-31361304D01*
X45612686Y-30769288D01*
X45612684Y-30769285D01*
X45612684Y-30769286D01*
X45605617Y-30762219D01*
X45605617Y-30762218D01*
X45466260Y-30622861D01*
X45466259Y-30622860D01*
X45466258Y-30622859D01*
X45302398Y-30513371D01*
X45302389Y-30513366D01*
X45229793Y-30483296D01*
X45173643Y-30460038D01*
X45122996Y-30439060D01*
X45068595Y-30395221D01*
X45046529Y-30328928D01*
X45063807Y-30261228D01*
X45114944Y-30213617D01*
X45170450Y-30200500D01*
X66865588Y-30200500D01*
X66932627Y-30220185D01*
X66953269Y-30236819D01*
X69763181Y-33046731D01*
X69796666Y-33108054D01*
X69799500Y-33134412D01*
X69799500Y-44517099D01*
X69779815Y-44584138D01*
X69727011Y-44629893D01*
X69657853Y-44639837D01*
X69594297Y-44610812D01*
X69556523Y-44552034D01*
X69554824Y-44545616D01*
X69554092Y-44542520D01*
X69548714Y-44528102D01*
X69503796Y-44407669D01*
X69503795Y-44407668D01*
X69503793Y-44407664D01*
X69417547Y-44292455D01*
X69417544Y-44292452D01*
X69302335Y-44206206D01*
X69302328Y-44206202D01*
X69167482Y-44155908D01*
X69167483Y-44155908D01*
X69107883Y-44149501D01*
X69107881Y-44149500D01*
X69107873Y-44149500D01*
X69107864Y-44149500D01*
X67312129Y-44149500D01*
X67312123Y-44149501D01*
X67252516Y-44155908D01*
X67117671Y-44206202D01*
X67117664Y-44206206D01*
X67002455Y-44292452D01*
X67002452Y-44292455D01*
X66916206Y-44407664D01*
X66916203Y-44407669D01*
X66867189Y-44539083D01*
X66825317Y-44595016D01*
X66759853Y-44619433D01*
X66691580Y-44604581D01*
X66663326Y-44583430D01*
X66549786Y-44469890D01*
X66377820Y-44344951D01*
X66188414Y-44248444D01*
X66188413Y-44248443D01*
X66188412Y-44248443D01*
X65986243Y-44182754D01*
X65986241Y-44182753D01*
X65986240Y-44182753D01*
X65824957Y-44157208D01*
X65776287Y-44149500D01*
X65563713Y-44149500D01*
X65515042Y-44157208D01*
X65353760Y-44182753D01*
X65151585Y-44248444D01*
X64962179Y-44344951D01*
X64790213Y-44469890D01*
X64639890Y-44620213D01*
X64514949Y-44792182D01*
X64510484Y-44800946D01*
X64462509Y-44851742D01*
X64394688Y-44868536D01*
X64328553Y-44845998D01*
X64289516Y-44800946D01*
X64285050Y-44792182D01*
X64160109Y-44620213D01*
X64009786Y-44469890D01*
X63837820Y-44344951D01*
X63648414Y-44248444D01*
X63648413Y-44248443D01*
X63648412Y-44248443D01*
X63446243Y-44182754D01*
X63446241Y-44182753D01*
X63446240Y-44182753D01*
X63284957Y-44157208D01*
X63236287Y-44149500D01*
X63023713Y-44149500D01*
X62975042Y-44157208D01*
X62813760Y-44182753D01*
X62611585Y-44248444D01*
X62422179Y-44344951D01*
X62250213Y-44469890D01*
X62099890Y-44620213D01*
X61974951Y-44792179D01*
X61878444Y-44981585D01*
X61812753Y-45183760D01*
X61803951Y-45239335D01*
X61779500Y-45393713D01*
X61779500Y-45606287D01*
X61786877Y-45652861D01*
X61812249Y-45813059D01*
X61812754Y-45816243D01*
X61874812Y-46007238D01*
X61878444Y-46018414D01*
X61974951Y-46207820D01*
X62099890Y-46379786D01*
X62250213Y-46530109D01*
X62422179Y-46655048D01*
X62422181Y-46655049D01*
X62422184Y-46655051D01*
X62611588Y-46751557D01*
X62813757Y-46817246D01*
X63023713Y-46850500D01*
X63023714Y-46850500D01*
X63236286Y-46850500D01*
X63236287Y-46850500D01*
X63446243Y-46817246D01*
X63648412Y-46751557D01*
X63837816Y-46655051D01*
X63859789Y-46639086D01*
X64009786Y-46530109D01*
X64009788Y-46530106D01*
X64009792Y-46530104D01*
X64160104Y-46379792D01*
X64160106Y-46379788D01*
X64160109Y-46379786D01*
X64285048Y-46207820D01*
X64285047Y-46207820D01*
X64285051Y-46207816D01*
X64289514Y-46199054D01*
X64337488Y-46148259D01*
X64405308Y-46131463D01*
X64471444Y-46153999D01*
X64510486Y-46199056D01*
X64514951Y-46207820D01*
X64639890Y-46379786D01*
X64790213Y-46530109D01*
X64962179Y-46655048D01*
X64962181Y-46655049D01*
X64962184Y-46655051D01*
X65151588Y-46751557D01*
X65353757Y-46817246D01*
X65563713Y-46850500D01*
X65563714Y-46850500D01*
X65776286Y-46850500D01*
X65776287Y-46850500D01*
X65986243Y-46817246D01*
X66188412Y-46751557D01*
X66377816Y-46655051D01*
X66435141Y-46613402D01*
X66549784Y-46530110D01*
X66549784Y-46530109D01*
X66549792Y-46530104D01*
X66663329Y-46416566D01*
X66724648Y-46383084D01*
X66794340Y-46388068D01*
X66850274Y-46429939D01*
X66867189Y-46460917D01*
X66916202Y-46592328D01*
X66916206Y-46592335D01*
X67002452Y-46707544D01*
X67002455Y-46707547D01*
X67117664Y-46793793D01*
X67117671Y-46793797D01*
X67252517Y-46844091D01*
X67252516Y-46844091D01*
X67259444Y-46844835D01*
X67312127Y-46850500D01*
X69107872Y-46850499D01*
X69167483Y-46844091D01*
X69302331Y-46793796D01*
X69417546Y-46707546D01*
X69503796Y-46592331D01*
X69554091Y-46457483D01*
X69554091Y-46457476D01*
X69554822Y-46454387D01*
X69556050Y-46452228D01*
X69556802Y-46450215D01*
X69557128Y-46450336D01*
X69589394Y-46393670D01*
X69651304Y-46361283D01*
X69720896Y-46367507D01*
X69776075Y-46410368D01*
X69799322Y-46476257D01*
X69799500Y-46482899D01*
X69799500Y-60977919D01*
X69779815Y-61044958D01*
X69727011Y-61090713D01*
X69657853Y-61100657D01*
X69594297Y-61071632D01*
X69560939Y-61025371D01*
X69498016Y-60873459D01*
X69498009Y-60873446D01*
X69399464Y-60725965D01*
X69399461Y-60725961D01*
X69274038Y-60600538D01*
X69274034Y-60600535D01*
X69126553Y-60501990D01*
X69126540Y-60501983D01*
X68962667Y-60434106D01*
X68962658Y-60434103D01*
X68788694Y-60399500D01*
X68788691Y-60399500D01*
X68611309Y-60399500D01*
X68611306Y-60399500D01*
X68437341Y-60434103D01*
X68437332Y-60434106D01*
X68273459Y-60501983D01*
X68273446Y-60501990D01*
X68125965Y-60600535D01*
X68125961Y-60600538D01*
X68000538Y-60725961D01*
X68000535Y-60725965D01*
X67901990Y-60873446D01*
X67901983Y-60873459D01*
X67834106Y-61037332D01*
X67834103Y-61037341D01*
X67799500Y-61211304D01*
X67799500Y-61388695D01*
X67834103Y-61562658D01*
X67834106Y-61562667D01*
X67901983Y-61726540D01*
X67901990Y-61726553D01*
X68000535Y-61874034D01*
X68000538Y-61874038D01*
X68094812Y-61968312D01*
X68128297Y-62029635D01*
X68123313Y-62099327D01*
X68081441Y-62155260D01*
X68054584Y-62170554D01*
X67945824Y-62215604D01*
X67945814Y-62215609D01*
X67814711Y-62303210D01*
X67814707Y-62303213D01*
X67703213Y-62414707D01*
X67703210Y-62414711D01*
X67615609Y-62545814D01*
X67615602Y-62545827D01*
X67555264Y-62691498D01*
X67555259Y-62691515D01*
X67554189Y-62696895D01*
X67521799Y-62758803D01*
X67461081Y-62793373D01*
X67391312Y-62789627D01*
X67363683Y-62775796D01*
X67198848Y-62665657D01*
X67198847Y-62665656D01*
X67198842Y-62665653D01*
X67198837Y-62665650D01*
X67198830Y-62665646D01*
X66912854Y-62512788D01*
X66912849Y-62512786D01*
X66901468Y-62508072D01*
X66825098Y-62476438D01*
X66613247Y-62388686D01*
X66302913Y-62294548D01*
X66302902Y-62294545D01*
X65984874Y-62231287D01*
X65984857Y-62231284D01*
X65719284Y-62205128D01*
X65662143Y-62199500D01*
X65337857Y-62199500D01*
X65280726Y-62205127D01*
X65015142Y-62231284D01*
X65015125Y-62231287D01*
X64697097Y-62294545D01*
X64697086Y-62294548D01*
X64386752Y-62388686D01*
X64087150Y-62512786D01*
X64087145Y-62512788D01*
X63801169Y-62665646D01*
X63801151Y-62665657D01*
X63531532Y-62845811D01*
X63531518Y-62845821D01*
X63280841Y-63051546D01*
X63051546Y-63280841D01*
X62845821Y-63531518D01*
X62845811Y-63531532D01*
X62665657Y-63801151D01*
X62665646Y-63801169D01*
X62512788Y-64087145D01*
X62512786Y-64087150D01*
X62388686Y-64386752D01*
X62294548Y-64697086D01*
X62294545Y-64697097D01*
X62231287Y-65015125D01*
X62231284Y-65015142D01*
X62199500Y-65337860D01*
X62199500Y-65662139D01*
X62231284Y-65984857D01*
X62231287Y-65984874D01*
X62294545Y-66302902D01*
X62294548Y-66302913D01*
X62388686Y-66613247D01*
X62512786Y-66912849D01*
X62512788Y-66912854D01*
X62665646Y-67198830D01*
X62665657Y-67198848D01*
X62845811Y-67468467D01*
X62845821Y-67468481D01*
X63051546Y-67719158D01*
X63280841Y-67948453D01*
X63280846Y-67948457D01*
X63280847Y-67948458D01*
X63531524Y-68154183D01*
X63801158Y-68334347D01*
X63801167Y-68334352D01*
X63801169Y-68334353D01*
X64087145Y-68487211D01*
X64087147Y-68487211D01*
X64087153Y-68487215D01*
X64386754Y-68611314D01*
X64697077Y-68705449D01*
X64697083Y-68705450D01*
X64697086Y-68705451D01*
X64697097Y-68705454D01*
X64896528Y-68745122D01*
X65015132Y-68768714D01*
X65337857Y-68800500D01*
X65337860Y-68800500D01*
X65662140Y-68800500D01*
X65662143Y-68800500D01*
X65984868Y-68768714D01*
X66142295Y-68737399D01*
X66302902Y-68705454D01*
X66302913Y-68705451D01*
X66302913Y-68705450D01*
X66302923Y-68705449D01*
X66613246Y-68611314D01*
X66912847Y-68487215D01*
X67198842Y-68334347D01*
X67468476Y-68154183D01*
X67719153Y-67948458D01*
X67948458Y-67719153D01*
X68154183Y-67468476D01*
X68334347Y-67198842D01*
X68487215Y-66912847D01*
X68611314Y-66613246D01*
X68705449Y-66302923D01*
X68705451Y-66302913D01*
X68705454Y-66302902D01*
X68745912Y-66099500D01*
X68768714Y-65984868D01*
X68800500Y-65662143D01*
X68800500Y-65337857D01*
X68768714Y-65015132D01*
X68735967Y-64850500D01*
X68705454Y-64697097D01*
X68705451Y-64697086D01*
X68705450Y-64697083D01*
X68705449Y-64697077D01*
X68611314Y-64386754D01*
X68487215Y-64087153D01*
X68468418Y-64051987D01*
X68383287Y-63892718D01*
X68369045Y-63824316D01*
X68394045Y-63759072D01*
X68450350Y-63717701D01*
X68468454Y-63712648D01*
X68492273Y-63707909D01*
X68558497Y-63694737D01*
X68704179Y-63634394D01*
X68835289Y-63546789D01*
X68946789Y-63435289D01*
X69034394Y-63304179D01*
X69094737Y-63158497D01*
X69125500Y-63003842D01*
X69125500Y-62846158D01*
X69125500Y-62846155D01*
X69125499Y-62846153D01*
X69106479Y-62750535D01*
X69094737Y-62691503D01*
X69078369Y-62651987D01*
X69034397Y-62545827D01*
X69034390Y-62545814D01*
X68946789Y-62414711D01*
X68946786Y-62414707D01*
X68905866Y-62373787D01*
X68872381Y-62312464D01*
X68877365Y-62242772D01*
X68919237Y-62186839D01*
X68957547Y-62167447D01*
X68962663Y-62165894D01*
X68962666Y-62165894D01*
X69126547Y-62098013D01*
X69274035Y-61999464D01*
X69399464Y-61874035D01*
X69498013Y-61726547D01*
X69498014Y-61726544D01*
X69498016Y-61726541D01*
X69560939Y-61574628D01*
X69604779Y-61520224D01*
X69671073Y-61498159D01*
X69738773Y-61515438D01*
X69786383Y-61566575D01*
X69799500Y-61622080D01*
X69799500Y-66865588D01*
X69779815Y-66932627D01*
X69763181Y-66953269D01*
X66953269Y-69763181D01*
X66891946Y-69796666D01*
X66865588Y-69799500D01*
X33134412Y-69799500D01*
X33067373Y-69779815D01*
X33046731Y-69763181D01*
X30236819Y-66953269D01*
X30203334Y-66891946D01*
X30200500Y-66865588D01*
X30200500Y-65337860D01*
X31199500Y-65337860D01*
X31199500Y-65662139D01*
X31231284Y-65984857D01*
X31231287Y-65984874D01*
X31294545Y-66302902D01*
X31294548Y-66302913D01*
X31388686Y-66613247D01*
X31512786Y-66912849D01*
X31512788Y-66912854D01*
X31665646Y-67198830D01*
X31665657Y-67198848D01*
X31845811Y-67468467D01*
X31845821Y-67468481D01*
X32051546Y-67719158D01*
X32280841Y-67948453D01*
X32280846Y-67948457D01*
X32280847Y-67948458D01*
X32531524Y-68154183D01*
X32801158Y-68334347D01*
X32801167Y-68334352D01*
X32801169Y-68334353D01*
X33087145Y-68487211D01*
X33087147Y-68487211D01*
X33087153Y-68487215D01*
X33386754Y-68611314D01*
X33697077Y-68705449D01*
X33697083Y-68705450D01*
X33697086Y-68705451D01*
X33697097Y-68705454D01*
X33896528Y-68745122D01*
X34015132Y-68768714D01*
X34337857Y-68800500D01*
X34337860Y-68800500D01*
X34662140Y-68800500D01*
X34662143Y-68800500D01*
X34984868Y-68768714D01*
X35142295Y-68737399D01*
X35302902Y-68705454D01*
X35302913Y-68705451D01*
X35302913Y-68705450D01*
X35302923Y-68705449D01*
X35613246Y-68611314D01*
X35912847Y-68487215D01*
X36198842Y-68334347D01*
X36468476Y-68154183D01*
X36719153Y-67948458D01*
X36948458Y-67719153D01*
X37078001Y-67561304D01*
X42399500Y-67561304D01*
X42399500Y-67738695D01*
X42434103Y-67912658D01*
X42434106Y-67912667D01*
X42501983Y-68076540D01*
X42501990Y-68076553D01*
X42600535Y-68224034D01*
X42600538Y-68224038D01*
X42725961Y-68349461D01*
X42725965Y-68349464D01*
X42873446Y-68448009D01*
X42873459Y-68448016D01*
X42968086Y-68487211D01*
X43037334Y-68515894D01*
X43037336Y-68515894D01*
X43037341Y-68515896D01*
X43211304Y-68550499D01*
X43211307Y-68550500D01*
X43211309Y-68550500D01*
X43388693Y-68550500D01*
X43388694Y-68550499D01*
X43446682Y-68538964D01*
X43562658Y-68515896D01*
X43562661Y-68515894D01*
X43562666Y-68515894D01*
X43726547Y-68448013D01*
X43874035Y-68349464D01*
X43999464Y-68224035D01*
X44098013Y-68076547D01*
X44165894Y-67912666D01*
X44168315Y-67900499D01*
X44200499Y-67738695D01*
X44200500Y-67738693D01*
X44200500Y-67561306D01*
X44200499Y-67561304D01*
X44165895Y-67387339D01*
X44165894Y-67387334D01*
X44155112Y-67361304D01*
X49199500Y-67361304D01*
X49199500Y-67538695D01*
X49234103Y-67712658D01*
X49234106Y-67712667D01*
X49301983Y-67876540D01*
X49301990Y-67876553D01*
X49400535Y-68024034D01*
X49400538Y-68024038D01*
X49525961Y-68149461D01*
X49525965Y-68149464D01*
X49673446Y-68248009D01*
X49673459Y-68248016D01*
X49796363Y-68298923D01*
X49837334Y-68315894D01*
X49837336Y-68315894D01*
X49837341Y-68315896D01*
X50011304Y-68350499D01*
X50011307Y-68350500D01*
X50011309Y-68350500D01*
X50188693Y-68350500D01*
X50188694Y-68350499D01*
X50269867Y-68334353D01*
X50362658Y-68315896D01*
X50362661Y-68315894D01*
X50362666Y-68315894D01*
X50494459Y-68261304D01*
X53699500Y-68261304D01*
X53699500Y-68438695D01*
X53734103Y-68612658D01*
X53734106Y-68612667D01*
X53801983Y-68776540D01*
X53801990Y-68776553D01*
X53900535Y-68924034D01*
X53900538Y-68924038D01*
X54025961Y-69049461D01*
X54025965Y-69049464D01*
X54173446Y-69148009D01*
X54173459Y-69148016D01*
X54296363Y-69198923D01*
X54337334Y-69215894D01*
X54337336Y-69215894D01*
X54337341Y-69215896D01*
X54511304Y-69250499D01*
X54511307Y-69250500D01*
X54511309Y-69250500D01*
X54688693Y-69250500D01*
X54688694Y-69250499D01*
X54746682Y-69238964D01*
X54862658Y-69215896D01*
X54862661Y-69215894D01*
X54862666Y-69215894D01*
X55026547Y-69148013D01*
X55174035Y-69049464D01*
X55299464Y-68924035D01*
X55398013Y-68776547D01*
X55401258Y-68768714D01*
X55427460Y-68705454D01*
X55465894Y-68612666D01*
X55466164Y-68611313D01*
X55498646Y-68448013D01*
X55500500Y-68438691D01*
X55500500Y-68261309D01*
X55500500Y-68261306D01*
X55500499Y-68261304D01*
X55465896Y-68087341D01*
X55465893Y-68087332D01*
X55398016Y-67923459D01*
X55398009Y-67923446D01*
X55299464Y-67775965D01*
X55299461Y-67775961D01*
X55174038Y-67650538D01*
X55174034Y-67650535D01*
X55026553Y-67551990D01*
X55026540Y-67551983D01*
X54862667Y-67484106D01*
X54862658Y-67484103D01*
X54688694Y-67449500D01*
X54688691Y-67449500D01*
X54511309Y-67449500D01*
X54511306Y-67449500D01*
X54337341Y-67484103D01*
X54337332Y-67484106D01*
X54173459Y-67551983D01*
X54173446Y-67551990D01*
X54025965Y-67650535D01*
X54025961Y-67650538D01*
X53900538Y-67775961D01*
X53900535Y-67775965D01*
X53801990Y-67923446D01*
X53801983Y-67923459D01*
X53734106Y-68087332D01*
X53734103Y-68087341D01*
X53699500Y-68261304D01*
X50494459Y-68261304D01*
X50526547Y-68248013D01*
X50562434Y-68224034D01*
X50670068Y-68152115D01*
X50671345Y-68151261D01*
X50674035Y-68149464D01*
X50799464Y-68024035D01*
X50898013Y-67876547D01*
X50965894Y-67712666D01*
X51000500Y-67538691D01*
X51000500Y-67361309D01*
X51000500Y-67361306D01*
X51000499Y-67361304D01*
X50965896Y-67187341D01*
X50965893Y-67187332D01*
X50898016Y-67023459D01*
X50898014Y-67023455D01*
X50898013Y-67023453D01*
X50851117Y-66953269D01*
X50823077Y-66911304D01*
X56799500Y-66911304D01*
X56799500Y-67088695D01*
X56834103Y-67262658D01*
X56834106Y-67262667D01*
X56901983Y-67426540D01*
X56901990Y-67426553D01*
X57000535Y-67574034D01*
X57000538Y-67574038D01*
X57125961Y-67699461D01*
X57125965Y-67699464D01*
X57273446Y-67798009D01*
X57273459Y-67798016D01*
X57396363Y-67848923D01*
X57437334Y-67865894D01*
X57437336Y-67865894D01*
X57437341Y-67865896D01*
X57611304Y-67900499D01*
X57611307Y-67900500D01*
X57611309Y-67900500D01*
X57788693Y-67900500D01*
X57788694Y-67900499D01*
X57846682Y-67888964D01*
X57962658Y-67865896D01*
X57962661Y-67865894D01*
X57962666Y-67865894D01*
X58126547Y-67798013D01*
X58274035Y-67699464D01*
X58399464Y-67574035D01*
X58498013Y-67426547D01*
X58565894Y-67262666D01*
X58573696Y-67223446D01*
X58600499Y-67088695D01*
X58600500Y-67088693D01*
X58600500Y-66911306D01*
X58600499Y-66911304D01*
X58565896Y-66737341D01*
X58565893Y-66737332D01*
X58498016Y-66573459D01*
X58498009Y-66573446D01*
X58399464Y-66425965D01*
X58399461Y-66425961D01*
X58274038Y-66300538D01*
X58274034Y-66300535D01*
X58126553Y-66201990D01*
X58126540Y-66201983D01*
X57962667Y-66134106D01*
X57962658Y-66134103D01*
X57788694Y-66099500D01*
X57788691Y-66099500D01*
X57611309Y-66099500D01*
X57611306Y-66099500D01*
X57437341Y-66134103D01*
X57437332Y-66134106D01*
X57273459Y-66201983D01*
X57273446Y-66201990D01*
X57125965Y-66300535D01*
X57125961Y-66300538D01*
X57000538Y-66425961D01*
X57000535Y-66425965D01*
X56901990Y-66573446D01*
X56901983Y-66573459D01*
X56834106Y-66737332D01*
X56834103Y-66737341D01*
X56799500Y-66911304D01*
X50823077Y-66911304D01*
X50799464Y-66875965D01*
X50799461Y-66875961D01*
X50674038Y-66750538D01*
X50674034Y-66750535D01*
X50526553Y-66651990D01*
X50526540Y-66651983D01*
X50362667Y-66584106D01*
X50362658Y-66584103D01*
X50188694Y-66549500D01*
X50188691Y-66549500D01*
X50011309Y-66549500D01*
X50011306Y-66549500D01*
X49837341Y-66584103D01*
X49837332Y-66584106D01*
X49673459Y-66651983D01*
X49673446Y-66651990D01*
X49525965Y-66750535D01*
X49525961Y-66750538D01*
X49400538Y-66875961D01*
X49400535Y-66875965D01*
X49301990Y-67023446D01*
X49301983Y-67023459D01*
X49234106Y-67187332D01*
X49234103Y-67187341D01*
X49199500Y-67361304D01*
X44155112Y-67361304D01*
X44098016Y-67223459D01*
X44098009Y-67223446D01*
X43999464Y-67075965D01*
X43999461Y-67075961D01*
X43874038Y-66950538D01*
X43874034Y-66950535D01*
X43726553Y-66851990D01*
X43726540Y-66851983D01*
X43562667Y-66784106D01*
X43562658Y-66784103D01*
X43388694Y-66749500D01*
X43388691Y-66749500D01*
X43211309Y-66749500D01*
X43211306Y-66749500D01*
X43037341Y-66784103D01*
X43037332Y-66784106D01*
X42873459Y-66851983D01*
X42873446Y-66851990D01*
X42725965Y-66950535D01*
X42725961Y-66950538D01*
X42600538Y-67075961D01*
X42600535Y-67075965D01*
X42501990Y-67223446D01*
X42501983Y-67223459D01*
X42434106Y-67387332D01*
X42434103Y-67387341D01*
X42399500Y-67561304D01*
X37078001Y-67561304D01*
X37154183Y-67468476D01*
X37334347Y-67198842D01*
X37487215Y-66912847D01*
X37611314Y-66613246D01*
X37705449Y-66302923D01*
X37705451Y-66302913D01*
X37705454Y-66302902D01*
X37745912Y-66099500D01*
X37768714Y-65984868D01*
X37800500Y-65662143D01*
X37800500Y-65337857D01*
X37768714Y-65015132D01*
X37765444Y-64998691D01*
X37771671Y-64929099D01*
X37814535Y-64873922D01*
X37880424Y-64850678D01*
X37887061Y-64850500D01*
X37988693Y-64850500D01*
X37988694Y-64850499D01*
X38067142Y-64834895D01*
X38162658Y-64815896D01*
X38162661Y-64815894D01*
X38162666Y-64815894D01*
X38326547Y-64748013D01*
X38474035Y-64649464D01*
X38599464Y-64524035D01*
X38698013Y-64376547D01*
X38765894Y-64212666D01*
X38768922Y-64197447D01*
X38790862Y-64087145D01*
X38800500Y-64038691D01*
X38800500Y-63861309D01*
X38800500Y-63861306D01*
X38800499Y-63861304D01*
X38765896Y-63687341D01*
X38765893Y-63687332D01*
X38698016Y-63523459D01*
X38698009Y-63523446D01*
X38599464Y-63375965D01*
X38599461Y-63375961D01*
X38474037Y-63250537D01*
X38453208Y-63236620D01*
X38453207Y-63236619D01*
X38326552Y-63151990D01*
X38326540Y-63151983D01*
X38293720Y-63138389D01*
X41899500Y-63138389D01*
X41899500Y-63861611D01*
X41926598Y-64032701D01*
X41980127Y-64197445D01*
X42058768Y-64351788D01*
X42160586Y-64491928D01*
X42283072Y-64614414D01*
X42423212Y-64716232D01*
X42577555Y-64794873D01*
X42742299Y-64848402D01*
X42913389Y-64875500D01*
X42913390Y-64875500D01*
X43086610Y-64875500D01*
X43086611Y-64875500D01*
X43257701Y-64848402D01*
X43422445Y-64794873D01*
X43576788Y-64716232D01*
X43716928Y-64614414D01*
X43839414Y-64491928D01*
X43899682Y-64408975D01*
X43955012Y-64366311D01*
X44024626Y-64360332D01*
X44086421Y-64392938D01*
X44100315Y-64408973D01*
X44160586Y-64491928D01*
X44283072Y-64614414D01*
X44423212Y-64716232D01*
X44577555Y-64794873D01*
X44742299Y-64848402D01*
X44913389Y-64875500D01*
X44913390Y-64875500D01*
X45086610Y-64875500D01*
X45086611Y-64875500D01*
X45257701Y-64848402D01*
X45422445Y-64794873D01*
X45576788Y-64716232D01*
X45716928Y-64614414D01*
X45839414Y-64491928D01*
X45899682Y-64408975D01*
X45955012Y-64366311D01*
X46024626Y-64360332D01*
X46086421Y-64392938D01*
X46100315Y-64408973D01*
X46160586Y-64491928D01*
X46283072Y-64614414D01*
X46423212Y-64716232D01*
X46577555Y-64794873D01*
X46742299Y-64848402D01*
X46913389Y-64875500D01*
X46913390Y-64875500D01*
X47086610Y-64875500D01*
X47086611Y-64875500D01*
X47257701Y-64848402D01*
X47422445Y-64794873D01*
X47576788Y-64716232D01*
X47716928Y-64614414D01*
X47839414Y-64491928D01*
X47941232Y-64351788D01*
X48019873Y-64197445D01*
X48073402Y-64032701D01*
X48100500Y-63861611D01*
X48100500Y-63361304D01*
X49149500Y-63361304D01*
X49149500Y-63538695D01*
X49184103Y-63712658D01*
X49184106Y-63712667D01*
X49251983Y-63876540D01*
X49251990Y-63876553D01*
X49350535Y-64024034D01*
X49350538Y-64024038D01*
X49475961Y-64149461D01*
X49475965Y-64149464D01*
X49623446Y-64248009D01*
X49623459Y-64248016D01*
X49746363Y-64298923D01*
X49787334Y-64315894D01*
X49787336Y-64315894D01*
X49787341Y-64315896D01*
X49961304Y-64350499D01*
X49961307Y-64350500D01*
X49961309Y-64350500D01*
X50138693Y-64350500D01*
X50138694Y-64350499D01*
X50196682Y-64338964D01*
X50312658Y-64315896D01*
X50312661Y-64315894D01*
X50312666Y-64315894D01*
X50476547Y-64248013D01*
X50624035Y-64149464D01*
X50749464Y-64024035D01*
X50848013Y-63876547D01*
X50915894Y-63712666D01*
X50919461Y-63694737D01*
X50950499Y-63538695D01*
X50950500Y-63538693D01*
X50950500Y-63361306D01*
X50950499Y-63361304D01*
X50915896Y-63187341D01*
X50915894Y-63187336D01*
X50915894Y-63187334D01*
X50895621Y-63138389D01*
X53899500Y-63138389D01*
X53899500Y-63861611D01*
X53926598Y-64032701D01*
X53980127Y-64197445D01*
X54058768Y-64351788D01*
X54160586Y-64491928D01*
X54283072Y-64614414D01*
X54423212Y-64716232D01*
X54577555Y-64794873D01*
X54742299Y-64848402D01*
X54913389Y-64875500D01*
X54913390Y-64875500D01*
X55086610Y-64875500D01*
X55086611Y-64875500D01*
X55257701Y-64848402D01*
X55422445Y-64794873D01*
X55576788Y-64716232D01*
X55716928Y-64614414D01*
X55839414Y-64491928D01*
X55899682Y-64408975D01*
X55955012Y-64366311D01*
X56024626Y-64360332D01*
X56086421Y-64392938D01*
X56100315Y-64408973D01*
X56160586Y-64491928D01*
X56283072Y-64614414D01*
X56423212Y-64716232D01*
X56577555Y-64794873D01*
X56742299Y-64848402D01*
X56913389Y-64875500D01*
X56913390Y-64875500D01*
X57086610Y-64875500D01*
X57086611Y-64875500D01*
X57257701Y-64848402D01*
X57422445Y-64794873D01*
X57576788Y-64716232D01*
X57716928Y-64614414D01*
X57839414Y-64491928D01*
X57899682Y-64408975D01*
X57955012Y-64366311D01*
X58024626Y-64360332D01*
X58086421Y-64392938D01*
X58100315Y-64408973D01*
X58160586Y-64491928D01*
X58283072Y-64614414D01*
X58423212Y-64716232D01*
X58577555Y-64794873D01*
X58742299Y-64848402D01*
X58913389Y-64875500D01*
X58913390Y-64875500D01*
X59086608Y-64875500D01*
X59086611Y-64875500D01*
X59114583Y-64871069D01*
X59183875Y-64880023D01*
X59237327Y-64925018D01*
X59255598Y-64969351D01*
X59284103Y-65112657D01*
X59284106Y-65112667D01*
X59351983Y-65276540D01*
X59351990Y-65276553D01*
X59450535Y-65424034D01*
X59450538Y-65424038D01*
X59575961Y-65549461D01*
X59575965Y-65549464D01*
X59723446Y-65648009D01*
X59723459Y-65648016D01*
X59846363Y-65698923D01*
X59887334Y-65715894D01*
X59887336Y-65715894D01*
X59887341Y-65715896D01*
X60061304Y-65750499D01*
X60061307Y-65750500D01*
X60061309Y-65750500D01*
X60238693Y-65750500D01*
X60238694Y-65750499D01*
X60296682Y-65738964D01*
X60412658Y-65715896D01*
X60412661Y-65715894D01*
X60412666Y-65715894D01*
X60576547Y-65648013D01*
X60724035Y-65549464D01*
X60849464Y-65424035D01*
X60948013Y-65276547D01*
X61015894Y-65112666D01*
X61050500Y-64938691D01*
X61050500Y-64761309D01*
X61050500Y-64761306D01*
X61050499Y-64761304D01*
X61015896Y-64587341D01*
X61015893Y-64587332D01*
X60948016Y-64423459D01*
X60948009Y-64423446D01*
X60849464Y-64275965D01*
X60849461Y-64275961D01*
X60724038Y-64150538D01*
X60724034Y-64150535D01*
X60576553Y-64051990D01*
X60576540Y-64051983D01*
X60412667Y-63984106D01*
X60412658Y-63984103D01*
X60238694Y-63949500D01*
X60238691Y-63949500D01*
X60224500Y-63949500D01*
X60157461Y-63929815D01*
X60111706Y-63877011D01*
X60100500Y-63825500D01*
X60100500Y-63138389D01*
X60082295Y-63023450D01*
X60073402Y-62967299D01*
X60019873Y-62802555D01*
X59941232Y-62648212D01*
X59839414Y-62508072D01*
X59716928Y-62385586D01*
X59576788Y-62283768D01*
X59422445Y-62205127D01*
X59257701Y-62151598D01*
X59257699Y-62151597D01*
X59257698Y-62151597D01*
X59126271Y-62130781D01*
X59086611Y-62124500D01*
X58913389Y-62124500D01*
X58873728Y-62130781D01*
X58742302Y-62151597D01*
X58577552Y-62205128D01*
X58423211Y-62283768D01*
X58396448Y-62303213D01*
X58283072Y-62385586D01*
X58283070Y-62385588D01*
X58283069Y-62385588D01*
X58160588Y-62508069D01*
X58160581Y-62508078D01*
X58100317Y-62591023D01*
X58044987Y-62633689D01*
X57975374Y-62639667D01*
X57913579Y-62607061D01*
X57899683Y-62591023D01*
X57839418Y-62508078D01*
X57839414Y-62508072D01*
X57716928Y-62385586D01*
X57576788Y-62283768D01*
X57422445Y-62205127D01*
X57257701Y-62151598D01*
X57257699Y-62151597D01*
X57257698Y-62151597D01*
X57126271Y-62130781D01*
X57086611Y-62124500D01*
X56913389Y-62124500D01*
X56873728Y-62130781D01*
X56742302Y-62151597D01*
X56577552Y-62205128D01*
X56423211Y-62283768D01*
X56396448Y-62303213D01*
X56283072Y-62385586D01*
X56283070Y-62385588D01*
X56283069Y-62385588D01*
X56160588Y-62508069D01*
X56160581Y-62508078D01*
X56100317Y-62591023D01*
X56044987Y-62633689D01*
X55975374Y-62639667D01*
X55913579Y-62607061D01*
X55899683Y-62591023D01*
X55839418Y-62508078D01*
X55839414Y-62508072D01*
X55716928Y-62385586D01*
X55576788Y-62283768D01*
X55422445Y-62205127D01*
X55257701Y-62151598D01*
X55257699Y-62151597D01*
X55257698Y-62151597D01*
X55126271Y-62130781D01*
X55086611Y-62124500D01*
X54913389Y-62124500D01*
X54873728Y-62130781D01*
X54742302Y-62151597D01*
X54577552Y-62205128D01*
X54423211Y-62283768D01*
X54396448Y-62303213D01*
X54283072Y-62385586D01*
X54283070Y-62385588D01*
X54283069Y-62385588D01*
X54160588Y-62508069D01*
X54160588Y-62508070D01*
X54160586Y-62508072D01*
X54130487Y-62549500D01*
X54058768Y-62648211D01*
X53980128Y-62802552D01*
X53926597Y-62967302D01*
X53899500Y-63138389D01*
X50895621Y-63138389D01*
X50848013Y-63023453D01*
X50848011Y-63023450D01*
X50848009Y-63023446D01*
X50749464Y-62875965D01*
X50749461Y-62875961D01*
X50624038Y-62750538D01*
X50624034Y-62750535D01*
X50476553Y-62651990D01*
X50476540Y-62651983D01*
X50312667Y-62584106D01*
X50312658Y-62584103D01*
X50138694Y-62549500D01*
X50138691Y-62549500D01*
X49961309Y-62549500D01*
X49961306Y-62549500D01*
X49787341Y-62584103D01*
X49787332Y-62584106D01*
X49623459Y-62651983D01*
X49623446Y-62651990D01*
X49475965Y-62750535D01*
X49475961Y-62750538D01*
X49350538Y-62875961D01*
X49350535Y-62875965D01*
X49251990Y-63023446D01*
X49251983Y-63023459D01*
X49184106Y-63187332D01*
X49184103Y-63187341D01*
X49149500Y-63361304D01*
X48100500Y-63361304D01*
X48100500Y-63138389D01*
X48073402Y-62967299D01*
X48019873Y-62802555D01*
X47941232Y-62648212D01*
X47839414Y-62508072D01*
X47716928Y-62385586D01*
X47576788Y-62283768D01*
X47422445Y-62205127D01*
X47257701Y-62151598D01*
X47257699Y-62151597D01*
X47257698Y-62151597D01*
X47126271Y-62130781D01*
X47086611Y-62124500D01*
X46913389Y-62124500D01*
X46873728Y-62130781D01*
X46742302Y-62151597D01*
X46577552Y-62205128D01*
X46423211Y-62283768D01*
X46396448Y-62303213D01*
X46283072Y-62385586D01*
X46283070Y-62385588D01*
X46283069Y-62385588D01*
X46160588Y-62508069D01*
X46160581Y-62508078D01*
X46100317Y-62591023D01*
X46044987Y-62633689D01*
X45975374Y-62639667D01*
X45913579Y-62607061D01*
X45899683Y-62591023D01*
X45839418Y-62508078D01*
X45839414Y-62508072D01*
X45716928Y-62385586D01*
X45576788Y-62283768D01*
X45422445Y-62205127D01*
X45257701Y-62151598D01*
X45257699Y-62151597D01*
X45257698Y-62151597D01*
X45126271Y-62130781D01*
X45086611Y-62124500D01*
X44913389Y-62124500D01*
X44873728Y-62130781D01*
X44742302Y-62151597D01*
X44577552Y-62205128D01*
X44423211Y-62283768D01*
X44396448Y-62303213D01*
X44283072Y-62385586D01*
X44283070Y-62385588D01*
X44283069Y-62385588D01*
X44160588Y-62508069D01*
X44160581Y-62508078D01*
X44100317Y-62591023D01*
X44044987Y-62633689D01*
X43975374Y-62639667D01*
X43913579Y-62607061D01*
X43899683Y-62591023D01*
X43839418Y-62508078D01*
X43839414Y-62508072D01*
X43716928Y-62385586D01*
X43576788Y-62283768D01*
X43422445Y-62205127D01*
X43257701Y-62151598D01*
X43257699Y-62151597D01*
X43257698Y-62151597D01*
X43126271Y-62130781D01*
X43086611Y-62124500D01*
X42913389Y-62124500D01*
X42873728Y-62130781D01*
X42742302Y-62151597D01*
X42577552Y-62205128D01*
X42423211Y-62283768D01*
X42396448Y-62303213D01*
X42283072Y-62385586D01*
X42283070Y-62385588D01*
X42283069Y-62385588D01*
X42160588Y-62508069D01*
X42160588Y-62508070D01*
X42160586Y-62508072D01*
X42130487Y-62549500D01*
X42058768Y-62648211D01*
X41980128Y-62802552D01*
X41926597Y-62967302D01*
X41899500Y-63138389D01*
X38293720Y-63138389D01*
X38162667Y-63084106D01*
X38162658Y-63084103D01*
X37988694Y-63049500D01*
X37988691Y-63049500D01*
X37811309Y-63049500D01*
X37811306Y-63049500D01*
X37637341Y-63084103D01*
X37637332Y-63084106D01*
X37473459Y-63151983D01*
X37473446Y-63151990D01*
X37325965Y-63250534D01*
X37201698Y-63374802D01*
X37140375Y-63408286D01*
X37070683Y-63403302D01*
X37018164Y-63365785D01*
X36948458Y-63280847D01*
X36948456Y-63280845D01*
X36948452Y-63280840D01*
X36719158Y-63051546D01*
X36468481Y-62845821D01*
X36468480Y-62845820D01*
X36468476Y-62845817D01*
X36198842Y-62665653D01*
X36198837Y-62665650D01*
X36198830Y-62665646D01*
X35912854Y-62512788D01*
X35912849Y-62512786D01*
X35901468Y-62508072D01*
X35825098Y-62476438D01*
X35613247Y-62388686D01*
X35302913Y-62294548D01*
X35302902Y-62294545D01*
X34984874Y-62231287D01*
X34984857Y-62231284D01*
X34719284Y-62205128D01*
X34662143Y-62199500D01*
X34337857Y-62199500D01*
X34280726Y-62205127D01*
X34015142Y-62231284D01*
X34015125Y-62231287D01*
X33697097Y-62294545D01*
X33697086Y-62294548D01*
X33386752Y-62388686D01*
X33087150Y-62512786D01*
X33087145Y-62512788D01*
X32801169Y-62665646D01*
X32801151Y-62665657D01*
X32531532Y-62845811D01*
X32531518Y-62845821D01*
X32280841Y-63051546D01*
X32051546Y-63280841D01*
X31845821Y-63531518D01*
X31845811Y-63531532D01*
X31665657Y-63801151D01*
X31665646Y-63801169D01*
X31512788Y-64087145D01*
X31512786Y-64087150D01*
X31388686Y-64386752D01*
X31294548Y-64697086D01*
X31294545Y-64697097D01*
X31231287Y-65015125D01*
X31231284Y-65015142D01*
X31199500Y-65337860D01*
X30200500Y-65337860D01*
X30200500Y-61211304D01*
X35299500Y-61211304D01*
X35299500Y-61388695D01*
X35334103Y-61562658D01*
X35334106Y-61562667D01*
X35401983Y-61726540D01*
X35401990Y-61726553D01*
X35500535Y-61874034D01*
X35500538Y-61874038D01*
X35625961Y-61999461D01*
X35625965Y-61999464D01*
X35773446Y-62098009D01*
X35773459Y-62098016D01*
X35896363Y-62148923D01*
X35937334Y-62165894D01*
X35937336Y-62165894D01*
X35937341Y-62165896D01*
X36111304Y-62200499D01*
X36111307Y-62200500D01*
X36111309Y-62200500D01*
X36288693Y-62200500D01*
X36288694Y-62200499D01*
X36357369Y-62186839D01*
X36462658Y-62165896D01*
X36462661Y-62165894D01*
X36462666Y-62165894D01*
X36626547Y-62098013D01*
X36774035Y-61999464D01*
X36899464Y-61874035D01*
X36998013Y-61726547D01*
X37065894Y-61562666D01*
X37071696Y-61533501D01*
X37100499Y-61388695D01*
X37100500Y-61388693D01*
X37100500Y-61274500D01*
X37120185Y-61207461D01*
X37172989Y-61161706D01*
X37224500Y-61150500D01*
X37378844Y-61150500D01*
X37378845Y-61150499D01*
X37533497Y-61119737D01*
X37679179Y-61059394D01*
X37810289Y-60971789D01*
X37921789Y-60860289D01*
X38009394Y-60729179D01*
X38069737Y-60583497D01*
X38100500Y-60428842D01*
X38100500Y-60271158D01*
X38100500Y-60271155D01*
X38100499Y-60271153D01*
X38088865Y-60212666D01*
X38069737Y-60116503D01*
X38062694Y-60099500D01*
X38009397Y-59970827D01*
X38009390Y-59970814D01*
X37921789Y-59839711D01*
X37921786Y-59839707D01*
X37810292Y-59728213D01*
X37810288Y-59728210D01*
X37679185Y-59640609D01*
X37679172Y-59640602D01*
X37533501Y-59580264D01*
X37533489Y-59580261D01*
X37378845Y-59549500D01*
X37378842Y-59549500D01*
X37221158Y-59549500D01*
X37221155Y-59549500D01*
X37066510Y-59580261D01*
X37066498Y-59580264D01*
X36920827Y-59640602D01*
X36920814Y-59640609D01*
X36789711Y-59728210D01*
X36789707Y-59728213D01*
X36678213Y-59839707D01*
X36678210Y-59839711D01*
X36590609Y-59970814D01*
X36590602Y-59970827D01*
X36530264Y-60116498D01*
X36530261Y-60116510D01*
X36499500Y-60271153D01*
X36499500Y-60290337D01*
X36479815Y-60357376D01*
X36427011Y-60403131D01*
X36357853Y-60413075D01*
X36351310Y-60411955D01*
X36288691Y-60399500D01*
X36111309Y-60399500D01*
X36111306Y-60399500D01*
X35937341Y-60434103D01*
X35937332Y-60434106D01*
X35773459Y-60501983D01*
X35773446Y-60501990D01*
X35625965Y-60600535D01*
X35625961Y-60600538D01*
X35500538Y-60725961D01*
X35500535Y-60725965D01*
X35401990Y-60873446D01*
X35401983Y-60873459D01*
X35334106Y-61037332D01*
X35334103Y-61037341D01*
X35299500Y-61211304D01*
X30200500Y-61211304D01*
X30200500Y-58952135D01*
X39149500Y-58952135D01*
X39149500Y-60747870D01*
X39149501Y-60747876D01*
X39155908Y-60807483D01*
X39206202Y-60942328D01*
X39206206Y-60942335D01*
X39292452Y-61057544D01*
X39292455Y-61057547D01*
X39407664Y-61143793D01*
X39407671Y-61143797D01*
X39542517Y-61194091D01*
X39542516Y-61194091D01*
X39549444Y-61194835D01*
X39602127Y-61200500D01*
X41397872Y-61200499D01*
X41457483Y-61194091D01*
X41592331Y-61143796D01*
X41707546Y-61057546D01*
X41793796Y-60942331D01*
X41842810Y-60810916D01*
X41884681Y-60754984D01*
X41950145Y-60730566D01*
X42018418Y-60745417D01*
X42046673Y-60766569D01*
X42160213Y-60880109D01*
X42332179Y-61005048D01*
X42332181Y-61005049D01*
X42332184Y-61005051D01*
X42521588Y-61101557D01*
X42723757Y-61167246D01*
X42933713Y-61200500D01*
X42933714Y-61200500D01*
X43146286Y-61200500D01*
X43146287Y-61200500D01*
X43356243Y-61167246D01*
X43558412Y-61101557D01*
X43747816Y-61005051D01*
X43834138Y-60942335D01*
X43919786Y-60880109D01*
X43919788Y-60880106D01*
X43919792Y-60880104D01*
X44070104Y-60729792D01*
X44070106Y-60729788D01*
X44070109Y-60729786D01*
X44179086Y-60579789D01*
X44195051Y-60557816D01*
X44291557Y-60368412D01*
X44310162Y-60311153D01*
X45689500Y-60311153D01*
X45689500Y-60468846D01*
X45720261Y-60623489D01*
X45720264Y-60623501D01*
X45780602Y-60769172D01*
X45780609Y-60769185D01*
X45868210Y-60900288D01*
X45868213Y-60900292D01*
X45979707Y-61011786D01*
X45979711Y-61011789D01*
X46110814Y-61099390D01*
X46110827Y-61099397D01*
X46256498Y-61159735D01*
X46256503Y-61159737D01*
X46411153Y-61190499D01*
X46411156Y-61190500D01*
X46411158Y-61190500D01*
X46568844Y-61190500D01*
X46568845Y-61190499D01*
X46723497Y-61159737D01*
X46869179Y-61099394D01*
X47000289Y-61011789D01*
X47111789Y-60900289D01*
X47164666Y-60821153D01*
X48862000Y-60821153D01*
X48862000Y-60978846D01*
X48892761Y-61133489D01*
X48892764Y-61133501D01*
X48953102Y-61279172D01*
X48953109Y-61279185D01*
X49040710Y-61410288D01*
X49040713Y-61410292D01*
X49152207Y-61521786D01*
X49152211Y-61521789D01*
X49283314Y-61609390D01*
X49283327Y-61609397D01*
X49428998Y-61669735D01*
X49429003Y-61669737D01*
X49583653Y-61700499D01*
X49583656Y-61700500D01*
X49583658Y-61700500D01*
X49741344Y-61700500D01*
X49741345Y-61700499D01*
X49895997Y-61669737D01*
X50041679Y-61609394D01*
X50172789Y-61521789D01*
X50284289Y-61410289D01*
X50371894Y-61279179D01*
X50432237Y-61133497D01*
X50463000Y-60978842D01*
X50463000Y-60821158D01*
X50463000Y-60821155D01*
X50462999Y-60821153D01*
X50452349Y-60767611D01*
X50432237Y-60666503D01*
X50414425Y-60623501D01*
X50371897Y-60520827D01*
X50371890Y-60520814D01*
X50284289Y-60389711D01*
X50284286Y-60389707D01*
X50172792Y-60278213D01*
X50172788Y-60278210D01*
X50041685Y-60190609D01*
X50041672Y-60190602D01*
X49896001Y-60130264D01*
X49895989Y-60130261D01*
X49741345Y-60099500D01*
X49741342Y-60099500D01*
X49583658Y-60099500D01*
X49583655Y-60099500D01*
X49429010Y-60130261D01*
X49428998Y-60130264D01*
X49283327Y-60190602D01*
X49283314Y-60190609D01*
X49152211Y-60278210D01*
X49152207Y-60278213D01*
X49040713Y-60389707D01*
X49040710Y-60389711D01*
X48953109Y-60520814D01*
X48953102Y-60520827D01*
X48892764Y-60666498D01*
X48892761Y-60666510D01*
X48862000Y-60821153D01*
X47164666Y-60821153D01*
X47199394Y-60769179D01*
X47199709Y-60768417D01*
X47200044Y-60767611D01*
X47200044Y-60767610D01*
X47215388Y-60730566D01*
X47259737Y-60623497D01*
X47290500Y-60468842D01*
X47290500Y-60311158D01*
X47290500Y-60311155D01*
X47290499Y-60311153D01*
X47281666Y-60266747D01*
X47259737Y-60156503D01*
X47205069Y-60024523D01*
X47197601Y-59955055D01*
X47228876Y-59892576D01*
X47288965Y-59856924D01*
X47358790Y-59859418D01*
X47407312Y-59889391D01*
X47489707Y-59971786D01*
X47489711Y-59971789D01*
X47620814Y-60059390D01*
X47620827Y-60059397D01*
X47717646Y-60099500D01*
X47766503Y-60119737D01*
X47921153Y-60150499D01*
X47921156Y-60150500D01*
X47921158Y-60150500D01*
X48078844Y-60150500D01*
X48078845Y-60150499D01*
X48233497Y-60119737D01*
X48379179Y-60059394D01*
X48510289Y-59971789D01*
X48620774Y-59861304D01*
X51037000Y-59861304D01*
X51037000Y-60038695D01*
X51071603Y-60212658D01*
X51071606Y-60212667D01*
X51139483Y-60376540D01*
X51139490Y-60376553D01*
X51238035Y-60524034D01*
X51238038Y-60524038D01*
X51363461Y-60649461D01*
X51363465Y-60649464D01*
X51510946Y-60748009D01*
X51510959Y-60748016D01*
X51611612Y-60789707D01*
X51674834Y-60815894D01*
X51674836Y-60815894D01*
X51674841Y-60815896D01*
X51848804Y-60850499D01*
X51848807Y-60850500D01*
X51848809Y-60850500D01*
X52026193Y-60850500D01*
X52026194Y-60850499D01*
X52108614Y-60834105D01*
X52200158Y-60815896D01*
X52200161Y-60815894D01*
X52200166Y-60815894D01*
X52296110Y-60776153D01*
X54224500Y-60776153D01*
X54224500Y-60933846D01*
X54255261Y-61088489D01*
X54255264Y-61088501D01*
X54315602Y-61234172D01*
X54315609Y-61234185D01*
X54403210Y-61365288D01*
X54403213Y-61365292D01*
X54514707Y-61476786D01*
X54514711Y-61476789D01*
X54645814Y-61564390D01*
X54645827Y-61564397D01*
X54785088Y-61622080D01*
X54791503Y-61624737D01*
X54946153Y-61655499D01*
X54946156Y-61655500D01*
X54946158Y-61655500D01*
X55103844Y-61655500D01*
X55103845Y-61655499D01*
X55258497Y-61624737D01*
X55404179Y-61564394D01*
X55535289Y-61476789D01*
X55646789Y-61365289D01*
X55734394Y-61234179D01*
X55794737Y-61088497D01*
X55825500Y-60933842D01*
X55825500Y-60776158D01*
X55825500Y-60776155D01*
X55825499Y-60776153D01*
X59174500Y-60776153D01*
X59174500Y-60933846D01*
X59205261Y-61088489D01*
X59205264Y-61088501D01*
X59265602Y-61234172D01*
X59265609Y-61234185D01*
X59353210Y-61365288D01*
X59353213Y-61365292D01*
X59464707Y-61476786D01*
X59464711Y-61476789D01*
X59595814Y-61564390D01*
X59595827Y-61564397D01*
X59735088Y-61622080D01*
X59741503Y-61624737D01*
X59896153Y-61655499D01*
X59896156Y-61655500D01*
X59896158Y-61655500D01*
X60053844Y-61655500D01*
X60053845Y-61655499D01*
X60208497Y-61624737D01*
X60354179Y-61564394D01*
X60485289Y-61476789D01*
X60596789Y-61365289D01*
X60684394Y-61234179D01*
X60684395Y-61234176D01*
X60684397Y-61234173D01*
X60689790Y-61221153D01*
X62999500Y-61221153D01*
X62999500Y-61378846D01*
X63030261Y-61533489D01*
X63030264Y-61533501D01*
X63090602Y-61679172D01*
X63090609Y-61679185D01*
X63178210Y-61810288D01*
X63178213Y-61810292D01*
X63289707Y-61921786D01*
X63289711Y-61921789D01*
X63420814Y-62009390D01*
X63420827Y-62009397D01*
X63469687Y-62029635D01*
X63566503Y-62069737D01*
X63708635Y-62098009D01*
X63721153Y-62100499D01*
X63721156Y-62100500D01*
X63721158Y-62100500D01*
X63878844Y-62100500D01*
X63878845Y-62100499D01*
X64033497Y-62069737D01*
X64179179Y-62009394D01*
X64310289Y-61921789D01*
X64421789Y-61810289D01*
X64509394Y-61679179D01*
X64569737Y-61533497D01*
X64600500Y-61378842D01*
X64600500Y-61221158D01*
X64600500Y-61221155D01*
X64600499Y-61221153D01*
X64594402Y-61190500D01*
X64569737Y-61066503D01*
X64556748Y-61035144D01*
X64509397Y-60920827D01*
X64509390Y-60920814D01*
X64421789Y-60789711D01*
X64421786Y-60789707D01*
X64310292Y-60678213D01*
X64310288Y-60678210D01*
X64179185Y-60590609D01*
X64179172Y-60590602D01*
X64033501Y-60530264D01*
X64033489Y-60530261D01*
X63878845Y-60499500D01*
X63878842Y-60499500D01*
X63721158Y-60499500D01*
X63721155Y-60499500D01*
X63566510Y-60530261D01*
X63566498Y-60530264D01*
X63420827Y-60590602D01*
X63420814Y-60590609D01*
X63289711Y-60678210D01*
X63289707Y-60678213D01*
X63178213Y-60789707D01*
X63178210Y-60789711D01*
X63090609Y-60920814D01*
X63090602Y-60920827D01*
X63030264Y-61066498D01*
X63030261Y-61066510D01*
X62999500Y-61221153D01*
X60689790Y-61221153D01*
X60698344Y-61200500D01*
X60744737Y-61088497D01*
X60745691Y-61083700D01*
X60749758Y-61073584D01*
X60768161Y-61050250D01*
X60784448Y-61025400D01*
X60789561Y-61023119D01*
X60793028Y-61018725D01*
X60821116Y-61009048D01*
X60848260Y-60996944D01*
X60854736Y-60997465D01*
X60859087Y-60995967D01*
X60870395Y-60998727D01*
X60892500Y-61000508D01*
X60892731Y-60999350D01*
X61072676Y-61035143D01*
X61072679Y-61035144D01*
X61072681Y-61035144D01*
X61250065Y-61035144D01*
X61250066Y-61035143D01*
X61310516Y-61023119D01*
X61424030Y-61000540D01*
X61424033Y-61000538D01*
X61424038Y-61000538D01*
X61564571Y-60942328D01*
X61587912Y-60932660D01*
X61587912Y-60932659D01*
X61587919Y-60932657D01*
X61735407Y-60834108D01*
X61860836Y-60708679D01*
X61959385Y-60561191D01*
X62027266Y-60397310D01*
X62028779Y-60389707D01*
X62059907Y-60233213D01*
X62061872Y-60223335D01*
X62061872Y-60045953D01*
X62061872Y-60045950D01*
X62061871Y-60045948D01*
X62027268Y-59871985D01*
X62027265Y-59871976D01*
X62022845Y-59861306D01*
X61984285Y-59768211D01*
X61959388Y-59708103D01*
X61959381Y-59708090D01*
X61860836Y-59560609D01*
X61860833Y-59560605D01*
X61735410Y-59435182D01*
X61735406Y-59435179D01*
X61587925Y-59336634D01*
X61587912Y-59336627D01*
X61424039Y-59268750D01*
X61424030Y-59268747D01*
X61250066Y-59234144D01*
X61250063Y-59234144D01*
X61072681Y-59234144D01*
X61072678Y-59234144D01*
X60898713Y-59268747D01*
X60898704Y-59268750D01*
X60734831Y-59336627D01*
X60734818Y-59336634D01*
X60587337Y-59435179D01*
X60587333Y-59435182D01*
X60461910Y-59560605D01*
X60461907Y-59560609D01*
X60363362Y-59708090D01*
X60363355Y-59708103D01*
X60295478Y-59871976D01*
X60295476Y-59871984D01*
X60275547Y-59972171D01*
X60243161Y-60034082D01*
X60182445Y-60068656D01*
X60129739Y-60069596D01*
X60053846Y-60054500D01*
X60053842Y-60054500D01*
X59896158Y-60054500D01*
X59896155Y-60054500D01*
X59741510Y-60085261D01*
X59741498Y-60085264D01*
X59595827Y-60145602D01*
X59595814Y-60145609D01*
X59464711Y-60233210D01*
X59464707Y-60233213D01*
X59353213Y-60344707D01*
X59353210Y-60344711D01*
X59265609Y-60475814D01*
X59265602Y-60475827D01*
X59205264Y-60621498D01*
X59205261Y-60621510D01*
X59174500Y-60776153D01*
X55825499Y-60776153D01*
X55819902Y-60748016D01*
X55794737Y-60621503D01*
X55786052Y-60600535D01*
X55734397Y-60475827D01*
X55734390Y-60475814D01*
X55646789Y-60344711D01*
X55646786Y-60344707D01*
X55535292Y-60233213D01*
X55535288Y-60233210D01*
X55404185Y-60145609D01*
X55404172Y-60145602D01*
X55258501Y-60085264D01*
X55258489Y-60085261D01*
X55103845Y-60054500D01*
X55103842Y-60054500D01*
X54946158Y-60054500D01*
X54946155Y-60054500D01*
X54791510Y-60085261D01*
X54791498Y-60085264D01*
X54645827Y-60145602D01*
X54645814Y-60145609D01*
X54514711Y-60233210D01*
X54514707Y-60233213D01*
X54403213Y-60344707D01*
X54403210Y-60344711D01*
X54315609Y-60475814D01*
X54315602Y-60475827D01*
X54255264Y-60621498D01*
X54255261Y-60621510D01*
X54224500Y-60776153D01*
X52296110Y-60776153D01*
X52364047Y-60748013D01*
X52448938Y-60691289D01*
X52485345Y-60666964D01*
X52493130Y-60661761D01*
X52511535Y-60649464D01*
X52636964Y-60524035D01*
X52735513Y-60376547D01*
X52803394Y-60212666D01*
X52806106Y-60199035D01*
X52828737Y-60085261D01*
X52838000Y-60038691D01*
X52838000Y-59861309D01*
X52838000Y-59861306D01*
X52837999Y-59861304D01*
X52803396Y-59687341D01*
X52803393Y-59687332D01*
X52800605Y-59680602D01*
X52775612Y-59620261D01*
X52735516Y-59523459D01*
X52735509Y-59523446D01*
X52636964Y-59375965D01*
X52636961Y-59375961D01*
X52511538Y-59250538D01*
X52511534Y-59250535D01*
X52364053Y-59151990D01*
X52364040Y-59151983D01*
X52200167Y-59084106D01*
X52200158Y-59084103D01*
X52026194Y-59049500D01*
X52026191Y-59049500D01*
X51848809Y-59049500D01*
X51848806Y-59049500D01*
X51674841Y-59084103D01*
X51674832Y-59084106D01*
X51510959Y-59151983D01*
X51510946Y-59151990D01*
X51363465Y-59250535D01*
X51363461Y-59250538D01*
X51238038Y-59375961D01*
X51238035Y-59375965D01*
X51139490Y-59523446D01*
X51139483Y-59523459D01*
X51071606Y-59687332D01*
X51071603Y-59687341D01*
X51037000Y-59861304D01*
X48620774Y-59861304D01*
X48621789Y-59860289D01*
X48683313Y-59768213D01*
X48709390Y-59729185D01*
X48709390Y-59729184D01*
X48709394Y-59729179D01*
X48715809Y-59713693D01*
X48729515Y-59680602D01*
X48769737Y-59583497D01*
X48800500Y-59428842D01*
X48800500Y-59271158D01*
X48800500Y-59271155D01*
X48800499Y-59271153D01*
X48786038Y-59198453D01*
X48769737Y-59116503D01*
X48756579Y-59084737D01*
X48709397Y-58970827D01*
X48709390Y-58970814D01*
X48621789Y-58839711D01*
X48621786Y-58839707D01*
X48510292Y-58728213D01*
X48510288Y-58728210D01*
X48379185Y-58640609D01*
X48379172Y-58640602D01*
X48233501Y-58580264D01*
X48233489Y-58580261D01*
X48078845Y-58549500D01*
X48078842Y-58549500D01*
X47921158Y-58549500D01*
X47921155Y-58549500D01*
X47766510Y-58580261D01*
X47766498Y-58580264D01*
X47620827Y-58640602D01*
X47620814Y-58640609D01*
X47489711Y-58728210D01*
X47489707Y-58728213D01*
X47378213Y-58839707D01*
X47378210Y-58839711D01*
X47290609Y-58970814D01*
X47290602Y-58970827D01*
X47230264Y-59116498D01*
X47230261Y-59116510D01*
X47199500Y-59271153D01*
X47199500Y-59428846D01*
X47230261Y-59583489D01*
X47230264Y-59583501D01*
X47284929Y-59715475D01*
X47292398Y-59784944D01*
X47261122Y-59847423D01*
X47201033Y-59883075D01*
X47131208Y-59880581D01*
X47082687Y-59850608D01*
X47000292Y-59768213D01*
X47000288Y-59768210D01*
X46869185Y-59680609D01*
X46869172Y-59680602D01*
X46723501Y-59620264D01*
X46723489Y-59620261D01*
X46568845Y-59589500D01*
X46568842Y-59589500D01*
X46411158Y-59589500D01*
X46411155Y-59589500D01*
X46256510Y-59620261D01*
X46256498Y-59620264D01*
X46110827Y-59680602D01*
X46110814Y-59680609D01*
X45979711Y-59768210D01*
X45979707Y-59768213D01*
X45868213Y-59879707D01*
X45868210Y-59879711D01*
X45780609Y-60010814D01*
X45780602Y-60010827D01*
X45720264Y-60156498D01*
X45720261Y-60156510D01*
X45689500Y-60311153D01*
X44310162Y-60311153D01*
X44357246Y-60166243D01*
X44390500Y-59956287D01*
X44390500Y-59743713D01*
X44357246Y-59533757D01*
X44291557Y-59331588D01*
X44195051Y-59142184D01*
X44195049Y-59142181D01*
X44195048Y-59142179D01*
X44070109Y-58970213D01*
X43919786Y-58819890D01*
X43747820Y-58694951D01*
X43558414Y-58598444D01*
X43558413Y-58598443D01*
X43558412Y-58598443D01*
X43356243Y-58532754D01*
X43356241Y-58532753D01*
X43356240Y-58532753D01*
X43194957Y-58507208D01*
X43146287Y-58499500D01*
X42933713Y-58499500D01*
X42885042Y-58507208D01*
X42723760Y-58532753D01*
X42521585Y-58598444D01*
X42332179Y-58694951D01*
X42160215Y-58819889D01*
X42046673Y-58933431D01*
X41985350Y-58966915D01*
X41915658Y-58961931D01*
X41859725Y-58920059D01*
X41842810Y-58889082D01*
X41793797Y-58757671D01*
X41793793Y-58757664D01*
X41707547Y-58642455D01*
X41707544Y-58642452D01*
X41592335Y-58556206D01*
X41592328Y-58556202D01*
X41457482Y-58505908D01*
X41457483Y-58505908D01*
X41397883Y-58499501D01*
X41397881Y-58499500D01*
X41397873Y-58499500D01*
X41397864Y-58499500D01*
X39602129Y-58499500D01*
X39602123Y-58499501D01*
X39542516Y-58505908D01*
X39407671Y-58556202D01*
X39407664Y-58556206D01*
X39292455Y-58642452D01*
X39292452Y-58642455D01*
X39206206Y-58757664D01*
X39206202Y-58757671D01*
X39155908Y-58892517D01*
X39149501Y-58952116D01*
X39149500Y-58952135D01*
X30200500Y-58952135D01*
X30200500Y-58322080D01*
X30220185Y-58255041D01*
X30272989Y-58209286D01*
X30342147Y-58199342D01*
X30405703Y-58228367D01*
X30439061Y-58274628D01*
X30501983Y-58426541D01*
X30501990Y-58426553D01*
X30600535Y-58574034D01*
X30600538Y-58574038D01*
X30725961Y-58699461D01*
X30725965Y-58699464D01*
X30873446Y-58798009D01*
X30873459Y-58798016D01*
X30988593Y-58845705D01*
X31037334Y-58865894D01*
X31037336Y-58865894D01*
X31037341Y-58865896D01*
X31211304Y-58900499D01*
X31211307Y-58900500D01*
X31211309Y-58900500D01*
X31388693Y-58900500D01*
X31388694Y-58900499D01*
X31446682Y-58888964D01*
X31562658Y-58865896D01*
X31562661Y-58865894D01*
X31562666Y-58865894D01*
X31726547Y-58798013D01*
X31874035Y-58699464D01*
X31999464Y-58574035D01*
X32098013Y-58426547D01*
X32165894Y-58262666D01*
X32171168Y-58236155D01*
X32188964Y-58146682D01*
X32200500Y-58088691D01*
X32200500Y-57961304D01*
X32849500Y-57961304D01*
X32849500Y-58138695D01*
X32884103Y-58312658D01*
X32884106Y-58312667D01*
X32951983Y-58476540D01*
X32951990Y-58476553D01*
X33050535Y-58624034D01*
X33050538Y-58624038D01*
X33175961Y-58749461D01*
X33175965Y-58749464D01*
X33323446Y-58848009D01*
X33323459Y-58848016D01*
X33422603Y-58889082D01*
X33487334Y-58915894D01*
X33487336Y-58915894D01*
X33487341Y-58915896D01*
X33661304Y-58950499D01*
X33661307Y-58950500D01*
X33661309Y-58950500D01*
X33838693Y-58950500D01*
X33838694Y-58950499D01*
X33896682Y-58938964D01*
X34012658Y-58915896D01*
X34012661Y-58915894D01*
X34012666Y-58915894D01*
X34176547Y-58848013D01*
X34176556Y-58848007D01*
X34180002Y-58845705D01*
X34180004Y-58845704D01*
X34293693Y-58769738D01*
X34324035Y-58749464D01*
X34449464Y-58624035D01*
X34548013Y-58476547D01*
X34615894Y-58312666D01*
X34619053Y-58296789D01*
X34644393Y-58169394D01*
X34650500Y-58138691D01*
X34650500Y-57961309D01*
X34650500Y-57961306D01*
X34646114Y-57939258D01*
X34646114Y-57939257D01*
X34642513Y-57921153D01*
X35399500Y-57921153D01*
X35399500Y-58078846D01*
X35430261Y-58233489D01*
X35430264Y-58233501D01*
X35490602Y-58379172D01*
X35490609Y-58379185D01*
X35578210Y-58510288D01*
X35578213Y-58510292D01*
X35689707Y-58621786D01*
X35689711Y-58621789D01*
X35820814Y-58709390D01*
X35820827Y-58709397D01*
X35938418Y-58758104D01*
X35966503Y-58769737D01*
X36108635Y-58798009D01*
X36121153Y-58800499D01*
X36121156Y-58800500D01*
X36121158Y-58800500D01*
X36278844Y-58800500D01*
X36278845Y-58800499D01*
X36433497Y-58769737D01*
X36579179Y-58709394D01*
X36710289Y-58621789D01*
X36821789Y-58510289D01*
X36909394Y-58379179D01*
X36969737Y-58233497D01*
X37000500Y-58078842D01*
X37000500Y-57921158D01*
X37000500Y-57921155D01*
X37000499Y-57921153D01*
X36997980Y-57908489D01*
X36969737Y-57766503D01*
X36956688Y-57735000D01*
X36909397Y-57620827D01*
X36909390Y-57620814D01*
X36821789Y-57489711D01*
X36821786Y-57489707D01*
X36710292Y-57378213D01*
X36710288Y-57378210D01*
X36620429Y-57318168D01*
X36579185Y-57290609D01*
X36579172Y-57290602D01*
X36433501Y-57230264D01*
X36433489Y-57230261D01*
X36387701Y-57221153D01*
X37199500Y-57221153D01*
X37199500Y-57378846D01*
X37230261Y-57533489D01*
X37230264Y-57533501D01*
X37290602Y-57679172D01*
X37290609Y-57679185D01*
X37378210Y-57810288D01*
X37378213Y-57810292D01*
X37489707Y-57921786D01*
X37489711Y-57921789D01*
X37620814Y-58009390D01*
X37620827Y-58009397D01*
X37766498Y-58069735D01*
X37766503Y-58069737D01*
X37861791Y-58088691D01*
X37921153Y-58100499D01*
X37921156Y-58100500D01*
X37921158Y-58100500D01*
X38078844Y-58100500D01*
X38078845Y-58100499D01*
X38233497Y-58069737D01*
X38379179Y-58009394D01*
X38510289Y-57921789D01*
X38621789Y-57810289D01*
X38709394Y-57679179D01*
X38713885Y-57668338D01*
X38723067Y-57646166D01*
X38769737Y-57533497D01*
X38800500Y-57378842D01*
X38800500Y-57221158D01*
X38800500Y-57221155D01*
X38800499Y-57221153D01*
X38793129Y-57184103D01*
X38769737Y-57066503D01*
X38764232Y-57053213D01*
X38743297Y-57002669D01*
X38726163Y-56961304D01*
X39949500Y-56961304D01*
X39949500Y-57138695D01*
X39984103Y-57312658D01*
X39984106Y-57312667D01*
X40051983Y-57476540D01*
X40051990Y-57476553D01*
X40150535Y-57624034D01*
X40150538Y-57624038D01*
X40275961Y-57749461D01*
X40275965Y-57749464D01*
X40423446Y-57848009D01*
X40423459Y-57848016D01*
X40546363Y-57898923D01*
X40587334Y-57915894D01*
X40587336Y-57915894D01*
X40587341Y-57915896D01*
X40761304Y-57950499D01*
X40761307Y-57950500D01*
X40761309Y-57950500D01*
X40938693Y-57950500D01*
X40938694Y-57950499D01*
X41012487Y-57935821D01*
X41112658Y-57915896D01*
X41112661Y-57915894D01*
X41112666Y-57915894D01*
X41276547Y-57848013D01*
X41424035Y-57749464D01*
X41549464Y-57624035D01*
X41648013Y-57476547D01*
X41715894Y-57312666D01*
X41718307Y-57300538D01*
X41750499Y-57138695D01*
X41750500Y-57138693D01*
X41750500Y-56961306D01*
X41750499Y-56961304D01*
X41715896Y-56787341D01*
X41715893Y-56787332D01*
X41648016Y-56623459D01*
X41648009Y-56623446D01*
X41549464Y-56475965D01*
X41549461Y-56475961D01*
X41424038Y-56350538D01*
X41424034Y-56350535D01*
X41276553Y-56251990D01*
X41276540Y-56251983D01*
X41112667Y-56184106D01*
X41112658Y-56184103D01*
X40938694Y-56149500D01*
X40938691Y-56149500D01*
X40761309Y-56149500D01*
X40761306Y-56149500D01*
X40587341Y-56184103D01*
X40587332Y-56184106D01*
X40423459Y-56251983D01*
X40423446Y-56251990D01*
X40275965Y-56350535D01*
X40275961Y-56350538D01*
X40150538Y-56475961D01*
X40150535Y-56475965D01*
X40051990Y-56623446D01*
X40051983Y-56623459D01*
X39984106Y-56787332D01*
X39984103Y-56787341D01*
X39949500Y-56961304D01*
X38726163Y-56961304D01*
X38709395Y-56920823D01*
X38709390Y-56920814D01*
X38621789Y-56789711D01*
X38621786Y-56789707D01*
X38510292Y-56678213D01*
X38510288Y-56678210D01*
X38379185Y-56590609D01*
X38379172Y-56590602D01*
X38233501Y-56530264D01*
X38233489Y-56530261D01*
X38078845Y-56499500D01*
X38078842Y-56499500D01*
X37921158Y-56499500D01*
X37921155Y-56499500D01*
X37766510Y-56530261D01*
X37766498Y-56530264D01*
X37620827Y-56590602D01*
X37620814Y-56590609D01*
X37489711Y-56678210D01*
X37489707Y-56678213D01*
X37378213Y-56789707D01*
X37378210Y-56789711D01*
X37290609Y-56920814D01*
X37290602Y-56920827D01*
X37230264Y-57066498D01*
X37230261Y-57066510D01*
X37199500Y-57221153D01*
X36387701Y-57221153D01*
X36278845Y-57199500D01*
X36278842Y-57199500D01*
X36121158Y-57199500D01*
X36121155Y-57199500D01*
X35966510Y-57230261D01*
X35966498Y-57230264D01*
X35820827Y-57290602D01*
X35820814Y-57290609D01*
X35689711Y-57378210D01*
X35689707Y-57378213D01*
X35578213Y-57489707D01*
X35578210Y-57489711D01*
X35490609Y-57620814D01*
X35490602Y-57620827D01*
X35430264Y-57766498D01*
X35430261Y-57766510D01*
X35399500Y-57921153D01*
X34642513Y-57921153D01*
X34615896Y-57787341D01*
X34615893Y-57787332D01*
X34607268Y-57766510D01*
X34579942Y-57700538D01*
X34548016Y-57623459D01*
X34548009Y-57623446D01*
X34449464Y-57475965D01*
X34449461Y-57475961D01*
X34324038Y-57350538D01*
X34324034Y-57350535D01*
X34176553Y-57251990D01*
X34176540Y-57251983D01*
X34012667Y-57184106D01*
X34012658Y-57184103D01*
X33838694Y-57149500D01*
X33838691Y-57149500D01*
X33661309Y-57149500D01*
X33661306Y-57149500D01*
X33487341Y-57184103D01*
X33487332Y-57184106D01*
X33323459Y-57251983D01*
X33323446Y-57251990D01*
X33175965Y-57350535D01*
X33175961Y-57350538D01*
X33050538Y-57475961D01*
X33050535Y-57475965D01*
X32951990Y-57623446D01*
X32951983Y-57623459D01*
X32884106Y-57787332D01*
X32884103Y-57787341D01*
X32849500Y-57961304D01*
X32200500Y-57961304D01*
X32200500Y-57911309D01*
X32200500Y-57911306D01*
X32200499Y-57911304D01*
X32165896Y-57737341D01*
X32165893Y-57737332D01*
X32164744Y-57734559D01*
X32141284Y-57677919D01*
X32098016Y-57573459D01*
X32098009Y-57573446D01*
X31999464Y-57425965D01*
X31999461Y-57425961D01*
X31874038Y-57300538D01*
X31874034Y-57300535D01*
X31726553Y-57201990D01*
X31726540Y-57201983D01*
X31562667Y-57134106D01*
X31562658Y-57134103D01*
X31388694Y-57099500D01*
X31388691Y-57099500D01*
X31211309Y-57099500D01*
X31211306Y-57099500D01*
X31037341Y-57134103D01*
X31037332Y-57134106D01*
X30873459Y-57201983D01*
X30873446Y-57201990D01*
X30725965Y-57300535D01*
X30725961Y-57300538D01*
X30600538Y-57425961D01*
X30600535Y-57425965D01*
X30501990Y-57573446D01*
X30501983Y-57573459D01*
X30439061Y-57725371D01*
X30395221Y-57779775D01*
X30328927Y-57801840D01*
X30261227Y-57784561D01*
X30213616Y-57733424D01*
X30200500Y-57677919D01*
X30200500Y-53411304D01*
X30849500Y-53411304D01*
X30849500Y-53588695D01*
X30884103Y-53762658D01*
X30884106Y-53762667D01*
X30951983Y-53926540D01*
X30951990Y-53926553D01*
X31050535Y-54074034D01*
X31050538Y-54074038D01*
X31175961Y-54199461D01*
X31175965Y-54199464D01*
X31323446Y-54298009D01*
X31323459Y-54298016D01*
X31398695Y-54329179D01*
X31487334Y-54365894D01*
X31487336Y-54365894D01*
X31487341Y-54365896D01*
X31574400Y-54383213D01*
X31636311Y-54415598D01*
X31670885Y-54476313D01*
X31667146Y-54546083D01*
X31653311Y-54573720D01*
X31638374Y-54596074D01*
X31638364Y-54596092D01*
X31562950Y-54778160D01*
X31562947Y-54778170D01*
X31524500Y-54971456D01*
X31524500Y-54971459D01*
X31524500Y-55168541D01*
X31524500Y-55168543D01*
X31524499Y-55168543D01*
X31562947Y-55361829D01*
X31562950Y-55361839D01*
X31638364Y-55543907D01*
X31638371Y-55543920D01*
X31747860Y-55707781D01*
X31747863Y-55707785D01*
X31887214Y-55847136D01*
X31887218Y-55847139D01*
X32051079Y-55956628D01*
X32051092Y-55956635D01*
X32233160Y-56032049D01*
X32233165Y-56032051D01*
X32233169Y-56032051D01*
X32233170Y-56032052D01*
X32426456Y-56070500D01*
X32426459Y-56070500D01*
X33423543Y-56070500D01*
X33609545Y-56033501D01*
X33616835Y-56032051D01*
X33798914Y-55956632D01*
X33962782Y-55847139D01*
X34102139Y-55707782D01*
X34211632Y-55543914D01*
X34287051Y-55361835D01*
X34323576Y-55178213D01*
X34325500Y-55168543D01*
X35574499Y-55168543D01*
X35612947Y-55361829D01*
X35612950Y-55361839D01*
X35688364Y-55543907D01*
X35688371Y-55543920D01*
X35797860Y-55707781D01*
X35797863Y-55707785D01*
X35937214Y-55847136D01*
X35937218Y-55847139D01*
X36101079Y-55956628D01*
X36101092Y-55956635D01*
X36283160Y-56032049D01*
X36283165Y-56032051D01*
X36283169Y-56032051D01*
X36283170Y-56032052D01*
X36476456Y-56070500D01*
X36476459Y-56070500D01*
X37773543Y-56070500D01*
X37959545Y-56033501D01*
X37966835Y-56032051D01*
X38148914Y-55956632D01*
X38312782Y-55847139D01*
X38452139Y-55707782D01*
X38561632Y-55543914D01*
X38637051Y-55361835D01*
X38673576Y-55178213D01*
X38675500Y-55168543D01*
X38675500Y-54971456D01*
X38637052Y-54778170D01*
X38637051Y-54778169D01*
X38637051Y-54778165D01*
X38627830Y-54755904D01*
X38561635Y-54596092D01*
X38561628Y-54596079D01*
X38451660Y-54431501D01*
X38449287Y-54423925D01*
X38443878Y-54418115D01*
X38438996Y-54391056D01*
X38430782Y-54364824D01*
X38432565Y-54355417D01*
X38431472Y-54349355D01*
X38440199Y-54315163D01*
X38458429Y-54271153D01*
X40164500Y-54271153D01*
X40164500Y-54428846D01*
X40195261Y-54583489D01*
X40195264Y-54583501D01*
X40255602Y-54729172D01*
X40255609Y-54729185D01*
X40343210Y-54860288D01*
X40343213Y-54860292D01*
X40454707Y-54971786D01*
X40454711Y-54971789D01*
X40585814Y-55059390D01*
X40585827Y-55059397D01*
X40661181Y-55090609D01*
X40731503Y-55119737D01*
X40886153Y-55150499D01*
X40886156Y-55150500D01*
X40886158Y-55150500D01*
X41043844Y-55150500D01*
X41043845Y-55150499D01*
X41198497Y-55119737D01*
X41344179Y-55059394D01*
X41475289Y-54971789D01*
X41586789Y-54860289D01*
X41674394Y-54729179D01*
X41692939Y-54684408D01*
X41736779Y-54630004D01*
X41803073Y-54607939D01*
X41870773Y-54625218D01*
X41918384Y-54676355D01*
X41922061Y-54684408D01*
X41940602Y-54729172D01*
X41940609Y-54729185D01*
X42028210Y-54860288D01*
X42028213Y-54860292D01*
X42139707Y-54971786D01*
X42139711Y-54971789D01*
X42270814Y-55059390D01*
X42270827Y-55059397D01*
X42346181Y-55090609D01*
X42416503Y-55119737D01*
X42571153Y-55150499D01*
X42571156Y-55150500D01*
X42571158Y-55150500D01*
X42728844Y-55150500D01*
X42728845Y-55150499D01*
X42883497Y-55119737D01*
X43029179Y-55059394D01*
X43160289Y-54971789D01*
X43271789Y-54860289D01*
X43271791Y-54860285D01*
X43274646Y-54856808D01*
X43332391Y-54817473D01*
X43402236Y-54815602D01*
X43462004Y-54851788D01*
X43492721Y-54914544D01*
X43494500Y-54935472D01*
X43494500Y-55876000D01*
X43494501Y-55876009D01*
X43506052Y-55983450D01*
X43506054Y-55983462D01*
X43517260Y-56034972D01*
X43551383Y-56137497D01*
X43551386Y-56137503D01*
X43629171Y-56258537D01*
X43629178Y-56258547D01*
X43674923Y-56311340D01*
X43674926Y-56311343D01*
X43674930Y-56311347D01*
X43783664Y-56405567D01*
X43783667Y-56405568D01*
X43783668Y-56405569D01*
X43877925Y-56448616D01*
X43914541Y-56465338D01*
X43981580Y-56485023D01*
X43981584Y-56485024D01*
X44124000Y-56505500D01*
X44124003Y-56505500D01*
X46069169Y-56505500D01*
X46136208Y-56525185D01*
X46181963Y-56577989D01*
X46191907Y-56647147D01*
X46162882Y-56710703D01*
X46116621Y-56744061D01*
X46100827Y-56750602D01*
X46100814Y-56750609D01*
X45969711Y-56838210D01*
X45969707Y-56838213D01*
X45858213Y-56949707D01*
X45858210Y-56949711D01*
X45770609Y-57080814D01*
X45770602Y-57080827D01*
X45710264Y-57226498D01*
X45710261Y-57226510D01*
X45679500Y-57381153D01*
X45679500Y-57538846D01*
X45710261Y-57693489D01*
X45710264Y-57693501D01*
X45770602Y-57839172D01*
X45770609Y-57839185D01*
X45858210Y-57970288D01*
X45858213Y-57970292D01*
X45969707Y-58081786D01*
X45969711Y-58081789D01*
X46100814Y-58169390D01*
X46100827Y-58169397D01*
X46246498Y-58229735D01*
X46246503Y-58229737D01*
X46373714Y-58255041D01*
X46401153Y-58260499D01*
X46401156Y-58260500D01*
X46401158Y-58260500D01*
X46558844Y-58260500D01*
X46558845Y-58260499D01*
X46713497Y-58229737D01*
X46859179Y-58169394D01*
X46990289Y-58081789D01*
X47101789Y-57970289D01*
X47189394Y-57839179D01*
X47249737Y-57693497D01*
X47280500Y-57538842D01*
X47280500Y-57381158D01*
X47280500Y-57381155D01*
X47280499Y-57381153D01*
X47266874Y-57312658D01*
X47249737Y-57226503D01*
X47247521Y-57221153D01*
X47189397Y-57080827D01*
X47189390Y-57080814D01*
X47101789Y-56949711D01*
X47101786Y-56949707D01*
X46990292Y-56838213D01*
X46990288Y-56838210D01*
X46859185Y-56750609D01*
X46859172Y-56750602D01*
X46843379Y-56744061D01*
X46788975Y-56700221D01*
X46766910Y-56633927D01*
X46784189Y-56566227D01*
X46835326Y-56518616D01*
X46890831Y-56505500D01*
X47899189Y-56505500D01*
X47899196Y-56505500D01*
X48027113Y-56489048D01*
X48087825Y-56473168D01*
X48207405Y-56424887D01*
X48302495Y-56351931D01*
X48367666Y-56326740D01*
X48377976Y-56326311D01*
X48438371Y-56326311D01*
X48438372Y-56326310D01*
X48593024Y-56295548D01*
X48685387Y-56257289D01*
X48754852Y-56249821D01*
X48780285Y-56257288D01*
X48850977Y-56286570D01*
X48975539Y-56311347D01*
X49005627Y-56317332D01*
X49005630Y-56317333D01*
X49005632Y-56317333D01*
X49163318Y-56317333D01*
X49163319Y-56317332D01*
X49317971Y-56286570D01*
X49463653Y-56226227D01*
X49463658Y-56226223D01*
X49469026Y-56223355D01*
X49470089Y-56225344D01*
X49527111Y-56207457D01*
X49594501Y-56225906D01*
X49626677Y-56255317D01*
X49626817Y-56255197D01*
X49627851Y-56256390D01*
X49628659Y-56257129D01*
X49629720Y-56258547D01*
X49675465Y-56311340D01*
X49675468Y-56311343D01*
X49675472Y-56311347D01*
X49784206Y-56405567D01*
X49915083Y-56465338D01*
X49945436Y-56474250D01*
X49967665Y-56488536D01*
X49991703Y-56499514D01*
X49996597Y-56507129D01*
X50004213Y-56512024D01*
X50015190Y-56536061D01*
X50029477Y-56558292D01*
X50031376Y-56571504D01*
X50033238Y-56575580D01*
X50034500Y-56593227D01*
X50034500Y-56739902D01*
X50014815Y-56806941D01*
X49998182Y-56827581D01*
X49987554Y-56838210D01*
X49985334Y-56840430D01*
X49924009Y-56873912D01*
X49921848Y-56874362D01*
X49766508Y-56905261D01*
X49766498Y-56905264D01*
X49620827Y-56965602D01*
X49620814Y-56965609D01*
X49489711Y-57053210D01*
X49489707Y-57053213D01*
X49378213Y-57164707D01*
X49378210Y-57164711D01*
X49290609Y-57295814D01*
X49290602Y-57295827D01*
X49230264Y-57441498D01*
X49230261Y-57441510D01*
X49199500Y-57596153D01*
X49199500Y-57753846D01*
X49230261Y-57908489D01*
X49230264Y-57908501D01*
X49290602Y-58054172D01*
X49290609Y-58054185D01*
X49378210Y-58185288D01*
X49378213Y-58185292D01*
X49489707Y-58296786D01*
X49489711Y-58296789D01*
X49620814Y-58384390D01*
X49620827Y-58384397D01*
X49766498Y-58444735D01*
X49766503Y-58444737D01*
X49921153Y-58475499D01*
X49921156Y-58475500D01*
X49921158Y-58475500D01*
X50078844Y-58475500D01*
X50078845Y-58475499D01*
X50233497Y-58444737D01*
X50379179Y-58384394D01*
X50510289Y-58296789D01*
X50621789Y-58185289D01*
X50709394Y-58054179D01*
X50769737Y-57908497D01*
X50793838Y-57787334D01*
X50800638Y-57753150D01*
X50809402Y-57736393D01*
X50813423Y-57717914D01*
X50832168Y-57692872D01*
X50833023Y-57691239D01*
X50834461Y-57689773D01*
X50987822Y-57536413D01*
X51049142Y-57502931D01*
X51118834Y-57507915D01*
X51174767Y-57549787D01*
X51199184Y-57615251D01*
X51199500Y-57624097D01*
X51199500Y-57728846D01*
X51230261Y-57883489D01*
X51230264Y-57883501D01*
X51290602Y-58029172D01*
X51290609Y-58029185D01*
X51378210Y-58160288D01*
X51378213Y-58160292D01*
X51489707Y-58271786D01*
X51489711Y-58271789D01*
X51620814Y-58359390D01*
X51620827Y-58359397D01*
X51766498Y-58419735D01*
X51766503Y-58419737D01*
X51892176Y-58444735D01*
X51921153Y-58450499D01*
X51921156Y-58450500D01*
X51921158Y-58450500D01*
X52078844Y-58450500D01*
X52078845Y-58450499D01*
X52233497Y-58419737D01*
X52379179Y-58359394D01*
X52510289Y-58271789D01*
X52621789Y-58160289D01*
X52709394Y-58029179D01*
X52758219Y-57911304D01*
X57549500Y-57911304D01*
X57549500Y-58088695D01*
X57584103Y-58262658D01*
X57584106Y-58262667D01*
X57651983Y-58426540D01*
X57651990Y-58426553D01*
X57750535Y-58574034D01*
X57750538Y-58574038D01*
X57875961Y-58699461D01*
X57875965Y-58699464D01*
X58023446Y-58798009D01*
X58023459Y-58798016D01*
X58138593Y-58845705D01*
X58187334Y-58865894D01*
X58187336Y-58865894D01*
X58187341Y-58865896D01*
X58361304Y-58900499D01*
X58361307Y-58900500D01*
X58361309Y-58900500D01*
X58538693Y-58900500D01*
X58538694Y-58900499D01*
X58596682Y-58888964D01*
X58712658Y-58865896D01*
X58712661Y-58865894D01*
X58712666Y-58865894D01*
X58876547Y-58798013D01*
X59024035Y-58699464D01*
X59065174Y-58658325D01*
X59126497Y-58624839D01*
X59196188Y-58629823D01*
X59252122Y-58671693D01*
X59262072Y-58689163D01*
X59262736Y-58688809D01*
X59265609Y-58694185D01*
X59353210Y-58825288D01*
X59353213Y-58825292D01*
X59464707Y-58936786D01*
X59464711Y-58936789D01*
X59595814Y-59024390D01*
X59595827Y-59024397D01*
X59741498Y-59084735D01*
X59741503Y-59084737D01*
X59896153Y-59115499D01*
X59896156Y-59115500D01*
X59896158Y-59115500D01*
X60053844Y-59115500D01*
X60053845Y-59115499D01*
X60208497Y-59084737D01*
X60354179Y-59024394D01*
X60485289Y-58936789D01*
X60596789Y-58825289D01*
X60684394Y-58694179D01*
X60692004Y-58675808D01*
X60724049Y-58598443D01*
X60744737Y-58548497D01*
X60775500Y-58393842D01*
X60775500Y-58236158D01*
X60775500Y-58236155D01*
X60775499Y-58236153D01*
X60760409Y-58160292D01*
X60744737Y-58081503D01*
X60744735Y-58081498D01*
X60695336Y-57962236D01*
X60695334Y-57962233D01*
X60684394Y-57935821D01*
X60668012Y-57911304D01*
X62899500Y-57911304D01*
X62899500Y-58088695D01*
X62934103Y-58262658D01*
X62934106Y-58262667D01*
X63001983Y-58426540D01*
X63001990Y-58426553D01*
X63100535Y-58574034D01*
X63100538Y-58574038D01*
X63225961Y-58699461D01*
X63225965Y-58699464D01*
X63373446Y-58798009D01*
X63373459Y-58798016D01*
X63488593Y-58845705D01*
X63537334Y-58865894D01*
X63537336Y-58865894D01*
X63537341Y-58865896D01*
X63711304Y-58900499D01*
X63711307Y-58900500D01*
X63711309Y-58900500D01*
X63888693Y-58900500D01*
X63888694Y-58900499D01*
X63946093Y-58889082D01*
X64068641Y-58864706D01*
X64069078Y-58866907D01*
X64128884Y-58866359D01*
X64188006Y-58903593D01*
X64217613Y-58966880D01*
X64208304Y-59036126D01*
X64198144Y-59054543D01*
X64101990Y-59198446D01*
X64101983Y-59198459D01*
X64034106Y-59362332D01*
X64034103Y-59362341D01*
X63999500Y-59536304D01*
X63999500Y-59713695D01*
X64034103Y-59887658D01*
X64034106Y-59887667D01*
X64101983Y-60051540D01*
X64101990Y-60051553D01*
X64200535Y-60199034D01*
X64200538Y-60199038D01*
X64325961Y-60324461D01*
X64325965Y-60324464D01*
X64473446Y-60423009D01*
X64473459Y-60423016D01*
X64541515Y-60451205D01*
X64637334Y-60490894D01*
X64637336Y-60490894D01*
X64637341Y-60490896D01*
X64811304Y-60525499D01*
X64811307Y-60525500D01*
X64811309Y-60525500D01*
X64988693Y-60525500D01*
X64988694Y-60525499D01*
X65046682Y-60513964D01*
X65162658Y-60490896D01*
X65162661Y-60490894D01*
X65162666Y-60490894D01*
X65326547Y-60423013D01*
X65474035Y-60324464D01*
X65599464Y-60199035D01*
X65698013Y-60051547D01*
X65765894Y-59887666D01*
X65766808Y-59883075D01*
X65797419Y-59729179D01*
X65800500Y-59713691D01*
X65800500Y-59536309D01*
X65800500Y-59536306D01*
X65777123Y-59418784D01*
X65783350Y-59349192D01*
X65826213Y-59294015D01*
X65892103Y-59270770D01*
X65922932Y-59272975D01*
X66061306Y-59300500D01*
X66061309Y-59300500D01*
X66238693Y-59300500D01*
X66238694Y-59300499D01*
X66296682Y-59288964D01*
X66412658Y-59265896D01*
X66412661Y-59265894D01*
X66412666Y-59265894D01*
X66576547Y-59198013D01*
X66724035Y-59099464D01*
X66849464Y-58974035D01*
X66948013Y-58826547D01*
X66948535Y-58825288D01*
X66971545Y-58769735D01*
X67015894Y-58662666D01*
X67016758Y-58658325D01*
X67047075Y-58505908D01*
X67050500Y-58488691D01*
X67050500Y-58311309D01*
X67050500Y-58311306D01*
X67050499Y-58311304D01*
X67015896Y-58137341D01*
X67015893Y-58137332D01*
X66948016Y-57973459D01*
X66948009Y-57973446D01*
X66849464Y-57825965D01*
X66849461Y-57825961D01*
X66724038Y-57700538D01*
X66724034Y-57700535D01*
X66576553Y-57601990D01*
X66576540Y-57601983D01*
X66412667Y-57534106D01*
X66412658Y-57534103D01*
X66238694Y-57499500D01*
X66238691Y-57499500D01*
X66061309Y-57499500D01*
X66061306Y-57499500D01*
X65887341Y-57534103D01*
X65887332Y-57534106D01*
X65723459Y-57601983D01*
X65723446Y-57601990D01*
X65575965Y-57700535D01*
X65575961Y-57700538D01*
X65450538Y-57825961D01*
X65450535Y-57825965D01*
X65351990Y-57973446D01*
X65351983Y-57973459D01*
X65284106Y-58137332D01*
X65284103Y-58137341D01*
X65249500Y-58311304D01*
X65249500Y-58488695D01*
X65272876Y-58606216D01*
X65266649Y-58675808D01*
X65223785Y-58730985D01*
X65157896Y-58754229D01*
X65127068Y-58752024D01*
X64988695Y-58724500D01*
X64988691Y-58724500D01*
X64811309Y-58724500D01*
X64811306Y-58724500D01*
X64631359Y-58760294D01*
X64630923Y-58758104D01*
X64571051Y-58758621D01*
X64511949Y-58721356D01*
X64482376Y-58658053D01*
X64491722Y-58588811D01*
X64501849Y-58570464D01*
X64598013Y-58426547D01*
X64665894Y-58262666D01*
X64671168Y-58236155D01*
X64688964Y-58146682D01*
X64700500Y-58088691D01*
X64700500Y-57911309D01*
X64700500Y-57911306D01*
X64700499Y-57911304D01*
X64665896Y-57737341D01*
X64665893Y-57737332D01*
X64664744Y-57734559D01*
X64641284Y-57677919D01*
X64598016Y-57573459D01*
X64598009Y-57573446D01*
X64499464Y-57425965D01*
X64499461Y-57425961D01*
X64374038Y-57300538D01*
X64374034Y-57300535D01*
X64226553Y-57201990D01*
X64226540Y-57201983D01*
X64062667Y-57134106D01*
X64062658Y-57134103D01*
X63888694Y-57099500D01*
X63888691Y-57099500D01*
X63711309Y-57099500D01*
X63711306Y-57099500D01*
X63537341Y-57134103D01*
X63537332Y-57134106D01*
X63373459Y-57201983D01*
X63373446Y-57201990D01*
X63225965Y-57300535D01*
X63225961Y-57300538D01*
X63100538Y-57425961D01*
X63100535Y-57425965D01*
X63001990Y-57573446D01*
X63001983Y-57573459D01*
X62934106Y-57737332D01*
X62934103Y-57737341D01*
X62899500Y-57911304D01*
X60668012Y-57911304D01*
X60596789Y-57804711D01*
X60596639Y-57804561D01*
X60594929Y-57801829D01*
X60585965Y-57769897D01*
X60576056Y-57738251D01*
X60576562Y-57736403D01*
X60576045Y-57734559D01*
X60585766Y-57702854D01*
X60594540Y-57670871D01*
X60596349Y-57668338D01*
X60596527Y-57667759D01*
X60597124Y-57667253D01*
X60598456Y-57665388D01*
X60598405Y-57665354D01*
X60689390Y-57529185D01*
X60689390Y-57529184D01*
X60689394Y-57529179D01*
X60749737Y-57383497D01*
X60780500Y-57228842D01*
X60780500Y-57071158D01*
X60780500Y-57071155D01*
X60780499Y-57071153D01*
X60771957Y-57028210D01*
X60749737Y-56916503D01*
X60745081Y-56905263D01*
X60689397Y-56770827D01*
X60689390Y-56770814D01*
X60601789Y-56639711D01*
X60601786Y-56639707D01*
X60490292Y-56528213D01*
X60490288Y-56528210D01*
X60359185Y-56440609D01*
X60359172Y-56440602D01*
X60213501Y-56380264D01*
X60213489Y-56380261D01*
X60058845Y-56349500D01*
X60058842Y-56349500D01*
X59901158Y-56349500D01*
X59901155Y-56349500D01*
X59746510Y-56380261D01*
X59746498Y-56380264D01*
X59600827Y-56440602D01*
X59600814Y-56440609D01*
X59469711Y-56528210D01*
X59469707Y-56528213D01*
X59358213Y-56639707D01*
X59358210Y-56639711D01*
X59270609Y-56770814D01*
X59270602Y-56770827D01*
X59210264Y-56916498D01*
X59210261Y-56916510D01*
X59179500Y-57071153D01*
X59179500Y-57172426D01*
X59159815Y-57239465D01*
X59107011Y-57285220D01*
X59037853Y-57295164D01*
X58986609Y-57275528D01*
X58876553Y-57201990D01*
X58876540Y-57201983D01*
X58712667Y-57134106D01*
X58712658Y-57134103D01*
X58538694Y-57099500D01*
X58538691Y-57099500D01*
X58361309Y-57099500D01*
X58361306Y-57099500D01*
X58187341Y-57134103D01*
X58187332Y-57134106D01*
X58023459Y-57201983D01*
X58023446Y-57201990D01*
X57875965Y-57300535D01*
X57875961Y-57300538D01*
X57750538Y-57425961D01*
X57750535Y-57425965D01*
X57651990Y-57573446D01*
X57651983Y-57573459D01*
X57584106Y-57737332D01*
X57584103Y-57737341D01*
X57549500Y-57911304D01*
X52758219Y-57911304D01*
X52769737Y-57883497D01*
X52776795Y-57848016D01*
X52800500Y-57728844D01*
X52800500Y-57571155D01*
X52800499Y-57571153D01*
X52793129Y-57534103D01*
X52769737Y-57416503D01*
X52755097Y-57381158D01*
X52709397Y-57270827D01*
X52709390Y-57270814D01*
X52621789Y-57139711D01*
X52621786Y-57139707D01*
X52510292Y-57028213D01*
X52510288Y-57028210D01*
X52379185Y-56940609D01*
X52379172Y-56940602D01*
X52233501Y-56880264D01*
X52233489Y-56880261D01*
X52078845Y-56849500D01*
X52078842Y-56849500D01*
X51921158Y-56849500D01*
X51921155Y-56849500D01*
X51766510Y-56880261D01*
X51766498Y-56880264D01*
X51620827Y-56940602D01*
X51620814Y-56940609D01*
X51489711Y-57028210D01*
X51489707Y-57028213D01*
X51447182Y-57070739D01*
X51427750Y-57081349D01*
X51411016Y-57095851D01*
X51397681Y-57097768D01*
X51385859Y-57104224D01*
X51363773Y-57102644D01*
X51341858Y-57105796D01*
X51329605Y-57100201D01*
X51316167Y-57099240D01*
X51298442Y-57085971D01*
X51278301Y-57076774D01*
X51271016Y-57065439D01*
X51260234Y-57057368D01*
X51252497Y-57036624D01*
X51240525Y-57017997D01*
X51237372Y-56996075D01*
X51235817Y-56991904D01*
X51235501Y-56983062D01*
X51235501Y-56969735D01*
X51235501Y-56960942D01*
X51235500Y-56960938D01*
X51235500Y-56629500D01*
X51255185Y-56562461D01*
X51307989Y-56516706D01*
X51359500Y-56505500D01*
X54875990Y-56505500D01*
X54876000Y-56505500D01*
X54983456Y-56493947D01*
X55034967Y-56482741D01*
X55069197Y-56471347D01*
X55137497Y-56448616D01*
X55137501Y-56448613D01*
X55137504Y-56448613D01*
X55258543Y-56370825D01*
X55311347Y-56325070D01*
X55405567Y-56216336D01*
X55465338Y-56085459D01*
X55485023Y-56018420D01*
X55485024Y-56018416D01*
X55505500Y-55876000D01*
X55505500Y-54822943D01*
X55508918Y-54811304D01*
X58199500Y-54811304D01*
X58199500Y-54988695D01*
X58234103Y-55162658D01*
X58234106Y-55162667D01*
X58301983Y-55326540D01*
X58301990Y-55326553D01*
X58400535Y-55474034D01*
X58400538Y-55474038D01*
X58525961Y-55599461D01*
X58525965Y-55599464D01*
X58673446Y-55698009D01*
X58673459Y-55698016D01*
X58796363Y-55748923D01*
X58837334Y-55765894D01*
X58837336Y-55765894D01*
X58837341Y-55765896D01*
X59011304Y-55800499D01*
X59011307Y-55800500D01*
X59011309Y-55800500D01*
X59188693Y-55800500D01*
X59188694Y-55800499D01*
X59246682Y-55788964D01*
X59362658Y-55765896D01*
X59362661Y-55765894D01*
X59362666Y-55765894D01*
X59470681Y-55721153D01*
X61699500Y-55721153D01*
X61699500Y-55878846D01*
X61730261Y-56033489D01*
X61730264Y-56033501D01*
X61790602Y-56179172D01*
X61790609Y-56179185D01*
X61878210Y-56310288D01*
X61878213Y-56310292D01*
X61989707Y-56421786D01*
X61989711Y-56421789D01*
X62120814Y-56509390D01*
X62120827Y-56509397D01*
X62185201Y-56536061D01*
X62266503Y-56569737D01*
X62421153Y-56600499D01*
X62421156Y-56600500D01*
X62421158Y-56600500D01*
X62578844Y-56600500D01*
X62578845Y-56600499D01*
X62733497Y-56569737D01*
X62879179Y-56509394D01*
X63010289Y-56421789D01*
X63121789Y-56310289D01*
X63209394Y-56179179D01*
X63269737Y-56033497D01*
X63300500Y-55878842D01*
X63300500Y-55721158D01*
X63300500Y-55721155D01*
X63300499Y-55721153D01*
X63599500Y-55721153D01*
X63599500Y-55878846D01*
X63630261Y-56033489D01*
X63630264Y-56033501D01*
X63690602Y-56179172D01*
X63690609Y-56179185D01*
X63778210Y-56310288D01*
X63778213Y-56310292D01*
X63889707Y-56421786D01*
X63889711Y-56421789D01*
X64020814Y-56509390D01*
X64020827Y-56509397D01*
X64085201Y-56536061D01*
X64166503Y-56569737D01*
X64321153Y-56600499D01*
X64321156Y-56600500D01*
X64321158Y-56600500D01*
X64478844Y-56600500D01*
X64478845Y-56600499D01*
X64633497Y-56569737D01*
X64779179Y-56509394D01*
X64910289Y-56421789D01*
X65021789Y-56310289D01*
X65109394Y-56179179D01*
X65115244Y-56165055D01*
X65133429Y-56121153D01*
X67199500Y-56121153D01*
X67199500Y-56278846D01*
X67230261Y-56433489D01*
X67230264Y-56433501D01*
X67290602Y-56579172D01*
X67290609Y-56579185D01*
X67378210Y-56710288D01*
X67378213Y-56710292D01*
X67489707Y-56821786D01*
X67489711Y-56821789D01*
X67620814Y-56909390D01*
X67620827Y-56909397D01*
X67746156Y-56961309D01*
X67766503Y-56969737D01*
X67898912Y-56996075D01*
X67921153Y-57000499D01*
X67921156Y-57000500D01*
X67921158Y-57000500D01*
X68078844Y-57000500D01*
X68078845Y-57000499D01*
X68233497Y-56969737D01*
X68351592Y-56920821D01*
X68379172Y-56909397D01*
X68379172Y-56909396D01*
X68379179Y-56909394D01*
X68510289Y-56821789D01*
X68621789Y-56710289D01*
X68709394Y-56579179D01*
X68769737Y-56433497D01*
X68800500Y-56278842D01*
X68800500Y-56121158D01*
X68800500Y-56121155D01*
X68800499Y-56121153D01*
X68783061Y-56033489D01*
X68769737Y-55966503D01*
X68733427Y-55878842D01*
X68709397Y-55820827D01*
X68709390Y-55820814D01*
X68621789Y-55689711D01*
X68621786Y-55689707D01*
X68510292Y-55578213D01*
X68510288Y-55578210D01*
X68379185Y-55490609D01*
X68379172Y-55490602D01*
X68233501Y-55430264D01*
X68233489Y-55430261D01*
X68078845Y-55399500D01*
X68078842Y-55399500D01*
X67921158Y-55399500D01*
X67921155Y-55399500D01*
X67766510Y-55430261D01*
X67766498Y-55430264D01*
X67620827Y-55490602D01*
X67620814Y-55490609D01*
X67489711Y-55578210D01*
X67489707Y-55578213D01*
X67378213Y-55689707D01*
X67378210Y-55689711D01*
X67290609Y-55820814D01*
X67290602Y-55820827D01*
X67230264Y-55966498D01*
X67230261Y-55966510D01*
X67199500Y-56121153D01*
X65133429Y-56121153D01*
X65155603Y-56067621D01*
X65155605Y-56067614D01*
X65169737Y-56033497D01*
X65200500Y-55878842D01*
X65200500Y-55721158D01*
X65200500Y-55721155D01*
X65200499Y-55721153D01*
X65176293Y-55599464D01*
X65169737Y-55566503D01*
X65160383Y-55543920D01*
X65109397Y-55420827D01*
X65109390Y-55420814D01*
X65021789Y-55289711D01*
X65021786Y-55289707D01*
X64910292Y-55178213D01*
X64910288Y-55178210D01*
X64779185Y-55090609D01*
X64779172Y-55090602D01*
X64633501Y-55030264D01*
X64633489Y-55030261D01*
X64478845Y-54999500D01*
X64478842Y-54999500D01*
X64321158Y-54999500D01*
X64321155Y-54999500D01*
X64166510Y-55030261D01*
X64166498Y-55030264D01*
X64020827Y-55090602D01*
X64020814Y-55090609D01*
X63889711Y-55178210D01*
X63889707Y-55178213D01*
X63778213Y-55289707D01*
X63778210Y-55289711D01*
X63690609Y-55420814D01*
X63690602Y-55420827D01*
X63630264Y-55566498D01*
X63630261Y-55566510D01*
X63599500Y-55721153D01*
X63300499Y-55721153D01*
X63276293Y-55599464D01*
X63269737Y-55566503D01*
X63260383Y-55543920D01*
X63209397Y-55420827D01*
X63209390Y-55420814D01*
X63121789Y-55289711D01*
X63121786Y-55289707D01*
X63010292Y-55178213D01*
X63010288Y-55178210D01*
X62879185Y-55090609D01*
X62879172Y-55090602D01*
X62733501Y-55030264D01*
X62733489Y-55030261D01*
X62578845Y-54999500D01*
X62578842Y-54999500D01*
X62421158Y-54999500D01*
X62421155Y-54999500D01*
X62266510Y-55030261D01*
X62266498Y-55030264D01*
X62120827Y-55090602D01*
X62120814Y-55090609D01*
X61989711Y-55178210D01*
X61989707Y-55178213D01*
X61878213Y-55289707D01*
X61878210Y-55289711D01*
X61790609Y-55420814D01*
X61790602Y-55420827D01*
X61730264Y-55566498D01*
X61730261Y-55566510D01*
X61699500Y-55721153D01*
X59470681Y-55721153D01*
X59526547Y-55698013D01*
X59674035Y-55599464D01*
X59799464Y-55474035D01*
X59898013Y-55326547D01*
X59965894Y-55162666D01*
X59968315Y-55150499D01*
X60000499Y-54988695D01*
X60000500Y-54988693D01*
X60000500Y-54811306D01*
X60000499Y-54811304D01*
X59965896Y-54637341D01*
X59965893Y-54637332D01*
X59898016Y-54473459D01*
X59898009Y-54473446D01*
X59799464Y-54325965D01*
X59799461Y-54325961D01*
X59674038Y-54200538D01*
X59674034Y-54200535D01*
X59526553Y-54101990D01*
X59526540Y-54101983D01*
X59362667Y-54034106D01*
X59362658Y-54034103D01*
X59188694Y-53999500D01*
X59188691Y-53999500D01*
X59011309Y-53999500D01*
X59011306Y-53999500D01*
X58837341Y-54034103D01*
X58837332Y-54034106D01*
X58673459Y-54101983D01*
X58673446Y-54101990D01*
X58525965Y-54200535D01*
X58525961Y-54200538D01*
X58400538Y-54325961D01*
X58400535Y-54325965D01*
X58301990Y-54473446D01*
X58301983Y-54473459D01*
X58234106Y-54637332D01*
X58234103Y-54637341D01*
X58199500Y-54811304D01*
X55508918Y-54811304D01*
X55514789Y-54791308D01*
X55523034Y-54759375D01*
X55524751Y-54757380D01*
X55525185Y-54755904D01*
X55545256Y-54731955D01*
X55551560Y-54726117D01*
X55554035Y-54724464D01*
X55679464Y-54599035D01*
X55778013Y-54451547D01*
X55845894Y-54287666D01*
X55859829Y-54217613D01*
X55874351Y-54144602D01*
X55880500Y-54113691D01*
X55880500Y-53936309D01*
X55880500Y-53936306D01*
X55880499Y-53936304D01*
X55845896Y-53762341D01*
X55845893Y-53762332D01*
X55778016Y-53598459D01*
X55778009Y-53598446D01*
X55679465Y-53450966D01*
X55623533Y-53395034D01*
X55554035Y-53325536D01*
X55554031Y-53325533D01*
X55554029Y-53325531D01*
X55550826Y-53322902D01*
X55511497Y-53265152D01*
X55505500Y-53227056D01*
X55505500Y-51969955D01*
X55525185Y-51902916D01*
X55526398Y-51901064D01*
X55592894Y-51801547D01*
X55660775Y-51637666D01*
X55669640Y-51593102D01*
X55695380Y-51463695D01*
X55695381Y-51463693D01*
X55695381Y-51421153D01*
X56209500Y-51421153D01*
X56209500Y-51578846D01*
X56240261Y-51733489D01*
X56240264Y-51733501D01*
X56300602Y-51879172D01*
X56300609Y-51879185D01*
X56335304Y-51931109D01*
X56356182Y-51997786D01*
X56337698Y-52065167D01*
X56335304Y-52068891D01*
X56300609Y-52120814D01*
X56300602Y-52120827D01*
X56240264Y-52266498D01*
X56240261Y-52266510D01*
X56209500Y-52421153D01*
X56209500Y-52578846D01*
X56240261Y-52733489D01*
X56240264Y-52733501D01*
X56300602Y-52879172D01*
X56300609Y-52879185D01*
X56388210Y-53010288D01*
X56388213Y-53010292D01*
X56499707Y-53121786D01*
X56499711Y-53121789D01*
X56630814Y-53209390D01*
X56630827Y-53209397D01*
X56776498Y-53269735D01*
X56776503Y-53269737D01*
X56931153Y-53300499D01*
X56931156Y-53300500D01*
X56931158Y-53300500D01*
X57088844Y-53300500D01*
X57088845Y-53300499D01*
X57243497Y-53269737D01*
X57389179Y-53209394D01*
X57520289Y-53121789D01*
X57631789Y-53010289D01*
X57677883Y-52941304D01*
X59224500Y-52941304D01*
X59224500Y-53118695D01*
X59259103Y-53292658D01*
X59259106Y-53292667D01*
X59326983Y-53456540D01*
X59326990Y-53456553D01*
X59425535Y-53604034D01*
X59425538Y-53604038D01*
X59550961Y-53729461D01*
X59550965Y-53729464D01*
X59698446Y-53828009D01*
X59698459Y-53828016D01*
X59776375Y-53860289D01*
X59862334Y-53895894D01*
X59862336Y-53895894D01*
X59862341Y-53895896D01*
X60036304Y-53930499D01*
X60036307Y-53930500D01*
X60036309Y-53930500D01*
X60213693Y-53930500D01*
X60213694Y-53930499D01*
X60271682Y-53918964D01*
X60387658Y-53895896D01*
X60387661Y-53895894D01*
X60387666Y-53895894D01*
X60527535Y-53837958D01*
X60531529Y-53836304D01*
X62549500Y-53836304D01*
X62549500Y-54013695D01*
X62584103Y-54187658D01*
X62584106Y-54187667D01*
X62651983Y-54351540D01*
X62651990Y-54351553D01*
X62750535Y-54499034D01*
X62750538Y-54499038D01*
X62875961Y-54624461D01*
X62875965Y-54624464D01*
X63023446Y-54723009D01*
X63023459Y-54723016D01*
X63146363Y-54773923D01*
X63187334Y-54790894D01*
X63187336Y-54790894D01*
X63187341Y-54790896D01*
X63361304Y-54825499D01*
X63361307Y-54825500D01*
X63361309Y-54825500D01*
X63538693Y-54825500D01*
X63538694Y-54825499D01*
X63610059Y-54811304D01*
X63712658Y-54790896D01*
X63712661Y-54790894D01*
X63712666Y-54790894D01*
X63876547Y-54723013D01*
X64024035Y-54624464D01*
X64149464Y-54499035D01*
X64248013Y-54351547D01*
X64315894Y-54187666D01*
X64316724Y-54183497D01*
X64344373Y-54044492D01*
X64350500Y-54013691D01*
X64350500Y-53836309D01*
X64350500Y-53836306D01*
X64350499Y-53836304D01*
X64315896Y-53662341D01*
X64315893Y-53662332D01*
X64248016Y-53498459D01*
X64248009Y-53498446D01*
X64149464Y-53350965D01*
X64149461Y-53350961D01*
X64024038Y-53225538D01*
X64024034Y-53225535D01*
X63876553Y-53126990D01*
X63876540Y-53126983D01*
X63712667Y-53059106D01*
X63712658Y-53059103D01*
X63538694Y-53024500D01*
X63538691Y-53024500D01*
X63361309Y-53024500D01*
X63361306Y-53024500D01*
X63187341Y-53059103D01*
X63187332Y-53059106D01*
X63023459Y-53126983D01*
X63023446Y-53126990D01*
X62875965Y-53225535D01*
X62875961Y-53225538D01*
X62750538Y-53350961D01*
X62750535Y-53350965D01*
X62651990Y-53498446D01*
X62651983Y-53498459D01*
X62584106Y-53662332D01*
X62584103Y-53662341D01*
X62549500Y-53836304D01*
X60531529Y-53836304D01*
X60551540Y-53828016D01*
X60551540Y-53828015D01*
X60551547Y-53828013D01*
X60699035Y-53729464D01*
X60824464Y-53604035D01*
X60923013Y-53456547D01*
X60990894Y-53292666D01*
X60995173Y-53271158D01*
X61016388Y-53164500D01*
X61025500Y-53118691D01*
X61025500Y-53082663D01*
X61045185Y-53015624D01*
X61097989Y-52969869D01*
X61167147Y-52959925D01*
X61196952Y-52968102D01*
X61203531Y-52970827D01*
X61312334Y-53015894D01*
X61312336Y-53015894D01*
X61312341Y-53015896D01*
X61486304Y-53050499D01*
X61486307Y-53050500D01*
X61486309Y-53050500D01*
X61663693Y-53050500D01*
X61663694Y-53050499D01*
X61721682Y-53038964D01*
X61837658Y-53015896D01*
X61837661Y-53015894D01*
X61837666Y-53015894D01*
X62001547Y-52948013D01*
X62149035Y-52849464D01*
X62274464Y-52724035D01*
X62373013Y-52576547D01*
X62374054Y-52574035D01*
X62398820Y-52514242D01*
X62440894Y-52412666D01*
X62475500Y-52238691D01*
X62475500Y-52061309D01*
X62475500Y-52061306D01*
X62475499Y-52061304D01*
X62449264Y-51929408D01*
X62445662Y-51911304D01*
X67099500Y-51911304D01*
X67099500Y-52088695D01*
X67134103Y-52262658D01*
X67134106Y-52262667D01*
X67201983Y-52426540D01*
X67201990Y-52426553D01*
X67300535Y-52574034D01*
X67300538Y-52574038D01*
X67425961Y-52699461D01*
X67425965Y-52699464D01*
X67573446Y-52798009D01*
X67573459Y-52798016D01*
X67674112Y-52839707D01*
X67737334Y-52865894D01*
X67737336Y-52865894D01*
X67737341Y-52865896D01*
X67911304Y-52900499D01*
X67911307Y-52900500D01*
X67911309Y-52900500D01*
X68088693Y-52900500D01*
X68088694Y-52900499D01*
X68146682Y-52888964D01*
X68262658Y-52865896D01*
X68262661Y-52865894D01*
X68262666Y-52865894D01*
X68426547Y-52798013D01*
X68574035Y-52699464D01*
X68699464Y-52574035D01*
X68798013Y-52426547D01*
X68865894Y-52262666D01*
X68871997Y-52231987D01*
X68888964Y-52146682D01*
X68900500Y-52088691D01*
X68900500Y-51911309D01*
X68900500Y-51911306D01*
X68900499Y-51911304D01*
X68865896Y-51737341D01*
X68865893Y-51737332D01*
X68798016Y-51573459D01*
X68798009Y-51573446D01*
X68699464Y-51425965D01*
X68699461Y-51425961D01*
X68574038Y-51300538D01*
X68574034Y-51300535D01*
X68426553Y-51201990D01*
X68426540Y-51201983D01*
X68262667Y-51134106D01*
X68262658Y-51134103D01*
X68088694Y-51099500D01*
X68088691Y-51099500D01*
X67911309Y-51099500D01*
X67911306Y-51099500D01*
X67737341Y-51134103D01*
X67737332Y-51134106D01*
X67573459Y-51201983D01*
X67573446Y-51201990D01*
X67425965Y-51300535D01*
X67425961Y-51300538D01*
X67300538Y-51425961D01*
X67300535Y-51425965D01*
X67201990Y-51573446D01*
X67201983Y-51573459D01*
X67134106Y-51737332D01*
X67134103Y-51737341D01*
X67099500Y-51911304D01*
X62445662Y-51911304D01*
X62440895Y-51887340D01*
X62440894Y-51887334D01*
X62398431Y-51784817D01*
X62373016Y-51723459D01*
X62373009Y-51723446D01*
X62274464Y-51575965D01*
X62274461Y-51575961D01*
X62149038Y-51450538D01*
X62149034Y-51450535D01*
X62001553Y-51351990D01*
X62001541Y-51351983D01*
X61911192Y-51314561D01*
X61856788Y-51270721D01*
X61834723Y-51204427D01*
X61852002Y-51136727D01*
X61903139Y-51089116D01*
X61911192Y-51085439D01*
X62001541Y-51048016D01*
X62001544Y-51048014D01*
X62001547Y-51048013D01*
X62149035Y-50949464D01*
X62274464Y-50824035D01*
X62373013Y-50676547D01*
X62440894Y-50512666D01*
X62443315Y-50500499D01*
X62475499Y-50338695D01*
X62475500Y-50338693D01*
X62475500Y-50161306D01*
X62475499Y-50161304D01*
X62440896Y-49987341D01*
X62440893Y-49987332D01*
X62373016Y-49823459D01*
X62373009Y-49823446D01*
X62274464Y-49675965D01*
X62274461Y-49675961D01*
X62232937Y-49634437D01*
X62199452Y-49573114D01*
X62204436Y-49503422D01*
X62246308Y-49447489D01*
X62311772Y-49423072D01*
X62344812Y-49425139D01*
X62347725Y-49425719D01*
X62347728Y-49425719D01*
X62505411Y-49425719D01*
X62505412Y-49425718D01*
X62660064Y-49394956D01*
X62799182Y-49337332D01*
X62805739Y-49334616D01*
X62805739Y-49334615D01*
X62805746Y-49334613D01*
X62936856Y-49247008D01*
X63048356Y-49135508D01*
X63135961Y-49004398D01*
X63196304Y-48858716D01*
X63227067Y-48704061D01*
X63227067Y-48546377D01*
X63227067Y-48546374D01*
X63227066Y-48546372D01*
X63213773Y-48479546D01*
X63196304Y-48391722D01*
X63185458Y-48365538D01*
X63135964Y-48246046D01*
X63135957Y-48246033D01*
X63048356Y-48114930D01*
X63048353Y-48114926D01*
X62936859Y-48003432D01*
X62936855Y-48003429D01*
X62805752Y-47915828D01*
X62805739Y-47915821D01*
X62660068Y-47855483D01*
X62660056Y-47855480D01*
X62505412Y-47824719D01*
X62505409Y-47824719D01*
X62347725Y-47824719D01*
X62347722Y-47824719D01*
X62193077Y-47855480D01*
X62193065Y-47855483D01*
X62047394Y-47915821D01*
X62047381Y-47915828D01*
X61916278Y-48003429D01*
X61916274Y-48003432D01*
X61804780Y-48114926D01*
X61804777Y-48114930D01*
X61717176Y-48246033D01*
X61717169Y-48246046D01*
X61656831Y-48391717D01*
X61656828Y-48391729D01*
X61626067Y-48546372D01*
X61626067Y-48704065D01*
X61656828Y-48858708D01*
X61656831Y-48858720D01*
X61717169Y-49004391D01*
X61717176Y-49004404D01*
X61804777Y-49135507D01*
X61804780Y-49135511D01*
X61817889Y-49148620D01*
X61851374Y-49209943D01*
X61846390Y-49279635D01*
X61804518Y-49335568D01*
X61739054Y-49359985D01*
X61706018Y-49357919D01*
X61663691Y-49349500D01*
X61486309Y-49349500D01*
X61486306Y-49349500D01*
X61312341Y-49384103D01*
X61312332Y-49384106D01*
X61148459Y-49451983D01*
X61148446Y-49451990D01*
X61000965Y-49550535D01*
X61000961Y-49550538D01*
X60875538Y-49675961D01*
X60875535Y-49675965D01*
X60776990Y-49823446D01*
X60776983Y-49823459D01*
X60709106Y-49987332D01*
X60709103Y-49987341D01*
X60674500Y-50161304D01*
X60674500Y-50338695D01*
X60709103Y-50512658D01*
X60709106Y-50512667D01*
X60776983Y-50676540D01*
X60776990Y-50676553D01*
X60875535Y-50824034D01*
X60875538Y-50824038D01*
X61000961Y-50949461D01*
X61000965Y-50949464D01*
X61148446Y-51048009D01*
X61148459Y-51048016D01*
X61238807Y-51085439D01*
X61293211Y-51129280D01*
X61315276Y-51195574D01*
X61297997Y-51263273D01*
X61246860Y-51310884D01*
X61238807Y-51314561D01*
X61148459Y-51351983D01*
X61148446Y-51351990D01*
X61000965Y-51450535D01*
X61000961Y-51450538D01*
X60875538Y-51575961D01*
X60875535Y-51575965D01*
X60776990Y-51723446D01*
X60776983Y-51723459D01*
X60709106Y-51887332D01*
X60709103Y-51887341D01*
X60674500Y-52061304D01*
X60674500Y-52097336D01*
X60654815Y-52164375D01*
X60602011Y-52210130D01*
X60532853Y-52220074D01*
X60503049Y-52211898D01*
X60444038Y-52187456D01*
X60387666Y-52164106D01*
X60387662Y-52164105D01*
X60387658Y-52164103D01*
X60213694Y-52129500D01*
X60213691Y-52129500D01*
X60036309Y-52129500D01*
X60036306Y-52129500D01*
X59862341Y-52164103D01*
X59862332Y-52164106D01*
X59698459Y-52231983D01*
X59698446Y-52231990D01*
X59550965Y-52330535D01*
X59550961Y-52330538D01*
X59425538Y-52455961D01*
X59425535Y-52455965D01*
X59326990Y-52603446D01*
X59326983Y-52603459D01*
X59259106Y-52767332D01*
X59259103Y-52767341D01*
X59224500Y-52941304D01*
X57677883Y-52941304D01*
X57719394Y-52879179D01*
X57779737Y-52733497D01*
X57810500Y-52578842D01*
X57810500Y-52421158D01*
X57810500Y-52421155D01*
X57810499Y-52421153D01*
X57791513Y-52325707D01*
X57779737Y-52266503D01*
X57778144Y-52262658D01*
X57719396Y-52120825D01*
X57719394Y-52120822D01*
X57719394Y-52120821D01*
X57684694Y-52068889D01*
X57663816Y-52002215D01*
X57682300Y-51934835D01*
X57684676Y-51931136D01*
X57719394Y-51879179D01*
X57779737Y-51733497D01*
X57810500Y-51578842D01*
X57810500Y-51421158D01*
X57810500Y-51421155D01*
X57810499Y-51421153D01*
X57805149Y-51394256D01*
X57779737Y-51266503D01*
X57756083Y-51209396D01*
X57719397Y-51120827D01*
X57719390Y-51120814D01*
X57631789Y-50989711D01*
X57631786Y-50989707D01*
X57520292Y-50878213D01*
X57520288Y-50878210D01*
X57389185Y-50790609D01*
X57389172Y-50790602D01*
X57243501Y-50730264D01*
X57243489Y-50730261D01*
X57088845Y-50699500D01*
X57088842Y-50699500D01*
X56931158Y-50699500D01*
X56931155Y-50699500D01*
X56776510Y-50730261D01*
X56776498Y-50730264D01*
X56630827Y-50790602D01*
X56630814Y-50790609D01*
X56499711Y-50878210D01*
X56499707Y-50878213D01*
X56388213Y-50989707D01*
X56388210Y-50989711D01*
X56300609Y-51120814D01*
X56300602Y-51120827D01*
X56240264Y-51266498D01*
X56240261Y-51266510D01*
X56209500Y-51421153D01*
X55695381Y-51421153D01*
X55695381Y-51286306D01*
X55695380Y-51286304D01*
X55660777Y-51112341D01*
X55660774Y-51112332D01*
X55638952Y-51059648D01*
X55592894Y-50948453D01*
X55592892Y-50948451D01*
X55592892Y-50948449D01*
X55526398Y-50848934D01*
X55505520Y-50782256D01*
X55505500Y-50780043D01*
X55505500Y-50089500D01*
X55525185Y-50022461D01*
X55577989Y-49976706D01*
X55629500Y-49965500D01*
X55663693Y-49965500D01*
X55663694Y-49965499D01*
X55721682Y-49953964D01*
X55837658Y-49930896D01*
X55837661Y-49930894D01*
X55837666Y-49930894D01*
X56001547Y-49863013D01*
X56149035Y-49764464D01*
X56274464Y-49639035D01*
X56373013Y-49491547D01*
X56440894Y-49327666D01*
X56450221Y-49280779D01*
X56475499Y-49153695D01*
X56475500Y-49153693D01*
X56475500Y-48976306D01*
X56475499Y-48976304D01*
X56440896Y-48802341D01*
X56440893Y-48802332D01*
X56440751Y-48801990D01*
X56400189Y-48704063D01*
X56373016Y-48638459D01*
X56373009Y-48638446D01*
X56274464Y-48490965D01*
X56274461Y-48490961D01*
X56149038Y-48365538D01*
X56149034Y-48365535D01*
X56001553Y-48266990D01*
X56001540Y-48266983D01*
X55837667Y-48199106D01*
X55837658Y-48199103D01*
X55663694Y-48164500D01*
X55663691Y-48164500D01*
X55629500Y-48164500D01*
X55562461Y-48144815D01*
X55516706Y-48092011D01*
X55505500Y-48040500D01*
X55505500Y-45711304D01*
X56459500Y-45711304D01*
X56459500Y-45888695D01*
X56494103Y-46062658D01*
X56494106Y-46062667D01*
X56561983Y-46226540D01*
X56561990Y-46226553D01*
X56660535Y-46374034D01*
X56660538Y-46374038D01*
X56785961Y-46499461D01*
X56785965Y-46499464D01*
X56933446Y-46598009D01*
X56933459Y-46598016D01*
X57056363Y-46648923D01*
X57097334Y-46665894D01*
X57097336Y-46665894D01*
X57097341Y-46665896D01*
X57271304Y-46700499D01*
X57271307Y-46700500D01*
X57271309Y-46700500D01*
X57448693Y-46700500D01*
X57448694Y-46700499D01*
X57506682Y-46688964D01*
X57622658Y-46665896D01*
X57622661Y-46665894D01*
X57622666Y-46665894D01*
X57786547Y-46598013D01*
X57934035Y-46499464D01*
X58059464Y-46374035D01*
X58158013Y-46226547D01*
X58225894Y-46062666D01*
X58230801Y-46038000D01*
X58260499Y-45888695D01*
X58260500Y-45888693D01*
X58260500Y-45711306D01*
X58260499Y-45711304D01*
X58225896Y-45537341D01*
X58225893Y-45537332D01*
X58158016Y-45373459D01*
X58158009Y-45373446D01*
X58059464Y-45225965D01*
X58059461Y-45225961D01*
X57934038Y-45100538D01*
X57934034Y-45100535D01*
X57786553Y-45001990D01*
X57786540Y-45001983D01*
X57622667Y-44934106D01*
X57622658Y-44934103D01*
X57448694Y-44899500D01*
X57448691Y-44899500D01*
X57271309Y-44899500D01*
X57271306Y-44899500D01*
X57097341Y-44934103D01*
X57097332Y-44934106D01*
X56933459Y-45001983D01*
X56933446Y-45001990D01*
X56785965Y-45100535D01*
X56785961Y-45100538D01*
X56660538Y-45225961D01*
X56660535Y-45225965D01*
X56561990Y-45373446D01*
X56561983Y-45373459D01*
X56494106Y-45537332D01*
X56494103Y-45537341D01*
X56459500Y-45711304D01*
X55505500Y-45711304D01*
X55505500Y-45124010D01*
X55505500Y-45124000D01*
X55493947Y-45016544D01*
X55482741Y-44965033D01*
X55482637Y-44964722D01*
X55448616Y-44862502D01*
X55448613Y-44862496D01*
X55403422Y-44792179D01*
X55370825Y-44741457D01*
X55358481Y-44727211D01*
X55325076Y-44688659D01*
X55325072Y-44688656D01*
X55325070Y-44688653D01*
X55216336Y-44594433D01*
X55216333Y-44594431D01*
X55216331Y-44594430D01*
X55085465Y-44534664D01*
X55085460Y-44534662D01*
X55085459Y-44534662D01*
X55018420Y-44514977D01*
X55018422Y-44514977D01*
X55018417Y-44514976D01*
X54970944Y-44508150D01*
X54876000Y-44494500D01*
X54875998Y-44494500D01*
X51455490Y-44494500D01*
X51388451Y-44474815D01*
X51342696Y-44422011D01*
X51332752Y-44352853D01*
X51340929Y-44323048D01*
X51369735Y-44253501D01*
X51369737Y-44253497D01*
X51400500Y-44098842D01*
X51400500Y-43941158D01*
X51400500Y-43941155D01*
X51400499Y-43941153D01*
X51388690Y-43881786D01*
X51369737Y-43786503D01*
X51358879Y-43760289D01*
X51309397Y-43640827D01*
X51309390Y-43640814D01*
X51221789Y-43509711D01*
X51221786Y-43509707D01*
X51110292Y-43398213D01*
X51110288Y-43398210D01*
X50979185Y-43310609D01*
X50979172Y-43310602D01*
X50833501Y-43250264D01*
X50833489Y-43250261D01*
X50678845Y-43219500D01*
X50678842Y-43219500D01*
X50521158Y-43219500D01*
X50521155Y-43219500D01*
X50366510Y-43250261D01*
X50366498Y-43250264D01*
X50220828Y-43310602D01*
X50220817Y-43310608D01*
X50191339Y-43330305D01*
X50124661Y-43351182D01*
X50057281Y-43332697D01*
X50053558Y-43330304D01*
X49979185Y-43280609D01*
X49979172Y-43280602D01*
X49833501Y-43220264D01*
X49833489Y-43220261D01*
X49678845Y-43189500D01*
X49678842Y-43189500D01*
X49521158Y-43189500D01*
X49521155Y-43189500D01*
X49366510Y-43220261D01*
X49366498Y-43220264D01*
X49220827Y-43280602D01*
X49220814Y-43280609D01*
X49168891Y-43315304D01*
X49102214Y-43336182D01*
X49034833Y-43317698D01*
X49031109Y-43315304D01*
X48979185Y-43280609D01*
X48979172Y-43280602D01*
X48833501Y-43220264D01*
X48833489Y-43220261D01*
X48678845Y-43189500D01*
X48678842Y-43189500D01*
X48521158Y-43189500D01*
X48521155Y-43189500D01*
X48366510Y-43220261D01*
X48366498Y-43220264D01*
X48220827Y-43280602D01*
X48220814Y-43280609D01*
X48089711Y-43368210D01*
X48089707Y-43368213D01*
X47978213Y-43479707D01*
X47978210Y-43479711D01*
X47893079Y-43607118D01*
X47839466Y-43651923D01*
X47770141Y-43660630D01*
X47707114Y-43630475D01*
X47686875Y-43607118D01*
X47621789Y-43509711D01*
X47621786Y-43509707D01*
X47510292Y-43398213D01*
X47510288Y-43398210D01*
X47379185Y-43310609D01*
X47379172Y-43310602D01*
X47239772Y-43252862D01*
X47185368Y-43209022D01*
X47163303Y-43142727D01*
X47165607Y-43114109D01*
X47200500Y-42938693D01*
X47200500Y-42761306D01*
X47200499Y-42761304D01*
X47165896Y-42587341D01*
X47165893Y-42587332D01*
X47165767Y-42587029D01*
X47129312Y-42499017D01*
X47098016Y-42423459D01*
X47098009Y-42423446D01*
X46999463Y-42275963D01*
X46929804Y-42206304D01*
X60149500Y-42206304D01*
X60149500Y-42383695D01*
X60184103Y-42557658D01*
X60184106Y-42557667D01*
X60251983Y-42721540D01*
X60251990Y-42721553D01*
X60350535Y-42869034D01*
X60350538Y-42869038D01*
X60475961Y-42994461D01*
X60475965Y-42994464D01*
X60623446Y-43093009D01*
X60623459Y-43093016D01*
X60746363Y-43143923D01*
X60787334Y-43160894D01*
X60787336Y-43160894D01*
X60787341Y-43160896D01*
X60961304Y-43195499D01*
X60961307Y-43195500D01*
X60961309Y-43195500D01*
X61138693Y-43195500D01*
X61138694Y-43195499D01*
X61210818Y-43181153D01*
X61312658Y-43160896D01*
X61312661Y-43160894D01*
X61312666Y-43160894D01*
X61476547Y-43093013D01*
X61624035Y-42994464D01*
X61749464Y-42869035D01*
X61848013Y-42721547D01*
X61915894Y-42557666D01*
X61917299Y-42550607D01*
X61942592Y-42423446D01*
X61950500Y-42383691D01*
X61950500Y-42206309D01*
X61950500Y-42206306D01*
X61950499Y-42206304D01*
X61915896Y-42032341D01*
X61915893Y-42032332D01*
X61848016Y-41868459D01*
X61848009Y-41868446D01*
X61749464Y-41720965D01*
X61749461Y-41720961D01*
X61624038Y-41595538D01*
X61624034Y-41595535D01*
X61476553Y-41496990D01*
X61476540Y-41496983D01*
X61312667Y-41429106D01*
X61312658Y-41429103D01*
X61138694Y-41394500D01*
X61138691Y-41394500D01*
X60961309Y-41394500D01*
X60961306Y-41394500D01*
X60787341Y-41429103D01*
X60787332Y-41429106D01*
X60623459Y-41496983D01*
X60623446Y-41496990D01*
X60475965Y-41595535D01*
X60475961Y-41595538D01*
X60350538Y-41720961D01*
X60350535Y-41720965D01*
X60251990Y-41868446D01*
X60251983Y-41868459D01*
X60184106Y-42032332D01*
X60184103Y-42032341D01*
X60149500Y-42206304D01*
X46929804Y-42206304D01*
X46874038Y-42150538D01*
X46874034Y-42150535D01*
X46726553Y-42051990D01*
X46726540Y-42051983D01*
X46562667Y-41984106D01*
X46562658Y-41984103D01*
X46388694Y-41949500D01*
X46388691Y-41949500D01*
X46211309Y-41949500D01*
X46211306Y-41949500D01*
X46037341Y-41984103D01*
X46037332Y-41984106D01*
X45873459Y-42051983D01*
X45873446Y-42051990D01*
X45725965Y-42150535D01*
X45725961Y-42150538D01*
X45600538Y-42275961D01*
X45573081Y-42317054D01*
X45519468Y-42361858D01*
X45450143Y-42370565D01*
X45387116Y-42340410D01*
X45366877Y-42317053D01*
X45281789Y-42189711D01*
X45281786Y-42189707D01*
X45170292Y-42078213D01*
X45170288Y-42078210D01*
X45039185Y-41990609D01*
X45039172Y-41990602D01*
X44893501Y-41930264D01*
X44893489Y-41930261D01*
X44738845Y-41899500D01*
X44738842Y-41899500D01*
X44581158Y-41899500D01*
X44581155Y-41899500D01*
X44426510Y-41930261D01*
X44426498Y-41930264D01*
X44280827Y-41990602D01*
X44280814Y-41990609D01*
X44149711Y-42078210D01*
X44149707Y-42078213D01*
X44038213Y-42189707D01*
X44038210Y-42189711D01*
X43950609Y-42320814D01*
X43950602Y-42320827D01*
X43890264Y-42466498D01*
X43890261Y-42466510D01*
X43859500Y-42621153D01*
X43859500Y-42778846D01*
X43890261Y-42933489D01*
X43890264Y-42933501D01*
X43950602Y-43079172D01*
X43950609Y-43079185D01*
X44038210Y-43210288D01*
X44038213Y-43210292D01*
X44149707Y-43321786D01*
X44149711Y-43321789D01*
X44280814Y-43409390D01*
X44280827Y-43409397D01*
X44417225Y-43465894D01*
X44426503Y-43469737D01*
X44545912Y-43493489D01*
X44581153Y-43500499D01*
X44581156Y-43500500D01*
X44581158Y-43500500D01*
X44738844Y-43500500D01*
X44738845Y-43500499D01*
X44893497Y-43469737D01*
X45039179Y-43409394D01*
X45170289Y-43321789D01*
X45215531Y-43276547D01*
X45286097Y-43205982D01*
X45287926Y-43207811D01*
X45336330Y-43174806D01*
X45406174Y-43172900D01*
X45465960Y-43209058D01*
X45489056Y-43245330D01*
X45501987Y-43276547D01*
X45501988Y-43276549D01*
X45501990Y-43276553D01*
X45600535Y-43424034D01*
X45600538Y-43424038D01*
X45725961Y-43549461D01*
X45725965Y-43549464D01*
X45873446Y-43648009D01*
X45873459Y-43648016D01*
X45903913Y-43660630D01*
X46037334Y-43715894D01*
X46037336Y-43715894D01*
X46037341Y-43715896D01*
X46114812Y-43731306D01*
X46176723Y-43763691D01*
X46211297Y-43824407D01*
X46212239Y-43877113D01*
X46199500Y-43941158D01*
X46199500Y-44098846D01*
X46230261Y-44253489D01*
X46230264Y-44253501D01*
X46259071Y-44323048D01*
X46266540Y-44392518D01*
X46235264Y-44454997D01*
X46175175Y-44490648D01*
X46144510Y-44494500D01*
X44684500Y-44494500D01*
X44617461Y-44474815D01*
X44571706Y-44422011D01*
X44560500Y-44370500D01*
X44560500Y-44321155D01*
X44560499Y-44321153D01*
X44537634Y-44206204D01*
X44529737Y-44166503D01*
X44525349Y-44155909D01*
X44469397Y-44020827D01*
X44469390Y-44020814D01*
X44381789Y-43889711D01*
X44381786Y-43889707D01*
X44270292Y-43778213D01*
X44270288Y-43778210D01*
X44139185Y-43690609D01*
X44139172Y-43690602D01*
X43993501Y-43630264D01*
X43993489Y-43630261D01*
X43838845Y-43599500D01*
X43838842Y-43599500D01*
X43681158Y-43599500D01*
X43681155Y-43599500D01*
X43526510Y-43630261D01*
X43526498Y-43630264D01*
X43380827Y-43690602D01*
X43380814Y-43690609D01*
X43249711Y-43778210D01*
X43249707Y-43778213D01*
X43138213Y-43889707D01*
X43138210Y-43889711D01*
X43050609Y-44020814D01*
X43050602Y-44020827D01*
X42990264Y-44166498D01*
X42990261Y-44166510D01*
X42959500Y-44321153D01*
X42959500Y-44478846D01*
X42990261Y-44633489D01*
X42990264Y-44633501D01*
X43050602Y-44779172D01*
X43050609Y-44779185D01*
X43138210Y-44910288D01*
X43138213Y-44910292D01*
X43249707Y-45021786D01*
X43249711Y-45021789D01*
X43380814Y-45109390D01*
X43380821Y-45109394D01*
X43417952Y-45124774D01*
X43472355Y-45168613D01*
X43494421Y-45234907D01*
X43494500Y-45239335D01*
X43494500Y-45813059D01*
X43474815Y-45880098D01*
X43422011Y-45925853D01*
X43352853Y-45935797D01*
X43289297Y-45906772D01*
X43282819Y-45900740D01*
X43185292Y-45803213D01*
X43185288Y-45803210D01*
X43054185Y-45715609D01*
X43054172Y-45715602D01*
X42908501Y-45655264D01*
X42908489Y-45655261D01*
X42753845Y-45624500D01*
X42753842Y-45624500D01*
X42596158Y-45624500D01*
X42596155Y-45624500D01*
X42441510Y-45655261D01*
X42441498Y-45655264D01*
X42295827Y-45715602D01*
X42295814Y-45715609D01*
X42164711Y-45803210D01*
X42164707Y-45803213D01*
X42053213Y-45914707D01*
X42053210Y-45914711D01*
X41965609Y-46045814D01*
X41965602Y-46045827D01*
X41905264Y-46191498D01*
X41905261Y-46191510D01*
X41874500Y-46346153D01*
X41874500Y-46503846D01*
X41905261Y-46658489D01*
X41905264Y-46658501D01*
X41965602Y-46804172D01*
X41965609Y-46804185D01*
X42053210Y-46935288D01*
X42053213Y-46935292D01*
X42164707Y-47046786D01*
X42164711Y-47046789D01*
X42295814Y-47134390D01*
X42295827Y-47134397D01*
X42383764Y-47170821D01*
X42441503Y-47194737D01*
X42596153Y-47225499D01*
X42596156Y-47225500D01*
X42596158Y-47225500D01*
X42753844Y-47225500D01*
X42753845Y-47225499D01*
X42908497Y-47194737D01*
X43054179Y-47134394D01*
X43185289Y-47046789D01*
X43296789Y-46935289D01*
X43320199Y-46900252D01*
X43322249Y-46898539D01*
X43323153Y-46896026D01*
X43348893Y-46876272D01*
X43373810Y-46855449D01*
X43376462Y-46855115D01*
X43378582Y-46853489D01*
X43410924Y-46850786D01*
X43443135Y-46846740D01*
X43445546Y-46847893D01*
X43448209Y-46847671D01*
X43476878Y-46862883D01*
X43506162Y-46876894D01*
X43508291Y-46879552D01*
X43509928Y-46880421D01*
X43515513Y-46888569D01*
X43531415Y-46908420D01*
X43537912Y-46919988D01*
X43539592Y-46925708D01*
X43596021Y-47023447D01*
X43596413Y-47024144D01*
X43604090Y-47057511D01*
X43612159Y-47090769D01*
X43612014Y-47091949D01*
X43612080Y-47092235D01*
X43611927Y-47092659D01*
X43609920Y-47109042D01*
X43609500Y-47111152D01*
X43609500Y-47268846D01*
X43640261Y-47423489D01*
X43640264Y-47423501D01*
X43700602Y-47569172D01*
X43700609Y-47569185D01*
X43788210Y-47700288D01*
X43788213Y-47700292D01*
X43833581Y-47745660D01*
X43843354Y-47763558D01*
X43857153Y-47778579D01*
X43859759Y-47793602D01*
X43867066Y-47806983D01*
X43865611Y-47827325D01*
X43869098Y-47847420D01*
X43862709Y-47867905D01*
X43862082Y-47876675D01*
X43860141Y-47881559D01*
X43855862Y-47891694D01*
X43853106Y-47895821D01*
X43799600Y-48024996D01*
X43799467Y-48025312D01*
X43777629Y-48052042D01*
X43755947Y-48078950D01*
X43755536Y-48079086D01*
X43755263Y-48079421D01*
X43722441Y-48090101D01*
X43689653Y-48101015D01*
X43688862Y-48101029D01*
X43688823Y-48101042D01*
X43688779Y-48101030D01*
X43685226Y-48101094D01*
X43623724Y-48101094D01*
X43469079Y-48131855D01*
X43469067Y-48131858D01*
X43323396Y-48192196D01*
X43323383Y-48192203D01*
X43192280Y-48279804D01*
X43192276Y-48279807D01*
X43080782Y-48391301D01*
X43080779Y-48391305D01*
X42993178Y-48522408D01*
X42993171Y-48522421D01*
X42932833Y-48668092D01*
X42932830Y-48668104D01*
X42902069Y-48822747D01*
X42902069Y-48980440D01*
X42932830Y-49135083D01*
X42932833Y-49135095D01*
X42993171Y-49280766D01*
X42993178Y-49280779D01*
X43080779Y-49411882D01*
X43080782Y-49411886D01*
X43192276Y-49523380D01*
X43192280Y-49523383D01*
X43323383Y-49610984D01*
X43323396Y-49610991D01*
X43417952Y-49650157D01*
X43472356Y-49693998D01*
X43494421Y-49760292D01*
X43494500Y-49764718D01*
X43494500Y-51305411D01*
X43474815Y-51372450D01*
X43422011Y-51418205D01*
X43417953Y-51419972D01*
X43334360Y-51454597D01*
X43334350Y-51454602D01*
X43203247Y-51542203D01*
X43203243Y-51542206D01*
X43091749Y-51653700D01*
X43091746Y-51653704D01*
X43004145Y-51784807D01*
X43004140Y-51784817D01*
X42943893Y-51930267D01*
X42900052Y-51984670D01*
X42833758Y-52006735D01*
X42766058Y-51989456D01*
X42718448Y-51938318D01*
X42714770Y-51930264D01*
X42711895Y-51923324D01*
X42711894Y-51923321D01*
X42711892Y-51923318D01*
X42711890Y-51923314D01*
X42624289Y-51792211D01*
X42624286Y-51792207D01*
X42512792Y-51680713D01*
X42512788Y-51680710D01*
X42381685Y-51593109D01*
X42381672Y-51593102D01*
X42236001Y-51532764D01*
X42235989Y-51532761D01*
X42081345Y-51502000D01*
X42081342Y-51502000D01*
X41923658Y-51502000D01*
X41923655Y-51502000D01*
X41769010Y-51532761D01*
X41768998Y-51532764D01*
X41623327Y-51593102D01*
X41623314Y-51593109D01*
X41492211Y-51680710D01*
X41492207Y-51680713D01*
X41380713Y-51792207D01*
X41380710Y-51792211D01*
X41293109Y-51923314D01*
X41293102Y-51923327D01*
X41232764Y-52068998D01*
X41232761Y-52069010D01*
X41202000Y-52223653D01*
X41202000Y-52381346D01*
X41206059Y-52401752D01*
X41199832Y-52471344D01*
X41156968Y-52526521D01*
X41091079Y-52549765D01*
X41079126Y-52549500D01*
X41073842Y-52549500D01*
X40916158Y-52549500D01*
X40916155Y-52549500D01*
X40761510Y-52580261D01*
X40761498Y-52580264D01*
X40615827Y-52640602D01*
X40615814Y-52640609D01*
X40484711Y-52728210D01*
X40484707Y-52728213D01*
X40373213Y-52839707D01*
X40373210Y-52839711D01*
X40285609Y-52970814D01*
X40285602Y-52970827D01*
X40225264Y-53116498D01*
X40225261Y-53116510D01*
X40194500Y-53271153D01*
X40194500Y-53428846D01*
X40225261Y-53583489D01*
X40225264Y-53583501D01*
X40285602Y-53729172D01*
X40285610Y-53729186D01*
X40305303Y-53758658D01*
X40326182Y-53825335D01*
X40307698Y-53892715D01*
X40305305Y-53896440D01*
X40255608Y-53970816D01*
X40255602Y-53970827D01*
X40195264Y-54116498D01*
X40195261Y-54116510D01*
X40164500Y-54271153D01*
X38458429Y-54271153D01*
X38494737Y-54183497D01*
X38525500Y-54028842D01*
X38525500Y-53871158D01*
X38525500Y-53871155D01*
X38504732Y-53766753D01*
X38510959Y-53697162D01*
X38553821Y-53641984D01*
X38619711Y-53618739D01*
X38650541Y-53620944D01*
X38692387Y-53629268D01*
X38692390Y-53629268D01*
X38850076Y-53629268D01*
X38850077Y-53629267D01*
X39004729Y-53598505D01*
X39150411Y-53538162D01*
X39281521Y-53450557D01*
X39393021Y-53339057D01*
X39480626Y-53207947D01*
X39540969Y-53062265D01*
X39571732Y-52907610D01*
X39571732Y-52749926D01*
X39571732Y-52749923D01*
X39571731Y-52749921D01*
X39567412Y-52728210D01*
X39540969Y-52595271D01*
X39533213Y-52576547D01*
X39480629Y-52449595D01*
X39480622Y-52449582D01*
X39393021Y-52318479D01*
X39393018Y-52318475D01*
X39281524Y-52206981D01*
X39281520Y-52206978D01*
X39150417Y-52119377D01*
X39150407Y-52119372D01*
X39070468Y-52086260D01*
X39016065Y-52042419D01*
X38994000Y-51976124D01*
X39011279Y-51908425D01*
X39062417Y-51860815D01*
X39070472Y-51857137D01*
X39092804Y-51847887D01*
X39092804Y-51847886D01*
X39092811Y-51847884D01*
X39223921Y-51760279D01*
X39335421Y-51648779D01*
X39423026Y-51517669D01*
X39483369Y-51371987D01*
X39514132Y-51217332D01*
X39514132Y-51059648D01*
X39514132Y-51059645D01*
X39514131Y-51059643D01*
X39504314Y-51010291D01*
X39483369Y-50904993D01*
X39472673Y-50879171D01*
X39423029Y-50759317D01*
X39423022Y-50759304D01*
X39335421Y-50628201D01*
X39335418Y-50628197D01*
X39223924Y-50516703D01*
X39223920Y-50516700D01*
X39092817Y-50429099D01*
X39092804Y-50429092D01*
X38947133Y-50368754D01*
X38947121Y-50368751D01*
X38792477Y-50337990D01*
X38792474Y-50337990D01*
X38634790Y-50337990D01*
X38634787Y-50337990D01*
X38480142Y-50368751D01*
X38480130Y-50368754D01*
X38334459Y-50429092D01*
X38334446Y-50429099D01*
X38203343Y-50516700D01*
X38203339Y-50516703D01*
X38091845Y-50628197D01*
X38091842Y-50628201D01*
X38004241Y-50759304D01*
X38004234Y-50759317D01*
X37943896Y-50904988D01*
X37943893Y-50905000D01*
X37913132Y-51059643D01*
X37913132Y-51217336D01*
X37943893Y-51371979D01*
X37943896Y-51371991D01*
X38004234Y-51517662D01*
X38004241Y-51517675D01*
X38091842Y-51648778D01*
X38091845Y-51648782D01*
X38203339Y-51760276D01*
X38203343Y-51760279D01*
X38334446Y-51847880D01*
X38334459Y-51847887D01*
X38414394Y-51880997D01*
X38468798Y-51924838D01*
X38490863Y-51991132D01*
X38473584Y-52058831D01*
X38422447Y-52106442D01*
X38414396Y-52110118D01*
X38392061Y-52119369D01*
X38392046Y-52119377D01*
X38260943Y-52206978D01*
X38260939Y-52206981D01*
X38149445Y-52318475D01*
X38149442Y-52318479D01*
X38061841Y-52449582D01*
X38061834Y-52449595D01*
X38001496Y-52595266D01*
X38001493Y-52595278D01*
X37970732Y-52749921D01*
X37970732Y-52907614D01*
X37991499Y-53012015D01*
X37985272Y-53081606D01*
X37942409Y-53136784D01*
X37876519Y-53160028D01*
X37845692Y-53157824D01*
X37803842Y-53149500D01*
X37646158Y-53149500D01*
X37646155Y-53149500D01*
X37491510Y-53180261D01*
X37491498Y-53180264D01*
X37345827Y-53240602D01*
X37345814Y-53240609D01*
X37214711Y-53328210D01*
X37214707Y-53328213D01*
X37176388Y-53366533D01*
X37115065Y-53400018D01*
X37045373Y-53395034D01*
X36990333Y-53354341D01*
X36985496Y-53348038D01*
X36985495Y-53348036D01*
X36896964Y-53259505D01*
X36788536Y-53196905D01*
X36788537Y-53196905D01*
X36729772Y-53181159D01*
X36667601Y-53164500D01*
X36542399Y-53164500D01*
X36480228Y-53181159D01*
X36421463Y-53196905D01*
X36313037Y-53259504D01*
X36313034Y-53259506D01*
X36224506Y-53348034D01*
X36224504Y-53348037D01*
X36161905Y-53456463D01*
X36161881Y-53456553D01*
X36129500Y-53577399D01*
X36129500Y-53702601D01*
X36161905Y-53823536D01*
X36221373Y-53926540D01*
X36224504Y-53931962D01*
X36224506Y-53931965D01*
X36234901Y-53942360D01*
X36268386Y-54003683D01*
X36263402Y-54073375D01*
X36221530Y-54129308D01*
X36194674Y-54144602D01*
X36101085Y-54183368D01*
X36101079Y-54183371D01*
X35937218Y-54292860D01*
X35937214Y-54292863D01*
X35797863Y-54432214D01*
X35797860Y-54432218D01*
X35688371Y-54596079D01*
X35688364Y-54596092D01*
X35612950Y-54778160D01*
X35612947Y-54778170D01*
X35574500Y-54971456D01*
X35574500Y-54971459D01*
X35574500Y-55168541D01*
X35574500Y-55168543D01*
X35574499Y-55168543D01*
X34325500Y-55168543D01*
X34325500Y-54971456D01*
X34287052Y-54778170D01*
X34287051Y-54778169D01*
X34287051Y-54778165D01*
X34277830Y-54755904D01*
X34211635Y-54596092D01*
X34211628Y-54596079D01*
X34102139Y-54432218D01*
X34102136Y-54432214D01*
X33962785Y-54292863D01*
X33962781Y-54292860D01*
X33798920Y-54183371D01*
X33798907Y-54183364D01*
X33616839Y-54107950D01*
X33616829Y-54107947D01*
X33423543Y-54069500D01*
X33423541Y-54069500D01*
X32674379Y-54069500D01*
X32607340Y-54049815D01*
X32561585Y-53997011D01*
X32551641Y-53927853D01*
X32559818Y-53898048D01*
X32590681Y-53823536D01*
X32615894Y-53762666D01*
X32615961Y-53762332D01*
X32647448Y-53604034D01*
X32650500Y-53588691D01*
X32650500Y-53411309D01*
X32650500Y-53411306D01*
X32650499Y-53411304D01*
X32615896Y-53237341D01*
X32615893Y-53237332D01*
X32612381Y-53228854D01*
X32592254Y-53180261D01*
X32548016Y-53073459D01*
X32548009Y-53073446D01*
X32449464Y-52925965D01*
X32449461Y-52925961D01*
X32324038Y-52800538D01*
X32324034Y-52800535D01*
X32176553Y-52701990D01*
X32176540Y-52701983D01*
X32012667Y-52634106D01*
X32012658Y-52634103D01*
X31838694Y-52599500D01*
X31838691Y-52599500D01*
X31661309Y-52599500D01*
X31661306Y-52599500D01*
X31487341Y-52634103D01*
X31487332Y-52634106D01*
X31323459Y-52701983D01*
X31323446Y-52701990D01*
X31175965Y-52800535D01*
X31175961Y-52800538D01*
X31050538Y-52925961D01*
X31050535Y-52925965D01*
X30951990Y-53073446D01*
X30951983Y-53073459D01*
X30884106Y-53237332D01*
X30884103Y-53237341D01*
X30849500Y-53411304D01*
X30200500Y-53411304D01*
X30200500Y-49511304D01*
X34299500Y-49511304D01*
X34299500Y-49688695D01*
X34334103Y-49862658D01*
X34334106Y-49862667D01*
X34401983Y-50026540D01*
X34401990Y-50026553D01*
X34500535Y-50174034D01*
X34500538Y-50174038D01*
X34625961Y-50299461D01*
X34625965Y-50299464D01*
X34773446Y-50398009D01*
X34773459Y-50398016D01*
X34848502Y-50429099D01*
X34937334Y-50465894D01*
X34937336Y-50465894D01*
X34937341Y-50465896D01*
X35111304Y-50500499D01*
X35111307Y-50500500D01*
X35111309Y-50500500D01*
X35288693Y-50500500D01*
X35288694Y-50500499D01*
X35346682Y-50488964D01*
X35462658Y-50465896D01*
X35462661Y-50465894D01*
X35462666Y-50465894D01*
X35626547Y-50398013D01*
X35774035Y-50299464D01*
X35876430Y-50197068D01*
X35937751Y-50163585D01*
X36007443Y-50168569D01*
X36063377Y-50210440D01*
X36087794Y-50275904D01*
X36085727Y-50308942D01*
X36063407Y-50421152D01*
X36063407Y-50578845D01*
X36094168Y-50733488D01*
X36094171Y-50733500D01*
X36154509Y-50879171D01*
X36154516Y-50879184D01*
X36242117Y-51010287D01*
X36242120Y-51010291D01*
X36353614Y-51121785D01*
X36353618Y-51121788D01*
X36484721Y-51209389D01*
X36484734Y-51209396D01*
X36630405Y-51269734D01*
X36630410Y-51269736D01*
X36713728Y-51286309D01*
X36785060Y-51300498D01*
X36785063Y-51300499D01*
X36785065Y-51300499D01*
X36942751Y-51300499D01*
X36942752Y-51300498D01*
X37097404Y-51269736D01*
X37223915Y-51217334D01*
X37243079Y-51209396D01*
X37243079Y-51209395D01*
X37243086Y-51209393D01*
X37374196Y-51121788D01*
X37485696Y-51010288D01*
X37573301Y-50879178D01*
X37633644Y-50733496D01*
X37664407Y-50578841D01*
X37664407Y-50421157D01*
X37664407Y-50421154D01*
X37664406Y-50421152D01*
X37659803Y-50398013D01*
X37633644Y-50266502D01*
X37604885Y-50197070D01*
X37573304Y-50120826D01*
X37573297Y-50120813D01*
X37485696Y-49989710D01*
X37485693Y-49989706D01*
X37374199Y-49878212D01*
X37374195Y-49878209D01*
X37243092Y-49790608D01*
X37243079Y-49790601D01*
X37097408Y-49730263D01*
X37097396Y-49730260D01*
X36942752Y-49699499D01*
X36942749Y-49699499D01*
X36785065Y-49699499D01*
X36785062Y-49699499D01*
X36630417Y-49730260D01*
X36630405Y-49730263D01*
X36484734Y-49790601D01*
X36484721Y-49790608D01*
X36353618Y-49878209D01*
X36279638Y-49952189D01*
X36218314Y-49985673D01*
X36148623Y-49980688D01*
X36092689Y-49938817D01*
X36068273Y-49873352D01*
X36070340Y-49840315D01*
X36100500Y-49688693D01*
X36100500Y-49511306D01*
X36100499Y-49511304D01*
X36065896Y-49337341D01*
X36065893Y-49337332D01*
X36065162Y-49335568D01*
X36024709Y-49237904D01*
X35998016Y-49173459D01*
X35998009Y-49173446D01*
X35899464Y-49025965D01*
X35899461Y-49025961D01*
X35774038Y-48900538D01*
X35774034Y-48900535D01*
X35738662Y-48876900D01*
X35626553Y-48801990D01*
X35626540Y-48801983D01*
X35573190Y-48779885D01*
X39940768Y-48779885D01*
X39940768Y-48937578D01*
X39971529Y-49092221D01*
X39971532Y-49092233D01*
X40031870Y-49237904D01*
X40031877Y-49237917D01*
X40119478Y-49369020D01*
X40119481Y-49369024D01*
X40230975Y-49480518D01*
X40230979Y-49480521D01*
X40362082Y-49568122D01*
X40362095Y-49568129D01*
X40465575Y-49610991D01*
X40507771Y-49628469D01*
X40662421Y-49659231D01*
X40662424Y-49659232D01*
X40662426Y-49659232D01*
X40820112Y-49659232D01*
X40820113Y-49659231D01*
X40974765Y-49628469D01*
X41120447Y-49568126D01*
X41251557Y-49480521D01*
X41363057Y-49369021D01*
X41450662Y-49237911D01*
X41511005Y-49092229D01*
X41541768Y-48937574D01*
X41541768Y-48779890D01*
X41541768Y-48779887D01*
X41541767Y-48779885D01*
X41526685Y-48704063D01*
X41511005Y-48625235D01*
X41505799Y-48612666D01*
X41450665Y-48479559D01*
X41450658Y-48479546D01*
X41363057Y-48348443D01*
X41363054Y-48348439D01*
X41251560Y-48236945D01*
X41251556Y-48236942D01*
X41120453Y-48149341D01*
X41120440Y-48149334D01*
X40974769Y-48088996D01*
X40974757Y-48088993D01*
X40820113Y-48058232D01*
X40820110Y-48058232D01*
X40662426Y-48058232D01*
X40662423Y-48058232D01*
X40507778Y-48088993D01*
X40507766Y-48088996D01*
X40362095Y-48149334D01*
X40362082Y-48149341D01*
X40230979Y-48236942D01*
X40230975Y-48236945D01*
X40119481Y-48348439D01*
X40119478Y-48348443D01*
X40031877Y-48479546D01*
X40031870Y-48479559D01*
X39971532Y-48625230D01*
X39971529Y-48625242D01*
X39940768Y-48779885D01*
X35573190Y-48779885D01*
X35462667Y-48734106D01*
X35462658Y-48734103D01*
X35288694Y-48699500D01*
X35288691Y-48699500D01*
X35111309Y-48699500D01*
X35111306Y-48699500D01*
X34937341Y-48734103D01*
X34937332Y-48734106D01*
X34773459Y-48801983D01*
X34773446Y-48801990D01*
X34625965Y-48900535D01*
X34625961Y-48900538D01*
X34500538Y-49025961D01*
X34500535Y-49025965D01*
X34401990Y-49173446D01*
X34401983Y-49173459D01*
X34334106Y-49337332D01*
X34334103Y-49337341D01*
X34299500Y-49511304D01*
X30200500Y-49511304D01*
X30200500Y-48261304D01*
X30749500Y-48261304D01*
X30749500Y-48438695D01*
X30784103Y-48612658D01*
X30784106Y-48612667D01*
X30851983Y-48776540D01*
X30851990Y-48776553D01*
X30950535Y-48924034D01*
X30950538Y-48924038D01*
X31075961Y-49049461D01*
X31075965Y-49049464D01*
X31223446Y-49148009D01*
X31223459Y-49148016D01*
X31346363Y-49198923D01*
X31387334Y-49215894D01*
X31387336Y-49215894D01*
X31387341Y-49215896D01*
X31561304Y-49250499D01*
X31561307Y-49250500D01*
X31561309Y-49250500D01*
X31738693Y-49250500D01*
X31738694Y-49250499D01*
X31802015Y-49237904D01*
X31912658Y-49215896D01*
X31912661Y-49215894D01*
X31912666Y-49215894D01*
X32076547Y-49148013D01*
X32224035Y-49049464D01*
X32349464Y-48924035D01*
X32448013Y-48776547D01*
X32515894Y-48612666D01*
X32529081Y-48546374D01*
X32550499Y-48438695D01*
X32550500Y-48438693D01*
X32550500Y-48261306D01*
X32550499Y-48261304D01*
X32515896Y-48087341D01*
X32515893Y-48087332D01*
X32512477Y-48079086D01*
X32478318Y-47996617D01*
X32448016Y-47923459D01*
X32448009Y-47923446D01*
X32349464Y-47775965D01*
X32349461Y-47775961D01*
X32224038Y-47650538D01*
X32224031Y-47650533D01*
X32187667Y-47626234D01*
X32142862Y-47572621D01*
X32134156Y-47503296D01*
X32164312Y-47440269D01*
X32223755Y-47403551D01*
X32280748Y-47401516D01*
X32365331Y-47418340D01*
X32426457Y-47430500D01*
X32426459Y-47430500D01*
X33423543Y-47430500D01*
X33580704Y-47399238D01*
X33616835Y-47392051D01*
X33798914Y-47316632D01*
X33962782Y-47207139D01*
X34102139Y-47067782D01*
X34211632Y-46903914D01*
X34287051Y-46721835D01*
X34300336Y-46655048D01*
X34325500Y-46528543D01*
X35574499Y-46528543D01*
X35612947Y-46721829D01*
X35612950Y-46721839D01*
X35688364Y-46903907D01*
X35688371Y-46903920D01*
X35797860Y-47067781D01*
X35797863Y-47067785D01*
X35937214Y-47207136D01*
X35937218Y-47207139D01*
X36101079Y-47316628D01*
X36101088Y-47316633D01*
X36194673Y-47355397D01*
X36249076Y-47399238D01*
X36271141Y-47465532D01*
X36253862Y-47533231D01*
X36234904Y-47557637D01*
X36224504Y-47568037D01*
X36161905Y-47676463D01*
X36161905Y-47676464D01*
X36129500Y-47797399D01*
X36129500Y-47922601D01*
X36161905Y-48043536D01*
X36224505Y-48151964D01*
X36313036Y-48240495D01*
X36421464Y-48303095D01*
X36542399Y-48335500D01*
X36542401Y-48335500D01*
X36667599Y-48335500D01*
X36667601Y-48335500D01*
X36788536Y-48303095D01*
X36896964Y-48240495D01*
X36985495Y-48151964D01*
X36985500Y-48151953D01*
X36990326Y-48145666D01*
X37046751Y-48104460D01*
X37116497Y-48100301D01*
X37176387Y-48133466D01*
X37214707Y-48171786D01*
X37214711Y-48171789D01*
X37345814Y-48259390D01*
X37345827Y-48259397D01*
X37451325Y-48303095D01*
X37491503Y-48319737D01*
X37635797Y-48348439D01*
X37646153Y-48350499D01*
X37646156Y-48350500D01*
X37646158Y-48350500D01*
X37803844Y-48350500D01*
X37803845Y-48350499D01*
X37958497Y-48319737D01*
X38071166Y-48273067D01*
X38104172Y-48259397D01*
X38104172Y-48259396D01*
X38104179Y-48259394D01*
X38235289Y-48171789D01*
X38346789Y-48060289D01*
X38434394Y-47929179D01*
X38494737Y-47783497D01*
X38525500Y-47628842D01*
X38525500Y-47471158D01*
X38525500Y-47471155D01*
X38525499Y-47471153D01*
X38518094Y-47433925D01*
X38494737Y-47316503D01*
X38440200Y-47184839D01*
X38432732Y-47115372D01*
X38451660Y-47068498D01*
X38452137Y-47067783D01*
X38452139Y-47067782D01*
X38561632Y-46903914D01*
X38637051Y-46721835D01*
X38650336Y-46655048D01*
X38675500Y-46528543D01*
X38675500Y-46331456D01*
X38637052Y-46138170D01*
X38637051Y-46138169D01*
X38637051Y-46138165D01*
X38598801Y-46045821D01*
X38561635Y-45956092D01*
X38561628Y-45956079D01*
X38452139Y-45792218D01*
X38452136Y-45792214D01*
X38312785Y-45652863D01*
X38312781Y-45652860D01*
X38148920Y-45543371D01*
X38148907Y-45543364D01*
X37966839Y-45467950D01*
X37966829Y-45467947D01*
X37773543Y-45429500D01*
X37773541Y-45429500D01*
X36476459Y-45429500D01*
X36476457Y-45429500D01*
X36283170Y-45467947D01*
X36283160Y-45467950D01*
X36101092Y-45543364D01*
X36101079Y-45543371D01*
X35937218Y-45652860D01*
X35937214Y-45652863D01*
X35797863Y-45792214D01*
X35797860Y-45792218D01*
X35688371Y-45956079D01*
X35688364Y-45956092D01*
X35612950Y-46138160D01*
X35612947Y-46138170D01*
X35574500Y-46331456D01*
X35574500Y-46331459D01*
X35574500Y-46528541D01*
X35574500Y-46528543D01*
X35574499Y-46528543D01*
X34325500Y-46528543D01*
X34325500Y-46331456D01*
X34287052Y-46138170D01*
X34287051Y-46138169D01*
X34287051Y-46138165D01*
X34248801Y-46045821D01*
X34211635Y-45956092D01*
X34211628Y-45956079D01*
X34102139Y-45792218D01*
X34102136Y-45792214D01*
X33962785Y-45652863D01*
X33962781Y-45652860D01*
X33798920Y-45543371D01*
X33798907Y-45543364D01*
X33616839Y-45467950D01*
X33616829Y-45467947D01*
X33423543Y-45429500D01*
X33423541Y-45429500D01*
X32426459Y-45429500D01*
X32426457Y-45429500D01*
X32233170Y-45467947D01*
X32233160Y-45467950D01*
X32051092Y-45543364D01*
X32051079Y-45543371D01*
X31887218Y-45652860D01*
X31887214Y-45652863D01*
X31747863Y-45792214D01*
X31747860Y-45792218D01*
X31638371Y-45956079D01*
X31638364Y-45956092D01*
X31562950Y-46138160D01*
X31562947Y-46138170D01*
X31524500Y-46331456D01*
X31524500Y-46331459D01*
X31524500Y-46528541D01*
X31524500Y-46528543D01*
X31524499Y-46528543D01*
X31562947Y-46721829D01*
X31562950Y-46721839D01*
X31638364Y-46903907D01*
X31638371Y-46903920D01*
X31747860Y-47067781D01*
X31747863Y-47067785D01*
X31887215Y-47207137D01*
X31887218Y-47207139D01*
X31948313Y-47247961D01*
X31993117Y-47301572D01*
X32001825Y-47370897D01*
X31971671Y-47433925D01*
X31912229Y-47470644D01*
X31855231Y-47472680D01*
X31738695Y-47449500D01*
X31738691Y-47449500D01*
X31561309Y-47449500D01*
X31561306Y-47449500D01*
X31387341Y-47484103D01*
X31387332Y-47484106D01*
X31223459Y-47551983D01*
X31223446Y-47551990D01*
X31075965Y-47650535D01*
X31075961Y-47650538D01*
X30950538Y-47775961D01*
X30950535Y-47775965D01*
X30851990Y-47923446D01*
X30851983Y-47923459D01*
X30784106Y-48087332D01*
X30784103Y-48087341D01*
X30749500Y-48261304D01*
X30200500Y-48261304D01*
X30200500Y-45158653D01*
X38880750Y-45158653D01*
X38880750Y-45316346D01*
X38911511Y-45470989D01*
X38911514Y-45471001D01*
X38971852Y-45616672D01*
X38971859Y-45616685D01*
X39059460Y-45747788D01*
X39059463Y-45747792D01*
X39170957Y-45859286D01*
X39170961Y-45859289D01*
X39302064Y-45946890D01*
X39302077Y-45946897D01*
X39447748Y-46007235D01*
X39447753Y-46007237D01*
X39602403Y-46037999D01*
X39602406Y-46038000D01*
X39602408Y-46038000D01*
X39760094Y-46038000D01*
X39760095Y-46037999D01*
X39914747Y-46007237D01*
X40060429Y-45946894D01*
X40191539Y-45859289D01*
X40303039Y-45747789D01*
X40390644Y-45616679D01*
X40394949Y-45606287D01*
X40421012Y-45543364D01*
X40450987Y-45470997D01*
X40481750Y-45316342D01*
X40481750Y-45158658D01*
X40481750Y-45158655D01*
X40481749Y-45158653D01*
X40470189Y-45100536D01*
X40450987Y-45004003D01*
X40450150Y-45001983D01*
X40390647Y-44858327D01*
X40390640Y-44858314D01*
X40303039Y-44727211D01*
X40303036Y-44727207D01*
X40191542Y-44615713D01*
X40191538Y-44615710D01*
X40060435Y-44528109D01*
X40060422Y-44528102D01*
X39914751Y-44467764D01*
X39914739Y-44467761D01*
X39760095Y-44437000D01*
X39760092Y-44437000D01*
X39602408Y-44437000D01*
X39602405Y-44437000D01*
X39447760Y-44467761D01*
X39447748Y-44467764D01*
X39302077Y-44528102D01*
X39302064Y-44528109D01*
X39170961Y-44615710D01*
X39170957Y-44615713D01*
X39059463Y-44727207D01*
X39059460Y-44727211D01*
X38971859Y-44858314D01*
X38971852Y-44858327D01*
X38911514Y-45003998D01*
X38911511Y-45004010D01*
X38880750Y-45158653D01*
X30200500Y-45158653D01*
X30200500Y-33134412D01*
X30220185Y-33067373D01*
X30236819Y-33046731D01*
X33046731Y-30236819D01*
X33108054Y-30203334D01*
X33134412Y-30200500D01*
X41439556Y-30200500D01*
X41506595Y-30220185D01*
G37*
%TD.AperFunction*%
%TD*%
M02*
