%TF.GenerationSoftware,KiCad,Pcbnew,8.0.8*%
%TF.CreationDate,2025-02-17T00:55:54-08:00*%
%TF.ProjectId,Integrated FOC Stepper Driver,496e7465-6772-4617-9465-6420464f4320,rev?*%
%TF.SameCoordinates,Original*%
%TF.FileFunction,Copper,L1,Top*%
%TF.FilePolarity,Positive*%
%FSLAX46Y46*%
G04 Gerber Fmt 4.6, Leading zero omitted, Abs format (unit mm)*
G04 Created by KiCad (PCBNEW 8.0.8) date 2025-02-17 00:55:54*
%MOMM*%
%LPD*%
G01*
G04 APERTURE LIST*
G04 Aperture macros list*
%AMRoundRect*
0 Rectangle with rounded corners*
0 $1 Rounding radius*
0 $2 $3 $4 $5 $6 $7 $8 $9 X,Y pos of 4 corners*
0 Add a 4 corners polygon primitive as box body*
4,1,4,$2,$3,$4,$5,$6,$7,$8,$9,$2,$3,0*
0 Add four circle primitives for the rounded corners*
1,1,$1+$1,$2,$3*
1,1,$1+$1,$4,$5*
1,1,$1+$1,$6,$7*
1,1,$1+$1,$8,$9*
0 Add four rect primitives between the rounded corners*
20,1,$1+$1,$2,$3,$4,$5,0*
20,1,$1+$1,$4,$5,$6,$7,0*
20,1,$1+$1,$6,$7,$8,$9,0*
20,1,$1+$1,$8,$9,$2,$3,0*%
%AMRotRect*
0 Rectangle, with rotation*
0 The origin of the aperture is its center*
0 $1 length*
0 $2 width*
0 $3 Rotation angle, in degrees counterclockwise*
0 Add horizontal line*
21,1,$1,$2,0,0,$3*%
G04 Aperture macros list end*
%TA.AperFunction,SMDPad,CuDef*%
%ADD10RoundRect,0.155000X-0.040659X-0.259862X0.259862X0.040659X0.040659X0.259862X-0.259862X-0.040659X0*%
%TD*%
%TA.AperFunction,SMDPad,CuDef*%
%ADD11RoundRect,0.155000X0.040659X0.259862X-0.259862X-0.040659X-0.040659X-0.259862X0.259862X0.040659X0*%
%TD*%
%TA.AperFunction,ComponentPad*%
%ADD12C,5.600000*%
%TD*%
%TA.AperFunction,SMDPad,CuDef*%
%ADD13RoundRect,0.160000X-0.197500X-0.160000X0.197500X-0.160000X0.197500X0.160000X-0.197500X0.160000X0*%
%TD*%
%TA.AperFunction,SMDPad,CuDef*%
%ADD14RoundRect,0.160000X-0.026517X-0.252791X0.252791X0.026517X0.026517X0.252791X-0.252791X-0.026517X0*%
%TD*%
%TA.AperFunction,SMDPad,CuDef*%
%ADD15RoundRect,0.160000X-0.160000X0.197500X-0.160000X-0.197500X0.160000X-0.197500X0.160000X0.197500X0*%
%TD*%
%TA.AperFunction,SMDPad,CuDef*%
%ADD16RoundRect,0.090000X-0.360000X0.660000X-0.360000X-0.660000X0.360000X-0.660000X0.360000X0.660000X0*%
%TD*%
%TA.AperFunction,SMDPad,CuDef*%
%ADD17RoundRect,0.160000X0.197500X0.160000X-0.197500X0.160000X-0.197500X-0.160000X0.197500X-0.160000X0*%
%TD*%
%TA.AperFunction,SMDPad,CuDef*%
%ADD18RoundRect,0.150000X-0.150000X0.650000X-0.150000X-0.650000X0.150000X-0.650000X0.150000X0.650000X0*%
%TD*%
%TA.AperFunction,SMDPad,CuDef*%
%ADD19RoundRect,0.237500X-0.237500X0.300000X-0.237500X-0.300000X0.237500X-0.300000X0.237500X0.300000X0*%
%TD*%
%TA.AperFunction,SMDPad,CuDef*%
%ADD20RoundRect,0.155000X0.212500X0.155000X-0.212500X0.155000X-0.212500X-0.155000X0.212500X-0.155000X0*%
%TD*%
%TA.AperFunction,SMDPad,CuDef*%
%ADD21RoundRect,0.155000X-0.259862X0.040659X0.040659X-0.259862X0.259862X-0.040659X-0.040659X0.259862X0*%
%TD*%
%TA.AperFunction,SMDPad,CuDef*%
%ADD22RoundRect,0.249999X0.737501X2.450001X-0.737501X2.450001X-0.737501X-2.450001X0.737501X-2.450001X0*%
%TD*%
%TA.AperFunction,ComponentPad*%
%ADD23R,1.700000X1.700000*%
%TD*%
%TA.AperFunction,ComponentPad*%
%ADD24O,1.700000X1.700000*%
%TD*%
%TA.AperFunction,SMDPad,CuDef*%
%ADD25RoundRect,0.250000X0.250000X1.500000X-0.250000X1.500000X-0.250000X-1.500000X0.250000X-1.500000X0*%
%TD*%
%TA.AperFunction,SMDPad,CuDef*%
%ADD26RoundRect,0.250001X0.499999X1.449999X-0.499999X1.449999X-0.499999X-1.449999X0.499999X-1.449999X0*%
%TD*%
%TA.AperFunction,SMDPad,CuDef*%
%ADD27RotRect,1.400000X1.200000X45.000000*%
%TD*%
%TA.AperFunction,SMDPad,CuDef*%
%ADD28RoundRect,0.237500X-0.300000X-0.237500X0.300000X-0.237500X0.300000X0.237500X-0.300000X0.237500X0*%
%TD*%
%TA.AperFunction,SMDPad,CuDef*%
%ADD29RoundRect,0.155000X0.155000X-0.212500X0.155000X0.212500X-0.155000X0.212500X-0.155000X-0.212500X0*%
%TD*%
%TA.AperFunction,SMDPad,CuDef*%
%ADD30RoundRect,0.200000X-0.200000X0.750000X-0.200000X-0.750000X0.200000X-0.750000X0.200000X0.750000X0*%
%TD*%
%TA.AperFunction,ComponentPad*%
%ADD31RoundRect,0.250000X-0.350000X-0.625000X0.350000X-0.625000X0.350000X0.625000X-0.350000X0.625000X0*%
%TD*%
%TA.AperFunction,ComponentPad*%
%ADD32O,1.200000X1.750000*%
%TD*%
%TA.AperFunction,SMDPad,CuDef*%
%ADD33RoundRect,0.200000X-0.750000X-0.200000X0.750000X-0.200000X0.750000X0.200000X-0.750000X0.200000X0*%
%TD*%
%TA.AperFunction,SMDPad,CuDef*%
%ADD34R,1.700000X0.900000*%
%TD*%
%TA.AperFunction,SMDPad,CuDef*%
%ADD35RoundRect,0.237500X0.237500X-0.300000X0.237500X0.300000X-0.237500X0.300000X-0.237500X-0.300000X0*%
%TD*%
%TA.AperFunction,SMDPad,CuDef*%
%ADD36RoundRect,0.155000X-0.212500X-0.155000X0.212500X-0.155000X0.212500X0.155000X-0.212500X0.155000X0*%
%TD*%
%TA.AperFunction,SMDPad,CuDef*%
%ADD37RoundRect,0.160000X0.160000X-0.197500X0.160000X0.197500X-0.160000X0.197500X-0.160000X-0.197500X0*%
%TD*%
%TA.AperFunction,SMDPad,CuDef*%
%ADD38RoundRect,0.150000X-0.150000X0.825000X-0.150000X-0.825000X0.150000X-0.825000X0.150000X0.825000X0*%
%TD*%
%TA.AperFunction,SMDPad,CuDef*%
%ADD39RoundRect,0.160000X-0.252791X0.026517X0.026517X-0.252791X0.252791X-0.026517X-0.026517X0.252791X0*%
%TD*%
%TA.AperFunction,SMDPad,CuDef*%
%ADD40R,1.240000X0.600000*%
%TD*%
%TA.AperFunction,SMDPad,CuDef*%
%ADD41R,1.240000X0.300000*%
%TD*%
%TA.AperFunction,HeatsinkPad*%
%ADD42O,2.100000X1.000000*%
%TD*%
%TA.AperFunction,HeatsinkPad*%
%ADD43O,1.800000X1.000000*%
%TD*%
%TA.AperFunction,SMDPad,CuDef*%
%ADD44RoundRect,0.155000X0.259862X-0.040659X-0.040659X0.259862X-0.259862X0.040659X0.040659X-0.259862X0*%
%TD*%
%TA.AperFunction,SMDPad,CuDef*%
%ADD45R,0.600000X1.550000*%
%TD*%
%TA.AperFunction,ComponentPad*%
%ADD46C,0.600000*%
%TD*%
%TA.AperFunction,SMDPad,CuDef*%
%ADD47R,4.900000X2.950000*%
%TD*%
%TA.AperFunction,SMDPad,CuDef*%
%ADD48RoundRect,0.237500X0.300000X0.237500X-0.300000X0.237500X-0.300000X-0.237500X0.300000X-0.237500X0*%
%TD*%
%TA.AperFunction,SMDPad,CuDef*%
%ADD49RoundRect,0.249999X-0.737501X-2.450001X0.737501X-2.450001X0.737501X2.450001X-0.737501X2.450001X0*%
%TD*%
%TA.AperFunction,SMDPad,CuDef*%
%ADD50RoundRect,0.162500X0.162500X-0.617500X0.162500X0.617500X-0.162500X0.617500X-0.162500X-0.617500X0*%
%TD*%
%TA.AperFunction,SMDPad,CuDef*%
%ADD51RoundRect,0.155000X-0.155000X0.212500X-0.155000X-0.212500X0.155000X-0.212500X0.155000X0.212500X0*%
%TD*%
%TA.AperFunction,SMDPad,CuDef*%
%ADD52RoundRect,0.050000X0.238649X0.309359X-0.309359X-0.238649X-0.238649X-0.309359X0.309359X0.238649X0*%
%TD*%
%TA.AperFunction,SMDPad,CuDef*%
%ADD53RoundRect,0.050000X-0.238649X0.309359X-0.309359X0.238649X0.238649X-0.309359X0.309359X-0.238649X0*%
%TD*%
%TA.AperFunction,HeatsinkPad*%
%ADD54RotRect,3.200000X3.200000X225.000000*%
%TD*%
%TA.AperFunction,ViaPad*%
%ADD55C,0.600000*%
%TD*%
%TA.AperFunction,ViaPad*%
%ADD56C,0.400000*%
%TD*%
%TA.AperFunction,ViaPad*%
%ADD57C,0.800000*%
%TD*%
%TA.AperFunction,Conductor*%
%ADD58C,0.500000*%
%TD*%
%TA.AperFunction,Conductor*%
%ADD59C,0.200000*%
%TD*%
%TA.AperFunction,Conductor*%
%ADD60C,0.150000*%
%TD*%
%TA.AperFunction,Conductor*%
%ADD61C,0.300000*%
%TD*%
G04 APERTURE END LIST*
D10*
%TO.P,C18,1*%
%TO.N,GND*%
X45373717Y-41826283D03*
%TO.P,C18,2*%
%TO.N,/XIN*%
X46176283Y-41023717D03*
%TD*%
D11*
%TO.P,C10,1*%
%TO.N,GND*%
X53526283Y-44873717D03*
%TO.P,C10,2*%
%TO.N,+3.3V*%
X52723717Y-45676283D03*
%TD*%
D12*
%TO.P,H4,1*%
%TO.N,N/C*%
X34500000Y-65500000D03*
%TD*%
D13*
%TO.P,R1,1*%
%TO.N,Net-(D1-DIN)*%
X33052500Y-46075000D03*
%TO.P,R1,2*%
%TO.N,/NEOPIXEL*%
X34247500Y-46075000D03*
%TD*%
D11*
%TO.P,C20,1*%
%TO.N,+3.3V*%
X51551283Y-55098717D03*
%TO.P,C20,2*%
%TO.N,GND*%
X50748717Y-55901283D03*
%TD*%
D14*
%TO.P,R11,1*%
%TO.N,/SDA*%
X54630008Y-47594992D03*
%TO.P,R11,2*%
%TO.N,+3.3V*%
X55475000Y-46750000D03*
%TD*%
D15*
%TO.P,R2,1*%
%TO.N,Net-(J2-CC2)*%
X30925000Y-62852500D03*
%TO.P,R2,2*%
%TO.N,GND*%
X30925000Y-64047500D03*
%TD*%
D13*
%TO.P,R8,1*%
%TO.N,/QSPI_SS*%
X64502500Y-46775000D03*
%TO.P,R8,2*%
%TO.N,+3.3V*%
X65697500Y-46775000D03*
%TD*%
D16*
%TO.P,D2,1,VDD*%
%TO.N,+3.3V*%
X69650000Y-55550000D03*
%TO.P,D2,2,DOUT*%
%TO.N,unconnected-(D2-DOUT-Pad2)*%
X66350000Y-55550000D03*
%TO.P,D2,3,VSS*%
%TO.N,GND*%
X66350000Y-60450000D03*
%TO.P,D2,4,DIN*%
%TO.N,Net-(D1-DOUT)*%
X69650000Y-60450000D03*
%TD*%
D17*
%TO.P,R7,1*%
%TO.N,/~{USB_BOOT}*%
X65697500Y-45825000D03*
%TO.P,R7,2*%
%TO.N,/QSPI_SS*%
X64502500Y-45825000D03*
%TD*%
D12*
%TO.P,H3,1*%
%TO.N,N/C*%
X65500000Y-65500000D03*
%TD*%
D18*
%TO.P,U4,1,~{CS}*%
%TO.N,/QSPI_SS*%
X62905000Y-46400000D03*
%TO.P,U4,2,DO(IO1)*%
%TO.N,/QSPI_SD1*%
X61635000Y-46400000D03*
%TO.P,U4,3,IO2*%
%TO.N,/QSPI_SD2*%
X60365000Y-46400000D03*
%TO.P,U4,4,GND*%
%TO.N,GND*%
X59095000Y-46400000D03*
%TO.P,U4,5,DI(IO0)*%
%TO.N,/QSPI_SD0*%
X59095000Y-53600000D03*
%TO.P,U4,6,CLK*%
%TO.N,/QSPI_SCK*%
X60365000Y-53600000D03*
%TO.P,U4,7,IO3*%
%TO.N,/QSPI_SD3*%
X61635000Y-53600000D03*
%TO.P,U4,8,VCC*%
%TO.N,+3.3V*%
X62905000Y-53600000D03*
%TD*%
D10*
%TO.P,C7,1*%
%TO.N,GND*%
X48323717Y-56726283D03*
%TO.P,C7,2*%
%TO.N,+3.3V*%
X49126283Y-55923717D03*
%TD*%
D19*
%TO.P,C1,1*%
%TO.N,VBUS*%
X38275000Y-63425000D03*
%TO.P,C1,2*%
%TO.N,GND*%
X38275000Y-65150000D03*
%TD*%
D20*
%TO.P,C25,1*%
%TO.N,VBUS*%
X42300000Y-29900000D03*
%TO.P,C25,2*%
%TO.N,GND*%
X41165000Y-29900000D03*
%TD*%
D17*
%TO.P,R6,1*%
%TO.N,/USB_DN*%
X41525000Y-53675000D03*
%TO.P,R6,2*%
%TO.N,/USB_D-*%
X40330000Y-53675000D03*
%TD*%
D21*
%TO.P,C15,1*%
%TO.N,GND*%
X43881217Y-45698717D03*
%TO.P,C15,2*%
%TO.N,+1V1*%
X44683783Y-46501283D03*
%TD*%
D15*
%TO.P,R3,1*%
%TO.N,Net-(J2-CC1)*%
X29925000Y-62852500D03*
%TO.P,R3,2*%
%TO.N,GND*%
X29925000Y-64047500D03*
%TD*%
D22*
%TO.P,C22,1*%
%TO.N,VBUS*%
X63637500Y-42000000D03*
%TO.P,C22,2*%
%TO.N,GND*%
X58362500Y-42000000D03*
%TD*%
D23*
%TO.P,J5,1,Pin_1*%
%TO.N,/CAN_H*%
X53740000Y-60850000D03*
D24*
%TO.P,J5,2,Pin_2*%
%TO.N,Net-(J5-Pin_2)*%
X51200000Y-60850000D03*
%TD*%
D25*
%TO.P,J4,1,Pin_1*%
%TO.N,/A2*%
X53000000Y-36725000D03*
%TO.P,J4,2,Pin_2*%
%TO.N,/A1*%
X51000000Y-36725000D03*
%TO.P,J4,3,Pin_3*%
%TO.N,/B2*%
X49000000Y-36725000D03*
%TO.P,J4,4,Pin_4*%
%TO.N,/B1*%
X47000000Y-36725000D03*
D26*
%TO.P,J4,MP*%
%TO.N,N/C*%
X55350000Y-30975000D03*
X44650000Y-30975000D03*
%TD*%
D27*
%TO.P,Y1,1,1*%
%TO.N,Net-(C19-Pad2)*%
X47123223Y-44403858D03*
%TO.P,Y1,2,2*%
%TO.N,GND*%
X48678858Y-42848223D03*
%TO.P,Y1,3,3*%
%TO.N,/XIN*%
X47476777Y-41646142D03*
%TO.P,Y1,4,4*%
%TO.N,GND*%
X45921142Y-43201777D03*
%TD*%
D28*
%TO.P,C4,1*%
%TO.N,Net-(U1-VOUT)*%
X40850000Y-56100000D03*
%TO.P,C4,2*%
%TO.N,GND*%
X42575000Y-56100000D03*
%TD*%
D29*
%TO.P,C17,1*%
%TO.N,+3.3V*%
X64450000Y-53560000D03*
%TO.P,C17,2*%
%TO.N,GND*%
X64450000Y-52425000D03*
%TD*%
D13*
%TO.P,R5,1*%
%TO.N,/USB_D+*%
X40330000Y-54675000D03*
%TO.P,R5,2*%
%TO.N,/USB_DP*%
X41525000Y-54675000D03*
%TD*%
D21*
%TO.P,C19,1*%
%TO.N,GND*%
X44372434Y-44047434D03*
%TO.P,C19,2*%
%TO.N,Net-(C19-Pad2)*%
X45175000Y-44850000D03*
%TD*%
D10*
%TO.P,C8,1*%
%TO.N,GND*%
X44398717Y-52726283D03*
%TO.P,C8,2*%
%TO.N,+3.3V*%
X45201283Y-51923717D03*
%TD*%
D11*
%TO.P,C13,1*%
%TO.N,GND*%
X56151283Y-47523717D03*
%TO.P,C13,2*%
%TO.N,+3.3V*%
X55348717Y-48326283D03*
%TD*%
D30*
%TO.P,D3,1,A*%
%TO.N,/VUSB*%
X45050000Y-58175000D03*
%TO.P,D3,2,A*%
%TO.N,Net-(U1-VOUT)*%
X43150000Y-58175000D03*
%TO.P,D3,3,K*%
%TO.N,+5V*%
X44100000Y-61175000D03*
%TD*%
D31*
%TO.P,J1,1,Pin_1*%
%TO.N,VBUS*%
X41500000Y-64500000D03*
D32*
%TO.P,J1,2,Pin_2*%
%TO.N,/CAN_H*%
X43500000Y-64500000D03*
%TO.P,J1,3,Pin_3*%
%TO.N,/CAN_L*%
X45500000Y-64500000D03*
%TO.P,J1,4,Pin_4*%
%TO.N,GND*%
X47500000Y-64500000D03*
%TD*%
D12*
%TO.P,H2,1*%
%TO.N,N/C*%
X65500000Y-34500000D03*
%TD*%
D33*
%TO.P,U2,1,ADJ*%
%TO.N,GND*%
X32100000Y-48875000D03*
%TO.P,U2,2,VO*%
%TO.N,+3.3V*%
X32100000Y-50775000D03*
%TO.P,U2,3,VI*%
%TO.N,+5V*%
X35100000Y-49825000D03*
%TD*%
D34*
%TO.P,SW2,1,1*%
%TO.N,GND*%
X68875000Y-51700000D03*
%TO.P,SW2,2,2*%
%TO.N,/RUN*%
X68875000Y-48300000D03*
%TD*%
D21*
%TO.P,C9,1*%
%TO.N,GND*%
X42473717Y-47123717D03*
%TO.P,C9,2*%
%TO.N,+3.3V*%
X43276283Y-47926283D03*
%TD*%
D35*
%TO.P,C5,1*%
%TO.N,+3.3V*%
X30100000Y-50700000D03*
%TO.P,C5,2*%
%TO.N,GND*%
X30100000Y-48975000D03*
%TD*%
D36*
%TO.P,C24,1*%
%TO.N,VBUS*%
X63832500Y-29750000D03*
%TO.P,C24,2*%
%TO.N,GND*%
X64967500Y-29750000D03*
%TD*%
D10*
%TO.P,C12,1*%
%TO.N,GND*%
X45073717Y-53401283D03*
%TO.P,C12,2*%
%TO.N,+3.3V*%
X45876283Y-52598717D03*
%TD*%
D37*
%TO.P,R10,1*%
%TO.N,/CAN_L*%
X48900000Y-61522500D03*
%TO.P,R10,2*%
%TO.N,Net-(J5-Pin_2)*%
X48900000Y-60327500D03*
%TD*%
D14*
%TO.P,R12,1*%
%TO.N,/SCL*%
X53952504Y-46922496D03*
%TO.P,R12,2*%
%TO.N,+3.3V*%
X54797496Y-46077504D03*
%TD*%
D12*
%TO.P,H1,1*%
%TO.N,N/C*%
X34500000Y-34500000D03*
%TD*%
D38*
%TO.P,U5,1,TXD*%
%TO.N,/CAN_TX*%
X60155000Y-56475000D03*
%TO.P,U5,2,GND*%
%TO.N,GND*%
X58885000Y-56475000D03*
%TO.P,U5,3,VCC*%
%TO.N,+5V*%
X57615000Y-56475000D03*
%TO.P,U5,4,RXD*%
%TO.N,/CAN_RX*%
X56345000Y-56475000D03*
%TO.P,U5,5,VREF*%
%TO.N,unconnected-(U5-VREF-Pad5)*%
X56345000Y-61425000D03*
%TO.P,U5,6,CANL*%
%TO.N,/CAN_L*%
X57615000Y-61425000D03*
%TO.P,U5,7,CANH*%
%TO.N,/CAN_H*%
X58885000Y-61425000D03*
%TO.P,U5,8,S*%
%TO.N,/CAN_S*%
X60155000Y-61425000D03*
%TD*%
D13*
%TO.P,R14,1*%
%TO.N,/B_CURRENT*%
X51827500Y-39575000D03*
%TO.P,R14,2*%
%TO.N,GND*%
X53022500Y-39575000D03*
%TD*%
D20*
%TO.P,C3,1*%
%TO.N,+3.3V*%
X31135000Y-37800000D03*
%TO.P,C3,2*%
%TO.N,GND*%
X30000000Y-37800000D03*
%TD*%
D39*
%TO.P,R9,1*%
%TO.N,Net-(C19-Pad2)*%
X45902504Y-45577504D03*
%TO.P,R9,2*%
%TO.N,/XOUT*%
X46747496Y-46422496D03*
%TD*%
D40*
%TO.P,J2,A1,GND*%
%TO.N,GND*%
X36600000Y-53800000D03*
%TO.P,J2,A4,VBUS*%
%TO.N,/VUSB*%
X36600000Y-54600000D03*
D41*
%TO.P,J2,A5,CC1*%
%TO.N,Net-(J2-CC1)*%
X36600000Y-55750000D03*
%TO.P,J2,A6,D+*%
%TO.N,/USB_D+*%
X36600000Y-56750000D03*
%TO.P,J2,A7,D-*%
%TO.N,/USB_D-*%
X36600000Y-57250000D03*
%TO.P,J2,A8,SBU1*%
%TO.N,unconnected-(J2-SBU1-PadA8)*%
X36600000Y-58250000D03*
D40*
%TO.P,J2,A9,VBUS*%
%TO.N,/VUSB*%
X36600000Y-59400000D03*
%TO.P,J2,A12,GND*%
%TO.N,GND*%
X36600000Y-60200000D03*
%TO.P,J2,B1,GND*%
X36600000Y-60200000D03*
%TO.P,J2,B4,VBUS*%
%TO.N,/VUSB*%
X36600000Y-59400000D03*
D41*
%TO.P,J2,B5,CC2*%
%TO.N,Net-(J2-CC2)*%
X36600000Y-58750000D03*
%TO.P,J2,B6,D+*%
%TO.N,/USB_D+*%
X36600000Y-57750000D03*
%TO.P,J2,B7,D-*%
%TO.N,/USB_D-*%
X36600000Y-56250000D03*
%TO.P,J2,B8,SBU2*%
%TO.N,unconnected-(J2-SBU2-PadB8)*%
X36600000Y-55250000D03*
D40*
%TO.P,J2,B9,VBUS*%
%TO.N,/VUSB*%
X36600000Y-54600000D03*
%TO.P,J2,B12,GND*%
%TO.N,GND*%
X36600000Y-53800000D03*
D42*
%TO.P,J2,S1,SHIELD*%
X36000000Y-52680000D03*
D43*
X31800000Y-52680000D03*
D42*
X36000000Y-61320000D03*
D43*
X31800000Y-61320000D03*
%TD*%
D44*
%TO.P,C16,1*%
%TO.N,GND*%
X54476283Y-54176283D03*
%TO.P,C16,2*%
%TO.N,+1V1*%
X53673717Y-53373717D03*
%TD*%
D17*
%TO.P,R4,1*%
%TO.N,+3.3V*%
X70020000Y-47075000D03*
%TO.P,R4,2*%
%TO.N,/RUN*%
X68825000Y-47075000D03*
%TD*%
D34*
%TO.P,SW1,1,1*%
%TO.N,GND*%
X68875000Y-40300000D03*
%TO.P,SW1,2,2*%
%TO.N,/~{USB_BOOT}*%
X68875000Y-43700000D03*
%TD*%
D16*
%TO.P,D1,1,VDD*%
%TO.N,+3.3V*%
X33650000Y-39550000D03*
%TO.P,D1,2,DOUT*%
%TO.N,Net-(D1-DOUT)*%
X30350000Y-39550000D03*
%TO.P,D1,3,VSS*%
%TO.N,GND*%
X30350000Y-44450000D03*
%TO.P,D1,4,DIN*%
%TO.N,Net-(D1-DIN)*%
X33650000Y-44450000D03*
%TD*%
D21*
%TO.P,C14,1*%
%TO.N,GND*%
X43223717Y-46348717D03*
%TO.P,C14,2*%
%TO.N,+1V1*%
X44026283Y-47151283D03*
%TD*%
D45*
%TO.P,U7,1,IPROPI*%
%TO.N,/A_CURRENT*%
X57595000Y-37700000D03*
%TO.P,U7,2,IN2*%
%TO.N,/A2_PWM*%
X58865000Y-37700000D03*
%TO.P,U7,3,IN1*%
%TO.N,/A1_PWM*%
X60135000Y-37700000D03*
%TO.P,U7,4,VREF*%
%TO.N,+3.3V*%
X61405000Y-37700000D03*
%TO.P,U7,5,VM*%
%TO.N,VBUS*%
X61405000Y-32300000D03*
%TO.P,U7,6,OUT1*%
%TO.N,/A1*%
X60135000Y-32300000D03*
%TO.P,U7,7,GND*%
%TO.N,GND*%
X58865000Y-32300000D03*
%TO.P,U7,8,OUT2*%
%TO.N,/A2*%
X57595000Y-32300000D03*
D46*
%TO.P,U7,9,GND*%
%TO.N,GND*%
X57550000Y-35650000D03*
X58850000Y-35650000D03*
X60150000Y-35650000D03*
X61450000Y-35650000D03*
D47*
X59500000Y-35000000D03*
D46*
X57550000Y-34350000D03*
X58850000Y-34350000D03*
X60150000Y-34350000D03*
X61450000Y-34350000D03*
%TD*%
D48*
%TO.P,C2,1*%
%TO.N,+5V*%
X35412500Y-47275000D03*
%TO.P,C2,2*%
%TO.N,GND*%
X33687500Y-47275000D03*
%TD*%
D31*
%TO.P,J3,1,Pin_1*%
%TO.N,VBUS*%
X52500000Y-64500000D03*
D32*
%TO.P,J3,2,Pin_2*%
%TO.N,/CAN_H*%
X54500000Y-64500000D03*
%TO.P,J3,3,Pin_3*%
%TO.N,/CAN_L*%
X56500000Y-64500000D03*
%TO.P,J3,4,Pin_4*%
%TO.N,GND*%
X58500000Y-64500000D03*
%TD*%
D45*
%TO.P,U8,1,IPROPI*%
%TO.N,/B_CURRENT*%
X38595000Y-37700000D03*
%TO.P,U8,2,IN2*%
%TO.N,/B2_PWM*%
X39865000Y-37700000D03*
%TO.P,U8,3,IN1*%
%TO.N,/B1_PWM*%
X41135000Y-37700000D03*
%TO.P,U8,4,VREF*%
%TO.N,+3.3V*%
X42405000Y-37700000D03*
%TO.P,U8,5,VM*%
%TO.N,VBUS*%
X42405000Y-32300000D03*
%TO.P,U8,6,OUT1*%
%TO.N,/B1*%
X41135000Y-32300000D03*
%TO.P,U8,7,GND*%
%TO.N,GND*%
X39865000Y-32300000D03*
%TO.P,U8,8,OUT2*%
%TO.N,/B2*%
X38595000Y-32300000D03*
D46*
%TO.P,U8,9,GND*%
%TO.N,GND*%
X38550000Y-35650000D03*
X39850000Y-35650000D03*
X41150000Y-35650000D03*
X42450000Y-35650000D03*
D47*
X40500000Y-35000000D03*
D46*
X38550000Y-34350000D03*
X39850000Y-34350000D03*
X41150000Y-34350000D03*
X42450000Y-34350000D03*
%TD*%
D10*
%TO.P,C11,1*%
%TO.N,GND*%
X47648717Y-56051283D03*
%TO.P,C11,2*%
%TO.N,+3.3V*%
X48451283Y-55248717D03*
%TD*%
D49*
%TO.P,C23,1*%
%TO.N,VBUS*%
X36362500Y-42000000D03*
%TO.P,C23,2*%
%TO.N,GND*%
X41637500Y-42000000D03*
%TD*%
D50*
%TO.P,U1,1,VIN*%
%TO.N,VBUS*%
X39600000Y-61350000D03*
%TO.P,U1,2,GND*%
%TO.N,GND*%
X40550000Y-61350000D03*
%TO.P,U1,3,EN*%
%TO.N,VBUS*%
X41500000Y-61350000D03*
%TO.P,U1,4*%
%TO.N,N/C*%
X41500000Y-58650000D03*
%TO.P,U1,5,VOUT*%
%TO.N,Net-(U1-VOUT)*%
X39600000Y-58650000D03*
%TD*%
D20*
%TO.P,C6,1*%
%TO.N,+3.3V*%
X68492500Y-53875000D03*
%TO.P,C6,2*%
%TO.N,GND*%
X67357500Y-53875000D03*
%TD*%
D51*
%TO.P,C21,1*%
%TO.N,+5V*%
X61475000Y-58032500D03*
%TO.P,C21,2*%
%TO.N,GND*%
X61475000Y-59167500D03*
%TD*%
D52*
%TO.P,U3,1,IOVDD*%
%TO.N,+3.3V*%
X54269157Y-49407798D03*
%TO.P,U3,2,GPIO0*%
%TO.N,/CAN_TX*%
X53986314Y-49124955D03*
%TO.P,U3,3,GPIO1*%
%TO.N,/CAN_RX*%
X53703472Y-48842113D03*
%TO.P,U3,4,GPIO2*%
%TO.N,/SDA*%
X53420629Y-48559270D03*
%TO.P,U3,5,GPIO3*%
%TO.N,/SCL*%
X53137786Y-48276427D03*
%TO.P,U3,6,GPIO4*%
%TO.N,unconnected-(U3-GPIO4-Pad6)*%
X52854944Y-47993585D03*
%TO.P,U3,7,GPIO5*%
%TO.N,unconnected-(U3-GPIO5-Pad7)*%
X52572101Y-47710742D03*
%TO.P,U3,8,GPIO6*%
%TO.N,/A1_PWM*%
X52289258Y-47427899D03*
%TO.P,U3,9,GPIO7*%
%TO.N,/A2_PWM*%
X52006415Y-47145056D03*
%TO.P,U3,10,IOVDD*%
%TO.N,+3.3V*%
X51723573Y-46862214D03*
%TO.P,U3,11,GPIO8*%
%TO.N,/B1_PWM*%
X51440730Y-46579371D03*
%TO.P,U3,12,GPIO9*%
%TO.N,/B2_PWM*%
X51157887Y-46296528D03*
%TO.P,U3,13,GPIO10*%
%TO.N,unconnected-(U3-GPIO10-Pad13)*%
X50875045Y-46013686D03*
%TO.P,U3,14,GPIO11*%
%TO.N,unconnected-(U3-GPIO11-Pad14)*%
X50592202Y-45730843D03*
D53*
%TO.P,U3,15,GPIO12*%
%TO.N,/MT6701_PUSH*%
X49407798Y-45730843D03*
%TO.P,U3,16,GPIO13*%
%TO.N,unconnected-(U3-GPIO13-Pad16)*%
X49124955Y-46013686D03*
%TO.P,U3,17,GPIO14*%
%TO.N,/NEOPIXEL*%
X48842113Y-46296528D03*
%TO.P,U3,18,GPIO15*%
%TO.N,unconnected-(U3-GPIO15-Pad18)*%
X48559270Y-46579371D03*
%TO.P,U3,19,TESTEN*%
%TO.N,GND*%
X48276427Y-46862214D03*
%TO.P,U3,20,XIN*%
%TO.N,/XIN*%
X47993585Y-47145056D03*
%TO.P,U3,21,XOUT*%
%TO.N,/XOUT*%
X47710742Y-47427899D03*
%TO.P,U3,22,IOVDD*%
%TO.N,+3.3V*%
X47427899Y-47710742D03*
%TO.P,U3,23,DVDD*%
%TO.N,+1V1*%
X47145056Y-47993585D03*
%TO.P,U3,24,SWCLK*%
%TO.N,unconnected-(U3-SWCLK-Pad24)*%
X46862214Y-48276427D03*
%TO.P,U3,25,SWD*%
%TO.N,unconnected-(U3-SWD-Pad25)*%
X46579371Y-48559270D03*
%TO.P,U3,26,RUN*%
%TO.N,/RUN*%
X46296528Y-48842113D03*
%TO.P,U3,27,GPIO16*%
%TO.N,/CAN_S*%
X46013686Y-49124955D03*
%TO.P,U3,28,GPIO17*%
%TO.N,unconnected-(U3-GPIO17-Pad28)*%
X45730843Y-49407798D03*
D52*
%TO.P,U3,29,GPIO18*%
%TO.N,unconnected-(U3-GPIO18-Pad29)*%
X45730843Y-50592202D03*
%TO.P,U3,30,GPIO19*%
%TO.N,unconnected-(U3-GPIO19-Pad30)*%
X46013686Y-50875045D03*
%TO.P,U3,31,GPIO20*%
%TO.N,unconnected-(U3-GPIO20-Pad31)*%
X46296528Y-51157887D03*
%TO.P,U3,32,GPIO21*%
%TO.N,unconnected-(U3-GPIO21-Pad32)*%
X46579371Y-51440730D03*
%TO.P,U3,33,IOVDD*%
%TO.N,+3.3V*%
X46862214Y-51723573D03*
%TO.P,U3,34,GPIO22*%
%TO.N,unconnected-(U3-GPIO22-Pad34)*%
X47145056Y-52006415D03*
%TO.P,U3,35,GPIO23*%
%TO.N,unconnected-(U3-GPIO23-Pad35)*%
X47427899Y-52289258D03*
%TO.P,U3,36,GPIO24*%
%TO.N,unconnected-(U3-GPIO24-Pad36)*%
X47710742Y-52572101D03*
%TO.P,U3,37,GPIO25*%
%TO.N,unconnected-(U3-GPIO25-Pad37)*%
X47993585Y-52854944D03*
%TO.P,U3,38,GPIO26_ADC0*%
%TO.N,/A_CURRENT*%
X48276427Y-53137786D03*
%TO.P,U3,39,GPIO27_ADC1*%
%TO.N,/B_CURRENT*%
X48559270Y-53420629D03*
%TO.P,U3,40,GPIO28_ADC2*%
%TO.N,/MT6701_ANALOG*%
X48842113Y-53703472D03*
%TO.P,U3,41,GPIO29_ADC3*%
%TO.N,unconnected-(U3-GPIO29_ADC3-Pad41)*%
X49124955Y-53986314D03*
%TO.P,U3,42,IOVDD*%
%TO.N,+3.3V*%
X49407798Y-54269157D03*
D53*
%TO.P,U3,43,ADC_AVDD*%
X50592202Y-54269157D03*
%TO.P,U3,44,VREG_IN*%
X50875045Y-53986314D03*
%TO.P,U3,45,VREG_VOUT*%
%TO.N,+1V1*%
X51157887Y-53703472D03*
%TO.P,U3,46,USB_DM*%
%TO.N,/USB_DN*%
X51440730Y-53420629D03*
%TO.P,U3,47,USB_DP*%
%TO.N,/USB_DP*%
X51723573Y-53137786D03*
%TO.P,U3,48,USB_VDD*%
%TO.N,+3.3V*%
X52006415Y-52854944D03*
%TO.P,U3,49,IOVDD*%
X52289258Y-52572101D03*
%TO.P,U3,50,DVDD*%
%TO.N,+1V1*%
X52572101Y-52289258D03*
%TO.P,U3,51,QSPI_SD3*%
%TO.N,/QSPI_SD3*%
X52854944Y-52006415D03*
%TO.P,U3,52,QSPI_SCLK*%
%TO.N,/QSPI_SCK*%
X53137786Y-51723573D03*
%TO.P,U3,53,QSPI_SD0*%
%TO.N,/QSPI_SD0*%
X53420629Y-51440730D03*
%TO.P,U3,54,QSPI_SD2*%
%TO.N,/QSPI_SD2*%
X53703472Y-51157887D03*
%TO.P,U3,55,QSPI_SD1*%
%TO.N,/QSPI_SD1*%
X53986314Y-50875045D03*
%TO.P,U3,56,QSPI_SS*%
%TO.N,/QSPI_SS*%
X54269157Y-50592202D03*
D54*
%TO.P,U3,57,GND*%
%TO.N,GND*%
X50000000Y-50000000D03*
%TD*%
D17*
%TO.P,R13,1*%
%TO.N,/A_CURRENT*%
X55272500Y-39575000D03*
%TO.P,R13,2*%
%TO.N,GND*%
X54077500Y-39575000D03*
%TD*%
D55*
%TO.N,+3.3V*%
X55475000Y-46750000D03*
D56*
X48451283Y-55248717D03*
D57*
X29950000Y-52100000D03*
X42450000Y-37725000D03*
D56*
X47336971Y-51248815D03*
X55325978Y-48350978D03*
D57*
X49950000Y-54675000D03*
D55*
X66525000Y-46575000D03*
D56*
X43275000Y-47950000D03*
D57*
X30112500Y-50712500D03*
D56*
X51904999Y-52575000D03*
X49126283Y-55923717D03*
D57*
X70100000Y-46275000D03*
D56*
X51551283Y-55098717D03*
X62905000Y-53600000D03*
D55*
X33650000Y-39550000D03*
D56*
X51480259Y-47800908D03*
X52723717Y-45750000D03*
X64467500Y-53600000D03*
X45201283Y-51923717D03*
D55*
X69650000Y-55550000D03*
D56*
X45876283Y-52598717D03*
D57*
X33325000Y-49775000D03*
D56*
X48130136Y-48699999D03*
D57*
X61475000Y-37650000D03*
X32100000Y-50775000D03*
%TO.N,GND*%
X50000000Y-51000000D03*
D55*
X49675000Y-43825000D03*
X55200000Y-55975000D03*
X68875000Y-51700000D03*
X39375000Y-56875000D03*
X66350000Y-60450000D03*
X36975000Y-37975000D03*
X31850000Y-54975000D03*
X56850000Y-44725000D03*
X46600000Y-60450000D03*
D57*
X41637500Y-42000000D03*
D55*
X33600000Y-30250000D03*
X42875000Y-49375000D03*
X50000000Y-63775000D03*
X55200000Y-36075000D03*
X54476283Y-54176283D03*
X36600000Y-69425000D03*
X42575000Y-56100000D03*
X30450000Y-33250000D03*
D57*
X40549999Y-60373289D03*
D55*
X33950000Y-60175000D03*
X58850000Y-55650000D03*
X57025000Y-52200000D03*
X61725000Y-62000000D03*
X68900000Y-50025000D03*
X50075000Y-56925000D03*
X53400000Y-42200000D03*
D57*
X51000000Y-50000000D03*
D55*
X68775000Y-37800000D03*
X67900000Y-58100000D03*
D57*
X39865000Y-32300000D03*
D55*
X38175000Y-49475000D03*
X48678858Y-42848223D03*
X43525000Y-68075000D03*
X66550000Y-29975000D03*
X31850000Y-46775000D03*
X37350000Y-31925000D03*
X60875000Y-49850000D03*
D57*
X49000000Y-50000000D03*
X58865000Y-32300000D03*
D55*
X42900000Y-52875000D03*
D57*
X58362500Y-42000000D03*
X50000000Y-50000000D03*
D55*
%TO.N,+1V1*%
X44683783Y-46501283D03*
X47451485Y-48871562D03*
X44026283Y-47151283D03*
X52157530Y-51207761D03*
D57*
%TO.N,VBUS*%
X63637500Y-42000000D03*
X61405000Y-32300000D03*
X36362500Y-42000000D03*
X42362500Y-29900000D03*
X42309881Y-32750000D03*
%TO.N,/B2*%
X49000000Y-36600000D03*
X38595000Y-32800000D03*
X38595000Y-31800000D03*
%TO.N,/B1*%
X41135000Y-31800000D03*
X47000000Y-36600000D03*
X41135000Y-32800000D03*
%TO.N,/A2*%
X57595000Y-31800000D03*
X53000000Y-36600000D03*
X57595000Y-32800000D03*
%TO.N,/A1*%
X60135000Y-32800000D03*
X51000000Y-36600000D03*
X60135000Y-31800000D03*
D56*
%TO.N,/NEOPIXEL*%
X34247500Y-46075000D03*
D55*
X49980879Y-46342168D03*
D56*
%TO.N,/QSPI_SS*%
X62905000Y-46400000D03*
X57366906Y-48641906D03*
%TO.N,/RUN*%
X69000000Y-48300000D03*
X45700000Y-48300000D03*
%TO.N,/A_CURRENT*%
X47609997Y-54150000D03*
X55272500Y-39575000D03*
%TO.N,/B_CURRENT*%
X48100000Y-54150000D03*
D57*
X38575000Y-37675000D03*
X51827500Y-39575000D03*
%TO.N,+5V*%
X57650000Y-57150000D03*
X33750000Y-58200000D03*
X44125000Y-61925000D03*
D56*
%TO.N,/SCL*%
X50635000Y-47425000D03*
%TO.N,/MT6701_PUSH*%
X49525000Y-45650000D03*
%TO.N,/SDA*%
X52225000Y-49075000D03*
%TO.N,/CAN_TX*%
X60155000Y-56475000D03*
X53370756Y-49768219D03*
D55*
%TO.N,/CAN_S*%
X46400000Y-58075000D03*
D56*
X45325000Y-48725000D03*
%TO.N,/CAN_RX*%
X56345000Y-56475000D03*
X52825000Y-49700000D03*
D55*
%TO.N,/MT6701_ANALOG*%
X49350000Y-53225000D03*
D57*
%TO.N,/VUSB*%
X42100000Y-59925000D03*
D55*
X37447981Y-59344999D03*
X37447982Y-54655001D03*
%TO.N,Net-(D1-DOUT)*%
X69650000Y-60450000D03*
X30325000Y-38850000D03*
D57*
%TO.N,/CAN_L*%
X57615000Y-61425000D03*
%TD*%
D58*
%TO.N,+3.3V*%
X62905000Y-53600000D02*
X64467500Y-53600000D01*
X31100000Y-50775000D02*
X30175000Y-50775000D01*
D59*
X55325978Y-48350978D02*
X55325977Y-48350978D01*
D58*
X61425000Y-37700000D02*
X61475000Y-37650000D01*
D59*
X54797496Y-46077504D02*
X54802504Y-46077504D01*
D60*
X46862214Y-51723573D02*
X46862214Y-51723572D01*
D58*
X31135000Y-37800000D02*
X31900000Y-37800000D01*
X30175000Y-50775000D02*
X30112500Y-50712500D01*
D59*
X52289258Y-52572101D02*
X51907898Y-52572101D01*
D58*
X70145000Y-46320000D02*
X70100000Y-46275000D01*
X30112500Y-50712500D02*
X30112500Y-51937500D01*
D59*
X49407798Y-54269157D02*
X50592202Y-54269157D01*
X55348717Y-48328238D02*
X55325978Y-48350977D01*
D60*
X46862214Y-51723572D02*
X47336971Y-51248815D01*
D58*
X32100000Y-50775000D02*
X31100000Y-50775000D01*
D59*
X51907898Y-52572101D02*
X51904999Y-52575000D01*
X55325978Y-48350977D02*
X55325978Y-48350978D01*
D58*
X30112500Y-51937500D02*
X29950000Y-52100000D01*
D59*
X48451283Y-55225672D02*
X49407798Y-54269157D01*
D60*
X51371076Y-47691725D02*
X51480259Y-47800908D01*
D59*
X48451283Y-55248717D02*
X48451283Y-55225672D01*
D58*
X32100000Y-50775000D02*
X32325000Y-50775000D01*
X69650000Y-55550000D02*
X69650000Y-55032500D01*
D59*
X55348717Y-48326283D02*
X55348717Y-48328238D01*
X43276283Y-47926283D02*
X43276283Y-47948717D01*
D58*
X66325000Y-46775000D02*
X66525000Y-46575000D01*
D60*
X47427899Y-47710742D02*
X48130136Y-48412979D01*
D58*
X70145000Y-47075000D02*
X70145000Y-46320000D01*
D60*
X51723573Y-46862214D02*
X51371076Y-47214711D01*
D59*
X55325977Y-48350978D02*
X54269157Y-49407798D01*
D60*
X46751427Y-51723573D02*
X45876283Y-52598717D01*
D59*
X50592202Y-54269157D02*
X50875045Y-53986314D01*
D58*
X65697500Y-46775000D02*
X66325000Y-46775000D01*
D60*
X52723717Y-45862070D02*
X52723717Y-45750000D01*
D59*
X45201283Y-51923717D02*
X45876283Y-52598717D01*
D58*
X31900000Y-37800000D02*
X33650000Y-39550000D01*
X30112500Y-50712500D02*
X30100000Y-50700000D01*
D60*
X46862214Y-51723573D02*
X46751427Y-51723573D01*
D59*
X54802504Y-46077504D02*
X55475000Y-46750000D01*
D58*
X32325000Y-50775000D02*
X33325000Y-49775000D01*
D60*
X48130136Y-48412979D02*
X48130136Y-48699999D01*
D59*
X43276283Y-47948717D02*
X43275000Y-47950000D01*
X52289258Y-52572101D02*
X52006417Y-52854942D01*
D58*
X69650000Y-55032500D02*
X68492500Y-53875000D01*
D60*
X51723573Y-46862214D02*
X52723717Y-45862070D01*
X52723717Y-45750000D02*
X52723717Y-45676283D01*
X51371076Y-47214711D02*
X51371076Y-47691725D01*
D58*
%TO.N,GND*%
X39865000Y-34335000D02*
X39850000Y-34350000D01*
D59*
X58885000Y-55685000D02*
X58850000Y-55650000D01*
D58*
X58865000Y-34335000D02*
X58850000Y-34350000D01*
D59*
X58885000Y-56475000D02*
X58885000Y-55685000D01*
X48276427Y-46862214D02*
X50000000Y-48585787D01*
X50000000Y-48585787D02*
X50000000Y-49000000D01*
D58*
X40550000Y-60373290D02*
X40549999Y-60373289D01*
X39865000Y-32300000D02*
X39865000Y-34335000D01*
X40550000Y-61350000D02*
X40550000Y-60373290D01*
X58865000Y-32300000D02*
X58865000Y-34335000D01*
D59*
%TO.N,+1V1*%
X52572101Y-52289258D02*
X52589258Y-52289258D01*
X47145056Y-47993585D02*
X47451485Y-48300014D01*
X47145056Y-47993585D02*
X45652754Y-46501283D01*
X44026283Y-47151283D02*
X46302754Y-47151283D01*
X51157887Y-53703472D02*
X50775000Y-53320585D01*
X52589258Y-52289258D02*
X53673717Y-53373717D01*
X52157530Y-51874687D02*
X52572101Y-52289258D01*
X46302754Y-47151283D02*
X47145056Y-47993585D01*
X47451485Y-48300014D02*
X47451485Y-48871562D01*
X45652754Y-46501283D02*
X44683783Y-46501283D01*
X50775000Y-52590291D02*
X52157530Y-51207761D01*
X50775000Y-53320585D02*
X50775000Y-52590291D01*
X52157530Y-51207761D02*
X52157530Y-51874687D01*
D60*
%TO.N,/XIN*%
X47993585Y-47145056D02*
X47400000Y-46551471D01*
X47400000Y-46551471D02*
X47400000Y-45208955D01*
X47476777Y-41646142D02*
X46854352Y-41023717D01*
X46854352Y-41023717D02*
X46176283Y-41023717D01*
X47476777Y-43025002D02*
X47476777Y-41646142D01*
X47400000Y-45208955D02*
X48225000Y-44383955D01*
X48225000Y-44383955D02*
X48225000Y-43773225D01*
X48225000Y-43773225D02*
X47476777Y-43025002D01*
D58*
%TO.N,VBUS*%
X62680000Y-29750000D02*
X61405000Y-31025000D01*
X39600000Y-61350000D02*
X39600000Y-62600000D01*
X39600000Y-62600000D02*
X41500000Y-64500000D01*
X42362500Y-30000000D02*
X42362500Y-29900000D01*
X41500000Y-64500000D02*
X41500000Y-61350000D01*
X61405000Y-31025000D02*
X61405000Y-32300000D01*
X42362500Y-32697381D02*
X42309881Y-32750000D01*
X39600000Y-62100000D02*
X38275000Y-63425000D01*
X42362500Y-30000000D02*
X42362500Y-32697381D01*
X39600000Y-61350000D02*
X39600000Y-62100000D01*
X63832500Y-29750000D02*
X62680000Y-29750000D01*
D61*
%TO.N,/USB_D+*%
X37370000Y-56750000D02*
X37470000Y-56850000D01*
X36625000Y-56775000D02*
X38007818Y-56775000D01*
X37375000Y-57750000D02*
X36600000Y-57750000D01*
X36600000Y-56750000D02*
X36625000Y-56775000D01*
X40107818Y-54675000D02*
X40330000Y-54675000D01*
X37470000Y-56850000D02*
X37470000Y-57655000D01*
X36600000Y-56750000D02*
X37370000Y-56750000D01*
X37470000Y-57655000D02*
X37375000Y-57750000D01*
X38007818Y-56775000D02*
X40107818Y-54675000D01*
D59*
%TO.N,Net-(J2-CC2)*%
X30215000Y-61045122D02*
X30215000Y-62142500D01*
X34118651Y-59090000D02*
X32170122Y-59090000D01*
X36600000Y-58750000D02*
X34458651Y-58750000D01*
X34458651Y-58750000D02*
X34118651Y-59090000D01*
X32170122Y-59090000D02*
X30215000Y-61045122D01*
X30215000Y-62142500D02*
X30925000Y-62852500D01*
%TO.N,Net-(J2-CC1)*%
X29925000Y-60925000D02*
X32050000Y-58800000D01*
X29925000Y-62852500D02*
X29925000Y-60925000D01*
X34350000Y-57225000D02*
X35825000Y-55750000D01*
X32050000Y-58800000D02*
X33998529Y-58800000D01*
X34350000Y-58448529D02*
X34350000Y-57225000D01*
X33998529Y-58800000D02*
X34350000Y-58448529D01*
X35825000Y-55750000D02*
X36600000Y-55750000D01*
D61*
%TO.N,/USB_D-*%
X35830000Y-57250000D02*
X36600000Y-57250000D01*
X36600000Y-56250000D02*
X35830000Y-56250000D01*
X37780000Y-56225000D02*
X40330000Y-53675000D01*
X35725000Y-56355000D02*
X35725000Y-57145000D01*
X35830000Y-56250000D02*
X35725000Y-56355000D01*
X35725000Y-57145000D02*
X35830000Y-57250000D01*
X36625000Y-56225000D02*
X37780000Y-56225000D01*
X36600000Y-56250000D02*
X36625000Y-56225000D01*
D59*
%TO.N,/NEOPIXEL*%
X48842113Y-46296528D02*
X49119610Y-46574025D01*
X49749022Y-46574025D02*
X49980879Y-46342168D01*
X49119610Y-46574025D02*
X49749022Y-46574025D01*
D58*
%TO.N,/~{USB_BOOT}*%
X66750000Y-45825000D02*
X68875000Y-43700000D01*
X65697500Y-45825000D02*
X66750000Y-45825000D01*
D60*
%TO.N,/QSPI_SS*%
X54269157Y-50592202D02*
X55416610Y-50592202D01*
X55416610Y-50592202D02*
X57366906Y-48641906D01*
D58*
X63280000Y-46775000D02*
X62905000Y-46400000D01*
X64502500Y-45825000D02*
X64502500Y-46775000D01*
X64502500Y-46775000D02*
X63280000Y-46775000D01*
D61*
%TO.N,/RUN*%
X68950000Y-47075000D02*
X68950000Y-48250000D01*
D60*
X46296528Y-48842113D02*
X46242113Y-48842113D01*
X46242113Y-48842113D02*
X45700000Y-48300000D01*
D61*
X68950000Y-48250000D02*
X69000000Y-48300000D01*
D60*
%TO.N,/XOUT*%
X47710742Y-47385742D02*
X46747496Y-46422496D01*
X47710742Y-47427899D02*
X47710742Y-47385742D01*
D58*
%TO.N,/A_CURRENT*%
X57595000Y-37700000D02*
X57147500Y-37700000D01*
D60*
X48276427Y-53137786D02*
X47609997Y-53804216D01*
D58*
X57147500Y-37700000D02*
X55272500Y-39575000D01*
D60*
X47609997Y-53804216D02*
X47609997Y-54150000D01*
D58*
%TO.N,/B_CURRENT*%
X38595000Y-37695000D02*
X38575000Y-37675000D01*
X38595000Y-37700000D02*
X38595000Y-37695000D01*
D60*
X48100000Y-53879899D02*
X48100000Y-54150000D01*
X48559270Y-53420629D02*
X48100000Y-53879899D01*
D61*
%TO.N,+5V*%
X57615000Y-56475000D02*
X57615000Y-57115000D01*
X61475000Y-58032500D02*
X58532500Y-58032500D01*
D58*
X35412500Y-47275000D02*
X35412500Y-49512500D01*
D61*
X44100000Y-61175000D02*
X44100000Y-61900000D01*
D58*
X35412500Y-49512500D02*
X35100000Y-49825000D01*
D61*
X57615000Y-57115000D02*
X57650000Y-57150000D01*
X58532500Y-58032500D02*
X57650000Y-57150000D01*
X44100000Y-61900000D02*
X44125000Y-61925000D01*
D58*
X35100000Y-49825000D02*
X33750000Y-51175000D01*
X33750000Y-51175000D02*
X33750000Y-58200000D01*
D60*
%TO.N,/QSPI_SD2*%
X58000000Y-45948382D02*
X58723382Y-45225000D01*
X58723382Y-45225000D02*
X59650000Y-45225000D01*
X53955969Y-51410384D02*
X55489616Y-51410384D01*
X58000000Y-48900000D02*
X58000000Y-45948382D01*
X59650000Y-45225000D02*
X60365000Y-45940000D01*
X55489616Y-51410384D02*
X58000000Y-48900000D01*
X60365000Y-45940000D02*
X60365000Y-46400000D01*
X53703472Y-51157887D02*
X53955969Y-51410384D01*
%TO.N,/QSPI_SD1*%
X57750000Y-48775000D02*
X57750000Y-45844828D01*
X60210000Y-44975000D02*
X61635000Y-46400000D01*
X57750000Y-45844828D02*
X58619828Y-44975000D01*
X55364616Y-51160384D02*
X57750000Y-48775000D01*
X53986314Y-50875045D02*
X54271653Y-51160384D01*
X54271653Y-51160384D02*
X55364616Y-51160384D01*
X58619828Y-44975000D02*
X60210000Y-44975000D01*
%TO.N,/QSPI_SCK*%
X53137786Y-51723573D02*
X53564213Y-52150000D01*
X53776345Y-52150000D02*
X56201345Y-54575000D01*
X53564213Y-52150000D02*
X53776345Y-52150000D01*
X56201345Y-54575000D02*
X59390000Y-54575000D01*
X59390000Y-54575000D02*
X60365000Y-53600000D01*
%TO.N,/QSPI_SD3*%
X60410000Y-54825000D02*
X61635000Y-53600000D01*
X52854944Y-52006415D02*
X52856415Y-52006415D01*
X52856415Y-52006415D02*
X53250000Y-52400000D01*
X53250000Y-52400000D02*
X53672791Y-52400000D01*
X56097791Y-54825000D02*
X60410000Y-54825000D01*
X53672791Y-52400000D02*
X56097791Y-54825000D01*
%TO.N,/QSPI_SD0*%
X53420629Y-51440730D02*
X56304899Y-54325000D01*
X58370000Y-54325000D02*
X59095000Y-53600000D01*
X56304899Y-54325000D02*
X58370000Y-54325000D01*
%TO.N,/SCL*%
X50635000Y-47660000D02*
X50635000Y-47425000D01*
X53137786Y-48276427D02*
X52785749Y-48628464D01*
X51603464Y-48628464D02*
X50635000Y-47660000D01*
X52785749Y-48628464D02*
X51603464Y-48628464D01*
D59*
X53952504Y-46922496D02*
X53952504Y-47461709D01*
X53952504Y-47461709D02*
X53137786Y-48276427D01*
%TO.N,/B2_PWM*%
X39865000Y-37700000D02*
X39865000Y-37885000D01*
X47479878Y-38965000D02*
X51425384Y-42910506D01*
X51425384Y-46029031D02*
X51157887Y-46296528D01*
X40945000Y-38965000D02*
X47479878Y-38965000D01*
X51425384Y-42910506D02*
X51425384Y-46029031D01*
X39865000Y-37885000D02*
X40945000Y-38965000D01*
D60*
%TO.N,/SDA*%
X53420629Y-48559270D02*
X52904899Y-49075000D01*
X52904899Y-49075000D02*
X52225000Y-49075000D01*
D59*
X54630008Y-47594992D02*
X54384907Y-47594992D01*
X54384907Y-47594992D02*
X53420629Y-48559270D01*
D60*
%TO.N,/CAN_TX*%
X53986314Y-49124955D02*
X53986314Y-49152661D01*
X53986314Y-49152661D02*
X53370756Y-49768219D01*
D59*
%TO.N,/A1_PWM*%
X57510000Y-38965000D02*
X54690000Y-41785000D01*
X59345000Y-38965000D02*
X57510000Y-38965000D01*
X54690000Y-45027157D02*
X52289258Y-47427899D01*
X60135000Y-37700000D02*
X60135000Y-38175000D01*
X60135000Y-38175000D02*
X59345000Y-38965000D01*
X54690000Y-41785000D02*
X54690000Y-45027157D01*
%TO.N,/B1_PWM*%
X41135000Y-37700000D02*
X41135000Y-38175000D01*
X41135000Y-38175000D02*
X41635000Y-38675000D01*
X47600000Y-38675000D02*
X51725331Y-42800331D01*
X51725331Y-46294770D02*
X51440730Y-46579371D01*
X41635000Y-38675000D02*
X47600000Y-38675000D01*
X51725331Y-42800331D02*
X51725331Y-46294770D01*
D60*
%TO.N,/CAN_S*%
X45613731Y-48725000D02*
X45325000Y-48725000D01*
X46013686Y-49124955D02*
X45613731Y-48725000D01*
D59*
X60155000Y-60450001D02*
X58204999Y-58500000D01*
X58204999Y-58500000D02*
X46825000Y-58500000D01*
X46825000Y-58500000D02*
X46400000Y-58075000D01*
X60155000Y-61425000D02*
X60155000Y-60450001D01*
D60*
%TO.N,/CAN_RX*%
X53682887Y-48842113D02*
X52825000Y-49700000D01*
X53703472Y-48842113D02*
X53682887Y-48842113D01*
D59*
%TO.N,/A2_PWM*%
X58865000Y-38675000D02*
X57389878Y-38675000D01*
X57389878Y-38675000D02*
X54400000Y-41664878D01*
X54400000Y-41664878D02*
X54400000Y-44751471D01*
X54400000Y-44751471D02*
X52006415Y-47145056D01*
X58865000Y-37700000D02*
X58865000Y-38675000D01*
D60*
%TO.N,/MT6701_ANALOG*%
X49350000Y-53225000D02*
X49320585Y-53225000D01*
X49320585Y-53225000D02*
X48842113Y-53703472D01*
D58*
%TO.N,Net-(J5-Pin_2)*%
X48900000Y-60327500D02*
X50677500Y-60327500D01*
X50677500Y-60327500D02*
X51200000Y-60850000D01*
%TO.N,/VUSB*%
X45050000Y-58175000D02*
X43300000Y-59925000D01*
D61*
X37392981Y-54600000D02*
X37447982Y-54655001D01*
X36600000Y-54600000D02*
X37392981Y-54600000D01*
X36600000Y-59400000D02*
X37392980Y-59400000D01*
D58*
X43300000Y-59925000D02*
X42100000Y-59925000D01*
D61*
X37392980Y-59400000D02*
X37447981Y-59344999D01*
D58*
%TO.N,Net-(U1-VOUT)*%
X40850000Y-56100000D02*
X40850000Y-57400000D01*
X42395000Y-57420000D02*
X43150000Y-58175000D01*
X40850000Y-57400000D02*
X40830000Y-57420000D01*
X39600000Y-58650000D02*
X40830000Y-57420000D01*
X40830000Y-57420000D02*
X42395000Y-57420000D01*
D59*
%TO.N,Net-(D1-DOUT)*%
X30350000Y-39550000D02*
X30350000Y-38875000D01*
X30350000Y-38875000D02*
X30325000Y-38850000D01*
D61*
%TO.N,Net-(D1-DIN)*%
X33650000Y-44450000D02*
X33650000Y-45477500D01*
X33650000Y-45477500D02*
X33052500Y-46075000D01*
D60*
%TO.N,Net-(C19-Pad2)*%
X47123223Y-44403858D02*
X45949577Y-45577504D01*
X45175000Y-44850000D02*
X45902504Y-45577504D01*
X45949577Y-45577504D02*
X45902504Y-45577504D01*
D59*
%TO.N,/USB_DP*%
X41525000Y-54675000D02*
X42061251Y-54675000D01*
X52443200Y-58175000D02*
X53500000Y-57118200D01*
X53500000Y-54878857D02*
X51758929Y-53137786D01*
X42061251Y-54675000D02*
X42336251Y-54400000D01*
X53500000Y-57118200D02*
X53500000Y-54878857D01*
X43456800Y-54400000D02*
X47231800Y-58175000D01*
X42336251Y-54400000D02*
X43456800Y-54400000D01*
X47231800Y-58175000D02*
X52443200Y-58175000D01*
X51758929Y-53137786D02*
X51723573Y-53137786D01*
%TO.N,/USB_DN*%
X43643200Y-53950000D02*
X47418200Y-57725000D01*
X53050000Y-55065255D02*
X51440730Y-53455985D01*
X41525000Y-53675000D02*
X42061251Y-53675000D01*
X51440730Y-53455985D02*
X51440730Y-53420629D01*
X52256800Y-57725000D02*
X53050000Y-56931800D01*
X53050000Y-56931800D02*
X53050000Y-55065255D01*
X47418200Y-57725000D02*
X52256800Y-57725000D01*
X42336251Y-53950000D02*
X43643200Y-53950000D01*
X42061251Y-53675000D02*
X42336251Y-53950000D01*
D58*
%TO.N,/CAN_H*%
X55725000Y-63275000D02*
X54500000Y-64500000D01*
X54500000Y-64500000D02*
X54500000Y-61610000D01*
X57451262Y-63275000D02*
X55725000Y-63275000D01*
X54500000Y-61610000D02*
X53740000Y-60850000D01*
X58885000Y-61841262D02*
X57451262Y-63275000D01*
%TO.N,/CAN_L*%
X47852500Y-61522500D02*
X45500000Y-63875000D01*
X45500000Y-63875000D02*
X45500000Y-64500000D01*
X48900000Y-61522500D02*
X47852500Y-61522500D01*
%TD*%
%TA.AperFunction,Conductor*%
%TO.N,+3.3V*%
G36*
X50230974Y-53593783D02*
G01*
X50258116Y-53626317D01*
X50280254Y-53664661D01*
X50294479Y-53689300D01*
X50413349Y-53808170D01*
X50413355Y-53808175D01*
X50428788Y-53823608D01*
X51037742Y-54432563D01*
X51037746Y-54432566D01*
X51037751Y-54432571D01*
X51107815Y-54487612D01*
X51107817Y-54487613D01*
X51107820Y-54487615D01*
X51159682Y-54510141D01*
X51246615Y-54547901D01*
X51396536Y-54568507D01*
X51546456Y-54547901D01*
X51557578Y-54543069D01*
X51564529Y-54540051D01*
X51633860Y-54531396D01*
X51696865Y-54561598D01*
X51701613Y-54566103D01*
X52032492Y-54896982D01*
X52065977Y-54958305D01*
X52060993Y-55027997D01*
X52027586Y-55076990D01*
X51653320Y-55412538D01*
X51590265Y-55442633D01*
X51520948Y-55433860D01*
X51482864Y-55407892D01*
X51206089Y-55131118D01*
X51206078Y-55131108D01*
X51206072Y-55131102D01*
X51177731Y-55106895D01*
X51032599Y-55027108D01*
X51032594Y-55027106D01*
X51032592Y-55027106D01*
X50872187Y-54985921D01*
X50872184Y-54985921D01*
X50706567Y-54985921D01*
X50706563Y-54985921D01*
X50546158Y-55027106D01*
X50546148Y-55027109D01*
X50401022Y-55106892D01*
X50401022Y-55106893D01*
X50372681Y-55131098D01*
X50372677Y-55131102D01*
X49978529Y-55525253D01*
X49954327Y-55553588D01*
X49874543Y-55698714D01*
X49874540Y-55698722D01*
X49858461Y-55761349D01*
X49822723Y-55821387D01*
X49788609Y-55838401D01*
X49790579Y-55842486D01*
X49774998Y-55850000D01*
X49278972Y-56290912D01*
X49215788Y-56320738D01*
X49146510Y-56311670D01*
X49102299Y-56278762D01*
X49093911Y-56268941D01*
X49093900Y-56268928D01*
X49021477Y-56196505D01*
X48781089Y-55956118D01*
X48781078Y-55956108D01*
X48781072Y-55956102D01*
X48752731Y-55931895D01*
X48607599Y-55852108D01*
X48607596Y-55852107D01*
X48600344Y-55849236D01*
X48601200Y-55847072D01*
X48551184Y-55817297D01*
X48527519Y-55773951D01*
X48525761Y-55774648D01*
X48522892Y-55767400D01*
X48472229Y-55675246D01*
X48443105Y-55622269D01*
X48438947Y-55617401D01*
X48418903Y-55593932D01*
X48418900Y-55593928D01*
X48350218Y-55525246D01*
X48106089Y-55281118D01*
X48106069Y-55281100D01*
X48093634Y-55270478D01*
X48055443Y-55211970D01*
X48054947Y-55142102D01*
X48086485Y-55088514D01*
X48368422Y-54806577D01*
X48398466Y-54784470D01*
X48457441Y-54753517D01*
X48525948Y-54739792D01*
X48591002Y-54765285D01*
X48591581Y-54765737D01*
X48597586Y-54770454D01*
X48597591Y-54770457D01*
X48665145Y-54799799D01*
X48736386Y-54830743D01*
X48886306Y-54851349D01*
X49036227Y-54830743D01*
X49118049Y-54795202D01*
X49175021Y-54770457D01*
X49175022Y-54770456D01*
X49175027Y-54770454D01*
X49245091Y-54715413D01*
X49854054Y-54106450D01*
X49909095Y-54036386D01*
X49912279Y-54029057D01*
X49953874Y-53933294D01*
X49969384Y-53897586D01*
X49989990Y-53747665D01*
X49989990Y-53747664D01*
X49989990Y-53746792D01*
X49990219Y-53745996D01*
X49991145Y-53739261D01*
X49992120Y-53739395D01*
X50008995Y-53680821D01*
X50045739Y-53622344D01*
X50098072Y-53576056D01*
X50167125Y-53565408D01*
X50230974Y-53593783D01*
G37*
%TD.AperFunction*%
%TD*%
%TA.AperFunction,Conductor*%
%TO.N,GND*%
G36*
X41497608Y-29220185D02*
G01*
X41543363Y-29272989D01*
X41553307Y-29342147D01*
X41537301Y-29387621D01*
X41481129Y-29482601D01*
X41481128Y-29482604D01*
X41434924Y-29641637D01*
X41434923Y-29641643D01*
X41432000Y-29678789D01*
X41432000Y-30121190D01*
X41432001Y-30121215D01*
X41434923Y-30158354D01*
X41434923Y-30158357D01*
X41434924Y-30158358D01*
X41467407Y-30270166D01*
X41481130Y-30317400D01*
X41565434Y-30459950D01*
X41565440Y-30459958D01*
X41575678Y-30470195D01*
X41609165Y-30531517D01*
X41612000Y-30557879D01*
X41612000Y-30835710D01*
X41592315Y-30902749D01*
X41539511Y-30948504D01*
X41470353Y-30958448D01*
X41437565Y-30948990D01*
X41414802Y-30938855D01*
X41244931Y-30902749D01*
X41229646Y-30899500D01*
X41040354Y-30899500D01*
X41025069Y-30902749D01*
X40855197Y-30938855D01*
X40855192Y-30938857D01*
X40682270Y-31015848D01*
X40682265Y-31015851D01*
X40529134Y-31127107D01*
X40524308Y-31131453D01*
X40523997Y-31131107D01*
X40514843Y-31139462D01*
X40477459Y-31167448D01*
X40477453Y-31167454D01*
X40391205Y-31282665D01*
X40391202Y-31282671D01*
X40389949Y-31286032D01*
X40381159Y-31304688D01*
X40307820Y-31431716D01*
X40249327Y-31611740D01*
X40249326Y-31611744D01*
X40229540Y-31800000D01*
X40249326Y-31988256D01*
X40249327Y-31988259D01*
X40307821Y-32168285D01*
X40317887Y-32185720D01*
X40334500Y-32247720D01*
X40334500Y-32352280D01*
X40317888Y-32414278D01*
X40307821Y-32431714D01*
X40260356Y-32577796D01*
X40249326Y-32611744D01*
X40229540Y-32800000D01*
X40249326Y-32988256D01*
X40249327Y-32988259D01*
X40307821Y-33168285D01*
X40381156Y-33295306D01*
X40389948Y-33313964D01*
X40391203Y-33317330D01*
X40391204Y-33317331D01*
X40477454Y-33432546D01*
X40477457Y-33432548D01*
X40477460Y-33432551D01*
X40514834Y-33460530D01*
X40523990Y-33468890D01*
X40524303Y-33468543D01*
X40529131Y-33472890D01*
X40682265Y-33584148D01*
X40682270Y-33584151D01*
X40855192Y-33661142D01*
X40855197Y-33661144D01*
X41040354Y-33700500D01*
X41040355Y-33700500D01*
X41229644Y-33700500D01*
X41229646Y-33700500D01*
X41414803Y-33661144D01*
X41587730Y-33584151D01*
X41683967Y-33514230D01*
X41749770Y-33490752D01*
X41817824Y-33506577D01*
X41829729Y-33514228D01*
X41857150Y-33534150D01*
X41857151Y-33534151D01*
X42030073Y-33611142D01*
X42030078Y-33611144D01*
X42215235Y-33650500D01*
X42215236Y-33650500D01*
X42404525Y-33650500D01*
X42404527Y-33650500D01*
X42589684Y-33611144D01*
X42645663Y-33586219D01*
X42696099Y-33575499D01*
X42752871Y-33575499D01*
X42752872Y-33575499D01*
X42812483Y-33569091D01*
X42947331Y-33518796D01*
X43062546Y-33432546D01*
X43148796Y-33317331D01*
X43199091Y-33182483D01*
X43205500Y-33122873D01*
X43205499Y-32850134D01*
X43206178Y-32837173D01*
X43215341Y-32750000D01*
X43215340Y-32749996D01*
X43215838Y-32745265D01*
X43242423Y-32680651D01*
X43299720Y-32640666D01*
X43369539Y-32638006D01*
X43429713Y-32673515D01*
X43456865Y-32719222D01*
X43465187Y-32744337D01*
X43557286Y-32893651D01*
X43557289Y-32893655D01*
X43681344Y-33017710D01*
X43681348Y-33017713D01*
X43830662Y-33109812D01*
X43830664Y-33109813D01*
X43830666Y-33109814D01*
X43997203Y-33164999D01*
X44099992Y-33175500D01*
X44099997Y-33175500D01*
X45200003Y-33175500D01*
X45200008Y-33175500D01*
X45302797Y-33164999D01*
X45469334Y-33109814D01*
X45618655Y-33017711D01*
X45742711Y-32893655D01*
X45834814Y-32744334D01*
X45889999Y-32577797D01*
X45900500Y-32475008D01*
X45900500Y-29474992D01*
X45889999Y-29372203D01*
X45887115Y-29363502D01*
X45884714Y-29293676D01*
X45920446Y-29233634D01*
X45982966Y-29202441D01*
X46004822Y-29200500D01*
X53995178Y-29200500D01*
X54062217Y-29220185D01*
X54107972Y-29272989D01*
X54117916Y-29342147D01*
X54112884Y-29363504D01*
X54110000Y-29372204D01*
X54099500Y-29474984D01*
X54099500Y-32475015D01*
X54110000Y-32577795D01*
X54110001Y-32577796D01*
X54165186Y-32744335D01*
X54165187Y-32744337D01*
X54257286Y-32893651D01*
X54257289Y-32893655D01*
X54381344Y-33017710D01*
X54381348Y-33017713D01*
X54530662Y-33109812D01*
X54530664Y-33109813D01*
X54530666Y-33109814D01*
X54697203Y-33164999D01*
X54799992Y-33175500D01*
X54799997Y-33175500D01*
X55900003Y-33175500D01*
X55900008Y-33175500D01*
X56002797Y-33164999D01*
X56169334Y-33109814D01*
X56318655Y-33017711D01*
X56442711Y-32893655D01*
X56471157Y-32847536D01*
X56523104Y-32800813D01*
X56592066Y-32789590D01*
X56656148Y-32817433D01*
X56695005Y-32875502D01*
X56700015Y-32899668D01*
X56709326Y-32988256D01*
X56709327Y-32988259D01*
X56767821Y-33168285D01*
X56841156Y-33295306D01*
X56849948Y-33313964D01*
X56851203Y-33317330D01*
X56851204Y-33317331D01*
X56937454Y-33432546D01*
X56937457Y-33432548D01*
X56937460Y-33432551D01*
X56974834Y-33460530D01*
X56983990Y-33468890D01*
X56984303Y-33468543D01*
X56989131Y-33472890D01*
X57142265Y-33584148D01*
X57142270Y-33584151D01*
X57315192Y-33661142D01*
X57315197Y-33661144D01*
X57500354Y-33700500D01*
X57500355Y-33700500D01*
X57689644Y-33700500D01*
X57689646Y-33700500D01*
X57874803Y-33661144D01*
X58047730Y-33584151D01*
X58200871Y-33472888D01*
X58200877Y-33472880D01*
X58205697Y-33468542D01*
X58206013Y-33468893D01*
X58215169Y-33460526D01*
X58236434Y-33444607D01*
X58252546Y-33432546D01*
X58338796Y-33317331D01*
X58340052Y-33313964D01*
X58348835Y-33295317D01*
X58422179Y-33168284D01*
X58480674Y-32988256D01*
X58500460Y-32800000D01*
X58480674Y-32611744D01*
X58422179Y-32431716D01*
X58418348Y-32425081D01*
X58412111Y-32414277D01*
X58395499Y-32352279D01*
X58395499Y-32247720D01*
X58412113Y-32185718D01*
X58422179Y-32168284D01*
X58480674Y-31988256D01*
X58500460Y-31800000D01*
X58480674Y-31611744D01*
X58422179Y-31431716D01*
X58348841Y-31304690D01*
X58340046Y-31286021D01*
X58338796Y-31282669D01*
X58338793Y-31282664D01*
X58252547Y-31167455D01*
X58252546Y-31167454D01*
X58215163Y-31139468D01*
X58206011Y-31131110D01*
X58205698Y-31131458D01*
X58200873Y-31127115D01*
X58200871Y-31127112D01*
X58200864Y-31127107D01*
X58047734Y-31015851D01*
X58047729Y-31015848D01*
X57874807Y-30938857D01*
X57874802Y-30938855D01*
X57704931Y-30902749D01*
X57689646Y-30899500D01*
X57500354Y-30899500D01*
X57485069Y-30902749D01*
X57315197Y-30938855D01*
X57315192Y-30938857D01*
X57142270Y-31015848D01*
X57142265Y-31015851D01*
X56989134Y-31127107D01*
X56984308Y-31131453D01*
X56983997Y-31131107D01*
X56974843Y-31139462D01*
X56937459Y-31167448D01*
X56937453Y-31167454D01*
X56851205Y-31282665D01*
X56851202Y-31282671D01*
X56849949Y-31286032D01*
X56841160Y-31304686D01*
X56831889Y-31320745D01*
X56781324Y-31368962D01*
X56712717Y-31382187D01*
X56647851Y-31356221D01*
X56607321Y-31299308D01*
X56600500Y-31258748D01*
X56600500Y-29474997D01*
X56600499Y-29474984D01*
X56589999Y-29372204D01*
X56589999Y-29372203D01*
X56587115Y-29363502D01*
X56584714Y-29293676D01*
X56620446Y-29233634D01*
X56682966Y-29202441D01*
X56704822Y-29200500D01*
X61868771Y-29200500D01*
X61935810Y-29220185D01*
X61981565Y-29272989D01*
X61991509Y-29342147D01*
X61962484Y-29405703D01*
X61956452Y-29412181D01*
X60822050Y-30546580D01*
X60822044Y-30546588D01*
X60772812Y-30620268D01*
X60772813Y-30620269D01*
X60739921Y-30669496D01*
X60739914Y-30669508D01*
X60683342Y-30806086D01*
X60683340Y-30806091D01*
X60667509Y-30885679D01*
X60635123Y-30947589D01*
X60574407Y-30982163D01*
X60504638Y-30978422D01*
X60495456Y-30974765D01*
X60414807Y-30938857D01*
X60414802Y-30938855D01*
X60244931Y-30902749D01*
X60229646Y-30899500D01*
X60040354Y-30899500D01*
X60025069Y-30902749D01*
X59855197Y-30938855D01*
X59855192Y-30938857D01*
X59682270Y-31015848D01*
X59682265Y-31015851D01*
X59529134Y-31127107D01*
X59524308Y-31131453D01*
X59523997Y-31131107D01*
X59514843Y-31139462D01*
X59477459Y-31167448D01*
X59477453Y-31167454D01*
X59391205Y-31282665D01*
X59391202Y-31282671D01*
X59389949Y-31286032D01*
X59381159Y-31304688D01*
X59307820Y-31431716D01*
X59249327Y-31611740D01*
X59249326Y-31611744D01*
X59229540Y-31800000D01*
X59249326Y-31988256D01*
X59249327Y-31988259D01*
X59307821Y-32168285D01*
X59317887Y-32185720D01*
X59334500Y-32247720D01*
X59334500Y-32352280D01*
X59317888Y-32414278D01*
X59307821Y-32431714D01*
X59260356Y-32577796D01*
X59249326Y-32611744D01*
X59229540Y-32800000D01*
X59249326Y-32988256D01*
X59249327Y-32988259D01*
X59307821Y-33168285D01*
X59381156Y-33295306D01*
X59389948Y-33313964D01*
X59391203Y-33317330D01*
X59391204Y-33317331D01*
X59477454Y-33432546D01*
X59477457Y-33432548D01*
X59477460Y-33432551D01*
X59514834Y-33460530D01*
X59523990Y-33468890D01*
X59524303Y-33468543D01*
X59529131Y-33472890D01*
X59682265Y-33584148D01*
X59682270Y-33584151D01*
X59855192Y-33661142D01*
X59855197Y-33661144D01*
X60040354Y-33700500D01*
X60040355Y-33700500D01*
X60229644Y-33700500D01*
X60229646Y-33700500D01*
X60414803Y-33661144D01*
X60587730Y-33584151D01*
X60697574Y-33504344D01*
X60763380Y-33480865D01*
X60831434Y-33496690D01*
X60844767Y-33505394D01*
X60862669Y-33518796D01*
X60862670Y-33518796D01*
X60862670Y-33518797D01*
X60937155Y-33546577D01*
X60997517Y-33569091D01*
X61057127Y-33575500D01*
X61752872Y-33575499D01*
X61812483Y-33569091D01*
X61947331Y-33518796D01*
X62062546Y-33432546D01*
X62148796Y-33317331D01*
X62199091Y-33182483D01*
X62205500Y-33122873D01*
X62205499Y-32747719D01*
X62222114Y-32685716D01*
X62232179Y-32668284D01*
X62290674Y-32488256D01*
X62310460Y-32300000D01*
X62290674Y-32111744D01*
X62232179Y-31931716D01*
X62222111Y-31914277D01*
X62205499Y-31852279D01*
X62205499Y-31477129D01*
X62205498Y-31477123D01*
X62199091Y-31417517D01*
X62192917Y-31400965D01*
X62187931Y-31331273D01*
X62221412Y-31269953D01*
X62954548Y-30536819D01*
X63015871Y-30503334D01*
X63042229Y-30500500D01*
X63306802Y-30500500D01*
X63350032Y-30509453D01*
X63350108Y-30509194D01*
X63353401Y-30510150D01*
X63356053Y-30510700D01*
X63357593Y-30511366D01*
X63357600Y-30511370D01*
X63357607Y-30511372D01*
X63516637Y-30557575D01*
X63516640Y-30557575D01*
X63516642Y-30557576D01*
X63553797Y-30560500D01*
X64111202Y-30560499D01*
X64148358Y-30557576D01*
X64307400Y-30511370D01*
X64449954Y-30427063D01*
X64567063Y-30309954D01*
X64651370Y-30167400D01*
X64697576Y-30008358D01*
X64700500Y-29971203D01*
X64700499Y-29528798D01*
X64697576Y-29491642D01*
X64661592Y-29367784D01*
X64659068Y-29359095D01*
X64659267Y-29289225D01*
X64697209Y-29230555D01*
X64760848Y-29201712D01*
X64778144Y-29200500D01*
X66865588Y-29200500D01*
X66932627Y-29220185D01*
X66953269Y-29236819D01*
X70763181Y-33046731D01*
X70796666Y-33108054D01*
X70799500Y-33134412D01*
X70799500Y-45426773D01*
X70779815Y-45493812D01*
X70727011Y-45539567D01*
X70657853Y-45549511D01*
X70602616Y-45527092D01*
X70552733Y-45490851D01*
X70552729Y-45490848D01*
X70379807Y-45413857D01*
X70379802Y-45413855D01*
X70234001Y-45382865D01*
X70194646Y-45374500D01*
X70005354Y-45374500D01*
X69972897Y-45381398D01*
X69820197Y-45413855D01*
X69820192Y-45413857D01*
X69647270Y-45490848D01*
X69647265Y-45490851D01*
X69494129Y-45602111D01*
X69367466Y-45742785D01*
X69272821Y-45906715D01*
X69272818Y-45906722D01*
X69214327Y-46086740D01*
X69214326Y-46086744D01*
X69208331Y-46143783D01*
X69181747Y-46208395D01*
X69124450Y-46248380D01*
X69078718Y-46253738D01*
X69078691Y-46254340D01*
X69078691Y-46254500D01*
X69078683Y-46254500D01*
X69078678Y-46254627D01*
X69075882Y-46254500D01*
X68574111Y-46254500D01*
X68507573Y-46260546D01*
X68507566Y-46260548D01*
X68354433Y-46308265D01*
X68354429Y-46308267D01*
X68217170Y-46391242D01*
X68217165Y-46391246D01*
X68103746Y-46504665D01*
X68103742Y-46504670D01*
X68020767Y-46641929D01*
X68020765Y-46641933D01*
X67973048Y-46795065D01*
X67967000Y-46861621D01*
X67967000Y-47251357D01*
X67947315Y-47318396D01*
X67894511Y-47364151D01*
X67886333Y-47367539D01*
X67782671Y-47406202D01*
X67782664Y-47406206D01*
X67667455Y-47492452D01*
X67667452Y-47492455D01*
X67581206Y-47607664D01*
X67581202Y-47607671D01*
X67530908Y-47742517D01*
X67524501Y-47802116D01*
X67524500Y-47802135D01*
X67524500Y-48797870D01*
X67524501Y-48797876D01*
X67530908Y-48857483D01*
X67581202Y-48992328D01*
X67581206Y-48992335D01*
X67667452Y-49107544D01*
X67667455Y-49107547D01*
X67782664Y-49193793D01*
X67782671Y-49193797D01*
X67917517Y-49244091D01*
X67917516Y-49244091D01*
X67924444Y-49244835D01*
X67977127Y-49250500D01*
X69772872Y-49250499D01*
X69832483Y-49244091D01*
X69967331Y-49193796D01*
X70082546Y-49107546D01*
X70168796Y-48992331D01*
X70219091Y-48857483D01*
X70225500Y-48797873D01*
X70225499Y-48012865D01*
X70245183Y-47945827D01*
X70297987Y-47900072D01*
X70331099Y-47891283D01*
X70330990Y-47890734D01*
X70337423Y-47889452D01*
X70337433Y-47889452D01*
X70490569Y-47841733D01*
X70611351Y-47768717D01*
X70678905Y-47750882D01*
X70745379Y-47772400D01*
X70789666Y-47826440D01*
X70799500Y-47874835D01*
X70799500Y-54629581D01*
X70779815Y-54696620D01*
X70727011Y-54742375D01*
X70657853Y-54752319D01*
X70594297Y-54723294D01*
X70560939Y-54677034D01*
X70536564Y-54618189D01*
X70525800Y-54592202D01*
X70431149Y-54468851D01*
X70307798Y-54374200D01*
X70307794Y-54374198D01*
X70164151Y-54314699D01*
X70164149Y-54314698D01*
X70048702Y-54299500D01*
X70048701Y-54299500D01*
X70029729Y-54299500D01*
X69962690Y-54279815D01*
X69942048Y-54263181D01*
X69395224Y-53716356D01*
X69361739Y-53655033D01*
X69359287Y-53638397D01*
X69358980Y-53634500D01*
X69357576Y-53616642D01*
X69311370Y-53457600D01*
X69247439Y-53349499D01*
X69227065Y-53315049D01*
X69227058Y-53315040D01*
X69109959Y-53197941D01*
X69109950Y-53197934D01*
X68999287Y-53132488D01*
X68967400Y-53113630D01*
X68967399Y-53113629D01*
X68967398Y-53113629D01*
X68967395Y-53113628D01*
X68808362Y-53067424D01*
X68808356Y-53067423D01*
X68771203Y-53064500D01*
X68213809Y-53064500D01*
X68213784Y-53064501D01*
X68176645Y-53067423D01*
X68017599Y-53113630D01*
X67875049Y-53197934D01*
X67875040Y-53197941D01*
X67757941Y-53315040D01*
X67757934Y-53315049D01*
X67673629Y-53457601D01*
X67673628Y-53457604D01*
X67627424Y-53616637D01*
X67627423Y-53616643D01*
X67624500Y-53653789D01*
X67624500Y-54096190D01*
X67624501Y-54096215D01*
X67627423Y-54133354D01*
X67627423Y-54133357D01*
X67627424Y-54133358D01*
X67633055Y-54152739D01*
X67673630Y-54292400D01*
X67757934Y-54434950D01*
X67757941Y-54434959D01*
X67875040Y-54552058D01*
X67875044Y-54552061D01*
X67875046Y-54552063D01*
X68017600Y-54636370D01*
X68054433Y-54647071D01*
X68176637Y-54682575D01*
X68176640Y-54682575D01*
X68176642Y-54682576D01*
X68198403Y-54684288D01*
X68263691Y-54709169D01*
X68276358Y-54720225D01*
X68663181Y-55107048D01*
X68696666Y-55168371D01*
X68699500Y-55194729D01*
X68699500Y-56248703D01*
X68714696Y-56364142D01*
X68714699Y-56364151D01*
X68765896Y-56487752D01*
X68774200Y-56507798D01*
X68868851Y-56631149D01*
X68992202Y-56725800D01*
X69135849Y-56785301D01*
X69251299Y-56800500D01*
X70048700Y-56800499D01*
X70048703Y-56800499D01*
X70164142Y-56785303D01*
X70164146Y-56785301D01*
X70164151Y-56785301D01*
X70307798Y-56725800D01*
X70431149Y-56631149D01*
X70525800Y-56507798D01*
X70560939Y-56422966D01*
X70604780Y-56368562D01*
X70671074Y-56346497D01*
X70738773Y-56363776D01*
X70786384Y-56414913D01*
X70799500Y-56470418D01*
X70799500Y-59529581D01*
X70779815Y-59596620D01*
X70727011Y-59642375D01*
X70657853Y-59652319D01*
X70594297Y-59623294D01*
X70560939Y-59577034D01*
X70538667Y-59523265D01*
X70525800Y-59492202D01*
X70431149Y-59368851D01*
X70307798Y-59274200D01*
X70307794Y-59274198D01*
X70164151Y-59214699D01*
X70164149Y-59214698D01*
X70048701Y-59199500D01*
X69251296Y-59199500D01*
X69135857Y-59214696D01*
X69135848Y-59214699D01*
X68992205Y-59274198D01*
X68992202Y-59274199D01*
X68992202Y-59274200D01*
X68868851Y-59368851D01*
X68774243Y-59492147D01*
X68774198Y-59492205D01*
X68714699Y-59635848D01*
X68714698Y-59635850D01*
X68699500Y-59751298D01*
X68699500Y-61148703D01*
X68714696Y-61264142D01*
X68714699Y-61264151D01*
X68762552Y-61379679D01*
X68774200Y-61407798D01*
X68868851Y-61531149D01*
X68992202Y-61625800D01*
X69135849Y-61685301D01*
X69251299Y-61700500D01*
X70048700Y-61700499D01*
X70048703Y-61700499D01*
X70164142Y-61685303D01*
X70164146Y-61685301D01*
X70164151Y-61685301D01*
X70307798Y-61625800D01*
X70431149Y-61531149D01*
X70525800Y-61407798D01*
X70560939Y-61322966D01*
X70604780Y-61268562D01*
X70671074Y-61246497D01*
X70738773Y-61263776D01*
X70786384Y-61314913D01*
X70799500Y-61370418D01*
X70799500Y-66865588D01*
X70779815Y-66932627D01*
X70763181Y-66953269D01*
X66953269Y-70763181D01*
X66891946Y-70796666D01*
X66865588Y-70799500D01*
X33134412Y-70799500D01*
X33067373Y-70779815D01*
X33046731Y-70763181D01*
X29236819Y-66953269D01*
X29203334Y-66891946D01*
X29200500Y-66865588D01*
X29200500Y-63700414D01*
X29220185Y-63633375D01*
X29272989Y-63587620D01*
X29342147Y-63577676D01*
X29388647Y-63594296D01*
X29491931Y-63656733D01*
X29491934Y-63656734D01*
X29491933Y-63656734D01*
X29546100Y-63673612D01*
X29645067Y-63704452D01*
X29711619Y-63710500D01*
X30138380Y-63710499D01*
X30138388Y-63710499D01*
X30204925Y-63704453D01*
X30204926Y-63704452D01*
X30204933Y-63704452D01*
X30358069Y-63656733D01*
X30360843Y-63655055D01*
X30363151Y-63654446D01*
X30364909Y-63653655D01*
X30365040Y-63653947D01*
X30428395Y-63637214D01*
X30485008Y-63653837D01*
X30485091Y-63653655D01*
X30486412Y-63654249D01*
X30489155Y-63655055D01*
X30491931Y-63656733D01*
X30645067Y-63704452D01*
X30711619Y-63710500D01*
X31138380Y-63710499D01*
X31138388Y-63710499D01*
X31204926Y-63704453D01*
X31204927Y-63704452D01*
X31204933Y-63704452D01*
X31358069Y-63656733D01*
X31466767Y-63591023D01*
X31495329Y-63573757D01*
X31495329Y-63573756D01*
X31495335Y-63573753D01*
X31576519Y-63492568D01*
X31637838Y-63459086D01*
X31685868Y-63462520D01*
X31666348Y-63420866D01*
X31675610Y-63351613D01*
X31682783Y-63337872D01*
X31691733Y-63323069D01*
X31739452Y-63169933D01*
X31745500Y-63103381D01*
X31745499Y-62601620D01*
X31745499Y-62601611D01*
X31739453Y-62535073D01*
X31739452Y-62535070D01*
X31739452Y-62535067D01*
X31700432Y-62409846D01*
X31691734Y-62381933D01*
X31691732Y-62381929D01*
X31608757Y-62244670D01*
X31608753Y-62244665D01*
X31495334Y-62131246D01*
X31495329Y-62131242D01*
X31358070Y-62048267D01*
X31358066Y-62048265D01*
X31204933Y-62000548D01*
X31204935Y-62000548D01*
X31178312Y-61998128D01*
X31138381Y-61994500D01*
X31138378Y-61994500D01*
X30967598Y-61994500D01*
X30900559Y-61974815D01*
X30879915Y-61958180D01*
X30851817Y-61930081D01*
X30818333Y-61868757D01*
X30815500Y-61842401D01*
X30815500Y-61345219D01*
X30835185Y-61278180D01*
X30851819Y-61257538D01*
X32382538Y-59726819D01*
X32443861Y-59693334D01*
X32470219Y-59690500D01*
X34031982Y-59690500D01*
X34031998Y-59690501D01*
X34039594Y-59690501D01*
X34197705Y-59690501D01*
X34197708Y-59690501D01*
X34350436Y-59649577D01*
X34425485Y-59606247D01*
X34487367Y-59570520D01*
X34599171Y-59458716D01*
X34599172Y-59458714D01*
X34671069Y-59386816D01*
X34732391Y-59353334D01*
X34758748Y-59350500D01*
X35047679Y-59350500D01*
X35114718Y-59370185D01*
X35160473Y-59422989D01*
X35170417Y-59492147D01*
X35141392Y-59555703D01*
X35135360Y-59562181D01*
X35099506Y-59598034D01*
X35099504Y-59598037D01*
X35036905Y-59706463D01*
X35024891Y-59751299D01*
X35004500Y-59827399D01*
X35004500Y-59952601D01*
X35036905Y-60073536D01*
X35099505Y-60181964D01*
X35188036Y-60270495D01*
X35296464Y-60333095D01*
X35417399Y-60365500D01*
X35417401Y-60365500D01*
X35542599Y-60365500D01*
X35542601Y-60365500D01*
X35663536Y-60333095D01*
X35771964Y-60270495D01*
X35808761Y-60233697D01*
X35870082Y-60200211D01*
X35909695Y-60198088D01*
X35932127Y-60200500D01*
X37267872Y-60200499D01*
X37327483Y-60194091D01*
X37428247Y-60156507D01*
X37457697Y-60149470D01*
X37627230Y-60130368D01*
X37627233Y-60130367D01*
X37627236Y-60130367D01*
X37797503Y-60070788D01*
X37950243Y-59974815D01*
X38077797Y-59847261D01*
X38173770Y-59694521D01*
X38233349Y-59524254D01*
X38233350Y-59524248D01*
X38253546Y-59345002D01*
X38253546Y-59344995D01*
X38233350Y-59165749D01*
X38233349Y-59165744D01*
X38210519Y-59100500D01*
X38173770Y-58995477D01*
X38164374Y-58980524D01*
X38112035Y-58897226D01*
X38077797Y-58842737D01*
X37950243Y-58715183D01*
X37846432Y-58649954D01*
X37797497Y-58619206D01*
X37791228Y-58616187D01*
X37791945Y-58614697D01*
X37742159Y-58578982D01*
X37716610Y-58515949D01*
X37716322Y-58513275D01*
X37716320Y-58486747D01*
X37720500Y-58447873D01*
X37720499Y-58367772D01*
X37740183Y-58300735D01*
X37775611Y-58264669D01*
X37789669Y-58255277D01*
X37975276Y-58069670D01*
X38046465Y-57963127D01*
X38095501Y-57844744D01*
X38095896Y-57842756D01*
X38113298Y-57755273D01*
X38120500Y-57719070D01*
X38120500Y-57515275D01*
X38140185Y-57448236D01*
X38192989Y-57402481D01*
X38197048Y-57400714D01*
X38315943Y-57351466D01*
X38315948Y-57351463D01*
X38318163Y-57349984D01*
X38396316Y-57297763D01*
X38422487Y-57280277D01*
X39600321Y-56102441D01*
X39661642Y-56068958D01*
X39731333Y-56073942D01*
X39787267Y-56115813D01*
X39811684Y-56181278D01*
X39812000Y-56190123D01*
X39812000Y-56386668D01*
X39812001Y-56386687D01*
X39822325Y-56487752D01*
X39837860Y-56534631D01*
X39876028Y-56649815D01*
X39876592Y-56651515D01*
X39876593Y-56651518D01*
X39905475Y-56698343D01*
X39966878Y-56797893D01*
X39967161Y-56798351D01*
X40063181Y-56894371D01*
X40096666Y-56955694D01*
X40099500Y-56982052D01*
X40099500Y-57037770D01*
X40079815Y-57104809D01*
X40063181Y-57125451D01*
X39855450Y-57333181D01*
X39794127Y-57366666D01*
X39767769Y-57369500D01*
X39383901Y-57369500D01*
X39317117Y-57375568D01*
X39317106Y-57375571D01*
X39163401Y-57423467D01*
X39025608Y-57506766D01*
X38911766Y-57620608D01*
X38828469Y-57758397D01*
X38780569Y-57912116D01*
X38774500Y-57978911D01*
X38774500Y-59321098D01*
X38780568Y-59387882D01*
X38780571Y-59387893D01*
X38828467Y-59541598D01*
X38828468Y-59541600D01*
X38828469Y-59541602D01*
X38909695Y-59675965D01*
X38911766Y-59679391D01*
X39025608Y-59793233D01*
X39025610Y-59793234D01*
X39025612Y-59793236D01*
X39163398Y-59876531D01*
X39179711Y-59881614D01*
X39237857Y-59920348D01*
X39265832Y-59984373D01*
X39254753Y-60053358D01*
X39208136Y-60105403D01*
X39179717Y-60118383D01*
X39163399Y-60123468D01*
X39025608Y-60206766D01*
X38911766Y-60320608D01*
X38828469Y-60458397D01*
X38780569Y-60612116D01*
X38775713Y-60665557D01*
X38774792Y-60675702D01*
X38774500Y-60678911D01*
X38774500Y-61812769D01*
X38754815Y-61879808D01*
X38738181Y-61900450D01*
X38287949Y-62350681D01*
X38226626Y-62384166D01*
X38200269Y-62387000D01*
X37988331Y-62387000D01*
X37988312Y-62387001D01*
X37887247Y-62397325D01*
X37723484Y-62451592D01*
X37723481Y-62451593D01*
X37576648Y-62542161D01*
X37454661Y-62664148D01*
X37364093Y-62810981D01*
X37364092Y-62810984D01*
X37309826Y-62974747D01*
X37309826Y-62974748D01*
X37309825Y-62974748D01*
X37299500Y-63075815D01*
X37299500Y-63360108D01*
X37279815Y-63427147D01*
X37227011Y-63472902D01*
X37157853Y-63482846D01*
X37094297Y-63453821D01*
X37080992Y-63440384D01*
X36899668Y-63226914D01*
X36860894Y-63190185D01*
X36639837Y-62980789D01*
X36639830Y-62980783D01*
X36639827Y-62980781D01*
X36572245Y-62929407D01*
X36354919Y-62764200D01*
X36048253Y-62579685D01*
X36048252Y-62579684D01*
X36048248Y-62579682D01*
X36048244Y-62579680D01*
X35723447Y-62429414D01*
X35723441Y-62429411D01*
X35723435Y-62429409D01*
X35495377Y-62352567D01*
X35384273Y-62315131D01*
X35034744Y-62238194D01*
X34678949Y-62199500D01*
X34678948Y-62199500D01*
X34321052Y-62199500D01*
X34321050Y-62199500D01*
X33965255Y-62238194D01*
X33615726Y-62315131D01*
X33371784Y-62397326D01*
X33276565Y-62429409D01*
X33276563Y-62429410D01*
X33276552Y-62429414D01*
X32951755Y-62579680D01*
X32951751Y-62579682D01*
X32811365Y-62664150D01*
X32645081Y-62764200D01*
X32583542Y-62810981D01*
X32360172Y-62980781D01*
X32360163Y-62980789D01*
X32100331Y-63226914D01*
X31883414Y-63482288D01*
X31825010Y-63520639D01*
X31769151Y-63521189D01*
X31787881Y-63571405D01*
X31773030Y-63639678D01*
X31766832Y-63649837D01*
X31725702Y-63710500D01*
X31667783Y-63795924D01*
X31500151Y-64112111D01*
X31500142Y-64112129D01*
X31367674Y-64444600D01*
X31367672Y-64444607D01*
X31271932Y-64789434D01*
X31271926Y-64789460D01*
X31214029Y-65142614D01*
X31214028Y-65142627D01*
X31214028Y-65142629D01*
X31212272Y-65175018D01*
X31194652Y-65499997D01*
X31194652Y-65500002D01*
X31196249Y-65529457D01*
X31211449Y-65809812D01*
X31214028Y-65857368D01*
X31214029Y-65857385D01*
X31271926Y-66210539D01*
X31271932Y-66210565D01*
X31367672Y-66555392D01*
X31367674Y-66555399D01*
X31500142Y-66887870D01*
X31500151Y-66887888D01*
X31667784Y-67204077D01*
X31667790Y-67204086D01*
X31868634Y-67500309D01*
X31868641Y-67500319D01*
X32100331Y-67773085D01*
X32100332Y-67773086D01*
X32360163Y-68019211D01*
X32645081Y-68235800D01*
X32951747Y-68420315D01*
X32951749Y-68420316D01*
X32951751Y-68420317D01*
X32951755Y-68420319D01*
X33276552Y-68570585D01*
X33276565Y-68570591D01*
X33615726Y-68684868D01*
X33965254Y-68761805D01*
X34321052Y-68800500D01*
X34321058Y-68800500D01*
X34678942Y-68800500D01*
X34678948Y-68800500D01*
X35034746Y-68761805D01*
X35384274Y-68684868D01*
X35723435Y-68570591D01*
X36048253Y-68420315D01*
X36354919Y-68235800D01*
X36639837Y-68019211D01*
X36899668Y-67773086D01*
X37131365Y-67500311D01*
X37332211Y-67204085D01*
X37499853Y-66887880D01*
X37632324Y-66555403D01*
X37728071Y-66210552D01*
X37783000Y-65875499D01*
X37785970Y-65857385D01*
X37785970Y-65857382D01*
X37785972Y-65857371D01*
X37805348Y-65500000D01*
X37804910Y-65491930D01*
X37799543Y-65392938D01*
X37785972Y-65142629D01*
X37767950Y-65032701D01*
X37728073Y-64789460D01*
X37728072Y-64789459D01*
X37728071Y-64789448D01*
X37671158Y-64584465D01*
X37672190Y-64514602D01*
X37710828Y-64456389D01*
X37774806Y-64428306D01*
X37829639Y-64433584D01*
X37887247Y-64452674D01*
X37988323Y-64463000D01*
X38561676Y-64462999D01*
X38561684Y-64462998D01*
X38561687Y-64462998D01*
X38626385Y-64456389D01*
X38662753Y-64452674D01*
X38826516Y-64398408D01*
X38973350Y-64307840D01*
X39095340Y-64185850D01*
X39185908Y-64039016D01*
X39240174Y-63875253D01*
X39250500Y-63774177D01*
X39250499Y-63611228D01*
X39270183Y-63544190D01*
X39322987Y-63498435D01*
X39392145Y-63488491D01*
X39455701Y-63517516D01*
X39462180Y-63523548D01*
X40363181Y-64424549D01*
X40396666Y-64485872D01*
X40399500Y-64512230D01*
X40399500Y-65175001D01*
X40399501Y-65175019D01*
X40410000Y-65277796D01*
X40410001Y-65277799D01*
X40465185Y-65444331D01*
X40465187Y-65444336D01*
X40488870Y-65482732D01*
X40557288Y-65593656D01*
X40681344Y-65717712D01*
X40830666Y-65809814D01*
X40997203Y-65864999D01*
X41099991Y-65875500D01*
X41900008Y-65875499D01*
X41900016Y-65875498D01*
X41900019Y-65875498D01*
X41956302Y-65869748D01*
X42002797Y-65864999D01*
X42169334Y-65809814D01*
X42318656Y-65717712D01*
X42442712Y-65593656D01*
X42482310Y-65529456D01*
X42534258Y-65482732D01*
X42603220Y-65471509D01*
X42667303Y-65499352D01*
X42675530Y-65506872D01*
X42783072Y-65614414D01*
X42923212Y-65716232D01*
X43077555Y-65794873D01*
X43242299Y-65848402D01*
X43413389Y-65875500D01*
X43413390Y-65875500D01*
X43586610Y-65875500D01*
X43586611Y-65875500D01*
X43757701Y-65848402D01*
X43922445Y-65794873D01*
X44076788Y-65716232D01*
X44216928Y-65614414D01*
X44339414Y-65491928D01*
X44399682Y-65408975D01*
X44455012Y-65366311D01*
X44524626Y-65360332D01*
X44586421Y-65392938D01*
X44600315Y-65408973D01*
X44660586Y-65491928D01*
X44783072Y-65614414D01*
X44923212Y-65716232D01*
X45077555Y-65794873D01*
X45242299Y-65848402D01*
X45413389Y-65875500D01*
X45413390Y-65875500D01*
X45586610Y-65875500D01*
X45586611Y-65875500D01*
X45757701Y-65848402D01*
X45922445Y-65794873D01*
X46076788Y-65716232D01*
X46216928Y-65614414D01*
X46339414Y-65491928D01*
X46441232Y-65351788D01*
X46519873Y-65197445D01*
X46573402Y-65032701D01*
X46600500Y-64861611D01*
X46600500Y-64138389D01*
X46573402Y-63967299D01*
X46571296Y-63960820D01*
X46569300Y-63890980D01*
X46601544Y-63834822D01*
X48127048Y-62309319D01*
X48188371Y-62275834D01*
X48214729Y-62273000D01*
X48343478Y-62273000D01*
X48407627Y-62290883D01*
X48466929Y-62326732D01*
X48466933Y-62326734D01*
X48521100Y-62343612D01*
X48620067Y-62374452D01*
X48686619Y-62380500D01*
X49113380Y-62380499D01*
X49113388Y-62380499D01*
X49179926Y-62374453D01*
X49179927Y-62374452D01*
X49179933Y-62374452D01*
X49333069Y-62326733D01*
X49416345Y-62276391D01*
X49470329Y-62243757D01*
X49470330Y-62243755D01*
X49470335Y-62243753D01*
X49583753Y-62130335D01*
X49587642Y-62123903D01*
X49627757Y-62057544D01*
X49666733Y-61993069D01*
X49714452Y-61839933D01*
X49720500Y-61773381D01*
X49720499Y-61432082D01*
X49740183Y-61365045D01*
X49792987Y-61319290D01*
X49862146Y-61309346D01*
X49925701Y-61338371D01*
X49956881Y-61379679D01*
X50025965Y-61527830D01*
X50025967Y-61527834D01*
X50094564Y-61625800D01*
X50161505Y-61721401D01*
X50328599Y-61888495D01*
X50425384Y-61956265D01*
X50522165Y-62024032D01*
X50522167Y-62024033D01*
X50522170Y-62024035D01*
X50736337Y-62123903D01*
X50736343Y-62123904D01*
X50736344Y-62123905D01*
X50791285Y-62138626D01*
X50964592Y-62185063D01*
X51141034Y-62200500D01*
X51199999Y-62205659D01*
X51200000Y-62205659D01*
X51200001Y-62205659D01*
X51258966Y-62200500D01*
X51435408Y-62185063D01*
X51663663Y-62123903D01*
X51877830Y-62024035D01*
X52071401Y-61888495D01*
X52193329Y-61766566D01*
X52254648Y-61733084D01*
X52324340Y-61738068D01*
X52380274Y-61779939D01*
X52397189Y-61810917D01*
X52446202Y-61942328D01*
X52446206Y-61942335D01*
X52532452Y-62057544D01*
X52532455Y-62057547D01*
X52647664Y-62143793D01*
X52647671Y-62143797D01*
X52782517Y-62194091D01*
X52782516Y-62194091D01*
X52789444Y-62194835D01*
X52842127Y-62200500D01*
X53625500Y-62200499D01*
X53692539Y-62220183D01*
X53738294Y-62272987D01*
X53749500Y-62324499D01*
X53749500Y-63367796D01*
X53729815Y-63434835D01*
X53713180Y-63455478D01*
X53675529Y-63493128D01*
X53614205Y-63526613D01*
X53544514Y-63521627D01*
X53488581Y-63479755D01*
X53482310Y-63470543D01*
X53451669Y-63420866D01*
X53442712Y-63406344D01*
X53318656Y-63282288D01*
X53193559Y-63205128D01*
X53169336Y-63190187D01*
X53169331Y-63190185D01*
X53111561Y-63171042D01*
X53002797Y-63135001D01*
X53002795Y-63135000D01*
X52900010Y-63124500D01*
X52099998Y-63124500D01*
X52099980Y-63124501D01*
X51997203Y-63135000D01*
X51997200Y-63135001D01*
X51830668Y-63190185D01*
X51830663Y-63190187D01*
X51681342Y-63282289D01*
X51557289Y-63406342D01*
X51465187Y-63555663D01*
X51465185Y-63555668D01*
X51454597Y-63587620D01*
X51410001Y-63722203D01*
X51410001Y-63722204D01*
X51410000Y-63722204D01*
X51399500Y-63824983D01*
X51399500Y-65175001D01*
X51399501Y-65175018D01*
X51410000Y-65277796D01*
X51410001Y-65277799D01*
X51465185Y-65444331D01*
X51465187Y-65444336D01*
X51488870Y-65482732D01*
X51557288Y-65593656D01*
X51681344Y-65717712D01*
X51830666Y-65809814D01*
X51997203Y-65864999D01*
X52099991Y-65875500D01*
X52900008Y-65875499D01*
X52900016Y-65875498D01*
X52900019Y-65875498D01*
X52956302Y-65869748D01*
X53002797Y-65864999D01*
X53169334Y-65809814D01*
X53318656Y-65717712D01*
X53442712Y-65593656D01*
X53482310Y-65529456D01*
X53534258Y-65482732D01*
X53603220Y-65471509D01*
X53667303Y-65499352D01*
X53675530Y-65506872D01*
X53783072Y-65614414D01*
X53923212Y-65716232D01*
X54077555Y-65794873D01*
X54242299Y-65848402D01*
X54413389Y-65875500D01*
X54413390Y-65875500D01*
X54586610Y-65875500D01*
X54586611Y-65875500D01*
X54757701Y-65848402D01*
X54922445Y-65794873D01*
X55076788Y-65716232D01*
X55216928Y-65614414D01*
X55339414Y-65491928D01*
X55399682Y-65408975D01*
X55455012Y-65366311D01*
X55524626Y-65360332D01*
X55586421Y-65392938D01*
X55600315Y-65408973D01*
X55660586Y-65491928D01*
X55783072Y-65614414D01*
X55923212Y-65716232D01*
X56077555Y-65794873D01*
X56242299Y-65848402D01*
X56413389Y-65875500D01*
X56413390Y-65875500D01*
X56586610Y-65875500D01*
X56586611Y-65875500D01*
X56757701Y-65848402D01*
X56922445Y-65794873D01*
X57076788Y-65716232D01*
X57216928Y-65614414D01*
X57331345Y-65499997D01*
X62194652Y-65499997D01*
X62194652Y-65500002D01*
X62196249Y-65529457D01*
X62211449Y-65809812D01*
X62214028Y-65857368D01*
X62214029Y-65857385D01*
X62271926Y-66210539D01*
X62271932Y-66210565D01*
X62367672Y-66555392D01*
X62367674Y-66555399D01*
X62500142Y-66887870D01*
X62500151Y-66887888D01*
X62667784Y-67204077D01*
X62667790Y-67204086D01*
X62868634Y-67500309D01*
X62868641Y-67500319D01*
X63100331Y-67773085D01*
X63100332Y-67773086D01*
X63360163Y-68019211D01*
X63645081Y-68235800D01*
X63951747Y-68420315D01*
X63951749Y-68420316D01*
X63951751Y-68420317D01*
X63951755Y-68420319D01*
X64276552Y-68570585D01*
X64276565Y-68570591D01*
X64615726Y-68684868D01*
X64965254Y-68761805D01*
X65321052Y-68800500D01*
X65321058Y-68800500D01*
X65678942Y-68800500D01*
X65678948Y-68800500D01*
X66034746Y-68761805D01*
X66384274Y-68684868D01*
X66723435Y-68570591D01*
X67048253Y-68420315D01*
X67354919Y-68235800D01*
X67639837Y-68019211D01*
X67899668Y-67773086D01*
X68131365Y-67500311D01*
X68332211Y-67204085D01*
X68499853Y-66887880D01*
X68632324Y-66555403D01*
X68728071Y-66210552D01*
X68783000Y-65875499D01*
X68785970Y-65857385D01*
X68785970Y-65857382D01*
X68785972Y-65857371D01*
X68805348Y-65500000D01*
X68804910Y-65491930D01*
X68799543Y-65392938D01*
X68785972Y-65142629D01*
X68767950Y-65032701D01*
X68728073Y-64789460D01*
X68728072Y-64789459D01*
X68728071Y-64789448D01*
X68632324Y-64444597D01*
X68499853Y-64112120D01*
X68425807Y-63972456D01*
X68332215Y-63795922D01*
X68332213Y-63795919D01*
X68332211Y-63795915D01*
X68131365Y-63499689D01*
X68131361Y-63499684D01*
X68131358Y-63499680D01*
X67899668Y-63226914D01*
X67860894Y-63190185D01*
X67639837Y-62980789D01*
X67639830Y-62980783D01*
X67639827Y-62980781D01*
X67572245Y-62929407D01*
X67354919Y-62764200D01*
X67048253Y-62579685D01*
X67048252Y-62579684D01*
X67048248Y-62579682D01*
X67048244Y-62579680D01*
X66723447Y-62429414D01*
X66723441Y-62429411D01*
X66723435Y-62429409D01*
X66495377Y-62352567D01*
X66384273Y-62315131D01*
X66034744Y-62238194D01*
X65678949Y-62199500D01*
X65678948Y-62199500D01*
X65321052Y-62199500D01*
X65321050Y-62199500D01*
X64965255Y-62238194D01*
X64615726Y-62315131D01*
X64371784Y-62397326D01*
X64276565Y-62429409D01*
X64276563Y-62429410D01*
X64276552Y-62429414D01*
X63951755Y-62579680D01*
X63951751Y-62579682D01*
X63811365Y-62664150D01*
X63645081Y-62764200D01*
X63583542Y-62810981D01*
X63360172Y-62980781D01*
X63360163Y-62980789D01*
X63100331Y-63226914D01*
X62868641Y-63499680D01*
X62868634Y-63499690D01*
X62667790Y-63795913D01*
X62667784Y-63795922D01*
X62500151Y-64112111D01*
X62500142Y-64112129D01*
X62367674Y-64444600D01*
X62367672Y-64444607D01*
X62271932Y-64789434D01*
X62271926Y-64789460D01*
X62214029Y-65142614D01*
X62214028Y-65142627D01*
X62214028Y-65142629D01*
X62212272Y-65175018D01*
X62194652Y-65499997D01*
X57331345Y-65499997D01*
X57339414Y-65491928D01*
X57441232Y-65351788D01*
X57519873Y-65197445D01*
X57573402Y-65032701D01*
X57600500Y-64861611D01*
X57600500Y-64138389D01*
X57599015Y-64129016D01*
X57607968Y-64059727D01*
X57652962Y-64006274D01*
X57674029Y-63995061D01*
X57806757Y-63940084D01*
X57861635Y-63903416D01*
X57929678Y-63857952D01*
X58850811Y-62936819D01*
X58912134Y-62903334D01*
X58938492Y-62900500D01*
X59100686Y-62900500D01*
X59100694Y-62900500D01*
X59137569Y-62897598D01*
X59137571Y-62897597D01*
X59137573Y-62897597D01*
X59179191Y-62885505D01*
X59295398Y-62851744D01*
X59436865Y-62768081D01*
X59436870Y-62768075D01*
X59443031Y-62763298D01*
X59444933Y-62765750D01*
X59493579Y-62739155D01*
X59563274Y-62744104D01*
X59595695Y-62764940D01*
X59596969Y-62763298D01*
X59603132Y-62768078D01*
X59603135Y-62768081D01*
X59744602Y-62851744D01*
X59786224Y-62863836D01*
X59902426Y-62897597D01*
X59902429Y-62897597D01*
X59902431Y-62897598D01*
X59939306Y-62900500D01*
X59939314Y-62900500D01*
X60370686Y-62900500D01*
X60370694Y-62900500D01*
X60407569Y-62897598D01*
X60407571Y-62897597D01*
X60407573Y-62897597D01*
X60449191Y-62885505D01*
X60565398Y-62851744D01*
X60706865Y-62768081D01*
X60823081Y-62651865D01*
X60906744Y-62510398D01*
X60942081Y-62388770D01*
X60952597Y-62352573D01*
X60952598Y-62352567D01*
X60955500Y-62315694D01*
X60955500Y-60534306D01*
X60952598Y-60497431D01*
X60941257Y-60458397D01*
X60906745Y-60339606D01*
X60906744Y-60339603D01*
X60906744Y-60339602D01*
X60823081Y-60198135D01*
X60823079Y-60198133D01*
X60823076Y-60198129D01*
X60706870Y-60081923D01*
X60706861Y-60081916D01*
X60565400Y-59998256D01*
X60564349Y-59997802D01*
X60562459Y-59996517D01*
X60558684Y-59994285D01*
X60558824Y-59994047D01*
X60525919Y-59971683D01*
X60519397Y-59965161D01*
X60519374Y-59965140D01*
X59448915Y-58894681D01*
X59415430Y-58833358D01*
X59420414Y-58763666D01*
X59462286Y-58707733D01*
X59527750Y-58683316D01*
X59536596Y-58683000D01*
X60779621Y-58683000D01*
X60846660Y-58702685D01*
X60867303Y-58719320D01*
X60915040Y-58767058D01*
X60915044Y-58767061D01*
X60915046Y-58767063D01*
X61057600Y-58851370D01*
X61099541Y-58863555D01*
X61216637Y-58897575D01*
X61216640Y-58897575D01*
X61216642Y-58897576D01*
X61253797Y-58900500D01*
X61696202Y-58900499D01*
X61733358Y-58897576D01*
X61892400Y-58851370D01*
X62034954Y-58767063D01*
X62152063Y-58649954D01*
X62236370Y-58507400D01*
X62282576Y-58348358D01*
X62285500Y-58311203D01*
X62285499Y-57753798D01*
X62282576Y-57716642D01*
X62236370Y-57557600D01*
X62168466Y-57442782D01*
X62152065Y-57415049D01*
X62152058Y-57415040D01*
X62034959Y-57297941D01*
X62034950Y-57297934D01*
X61892398Y-57213629D01*
X61892395Y-57213628D01*
X61733362Y-57167424D01*
X61733356Y-57167423D01*
X61696203Y-57164500D01*
X61253809Y-57164500D01*
X61253784Y-57164501D01*
X61216644Y-57167423D01*
X61114094Y-57197217D01*
X61044225Y-57197017D01*
X60985555Y-57159074D01*
X60956712Y-57095436D01*
X60955500Y-57078140D01*
X60955500Y-55584313D01*
X60955499Y-55584298D01*
X60952598Y-55547432D01*
X60952597Y-55547426D01*
X60906745Y-55389606D01*
X60906744Y-55389603D01*
X60906744Y-55389602D01*
X60863740Y-55316887D01*
X60846558Y-55249164D01*
X60868718Y-55182901D01*
X60882782Y-55166097D01*
X61151465Y-54897413D01*
X61212786Y-54863930D01*
X61273739Y-54866020D01*
X61382426Y-54897597D01*
X61382429Y-54897597D01*
X61382431Y-54897598D01*
X61419306Y-54900500D01*
X61419314Y-54900500D01*
X61850686Y-54900500D01*
X61850694Y-54900500D01*
X61887569Y-54897598D01*
X61887571Y-54897597D01*
X61887573Y-54897597D01*
X61965072Y-54875081D01*
X62045398Y-54851744D01*
X62186865Y-54768081D01*
X62186870Y-54768075D01*
X62193031Y-54763298D01*
X62194933Y-54765750D01*
X62243579Y-54739155D01*
X62313274Y-54744104D01*
X62345695Y-54764940D01*
X62346969Y-54763298D01*
X62353132Y-54768078D01*
X62353135Y-54768081D01*
X62494602Y-54851744D01*
X62526788Y-54861095D01*
X62652426Y-54897597D01*
X62652429Y-54897597D01*
X62652431Y-54897598D01*
X62689306Y-54900500D01*
X62689314Y-54900500D01*
X63120686Y-54900500D01*
X63120694Y-54900500D01*
X63157569Y-54897598D01*
X63157571Y-54897597D01*
X63157573Y-54897597D01*
X63235072Y-54875081D01*
X63315398Y-54851744D01*
X63316152Y-54851298D01*
X65399500Y-54851298D01*
X65399500Y-56248703D01*
X65414696Y-56364142D01*
X65414699Y-56364151D01*
X65465896Y-56487752D01*
X65474200Y-56507798D01*
X65568851Y-56631149D01*
X65692202Y-56725800D01*
X65835849Y-56785301D01*
X65951299Y-56800500D01*
X66748700Y-56800499D01*
X66748703Y-56800499D01*
X66864142Y-56785303D01*
X66864146Y-56785301D01*
X66864151Y-56785301D01*
X67007798Y-56725800D01*
X67131149Y-56631149D01*
X67225800Y-56507798D01*
X67285301Y-56364151D01*
X67300500Y-56248701D01*
X67300499Y-54851300D01*
X67300499Y-54851298D01*
X67300499Y-54851296D01*
X67285303Y-54735857D01*
X67285301Y-54735850D01*
X67285301Y-54735849D01*
X67225800Y-54592202D01*
X67131149Y-54468851D01*
X67007798Y-54374200D01*
X67007794Y-54374198D01*
X66864151Y-54314699D01*
X66864149Y-54314698D01*
X66748701Y-54299500D01*
X65951296Y-54299500D01*
X65835857Y-54314696D01*
X65835848Y-54314699D01*
X65692205Y-54374198D01*
X65692202Y-54374199D01*
X65692202Y-54374200D01*
X65568851Y-54468851D01*
X65485472Y-54577513D01*
X65474198Y-54592205D01*
X65414699Y-54735848D01*
X65414698Y-54735850D01*
X65399500Y-54851298D01*
X63316152Y-54851298D01*
X63456865Y-54768081D01*
X63573081Y-54651865D01*
X63656744Y-54510398D01*
X63656745Y-54510394D01*
X63656746Y-54510393D01*
X63677225Y-54439905D01*
X63714831Y-54381019D01*
X63778304Y-54351813D01*
X63796301Y-54350500D01*
X63950707Y-54350500D01*
X64013827Y-54367767D01*
X64032600Y-54378870D01*
X64039997Y-54381019D01*
X64191637Y-54425075D01*
X64191640Y-54425075D01*
X64191642Y-54425076D01*
X64228797Y-54428000D01*
X64671202Y-54427999D01*
X64708358Y-54425076D01*
X64867400Y-54378870D01*
X65009954Y-54294563D01*
X65127063Y-54177454D01*
X65211370Y-54034900D01*
X65257576Y-53875858D01*
X65260500Y-53838703D01*
X65260499Y-53281298D01*
X65257576Y-53244142D01*
X65211370Y-53085100D01*
X65127063Y-52942546D01*
X65127061Y-52942544D01*
X65127058Y-52942540D01*
X65009959Y-52825441D01*
X65009950Y-52825434D01*
X64867398Y-52741129D01*
X64867395Y-52741128D01*
X64708362Y-52694924D01*
X64708356Y-52694923D01*
X64671203Y-52692000D01*
X64228809Y-52692000D01*
X64228784Y-52692001D01*
X64191645Y-52694923D01*
X64032599Y-52741130D01*
X63883331Y-52829408D01*
X63882226Y-52827540D01*
X63827528Y-52849015D01*
X63816569Y-52849500D01*
X63796301Y-52849500D01*
X63729262Y-52829815D01*
X63683507Y-52777011D01*
X63677225Y-52760095D01*
X63656746Y-52689606D01*
X63656744Y-52689603D01*
X63656744Y-52689602D01*
X63573081Y-52548135D01*
X63573079Y-52548133D01*
X63573076Y-52548129D01*
X63456870Y-52431923D01*
X63456862Y-52431917D01*
X63324512Y-52353646D01*
X63315398Y-52348256D01*
X63315397Y-52348255D01*
X63315396Y-52348255D01*
X63315393Y-52348254D01*
X63157573Y-52302402D01*
X63157567Y-52302401D01*
X63120701Y-52299500D01*
X63120694Y-52299500D01*
X62689306Y-52299500D01*
X62689298Y-52299500D01*
X62652432Y-52302401D01*
X62652426Y-52302402D01*
X62494606Y-52348254D01*
X62494603Y-52348255D01*
X62353137Y-52431917D01*
X62346969Y-52436702D01*
X62345072Y-52434256D01*
X62296358Y-52460857D01*
X62226666Y-52455873D01*
X62194296Y-52435069D01*
X62193031Y-52436702D01*
X62186862Y-52431917D01*
X62054512Y-52353646D01*
X62045398Y-52348256D01*
X62045397Y-52348255D01*
X62045396Y-52348255D01*
X62045393Y-52348254D01*
X61887573Y-52302402D01*
X61887567Y-52302401D01*
X61850701Y-52299500D01*
X61850694Y-52299500D01*
X61419306Y-52299500D01*
X61419298Y-52299500D01*
X61382432Y-52302401D01*
X61382426Y-52302402D01*
X61224606Y-52348254D01*
X61224603Y-52348255D01*
X61083137Y-52431917D01*
X61076969Y-52436702D01*
X61075072Y-52434256D01*
X61026358Y-52460857D01*
X60956666Y-52455873D01*
X60924296Y-52435069D01*
X60923031Y-52436702D01*
X60916862Y-52431917D01*
X60784512Y-52353646D01*
X60775398Y-52348256D01*
X60775397Y-52348255D01*
X60775396Y-52348255D01*
X60775393Y-52348254D01*
X60617573Y-52302402D01*
X60617567Y-52302401D01*
X60580701Y-52299500D01*
X60580694Y-52299500D01*
X60149306Y-52299500D01*
X60149298Y-52299500D01*
X60112432Y-52302401D01*
X60112426Y-52302402D01*
X59954606Y-52348254D01*
X59954603Y-52348255D01*
X59813137Y-52431917D01*
X59806969Y-52436702D01*
X59805072Y-52434256D01*
X59756358Y-52460857D01*
X59686666Y-52455873D01*
X59654296Y-52435069D01*
X59653031Y-52436702D01*
X59646862Y-52431917D01*
X59514512Y-52353646D01*
X59505398Y-52348256D01*
X59505397Y-52348255D01*
X59505396Y-52348255D01*
X59505393Y-52348254D01*
X59347573Y-52302402D01*
X59347567Y-52302401D01*
X59310701Y-52299500D01*
X59310694Y-52299500D01*
X58879306Y-52299500D01*
X58879298Y-52299500D01*
X58842432Y-52302401D01*
X58842426Y-52302402D01*
X58684606Y-52348254D01*
X58684603Y-52348255D01*
X58543137Y-52431917D01*
X58543129Y-52431923D01*
X58426923Y-52548129D01*
X58426917Y-52548137D01*
X58343255Y-52689603D01*
X58343254Y-52689606D01*
X58297402Y-52847426D01*
X58297401Y-52847432D01*
X58294500Y-52884298D01*
X58294500Y-53535258D01*
X58274815Y-53602297D01*
X58258181Y-53622939D01*
X58167939Y-53713181D01*
X58106616Y-53746666D01*
X58080258Y-53749500D01*
X56594641Y-53749500D01*
X56527602Y-53729815D01*
X56506960Y-53713181D01*
X54991344Y-52197565D01*
X54957859Y-52136242D01*
X54962843Y-52066550D01*
X55004715Y-52010617D01*
X55070179Y-51986200D01*
X55079025Y-51985884D01*
X55565380Y-51985884D01*
X55565382Y-51985884D01*
X55711751Y-51946665D01*
X55842981Y-51870899D01*
X58460515Y-49253365D01*
X58536281Y-49122135D01*
X58575500Y-48975767D01*
X58575500Y-48824234D01*
X58575500Y-46238124D01*
X58595185Y-46171085D01*
X58611819Y-46150443D01*
X58925443Y-45836819D01*
X58986766Y-45803334D01*
X59013124Y-45800500D01*
X59360258Y-45800500D01*
X59427297Y-45820185D01*
X59447939Y-45836819D01*
X59528181Y-45917061D01*
X59561666Y-45978384D01*
X59564500Y-46004742D01*
X59564500Y-47115701D01*
X59567401Y-47152567D01*
X59567402Y-47152573D01*
X59613254Y-47310393D01*
X59613255Y-47310396D01*
X59613256Y-47310398D01*
X59636669Y-47349987D01*
X59696917Y-47451862D01*
X59696923Y-47451870D01*
X59813129Y-47568076D01*
X59813133Y-47568079D01*
X59813135Y-47568081D01*
X59954602Y-47651744D01*
X59992488Y-47662751D01*
X60112426Y-47697597D01*
X60112429Y-47697597D01*
X60112431Y-47697598D01*
X60149306Y-47700500D01*
X60149314Y-47700500D01*
X60580686Y-47700500D01*
X60580694Y-47700500D01*
X60617569Y-47697598D01*
X60617571Y-47697597D01*
X60617573Y-47697597D01*
X60704214Y-47672425D01*
X60775398Y-47651744D01*
X60916865Y-47568081D01*
X60916870Y-47568075D01*
X60923031Y-47563298D01*
X60924933Y-47565750D01*
X60973579Y-47539155D01*
X61043274Y-47544104D01*
X61075695Y-47564940D01*
X61076969Y-47563298D01*
X61083132Y-47568078D01*
X61083135Y-47568081D01*
X61224602Y-47651744D01*
X61262488Y-47662751D01*
X61382426Y-47697597D01*
X61382429Y-47697597D01*
X61382431Y-47697598D01*
X61419306Y-47700500D01*
X61419314Y-47700500D01*
X61850686Y-47700500D01*
X61850694Y-47700500D01*
X61887569Y-47697598D01*
X61887571Y-47697597D01*
X61887573Y-47697597D01*
X61974214Y-47672425D01*
X62045398Y-47651744D01*
X62186865Y-47568081D01*
X62186870Y-47568075D01*
X62193031Y-47563298D01*
X62194933Y-47565750D01*
X62243579Y-47539155D01*
X62313274Y-47544104D01*
X62345695Y-47564940D01*
X62346969Y-47563298D01*
X62353132Y-47568078D01*
X62353135Y-47568081D01*
X62494602Y-47651744D01*
X62532488Y-47662751D01*
X62652426Y-47697597D01*
X62652429Y-47697597D01*
X62652431Y-47697598D01*
X62689306Y-47700500D01*
X62689314Y-47700500D01*
X63120686Y-47700500D01*
X63120694Y-47700500D01*
X63157569Y-47697598D01*
X63157571Y-47697597D01*
X63157573Y-47697597D01*
X63244214Y-47672425D01*
X63315398Y-47651744D01*
X63456865Y-47568081D01*
X63459196Y-47565750D01*
X63463128Y-47561819D01*
X63524451Y-47528334D01*
X63550809Y-47525500D01*
X63970511Y-47525500D01*
X64024268Y-47540485D01*
X64025092Y-47538655D01*
X64031933Y-47541734D01*
X64086100Y-47558612D01*
X64185067Y-47589452D01*
X64251619Y-47595500D01*
X64753380Y-47595499D01*
X64753388Y-47595499D01*
X64819926Y-47589453D01*
X64819927Y-47589452D01*
X64819933Y-47589452D01*
X64973069Y-47541733D01*
X65035850Y-47503779D01*
X65103405Y-47485944D01*
X65164149Y-47503779D01*
X65226931Y-47541733D01*
X65226934Y-47541734D01*
X65226933Y-47541734D01*
X65281100Y-47558612D01*
X65380067Y-47589452D01*
X65446619Y-47595500D01*
X65948380Y-47595499D01*
X65948388Y-47595499D01*
X66014926Y-47589453D01*
X66014927Y-47589452D01*
X66014933Y-47589452D01*
X66168069Y-47541733D01*
X66168071Y-47541731D01*
X66174908Y-47538655D01*
X66175731Y-47540485D01*
X66229489Y-47525500D01*
X66398920Y-47525500D01*
X66508109Y-47503780D01*
X66543913Y-47496658D01*
X66680495Y-47440084D01*
X66739737Y-47400500D01*
X66739737Y-47400499D01*
X66739739Y-47400499D01*
X66771363Y-47379368D01*
X66803416Y-47357952D01*
X66833062Y-47328304D01*
X66869134Y-47305655D01*
X66868246Y-47303811D01*
X66874518Y-47300790D01*
X66874522Y-47300789D01*
X67027262Y-47204816D01*
X67154816Y-47077262D01*
X67250789Y-46924522D01*
X67310368Y-46754255D01*
X67313835Y-46723484D01*
X67330565Y-46575003D01*
X67330565Y-46574997D01*
X67309991Y-46392401D01*
X67322045Y-46323579D01*
X67345527Y-46290839D01*
X68949549Y-44686818D01*
X69010872Y-44653333D01*
X69037230Y-44650499D01*
X69772871Y-44650499D01*
X69772872Y-44650499D01*
X69832483Y-44644091D01*
X69967331Y-44593796D01*
X70082546Y-44507546D01*
X70168796Y-44392331D01*
X70219091Y-44257483D01*
X70225500Y-44197873D01*
X70225499Y-43202128D01*
X70219091Y-43142517D01*
X70205389Y-43105781D01*
X70168797Y-43007671D01*
X70168793Y-43007664D01*
X70082547Y-42892455D01*
X70082544Y-42892452D01*
X69967335Y-42806206D01*
X69967328Y-42806202D01*
X69832482Y-42755908D01*
X69832483Y-42755908D01*
X69772883Y-42749501D01*
X69772881Y-42749500D01*
X69772873Y-42749500D01*
X69772864Y-42749500D01*
X67977129Y-42749500D01*
X67977123Y-42749501D01*
X67917516Y-42755908D01*
X67782671Y-42806202D01*
X67782664Y-42806206D01*
X67667455Y-42892452D01*
X67667452Y-42892455D01*
X67581206Y-43007664D01*
X67581202Y-43007671D01*
X67530908Y-43142517D01*
X67524782Y-43199500D01*
X67524501Y-43202123D01*
X67524500Y-43202135D01*
X67524500Y-43937769D01*
X67504815Y-44004808D01*
X67488181Y-44025450D01*
X66475451Y-45038181D01*
X66414128Y-45071666D01*
X66387770Y-45074500D01*
X66229489Y-45074500D01*
X66175731Y-45059514D01*
X66174908Y-45061345D01*
X66168066Y-45058265D01*
X66014933Y-45010548D01*
X66014935Y-45010548D01*
X65988312Y-45008128D01*
X65948381Y-45004500D01*
X65948378Y-45004500D01*
X65446611Y-45004500D01*
X65380073Y-45010546D01*
X65380066Y-45010548D01*
X65226933Y-45058265D01*
X65226929Y-45058267D01*
X65164149Y-45096219D01*
X65096594Y-45114055D01*
X65035853Y-45096221D01*
X65035180Y-45095814D01*
X65013513Y-45082716D01*
X64966326Y-45031191D01*
X64954485Y-44962332D01*
X64972123Y-44911504D01*
X65059814Y-44769335D01*
X65114999Y-44602798D01*
X65125500Y-44500010D01*
X65125500Y-39499990D01*
X65114999Y-39397202D01*
X65059814Y-39230665D01*
X64967712Y-39081344D01*
X64843656Y-38957288D01*
X64750890Y-38900070D01*
X64694337Y-38865187D01*
X64694332Y-38865185D01*
X64692863Y-38864698D01*
X64527798Y-38810001D01*
X64527796Y-38810000D01*
X64425017Y-38799500D01*
X64425010Y-38799500D01*
X62849990Y-38799500D01*
X62849982Y-38799500D01*
X62747203Y-38810000D01*
X62747202Y-38810001D01*
X62679172Y-38832544D01*
X62580667Y-38865185D01*
X62580662Y-38865187D01*
X62431342Y-38957289D01*
X62307289Y-39081342D01*
X62215187Y-39230662D01*
X62215186Y-39230665D01*
X62160001Y-39397202D01*
X62160001Y-39397203D01*
X62160000Y-39397203D01*
X62149500Y-39499982D01*
X62149500Y-44500017D01*
X62160000Y-44602796D01*
X62215185Y-44769332D01*
X62215187Y-44769337D01*
X62235402Y-44802110D01*
X62302875Y-44911502D01*
X62307289Y-44918657D01*
X62408135Y-45019503D01*
X62441620Y-45080826D01*
X62436636Y-45150518D01*
X62394764Y-45206451D01*
X62383576Y-45213915D01*
X62353140Y-45231914D01*
X62346969Y-45236702D01*
X62345072Y-45234256D01*
X62296358Y-45260857D01*
X62226666Y-45255873D01*
X62194296Y-45235069D01*
X62193031Y-45236702D01*
X62186862Y-45231917D01*
X62046150Y-45148701D01*
X62045398Y-45148256D01*
X62045397Y-45148255D01*
X62045396Y-45148255D01*
X62045393Y-45148254D01*
X61887573Y-45102402D01*
X61887567Y-45102401D01*
X61850701Y-45099500D01*
X61850694Y-45099500D01*
X61419306Y-45099500D01*
X61419298Y-45099500D01*
X61382432Y-45102401D01*
X61382426Y-45102402D01*
X61273740Y-45133979D01*
X61203870Y-45133780D01*
X61151464Y-45102584D01*
X60563367Y-44514487D01*
X60563365Y-44514485D01*
X60497750Y-44476602D01*
X60432136Y-44438719D01*
X60358950Y-44419109D01*
X60285766Y-44399500D01*
X58544062Y-44399500D01*
X58397691Y-44438719D01*
X58324273Y-44481108D01*
X58287563Y-44502303D01*
X58281293Y-44505922D01*
X58266463Y-44514484D01*
X57289487Y-45491460D01*
X57289485Y-45491463D01*
X57213719Y-45622691D01*
X57174500Y-45769062D01*
X57174500Y-47876809D01*
X57154815Y-47943848D01*
X57108126Y-47986605D01*
X56966056Y-48061169D01*
X56838722Y-48173978D01*
X56742088Y-48313974D01*
X56742088Y-48313975D01*
X56681764Y-48473037D01*
X56681763Y-48473040D01*
X56681374Y-48476247D01*
X56680436Y-48478424D01*
X56679970Y-48480317D01*
X56679655Y-48480239D01*
X56653746Y-48540422D01*
X56645961Y-48548969D01*
X55214549Y-49980383D01*
X55153226Y-50013868D01*
X55126868Y-50016702D01*
X54808850Y-50016702D01*
X54741811Y-49997017D01*
X54696056Y-49944213D01*
X54686112Y-49875055D01*
X54715137Y-49811499D01*
X54721169Y-49805021D01*
X55248226Y-49277964D01*
X55309549Y-49244479D01*
X55335907Y-49241645D01*
X55390863Y-49241645D01*
X55390867Y-49241645D01*
X55551282Y-49200458D01*
X55623848Y-49160564D01*
X55696411Y-49120673D01*
X55696411Y-49120672D01*
X55696414Y-49120671D01*
X55724754Y-49096466D01*
X56118898Y-48702320D01*
X56143105Y-48673980D01*
X56222892Y-48528848D01*
X56264079Y-48368433D01*
X56264079Y-48202816D01*
X56222892Y-48042401D01*
X56213578Y-48025458D01*
X56143108Y-47897274D01*
X56143106Y-47897272D01*
X56143105Y-47897269D01*
X56141593Y-47895499D01*
X56125631Y-47876809D01*
X56118900Y-47868928D01*
X56052088Y-47802116D01*
X55905348Y-47655376D01*
X55871863Y-47594053D01*
X55876847Y-47524361D01*
X55905348Y-47480014D01*
X56232565Y-47152795D01*
X56232564Y-47152795D01*
X56232579Y-47152781D01*
X56232753Y-47152573D01*
X56249986Y-47131895D01*
X56275364Y-47101446D01*
X56349905Y-46959420D01*
X56388291Y-46803682D01*
X56388291Y-46643285D01*
X56349905Y-46487547D01*
X56275364Y-46345521D01*
X56275362Y-46345519D01*
X56275362Y-46345518D01*
X56253972Y-46319853D01*
X56232581Y-46294186D01*
X55930814Y-45992421D01*
X55930806Y-45992413D01*
X55879480Y-45949637D01*
X55879479Y-45949636D01*
X55879476Y-45949634D01*
X55879471Y-45949631D01*
X55730812Y-45871609D01*
X55731688Y-45869938D01*
X55683844Y-45833708D01*
X55673724Y-45817574D01*
X55672402Y-45815055D01*
X55672401Y-45815051D01*
X55597860Y-45673025D01*
X55597856Y-45673020D01*
X55597855Y-45673018D01*
X55559592Y-45627108D01*
X55555077Y-45621690D01*
X55288099Y-45354714D01*
X55254616Y-45293394D01*
X55256006Y-45234945D01*
X55290501Y-45106214D01*
X55290501Y-44948100D01*
X55290501Y-44940505D01*
X55290500Y-44940487D01*
X55290500Y-42085097D01*
X55310185Y-42018058D01*
X55326819Y-41997416D01*
X57722416Y-39601819D01*
X57783739Y-39568334D01*
X57810097Y-39565500D01*
X59258331Y-39565500D01*
X59258347Y-39565501D01*
X59265943Y-39565501D01*
X59424054Y-39565501D01*
X59424057Y-39565501D01*
X59576785Y-39524577D01*
X59626904Y-39495639D01*
X59713716Y-39445520D01*
X59825520Y-39333716D01*
X59825521Y-39333713D01*
X60147418Y-39011815D01*
X60208740Y-38978333D01*
X60235098Y-38975499D01*
X60482871Y-38975499D01*
X60482872Y-38975499D01*
X60542483Y-38969091D01*
X60670540Y-38921329D01*
X60677329Y-38918797D01*
X60677329Y-38918796D01*
X60677331Y-38918796D01*
X60695688Y-38905053D01*
X60761150Y-38880635D01*
X60829424Y-38895485D01*
X60844308Y-38905050D01*
X60850671Y-38909814D01*
X60862669Y-38918796D01*
X60862670Y-38918797D01*
X60937155Y-38946577D01*
X60997517Y-38969091D01*
X61057127Y-38975500D01*
X61752872Y-38975499D01*
X61812483Y-38969091D01*
X61947331Y-38918796D01*
X62062546Y-38832546D01*
X62148796Y-38717331D01*
X62199091Y-38582483D01*
X62205500Y-38522873D01*
X62205499Y-38218964D01*
X62222112Y-38156965D01*
X62257680Y-38095359D01*
X62302179Y-38018284D01*
X62360674Y-37838256D01*
X62380460Y-37650000D01*
X62360674Y-37461744D01*
X62302179Y-37281716D01*
X62254617Y-37199336D01*
X62222112Y-37143035D01*
X62205499Y-37081035D01*
X62205499Y-36877129D01*
X62205498Y-36877123D01*
X62205497Y-36877116D01*
X62199091Y-36817517D01*
X62182519Y-36773086D01*
X62148797Y-36682671D01*
X62148793Y-36682664D01*
X62062547Y-36567455D01*
X62062544Y-36567452D01*
X61947335Y-36481206D01*
X61947328Y-36481202D01*
X61812486Y-36430910D01*
X61812485Y-36430909D01*
X61812483Y-36430909D01*
X61752873Y-36424500D01*
X61752863Y-36424500D01*
X61057129Y-36424500D01*
X61057123Y-36424501D01*
X60997516Y-36430908D01*
X60862671Y-36481202D01*
X60862665Y-36481205D01*
X60844309Y-36494947D01*
X60778844Y-36519363D01*
X60710571Y-36504510D01*
X60695691Y-36494947D01*
X60677334Y-36481205D01*
X60677328Y-36481202D01*
X60542486Y-36430910D01*
X60542485Y-36430909D01*
X60542483Y-36430909D01*
X60482873Y-36424500D01*
X60482863Y-36424500D01*
X59787129Y-36424500D01*
X59787123Y-36424501D01*
X59727516Y-36430908D01*
X59592671Y-36481202D01*
X59592665Y-36481205D01*
X59574309Y-36494947D01*
X59508844Y-36519363D01*
X59440571Y-36504510D01*
X59425691Y-36494947D01*
X59407334Y-36481205D01*
X59407328Y-36481202D01*
X59272486Y-36430910D01*
X59272485Y-36430909D01*
X59272483Y-36430909D01*
X59212873Y-36424500D01*
X59212863Y-36424500D01*
X58517129Y-36424500D01*
X58517123Y-36424501D01*
X58457516Y-36430908D01*
X58322671Y-36481202D01*
X58322665Y-36481205D01*
X58304309Y-36494947D01*
X58238844Y-36519363D01*
X58170571Y-36504510D01*
X58155691Y-36494947D01*
X58137334Y-36481205D01*
X58137328Y-36481202D01*
X58002486Y-36430910D01*
X58002485Y-36430909D01*
X58002483Y-36430909D01*
X57942873Y-36424500D01*
X57942863Y-36424500D01*
X57247129Y-36424500D01*
X57247123Y-36424501D01*
X57187516Y-36430908D01*
X57052671Y-36481202D01*
X57052664Y-36481206D01*
X56937455Y-36567452D01*
X56937452Y-36567455D01*
X56851206Y-36682664D01*
X56851202Y-36682671D01*
X56800908Y-36817517D01*
X56796412Y-36859344D01*
X56794501Y-36877123D01*
X56794500Y-36877135D01*
X56794500Y-36966969D01*
X56774815Y-37034008D01*
X56739391Y-37070071D01*
X56669084Y-37117048D01*
X56669080Y-37117051D01*
X55064378Y-38721752D01*
X55003055Y-38755237D01*
X54987919Y-38757562D01*
X54955073Y-38760546D01*
X54955066Y-38760548D01*
X54801933Y-38808265D01*
X54801929Y-38808267D01*
X54664670Y-38891242D01*
X54664665Y-38891246D01*
X54551246Y-39004665D01*
X54551242Y-39004670D01*
X54468267Y-39141929D01*
X54468265Y-39141933D01*
X54420548Y-39295065D01*
X54414500Y-39361621D01*
X54414500Y-39788388D01*
X54420546Y-39854926D01*
X54420548Y-39854933D01*
X54468265Y-40008066D01*
X54468267Y-40008070D01*
X54551242Y-40145329D01*
X54551246Y-40145334D01*
X54664665Y-40258753D01*
X54664669Y-40258756D01*
X54711341Y-40286970D01*
X54758529Y-40338497D01*
X54770368Y-40407356D01*
X54743100Y-40471685D01*
X54734873Y-40480768D01*
X54031286Y-41184356D01*
X53919481Y-41296160D01*
X53919475Y-41296168D01*
X53876034Y-41371412D01*
X53876034Y-41371413D01*
X53840423Y-41433092D01*
X53840423Y-41433093D01*
X53799499Y-41585821D01*
X53799499Y-41585823D01*
X53799499Y-41753924D01*
X53799500Y-41753937D01*
X53799500Y-44451373D01*
X53779815Y-44518412D01*
X53763181Y-44539054D01*
X53376284Y-44925950D01*
X53314961Y-44959435D01*
X53245269Y-44954451D01*
X53200924Y-44925952D01*
X53181090Y-44906119D01*
X53181078Y-44906108D01*
X53181072Y-44906102D01*
X53152731Y-44881895D01*
X53007599Y-44802108D01*
X53007594Y-44802106D01*
X53007592Y-44802106D01*
X52847187Y-44760921D01*
X52847184Y-44760921D01*
X52681567Y-44760921D01*
X52681563Y-44760921D01*
X52521158Y-44802106D01*
X52521153Y-44802107D01*
X52521152Y-44802108D01*
X52521151Y-44802108D01*
X52521147Y-44802110D01*
X52509566Y-44808477D01*
X52441336Y-44823523D01*
X52375802Y-44799291D01*
X52333773Y-44743477D01*
X52325831Y-44699814D01*
X52325831Y-42721276D01*
X52325830Y-42721272D01*
X52312531Y-42671637D01*
X52284908Y-42568546D01*
X52238821Y-42488721D01*
X52205851Y-42431615D01*
X52094047Y-42319811D01*
X52094046Y-42319810D01*
X52089716Y-42315480D01*
X52089705Y-42315470D01*
X48961415Y-39187180D01*
X48927930Y-39125857D01*
X48932914Y-39056165D01*
X48974786Y-39000232D01*
X49040250Y-38975815D01*
X49049096Y-38975499D01*
X49300002Y-38975499D01*
X49300008Y-38975499D01*
X49402797Y-38964999D01*
X49569334Y-38909814D01*
X49718656Y-38817712D01*
X49842712Y-38693656D01*
X49894461Y-38609756D01*
X49946409Y-38563032D01*
X50015371Y-38551809D01*
X50079454Y-38579653D01*
X50105539Y-38609757D01*
X50147035Y-38677034D01*
X50157288Y-38693656D01*
X50281344Y-38817712D01*
X50430666Y-38909814D01*
X50597203Y-38964999D01*
X50699991Y-38975500D01*
X50906608Y-38975499D01*
X50973647Y-38995183D01*
X51019402Y-39047987D01*
X51029346Y-39117145D01*
X51024993Y-39136391D01*
X51010414Y-39183174D01*
X51002748Y-39200680D01*
X51002965Y-39200777D01*
X51000321Y-39206715D01*
X50949989Y-39361621D01*
X50941826Y-39386744D01*
X50922040Y-39575000D01*
X50941826Y-39763256D01*
X50941827Y-39763259D01*
X51000320Y-39943281D01*
X51002963Y-39949217D01*
X51002744Y-39949314D01*
X51010415Y-39966828D01*
X51023264Y-40008062D01*
X51023267Y-40008070D01*
X51106242Y-40145329D01*
X51106246Y-40145334D01*
X51219664Y-40258752D01*
X51219668Y-40258755D01*
X51315904Y-40316931D01*
X51324640Y-40322730D01*
X51374769Y-40359151D01*
X51547692Y-40436142D01*
X51547697Y-40436144D01*
X51732854Y-40475500D01*
X51732855Y-40475500D01*
X51922144Y-40475500D01*
X51922146Y-40475500D01*
X52107303Y-40436144D01*
X52280230Y-40359151D01*
X52330366Y-40322723D01*
X52339073Y-40316943D01*
X52435335Y-40258753D01*
X52548753Y-40145335D01*
X52631733Y-40008069D01*
X52644584Y-39966824D01*
X52652254Y-39949318D01*
X52652035Y-39949221D01*
X52654675Y-39943290D01*
X52654679Y-39943284D01*
X52713174Y-39763256D01*
X52732960Y-39575000D01*
X52713174Y-39386744D01*
X52654679Y-39206716D01*
X52654678Y-39206715D01*
X52654678Y-39206713D01*
X52652037Y-39200781D01*
X52652254Y-39200684D01*
X52644584Y-39183171D01*
X52640074Y-39168701D01*
X52631733Y-39141931D01*
X52631731Y-39141929D01*
X52630006Y-39136391D01*
X52628854Y-39066531D01*
X52665654Y-39007138D01*
X52728722Y-38977069D01*
X52748379Y-38975499D01*
X53300008Y-38975499D01*
X53300016Y-38975498D01*
X53300019Y-38975498D01*
X53362758Y-38969089D01*
X53402797Y-38964999D01*
X53569334Y-38909814D01*
X53718656Y-38817712D01*
X53842712Y-38693656D01*
X53934814Y-38544334D01*
X53989999Y-38377797D01*
X54000500Y-38275009D01*
X54000499Y-35174992D01*
X53989999Y-35072203D01*
X53934814Y-34905666D01*
X53842712Y-34756344D01*
X53718656Y-34632288D01*
X53569334Y-34540186D01*
X53448061Y-34500000D01*
X62194652Y-34500000D01*
X62213099Y-34840243D01*
X62214028Y-34857368D01*
X62214029Y-34857385D01*
X62271926Y-35210539D01*
X62271932Y-35210565D01*
X62367672Y-35555392D01*
X62367674Y-35555399D01*
X62500142Y-35887870D01*
X62500151Y-35887888D01*
X62667784Y-36204077D01*
X62667787Y-36204082D01*
X62667789Y-36204085D01*
X62855680Y-36481204D01*
X62868634Y-36500309D01*
X62868641Y-36500319D01*
X63100331Y-36773085D01*
X63100332Y-36773086D01*
X63360163Y-37019211D01*
X63645081Y-37235800D01*
X63951747Y-37420315D01*
X63951749Y-37420316D01*
X63951751Y-37420317D01*
X63951755Y-37420319D01*
X64276552Y-37570585D01*
X64276565Y-37570591D01*
X64615726Y-37684868D01*
X64965254Y-37761805D01*
X65321052Y-37800500D01*
X65321058Y-37800500D01*
X65678942Y-37800500D01*
X65678948Y-37800500D01*
X66034746Y-37761805D01*
X66384274Y-37684868D01*
X66723435Y-37570591D01*
X67048253Y-37420315D01*
X67354919Y-37235800D01*
X67639837Y-37019211D01*
X67899668Y-36773086D01*
X68131365Y-36500311D01*
X68332211Y-36204085D01*
X68499853Y-35887880D01*
X68632324Y-35555403D01*
X68728071Y-35210552D01*
X68778054Y-34905668D01*
X68785970Y-34857385D01*
X68785970Y-34857382D01*
X68785972Y-34857371D01*
X68805348Y-34500000D01*
X68803965Y-34474501D01*
X68802868Y-34454266D01*
X68785972Y-34142629D01*
X68728071Y-33789448D01*
X68668668Y-33575498D01*
X68632327Y-33444607D01*
X68632325Y-33444600D01*
X68627521Y-33432544D01*
X68566727Y-33279960D01*
X68499857Y-33112129D01*
X68499848Y-33112111D01*
X68478369Y-33071598D01*
X68332211Y-32795915D01*
X68131365Y-32499689D01*
X68131361Y-32499684D01*
X68131358Y-32499680D01*
X67899668Y-32226914D01*
X67837771Y-32168282D01*
X67639837Y-31980789D01*
X67639830Y-31980783D01*
X67639827Y-31980781D01*
X67514493Y-31885505D01*
X67354919Y-31764200D01*
X67048253Y-31579685D01*
X67048252Y-31579684D01*
X67048248Y-31579682D01*
X67048244Y-31579680D01*
X66723447Y-31429414D01*
X66723441Y-31429411D01*
X66723435Y-31429409D01*
X66521171Y-31361258D01*
X66384273Y-31315131D01*
X66034744Y-31238194D01*
X65678949Y-31199500D01*
X65678948Y-31199500D01*
X65321052Y-31199500D01*
X65321050Y-31199500D01*
X64965255Y-31238194D01*
X64615726Y-31315131D01*
X64416714Y-31382187D01*
X64276565Y-31429409D01*
X64276563Y-31429410D01*
X64276552Y-31429414D01*
X63951755Y-31579680D01*
X63951751Y-31579682D01*
X63723367Y-31717096D01*
X63645081Y-31764200D01*
X63597987Y-31800000D01*
X63360172Y-31980781D01*
X63360163Y-31980789D01*
X63100331Y-32226914D01*
X62868641Y-32499680D01*
X62868634Y-32499690D01*
X62667790Y-32795913D01*
X62667784Y-32795922D01*
X62500151Y-33112111D01*
X62500142Y-33112129D01*
X62367674Y-33444600D01*
X62367672Y-33444607D01*
X62271932Y-33789434D01*
X62271926Y-33789460D01*
X62214029Y-34142614D01*
X62214028Y-34142631D01*
X62196035Y-34474501D01*
X62194652Y-34500000D01*
X53448061Y-34500000D01*
X53402797Y-34485001D01*
X53402795Y-34485000D01*
X53300010Y-34474500D01*
X52699998Y-34474500D01*
X52699980Y-34474501D01*
X52597203Y-34485000D01*
X52597200Y-34485001D01*
X52430668Y-34540185D01*
X52430663Y-34540187D01*
X52281342Y-34632289D01*
X52157289Y-34756342D01*
X52105539Y-34840243D01*
X52053591Y-34886967D01*
X51984628Y-34898190D01*
X51920546Y-34870346D01*
X51894461Y-34840243D01*
X51842712Y-34756344D01*
X51718656Y-34632288D01*
X51569334Y-34540186D01*
X51402797Y-34485001D01*
X51402795Y-34485000D01*
X51300010Y-34474500D01*
X50699998Y-34474500D01*
X50699980Y-34474501D01*
X50597203Y-34485000D01*
X50597200Y-34485001D01*
X50430668Y-34540185D01*
X50430663Y-34540187D01*
X50281342Y-34632289D01*
X50157289Y-34756342D01*
X50105539Y-34840243D01*
X50053591Y-34886967D01*
X49984628Y-34898190D01*
X49920546Y-34870346D01*
X49894461Y-34840243D01*
X49842712Y-34756344D01*
X49718656Y-34632288D01*
X49569334Y-34540186D01*
X49402797Y-34485001D01*
X49402795Y-34485000D01*
X49300010Y-34474500D01*
X48699998Y-34474500D01*
X48699980Y-34474501D01*
X48597203Y-34485000D01*
X48597200Y-34485001D01*
X48430668Y-34540185D01*
X48430663Y-34540187D01*
X48281342Y-34632289D01*
X48157289Y-34756342D01*
X48105539Y-34840243D01*
X48053591Y-34886967D01*
X47984628Y-34898190D01*
X47920546Y-34870346D01*
X47894461Y-34840243D01*
X47842712Y-34756344D01*
X47718656Y-34632288D01*
X47569334Y-34540186D01*
X47402797Y-34485001D01*
X47402795Y-34485000D01*
X47300010Y-34474500D01*
X46699998Y-34474500D01*
X46699980Y-34474501D01*
X46597203Y-34485000D01*
X46597200Y-34485001D01*
X46430668Y-34540185D01*
X46430663Y-34540187D01*
X46281342Y-34632289D01*
X46157289Y-34756342D01*
X46065187Y-34905663D01*
X46065186Y-34905666D01*
X46010001Y-35072203D01*
X46010001Y-35072204D01*
X46010000Y-35072204D01*
X45999500Y-35174983D01*
X45999500Y-35174991D01*
X45999500Y-36567455D01*
X45999501Y-37950500D01*
X45979816Y-38017539D01*
X45927013Y-38063294D01*
X45875501Y-38074500D01*
X43453954Y-38074500D01*
X43386915Y-38054815D01*
X43341160Y-38002011D01*
X43331216Y-37932853D01*
X43334617Y-37918227D01*
X43335672Y-37913261D01*
X43335674Y-37913256D01*
X43355460Y-37725000D01*
X43335674Y-37536744D01*
X43277179Y-37356716D01*
X43222110Y-37261334D01*
X43205499Y-37199336D01*
X43205499Y-36877129D01*
X43205498Y-36877123D01*
X43205497Y-36877116D01*
X43199091Y-36817517D01*
X43182519Y-36773086D01*
X43148797Y-36682671D01*
X43148793Y-36682664D01*
X43062547Y-36567455D01*
X43062544Y-36567452D01*
X42947335Y-36481206D01*
X42947328Y-36481202D01*
X42812486Y-36430910D01*
X42812485Y-36430909D01*
X42812483Y-36430909D01*
X42752873Y-36424500D01*
X42752863Y-36424500D01*
X42057129Y-36424500D01*
X42057123Y-36424501D01*
X41997516Y-36430908D01*
X41862671Y-36481202D01*
X41862665Y-36481205D01*
X41844309Y-36494947D01*
X41778844Y-36519363D01*
X41710571Y-36504510D01*
X41695691Y-36494947D01*
X41677334Y-36481205D01*
X41677328Y-36481202D01*
X41542486Y-36430910D01*
X41542485Y-36430909D01*
X41542483Y-36430909D01*
X41482873Y-36424500D01*
X41482863Y-36424500D01*
X40787129Y-36424500D01*
X40787123Y-36424501D01*
X40727516Y-36430908D01*
X40592671Y-36481202D01*
X40592665Y-36481205D01*
X40574309Y-36494947D01*
X40508844Y-36519363D01*
X40440571Y-36504510D01*
X40425691Y-36494947D01*
X40407334Y-36481205D01*
X40407328Y-36481202D01*
X40272486Y-36430910D01*
X40272485Y-36430909D01*
X40272483Y-36430909D01*
X40212873Y-36424500D01*
X40212863Y-36424500D01*
X39517129Y-36424500D01*
X39517123Y-36424501D01*
X39457516Y-36430908D01*
X39322671Y-36481202D01*
X39322665Y-36481205D01*
X39304309Y-36494947D01*
X39238844Y-36519363D01*
X39170571Y-36504510D01*
X39155691Y-36494947D01*
X39137334Y-36481205D01*
X39137328Y-36481202D01*
X39002486Y-36430910D01*
X39002485Y-36430909D01*
X39002483Y-36430909D01*
X38942873Y-36424500D01*
X38942863Y-36424500D01*
X38247129Y-36424500D01*
X38247123Y-36424501D01*
X38187516Y-36430908D01*
X38052671Y-36481202D01*
X38052664Y-36481206D01*
X37937455Y-36567452D01*
X37937452Y-36567455D01*
X37851206Y-36682664D01*
X37851202Y-36682671D01*
X37800908Y-36817517D01*
X37796412Y-36859344D01*
X37794501Y-36877123D01*
X37794500Y-36877135D01*
X37794500Y-37192639D01*
X37777887Y-37254639D01*
X37747821Y-37306714D01*
X37697450Y-37461740D01*
X37689326Y-37486744D01*
X37669540Y-37675000D01*
X37689326Y-37863256D01*
X37689327Y-37863259D01*
X37739695Y-38018277D01*
X37747821Y-38043284D01*
X37777887Y-38095361D01*
X37794500Y-38157360D01*
X37794500Y-38522869D01*
X37794501Y-38522876D01*
X37800908Y-38582483D01*
X37851202Y-38717328D01*
X37851206Y-38717335D01*
X37937452Y-38832544D01*
X37937455Y-38832547D01*
X38052664Y-38918793D01*
X38052671Y-38918797D01*
X38059460Y-38921329D01*
X38187517Y-38969091D01*
X38247127Y-38975500D01*
X38942872Y-38975499D01*
X39002483Y-38969091D01*
X39130540Y-38921329D01*
X39137329Y-38918797D01*
X39137329Y-38918796D01*
X39137331Y-38918796D01*
X39155688Y-38905053D01*
X39221150Y-38880635D01*
X39289424Y-38895485D01*
X39304308Y-38905050D01*
X39310671Y-38909814D01*
X39322669Y-38918796D01*
X39322670Y-38918797D01*
X39397155Y-38946577D01*
X39457517Y-38969091D01*
X39517127Y-38975500D01*
X40054901Y-38975499D01*
X40121940Y-38995183D01*
X40142581Y-39011817D01*
X40576284Y-39445520D01*
X40576286Y-39445521D01*
X40576290Y-39445524D01*
X40670638Y-39499995D01*
X40713216Y-39524577D01*
X40865943Y-39565501D01*
X40865945Y-39565501D01*
X41031654Y-39565501D01*
X41031670Y-39565500D01*
X47179781Y-39565500D01*
X47246820Y-39585185D01*
X47267462Y-39601819D01*
X47680454Y-40014811D01*
X47713939Y-40076134D01*
X47708955Y-40145826D01*
X47667083Y-40201759D01*
X47601619Y-40226176D01*
X47575129Y-40225230D01*
X47547491Y-40221257D01*
X47547488Y-40221257D01*
X47405030Y-40241737D01*
X47274117Y-40301524D01*
X47227422Y-40339153D01*
X47129200Y-40437374D01*
X47067877Y-40470858D01*
X47009428Y-40469467D01*
X46930119Y-40448217D01*
X46930118Y-40448217D01*
X46879682Y-40448217D01*
X46812643Y-40428532D01*
X46792001Y-40411898D01*
X46633655Y-40253552D01*
X46633644Y-40253542D01*
X46633638Y-40253536D01*
X46605297Y-40229329D01*
X46460165Y-40149542D01*
X46460160Y-40149540D01*
X46460158Y-40149540D01*
X46299753Y-40108355D01*
X46299750Y-40108355D01*
X46134133Y-40108355D01*
X46134129Y-40108355D01*
X45973724Y-40149540D01*
X45973714Y-40149543D01*
X45828588Y-40229326D01*
X45828588Y-40229327D01*
X45800247Y-40253532D01*
X45800243Y-40253536D01*
X45406095Y-40647687D01*
X45381893Y-40676022D01*
X45302109Y-40821148D01*
X45302106Y-40821158D01*
X45260921Y-40981563D01*
X45260921Y-41147187D01*
X45302106Y-41307592D01*
X45302109Y-41307602D01*
X45381891Y-41452725D01*
X45381894Y-41452729D01*
X45381895Y-41452731D01*
X45406100Y-41481072D01*
X45406106Y-41481078D01*
X45406107Y-41481079D01*
X45718910Y-41793881D01*
X45718920Y-41793890D01*
X45718928Y-41793898D01*
X45747269Y-41818105D01*
X45892401Y-41897892D01*
X46052816Y-41939079D01*
X46060372Y-41941019D01*
X46059552Y-41944209D01*
X46109754Y-41966046D01*
X46126227Y-41985045D01*
X46127294Y-41984186D01*
X46169778Y-42036906D01*
X46169782Y-42036910D01*
X46864958Y-42732085D01*
X46898443Y-42793408D01*
X46901277Y-42819766D01*
X46901277Y-43018100D01*
X46881592Y-43085139D01*
X46864958Y-43105781D01*
X45816234Y-44154505D01*
X45814011Y-44156981D01*
X45812891Y-44155975D01*
X45760352Y-44192393D01*
X45690525Y-44194831D01*
X45633606Y-44162388D01*
X45551036Y-44079818D01*
X45545200Y-44074833D01*
X45522697Y-44055612D01*
X45522695Y-44055610D01*
X45377568Y-43975826D01*
X45377558Y-43975823D01*
X45217153Y-43934638D01*
X45217150Y-43934638D01*
X45051533Y-43934638D01*
X45051529Y-43934638D01*
X44891124Y-43975823D01*
X44891114Y-43975826D01*
X44745991Y-44055608D01*
X44745981Y-44055615D01*
X44717649Y-44079813D01*
X44717637Y-44079824D01*
X44404835Y-44392627D01*
X44404815Y-44392649D01*
X44380616Y-44420981D01*
X44380611Y-44420987D01*
X44300825Y-44566118D01*
X44300823Y-44566124D01*
X44259638Y-44726529D01*
X44259638Y-44892153D01*
X44300823Y-45052558D01*
X44300826Y-45052568D01*
X44376379Y-45189998D01*
X44380612Y-45197697D01*
X44404817Y-45226037D01*
X44493834Y-45315054D01*
X44569223Y-45390442D01*
X44602708Y-45451766D01*
X44597724Y-45521457D01*
X44555853Y-45577391D01*
X44512380Y-45598228D01*
X44399905Y-45627106D01*
X44399897Y-45627109D01*
X44254774Y-45706891D01*
X44254764Y-45706898D01*
X44226432Y-45731096D01*
X44226420Y-45731107D01*
X43913618Y-46043910D01*
X43913598Y-46043932D01*
X43889399Y-46072264D01*
X43889395Y-46072269D01*
X43881437Y-46086744D01*
X43807856Y-46220587D01*
X43758309Y-46269851D01*
X43744850Y-46276138D01*
X43742402Y-46277107D01*
X43597274Y-46356891D01*
X43597264Y-46356898D01*
X43568932Y-46381096D01*
X43568920Y-46381107D01*
X43256118Y-46693910D01*
X43256098Y-46693932D01*
X43231899Y-46722264D01*
X43231894Y-46722270D01*
X43152108Y-46867401D01*
X43152106Y-46867407D01*
X43130845Y-46950214D01*
X43095107Y-47010252D01*
X43041579Y-47039481D01*
X42992405Y-47052106D01*
X42992397Y-47052109D01*
X42847274Y-47131891D01*
X42847264Y-47131898D01*
X42818932Y-47156096D01*
X42818920Y-47156107D01*
X42506118Y-47468910D01*
X42506098Y-47468932D01*
X42481899Y-47497264D01*
X42481894Y-47497270D01*
X42402108Y-47642401D01*
X42402106Y-47642407D01*
X42360921Y-47802812D01*
X42360921Y-47968436D01*
X42402106Y-48128841D01*
X42402109Y-48128851D01*
X42481893Y-48273977D01*
X42481895Y-48273980D01*
X42506100Y-48302320D01*
X42900246Y-48696464D01*
X42928586Y-48720671D01*
X42928588Y-48720672D01*
X42928587Y-48720672D01*
X43069010Y-48797870D01*
X43073718Y-48800458D01*
X43234133Y-48841645D01*
X43234137Y-48841645D01*
X43399746Y-48841645D01*
X43399750Y-48841645D01*
X43560165Y-48800458D01*
X43705297Y-48720671D01*
X43733638Y-48696466D01*
X44046464Y-48383638D01*
X44070671Y-48355297D01*
X44150458Y-48210165D01*
X44171720Y-48127349D01*
X44207457Y-48067313D01*
X44260984Y-48038084D01*
X44310165Y-48025458D01*
X44455297Y-47945671D01*
X44483638Y-47921466D01*
X44617002Y-47788100D01*
X44678323Y-47754617D01*
X44704682Y-47751783D01*
X44990973Y-47751783D01*
X45058012Y-47771468D01*
X45103767Y-47824272D01*
X45113711Y-47893430D01*
X45093023Y-47946223D01*
X45075182Y-47972068D01*
X45075180Y-47972074D01*
X45047856Y-48044119D01*
X45005678Y-48099822D01*
X44989543Y-48109942D01*
X44924151Y-48144263D01*
X44924148Y-48144266D01*
X44858059Y-48202816D01*
X44796816Y-48257072D01*
X44700182Y-48397068D01*
X44639860Y-48556125D01*
X44639859Y-48556130D01*
X44619355Y-48725000D01*
X44639859Y-48893869D01*
X44639860Y-48893874D01*
X44700182Y-49052931D01*
X44746941Y-49120672D01*
X44792477Y-49186642D01*
X44796818Y-49192930D01*
X44844728Y-49235375D01*
X44881855Y-49294564D01*
X44885345Y-49311299D01*
X44886413Y-49319067D01*
X44886414Y-49319070D01*
X44946699Y-49457864D01*
X44946702Y-49457868D01*
X44946703Y-49457870D01*
X45001744Y-49527934D01*
X45001747Y-49527937D01*
X45001751Y-49527942D01*
X45386128Y-49912319D01*
X45419613Y-49973642D01*
X45414629Y-50043334D01*
X45386128Y-50087681D01*
X45001751Y-50472057D01*
X44946702Y-50542131D01*
X44946699Y-50542135D01*
X44886414Y-50680928D01*
X44865808Y-50830850D01*
X44865808Y-50830851D01*
X44886413Y-50980768D01*
X44886413Y-50980769D01*
X44886414Y-50980771D01*
X44888058Y-50984556D01*
X44888527Y-50988312D01*
X44888702Y-50988937D01*
X44888608Y-50988963D01*
X44896711Y-51053886D01*
X44866507Y-51116890D01*
X44854856Y-51128244D01*
X44825247Y-51153532D01*
X44825243Y-51153536D01*
X44431095Y-51547687D01*
X44406893Y-51576022D01*
X44327109Y-51721148D01*
X44327106Y-51721158D01*
X44285921Y-51881563D01*
X44285921Y-52047187D01*
X44327106Y-52207592D01*
X44327109Y-52207602D01*
X44406891Y-52352725D01*
X44406894Y-52352729D01*
X44406895Y-52352731D01*
X44431100Y-52381072D01*
X44431106Y-52381078D01*
X44431107Y-52381079D01*
X44743910Y-52693881D01*
X44743920Y-52693890D01*
X44743928Y-52693898D01*
X44772269Y-52718105D01*
X44844835Y-52757998D01*
X44917400Y-52797892D01*
X44924648Y-52800761D01*
X44923791Y-52802925D01*
X44973805Y-52832692D01*
X44997478Y-52876040D01*
X44999236Y-52875344D01*
X45002109Y-52882602D01*
X45081891Y-53027725D01*
X45081894Y-53027729D01*
X45081895Y-53027731D01*
X45106100Y-53056072D01*
X45106106Y-53056078D01*
X45106107Y-53056079D01*
X45418910Y-53368881D01*
X45418920Y-53368890D01*
X45418928Y-53368898D01*
X45447269Y-53393105D01*
X45592401Y-53472892D01*
X45752816Y-53514079D01*
X45752820Y-53514079D01*
X45918429Y-53514079D01*
X45918433Y-53514079D01*
X46078848Y-53472892D01*
X46161019Y-53427718D01*
X46223977Y-53393107D01*
X46223977Y-53393106D01*
X46223980Y-53393105D01*
X46252320Y-53368900D01*
X46628985Y-52992232D01*
X46690304Y-52958750D01*
X46759996Y-52963734D01*
X46804343Y-52992234D01*
X46830466Y-53018357D01*
X46830467Y-53018358D01*
X46903420Y-53075669D01*
X46924327Y-53096575D01*
X46939134Y-53115423D01*
X46981643Y-53169534D01*
X46981645Y-53169536D01*
X46981649Y-53169541D01*
X47113303Y-53301195D01*
X47116072Y-53303651D01*
X47115924Y-53303816D01*
X47115929Y-53303821D01*
X47115860Y-53303889D01*
X47115458Y-53304343D01*
X47153657Y-53357929D01*
X47157018Y-53427718D01*
X47143885Y-53460545D01*
X47073717Y-53582077D01*
X47073717Y-53582078D01*
X47073716Y-53582080D01*
X47073716Y-53582081D01*
X47038589Y-53713181D01*
X47032394Y-53736300D01*
X47031045Y-53735938D01*
X47013904Y-53780454D01*
X46985180Y-53822068D01*
X46985179Y-53822068D01*
X46924857Y-53981125D01*
X46924856Y-53981130D01*
X46904352Y-54150000D01*
X46924856Y-54318869D01*
X46924857Y-54318874D01*
X46985179Y-54477931D01*
X47007590Y-54510398D01*
X47081814Y-54617929D01*
X47170638Y-54696620D01*
X47209147Y-54730736D01*
X47359770Y-54809789D01*
X47359772Y-54809790D01*
X47459036Y-54834256D01*
X47482036Y-54839925D01*
X47542416Y-54875081D01*
X47574205Y-54937300D01*
X47568547Y-54994343D01*
X47571161Y-54995068D01*
X47568924Y-55003134D01*
X47548861Y-55150078D01*
X47548697Y-55150055D01*
X47545868Y-55167818D01*
X47535922Y-55206560D01*
X47535921Y-55206568D01*
X47535921Y-55372187D01*
X47577106Y-55532592D01*
X47577109Y-55532602D01*
X47656891Y-55677725D01*
X47656894Y-55677729D01*
X47656895Y-55677731D01*
X47681100Y-55706072D01*
X47681106Y-55706078D01*
X47681107Y-55706079D01*
X47993910Y-56018881D01*
X47993920Y-56018890D01*
X47993928Y-56018898D01*
X48022269Y-56043105D01*
X48119229Y-56096409D01*
X48160121Y-56132618D01*
X48180707Y-56161211D01*
X48180708Y-56161212D01*
X48244345Y-56212648D01*
X48275059Y-56249347D01*
X48331895Y-56352731D01*
X48356100Y-56381072D01*
X48356106Y-56381078D01*
X48356107Y-56381079D01*
X48668910Y-56693881D01*
X48668920Y-56693890D01*
X48668928Y-56693898D01*
X48697269Y-56718105D01*
X48842401Y-56797892D01*
X49002816Y-56839079D01*
X49002820Y-56839079D01*
X49168430Y-56839079D01*
X49168433Y-56839079D01*
X49225093Y-56824530D01*
X49254362Y-56820645D01*
X49294046Y-56820144D01*
X49431575Y-56777866D01*
X49494759Y-56748040D01*
X49494761Y-56748039D01*
X49614808Y-56668727D01*
X50066740Y-56267008D01*
X50069904Y-56264466D01*
X50072717Y-56261923D01*
X50072721Y-56261921D01*
X50087620Y-56248453D01*
X50088292Y-56247852D01*
X50091625Y-56244889D01*
X50103424Y-56235615D01*
X50166652Y-56191850D01*
X50257092Y-56079948D01*
X50292830Y-56019910D01*
X50292833Y-56019905D01*
X50346201Y-55891575D01*
X50352022Y-55879473D01*
X50359188Y-55866438D01*
X50380162Y-55838503D01*
X50634165Y-55584498D01*
X50695487Y-55551014D01*
X50765179Y-55555998D01*
X50809527Y-55584499D01*
X51093910Y-55868881D01*
X51093920Y-55868890D01*
X51093928Y-55868898D01*
X51122269Y-55893105D01*
X51267401Y-55972892D01*
X51427816Y-56014079D01*
X51427820Y-56014079D01*
X51593429Y-56014079D01*
X51593433Y-56014079D01*
X51753848Y-55972892D01*
X51826414Y-55932998D01*
X51898977Y-55893107D01*
X51898977Y-55893106D01*
X51898980Y-55893105D01*
X51927320Y-55868900D01*
X52148250Y-55647966D01*
X52153119Y-55643356D01*
X52242726Y-55563020D01*
X52305781Y-55532926D01*
X52375098Y-55541699D01*
X52428668Y-55586555D01*
X52449482Y-55653253D01*
X52449500Y-55655348D01*
X52449500Y-56631703D01*
X52429815Y-56698742D01*
X52413181Y-56719384D01*
X52044384Y-57088181D01*
X51983061Y-57121666D01*
X51956703Y-57124500D01*
X47718297Y-57124500D01*
X47651258Y-57104815D01*
X47630616Y-57088181D01*
X44130790Y-53588355D01*
X44130788Y-53588352D01*
X44011917Y-53469481D01*
X44011909Y-53469475D01*
X43898713Y-53404122D01*
X43898712Y-53404121D01*
X43898712Y-53404122D01*
X43874985Y-53390423D01*
X43722257Y-53349499D01*
X43564143Y-53349499D01*
X43556547Y-53349499D01*
X43556531Y-53349500D01*
X42636349Y-53349500D01*
X42569310Y-53329815D01*
X42548668Y-53313181D01*
X42429968Y-53194481D01*
X42429967Y-53194480D01*
X42334712Y-53139485D01*
X42334711Y-53139484D01*
X42319456Y-53130677D01*
X42293036Y-53115423D01*
X42293033Y-53115422D01*
X42293030Y-53115420D01*
X42275916Y-53110835D01*
X42220330Y-53078742D01*
X42132834Y-52991246D01*
X42132829Y-52991242D01*
X41995570Y-52908267D01*
X41995566Y-52908265D01*
X41842433Y-52860548D01*
X41842435Y-52860548D01*
X41815812Y-52858128D01*
X41775881Y-52854500D01*
X41775878Y-52854500D01*
X41274111Y-52854500D01*
X41207573Y-52860546D01*
X41207566Y-52860548D01*
X41054433Y-52908265D01*
X41054429Y-52908267D01*
X40991649Y-52946219D01*
X40924094Y-52964055D01*
X40863351Y-52946219D01*
X40800570Y-52908267D01*
X40800566Y-52908265D01*
X40647433Y-52860548D01*
X40647435Y-52860548D01*
X40620812Y-52858128D01*
X40580881Y-52854500D01*
X40580878Y-52854500D01*
X40079111Y-52854500D01*
X40012573Y-52860546D01*
X40012566Y-52860548D01*
X39859433Y-52908265D01*
X39859429Y-52908267D01*
X39722170Y-52991242D01*
X39722165Y-52991246D01*
X39608746Y-53104665D01*
X39608742Y-53104670D01*
X39525767Y-53241929D01*
X39525765Y-53241933D01*
X39478048Y-53395065D01*
X39472000Y-53461621D01*
X39472000Y-53561691D01*
X39452315Y-53628730D01*
X39435681Y-53649372D01*
X38453492Y-54631560D01*
X38392169Y-54665045D01*
X38322477Y-54660061D01*
X38266544Y-54618189D01*
X38242591Y-54557762D01*
X38233351Y-54475750D01*
X38233350Y-54475746D01*
X38207533Y-54401965D01*
X38173771Y-54305479D01*
X38077798Y-54152739D01*
X37950244Y-54025185D01*
X37797505Y-53929212D01*
X37627236Y-53869632D01*
X37627232Y-53869631D01*
X37457700Y-53850530D01*
X37428252Y-53843492D01*
X37327485Y-53805909D01*
X37327483Y-53805908D01*
X37267883Y-53799501D01*
X37267881Y-53799500D01*
X37267873Y-53799500D01*
X37267864Y-53799500D01*
X35932129Y-53799500D01*
X35932120Y-53799501D01*
X35909695Y-53801912D01*
X35840936Y-53789505D01*
X35808762Y-53766303D01*
X35771965Y-53729506D01*
X35771964Y-53729505D01*
X35663536Y-53666905D01*
X35663537Y-53666905D01*
X35614587Y-53653789D01*
X35542601Y-53634500D01*
X35417399Y-53634500D01*
X35345413Y-53653789D01*
X35296463Y-53666905D01*
X35188037Y-53729504D01*
X35188034Y-53729506D01*
X35099506Y-53818034D01*
X35099504Y-53818037D01*
X35036905Y-53926463D01*
X35027322Y-53962226D01*
X35004500Y-54047399D01*
X35004500Y-54172601D01*
X35036905Y-54293536D01*
X35099505Y-54401964D01*
X35188036Y-54490495D01*
X35296464Y-54553095D01*
X35387595Y-54577514D01*
X35447254Y-54613878D01*
X35477783Y-54676726D01*
X35479500Y-54697288D01*
X35479500Y-54947868D01*
X35479501Y-54947878D01*
X35483679Y-54986745D01*
X35483679Y-55013251D01*
X35479500Y-55052123D01*
X35479500Y-55194902D01*
X35459815Y-55261941D01*
X35443181Y-55282583D01*
X34712181Y-56013583D01*
X34650858Y-56047068D01*
X34581166Y-56042084D01*
X34525233Y-56000212D01*
X34500816Y-55934748D01*
X34500500Y-55925902D01*
X34500500Y-51537229D01*
X34520185Y-51470190D01*
X34536819Y-51449548D01*
X35224548Y-50761819D01*
X35285871Y-50728334D01*
X35312229Y-50725500D01*
X35906613Y-50725500D01*
X35906616Y-50725500D01*
X35977196Y-50719086D01*
X36139606Y-50668478D01*
X36285185Y-50580472D01*
X36405472Y-50460185D01*
X36493478Y-50314606D01*
X36544086Y-50152196D01*
X36550500Y-50081616D01*
X36550500Y-49568384D01*
X36544086Y-49497804D01*
X36493478Y-49335394D01*
X36405472Y-49189815D01*
X36405470Y-49189813D01*
X36405469Y-49189811D01*
X36285189Y-49069531D01*
X36285185Y-49069528D01*
X36222849Y-49031844D01*
X36175662Y-48980316D01*
X36163000Y-48925728D01*
X36163000Y-48157052D01*
X36182685Y-48090013D01*
X36199319Y-48069371D01*
X36243234Y-48025456D01*
X36295340Y-47973350D01*
X36385908Y-47826516D01*
X36440174Y-47662753D01*
X36450500Y-47561677D01*
X36450499Y-46988324D01*
X36447546Y-46959420D01*
X36440174Y-46887247D01*
X36425092Y-46841733D01*
X36385908Y-46723484D01*
X36295340Y-46576650D01*
X36173350Y-46454660D01*
X36054102Y-46381107D01*
X36026518Y-46364093D01*
X36026513Y-46364091D01*
X35998855Y-46354926D01*
X35862753Y-46309826D01*
X35862751Y-46309825D01*
X35761684Y-46299500D01*
X35761677Y-46299500D01*
X35229500Y-46299500D01*
X35162461Y-46279815D01*
X35116706Y-46227011D01*
X35105500Y-46175500D01*
X35105499Y-45861611D01*
X35099453Y-45795073D01*
X35099452Y-45795070D01*
X35099452Y-45795067D01*
X35051733Y-45641931D01*
X35041454Y-45624927D01*
X34968757Y-45504670D01*
X34968753Y-45504665D01*
X34855334Y-45391246D01*
X34855329Y-45391242D01*
X34718070Y-45308267D01*
X34684628Y-45297846D01*
X34626481Y-45259108D01*
X34598508Y-45195082D01*
X34598581Y-45163274D01*
X34600500Y-45148701D01*
X34600499Y-43751300D01*
X34600499Y-43751298D01*
X34600499Y-43751296D01*
X34585303Y-43635857D01*
X34585301Y-43635850D01*
X34585301Y-43635849D01*
X34525800Y-43492202D01*
X34431149Y-43368851D01*
X34307798Y-43274200D01*
X34307794Y-43274198D01*
X34164151Y-43214699D01*
X34164149Y-43214698D01*
X34048701Y-43199500D01*
X33251296Y-43199500D01*
X33135857Y-43214696D01*
X33135848Y-43214699D01*
X32992205Y-43274198D01*
X32868851Y-43368851D01*
X32774198Y-43492205D01*
X32714699Y-43635848D01*
X32714698Y-43635850D01*
X32699500Y-43751298D01*
X32699500Y-45148699D01*
X32701420Y-45163281D01*
X32690651Y-45232316D01*
X32644269Y-45284570D01*
X32615371Y-45297846D01*
X32581935Y-45308265D01*
X32581929Y-45308267D01*
X32444670Y-45391242D01*
X32444665Y-45391246D01*
X32331246Y-45504665D01*
X32331242Y-45504670D01*
X32248267Y-45641929D01*
X32248265Y-45641933D01*
X32200548Y-45795065D01*
X32194500Y-45861621D01*
X32194500Y-46288388D01*
X32200546Y-46354926D01*
X32200548Y-46354933D01*
X32248265Y-46508066D01*
X32248267Y-46508070D01*
X32331242Y-46645329D01*
X32331246Y-46645334D01*
X32444665Y-46758753D01*
X32444670Y-46758757D01*
X32581929Y-46841732D01*
X32581933Y-46841734D01*
X32636100Y-46858612D01*
X32735067Y-46889452D01*
X32801619Y-46895500D01*
X33303380Y-46895499D01*
X33303388Y-46895499D01*
X33369926Y-46889453D01*
X33369927Y-46889452D01*
X33369933Y-46889452D01*
X33523069Y-46841733D01*
X33585850Y-46803779D01*
X33653405Y-46785944D01*
X33714149Y-46803779D01*
X33776931Y-46841733D01*
X33776934Y-46841734D01*
X33776933Y-46841734D01*
X33831100Y-46858612D01*
X33930067Y-46889452D01*
X33996619Y-46895500D01*
X34250501Y-46895499D01*
X34317539Y-46915183D01*
X34363294Y-46967987D01*
X34374500Y-47019499D01*
X34374500Y-47561669D01*
X34374501Y-47561687D01*
X34384825Y-47662752D01*
X34397334Y-47700500D01*
X34438348Y-47824272D01*
X34439092Y-47826515D01*
X34439093Y-47826518D01*
X34465247Y-47868920D01*
X34528870Y-47972070D01*
X34529661Y-47973351D01*
X34625681Y-48069371D01*
X34659166Y-48130694D01*
X34662000Y-48157052D01*
X34662000Y-48800500D01*
X34642315Y-48867539D01*
X34589511Y-48913294D01*
X34538000Y-48924500D01*
X34293384Y-48924500D01*
X34274145Y-48926248D01*
X34222807Y-48930913D01*
X34060393Y-48981522D01*
X33969542Y-49036444D01*
X33901987Y-49054280D01*
X33835513Y-49032762D01*
X33832508Y-49030646D01*
X33777733Y-48990851D01*
X33777729Y-48990848D01*
X33604807Y-48913857D01*
X33604802Y-48913855D01*
X33459001Y-48882865D01*
X33419646Y-48874500D01*
X33230354Y-48874500D01*
X33197897Y-48881398D01*
X33045197Y-48913855D01*
X33045192Y-48913857D01*
X32872270Y-48990848D01*
X32872265Y-48990851D01*
X32719129Y-49102111D01*
X32592466Y-49242785D01*
X32497821Y-49406715D01*
X32497819Y-49406719D01*
X32442478Y-49577041D01*
X32412228Y-49626403D01*
X32200451Y-49838181D01*
X32139128Y-49871666D01*
X32112770Y-49874500D01*
X31293384Y-49874500D01*
X31274145Y-49876248D01*
X31222807Y-49880913D01*
X31222804Y-49880914D01*
X31060394Y-49931522D01*
X31060392Y-49931522D01*
X31060389Y-49931524D01*
X31051480Y-49936909D01*
X30983924Y-49954740D01*
X30917452Y-49933217D01*
X30899658Y-49918468D01*
X30798351Y-49817161D01*
X30798350Y-49817160D01*
X30651516Y-49726592D01*
X30487753Y-49672326D01*
X30487751Y-49672325D01*
X30386678Y-49662000D01*
X29813330Y-49662000D01*
X29813312Y-49662001D01*
X29712247Y-49672325D01*
X29548484Y-49726592D01*
X29548481Y-49726593D01*
X29401647Y-49817162D01*
X29401411Y-49817349D01*
X29401218Y-49817426D01*
X29395503Y-49820952D01*
X29394900Y-49819975D01*
X29336615Y-49843490D01*
X29267973Y-49830449D01*
X29217278Y-49782368D01*
X29200500Y-49720083D01*
X29200500Y-40470418D01*
X29220185Y-40403379D01*
X29272989Y-40357624D01*
X29342147Y-40347680D01*
X29405703Y-40376705D01*
X29439061Y-40422966D01*
X29474197Y-40507793D01*
X29474197Y-40507794D01*
X29474199Y-40507797D01*
X29474200Y-40507798D01*
X29568851Y-40631149D01*
X29692202Y-40725800D01*
X29835849Y-40785301D01*
X29951299Y-40800500D01*
X30748700Y-40800499D01*
X30748703Y-40800499D01*
X30864142Y-40785303D01*
X30864146Y-40785301D01*
X30864151Y-40785301D01*
X31007798Y-40725800D01*
X31131149Y-40631149D01*
X31225800Y-40507798D01*
X31285301Y-40364151D01*
X31300500Y-40248701D01*
X31300499Y-38851300D01*
X31300498Y-38851296D01*
X31287254Y-38750683D01*
X31298020Y-38681648D01*
X31344401Y-38629392D01*
X31410193Y-38610499D01*
X31413690Y-38610499D01*
X31413702Y-38610499D01*
X31450858Y-38607576D01*
X31531810Y-38584057D01*
X31601676Y-38584256D01*
X31654084Y-38615452D01*
X32663181Y-39624549D01*
X32696666Y-39685872D01*
X32699500Y-39712230D01*
X32699500Y-40248703D01*
X32714696Y-40364142D01*
X32714699Y-40364151D01*
X32765765Y-40487436D01*
X32774200Y-40507798D01*
X32868851Y-40631149D01*
X32992202Y-40725800D01*
X33135849Y-40785301D01*
X33251299Y-40800500D01*
X34048700Y-40800499D01*
X34048703Y-40800499D01*
X34164142Y-40785303D01*
X34164146Y-40785301D01*
X34164151Y-40785301D01*
X34307798Y-40725800D01*
X34431149Y-40631149D01*
X34525800Y-40507798D01*
X34585301Y-40364151D01*
X34600500Y-40248701D01*
X34600499Y-39499982D01*
X34874500Y-39499982D01*
X34874500Y-44500017D01*
X34885000Y-44602796D01*
X34940185Y-44769332D01*
X34940187Y-44769337D01*
X34960402Y-44802110D01*
X35032288Y-44918656D01*
X35156344Y-45042712D01*
X35305665Y-45134814D01*
X35472202Y-45189999D01*
X35574990Y-45200500D01*
X35574995Y-45200500D01*
X37150005Y-45200500D01*
X37150010Y-45200500D01*
X37252798Y-45189999D01*
X37419335Y-45134814D01*
X37568656Y-45042712D01*
X37692712Y-44918656D01*
X37784814Y-44769335D01*
X37839999Y-44602798D01*
X37850500Y-44500010D01*
X37850500Y-39499990D01*
X37839999Y-39397202D01*
X37784814Y-39230665D01*
X37692712Y-39081344D01*
X37568656Y-38957288D01*
X37475890Y-38900070D01*
X37419337Y-38865187D01*
X37419332Y-38865185D01*
X37417863Y-38864698D01*
X37252798Y-38810001D01*
X37252796Y-38810000D01*
X37150017Y-38799500D01*
X37150010Y-38799500D01*
X35574990Y-38799500D01*
X35574982Y-38799500D01*
X35472203Y-38810000D01*
X35472202Y-38810001D01*
X35404172Y-38832544D01*
X35305667Y-38865185D01*
X35305662Y-38865187D01*
X35156342Y-38957289D01*
X35032289Y-39081342D01*
X34940187Y-39230662D01*
X34940186Y-39230665D01*
X34885001Y-39397202D01*
X34885001Y-39397203D01*
X34885000Y-39397203D01*
X34874500Y-39499982D01*
X34600499Y-39499982D01*
X34600499Y-38851300D01*
X34600499Y-38851297D01*
X34600499Y-38851296D01*
X34585303Y-38735857D01*
X34585301Y-38735852D01*
X34585301Y-38735849D01*
X34525800Y-38592202D01*
X34431149Y-38468851D01*
X34307798Y-38374200D01*
X34307794Y-38374198D01*
X34164151Y-38314699D01*
X34164149Y-38314698D01*
X34048702Y-38299500D01*
X34048701Y-38299500D01*
X33512230Y-38299500D01*
X33445191Y-38279815D01*
X33424549Y-38263181D01*
X32738571Y-37577203D01*
X32705086Y-37515880D01*
X32710070Y-37446188D01*
X32751942Y-37390255D01*
X32817406Y-37365838D01*
X32885679Y-37380690D01*
X32890180Y-37383272D01*
X32951742Y-37420312D01*
X32951747Y-37420315D01*
X32951751Y-37420316D01*
X32951755Y-37420319D01*
X33276552Y-37570585D01*
X33276565Y-37570591D01*
X33615726Y-37684868D01*
X33965254Y-37761805D01*
X34321052Y-37800500D01*
X34321058Y-37800500D01*
X34678942Y-37800500D01*
X34678948Y-37800500D01*
X35034746Y-37761805D01*
X35384274Y-37684868D01*
X35723435Y-37570591D01*
X36048253Y-37420315D01*
X36354919Y-37235800D01*
X36639837Y-37019211D01*
X36899668Y-36773086D01*
X37131365Y-36500311D01*
X37332211Y-36204085D01*
X37499853Y-35887880D01*
X37632324Y-35555403D01*
X37728071Y-35210552D01*
X37778054Y-34905668D01*
X37785970Y-34857385D01*
X37785970Y-34857382D01*
X37785972Y-34857371D01*
X37805348Y-34500000D01*
X37803965Y-34474501D01*
X37802868Y-34454266D01*
X37785972Y-34142629D01*
X37728071Y-33789448D01*
X37668668Y-33575498D01*
X37632327Y-33444607D01*
X37632326Y-33444605D01*
X37632324Y-33444597D01*
X37609715Y-33387854D01*
X37603188Y-33318294D01*
X37635306Y-33256244D01*
X37695872Y-33221408D01*
X37765657Y-33224846D01*
X37822505Y-33265468D01*
X37832296Y-33279960D01*
X37841156Y-33295306D01*
X37849948Y-33313964D01*
X37851203Y-33317330D01*
X37851204Y-33317331D01*
X37937454Y-33432546D01*
X37937457Y-33432548D01*
X37937460Y-33432551D01*
X37974834Y-33460530D01*
X37983990Y-33468890D01*
X37984303Y-33468543D01*
X37989131Y-33472890D01*
X38142265Y-33584148D01*
X38142270Y-33584151D01*
X38315192Y-33661142D01*
X38315197Y-33661144D01*
X38500354Y-33700500D01*
X38500355Y-33700500D01*
X38689644Y-33700500D01*
X38689646Y-33700500D01*
X38874803Y-33661144D01*
X39047730Y-33584151D01*
X39200871Y-33472888D01*
X39200877Y-33472880D01*
X39205697Y-33468542D01*
X39206013Y-33468893D01*
X39215169Y-33460526D01*
X39236434Y-33444607D01*
X39252546Y-33432546D01*
X39338796Y-33317331D01*
X39340052Y-33313964D01*
X39348835Y-33295317D01*
X39422179Y-33168284D01*
X39480674Y-32988256D01*
X39500460Y-32800000D01*
X39480674Y-32611744D01*
X39422179Y-32431716D01*
X39418348Y-32425081D01*
X39412111Y-32414277D01*
X39395499Y-32352279D01*
X39395499Y-32247720D01*
X39412113Y-32185718D01*
X39422179Y-32168284D01*
X39480674Y-31988256D01*
X39500460Y-31800000D01*
X39480674Y-31611744D01*
X39422179Y-31431716D01*
X39348841Y-31304690D01*
X39340046Y-31286021D01*
X39338796Y-31282669D01*
X39338793Y-31282664D01*
X39252547Y-31167455D01*
X39252546Y-31167454D01*
X39215163Y-31139468D01*
X39206011Y-31131110D01*
X39205698Y-31131458D01*
X39200873Y-31127115D01*
X39200871Y-31127112D01*
X39200864Y-31127107D01*
X39047734Y-31015851D01*
X39047729Y-31015848D01*
X38874807Y-30938857D01*
X38874802Y-30938855D01*
X38704931Y-30902749D01*
X38689646Y-30899500D01*
X38500354Y-30899500D01*
X38485069Y-30902749D01*
X38315197Y-30938855D01*
X38315192Y-30938857D01*
X38142270Y-31015848D01*
X38142265Y-31015851D01*
X37989134Y-31127107D01*
X37984308Y-31131453D01*
X37983997Y-31131107D01*
X37974843Y-31139462D01*
X37937459Y-31167448D01*
X37937453Y-31167454D01*
X37851205Y-31282665D01*
X37851202Y-31282671D01*
X37849949Y-31286032D01*
X37841159Y-31304688D01*
X37767820Y-31431716D01*
X37709327Y-31611740D01*
X37709326Y-31611744D01*
X37689540Y-31800000D01*
X37709326Y-31988256D01*
X37709327Y-31988259D01*
X37767821Y-32168285D01*
X37777887Y-32185720D01*
X37794500Y-32247720D01*
X37794500Y-32352280D01*
X37777888Y-32414278D01*
X37767821Y-32431714D01*
X37720356Y-32577796D01*
X37709326Y-32611744D01*
X37689540Y-32800000D01*
X37709326Y-32988256D01*
X37709327Y-32988259D01*
X37710006Y-32994719D01*
X37708672Y-32994859D01*
X37703897Y-33057406D01*
X37661758Y-33113138D01*
X37596177Y-33137240D01*
X37527976Y-33122060D01*
X37478809Y-33072418D01*
X37478370Y-33071598D01*
X37332215Y-32795922D01*
X37332213Y-32795919D01*
X37332211Y-32795915D01*
X37131365Y-32499689D01*
X37131361Y-32499684D01*
X37131358Y-32499680D01*
X36899668Y-32226914D01*
X36837771Y-32168282D01*
X36639837Y-31980789D01*
X36639830Y-31980783D01*
X36639827Y-31980781D01*
X36514493Y-31885505D01*
X36354919Y-31764200D01*
X36048253Y-31579685D01*
X36048252Y-31579684D01*
X36048248Y-31579682D01*
X36048244Y-31579680D01*
X35723447Y-31429414D01*
X35723441Y-31429411D01*
X35723435Y-31429409D01*
X35521171Y-31361258D01*
X35384273Y-31315131D01*
X35034744Y-31238194D01*
X34678949Y-31199500D01*
X34678948Y-31199500D01*
X34321052Y-31199500D01*
X34321050Y-31199500D01*
X33965255Y-31238194D01*
X33615726Y-31315131D01*
X33416714Y-31382187D01*
X33276565Y-31429409D01*
X33276563Y-31429410D01*
X33276552Y-31429414D01*
X32951755Y-31579680D01*
X32951751Y-31579682D01*
X32723367Y-31717096D01*
X32645081Y-31764200D01*
X32597987Y-31800000D01*
X32360172Y-31980781D01*
X32360163Y-31980789D01*
X32100331Y-32226914D01*
X31868641Y-32499680D01*
X31868634Y-32499690D01*
X31667790Y-32795913D01*
X31667784Y-32795922D01*
X31500151Y-33112111D01*
X31500142Y-33112129D01*
X31367674Y-33444600D01*
X31367672Y-33444607D01*
X31271932Y-33789434D01*
X31271926Y-33789460D01*
X31214029Y-34142614D01*
X31214028Y-34142631D01*
X31196035Y-34474501D01*
X31194652Y-34500000D01*
X31213099Y-34840243D01*
X31214028Y-34857368D01*
X31214029Y-34857385D01*
X31271926Y-35210539D01*
X31271932Y-35210565D01*
X31367672Y-35555392D01*
X31367674Y-35555399D01*
X31500142Y-35887870D01*
X31500151Y-35887888D01*
X31667784Y-36204077D01*
X31667787Y-36204082D01*
X31667789Y-36204085D01*
X31855680Y-36481204D01*
X31868634Y-36500309D01*
X31868641Y-36500319D01*
X32100331Y-36773085D01*
X32100332Y-36773086D01*
X32191394Y-36859345D01*
X32226527Y-36919738D01*
X32223432Y-36989539D01*
X32183090Y-37046585D01*
X32118311Y-37072766D01*
X32081928Y-37070984D01*
X31973921Y-37049500D01*
X31973918Y-37049500D01*
X31660698Y-37049500D01*
X31617467Y-37040546D01*
X31617392Y-37040806D01*
X31614098Y-37039849D01*
X31611447Y-37039300D01*
X31609902Y-37038631D01*
X31609900Y-37038630D01*
X31609896Y-37038629D01*
X31609892Y-37038627D01*
X31450862Y-36992424D01*
X31450856Y-36992423D01*
X31413703Y-36989500D01*
X30856309Y-36989500D01*
X30856284Y-36989501D01*
X30819145Y-36992423D01*
X30660099Y-37038630D01*
X30517549Y-37122934D01*
X30517540Y-37122941D01*
X30400441Y-37240040D01*
X30400434Y-37240049D01*
X30316129Y-37382601D01*
X30316128Y-37382604D01*
X30269924Y-37541637D01*
X30269923Y-37541643D01*
X30267000Y-37578789D01*
X30267000Y-37940156D01*
X30247315Y-38007195D01*
X30194511Y-38052950D01*
X30156885Y-38063376D01*
X30145750Y-38064630D01*
X29975478Y-38124210D01*
X29822739Y-38220183D01*
X29695183Y-38347738D01*
X29677692Y-38375573D01*
X29648190Y-38407970D01*
X29568853Y-38468848D01*
X29568851Y-38468851D01*
X29481656Y-38582486D01*
X29474198Y-38592205D01*
X29439061Y-38677034D01*
X29395220Y-38731437D01*
X29328926Y-38753502D01*
X29261226Y-38736223D01*
X29213616Y-38685085D01*
X29200500Y-38629581D01*
X29200500Y-33134412D01*
X29220185Y-33067373D01*
X29236819Y-33046731D01*
X33046731Y-29236819D01*
X33108054Y-29203334D01*
X33134412Y-29200500D01*
X41430569Y-29200500D01*
X41497608Y-29220185D01*
G37*
%TD.AperFunction*%
%TA.AperFunction,Conductor*%
G36*
X46115455Y-58823526D02*
G01*
X46220737Y-58860366D01*
X46220741Y-58860367D01*
X46220742Y-58860367D01*
X46220745Y-58860368D01*
X46307668Y-58870161D01*
X46372079Y-58897226D01*
X46381464Y-58905700D01*
X46456284Y-58980520D01*
X46456286Y-58980521D01*
X46456290Y-58980524D01*
X46593209Y-59059573D01*
X46593216Y-59059577D01*
X46745943Y-59100501D01*
X46745945Y-59100501D01*
X46911654Y-59100501D01*
X46911670Y-59100500D01*
X57904902Y-59100500D01*
X57971941Y-59120185D01*
X57992583Y-59136819D01*
X58620343Y-59764579D01*
X58653828Y-59825902D01*
X58648844Y-59895594D01*
X58606972Y-59951527D01*
X58567258Y-59971336D01*
X58474604Y-59998254D01*
X58474603Y-59998255D01*
X58333137Y-60081917D01*
X58326969Y-60086702D01*
X58325072Y-60084256D01*
X58276358Y-60110857D01*
X58206666Y-60105873D01*
X58174296Y-60085069D01*
X58173031Y-60086702D01*
X58166862Y-60081917D01*
X58025396Y-59998255D01*
X58025393Y-59998254D01*
X57867573Y-59952402D01*
X57867567Y-59952401D01*
X57830701Y-59949500D01*
X57830694Y-59949500D01*
X57399306Y-59949500D01*
X57399298Y-59949500D01*
X57362432Y-59952401D01*
X57362426Y-59952402D01*
X57204606Y-59998254D01*
X57204603Y-59998255D01*
X57063137Y-60081917D01*
X57056969Y-60086702D01*
X57055072Y-60084256D01*
X57006358Y-60110857D01*
X56936666Y-60105873D01*
X56904296Y-60085069D01*
X56903031Y-60086702D01*
X56896862Y-60081917D01*
X56755396Y-59998255D01*
X56755393Y-59998254D01*
X56597573Y-59952402D01*
X56597567Y-59952401D01*
X56560701Y-59949500D01*
X56560694Y-59949500D01*
X56129306Y-59949500D01*
X56129298Y-59949500D01*
X56092432Y-59952401D01*
X56092426Y-59952402D01*
X55934606Y-59998254D01*
X55934603Y-59998255D01*
X55793137Y-60081917D01*
X55793129Y-60081923D01*
X55676923Y-60198129D01*
X55676917Y-60198137D01*
X55593255Y-60339603D01*
X55593254Y-60339606D01*
X55547402Y-60497426D01*
X55547401Y-60497432D01*
X55544500Y-60534298D01*
X55544500Y-62315701D01*
X55547401Y-62352567D01*
X55547402Y-62352573D01*
X55564042Y-62409846D01*
X55563843Y-62479716D01*
X55525901Y-62538386D01*
X55492421Y-62559001D01*
X55445554Y-62578415D01*
X55445552Y-62578416D01*
X55421953Y-62588191D01*
X55352483Y-62595660D01*
X55290004Y-62564385D01*
X55254352Y-62504296D01*
X55250500Y-62473630D01*
X55250500Y-61536079D01*
X55221659Y-61391092D01*
X55221658Y-61391091D01*
X55221658Y-61391087D01*
X55202659Y-61345219D01*
X55165087Y-61254511D01*
X55165080Y-61254498D01*
X55111397Y-61174156D01*
X55090519Y-61107478D01*
X55090499Y-61105265D01*
X55090499Y-59952129D01*
X55090498Y-59952123D01*
X55089908Y-59946638D01*
X55084091Y-59892517D01*
X55082810Y-59889083D01*
X55033797Y-59757671D01*
X55033793Y-59757664D01*
X54947547Y-59642455D01*
X54947544Y-59642452D01*
X54832335Y-59556206D01*
X54832328Y-59556202D01*
X54697482Y-59505908D01*
X54697483Y-59505908D01*
X54637883Y-59499501D01*
X54637881Y-59499500D01*
X54637873Y-59499500D01*
X54637864Y-59499500D01*
X52842129Y-59499500D01*
X52842123Y-59499501D01*
X52782516Y-59505908D01*
X52647671Y-59556202D01*
X52647664Y-59556206D01*
X52532455Y-59642452D01*
X52532452Y-59642455D01*
X52446206Y-59757664D01*
X52446203Y-59757669D01*
X52397189Y-59889083D01*
X52355317Y-59945016D01*
X52289853Y-59969433D01*
X52221580Y-59954581D01*
X52193326Y-59933430D01*
X52071402Y-59811506D01*
X52071395Y-59811501D01*
X51877834Y-59675967D01*
X51877830Y-59675965D01*
X51821241Y-59649577D01*
X51663663Y-59576097D01*
X51663659Y-59576096D01*
X51663655Y-59576094D01*
X51435413Y-59514938D01*
X51435403Y-59514936D01*
X51200001Y-59494341D01*
X51199999Y-59494341D01*
X50964596Y-59514936D01*
X50964586Y-59514938D01*
X50748734Y-59572775D01*
X50716641Y-59577000D01*
X49456522Y-59577000D01*
X49392373Y-59559117D01*
X49333070Y-59523267D01*
X49333066Y-59523265D01*
X49179933Y-59475548D01*
X49179935Y-59475548D01*
X49153312Y-59473128D01*
X49113381Y-59469500D01*
X49113378Y-59469500D01*
X48686611Y-59469500D01*
X48620073Y-59475546D01*
X48620066Y-59475548D01*
X48466933Y-59523265D01*
X48466929Y-59523267D01*
X48329670Y-59606242D01*
X48329665Y-59606246D01*
X48216246Y-59719665D01*
X48216242Y-59719670D01*
X48133267Y-59856929D01*
X48133265Y-59856933D01*
X48085548Y-60010065D01*
X48085548Y-60010067D01*
X48079596Y-60075570D01*
X48079500Y-60076621D01*
X48079500Y-60578389D01*
X48084806Y-60636780D01*
X48071268Y-60705326D01*
X48022821Y-60755671D01*
X47961315Y-60772000D01*
X47778580Y-60772000D01*
X47633592Y-60800840D01*
X47633582Y-60800843D01*
X47497011Y-60857412D01*
X47496998Y-60857419D01*
X47374084Y-60939548D01*
X47374080Y-60939551D01*
X45144450Y-63169180D01*
X45095090Y-63199429D01*
X45077558Y-63205125D01*
X45077551Y-63205128D01*
X44923211Y-63283768D01*
X44869124Y-63323065D01*
X44783072Y-63385586D01*
X44783070Y-63385588D01*
X44783069Y-63385588D01*
X44660588Y-63508069D01*
X44660581Y-63508078D01*
X44600317Y-63591023D01*
X44544987Y-63633689D01*
X44475374Y-63639667D01*
X44413579Y-63607061D01*
X44399683Y-63591023D01*
X44339418Y-63508078D01*
X44339414Y-63508072D01*
X44216928Y-63385586D01*
X44076788Y-63283768D01*
X43922445Y-63205127D01*
X43757701Y-63151598D01*
X43757699Y-63151597D01*
X43757698Y-63151597D01*
X43626271Y-63130781D01*
X43586611Y-63124500D01*
X43413389Y-63124500D01*
X43373728Y-63130781D01*
X43242302Y-63151597D01*
X43077552Y-63205128D01*
X42923211Y-63283768D01*
X42783073Y-63385585D01*
X42675530Y-63493128D01*
X42614207Y-63526612D01*
X42544515Y-63521628D01*
X42488582Y-63479756D01*
X42482310Y-63470543D01*
X42451669Y-63420866D01*
X42442712Y-63406344D01*
X42318656Y-63282288D01*
X42318655Y-63282287D01*
X42309402Y-63276580D01*
X42262678Y-63224632D01*
X42250500Y-63171042D01*
X42250500Y-62310958D01*
X42268384Y-62246806D01*
X42271531Y-62241602D01*
X42319430Y-62087887D01*
X42325500Y-62021091D01*
X42325499Y-60890847D01*
X42345184Y-60823809D01*
X42397987Y-60778054D01*
X42399063Y-60777569D01*
X42465499Y-60747989D01*
X42552730Y-60709151D01*
X42557995Y-60705326D01*
X42566452Y-60699182D01*
X42632258Y-60675702D01*
X42639337Y-60675500D01*
X43075500Y-60675500D01*
X43142539Y-60695185D01*
X43188294Y-60747989D01*
X43199500Y-60799500D01*
X43199500Y-61981613D01*
X43205913Y-62052192D01*
X43205913Y-62052194D01*
X43205914Y-62052196D01*
X43256522Y-62214606D01*
X43261178Y-62222308D01*
X43283145Y-62258645D01*
X43294959Y-62284476D01*
X43296472Y-62289132D01*
X43297822Y-62293288D01*
X43392465Y-62457214D01*
X43519129Y-62597888D01*
X43672265Y-62709148D01*
X43672270Y-62709151D01*
X43845192Y-62786142D01*
X43845197Y-62786144D01*
X44030354Y-62825500D01*
X44030355Y-62825500D01*
X44219644Y-62825500D01*
X44219646Y-62825500D01*
X44404803Y-62786144D01*
X44577730Y-62709151D01*
X44730871Y-62597888D01*
X44857533Y-62457216D01*
X44952179Y-62293284D01*
X45010674Y-62113256D01*
X45030460Y-61925000D01*
X45010674Y-61736744D01*
X45006567Y-61724105D01*
X45000500Y-61685792D01*
X45000500Y-60368386D01*
X44997885Y-60339606D01*
X44994086Y-60297804D01*
X44943478Y-60135394D01*
X44855472Y-59989815D01*
X44855470Y-59989813D01*
X44855469Y-59989811D01*
X44735188Y-59869530D01*
X44714350Y-59856933D01*
X44710147Y-59854391D01*
X44662960Y-59802865D01*
X44651122Y-59734005D01*
X44678391Y-59669677D01*
X44736110Y-59630303D01*
X44785518Y-59624785D01*
X44793384Y-59625500D01*
X44793388Y-59625500D01*
X45306613Y-59625500D01*
X45306616Y-59625500D01*
X45377196Y-59619086D01*
X45539606Y-59568478D01*
X45685185Y-59480472D01*
X45805472Y-59360185D01*
X45893478Y-59214606D01*
X45944086Y-59052196D01*
X45950500Y-58981616D01*
X45950500Y-58940567D01*
X45970185Y-58873528D01*
X46022989Y-58827773D01*
X46092147Y-58817829D01*
X46115455Y-58823526D01*
G37*
%TD.AperFunction*%
%TA.AperFunction,Conductor*%
G36*
X40593834Y-58820046D02*
G01*
X40649767Y-58861918D01*
X40674184Y-58927382D01*
X40674500Y-58936228D01*
X40674500Y-59321098D01*
X40680568Y-59387882D01*
X40680571Y-59387893D01*
X40728467Y-59541598D01*
X40728468Y-59541600D01*
X40728469Y-59541602D01*
X40809695Y-59675965D01*
X40811766Y-59679391D01*
X40925608Y-59793233D01*
X40925610Y-59793234D01*
X40925612Y-59793236D01*
X41063398Y-59876531D01*
X41079709Y-59881613D01*
X41137857Y-59920347D01*
X41165833Y-59984371D01*
X41154755Y-60053357D01*
X41108138Y-60105402D01*
X41079716Y-60118383D01*
X41063401Y-60123467D01*
X40925608Y-60206766D01*
X40811766Y-60320608D01*
X40728469Y-60458397D01*
X40680569Y-60612116D01*
X40675713Y-60665557D01*
X40674792Y-60675702D01*
X40674500Y-60678911D01*
X40674500Y-62021098D01*
X40680568Y-62087882D01*
X40680571Y-62087893D01*
X40728467Y-62241598D01*
X40728468Y-62241600D01*
X40728469Y-62241602D01*
X40731615Y-62246806D01*
X40749500Y-62310958D01*
X40749500Y-62388770D01*
X40729815Y-62455809D01*
X40677011Y-62501564D01*
X40607853Y-62511508D01*
X40544297Y-62482483D01*
X40537819Y-62476451D01*
X40408247Y-62346879D01*
X40374762Y-62285556D01*
X40377543Y-62222308D01*
X40382731Y-62205659D01*
X40419430Y-62087887D01*
X40425500Y-62021091D01*
X40425499Y-60678910D01*
X40425499Y-60678909D01*
X40425499Y-60678901D01*
X40419431Y-60612117D01*
X40419428Y-60612106D01*
X40371532Y-60458401D01*
X40371531Y-60458400D01*
X40371531Y-60458398D01*
X40288236Y-60320612D01*
X40288234Y-60320610D01*
X40288233Y-60320608D01*
X40174391Y-60206766D01*
X40133365Y-60181965D01*
X40036602Y-60123469D01*
X40020286Y-60118384D01*
X39962140Y-60079648D01*
X39934166Y-60015623D01*
X39945247Y-59946638D01*
X39991866Y-59894594D01*
X40020283Y-59881615D01*
X40036602Y-59876531D01*
X40174388Y-59793236D01*
X40288236Y-59679388D01*
X40371531Y-59541602D01*
X40419430Y-59387887D01*
X40425500Y-59321091D01*
X40425499Y-58937228D01*
X40445183Y-58870190D01*
X40461813Y-58849553D01*
X40462821Y-58848545D01*
X40524142Y-58815062D01*
X40593834Y-58820046D01*
G37*
%TD.AperFunction*%
%TA.AperFunction,Conductor*%
G36*
X31051147Y-51612888D02*
G01*
X31060394Y-51618478D01*
X31222804Y-51669086D01*
X31293384Y-51675500D01*
X31293387Y-51675500D01*
X32875500Y-51675500D01*
X32942539Y-51695185D01*
X32988294Y-51747989D01*
X32999500Y-51799500D01*
X32999500Y-57665677D01*
X32982887Y-57727677D01*
X32922821Y-57831714D01*
X32864325Y-58011745D01*
X32856263Y-58088461D01*
X32829679Y-58153075D01*
X32772382Y-58193061D01*
X32732942Y-58199500D01*
X32136669Y-58199500D01*
X32136653Y-58199499D01*
X32129057Y-58199499D01*
X31970943Y-58199499D01*
X31818215Y-58240423D01*
X31770078Y-58268215D01*
X31770077Y-58268215D01*
X31681290Y-58319475D01*
X31681282Y-58319481D01*
X29444481Y-60556282D01*
X29444477Y-60556287D01*
X29431887Y-60578095D01*
X29381320Y-60626311D01*
X29312713Y-60639534D01*
X29247848Y-60613566D01*
X29207320Y-60556651D01*
X29200500Y-60516095D01*
X29200500Y-52911898D01*
X29220185Y-52844859D01*
X29272989Y-52799104D01*
X29342147Y-52789160D01*
X29397381Y-52811578D01*
X29485148Y-52875344D01*
X29497270Y-52884151D01*
X29670192Y-52961142D01*
X29670197Y-52961144D01*
X29855354Y-53000500D01*
X29855355Y-53000500D01*
X30044644Y-53000500D01*
X30044646Y-53000500D01*
X30229803Y-52961144D01*
X30402730Y-52884151D01*
X30555871Y-52772888D01*
X30682533Y-52632216D01*
X30777179Y-52468284D01*
X30835674Y-52288256D01*
X30855460Y-52100000D01*
X30853941Y-52085548D01*
X30855643Y-52048400D01*
X30863000Y-52011417D01*
X30863000Y-51863582D01*
X30863000Y-51719006D01*
X30882685Y-51651967D01*
X30935489Y-51606212D01*
X31004647Y-51596268D01*
X31051147Y-51612888D01*
G37*
%TD.AperFunction*%
%TA.AperFunction,Conductor*%
G36*
X54410274Y-53967210D02*
G01*
X54454622Y-53995711D01*
X55620102Y-55161191D01*
X55653587Y-55222514D01*
X55648603Y-55292206D01*
X55639154Y-55311992D01*
X55593254Y-55389605D01*
X55593254Y-55389606D01*
X55547402Y-55547426D01*
X55547401Y-55547432D01*
X55544500Y-55584298D01*
X55544500Y-57365694D01*
X55547401Y-57402567D01*
X55547402Y-57402573D01*
X55593254Y-57560393D01*
X55593255Y-57560396D01*
X55593256Y-57560398D01*
X55615920Y-57598721D01*
X55680890Y-57708580D01*
X55679071Y-57709655D01*
X55700619Y-57764532D01*
X55686941Y-57833050D01*
X55638391Y-57883296D01*
X55577105Y-57899500D01*
X53867296Y-57899500D01*
X53800257Y-57879815D01*
X53754502Y-57827011D01*
X53744558Y-57757853D01*
X53773583Y-57694297D01*
X53779596Y-57687837D01*
X53858509Y-57608924D01*
X53858514Y-57608921D01*
X53868714Y-57598720D01*
X53868716Y-57598720D01*
X53980520Y-57486916D01*
X54050507Y-57365694D01*
X54059577Y-57349985D01*
X54100501Y-57197257D01*
X54100501Y-57039143D01*
X54100501Y-57031548D01*
X54100500Y-57031530D01*
X54100500Y-54799802D01*
X54100500Y-54799800D01*
X54096673Y-54785515D01*
X54059577Y-54647072D01*
X54040412Y-54613878D01*
X54030057Y-54595942D01*
X54030057Y-54595941D01*
X53980524Y-54510147D01*
X53980518Y-54510139D01*
X53919633Y-54449254D01*
X53886148Y-54387931D01*
X53891132Y-54318239D01*
X53933004Y-54262306D01*
X53951069Y-54252206D01*
X53950763Y-54251650D01*
X54085725Y-54177454D01*
X54102731Y-54168105D01*
X54131072Y-54143900D01*
X54279259Y-53995710D01*
X54340582Y-53962226D01*
X54410274Y-53967210D01*
G37*
%TD.AperFunction*%
%TA.AperFunction,Conductor*%
G36*
X59302578Y-55420185D02*
G01*
X59348333Y-55472989D01*
X59358277Y-55542147D01*
X59357520Y-55546785D01*
X59357401Y-55547431D01*
X59354500Y-55584298D01*
X59354500Y-57258000D01*
X59334815Y-57325039D01*
X59282011Y-57370794D01*
X59230500Y-57382000D01*
X58853308Y-57382000D01*
X58786269Y-57362315D01*
X58765627Y-57345681D01*
X58584808Y-57164862D01*
X58551323Y-57103539D01*
X58549168Y-57090141D01*
X58535674Y-56961745D01*
X58513783Y-56894371D01*
X58477179Y-56781716D01*
X58457738Y-56748043D01*
X58432113Y-56703658D01*
X58415500Y-56641658D01*
X58415500Y-55584313D01*
X58415499Y-55584298D01*
X58412598Y-55547431D01*
X58412480Y-55546785D01*
X58412518Y-55546419D01*
X58412101Y-55541114D01*
X58413085Y-55541036D01*
X58419796Y-55477299D01*
X58463517Y-55422799D01*
X58529763Y-55400589D01*
X58534461Y-55400500D01*
X59235539Y-55400500D01*
X59302578Y-55420185D01*
G37*
%TD.AperFunction*%
%TA.AperFunction,Conductor*%
G36*
X43223742Y-55020185D02*
G01*
X43244384Y-55036819D01*
X44742196Y-56534631D01*
X44775681Y-56595954D01*
X44770697Y-56665646D01*
X44728825Y-56721579D01*
X44691405Y-56740697D01*
X44560397Y-56781520D01*
X44414811Y-56869530D01*
X44294530Y-56989811D01*
X44206117Y-57136064D01*
X44154589Y-57183252D01*
X44085729Y-57195090D01*
X44021401Y-57167821D01*
X43993883Y-57136064D01*
X43974992Y-57104815D01*
X43905472Y-56989815D01*
X43905470Y-56989813D01*
X43905469Y-56989811D01*
X43785188Y-56869530D01*
X43703492Y-56820143D01*
X43639606Y-56781522D01*
X43477196Y-56730914D01*
X43477194Y-56730913D01*
X43477192Y-56730913D01*
X43427778Y-56726423D01*
X43406616Y-56724500D01*
X42893384Y-56724500D01*
X42866916Y-56726905D01*
X42822799Y-56730914D01*
X42822796Y-56730915D01*
X42791329Y-56740720D01*
X42721469Y-56741870D01*
X42706990Y-56736895D01*
X42613917Y-56698343D01*
X42613907Y-56698340D01*
X42468920Y-56669500D01*
X42468918Y-56669500D01*
X41989169Y-56669500D01*
X41922130Y-56649815D01*
X41876375Y-56597011D01*
X41866431Y-56527853D01*
X41871463Y-56506497D01*
X41877673Y-56487755D01*
X41877674Y-56487753D01*
X41888000Y-56386677D01*
X41887999Y-55813324D01*
X41877674Y-55712247D01*
X41847165Y-55620180D01*
X41844764Y-55550356D01*
X41880495Y-55490314D01*
X41927978Y-55462794D01*
X41995569Y-55441733D01*
X42132835Y-55358753D01*
X42220330Y-55271256D01*
X42275917Y-55239163D01*
X42293036Y-55234577D01*
X42362825Y-55194284D01*
X42429967Y-55155520D01*
X42541771Y-55043716D01*
X42541771Y-55043715D01*
X42548668Y-55036819D01*
X42609991Y-55003334D01*
X42636349Y-55000500D01*
X43156703Y-55000500D01*
X43223742Y-55020185D01*
G37*
%TD.AperFunction*%
%TA.AperFunction,Conductor*%
G36*
X49662369Y-47174526D02*
G01*
X49819801Y-47174526D01*
X49886840Y-47194211D01*
X49932595Y-47247015D01*
X49942897Y-47313473D01*
X49931638Y-47406202D01*
X49929355Y-47425000D01*
X49930821Y-47437071D01*
X49949859Y-47593869D01*
X49949860Y-47593874D01*
X50010182Y-47752931D01*
X50092569Y-47872289D01*
X50097906Y-47880728D01*
X50121427Y-47921466D01*
X50174485Y-48013365D01*
X51142949Y-48981829D01*
X51250099Y-49088979D01*
X51381329Y-49164745D01*
X51463056Y-49186643D01*
X51522715Y-49223006D01*
X51546904Y-49262446D01*
X51600182Y-49402930D01*
X51600182Y-49402931D01*
X51662475Y-49493177D01*
X51696817Y-49542929D01*
X51762120Y-49600782D01*
X51824150Y-49655736D01*
X51974774Y-49734790D01*
X51999079Y-49740780D01*
X52045065Y-49752114D01*
X52105445Y-49787269D01*
X52137234Y-49849488D01*
X52138485Y-49857559D01*
X52139858Y-49868864D01*
X52139860Y-49868875D01*
X52200182Y-50027930D01*
X52200182Y-50027931D01*
X52262475Y-50118177D01*
X52296817Y-50167929D01*
X52326685Y-50194390D01*
X52363812Y-50253579D01*
X52363044Y-50323444D01*
X52324627Y-50381804D01*
X52260756Y-50410129D01*
X52230576Y-50410425D01*
X52157535Y-50402196D01*
X52157526Y-50402196D01*
X51978280Y-50422391D01*
X51978275Y-50422392D01*
X51808006Y-50481972D01*
X51655267Y-50577945D01*
X51527714Y-50705498D01*
X51431740Y-50858239D01*
X51372160Y-51028511D01*
X51362367Y-51115429D01*
X51335300Y-51179843D01*
X51326828Y-51189226D01*
X50406286Y-52109769D01*
X50294481Y-52221573D01*
X50294480Y-52221575D01*
X50255981Y-52288259D01*
X50249738Y-52299072D01*
X50249736Y-52299074D01*
X50215425Y-52358500D01*
X50215424Y-52358501D01*
X50209376Y-52381072D01*
X50174499Y-52511234D01*
X50174499Y-52511236D01*
X50174499Y-52618059D01*
X50154814Y-52685098D01*
X50102010Y-52730853D01*
X50032852Y-52740797D01*
X49969296Y-52711772D01*
X49962818Y-52705740D01*
X49852262Y-52595184D01*
X49699523Y-52499211D01*
X49529254Y-52439631D01*
X49529249Y-52439630D01*
X49350004Y-52419435D01*
X49349996Y-52419435D01*
X49170750Y-52439630D01*
X49170742Y-52439632D01*
X49047281Y-52482833D01*
X48977502Y-52486394D01*
X48918646Y-52453472D01*
X48873867Y-52408693D01*
X48873862Y-52408689D01*
X48873860Y-52408687D01*
X48828905Y-52373371D01*
X48800903Y-52351373D01*
X48779997Y-52330466D01*
X48722682Y-52257508D01*
X48591025Y-52125851D01*
X48591020Y-52125847D01*
X48591018Y-52125845D01*
X48539725Y-52085550D01*
X48518059Y-52068529D01*
X48497153Y-52047622D01*
X48439839Y-51974665D01*
X48308182Y-51843008D01*
X48308177Y-51843004D01*
X48308175Y-51843002D01*
X48278747Y-51819884D01*
X48235216Y-51785686D01*
X48214310Y-51764779D01*
X48156996Y-51691822D01*
X48040512Y-51575338D01*
X48007027Y-51514015D01*
X48012011Y-51444323D01*
X48012251Y-51443685D01*
X48022111Y-51417687D01*
X48042616Y-51248815D01*
X48022111Y-51079943D01*
X47961789Y-50920885D01*
X47865154Y-50780886D01*
X47752327Y-50680930D01*
X47737820Y-50668078D01*
X47587197Y-50589025D01*
X47422027Y-50548315D01*
X47251915Y-50548315D01*
X47251913Y-50548315D01*
X47128537Y-50578724D01*
X47058735Y-50575655D01*
X47011182Y-50546008D01*
X46893968Y-50428794D01*
X46893963Y-50428790D01*
X46893961Y-50428788D01*
X46834153Y-50381804D01*
X46821004Y-50371474D01*
X46800098Y-50350567D01*
X46742783Y-50277609D01*
X46611126Y-50145952D01*
X46611121Y-50145948D01*
X46611119Y-50145946D01*
X46583073Y-50123914D01*
X46549461Y-50097508D01*
X46508904Y-50040614D01*
X46505545Y-49970825D01*
X46540449Y-49910299D01*
X46549452Y-49902497D01*
X46611119Y-49854054D01*
X46742785Y-49722388D01*
X46797826Y-49652324D01*
X46797828Y-49652318D01*
X46800095Y-49649433D01*
X46821006Y-49628522D01*
X46823891Y-49626255D01*
X46823897Y-49626253D01*
X46893961Y-49571212D01*
X46893962Y-49571210D01*
X46896877Y-49568921D01*
X46897542Y-49569767D01*
X46956569Y-49541944D01*
X47025843Y-49551051D01*
X47041663Y-49559462D01*
X47101963Y-49597351D01*
X47101966Y-49597352D01*
X47272222Y-49656928D01*
X47272228Y-49656929D01*
X47272230Y-49656930D01*
X47272231Y-49656930D01*
X47272235Y-49656931D01*
X47451481Y-49677127D01*
X47451485Y-49677127D01*
X47451489Y-49677127D01*
X47630734Y-49656931D01*
X47630737Y-49656930D01*
X47630740Y-49656930D01*
X47801007Y-49597351D01*
X47953747Y-49501378D01*
X48018307Y-49436818D01*
X48079630Y-49403333D01*
X48105988Y-49400499D01*
X48215192Y-49400499D01*
X48380361Y-49359789D01*
X48504636Y-49294564D01*
X48530985Y-49280735D01*
X48530986Y-49280733D01*
X48530988Y-49280733D01*
X48658319Y-49167928D01*
X48754954Y-49027929D01*
X48815276Y-48868871D01*
X48835781Y-48699999D01*
X48815276Y-48531127D01*
X48754954Y-48372069D01*
X48754953Y-48372067D01*
X48754952Y-48372065D01*
X48714855Y-48313976D01*
X48701786Y-48295042D01*
X48684063Y-48256700D01*
X48666417Y-48190844D01*
X48590651Y-48059614D01*
X48585630Y-48054593D01*
X48552145Y-47993270D01*
X48557129Y-47923578D01*
X48588889Y-47877267D01*
X48588398Y-47876776D01*
X48722676Y-47742497D01*
X48722684Y-47742489D01*
X48777725Y-47672425D01*
X48785131Y-47655376D01*
X48805852Y-47607669D01*
X48838014Y-47533625D01*
X48838479Y-47530234D01*
X48839766Y-47527369D01*
X48840303Y-47525456D01*
X48840590Y-47525536D01*
X48867103Y-47466500D01*
X48925642Y-47428356D01*
X48944442Y-47424266D01*
X48947839Y-47423800D01*
X49085166Y-47364151D01*
X49086633Y-47363514D01*
X49086634Y-47363513D01*
X49086639Y-47363511D01*
X49156703Y-47308470D01*
X49176793Y-47288380D01*
X49254330Y-47210844D01*
X49315653Y-47177359D01*
X49342011Y-47174525D01*
X49662353Y-47174525D01*
X49662369Y-47174526D01*
G37*
%TD.AperFunction*%
%TA.AperFunction,Conductor*%
G36*
X49087466Y-41425830D02*
G01*
X49108107Y-41442464D01*
X50788565Y-43122922D01*
X50822050Y-43184245D01*
X50824884Y-43210603D01*
X50824884Y-44758505D01*
X50805199Y-44825544D01*
X50752395Y-44871299D01*
X50717771Y-44881350D01*
X50680928Y-44886414D01*
X50542135Y-44946699D01*
X50542131Y-44946702D01*
X50472057Y-45001751D01*
X50255811Y-45217997D01*
X50194488Y-45251482D01*
X50124796Y-45246498D01*
X50068863Y-45204626D01*
X50066080Y-45200755D01*
X50053185Y-45182073D01*
X49925849Y-45069263D01*
X49775226Y-44990210D01*
X49610056Y-44949500D01*
X49490076Y-44949500D01*
X49440675Y-44939234D01*
X49319070Y-44886414D01*
X49319071Y-44886414D01*
X49169149Y-44865808D01*
X49019227Y-44886414D01*
X48880434Y-44946699D01*
X48880430Y-44946702D01*
X48810356Y-45001751D01*
X48678705Y-45133402D01*
X48621385Y-45206367D01*
X48600479Y-45227273D01*
X48527514Y-45284593D01*
X48395862Y-45416245D01*
X48338542Y-45489209D01*
X48317636Y-45510115D01*
X48244672Y-45567435D01*
X48187181Y-45624927D01*
X48125858Y-45658412D01*
X48056166Y-45653428D01*
X48000233Y-45611556D01*
X47975816Y-45546092D01*
X47975500Y-45537246D01*
X47975500Y-45498695D01*
X47995185Y-45431656D01*
X48011815Y-45411018D01*
X48568155Y-44854677D01*
X48568160Y-44854674D01*
X48578363Y-44844470D01*
X48578365Y-44844470D01*
X48685515Y-44737320D01*
X48761281Y-44606090D01*
X48777211Y-44546638D01*
X48800500Y-44459722D01*
X48800500Y-44308189D01*
X48800500Y-43697459D01*
X48761281Y-43551090D01*
X48685515Y-43419860D01*
X48578365Y-43312710D01*
X48088596Y-42822941D01*
X48055111Y-42761618D01*
X48052277Y-42735260D01*
X48052277Y-42678345D01*
X48071962Y-42611306D01*
X48088596Y-42590664D01*
X48363790Y-42315470D01*
X48783773Y-41895487D01*
X48821393Y-41848804D01*
X48881181Y-41717889D01*
X48901662Y-41575431D01*
X48897688Y-41547790D01*
X48907632Y-41478633D01*
X48953387Y-41425829D01*
X49020426Y-41406145D01*
X49087466Y-41425830D01*
G37*
%TD.AperFunction*%
%TD*%
M02*
