%TF.GenerationSoftware,KiCad,Pcbnew,9.0.0*%
%TF.CreationDate,2025-02-21T22:51:25-08:00*%
%TF.ProjectId,Integrated FOC Stepper Driver,496e7465-6772-4617-9465-6420464f4320,rev?*%
%TF.SameCoordinates,Original*%
%TF.FileFunction,Legend,Top*%
%TF.FilePolarity,Positive*%
%FSLAX46Y46*%
G04 Gerber Fmt 4.6, Leading zero omitted, Abs format (unit mm)*
G04 Created by KiCad (PCBNEW 9.0.0) date 2025-02-21 22:51:25*
%MOMM*%
%LPD*%
G01*
G04 APERTURE LIST*
%ADD10C,0.100000*%
%ADD11C,0.200000*%
%ADD12C,0.150000*%
%ADD13C,0.120000*%
G04 APERTURE END LIST*
D10*
X42850000Y-53350000D02*
X43100000Y-53600000D01*
X39650000Y-52950000D02*
X39650000Y-53150000D01*
X55350000Y-54000000D02*
X55774998Y-54300003D01*
X42500000Y-53350000D02*
X42850000Y-53350000D01*
X40250000Y-52350000D02*
X39650000Y-52950000D01*
X40550000Y-52350000D02*
X40250000Y-52350000D01*
X55350000Y-53000000D02*
X55774998Y-53300003D01*
X55350000Y-49000000D02*
X55775000Y-48700000D01*
X43100000Y-53600000D02*
X43100000Y-54150000D01*
X55350000Y-50000000D02*
X55775000Y-49700000D01*
X55350000Y-54975000D02*
X55774998Y-55275003D01*
X55350000Y-51000000D02*
X55775000Y-50700000D01*
X50500000Y-58025000D02*
X50950000Y-57575000D01*
X48675000Y-58025000D02*
X50500000Y-58025000D01*
D11*
X65872647Y-50738095D02*
X65910742Y-50628571D01*
X65910742Y-50628571D02*
X65948838Y-50595237D01*
X65948838Y-50595237D02*
X66025028Y-50566666D01*
X66025028Y-50566666D02*
X66139314Y-50580952D01*
X66139314Y-50580952D02*
X66215504Y-50628571D01*
X66215504Y-50628571D02*
X66253600Y-50671428D01*
X66253600Y-50671428D02*
X66291695Y-50752380D01*
X66291695Y-50752380D02*
X66291695Y-51057142D01*
X66291695Y-51057142D02*
X65491695Y-50957142D01*
X65491695Y-50957142D02*
X65491695Y-50690476D01*
X65491695Y-50690476D02*
X65529790Y-50619047D01*
X65529790Y-50619047D02*
X65567885Y-50585714D01*
X65567885Y-50585714D02*
X65644076Y-50557142D01*
X65644076Y-50557142D02*
X65720266Y-50566666D01*
X65720266Y-50566666D02*
X65796457Y-50614285D01*
X65796457Y-50614285D02*
X65834552Y-50657142D01*
X65834552Y-50657142D02*
X65872647Y-50738095D01*
X65872647Y-50738095D02*
X65872647Y-51004761D01*
X65491695Y-50004761D02*
X65491695Y-49852380D01*
X65491695Y-49852380D02*
X65529790Y-49780952D01*
X65529790Y-49780952D02*
X65605980Y-49714285D01*
X65605980Y-49714285D02*
X65758361Y-49695237D01*
X65758361Y-49695237D02*
X66025028Y-49728571D01*
X66025028Y-49728571D02*
X66177409Y-49785714D01*
X66177409Y-49785714D02*
X66253600Y-49871428D01*
X66253600Y-49871428D02*
X66291695Y-49952380D01*
X66291695Y-49952380D02*
X66291695Y-50104761D01*
X66291695Y-50104761D02*
X66253600Y-50176190D01*
X66253600Y-50176190D02*
X66177409Y-50242857D01*
X66177409Y-50242857D02*
X66025028Y-50261904D01*
X66025028Y-50261904D02*
X65758361Y-50228571D01*
X65758361Y-50228571D02*
X65605980Y-50171428D01*
X65605980Y-50171428D02*
X65529790Y-50085714D01*
X65529790Y-50085714D02*
X65491695Y-50004761D01*
X65491695Y-49166666D02*
X65491695Y-49014285D01*
X65491695Y-49014285D02*
X65529790Y-48942857D01*
X65529790Y-48942857D02*
X65605980Y-48876190D01*
X65605980Y-48876190D02*
X65758361Y-48857142D01*
X65758361Y-48857142D02*
X66025028Y-48890476D01*
X66025028Y-48890476D02*
X66177409Y-48947619D01*
X66177409Y-48947619D02*
X66253600Y-49033333D01*
X66253600Y-49033333D02*
X66291695Y-49114285D01*
X66291695Y-49114285D02*
X66291695Y-49266666D01*
X66291695Y-49266666D02*
X66253600Y-49338095D01*
X66253600Y-49338095D02*
X66177409Y-49404762D01*
X66177409Y-49404762D02*
X66025028Y-49423809D01*
X66025028Y-49423809D02*
X65758361Y-49390476D01*
X65758361Y-49390476D02*
X65605980Y-49333333D01*
X65605980Y-49333333D02*
X65529790Y-49247619D01*
X65529790Y-49247619D02*
X65491695Y-49166666D01*
X65491695Y-48595238D02*
X65491695Y-48138095D01*
X66291695Y-48466667D02*
X65491695Y-48366667D01*
X66291695Y-55666666D02*
X65910742Y-55885714D01*
X66291695Y-56123809D02*
X65491695Y-56023809D01*
X65491695Y-56023809D02*
X65491695Y-55719047D01*
X65491695Y-55719047D02*
X65529790Y-55647619D01*
X65529790Y-55647619D02*
X65567885Y-55614285D01*
X65567885Y-55614285D02*
X65644076Y-55585714D01*
X65644076Y-55585714D02*
X65758361Y-55600000D01*
X65758361Y-55600000D02*
X65834552Y-55647619D01*
X65834552Y-55647619D02*
X65872647Y-55690476D01*
X65872647Y-55690476D02*
X65910742Y-55771428D01*
X65910742Y-55771428D02*
X65910742Y-56076190D01*
X65872647Y-55271428D02*
X65872647Y-55004762D01*
X66291695Y-54942857D02*
X66291695Y-55323809D01*
X66291695Y-55323809D02*
X65491695Y-55223809D01*
X65491695Y-55223809D02*
X65491695Y-54842857D01*
X66253600Y-54633333D02*
X66291695Y-54523809D01*
X66291695Y-54523809D02*
X66291695Y-54333333D01*
X66291695Y-54333333D02*
X66253600Y-54252380D01*
X66253600Y-54252380D02*
X66215504Y-54209523D01*
X66215504Y-54209523D02*
X66139314Y-54161904D01*
X66139314Y-54161904D02*
X66063123Y-54152380D01*
X66063123Y-54152380D02*
X65986933Y-54180952D01*
X65986933Y-54180952D02*
X65948838Y-54214285D01*
X65948838Y-54214285D02*
X65910742Y-54285714D01*
X65910742Y-54285714D02*
X65872647Y-54433333D01*
X65872647Y-54433333D02*
X65834552Y-54504761D01*
X65834552Y-54504761D02*
X65796457Y-54538094D01*
X65796457Y-54538094D02*
X65720266Y-54566666D01*
X65720266Y-54566666D02*
X65644076Y-54557142D01*
X65644076Y-54557142D02*
X65567885Y-54509523D01*
X65567885Y-54509523D02*
X65529790Y-54466666D01*
X65529790Y-54466666D02*
X65491695Y-54385714D01*
X65491695Y-54385714D02*
X65491695Y-54195237D01*
X65491695Y-54195237D02*
X65529790Y-54085714D01*
X65872647Y-53785713D02*
X65872647Y-53519047D01*
X66291695Y-53457142D02*
X66291695Y-53838094D01*
X66291695Y-53838094D02*
X65491695Y-53738094D01*
X65491695Y-53738094D02*
X65491695Y-53357142D01*
X65491695Y-53128570D02*
X65491695Y-52671427D01*
X66291695Y-52999999D02*
X65491695Y-52899999D01*
D12*
X58046303Y-51862295D02*
X57779636Y-51481342D01*
X57589160Y-51862295D02*
X57589160Y-51062295D01*
X57589160Y-51062295D02*
X57893922Y-51062295D01*
X57893922Y-51062295D02*
X57970112Y-51100390D01*
X57970112Y-51100390D02*
X58008207Y-51138485D01*
X58008207Y-51138485D02*
X58046303Y-51214676D01*
X58046303Y-51214676D02*
X58046303Y-51328961D01*
X58046303Y-51328961D02*
X58008207Y-51405152D01*
X58008207Y-51405152D02*
X57970112Y-51443247D01*
X57970112Y-51443247D02*
X57893922Y-51481342D01*
X57893922Y-51481342D02*
X57589160Y-51481342D01*
X58808207Y-51862295D02*
X58351064Y-51862295D01*
X58579636Y-51862295D02*
X58579636Y-51062295D01*
X58579636Y-51062295D02*
X58503445Y-51176580D01*
X58503445Y-51176580D02*
X58427255Y-51252771D01*
X58427255Y-51252771D02*
X58351064Y-51290866D01*
X44962704Y-58135714D02*
X45343657Y-57869047D01*
X44962704Y-57678571D02*
X45762704Y-57678571D01*
X45762704Y-57678571D02*
X45762704Y-57983333D01*
X45762704Y-57983333D02*
X45724609Y-58059523D01*
X45724609Y-58059523D02*
X45686514Y-58097618D01*
X45686514Y-58097618D02*
X45610323Y-58135714D01*
X45610323Y-58135714D02*
X45496038Y-58135714D01*
X45496038Y-58135714D02*
X45419847Y-58097618D01*
X45419847Y-58097618D02*
X45381752Y-58059523D01*
X45381752Y-58059523D02*
X45343657Y-57983333D01*
X45343657Y-57983333D02*
X45343657Y-57678571D01*
X44962704Y-58897618D02*
X44962704Y-58440475D01*
X44962704Y-58669047D02*
X45762704Y-58669047D01*
X45762704Y-58669047D02*
X45648419Y-58592856D01*
X45648419Y-58592856D02*
X45572228Y-58516666D01*
X45572228Y-58516666D02*
X45534133Y-58440475D01*
X45762704Y-59392857D02*
X45762704Y-59469047D01*
X45762704Y-59469047D02*
X45724609Y-59545238D01*
X45724609Y-59545238D02*
X45686514Y-59583333D01*
X45686514Y-59583333D02*
X45610323Y-59621428D01*
X45610323Y-59621428D02*
X45457942Y-59659523D01*
X45457942Y-59659523D02*
X45267466Y-59659523D01*
X45267466Y-59659523D02*
X45115085Y-59621428D01*
X45115085Y-59621428D02*
X45038895Y-59583333D01*
X45038895Y-59583333D02*
X45000800Y-59545238D01*
X45000800Y-59545238D02*
X44962704Y-59469047D01*
X44962704Y-59469047D02*
X44962704Y-59392857D01*
X44962704Y-59392857D02*
X45000800Y-59316666D01*
X45000800Y-59316666D02*
X45038895Y-59278571D01*
X45038895Y-59278571D02*
X45115085Y-59240476D01*
X45115085Y-59240476D02*
X45267466Y-59202380D01*
X45267466Y-59202380D02*
X45457942Y-59202380D01*
X45457942Y-59202380D02*
X45610323Y-59240476D01*
X45610323Y-59240476D02*
X45686514Y-59278571D01*
X45686514Y-59278571D02*
X45724609Y-59316666D01*
X45724609Y-59316666D02*
X45762704Y-59392857D01*
X47135714Y-58487295D02*
X46869047Y-58106342D01*
X46678571Y-58487295D02*
X46678571Y-57687295D01*
X46678571Y-57687295D02*
X46983333Y-57687295D01*
X46983333Y-57687295D02*
X47059523Y-57725390D01*
X47059523Y-57725390D02*
X47097618Y-57763485D01*
X47097618Y-57763485D02*
X47135714Y-57839676D01*
X47135714Y-57839676D02*
X47135714Y-57953961D01*
X47135714Y-57953961D02*
X47097618Y-58030152D01*
X47097618Y-58030152D02*
X47059523Y-58068247D01*
X47059523Y-58068247D02*
X46983333Y-58106342D01*
X46983333Y-58106342D02*
X46678571Y-58106342D01*
X47897618Y-58487295D02*
X47440475Y-58487295D01*
X47669047Y-58487295D02*
X47669047Y-57687295D01*
X47669047Y-57687295D02*
X47592856Y-57801580D01*
X47592856Y-57801580D02*
X47516666Y-57877771D01*
X47516666Y-57877771D02*
X47440475Y-57915866D01*
X48659523Y-58487295D02*
X48202380Y-58487295D01*
X48430952Y-58487295D02*
X48430952Y-57687295D01*
X48430952Y-57687295D02*
X48354761Y-57801580D01*
X48354761Y-57801580D02*
X48278571Y-57877771D01*
X48278571Y-57877771D02*
X48202380Y-57915866D01*
X62533332Y-48537704D02*
X62799999Y-48918657D01*
X62990475Y-48537704D02*
X62990475Y-49337704D01*
X62990475Y-49337704D02*
X62685713Y-49337704D01*
X62685713Y-49337704D02*
X62609523Y-49299609D01*
X62609523Y-49299609D02*
X62571428Y-49261514D01*
X62571428Y-49261514D02*
X62533332Y-49185323D01*
X62533332Y-49185323D02*
X62533332Y-49071038D01*
X62533332Y-49071038D02*
X62571428Y-48994847D01*
X62571428Y-48994847D02*
X62609523Y-48956752D01*
X62609523Y-48956752D02*
X62685713Y-48918657D01*
X62685713Y-48918657D02*
X62990475Y-48918657D01*
X62076190Y-48994847D02*
X62152380Y-49032942D01*
X62152380Y-49032942D02*
X62190475Y-49071038D01*
X62190475Y-49071038D02*
X62228571Y-49147228D01*
X62228571Y-49147228D02*
X62228571Y-49185323D01*
X62228571Y-49185323D02*
X62190475Y-49261514D01*
X62190475Y-49261514D02*
X62152380Y-49299609D01*
X62152380Y-49299609D02*
X62076190Y-49337704D01*
X62076190Y-49337704D02*
X61923809Y-49337704D01*
X61923809Y-49337704D02*
X61847618Y-49299609D01*
X61847618Y-49299609D02*
X61809523Y-49261514D01*
X61809523Y-49261514D02*
X61771428Y-49185323D01*
X61771428Y-49185323D02*
X61771428Y-49147228D01*
X61771428Y-49147228D02*
X61809523Y-49071038D01*
X61809523Y-49071038D02*
X61847618Y-49032942D01*
X61847618Y-49032942D02*
X61923809Y-48994847D01*
X61923809Y-48994847D02*
X62076190Y-48994847D01*
X62076190Y-48994847D02*
X62152380Y-48956752D01*
X62152380Y-48956752D02*
X62190475Y-48918657D01*
X62190475Y-48918657D02*
X62228571Y-48842466D01*
X62228571Y-48842466D02*
X62228571Y-48690085D01*
X62228571Y-48690085D02*
X62190475Y-48613895D01*
X62190475Y-48613895D02*
X62152380Y-48575800D01*
X62152380Y-48575800D02*
X62076190Y-48537704D01*
X62076190Y-48537704D02*
X61923809Y-48537704D01*
X61923809Y-48537704D02*
X61847618Y-48575800D01*
X61847618Y-48575800D02*
X61809523Y-48613895D01*
X61809523Y-48613895D02*
X61771428Y-48690085D01*
X61771428Y-48690085D02*
X61771428Y-48842466D01*
X61771428Y-48842466D02*
X61809523Y-48918657D01*
X61809523Y-48918657D02*
X61847618Y-48956752D01*
X61847618Y-48956752D02*
X61923809Y-48994847D01*
X61413895Y-60366667D02*
X61375800Y-60328571D01*
X61375800Y-60328571D02*
X61337704Y-60214286D01*
X61337704Y-60214286D02*
X61337704Y-60138095D01*
X61337704Y-60138095D02*
X61375800Y-60023809D01*
X61375800Y-60023809D02*
X61451990Y-59947619D01*
X61451990Y-59947619D02*
X61528180Y-59909524D01*
X61528180Y-59909524D02*
X61680561Y-59871428D01*
X61680561Y-59871428D02*
X61794847Y-59871428D01*
X61794847Y-59871428D02*
X61947228Y-59909524D01*
X61947228Y-59909524D02*
X62023419Y-59947619D01*
X62023419Y-59947619D02*
X62099609Y-60023809D01*
X62099609Y-60023809D02*
X62137704Y-60138095D01*
X62137704Y-60138095D02*
X62137704Y-60214286D01*
X62137704Y-60214286D02*
X62099609Y-60328571D01*
X62099609Y-60328571D02*
X62061514Y-60366667D01*
X61337704Y-60747619D02*
X61337704Y-60900000D01*
X61337704Y-60900000D02*
X61375800Y-60976190D01*
X61375800Y-60976190D02*
X61413895Y-61014286D01*
X61413895Y-61014286D02*
X61528180Y-61090476D01*
X61528180Y-61090476D02*
X61680561Y-61128571D01*
X61680561Y-61128571D02*
X61985323Y-61128571D01*
X61985323Y-61128571D02*
X62061514Y-61090476D01*
X62061514Y-61090476D02*
X62099609Y-61052381D01*
X62099609Y-61052381D02*
X62137704Y-60976190D01*
X62137704Y-60976190D02*
X62137704Y-60823809D01*
X62137704Y-60823809D02*
X62099609Y-60747619D01*
X62099609Y-60747619D02*
X62061514Y-60709524D01*
X62061514Y-60709524D02*
X61985323Y-60671428D01*
X61985323Y-60671428D02*
X61794847Y-60671428D01*
X61794847Y-60671428D02*
X61718657Y-60709524D01*
X61718657Y-60709524D02*
X61680561Y-60747619D01*
X61680561Y-60747619D02*
X61642466Y-60823809D01*
X61642466Y-60823809D02*
X61642466Y-60976190D01*
X61642466Y-60976190D02*
X61680561Y-61052381D01*
X61680561Y-61052381D02*
X61718657Y-61090476D01*
X61718657Y-61090476D02*
X61794847Y-61128571D01*
X33159524Y-60012295D02*
X33159524Y-59212295D01*
X33159524Y-59212295D02*
X33350000Y-59212295D01*
X33350000Y-59212295D02*
X33464286Y-59250390D01*
X33464286Y-59250390D02*
X33540476Y-59326580D01*
X33540476Y-59326580D02*
X33578571Y-59402771D01*
X33578571Y-59402771D02*
X33616667Y-59555152D01*
X33616667Y-59555152D02*
X33616667Y-59669438D01*
X33616667Y-59669438D02*
X33578571Y-59821819D01*
X33578571Y-59821819D02*
X33540476Y-59898009D01*
X33540476Y-59898009D02*
X33464286Y-59974200D01*
X33464286Y-59974200D02*
X33350000Y-60012295D01*
X33350000Y-60012295D02*
X33159524Y-60012295D01*
X34378571Y-60012295D02*
X33921428Y-60012295D01*
X34150000Y-60012295D02*
X34150000Y-59212295D01*
X34150000Y-59212295D02*
X34073809Y-59326580D01*
X34073809Y-59326580D02*
X33997619Y-59402771D01*
X33997619Y-59402771D02*
X33921428Y-59440866D01*
X56446303Y-49786104D02*
X56408207Y-49824200D01*
X56408207Y-49824200D02*
X56293922Y-49862295D01*
X56293922Y-49862295D02*
X56217731Y-49862295D01*
X56217731Y-49862295D02*
X56103445Y-49824200D01*
X56103445Y-49824200D02*
X56027255Y-49748009D01*
X56027255Y-49748009D02*
X55989160Y-49671819D01*
X55989160Y-49671819D02*
X55951064Y-49519438D01*
X55951064Y-49519438D02*
X55951064Y-49405152D01*
X55951064Y-49405152D02*
X55989160Y-49252771D01*
X55989160Y-49252771D02*
X56027255Y-49176580D01*
X56027255Y-49176580D02*
X56103445Y-49100390D01*
X56103445Y-49100390D02*
X56217731Y-49062295D01*
X56217731Y-49062295D02*
X56293922Y-49062295D01*
X56293922Y-49062295D02*
X56408207Y-49100390D01*
X56408207Y-49100390D02*
X56446303Y-49138485D01*
X56712969Y-49062295D02*
X57208207Y-49062295D01*
X57208207Y-49062295D02*
X56941541Y-49367057D01*
X56941541Y-49367057D02*
X57055826Y-49367057D01*
X57055826Y-49367057D02*
X57132017Y-49405152D01*
X57132017Y-49405152D02*
X57170112Y-49443247D01*
X57170112Y-49443247D02*
X57208207Y-49519438D01*
X57208207Y-49519438D02*
X57208207Y-49709914D01*
X57208207Y-49709914D02*
X57170112Y-49786104D01*
X57170112Y-49786104D02*
X57132017Y-49824200D01*
X57132017Y-49824200D02*
X57055826Y-49862295D01*
X57055826Y-49862295D02*
X56827255Y-49862295D01*
X56827255Y-49862295D02*
X56751064Y-49824200D01*
X56751064Y-49824200D02*
X56712969Y-49786104D01*
X57893922Y-49328961D02*
X57893922Y-49862295D01*
X57703446Y-49024200D02*
X57512969Y-49595628D01*
X57512969Y-49595628D02*
X58008208Y-49595628D01*
X56446303Y-53786104D02*
X56408207Y-53824200D01*
X56408207Y-53824200D02*
X56293922Y-53862295D01*
X56293922Y-53862295D02*
X56217731Y-53862295D01*
X56217731Y-53862295D02*
X56103445Y-53824200D01*
X56103445Y-53824200D02*
X56027255Y-53748009D01*
X56027255Y-53748009D02*
X55989160Y-53671819D01*
X55989160Y-53671819D02*
X55951064Y-53519438D01*
X55951064Y-53519438D02*
X55951064Y-53405152D01*
X55951064Y-53405152D02*
X55989160Y-53252771D01*
X55989160Y-53252771D02*
X56027255Y-53176580D01*
X56027255Y-53176580D02*
X56103445Y-53100390D01*
X56103445Y-53100390D02*
X56217731Y-53062295D01*
X56217731Y-53062295D02*
X56293922Y-53062295D01*
X56293922Y-53062295D02*
X56408207Y-53100390D01*
X56408207Y-53100390D02*
X56446303Y-53138485D01*
X56712969Y-53062295D02*
X57208207Y-53062295D01*
X57208207Y-53062295D02*
X56941541Y-53367057D01*
X56941541Y-53367057D02*
X57055826Y-53367057D01*
X57055826Y-53367057D02*
X57132017Y-53405152D01*
X57132017Y-53405152D02*
X57170112Y-53443247D01*
X57170112Y-53443247D02*
X57208207Y-53519438D01*
X57208207Y-53519438D02*
X57208207Y-53709914D01*
X57208207Y-53709914D02*
X57170112Y-53786104D01*
X57170112Y-53786104D02*
X57132017Y-53824200D01*
X57132017Y-53824200D02*
X57055826Y-53862295D01*
X57055826Y-53862295D02*
X56827255Y-53862295D01*
X56827255Y-53862295D02*
X56751064Y-53824200D01*
X56751064Y-53824200D02*
X56712969Y-53786104D01*
X57474874Y-53062295D02*
X58008208Y-53062295D01*
X58008208Y-53062295D02*
X57665350Y-53862295D01*
X56446303Y-48786104D02*
X56408207Y-48824200D01*
X56408207Y-48824200D02*
X56293922Y-48862295D01*
X56293922Y-48862295D02*
X56217731Y-48862295D01*
X56217731Y-48862295D02*
X56103445Y-48824200D01*
X56103445Y-48824200D02*
X56027255Y-48748009D01*
X56027255Y-48748009D02*
X55989160Y-48671819D01*
X55989160Y-48671819D02*
X55951064Y-48519438D01*
X55951064Y-48519438D02*
X55951064Y-48405152D01*
X55951064Y-48405152D02*
X55989160Y-48252771D01*
X55989160Y-48252771D02*
X56027255Y-48176580D01*
X56027255Y-48176580D02*
X56103445Y-48100390D01*
X56103445Y-48100390D02*
X56217731Y-48062295D01*
X56217731Y-48062295D02*
X56293922Y-48062295D01*
X56293922Y-48062295D02*
X56408207Y-48100390D01*
X56408207Y-48100390D02*
X56446303Y-48138485D01*
X56751064Y-48138485D02*
X56789160Y-48100390D01*
X56789160Y-48100390D02*
X56865350Y-48062295D01*
X56865350Y-48062295D02*
X57055826Y-48062295D01*
X57055826Y-48062295D02*
X57132017Y-48100390D01*
X57132017Y-48100390D02*
X57170112Y-48138485D01*
X57170112Y-48138485D02*
X57208207Y-48214676D01*
X57208207Y-48214676D02*
X57208207Y-48290866D01*
X57208207Y-48290866D02*
X57170112Y-48405152D01*
X57170112Y-48405152D02*
X56712969Y-48862295D01*
X56712969Y-48862295D02*
X57208207Y-48862295D01*
X57474874Y-48062295D02*
X58008208Y-48062295D01*
X58008208Y-48062295D02*
X57665350Y-48862295D01*
X53267704Y-50390476D02*
X52620085Y-50390476D01*
X52620085Y-50390476D02*
X52543895Y-50428571D01*
X52543895Y-50428571D02*
X52505800Y-50466666D01*
X52505800Y-50466666D02*
X52467704Y-50542857D01*
X52467704Y-50542857D02*
X52467704Y-50695238D01*
X52467704Y-50695238D02*
X52505800Y-50771428D01*
X52505800Y-50771428D02*
X52543895Y-50809523D01*
X52543895Y-50809523D02*
X52620085Y-50847619D01*
X52620085Y-50847619D02*
X53267704Y-50847619D01*
X52467704Y-51647618D02*
X52467704Y-51190475D01*
X52467704Y-51419047D02*
X53267704Y-51419047D01*
X53267704Y-51419047D02*
X53153419Y-51342856D01*
X53153419Y-51342856D02*
X53077228Y-51266666D01*
X53077228Y-51266666D02*
X53039133Y-51190475D01*
X59765476Y-55662295D02*
X59765476Y-56309914D01*
X59765476Y-56309914D02*
X59803571Y-56386104D01*
X59803571Y-56386104D02*
X59841666Y-56424200D01*
X59841666Y-56424200D02*
X59917857Y-56462295D01*
X59917857Y-56462295D02*
X60070238Y-56462295D01*
X60070238Y-56462295D02*
X60146428Y-56424200D01*
X60146428Y-56424200D02*
X60184523Y-56386104D01*
X60184523Y-56386104D02*
X60222619Y-56309914D01*
X60222619Y-56309914D02*
X60222619Y-55662295D01*
X60984523Y-55662295D02*
X60603571Y-55662295D01*
X60603571Y-55662295D02*
X60565475Y-56043247D01*
X60565475Y-56043247D02*
X60603571Y-56005152D01*
X60603571Y-56005152D02*
X60679761Y-55967057D01*
X60679761Y-55967057D02*
X60870237Y-55967057D01*
X60870237Y-55967057D02*
X60946428Y-56005152D01*
X60946428Y-56005152D02*
X60984523Y-56043247D01*
X60984523Y-56043247D02*
X61022618Y-56119438D01*
X61022618Y-56119438D02*
X61022618Y-56309914D01*
X61022618Y-56309914D02*
X60984523Y-56386104D01*
X60984523Y-56386104D02*
X60946428Y-56424200D01*
X60946428Y-56424200D02*
X60870237Y-56462295D01*
X60870237Y-56462295D02*
X60679761Y-56462295D01*
X60679761Y-56462295D02*
X60603571Y-56424200D01*
X60603571Y-56424200D02*
X60565475Y-56386104D01*
X38465125Y-31476104D02*
X38427029Y-31514200D01*
X38427029Y-31514200D02*
X38312744Y-31552295D01*
X38312744Y-31552295D02*
X38236553Y-31552295D01*
X38236553Y-31552295D02*
X38122267Y-31514200D01*
X38122267Y-31514200D02*
X38046077Y-31438009D01*
X38046077Y-31438009D02*
X38007982Y-31361819D01*
X38007982Y-31361819D02*
X37969886Y-31209438D01*
X37969886Y-31209438D02*
X37969886Y-31095152D01*
X37969886Y-31095152D02*
X38007982Y-30942771D01*
X38007982Y-30942771D02*
X38046077Y-30866580D01*
X38046077Y-30866580D02*
X38122267Y-30790390D01*
X38122267Y-30790390D02*
X38236553Y-30752295D01*
X38236553Y-30752295D02*
X38312744Y-30752295D01*
X38312744Y-30752295D02*
X38427029Y-30790390D01*
X38427029Y-30790390D02*
X38465125Y-30828485D01*
X38769886Y-30828485D02*
X38807982Y-30790390D01*
X38807982Y-30790390D02*
X38884172Y-30752295D01*
X38884172Y-30752295D02*
X39074648Y-30752295D01*
X39074648Y-30752295D02*
X39150839Y-30790390D01*
X39150839Y-30790390D02*
X39188934Y-30828485D01*
X39188934Y-30828485D02*
X39227029Y-30904676D01*
X39227029Y-30904676D02*
X39227029Y-30980866D01*
X39227029Y-30980866D02*
X39188934Y-31095152D01*
X39188934Y-31095152D02*
X38731791Y-31552295D01*
X38731791Y-31552295D02*
X39227029Y-31552295D01*
X39912744Y-31018961D02*
X39912744Y-31552295D01*
X39722268Y-30714200D02*
X39531791Y-31285628D01*
X39531791Y-31285628D02*
X40027030Y-31285628D01*
X50886104Y-42953696D02*
X50924200Y-42991792D01*
X50924200Y-42991792D02*
X50962295Y-43106077D01*
X50962295Y-43106077D02*
X50962295Y-43182268D01*
X50962295Y-43182268D02*
X50924200Y-43296554D01*
X50924200Y-43296554D02*
X50848009Y-43372744D01*
X50848009Y-43372744D02*
X50771819Y-43410839D01*
X50771819Y-43410839D02*
X50619438Y-43448935D01*
X50619438Y-43448935D02*
X50505152Y-43448935D01*
X50505152Y-43448935D02*
X50352771Y-43410839D01*
X50352771Y-43410839D02*
X50276580Y-43372744D01*
X50276580Y-43372744D02*
X50200390Y-43296554D01*
X50200390Y-43296554D02*
X50162295Y-43182268D01*
X50162295Y-43182268D02*
X50162295Y-43106077D01*
X50162295Y-43106077D02*
X50200390Y-42991792D01*
X50200390Y-42991792D02*
X50238485Y-42953696D01*
X50162295Y-42687030D02*
X50162295Y-42191792D01*
X50162295Y-42191792D02*
X50467057Y-42458458D01*
X50467057Y-42458458D02*
X50467057Y-42344173D01*
X50467057Y-42344173D02*
X50505152Y-42267982D01*
X50505152Y-42267982D02*
X50543247Y-42229887D01*
X50543247Y-42229887D02*
X50619438Y-42191792D01*
X50619438Y-42191792D02*
X50809914Y-42191792D01*
X50809914Y-42191792D02*
X50886104Y-42229887D01*
X50886104Y-42229887D02*
X50924200Y-42267982D01*
X50924200Y-42267982D02*
X50962295Y-42344173D01*
X50962295Y-42344173D02*
X50962295Y-42572744D01*
X50962295Y-42572744D02*
X50924200Y-42648935D01*
X50924200Y-42648935D02*
X50886104Y-42687030D01*
X50162295Y-41925125D02*
X50162295Y-41429887D01*
X50162295Y-41429887D02*
X50467057Y-41696553D01*
X50467057Y-41696553D02*
X50467057Y-41582268D01*
X50467057Y-41582268D02*
X50505152Y-41506077D01*
X50505152Y-41506077D02*
X50543247Y-41467982D01*
X50543247Y-41467982D02*
X50619438Y-41429887D01*
X50619438Y-41429887D02*
X50809914Y-41429887D01*
X50809914Y-41429887D02*
X50886104Y-41467982D01*
X50886104Y-41467982D02*
X50924200Y-41506077D01*
X50924200Y-41506077D02*
X50962295Y-41582268D01*
X50962295Y-41582268D02*
X50962295Y-41810839D01*
X50962295Y-41810839D02*
X50924200Y-41887030D01*
X50924200Y-41887030D02*
X50886104Y-41925125D01*
X37546303Y-45237295D02*
X37279636Y-44856342D01*
X37089160Y-45237295D02*
X37089160Y-44437295D01*
X37089160Y-44437295D02*
X37393922Y-44437295D01*
X37393922Y-44437295D02*
X37470112Y-44475390D01*
X37470112Y-44475390D02*
X37508207Y-44513485D01*
X37508207Y-44513485D02*
X37546303Y-44589676D01*
X37546303Y-44589676D02*
X37546303Y-44703961D01*
X37546303Y-44703961D02*
X37508207Y-44780152D01*
X37508207Y-44780152D02*
X37470112Y-44818247D01*
X37470112Y-44818247D02*
X37393922Y-44856342D01*
X37393922Y-44856342D02*
X37089160Y-44856342D01*
X38270112Y-44437295D02*
X37889160Y-44437295D01*
X37889160Y-44437295D02*
X37851064Y-44818247D01*
X37851064Y-44818247D02*
X37889160Y-44780152D01*
X37889160Y-44780152D02*
X37965350Y-44742057D01*
X37965350Y-44742057D02*
X38155826Y-44742057D01*
X38155826Y-44742057D02*
X38232017Y-44780152D01*
X38232017Y-44780152D02*
X38270112Y-44818247D01*
X38270112Y-44818247D02*
X38308207Y-44894438D01*
X38308207Y-44894438D02*
X38308207Y-45084914D01*
X38308207Y-45084914D02*
X38270112Y-45161104D01*
X38270112Y-45161104D02*
X38232017Y-45199200D01*
X38232017Y-45199200D02*
X38155826Y-45237295D01*
X38155826Y-45237295D02*
X37965350Y-45237295D01*
X37965350Y-45237295D02*
X37889160Y-45199200D01*
X37889160Y-45199200D02*
X37851064Y-45161104D01*
X33062295Y-51016666D02*
X33633723Y-51016666D01*
X33633723Y-51016666D02*
X33748009Y-51054761D01*
X33748009Y-51054761D02*
X33824200Y-51130952D01*
X33824200Y-51130952D02*
X33862295Y-51245237D01*
X33862295Y-51245237D02*
X33862295Y-51321428D01*
X33862295Y-50216666D02*
X33862295Y-50673809D01*
X33862295Y-50445237D02*
X33062295Y-50445237D01*
X33062295Y-50445237D02*
X33176580Y-50521428D01*
X33176580Y-50521428D02*
X33252771Y-50597618D01*
X33252771Y-50597618D02*
X33290866Y-50673809D01*
X60591667Y-42186104D02*
X60553571Y-42224200D01*
X60553571Y-42224200D02*
X60439286Y-42262295D01*
X60439286Y-42262295D02*
X60363095Y-42262295D01*
X60363095Y-42262295D02*
X60248809Y-42224200D01*
X60248809Y-42224200D02*
X60172619Y-42148009D01*
X60172619Y-42148009D02*
X60134524Y-42071819D01*
X60134524Y-42071819D02*
X60096428Y-41919438D01*
X60096428Y-41919438D02*
X60096428Y-41805152D01*
X60096428Y-41805152D02*
X60134524Y-41652771D01*
X60134524Y-41652771D02*
X60172619Y-41576580D01*
X60172619Y-41576580D02*
X60248809Y-41500390D01*
X60248809Y-41500390D02*
X60363095Y-41462295D01*
X60363095Y-41462295D02*
X60439286Y-41462295D01*
X60439286Y-41462295D02*
X60553571Y-41500390D01*
X60553571Y-41500390D02*
X60591667Y-41538485D01*
X60858333Y-41462295D02*
X61353571Y-41462295D01*
X61353571Y-41462295D02*
X61086905Y-41767057D01*
X61086905Y-41767057D02*
X61201190Y-41767057D01*
X61201190Y-41767057D02*
X61277381Y-41805152D01*
X61277381Y-41805152D02*
X61315476Y-41843247D01*
X61315476Y-41843247D02*
X61353571Y-41919438D01*
X61353571Y-41919438D02*
X61353571Y-42109914D01*
X61353571Y-42109914D02*
X61315476Y-42186104D01*
X61315476Y-42186104D02*
X61277381Y-42224200D01*
X61277381Y-42224200D02*
X61201190Y-42262295D01*
X61201190Y-42262295D02*
X60972619Y-42262295D01*
X60972619Y-42262295D02*
X60896428Y-42224200D01*
X60896428Y-42224200D02*
X60858333Y-42186104D01*
X58890476Y-32562295D02*
X58890476Y-33209914D01*
X58890476Y-33209914D02*
X58928571Y-33286104D01*
X58928571Y-33286104D02*
X58966666Y-33324200D01*
X58966666Y-33324200D02*
X59042857Y-33362295D01*
X59042857Y-33362295D02*
X59195238Y-33362295D01*
X59195238Y-33362295D02*
X59271428Y-33324200D01*
X59271428Y-33324200D02*
X59309523Y-33286104D01*
X59309523Y-33286104D02*
X59347619Y-33209914D01*
X59347619Y-33209914D02*
X59347619Y-32562295D01*
X60071428Y-32562295D02*
X59919047Y-32562295D01*
X59919047Y-32562295D02*
X59842856Y-32600390D01*
X59842856Y-32600390D02*
X59804761Y-32638485D01*
X59804761Y-32638485D02*
X59728571Y-32752771D01*
X59728571Y-32752771D02*
X59690475Y-32905152D01*
X59690475Y-32905152D02*
X59690475Y-33209914D01*
X59690475Y-33209914D02*
X59728571Y-33286104D01*
X59728571Y-33286104D02*
X59766666Y-33324200D01*
X59766666Y-33324200D02*
X59842856Y-33362295D01*
X59842856Y-33362295D02*
X59995237Y-33362295D01*
X59995237Y-33362295D02*
X60071428Y-33324200D01*
X60071428Y-33324200D02*
X60109523Y-33286104D01*
X60109523Y-33286104D02*
X60147618Y-33209914D01*
X60147618Y-33209914D02*
X60147618Y-33019438D01*
X60147618Y-33019438D02*
X60109523Y-32943247D01*
X60109523Y-32943247D02*
X60071428Y-32905152D01*
X60071428Y-32905152D02*
X59995237Y-32867057D01*
X59995237Y-32867057D02*
X59842856Y-32867057D01*
X59842856Y-32867057D02*
X59766666Y-32905152D01*
X59766666Y-32905152D02*
X59728571Y-32943247D01*
X59728571Y-32943247D02*
X59690475Y-33019438D01*
X56446303Y-50786104D02*
X56408207Y-50824200D01*
X56408207Y-50824200D02*
X56293922Y-50862295D01*
X56293922Y-50862295D02*
X56217731Y-50862295D01*
X56217731Y-50862295D02*
X56103445Y-50824200D01*
X56103445Y-50824200D02*
X56027255Y-50748009D01*
X56027255Y-50748009D02*
X55989160Y-50671819D01*
X55989160Y-50671819D02*
X55951064Y-50519438D01*
X55951064Y-50519438D02*
X55951064Y-50405152D01*
X55951064Y-50405152D02*
X55989160Y-50252771D01*
X55989160Y-50252771D02*
X56027255Y-50176580D01*
X56027255Y-50176580D02*
X56103445Y-50100390D01*
X56103445Y-50100390D02*
X56217731Y-50062295D01*
X56217731Y-50062295D02*
X56293922Y-50062295D01*
X56293922Y-50062295D02*
X56408207Y-50100390D01*
X56408207Y-50100390D02*
X56446303Y-50138485D01*
X56712969Y-50062295D02*
X57208207Y-50062295D01*
X57208207Y-50062295D02*
X56941541Y-50367057D01*
X56941541Y-50367057D02*
X57055826Y-50367057D01*
X57055826Y-50367057D02*
X57132017Y-50405152D01*
X57132017Y-50405152D02*
X57170112Y-50443247D01*
X57170112Y-50443247D02*
X57208207Y-50519438D01*
X57208207Y-50519438D02*
X57208207Y-50709914D01*
X57208207Y-50709914D02*
X57170112Y-50786104D01*
X57170112Y-50786104D02*
X57132017Y-50824200D01*
X57132017Y-50824200D02*
X57055826Y-50862295D01*
X57055826Y-50862295D02*
X56827255Y-50862295D01*
X56827255Y-50862295D02*
X56751064Y-50824200D01*
X56751064Y-50824200D02*
X56712969Y-50786104D01*
X57932017Y-50062295D02*
X57551065Y-50062295D01*
X57551065Y-50062295D02*
X57512969Y-50443247D01*
X57512969Y-50443247D02*
X57551065Y-50405152D01*
X57551065Y-50405152D02*
X57627255Y-50367057D01*
X57627255Y-50367057D02*
X57817731Y-50367057D01*
X57817731Y-50367057D02*
X57893922Y-50405152D01*
X57893922Y-50405152D02*
X57932017Y-50443247D01*
X57932017Y-50443247D02*
X57970112Y-50519438D01*
X57970112Y-50519438D02*
X57970112Y-50709914D01*
X57970112Y-50709914D02*
X57932017Y-50786104D01*
X57932017Y-50786104D02*
X57893922Y-50824200D01*
X57893922Y-50824200D02*
X57817731Y-50862295D01*
X57817731Y-50862295D02*
X57627255Y-50862295D01*
X57627255Y-50862295D02*
X57551065Y-50824200D01*
X57551065Y-50824200D02*
X57512969Y-50786104D01*
X40611667Y-51386104D02*
X40573571Y-51424200D01*
X40573571Y-51424200D02*
X40459286Y-51462295D01*
X40459286Y-51462295D02*
X40383095Y-51462295D01*
X40383095Y-51462295D02*
X40268809Y-51424200D01*
X40268809Y-51424200D02*
X40192619Y-51348009D01*
X40192619Y-51348009D02*
X40154524Y-51271819D01*
X40154524Y-51271819D02*
X40116428Y-51119438D01*
X40116428Y-51119438D02*
X40116428Y-51005152D01*
X40116428Y-51005152D02*
X40154524Y-50852771D01*
X40154524Y-50852771D02*
X40192619Y-50776580D01*
X40192619Y-50776580D02*
X40268809Y-50700390D01*
X40268809Y-50700390D02*
X40383095Y-50662295D01*
X40383095Y-50662295D02*
X40459286Y-50662295D01*
X40459286Y-50662295D02*
X40573571Y-50700390D01*
X40573571Y-50700390D02*
X40611667Y-50738485D01*
X40916428Y-50738485D02*
X40954524Y-50700390D01*
X40954524Y-50700390D02*
X41030714Y-50662295D01*
X41030714Y-50662295D02*
X41221190Y-50662295D01*
X41221190Y-50662295D02*
X41297381Y-50700390D01*
X41297381Y-50700390D02*
X41335476Y-50738485D01*
X41335476Y-50738485D02*
X41373571Y-50814676D01*
X41373571Y-50814676D02*
X41373571Y-50890866D01*
X41373571Y-50890866D02*
X41335476Y-51005152D01*
X41335476Y-51005152D02*
X40878333Y-51462295D01*
X40878333Y-51462295D02*
X41373571Y-51462295D01*
X52873895Y-56135714D02*
X52835800Y-56097618D01*
X52835800Y-56097618D02*
X52797704Y-55983333D01*
X52797704Y-55983333D02*
X52797704Y-55907142D01*
X52797704Y-55907142D02*
X52835800Y-55792856D01*
X52835800Y-55792856D02*
X52911990Y-55716666D01*
X52911990Y-55716666D02*
X52988180Y-55678571D01*
X52988180Y-55678571D02*
X53140561Y-55640475D01*
X53140561Y-55640475D02*
X53254847Y-55640475D01*
X53254847Y-55640475D02*
X53407228Y-55678571D01*
X53407228Y-55678571D02*
X53483419Y-55716666D01*
X53483419Y-55716666D02*
X53559609Y-55792856D01*
X53559609Y-55792856D02*
X53597704Y-55907142D01*
X53597704Y-55907142D02*
X53597704Y-55983333D01*
X53597704Y-55983333D02*
X53559609Y-56097618D01*
X53559609Y-56097618D02*
X53521514Y-56135714D01*
X53521514Y-56440475D02*
X53559609Y-56478571D01*
X53559609Y-56478571D02*
X53597704Y-56554761D01*
X53597704Y-56554761D02*
X53597704Y-56745237D01*
X53597704Y-56745237D02*
X53559609Y-56821428D01*
X53559609Y-56821428D02*
X53521514Y-56859523D01*
X53521514Y-56859523D02*
X53445323Y-56897618D01*
X53445323Y-56897618D02*
X53369133Y-56897618D01*
X53369133Y-56897618D02*
X53254847Y-56859523D01*
X53254847Y-56859523D02*
X52797704Y-56402380D01*
X52797704Y-56402380D02*
X52797704Y-56897618D01*
X52797704Y-57278571D02*
X52797704Y-57430952D01*
X52797704Y-57430952D02*
X52835800Y-57507142D01*
X52835800Y-57507142D02*
X52873895Y-57545238D01*
X52873895Y-57545238D02*
X52988180Y-57621428D01*
X52988180Y-57621428D02*
X53140561Y-57659523D01*
X53140561Y-57659523D02*
X53445323Y-57659523D01*
X53445323Y-57659523D02*
X53521514Y-57621428D01*
X53521514Y-57621428D02*
X53559609Y-57583333D01*
X53559609Y-57583333D02*
X53597704Y-57507142D01*
X53597704Y-57507142D02*
X53597704Y-57354761D01*
X53597704Y-57354761D02*
X53559609Y-57278571D01*
X53559609Y-57278571D02*
X53521514Y-57240476D01*
X53521514Y-57240476D02*
X53445323Y-57202380D01*
X53445323Y-57202380D02*
X53254847Y-57202380D01*
X53254847Y-57202380D02*
X53178657Y-57240476D01*
X53178657Y-57240476D02*
X53140561Y-57278571D01*
X53140561Y-57278571D02*
X53102466Y-57354761D01*
X53102466Y-57354761D02*
X53102466Y-57507142D01*
X53102466Y-57507142D02*
X53140561Y-57583333D01*
X53140561Y-57583333D02*
X53178657Y-57621428D01*
X53178657Y-57621428D02*
X53254847Y-57659523D01*
X40666667Y-45136104D02*
X40628571Y-45174200D01*
X40628571Y-45174200D02*
X40514286Y-45212295D01*
X40514286Y-45212295D02*
X40438095Y-45212295D01*
X40438095Y-45212295D02*
X40323809Y-45174200D01*
X40323809Y-45174200D02*
X40247619Y-45098009D01*
X40247619Y-45098009D02*
X40209524Y-45021819D01*
X40209524Y-45021819D02*
X40171428Y-44869438D01*
X40171428Y-44869438D02*
X40171428Y-44755152D01*
X40171428Y-44755152D02*
X40209524Y-44602771D01*
X40209524Y-44602771D02*
X40247619Y-44526580D01*
X40247619Y-44526580D02*
X40323809Y-44450390D01*
X40323809Y-44450390D02*
X40438095Y-44412295D01*
X40438095Y-44412295D02*
X40514286Y-44412295D01*
X40514286Y-44412295D02*
X40628571Y-44450390D01*
X40628571Y-44450390D02*
X40666667Y-44488485D01*
X41428571Y-45212295D02*
X40971428Y-45212295D01*
X41200000Y-45212295D02*
X41200000Y-44412295D01*
X41200000Y-44412295D02*
X41123809Y-44526580D01*
X41123809Y-44526580D02*
X41047619Y-44602771D01*
X41047619Y-44602771D02*
X40971428Y-44640866D01*
X60926303Y-31666104D02*
X60888207Y-31704200D01*
X60888207Y-31704200D02*
X60773922Y-31742295D01*
X60773922Y-31742295D02*
X60697731Y-31742295D01*
X60697731Y-31742295D02*
X60583445Y-31704200D01*
X60583445Y-31704200D02*
X60507255Y-31628009D01*
X60507255Y-31628009D02*
X60469160Y-31551819D01*
X60469160Y-31551819D02*
X60431064Y-31399438D01*
X60431064Y-31399438D02*
X60431064Y-31285152D01*
X60431064Y-31285152D02*
X60469160Y-31132771D01*
X60469160Y-31132771D02*
X60507255Y-31056580D01*
X60507255Y-31056580D02*
X60583445Y-30980390D01*
X60583445Y-30980390D02*
X60697731Y-30942295D01*
X60697731Y-30942295D02*
X60773922Y-30942295D01*
X60773922Y-30942295D02*
X60888207Y-30980390D01*
X60888207Y-30980390D02*
X60926303Y-31018485D01*
X61231064Y-31018485D02*
X61269160Y-30980390D01*
X61269160Y-30980390D02*
X61345350Y-30942295D01*
X61345350Y-30942295D02*
X61535826Y-30942295D01*
X61535826Y-30942295D02*
X61612017Y-30980390D01*
X61612017Y-30980390D02*
X61650112Y-31018485D01*
X61650112Y-31018485D02*
X61688207Y-31094676D01*
X61688207Y-31094676D02*
X61688207Y-31170866D01*
X61688207Y-31170866D02*
X61650112Y-31285152D01*
X61650112Y-31285152D02*
X61192969Y-31742295D01*
X61192969Y-31742295D02*
X61688207Y-31742295D01*
X61954874Y-30942295D02*
X62450112Y-30942295D01*
X62450112Y-30942295D02*
X62183446Y-31247057D01*
X62183446Y-31247057D02*
X62297731Y-31247057D01*
X62297731Y-31247057D02*
X62373922Y-31285152D01*
X62373922Y-31285152D02*
X62412017Y-31323247D01*
X62412017Y-31323247D02*
X62450112Y-31399438D01*
X62450112Y-31399438D02*
X62450112Y-31589914D01*
X62450112Y-31589914D02*
X62412017Y-31666104D01*
X62412017Y-31666104D02*
X62373922Y-31704200D01*
X62373922Y-31704200D02*
X62297731Y-31742295D01*
X62297731Y-31742295D02*
X62069160Y-31742295D01*
X62069160Y-31742295D02*
X61992969Y-31704200D01*
X61992969Y-31704200D02*
X61954874Y-31666104D01*
X55733333Y-66062295D02*
X55733333Y-66633723D01*
X55733333Y-66633723D02*
X55695238Y-66748009D01*
X55695238Y-66748009D02*
X55619047Y-66824200D01*
X55619047Y-66824200D02*
X55504762Y-66862295D01*
X55504762Y-66862295D02*
X55428571Y-66862295D01*
X56457143Y-66328961D02*
X56457143Y-66862295D01*
X56266667Y-66024200D02*
X56076190Y-66595628D01*
X56076190Y-66595628D02*
X56571429Y-66595628D01*
D11*
X61819673Y-68809695D02*
X61972054Y-68809695D01*
X61972054Y-68809695D02*
X62043482Y-68847790D01*
X62043482Y-68847790D02*
X62110149Y-68923980D01*
X62110149Y-68923980D02*
X62129197Y-69076361D01*
X62129197Y-69076361D02*
X62095863Y-69343028D01*
X62095863Y-69343028D02*
X62038720Y-69495409D01*
X62038720Y-69495409D02*
X61953006Y-69571600D01*
X61953006Y-69571600D02*
X61872054Y-69609695D01*
X61872054Y-69609695D02*
X61719673Y-69609695D01*
X61719673Y-69609695D02*
X61648244Y-69571600D01*
X61648244Y-69571600D02*
X61581578Y-69495409D01*
X61581578Y-69495409D02*
X61562530Y-69343028D01*
X61562530Y-69343028D02*
X61595863Y-69076361D01*
X61595863Y-69076361D02*
X61653006Y-68923980D01*
X61653006Y-68923980D02*
X61738720Y-68847790D01*
X61738720Y-68847790D02*
X61819673Y-68809695D01*
X62505387Y-68809695D02*
X62424434Y-69457314D01*
X62424434Y-69457314D02*
X62453006Y-69533504D01*
X62453006Y-69533504D02*
X62486339Y-69571600D01*
X62486339Y-69571600D02*
X62557768Y-69609695D01*
X62557768Y-69609695D02*
X62710149Y-69609695D01*
X62710149Y-69609695D02*
X62791101Y-69571600D01*
X62791101Y-69571600D02*
X62833958Y-69533504D01*
X62833958Y-69533504D02*
X62881577Y-69457314D01*
X62881577Y-69457314D02*
X62962530Y-68809695D01*
X63229196Y-68809695D02*
X63686339Y-68809695D01*
X63357768Y-69609695D02*
X63457768Y-68809695D01*
X63853006Y-69609695D02*
X63953006Y-68809695D01*
X63953006Y-68809695D02*
X64257768Y-68809695D01*
X64257768Y-68809695D02*
X64329196Y-68847790D01*
X64329196Y-68847790D02*
X64362530Y-68885885D01*
X64362530Y-68885885D02*
X64391101Y-68962076D01*
X64391101Y-68962076D02*
X64376815Y-69076361D01*
X64376815Y-69076361D02*
X64329196Y-69152552D01*
X64329196Y-69152552D02*
X64286339Y-69190647D01*
X64286339Y-69190647D02*
X64205387Y-69228742D01*
X64205387Y-69228742D02*
X63900625Y-69228742D01*
X64753006Y-68809695D02*
X64672053Y-69457314D01*
X64672053Y-69457314D02*
X64700625Y-69533504D01*
X64700625Y-69533504D02*
X64733958Y-69571600D01*
X64733958Y-69571600D02*
X64805387Y-69609695D01*
X64805387Y-69609695D02*
X64957768Y-69609695D01*
X64957768Y-69609695D02*
X65038720Y-69571600D01*
X65038720Y-69571600D02*
X65081577Y-69533504D01*
X65081577Y-69533504D02*
X65129196Y-69457314D01*
X65129196Y-69457314D02*
X65210149Y-68809695D01*
X65476815Y-68809695D02*
X65933958Y-68809695D01*
X65605387Y-69609695D02*
X65705387Y-68809695D01*
D12*
X39581342Y-46430951D02*
X39962295Y-46430951D01*
X39162295Y-46697618D02*
X39581342Y-46430951D01*
X39581342Y-46430951D02*
X39162295Y-46164285D01*
X39962295Y-45478571D02*
X39962295Y-45935714D01*
X39962295Y-45707142D02*
X39162295Y-45707142D01*
X39162295Y-45707142D02*
X39276580Y-45783333D01*
X39276580Y-45783333D02*
X39352771Y-45859523D01*
X39352771Y-45859523D02*
X39390866Y-45935714D01*
X39890476Y-32562295D02*
X39890476Y-33209914D01*
X39890476Y-33209914D02*
X39928571Y-33286104D01*
X39928571Y-33286104D02*
X39966666Y-33324200D01*
X39966666Y-33324200D02*
X40042857Y-33362295D01*
X40042857Y-33362295D02*
X40195238Y-33362295D01*
X40195238Y-33362295D02*
X40271428Y-33324200D01*
X40271428Y-33324200D02*
X40309523Y-33286104D01*
X40309523Y-33286104D02*
X40347619Y-33209914D01*
X40347619Y-33209914D02*
X40347619Y-32562295D01*
X40652380Y-32562295D02*
X41185714Y-32562295D01*
X41185714Y-32562295D02*
X40842856Y-33362295D01*
X56446303Y-54786104D02*
X56408207Y-54824200D01*
X56408207Y-54824200D02*
X56293922Y-54862295D01*
X56293922Y-54862295D02*
X56217731Y-54862295D01*
X56217731Y-54862295D02*
X56103445Y-54824200D01*
X56103445Y-54824200D02*
X56027255Y-54748009D01*
X56027255Y-54748009D02*
X55989160Y-54671819D01*
X55989160Y-54671819D02*
X55951064Y-54519438D01*
X55951064Y-54519438D02*
X55951064Y-54405152D01*
X55951064Y-54405152D02*
X55989160Y-54252771D01*
X55989160Y-54252771D02*
X56027255Y-54176580D01*
X56027255Y-54176580D02*
X56103445Y-54100390D01*
X56103445Y-54100390D02*
X56217731Y-54062295D01*
X56217731Y-54062295D02*
X56293922Y-54062295D01*
X56293922Y-54062295D02*
X56408207Y-54100390D01*
X56408207Y-54100390D02*
X56446303Y-54138485D01*
X56712969Y-54062295D02*
X57208207Y-54062295D01*
X57208207Y-54062295D02*
X56941541Y-54367057D01*
X56941541Y-54367057D02*
X57055826Y-54367057D01*
X57055826Y-54367057D02*
X57132017Y-54405152D01*
X57132017Y-54405152D02*
X57170112Y-54443247D01*
X57170112Y-54443247D02*
X57208207Y-54519438D01*
X57208207Y-54519438D02*
X57208207Y-54709914D01*
X57208207Y-54709914D02*
X57170112Y-54786104D01*
X57170112Y-54786104D02*
X57132017Y-54824200D01*
X57132017Y-54824200D02*
X57055826Y-54862295D01*
X57055826Y-54862295D02*
X56827255Y-54862295D01*
X56827255Y-54862295D02*
X56751064Y-54824200D01*
X56751064Y-54824200D02*
X56712969Y-54786104D01*
X57893922Y-54062295D02*
X57741541Y-54062295D01*
X57741541Y-54062295D02*
X57665350Y-54100390D01*
X57665350Y-54100390D02*
X57627255Y-54138485D01*
X57627255Y-54138485D02*
X57551065Y-54252771D01*
X57551065Y-54252771D02*
X57512969Y-54405152D01*
X57512969Y-54405152D02*
X57512969Y-54709914D01*
X57512969Y-54709914D02*
X57551065Y-54786104D01*
X57551065Y-54786104D02*
X57589160Y-54824200D01*
X57589160Y-54824200D02*
X57665350Y-54862295D01*
X57665350Y-54862295D02*
X57817731Y-54862295D01*
X57817731Y-54862295D02*
X57893922Y-54824200D01*
X57893922Y-54824200D02*
X57932017Y-54786104D01*
X57932017Y-54786104D02*
X57970112Y-54709914D01*
X57970112Y-54709914D02*
X57970112Y-54519438D01*
X57970112Y-54519438D02*
X57932017Y-54443247D01*
X57932017Y-54443247D02*
X57893922Y-54405152D01*
X57893922Y-54405152D02*
X57817731Y-54367057D01*
X57817731Y-54367057D02*
X57665350Y-54367057D01*
X57665350Y-54367057D02*
X57589160Y-54405152D01*
X57589160Y-54405152D02*
X57551065Y-54443247D01*
X57551065Y-54443247D02*
X57512969Y-54519438D01*
X44935714Y-56786104D02*
X44897618Y-56824200D01*
X44897618Y-56824200D02*
X44783333Y-56862295D01*
X44783333Y-56862295D02*
X44707142Y-56862295D01*
X44707142Y-56862295D02*
X44592856Y-56824200D01*
X44592856Y-56824200D02*
X44516666Y-56748009D01*
X44516666Y-56748009D02*
X44478571Y-56671819D01*
X44478571Y-56671819D02*
X44440475Y-56519438D01*
X44440475Y-56519438D02*
X44440475Y-56405152D01*
X44440475Y-56405152D02*
X44478571Y-56252771D01*
X44478571Y-56252771D02*
X44516666Y-56176580D01*
X44516666Y-56176580D02*
X44592856Y-56100390D01*
X44592856Y-56100390D02*
X44707142Y-56062295D01*
X44707142Y-56062295D02*
X44783333Y-56062295D01*
X44783333Y-56062295D02*
X44897618Y-56100390D01*
X44897618Y-56100390D02*
X44935714Y-56138485D01*
X45202380Y-56062295D02*
X45697618Y-56062295D01*
X45697618Y-56062295D02*
X45430952Y-56367057D01*
X45430952Y-56367057D02*
X45545237Y-56367057D01*
X45545237Y-56367057D02*
X45621428Y-56405152D01*
X45621428Y-56405152D02*
X45659523Y-56443247D01*
X45659523Y-56443247D02*
X45697618Y-56519438D01*
X45697618Y-56519438D02*
X45697618Y-56709914D01*
X45697618Y-56709914D02*
X45659523Y-56786104D01*
X45659523Y-56786104D02*
X45621428Y-56824200D01*
X45621428Y-56824200D02*
X45545237Y-56862295D01*
X45545237Y-56862295D02*
X45316666Y-56862295D01*
X45316666Y-56862295D02*
X45240475Y-56824200D01*
X45240475Y-56824200D02*
X45202380Y-56786104D01*
X46192857Y-56062295D02*
X46269047Y-56062295D01*
X46269047Y-56062295D02*
X46345238Y-56100390D01*
X46345238Y-56100390D02*
X46383333Y-56138485D01*
X46383333Y-56138485D02*
X46421428Y-56214676D01*
X46421428Y-56214676D02*
X46459523Y-56367057D01*
X46459523Y-56367057D02*
X46459523Y-56557533D01*
X46459523Y-56557533D02*
X46421428Y-56709914D01*
X46421428Y-56709914D02*
X46383333Y-56786104D01*
X46383333Y-56786104D02*
X46345238Y-56824200D01*
X46345238Y-56824200D02*
X46269047Y-56862295D01*
X46269047Y-56862295D02*
X46192857Y-56862295D01*
X46192857Y-56862295D02*
X46116666Y-56824200D01*
X46116666Y-56824200D02*
X46078571Y-56786104D01*
X46078571Y-56786104D02*
X46040476Y-56709914D01*
X46040476Y-56709914D02*
X46002380Y-56557533D01*
X46002380Y-56557533D02*
X46002380Y-56367057D01*
X46002380Y-56367057D02*
X46040476Y-56214676D01*
X46040476Y-56214676D02*
X46078571Y-56138485D01*
X46078571Y-56138485D02*
X46116666Y-56100390D01*
X46116666Y-56100390D02*
X46192857Y-56062295D01*
X39936104Y-54724874D02*
X39974200Y-54762970D01*
X39974200Y-54762970D02*
X40012295Y-54877255D01*
X40012295Y-54877255D02*
X40012295Y-54953446D01*
X40012295Y-54953446D02*
X39974200Y-55067732D01*
X39974200Y-55067732D02*
X39898009Y-55143922D01*
X39898009Y-55143922D02*
X39821819Y-55182017D01*
X39821819Y-55182017D02*
X39669438Y-55220113D01*
X39669438Y-55220113D02*
X39555152Y-55220113D01*
X39555152Y-55220113D02*
X39402771Y-55182017D01*
X39402771Y-55182017D02*
X39326580Y-55143922D01*
X39326580Y-55143922D02*
X39250390Y-55067732D01*
X39250390Y-55067732D02*
X39212295Y-54953446D01*
X39212295Y-54953446D02*
X39212295Y-54877255D01*
X39212295Y-54877255D02*
X39250390Y-54762970D01*
X39250390Y-54762970D02*
X39288485Y-54724874D01*
X39212295Y-54458208D02*
X39212295Y-53962970D01*
X39212295Y-53962970D02*
X39517057Y-54229636D01*
X39517057Y-54229636D02*
X39517057Y-54115351D01*
X39517057Y-54115351D02*
X39555152Y-54039160D01*
X39555152Y-54039160D02*
X39593247Y-54001065D01*
X39593247Y-54001065D02*
X39669438Y-53962970D01*
X39669438Y-53962970D02*
X39859914Y-53962970D01*
X39859914Y-53962970D02*
X39936104Y-54001065D01*
X39936104Y-54001065D02*
X39974200Y-54039160D01*
X39974200Y-54039160D02*
X40012295Y-54115351D01*
X40012295Y-54115351D02*
X40012295Y-54343922D01*
X40012295Y-54343922D02*
X39974200Y-54420113D01*
X39974200Y-54420113D02*
X39936104Y-54458208D01*
X40012295Y-53201065D02*
X40012295Y-53658208D01*
X40012295Y-53429636D02*
X39212295Y-53429636D01*
X39212295Y-53429636D02*
X39326580Y-53505827D01*
X39326580Y-53505827D02*
X39402771Y-53582017D01*
X39402771Y-53582017D02*
X39440866Y-53658208D01*
X48587704Y-56010714D02*
X48968657Y-55744047D01*
X48587704Y-55553571D02*
X49387704Y-55553571D01*
X49387704Y-55553571D02*
X49387704Y-55858333D01*
X49387704Y-55858333D02*
X49349609Y-55934523D01*
X49349609Y-55934523D02*
X49311514Y-55972618D01*
X49311514Y-55972618D02*
X49235323Y-56010714D01*
X49235323Y-56010714D02*
X49121038Y-56010714D01*
X49121038Y-56010714D02*
X49044847Y-55972618D01*
X49044847Y-55972618D02*
X49006752Y-55934523D01*
X49006752Y-55934523D02*
X48968657Y-55858333D01*
X48968657Y-55858333D02*
X48968657Y-55553571D01*
X48587704Y-56772618D02*
X48587704Y-56315475D01*
X48587704Y-56544047D02*
X49387704Y-56544047D01*
X49387704Y-56544047D02*
X49273419Y-56467856D01*
X49273419Y-56467856D02*
X49197228Y-56391666D01*
X49197228Y-56391666D02*
X49159133Y-56315475D01*
X49311514Y-57077380D02*
X49349609Y-57115476D01*
X49349609Y-57115476D02*
X49387704Y-57191666D01*
X49387704Y-57191666D02*
X49387704Y-57382142D01*
X49387704Y-57382142D02*
X49349609Y-57458333D01*
X49349609Y-57458333D02*
X49311514Y-57496428D01*
X49311514Y-57496428D02*
X49235323Y-57534523D01*
X49235323Y-57534523D02*
X49159133Y-57534523D01*
X49159133Y-57534523D02*
X49044847Y-57496428D01*
X49044847Y-57496428D02*
X48587704Y-57039285D01*
X48587704Y-57039285D02*
X48587704Y-57534523D01*
X48962295Y-42953696D02*
X48581342Y-43220363D01*
X48962295Y-43410839D02*
X48162295Y-43410839D01*
X48162295Y-43410839D02*
X48162295Y-43106077D01*
X48162295Y-43106077D02*
X48200390Y-43029887D01*
X48200390Y-43029887D02*
X48238485Y-42991792D01*
X48238485Y-42991792D02*
X48314676Y-42953696D01*
X48314676Y-42953696D02*
X48428961Y-42953696D01*
X48428961Y-42953696D02*
X48505152Y-42991792D01*
X48505152Y-42991792D02*
X48543247Y-43029887D01*
X48543247Y-43029887D02*
X48581342Y-43106077D01*
X48581342Y-43106077D02*
X48581342Y-43410839D01*
X48962295Y-42191792D02*
X48962295Y-42648935D01*
X48962295Y-42420363D02*
X48162295Y-42420363D01*
X48162295Y-42420363D02*
X48276580Y-42496554D01*
X48276580Y-42496554D02*
X48352771Y-42572744D01*
X48352771Y-42572744D02*
X48390866Y-42648935D01*
X48162295Y-41506077D02*
X48162295Y-41658458D01*
X48162295Y-41658458D02*
X48200390Y-41734649D01*
X48200390Y-41734649D02*
X48238485Y-41772744D01*
X48238485Y-41772744D02*
X48352771Y-41848934D01*
X48352771Y-41848934D02*
X48505152Y-41887030D01*
X48505152Y-41887030D02*
X48809914Y-41887030D01*
X48809914Y-41887030D02*
X48886104Y-41848934D01*
X48886104Y-41848934D02*
X48924200Y-41810839D01*
X48924200Y-41810839D02*
X48962295Y-41734649D01*
X48962295Y-41734649D02*
X48962295Y-41582268D01*
X48962295Y-41582268D02*
X48924200Y-41506077D01*
X48924200Y-41506077D02*
X48886104Y-41467982D01*
X48886104Y-41467982D02*
X48809914Y-41429887D01*
X48809914Y-41429887D02*
X48619438Y-41429887D01*
X48619438Y-41429887D02*
X48543247Y-41467982D01*
X48543247Y-41467982D02*
X48505152Y-41506077D01*
X48505152Y-41506077D02*
X48467057Y-41582268D01*
X48467057Y-41582268D02*
X48467057Y-41734649D01*
X48467057Y-41734649D02*
X48505152Y-41810839D01*
X48505152Y-41810839D02*
X48543247Y-41848934D01*
X48543247Y-41848934D02*
X48619438Y-41887030D01*
X58046303Y-52862295D02*
X57779636Y-52481342D01*
X57589160Y-52862295D02*
X57589160Y-52062295D01*
X57589160Y-52062295D02*
X57893922Y-52062295D01*
X57893922Y-52062295D02*
X57970112Y-52100390D01*
X57970112Y-52100390D02*
X58008207Y-52138485D01*
X58008207Y-52138485D02*
X58046303Y-52214676D01*
X58046303Y-52214676D02*
X58046303Y-52328961D01*
X58046303Y-52328961D02*
X58008207Y-52405152D01*
X58008207Y-52405152D02*
X57970112Y-52443247D01*
X57970112Y-52443247D02*
X57893922Y-52481342D01*
X57893922Y-52481342D02*
X57589160Y-52481342D01*
X58351064Y-52138485D02*
X58389160Y-52100390D01*
X58389160Y-52100390D02*
X58465350Y-52062295D01*
X58465350Y-52062295D02*
X58655826Y-52062295D01*
X58655826Y-52062295D02*
X58732017Y-52100390D01*
X58732017Y-52100390D02*
X58770112Y-52138485D01*
X58770112Y-52138485D02*
X58808207Y-52214676D01*
X58808207Y-52214676D02*
X58808207Y-52290866D01*
X58808207Y-52290866D02*
X58770112Y-52405152D01*
X58770112Y-52405152D02*
X58312969Y-52862295D01*
X58312969Y-52862295D02*
X58808207Y-52862295D01*
X61709524Y-53912295D02*
X61709524Y-53112295D01*
X61709524Y-53112295D02*
X61900000Y-53112295D01*
X61900000Y-53112295D02*
X62014286Y-53150390D01*
X62014286Y-53150390D02*
X62090476Y-53226580D01*
X62090476Y-53226580D02*
X62128571Y-53302771D01*
X62128571Y-53302771D02*
X62166667Y-53455152D01*
X62166667Y-53455152D02*
X62166667Y-53569438D01*
X62166667Y-53569438D02*
X62128571Y-53721819D01*
X62128571Y-53721819D02*
X62090476Y-53798009D01*
X62090476Y-53798009D02*
X62014286Y-53874200D01*
X62014286Y-53874200D02*
X61900000Y-53912295D01*
X61900000Y-53912295D02*
X61709524Y-53912295D01*
X62471428Y-53188485D02*
X62509524Y-53150390D01*
X62509524Y-53150390D02*
X62585714Y-53112295D01*
X62585714Y-53112295D02*
X62776190Y-53112295D01*
X62776190Y-53112295D02*
X62852381Y-53150390D01*
X62852381Y-53150390D02*
X62890476Y-53188485D01*
X62890476Y-53188485D02*
X62928571Y-53264676D01*
X62928571Y-53264676D02*
X62928571Y-53340866D01*
X62928571Y-53340866D02*
X62890476Y-53455152D01*
X62890476Y-53455152D02*
X62433333Y-53912295D01*
X62433333Y-53912295D02*
X62928571Y-53912295D01*
X47211104Y-60258332D02*
X47249200Y-60296428D01*
X47249200Y-60296428D02*
X47287295Y-60410713D01*
X47287295Y-60410713D02*
X47287295Y-60486904D01*
X47287295Y-60486904D02*
X47249200Y-60601190D01*
X47249200Y-60601190D02*
X47173009Y-60677380D01*
X47173009Y-60677380D02*
X47096819Y-60715475D01*
X47096819Y-60715475D02*
X46944438Y-60753571D01*
X46944438Y-60753571D02*
X46830152Y-60753571D01*
X46830152Y-60753571D02*
X46677771Y-60715475D01*
X46677771Y-60715475D02*
X46601580Y-60677380D01*
X46601580Y-60677380D02*
X46525390Y-60601190D01*
X46525390Y-60601190D02*
X46487295Y-60486904D01*
X46487295Y-60486904D02*
X46487295Y-60410713D01*
X46487295Y-60410713D02*
X46525390Y-60296428D01*
X46525390Y-60296428D02*
X46563485Y-60258332D01*
X46487295Y-59572618D02*
X46487295Y-59724999D01*
X46487295Y-59724999D02*
X46525390Y-59801190D01*
X46525390Y-59801190D02*
X46563485Y-59839285D01*
X46563485Y-59839285D02*
X46677771Y-59915475D01*
X46677771Y-59915475D02*
X46830152Y-59953571D01*
X46830152Y-59953571D02*
X47134914Y-59953571D01*
X47134914Y-59953571D02*
X47211104Y-59915475D01*
X47211104Y-59915475D02*
X47249200Y-59877380D01*
X47249200Y-59877380D02*
X47287295Y-59801190D01*
X47287295Y-59801190D02*
X47287295Y-59648809D01*
X47287295Y-59648809D02*
X47249200Y-59572618D01*
X47249200Y-59572618D02*
X47211104Y-59534523D01*
X47211104Y-59534523D02*
X47134914Y-59496428D01*
X47134914Y-59496428D02*
X46944438Y-59496428D01*
X46944438Y-59496428D02*
X46868247Y-59534523D01*
X46868247Y-59534523D02*
X46830152Y-59572618D01*
X46830152Y-59572618D02*
X46792057Y-59648809D01*
X46792057Y-59648809D02*
X46792057Y-59801190D01*
X46792057Y-59801190D02*
X46830152Y-59877380D01*
X46830152Y-59877380D02*
X46868247Y-59915475D01*
X46868247Y-59915475D02*
X46944438Y-59953571D01*
X64433332Y-48537704D02*
X64699999Y-48918657D01*
X64890475Y-48537704D02*
X64890475Y-49337704D01*
X64890475Y-49337704D02*
X64585713Y-49337704D01*
X64585713Y-49337704D02*
X64509523Y-49299609D01*
X64509523Y-49299609D02*
X64471428Y-49261514D01*
X64471428Y-49261514D02*
X64433332Y-49185323D01*
X64433332Y-49185323D02*
X64433332Y-49071038D01*
X64433332Y-49071038D02*
X64471428Y-48994847D01*
X64471428Y-48994847D02*
X64509523Y-48956752D01*
X64509523Y-48956752D02*
X64585713Y-48918657D01*
X64585713Y-48918657D02*
X64890475Y-48918657D01*
X64166666Y-49337704D02*
X63633332Y-49337704D01*
X63633332Y-49337704D02*
X63976190Y-48537704D01*
X49962295Y-42953696D02*
X49581342Y-43220363D01*
X49962295Y-43410839D02*
X49162295Y-43410839D01*
X49162295Y-43410839D02*
X49162295Y-43106077D01*
X49162295Y-43106077D02*
X49200390Y-43029887D01*
X49200390Y-43029887D02*
X49238485Y-42991792D01*
X49238485Y-42991792D02*
X49314676Y-42953696D01*
X49314676Y-42953696D02*
X49428961Y-42953696D01*
X49428961Y-42953696D02*
X49505152Y-42991792D01*
X49505152Y-42991792D02*
X49543247Y-43029887D01*
X49543247Y-43029887D02*
X49581342Y-43106077D01*
X49581342Y-43106077D02*
X49581342Y-43410839D01*
X49962295Y-42191792D02*
X49962295Y-42648935D01*
X49962295Y-42420363D02*
X49162295Y-42420363D01*
X49162295Y-42420363D02*
X49276580Y-42496554D01*
X49276580Y-42496554D02*
X49352771Y-42572744D01*
X49352771Y-42572744D02*
X49390866Y-42648935D01*
X49162295Y-41467982D02*
X49162295Y-41848934D01*
X49162295Y-41848934D02*
X49543247Y-41887030D01*
X49543247Y-41887030D02*
X49505152Y-41848934D01*
X49505152Y-41848934D02*
X49467057Y-41772744D01*
X49467057Y-41772744D02*
X49467057Y-41582268D01*
X49467057Y-41582268D02*
X49505152Y-41506077D01*
X49505152Y-41506077D02*
X49543247Y-41467982D01*
X49543247Y-41467982D02*
X49619438Y-41429887D01*
X49619438Y-41429887D02*
X49809914Y-41429887D01*
X49809914Y-41429887D02*
X49886104Y-41467982D01*
X49886104Y-41467982D02*
X49924200Y-41506077D01*
X49924200Y-41506077D02*
X49962295Y-41582268D01*
X49962295Y-41582268D02*
X49962295Y-41772744D01*
X49962295Y-41772744D02*
X49924200Y-41848934D01*
X49924200Y-41848934D02*
X49886104Y-41887030D01*
X43436104Y-55874874D02*
X43474200Y-55912970D01*
X43474200Y-55912970D02*
X43512295Y-56027255D01*
X43512295Y-56027255D02*
X43512295Y-56103446D01*
X43512295Y-56103446D02*
X43474200Y-56217732D01*
X43474200Y-56217732D02*
X43398009Y-56293922D01*
X43398009Y-56293922D02*
X43321819Y-56332017D01*
X43321819Y-56332017D02*
X43169438Y-56370113D01*
X43169438Y-56370113D02*
X43055152Y-56370113D01*
X43055152Y-56370113D02*
X42902771Y-56332017D01*
X42902771Y-56332017D02*
X42826580Y-56293922D01*
X42826580Y-56293922D02*
X42750390Y-56217732D01*
X42750390Y-56217732D02*
X42712295Y-56103446D01*
X42712295Y-56103446D02*
X42712295Y-56027255D01*
X42712295Y-56027255D02*
X42750390Y-55912970D01*
X42750390Y-55912970D02*
X42788485Y-55874874D01*
X42788485Y-55570113D02*
X42750390Y-55532017D01*
X42750390Y-55532017D02*
X42712295Y-55455827D01*
X42712295Y-55455827D02*
X42712295Y-55265351D01*
X42712295Y-55265351D02*
X42750390Y-55189160D01*
X42750390Y-55189160D02*
X42788485Y-55151065D01*
X42788485Y-55151065D02*
X42864676Y-55112970D01*
X42864676Y-55112970D02*
X42940866Y-55112970D01*
X42940866Y-55112970D02*
X43055152Y-55151065D01*
X43055152Y-55151065D02*
X43512295Y-55608208D01*
X43512295Y-55608208D02*
X43512295Y-55112970D01*
X42712295Y-54427255D02*
X42712295Y-54579636D01*
X42712295Y-54579636D02*
X42750390Y-54655827D01*
X42750390Y-54655827D02*
X42788485Y-54693922D01*
X42788485Y-54693922D02*
X42902771Y-54770112D01*
X42902771Y-54770112D02*
X43055152Y-54808208D01*
X43055152Y-54808208D02*
X43359914Y-54808208D01*
X43359914Y-54808208D02*
X43436104Y-54770112D01*
X43436104Y-54770112D02*
X43474200Y-54732017D01*
X43474200Y-54732017D02*
X43512295Y-54655827D01*
X43512295Y-54655827D02*
X43512295Y-54503446D01*
X43512295Y-54503446D02*
X43474200Y-54427255D01*
X43474200Y-54427255D02*
X43436104Y-54389160D01*
X43436104Y-54389160D02*
X43359914Y-54351065D01*
X43359914Y-54351065D02*
X43169438Y-54351065D01*
X43169438Y-54351065D02*
X43093247Y-54389160D01*
X43093247Y-54389160D02*
X43055152Y-54427255D01*
X43055152Y-54427255D02*
X43017057Y-54503446D01*
X43017057Y-54503446D02*
X43017057Y-54655827D01*
X43017057Y-54655827D02*
X43055152Y-54732017D01*
X43055152Y-54732017D02*
X43093247Y-54770112D01*
X43093247Y-54770112D02*
X43169438Y-54808208D01*
X53611104Y-58858332D02*
X53649200Y-58896428D01*
X53649200Y-58896428D02*
X53687295Y-59010713D01*
X53687295Y-59010713D02*
X53687295Y-59086904D01*
X53687295Y-59086904D02*
X53649200Y-59201190D01*
X53649200Y-59201190D02*
X53573009Y-59277380D01*
X53573009Y-59277380D02*
X53496819Y-59315475D01*
X53496819Y-59315475D02*
X53344438Y-59353571D01*
X53344438Y-59353571D02*
X53230152Y-59353571D01*
X53230152Y-59353571D02*
X53077771Y-59315475D01*
X53077771Y-59315475D02*
X53001580Y-59277380D01*
X53001580Y-59277380D02*
X52925390Y-59201190D01*
X52925390Y-59201190D02*
X52887295Y-59086904D01*
X52887295Y-59086904D02*
X52887295Y-59010713D01*
X52887295Y-59010713D02*
X52925390Y-58896428D01*
X52925390Y-58896428D02*
X52963485Y-58858332D01*
X53153961Y-58172618D02*
X53687295Y-58172618D01*
X52849200Y-58363094D02*
X53420628Y-58553571D01*
X53420628Y-58553571D02*
X53420628Y-58058332D01*
X37837704Y-41885714D02*
X38218657Y-41619047D01*
X37837704Y-41428571D02*
X38637704Y-41428571D01*
X38637704Y-41428571D02*
X38637704Y-41733333D01*
X38637704Y-41733333D02*
X38599609Y-41809523D01*
X38599609Y-41809523D02*
X38561514Y-41847618D01*
X38561514Y-41847618D02*
X38485323Y-41885714D01*
X38485323Y-41885714D02*
X38371038Y-41885714D01*
X38371038Y-41885714D02*
X38294847Y-41847618D01*
X38294847Y-41847618D02*
X38256752Y-41809523D01*
X38256752Y-41809523D02*
X38218657Y-41733333D01*
X38218657Y-41733333D02*
X38218657Y-41428571D01*
X37837704Y-42647618D02*
X37837704Y-42190475D01*
X37837704Y-42419047D02*
X38637704Y-42419047D01*
X38637704Y-42419047D02*
X38523419Y-42342856D01*
X38523419Y-42342856D02*
X38447228Y-42266666D01*
X38447228Y-42266666D02*
X38409133Y-42190475D01*
X38371038Y-43333333D02*
X37837704Y-43333333D01*
X38675800Y-43142857D02*
X38104371Y-42952380D01*
X38104371Y-42952380D02*
X38104371Y-43447619D01*
X43733333Y-66062295D02*
X43733333Y-66633723D01*
X43733333Y-66633723D02*
X43695238Y-66748009D01*
X43695238Y-66748009D02*
X43619047Y-66824200D01*
X43619047Y-66824200D02*
X43504762Y-66862295D01*
X43504762Y-66862295D02*
X43428571Y-66862295D01*
X44038095Y-66062295D02*
X44533333Y-66062295D01*
X44533333Y-66062295D02*
X44266667Y-66367057D01*
X44266667Y-66367057D02*
X44380952Y-66367057D01*
X44380952Y-66367057D02*
X44457143Y-66405152D01*
X44457143Y-66405152D02*
X44495238Y-66443247D01*
X44495238Y-66443247D02*
X44533333Y-66519438D01*
X44533333Y-66519438D02*
X44533333Y-66709914D01*
X44533333Y-66709914D02*
X44495238Y-66786104D01*
X44495238Y-66786104D02*
X44457143Y-66824200D01*
X44457143Y-66824200D02*
X44380952Y-66862295D01*
X44380952Y-66862295D02*
X44152381Y-66862295D01*
X44152381Y-66862295D02*
X44076190Y-66824200D01*
X44076190Y-66824200D02*
X44038095Y-66786104D01*
D11*
X35087470Y-69609695D02*
X35187470Y-68809695D01*
X35468422Y-69609695D02*
X35568422Y-68809695D01*
X35568422Y-68809695D02*
X35925565Y-69609695D01*
X35925565Y-69609695D02*
X36025565Y-68809695D01*
X36306517Y-69609695D02*
X36406517Y-68809695D01*
X36406517Y-68809695D02*
X36711279Y-68809695D01*
X36711279Y-68809695D02*
X36782707Y-68847790D01*
X36782707Y-68847790D02*
X36816041Y-68885885D01*
X36816041Y-68885885D02*
X36844612Y-68962076D01*
X36844612Y-68962076D02*
X36830326Y-69076361D01*
X36830326Y-69076361D02*
X36782707Y-69152552D01*
X36782707Y-69152552D02*
X36739850Y-69190647D01*
X36739850Y-69190647D02*
X36658898Y-69228742D01*
X36658898Y-69228742D02*
X36354136Y-69228742D01*
X37206517Y-68809695D02*
X37125564Y-69457314D01*
X37125564Y-69457314D02*
X37154136Y-69533504D01*
X37154136Y-69533504D02*
X37187469Y-69571600D01*
X37187469Y-69571600D02*
X37258898Y-69609695D01*
X37258898Y-69609695D02*
X37411279Y-69609695D01*
X37411279Y-69609695D02*
X37492231Y-69571600D01*
X37492231Y-69571600D02*
X37535088Y-69533504D01*
X37535088Y-69533504D02*
X37582707Y-69457314D01*
X37582707Y-69457314D02*
X37663660Y-68809695D01*
X37930326Y-68809695D02*
X38387469Y-68809695D01*
X38058898Y-69609695D02*
X38158898Y-68809695D01*
D12*
X68988895Y-64035714D02*
X68950800Y-63997618D01*
X68950800Y-63997618D02*
X68912704Y-63883333D01*
X68912704Y-63883333D02*
X68912704Y-63807142D01*
X68912704Y-63807142D02*
X68950800Y-63692856D01*
X68950800Y-63692856D02*
X69026990Y-63616666D01*
X69026990Y-63616666D02*
X69103180Y-63578571D01*
X69103180Y-63578571D02*
X69255561Y-63540475D01*
X69255561Y-63540475D02*
X69369847Y-63540475D01*
X69369847Y-63540475D02*
X69522228Y-63578571D01*
X69522228Y-63578571D02*
X69598419Y-63616666D01*
X69598419Y-63616666D02*
X69674609Y-63692856D01*
X69674609Y-63692856D02*
X69712704Y-63807142D01*
X69712704Y-63807142D02*
X69712704Y-63883333D01*
X69712704Y-63883333D02*
X69674609Y-63997618D01*
X69674609Y-63997618D02*
X69636514Y-64035714D01*
X68912704Y-64797618D02*
X68912704Y-64340475D01*
X68912704Y-64569047D02*
X69712704Y-64569047D01*
X69712704Y-64569047D02*
X69598419Y-64492856D01*
X69598419Y-64492856D02*
X69522228Y-64416666D01*
X69522228Y-64416666D02*
X69484133Y-64340475D01*
X69712704Y-65292857D02*
X69712704Y-65369047D01*
X69712704Y-65369047D02*
X69674609Y-65445238D01*
X69674609Y-65445238D02*
X69636514Y-65483333D01*
X69636514Y-65483333D02*
X69560323Y-65521428D01*
X69560323Y-65521428D02*
X69407942Y-65559523D01*
X69407942Y-65559523D02*
X69217466Y-65559523D01*
X69217466Y-65559523D02*
X69065085Y-65521428D01*
X69065085Y-65521428D02*
X68988895Y-65483333D01*
X68988895Y-65483333D02*
X68950800Y-65445238D01*
X68950800Y-65445238D02*
X68912704Y-65369047D01*
X68912704Y-65369047D02*
X68912704Y-65292857D01*
X68912704Y-65292857D02*
X68950800Y-65216666D01*
X68950800Y-65216666D02*
X68988895Y-65178571D01*
X68988895Y-65178571D02*
X69065085Y-65140476D01*
X69065085Y-65140476D02*
X69217466Y-65102380D01*
X69217466Y-65102380D02*
X69407942Y-65102380D01*
X69407942Y-65102380D02*
X69560323Y-65140476D01*
X69560323Y-65140476D02*
X69636514Y-65178571D01*
X69636514Y-65178571D02*
X69674609Y-65216666D01*
X69674609Y-65216666D02*
X69712704Y-65292857D01*
X63590476Y-51712295D02*
X63590476Y-52359914D01*
X63590476Y-52359914D02*
X63628571Y-52436104D01*
X63628571Y-52436104D02*
X63666666Y-52474200D01*
X63666666Y-52474200D02*
X63742857Y-52512295D01*
X63742857Y-52512295D02*
X63895238Y-52512295D01*
X63895238Y-52512295D02*
X63971428Y-52474200D01*
X63971428Y-52474200D02*
X64009523Y-52436104D01*
X64009523Y-52436104D02*
X64047619Y-52359914D01*
X64047619Y-52359914D02*
X64047619Y-51712295D01*
X64771428Y-51978961D02*
X64771428Y-52512295D01*
X64580952Y-51674200D02*
X64390475Y-52245628D01*
X64390475Y-52245628D02*
X64885714Y-52245628D01*
X46126104Y-45014285D02*
X46164200Y-45052381D01*
X46164200Y-45052381D02*
X46202295Y-45166666D01*
X46202295Y-45166666D02*
X46202295Y-45242857D01*
X46202295Y-45242857D02*
X46164200Y-45357143D01*
X46164200Y-45357143D02*
X46088009Y-45433333D01*
X46088009Y-45433333D02*
X46011819Y-45471428D01*
X46011819Y-45471428D02*
X45859438Y-45509524D01*
X45859438Y-45509524D02*
X45745152Y-45509524D01*
X45745152Y-45509524D02*
X45592771Y-45471428D01*
X45592771Y-45471428D02*
X45516580Y-45433333D01*
X45516580Y-45433333D02*
X45440390Y-45357143D01*
X45440390Y-45357143D02*
X45402295Y-45242857D01*
X45402295Y-45242857D02*
X45402295Y-45166666D01*
X45402295Y-45166666D02*
X45440390Y-45052381D01*
X45440390Y-45052381D02*
X45478485Y-45014285D01*
X45402295Y-44747619D02*
X45402295Y-44252381D01*
X45402295Y-44252381D02*
X45707057Y-44519047D01*
X45707057Y-44519047D02*
X45707057Y-44404762D01*
X45707057Y-44404762D02*
X45745152Y-44328571D01*
X45745152Y-44328571D02*
X45783247Y-44290476D01*
X45783247Y-44290476D02*
X45859438Y-44252381D01*
X45859438Y-44252381D02*
X46049914Y-44252381D01*
X46049914Y-44252381D02*
X46126104Y-44290476D01*
X46126104Y-44290476D02*
X46164200Y-44328571D01*
X46164200Y-44328571D02*
X46202295Y-44404762D01*
X46202295Y-44404762D02*
X46202295Y-44633333D01*
X46202295Y-44633333D02*
X46164200Y-44709524D01*
X46164200Y-44709524D02*
X46126104Y-44747619D01*
X45478485Y-43947619D02*
X45440390Y-43909523D01*
X45440390Y-43909523D02*
X45402295Y-43833333D01*
X45402295Y-43833333D02*
X45402295Y-43642857D01*
X45402295Y-43642857D02*
X45440390Y-43566666D01*
X45440390Y-43566666D02*
X45478485Y-43528571D01*
X45478485Y-43528571D02*
X45554676Y-43490476D01*
X45554676Y-43490476D02*
X45630866Y-43490476D01*
X45630866Y-43490476D02*
X45745152Y-43528571D01*
X45745152Y-43528571D02*
X46202295Y-43985714D01*
X46202295Y-43985714D02*
X46202295Y-43490476D01*
X39066667Y-57762295D02*
X38800000Y-57381342D01*
X38609524Y-57762295D02*
X38609524Y-56962295D01*
X38609524Y-56962295D02*
X38914286Y-56962295D01*
X38914286Y-56962295D02*
X38990476Y-57000390D01*
X38990476Y-57000390D02*
X39028571Y-57038485D01*
X39028571Y-57038485D02*
X39066667Y-57114676D01*
X39066667Y-57114676D02*
X39066667Y-57228961D01*
X39066667Y-57228961D02*
X39028571Y-57305152D01*
X39028571Y-57305152D02*
X38990476Y-57343247D01*
X38990476Y-57343247D02*
X38914286Y-57381342D01*
X38914286Y-57381342D02*
X38609524Y-57381342D01*
X39447619Y-57762295D02*
X39600000Y-57762295D01*
X39600000Y-57762295D02*
X39676190Y-57724200D01*
X39676190Y-57724200D02*
X39714286Y-57686104D01*
X39714286Y-57686104D02*
X39790476Y-57571819D01*
X39790476Y-57571819D02*
X39828571Y-57419438D01*
X39828571Y-57419438D02*
X39828571Y-57114676D01*
X39828571Y-57114676D02*
X39790476Y-57038485D01*
X39790476Y-57038485D02*
X39752381Y-57000390D01*
X39752381Y-57000390D02*
X39676190Y-56962295D01*
X39676190Y-56962295D02*
X39523809Y-56962295D01*
X39523809Y-56962295D02*
X39447619Y-57000390D01*
X39447619Y-57000390D02*
X39409524Y-57038485D01*
X39409524Y-57038485D02*
X39371428Y-57114676D01*
X39371428Y-57114676D02*
X39371428Y-57305152D01*
X39371428Y-57305152D02*
X39409524Y-57381342D01*
X39409524Y-57381342D02*
X39447619Y-57419438D01*
X39447619Y-57419438D02*
X39523809Y-57457533D01*
X39523809Y-57457533D02*
X39676190Y-57457533D01*
X39676190Y-57457533D02*
X39752381Y-57419438D01*
X39752381Y-57419438D02*
X39790476Y-57381342D01*
X39790476Y-57381342D02*
X39828571Y-57305152D01*
X40962704Y-41860714D02*
X41343657Y-41594047D01*
X40962704Y-41403571D02*
X41762704Y-41403571D01*
X41762704Y-41403571D02*
X41762704Y-41708333D01*
X41762704Y-41708333D02*
X41724609Y-41784523D01*
X41724609Y-41784523D02*
X41686514Y-41822618D01*
X41686514Y-41822618D02*
X41610323Y-41860714D01*
X41610323Y-41860714D02*
X41496038Y-41860714D01*
X41496038Y-41860714D02*
X41419847Y-41822618D01*
X41419847Y-41822618D02*
X41381752Y-41784523D01*
X41381752Y-41784523D02*
X41343657Y-41708333D01*
X41343657Y-41708333D02*
X41343657Y-41403571D01*
X40962704Y-42622618D02*
X40962704Y-42165475D01*
X40962704Y-42394047D02*
X41762704Y-42394047D01*
X41762704Y-42394047D02*
X41648419Y-42317856D01*
X41648419Y-42317856D02*
X41572228Y-42241666D01*
X41572228Y-42241666D02*
X41534133Y-42165475D01*
X41762704Y-42889285D02*
X41762704Y-43384523D01*
X41762704Y-43384523D02*
X41457942Y-43117857D01*
X41457942Y-43117857D02*
X41457942Y-43232142D01*
X41457942Y-43232142D02*
X41419847Y-43308333D01*
X41419847Y-43308333D02*
X41381752Y-43346428D01*
X41381752Y-43346428D02*
X41305561Y-43384523D01*
X41305561Y-43384523D02*
X41115085Y-43384523D01*
X41115085Y-43384523D02*
X41038895Y-43346428D01*
X41038895Y-43346428D02*
X41000800Y-43308333D01*
X41000800Y-43308333D02*
X40962704Y-43232142D01*
X40962704Y-43232142D02*
X40962704Y-43003571D01*
X40962704Y-43003571D02*
X41000800Y-42927380D01*
X41000800Y-42927380D02*
X41038895Y-42889285D01*
X59991667Y-49636104D02*
X59953571Y-49674200D01*
X59953571Y-49674200D02*
X59839286Y-49712295D01*
X59839286Y-49712295D02*
X59763095Y-49712295D01*
X59763095Y-49712295D02*
X59648809Y-49674200D01*
X59648809Y-49674200D02*
X59572619Y-49598009D01*
X59572619Y-49598009D02*
X59534524Y-49521819D01*
X59534524Y-49521819D02*
X59496428Y-49369438D01*
X59496428Y-49369438D02*
X59496428Y-49255152D01*
X59496428Y-49255152D02*
X59534524Y-49102771D01*
X59534524Y-49102771D02*
X59572619Y-49026580D01*
X59572619Y-49026580D02*
X59648809Y-48950390D01*
X59648809Y-48950390D02*
X59763095Y-48912295D01*
X59763095Y-48912295D02*
X59839286Y-48912295D01*
X59839286Y-48912295D02*
X59953571Y-48950390D01*
X59953571Y-48950390D02*
X59991667Y-48988485D01*
X60715476Y-48912295D02*
X60334524Y-48912295D01*
X60334524Y-48912295D02*
X60296428Y-49293247D01*
X60296428Y-49293247D02*
X60334524Y-49255152D01*
X60334524Y-49255152D02*
X60410714Y-49217057D01*
X60410714Y-49217057D02*
X60601190Y-49217057D01*
X60601190Y-49217057D02*
X60677381Y-49255152D01*
X60677381Y-49255152D02*
X60715476Y-49293247D01*
X60715476Y-49293247D02*
X60753571Y-49369438D01*
X60753571Y-49369438D02*
X60753571Y-49559914D01*
X60753571Y-49559914D02*
X60715476Y-49636104D01*
X60715476Y-49636104D02*
X60677381Y-49674200D01*
X60677381Y-49674200D02*
X60601190Y-49712295D01*
X60601190Y-49712295D02*
X60410714Y-49712295D01*
X60410714Y-49712295D02*
X60334524Y-49674200D01*
X60334524Y-49674200D02*
X60296428Y-49636104D01*
X49612295Y-63058207D02*
X50259914Y-63058207D01*
X50259914Y-63058207D02*
X50336104Y-63020112D01*
X50336104Y-63020112D02*
X50374200Y-62982017D01*
X50374200Y-62982017D02*
X50412295Y-62905826D01*
X50412295Y-62905826D02*
X50412295Y-62753445D01*
X50412295Y-62753445D02*
X50374200Y-62677255D01*
X50374200Y-62677255D02*
X50336104Y-62639160D01*
X50336104Y-62639160D02*
X50259914Y-62601064D01*
X50259914Y-62601064D02*
X49612295Y-62601064D01*
X49612295Y-62296303D02*
X49612295Y-61801065D01*
X49612295Y-61801065D02*
X49917057Y-62067731D01*
X49917057Y-62067731D02*
X49917057Y-61953446D01*
X49917057Y-61953446D02*
X49955152Y-61877255D01*
X49955152Y-61877255D02*
X49993247Y-61839160D01*
X49993247Y-61839160D02*
X50069438Y-61801065D01*
X50069438Y-61801065D02*
X50259914Y-61801065D01*
X50259914Y-61801065D02*
X50336104Y-61839160D01*
X50336104Y-61839160D02*
X50374200Y-61877255D01*
X50374200Y-61877255D02*
X50412295Y-61953446D01*
X50412295Y-61953446D02*
X50412295Y-62182017D01*
X50412295Y-62182017D02*
X50374200Y-62258208D01*
X50374200Y-62258208D02*
X50336104Y-62296303D01*
X41341667Y-55755295D02*
X41075000Y-55374342D01*
X40884524Y-55755295D02*
X40884524Y-54955295D01*
X40884524Y-54955295D02*
X41189286Y-54955295D01*
X41189286Y-54955295D02*
X41265476Y-54993390D01*
X41265476Y-54993390D02*
X41303571Y-55031485D01*
X41303571Y-55031485D02*
X41341667Y-55107676D01*
X41341667Y-55107676D02*
X41341667Y-55221961D01*
X41341667Y-55221961D02*
X41303571Y-55298152D01*
X41303571Y-55298152D02*
X41265476Y-55336247D01*
X41265476Y-55336247D02*
X41189286Y-55374342D01*
X41189286Y-55374342D02*
X40884524Y-55374342D01*
X42027381Y-55221961D02*
X42027381Y-55755295D01*
X41836905Y-54917200D02*
X41646428Y-55488628D01*
X41646428Y-55488628D02*
X42141667Y-55488628D01*
X59991667Y-54286104D02*
X59953571Y-54324200D01*
X59953571Y-54324200D02*
X59839286Y-54362295D01*
X59839286Y-54362295D02*
X59763095Y-54362295D01*
X59763095Y-54362295D02*
X59648809Y-54324200D01*
X59648809Y-54324200D02*
X59572619Y-54248009D01*
X59572619Y-54248009D02*
X59534524Y-54171819D01*
X59534524Y-54171819D02*
X59496428Y-54019438D01*
X59496428Y-54019438D02*
X59496428Y-53905152D01*
X59496428Y-53905152D02*
X59534524Y-53752771D01*
X59534524Y-53752771D02*
X59572619Y-53676580D01*
X59572619Y-53676580D02*
X59648809Y-53600390D01*
X59648809Y-53600390D02*
X59763095Y-53562295D01*
X59763095Y-53562295D02*
X59839286Y-53562295D01*
X59839286Y-53562295D02*
X59953571Y-53600390D01*
X59953571Y-53600390D02*
X59991667Y-53638485D01*
X60258333Y-53562295D02*
X60791667Y-53562295D01*
X60791667Y-53562295D02*
X60448809Y-54362295D01*
X50437704Y-32158333D02*
X49866276Y-32158333D01*
X49866276Y-32158333D02*
X49751990Y-32120238D01*
X49751990Y-32120238D02*
X49675800Y-32044047D01*
X49675800Y-32044047D02*
X49637704Y-31929762D01*
X49637704Y-31929762D02*
X49637704Y-31853571D01*
X50437704Y-32882143D02*
X50437704Y-32729762D01*
X50437704Y-32729762D02*
X50399609Y-32653571D01*
X50399609Y-32653571D02*
X50361514Y-32615476D01*
X50361514Y-32615476D02*
X50247228Y-32539286D01*
X50247228Y-32539286D02*
X50094847Y-32501190D01*
X50094847Y-32501190D02*
X49790085Y-32501190D01*
X49790085Y-32501190D02*
X49713895Y-32539286D01*
X49713895Y-32539286D02*
X49675800Y-32577381D01*
X49675800Y-32577381D02*
X49637704Y-32653571D01*
X49637704Y-32653571D02*
X49637704Y-32805952D01*
X49637704Y-32805952D02*
X49675800Y-32882143D01*
X49675800Y-32882143D02*
X49713895Y-32920238D01*
X49713895Y-32920238D02*
X49790085Y-32958333D01*
X49790085Y-32958333D02*
X49980561Y-32958333D01*
X49980561Y-32958333D02*
X50056752Y-32920238D01*
X50056752Y-32920238D02*
X50094847Y-32882143D01*
X50094847Y-32882143D02*
X50132942Y-32805952D01*
X50132942Y-32805952D02*
X50132942Y-32653571D01*
X50132942Y-32653571D02*
X50094847Y-32577381D01*
X50094847Y-32577381D02*
X50056752Y-32539286D01*
X50056752Y-32539286D02*
X49980561Y-32501190D01*
X38286104Y-62608332D02*
X38324200Y-62646428D01*
X38324200Y-62646428D02*
X38362295Y-62760713D01*
X38362295Y-62760713D02*
X38362295Y-62836904D01*
X38362295Y-62836904D02*
X38324200Y-62951190D01*
X38324200Y-62951190D02*
X38248009Y-63027380D01*
X38248009Y-63027380D02*
X38171819Y-63065475D01*
X38171819Y-63065475D02*
X38019438Y-63103571D01*
X38019438Y-63103571D02*
X37905152Y-63103571D01*
X37905152Y-63103571D02*
X37752771Y-63065475D01*
X37752771Y-63065475D02*
X37676580Y-63027380D01*
X37676580Y-63027380D02*
X37600390Y-62951190D01*
X37600390Y-62951190D02*
X37562295Y-62836904D01*
X37562295Y-62836904D02*
X37562295Y-62760713D01*
X37562295Y-62760713D02*
X37600390Y-62646428D01*
X37600390Y-62646428D02*
X37638485Y-62608332D01*
X37905152Y-62151190D02*
X37867057Y-62227380D01*
X37867057Y-62227380D02*
X37828961Y-62265475D01*
X37828961Y-62265475D02*
X37752771Y-62303571D01*
X37752771Y-62303571D02*
X37714676Y-62303571D01*
X37714676Y-62303571D02*
X37638485Y-62265475D01*
X37638485Y-62265475D02*
X37600390Y-62227380D01*
X37600390Y-62227380D02*
X37562295Y-62151190D01*
X37562295Y-62151190D02*
X37562295Y-61998809D01*
X37562295Y-61998809D02*
X37600390Y-61922618D01*
X37600390Y-61922618D02*
X37638485Y-61884523D01*
X37638485Y-61884523D02*
X37714676Y-61846428D01*
X37714676Y-61846428D02*
X37752771Y-61846428D01*
X37752771Y-61846428D02*
X37828961Y-61884523D01*
X37828961Y-61884523D02*
X37867057Y-61922618D01*
X37867057Y-61922618D02*
X37905152Y-61998809D01*
X37905152Y-61998809D02*
X37905152Y-62151190D01*
X37905152Y-62151190D02*
X37943247Y-62227380D01*
X37943247Y-62227380D02*
X37981342Y-62265475D01*
X37981342Y-62265475D02*
X38057533Y-62303571D01*
X38057533Y-62303571D02*
X38209914Y-62303571D01*
X38209914Y-62303571D02*
X38286104Y-62265475D01*
X38286104Y-62265475D02*
X38324200Y-62227380D01*
X38324200Y-62227380D02*
X38362295Y-62151190D01*
X38362295Y-62151190D02*
X38362295Y-61998809D01*
X38362295Y-61998809D02*
X38324200Y-61922618D01*
X38324200Y-61922618D02*
X38286104Y-61884523D01*
X38286104Y-61884523D02*
X38209914Y-61846428D01*
X38209914Y-61846428D02*
X38057533Y-61846428D01*
X38057533Y-61846428D02*
X37981342Y-61884523D01*
X37981342Y-61884523D02*
X37943247Y-61922618D01*
X37943247Y-61922618D02*
X37905152Y-61998809D01*
X42466667Y-51462295D02*
X42200000Y-51081342D01*
X42009524Y-51462295D02*
X42009524Y-50662295D01*
X42009524Y-50662295D02*
X42314286Y-50662295D01*
X42314286Y-50662295D02*
X42390476Y-50700390D01*
X42390476Y-50700390D02*
X42428571Y-50738485D01*
X42428571Y-50738485D02*
X42466667Y-50814676D01*
X42466667Y-50814676D02*
X42466667Y-50928961D01*
X42466667Y-50928961D02*
X42428571Y-51005152D01*
X42428571Y-51005152D02*
X42390476Y-51043247D01*
X42390476Y-51043247D02*
X42314286Y-51081342D01*
X42314286Y-51081342D02*
X42009524Y-51081342D01*
X42733333Y-50662295D02*
X43228571Y-50662295D01*
X43228571Y-50662295D02*
X42961905Y-50967057D01*
X42961905Y-50967057D02*
X43076190Y-50967057D01*
X43076190Y-50967057D02*
X43152381Y-51005152D01*
X43152381Y-51005152D02*
X43190476Y-51043247D01*
X43190476Y-51043247D02*
X43228571Y-51119438D01*
X43228571Y-51119438D02*
X43228571Y-51309914D01*
X43228571Y-51309914D02*
X43190476Y-51386104D01*
X43190476Y-51386104D02*
X43152381Y-51424200D01*
X43152381Y-51424200D02*
X43076190Y-51462295D01*
X43076190Y-51462295D02*
X42847619Y-51462295D01*
X42847619Y-51462295D02*
X42771428Y-51424200D01*
X42771428Y-51424200D02*
X42733333Y-51386104D01*
X65659524Y-60012295D02*
X65659524Y-59212295D01*
X65659524Y-59212295D02*
X65850000Y-59212295D01*
X65850000Y-59212295D02*
X65964286Y-59250390D01*
X65964286Y-59250390D02*
X66040476Y-59326580D01*
X66040476Y-59326580D02*
X66078571Y-59402771D01*
X66078571Y-59402771D02*
X66116667Y-59555152D01*
X66116667Y-59555152D02*
X66116667Y-59669438D01*
X66116667Y-59669438D02*
X66078571Y-59821819D01*
X66078571Y-59821819D02*
X66040476Y-59898009D01*
X66040476Y-59898009D02*
X65964286Y-59974200D01*
X65964286Y-59974200D02*
X65850000Y-60012295D01*
X65850000Y-60012295D02*
X65659524Y-60012295D01*
X66383333Y-59212295D02*
X66878571Y-59212295D01*
X66878571Y-59212295D02*
X66611905Y-59517057D01*
X66611905Y-59517057D02*
X66726190Y-59517057D01*
X66726190Y-59517057D02*
X66802381Y-59555152D01*
X66802381Y-59555152D02*
X66840476Y-59593247D01*
X66840476Y-59593247D02*
X66878571Y-59669438D01*
X66878571Y-59669438D02*
X66878571Y-59859914D01*
X66878571Y-59859914D02*
X66840476Y-59936104D01*
X66840476Y-59936104D02*
X66802381Y-59974200D01*
X66802381Y-59974200D02*
X66726190Y-60012295D01*
X66726190Y-60012295D02*
X66497619Y-60012295D01*
X66497619Y-60012295D02*
X66421428Y-59974200D01*
X66421428Y-59974200D02*
X66383333Y-59936104D01*
X56060476Y-44342295D02*
X56060476Y-44989914D01*
X56060476Y-44989914D02*
X56098571Y-45066104D01*
X56098571Y-45066104D02*
X56136666Y-45104200D01*
X56136666Y-45104200D02*
X56212857Y-45142295D01*
X56212857Y-45142295D02*
X56365238Y-45142295D01*
X56365238Y-45142295D02*
X56441428Y-45104200D01*
X56441428Y-45104200D02*
X56479523Y-45066104D01*
X56479523Y-45066104D02*
X56517619Y-44989914D01*
X56517619Y-44989914D02*
X56517619Y-44342295D01*
X56860475Y-44418485D02*
X56898571Y-44380390D01*
X56898571Y-44380390D02*
X56974761Y-44342295D01*
X56974761Y-44342295D02*
X57165237Y-44342295D01*
X57165237Y-44342295D02*
X57241428Y-44380390D01*
X57241428Y-44380390D02*
X57279523Y-44418485D01*
X57279523Y-44418485D02*
X57317618Y-44494676D01*
X57317618Y-44494676D02*
X57317618Y-44570866D01*
X57317618Y-44570866D02*
X57279523Y-44685152D01*
X57279523Y-44685152D02*
X56822380Y-45142295D01*
X56822380Y-45142295D02*
X57317618Y-45142295D01*
X31687030Y-45237295D02*
X31420363Y-44856342D01*
X31229887Y-45237295D02*
X31229887Y-44437295D01*
X31229887Y-44437295D02*
X31534649Y-44437295D01*
X31534649Y-44437295D02*
X31610839Y-44475390D01*
X31610839Y-44475390D02*
X31648934Y-44513485D01*
X31648934Y-44513485D02*
X31687030Y-44589676D01*
X31687030Y-44589676D02*
X31687030Y-44703961D01*
X31687030Y-44703961D02*
X31648934Y-44780152D01*
X31648934Y-44780152D02*
X31610839Y-44818247D01*
X31610839Y-44818247D02*
X31534649Y-44856342D01*
X31534649Y-44856342D02*
X31229887Y-44856342D01*
X32372744Y-44437295D02*
X32220363Y-44437295D01*
X32220363Y-44437295D02*
X32144172Y-44475390D01*
X32144172Y-44475390D02*
X32106077Y-44513485D01*
X32106077Y-44513485D02*
X32029887Y-44627771D01*
X32029887Y-44627771D02*
X31991791Y-44780152D01*
X31991791Y-44780152D02*
X31991791Y-45084914D01*
X31991791Y-45084914D02*
X32029887Y-45161104D01*
X32029887Y-45161104D02*
X32067982Y-45199200D01*
X32067982Y-45199200D02*
X32144172Y-45237295D01*
X32144172Y-45237295D02*
X32296553Y-45237295D01*
X32296553Y-45237295D02*
X32372744Y-45199200D01*
X32372744Y-45199200D02*
X32410839Y-45161104D01*
X32410839Y-45161104D02*
X32448934Y-45084914D01*
X32448934Y-45084914D02*
X32448934Y-44894438D01*
X32448934Y-44894438D02*
X32410839Y-44818247D01*
X32410839Y-44818247D02*
X32372744Y-44780152D01*
X32372744Y-44780152D02*
X32296553Y-44742057D01*
X32296553Y-44742057D02*
X32144172Y-44742057D01*
X32144172Y-44742057D02*
X32067982Y-44780152D01*
X32067982Y-44780152D02*
X32029887Y-44818247D01*
X32029887Y-44818247D02*
X31991791Y-44894438D01*
X56446303Y-55786104D02*
X56408207Y-55824200D01*
X56408207Y-55824200D02*
X56293922Y-55862295D01*
X56293922Y-55862295D02*
X56217731Y-55862295D01*
X56217731Y-55862295D02*
X56103445Y-55824200D01*
X56103445Y-55824200D02*
X56027255Y-55748009D01*
X56027255Y-55748009D02*
X55989160Y-55671819D01*
X55989160Y-55671819D02*
X55951064Y-55519438D01*
X55951064Y-55519438D02*
X55951064Y-55405152D01*
X55951064Y-55405152D02*
X55989160Y-55252771D01*
X55989160Y-55252771D02*
X56027255Y-55176580D01*
X56027255Y-55176580D02*
X56103445Y-55100390D01*
X56103445Y-55100390D02*
X56217731Y-55062295D01*
X56217731Y-55062295D02*
X56293922Y-55062295D01*
X56293922Y-55062295D02*
X56408207Y-55100390D01*
X56408207Y-55100390D02*
X56446303Y-55138485D01*
X56751064Y-55138485D02*
X56789160Y-55100390D01*
X56789160Y-55100390D02*
X56865350Y-55062295D01*
X56865350Y-55062295D02*
X57055826Y-55062295D01*
X57055826Y-55062295D02*
X57132017Y-55100390D01*
X57132017Y-55100390D02*
X57170112Y-55138485D01*
X57170112Y-55138485D02*
X57208207Y-55214676D01*
X57208207Y-55214676D02*
X57208207Y-55290866D01*
X57208207Y-55290866D02*
X57170112Y-55405152D01*
X57170112Y-55405152D02*
X56712969Y-55862295D01*
X56712969Y-55862295D02*
X57208207Y-55862295D01*
X57665350Y-55405152D02*
X57589160Y-55367057D01*
X57589160Y-55367057D02*
X57551065Y-55328961D01*
X57551065Y-55328961D02*
X57512969Y-55252771D01*
X57512969Y-55252771D02*
X57512969Y-55214676D01*
X57512969Y-55214676D02*
X57551065Y-55138485D01*
X57551065Y-55138485D02*
X57589160Y-55100390D01*
X57589160Y-55100390D02*
X57665350Y-55062295D01*
X57665350Y-55062295D02*
X57817731Y-55062295D01*
X57817731Y-55062295D02*
X57893922Y-55100390D01*
X57893922Y-55100390D02*
X57932017Y-55138485D01*
X57932017Y-55138485D02*
X57970112Y-55214676D01*
X57970112Y-55214676D02*
X57970112Y-55252771D01*
X57970112Y-55252771D02*
X57932017Y-55328961D01*
X57932017Y-55328961D02*
X57893922Y-55367057D01*
X57893922Y-55367057D02*
X57817731Y-55405152D01*
X57817731Y-55405152D02*
X57665350Y-55405152D01*
X57665350Y-55405152D02*
X57589160Y-55443247D01*
X57589160Y-55443247D02*
X57551065Y-55481342D01*
X57551065Y-55481342D02*
X57512969Y-55557533D01*
X57512969Y-55557533D02*
X57512969Y-55709914D01*
X57512969Y-55709914D02*
X57551065Y-55786104D01*
X57551065Y-55786104D02*
X57589160Y-55824200D01*
X57589160Y-55824200D02*
X57665350Y-55862295D01*
X57665350Y-55862295D02*
X57817731Y-55862295D01*
X57817731Y-55862295D02*
X57893922Y-55824200D01*
X57893922Y-55824200D02*
X57932017Y-55786104D01*
X57932017Y-55786104D02*
X57970112Y-55709914D01*
X57970112Y-55709914D02*
X57970112Y-55557533D01*
X57970112Y-55557533D02*
X57932017Y-55481342D01*
X57932017Y-55481342D02*
X57893922Y-55443247D01*
X57893922Y-55443247D02*
X57817731Y-55405152D01*
D13*
%TO.C,R1*%
X56653641Y-51120000D02*
X56346359Y-51120000D01*
X56653641Y-51880000D02*
X56346359Y-51880000D01*
%TO.C,C21*%
X68261252Y-41865000D02*
X67738748Y-41865000D01*
X68261252Y-43335000D02*
X67738748Y-43335000D01*
%TO.C,C15*%
X64238748Y-41865000D02*
X64761252Y-41865000D01*
X64238748Y-43335000D02*
X64761252Y-43335000D01*
%TO.C,R10*%
X44945000Y-60863641D02*
X44945000Y-60556359D01*
X45705000Y-60863641D02*
X45705000Y-60556359D01*
%TO.C,R11*%
X50620000Y-56803641D02*
X50620000Y-56496359D01*
X51380000Y-56803641D02*
X51380000Y-56496359D01*
%TO.C,R8*%
X62553641Y-47620000D02*
X62246359Y-47620000D01*
X62553641Y-48380000D02*
X62246359Y-48380000D01*
%TO.C,J5*%
X39170000Y-61180000D02*
X39170000Y-59850000D01*
X40500000Y-61180000D02*
X39170000Y-61180000D01*
X41770000Y-58520000D02*
X44370000Y-58520000D01*
X41770000Y-61180000D02*
X41770000Y-58520000D01*
X41770000Y-61180000D02*
X44370000Y-61180000D01*
X44370000Y-61180000D02*
X44370000Y-58520000D01*
%TO.C,C9*%
X61340000Y-58692164D02*
X61340000Y-58907836D01*
X62060000Y-58692164D02*
X62060000Y-58907836D01*
%TO.C,C20*%
X31738748Y-39865000D02*
X32261252Y-39865000D01*
X31738748Y-41335000D02*
X32261252Y-41335000D01*
%TO.C,C16*%
X35761252Y-41865000D02*
X35238748Y-41865000D01*
X35761252Y-43335000D02*
X35238748Y-43335000D01*
%TO.C,C19*%
X68261252Y-39865000D02*
X67738748Y-39865000D01*
X68261252Y-41335000D02*
X67738748Y-41335000D01*
%TO.C,D1*%
X30250000Y-57350000D02*
X30250000Y-62400000D01*
X30700000Y-56900000D02*
X30250000Y-57350000D01*
X31050000Y-58750000D02*
X31050000Y-60550000D01*
X36450000Y-58750000D02*
X36450000Y-60550000D01*
X37250000Y-56900000D02*
X30700000Y-56900000D01*
X37250000Y-62400000D02*
X30250000Y-62400000D01*
X37250000Y-62400000D02*
X37250000Y-56900000D01*
%TO.C,C17*%
X68261252Y-37865000D02*
X67738748Y-37865000D01*
X68261252Y-39335000D02*
X67738748Y-39335000D01*
%TO.C,C34*%
X54392164Y-49640000D02*
X54607836Y-49640000D01*
X54392164Y-50360000D02*
X54607836Y-50360000D01*
%TO.C,C37*%
X54392164Y-52640000D02*
X54607836Y-52640000D01*
X54392164Y-53360000D02*
X54607836Y-53360000D01*
%TO.C,C27*%
X54392164Y-48640000D02*
X54607836Y-48640000D01*
X54392164Y-49360000D02*
X54607836Y-49360000D01*
%TO.C,C12*%
X35761252Y-37865000D02*
X35238748Y-37865000D01*
X35761252Y-39335000D02*
X35238748Y-39335000D01*
%TO.C,U1*%
X44390000Y-47390000D02*
X45040000Y-47390000D01*
X44390000Y-48040000D02*
X44390000Y-47390000D01*
X44390000Y-53960000D02*
X44390000Y-54610000D01*
X44390000Y-54610000D02*
X45040000Y-54610000D01*
X50960000Y-47390000D02*
X51370000Y-47390000D01*
X51610000Y-48040000D02*
X51610000Y-47690000D01*
X51610000Y-53960000D02*
X51610000Y-54610000D01*
X51610000Y-54610000D02*
X50960000Y-54610000D01*
X51940000Y-47630000D02*
X51610000Y-47390000D01*
X51940000Y-47150000D01*
X51940000Y-47630000D01*
G36*
X51940000Y-47630000D02*
G01*
X51610000Y-47390000D01*
X51940000Y-47150000D01*
X51940000Y-47630000D01*
G37*
%TO.C,C14*%
X35761252Y-39865000D02*
X35238748Y-39865000D01*
X35761252Y-41335000D02*
X35238748Y-41335000D01*
%TO.C,J2*%
X61800000Y-44170000D02*
X61800000Y-46830000D01*
X66940000Y-44170000D02*
X61800000Y-44170000D01*
X66940000Y-44170000D02*
X66940000Y-46830000D01*
X66940000Y-46830000D02*
X61800000Y-46830000D01*
X68210000Y-44170000D02*
X69540000Y-44170000D01*
X69540000Y-44170000D02*
X69540000Y-45500000D01*
%TO.C,SW1*%
X66600000Y-52850000D02*
X66900000Y-52850000D01*
X66600000Y-56150000D02*
X66600000Y-52850000D01*
X66900000Y-56150000D02*
X66600000Y-56150000D01*
X69100000Y-56150000D02*
X69400000Y-56150000D01*
X69400000Y-52850000D02*
X69100000Y-52850000D01*
X69400000Y-56150000D02*
X69400000Y-52850000D01*
%TO.C,C22*%
X31738748Y-41865000D02*
X32261252Y-41865000D01*
X31738748Y-43335000D02*
X32261252Y-43335000D01*
%TO.C,U5*%
X57500000Y-56390000D02*
X55550000Y-56390000D01*
X57500000Y-56390000D02*
X59450000Y-56390000D01*
X57500000Y-61510000D02*
X55550000Y-61510000D01*
X57500000Y-61510000D02*
X59450000Y-61510000D01*
X60440000Y-61745000D02*
X59960000Y-61745000D01*
X60200000Y-61415000D01*
X60440000Y-61745000D01*
G36*
X60440000Y-61745000D02*
G01*
X59960000Y-61745000D01*
X60200000Y-61415000D01*
X60440000Y-61745000D01*
G37*
%TO.C,C24*%
X39137836Y-31800000D02*
X38922164Y-31800000D01*
X39137836Y-32520000D02*
X38922164Y-32520000D01*
%TO.C,C33*%
X50240000Y-44607836D02*
X50240000Y-44392164D01*
X50960000Y-44607836D02*
X50960000Y-44392164D01*
%TO.C,R5*%
X35846359Y-44495000D02*
X36153641Y-44495000D01*
X35846359Y-45255000D02*
X36153641Y-45255000D01*
%TO.C,C11*%
X64238748Y-37865000D02*
X64761252Y-37865000D01*
X64238748Y-39335000D02*
X64761252Y-39335000D01*
%TO.C,J1*%
X30215000Y-46170000D02*
X31920000Y-46170000D01*
X30215000Y-55330000D02*
X30215000Y-46170000D01*
X31920000Y-55330000D02*
X30215000Y-55330000D01*
X33930000Y-55330000D02*
X35850000Y-55330000D01*
X35850000Y-46170000D02*
X33930000Y-46170000D01*
%TO.C,C3*%
X61515000Y-42667164D02*
X61515000Y-42882836D01*
X62235000Y-42667164D02*
X62235000Y-42882836D01*
D12*
%TO.C,U6*%
X56925000Y-39575000D02*
X56925000Y-35425000D01*
X62075000Y-39575000D02*
X62075000Y-35425000D01*
D13*
X57025000Y-40175000D02*
X56695000Y-40415000D01*
X56695000Y-39935000D01*
X57025000Y-40175000D01*
G36*
X57025000Y-40175000D02*
G01*
X56695000Y-40415000D01*
X56695000Y-39935000D01*
X57025000Y-40175000D01*
G37*
%TO.C,C35*%
X54392164Y-50640000D02*
X54607836Y-50640000D01*
X54392164Y-51360000D02*
X54607836Y-51360000D01*
%TO.C,C2*%
X40637164Y-49740000D02*
X40852836Y-49740000D01*
X40637164Y-50460000D02*
X40852836Y-50460000D01*
%TO.C,C29*%
X51640000Y-56542164D02*
X51640000Y-56757836D01*
X52360000Y-56542164D02*
X52360000Y-56757836D01*
%TO.C,C1*%
X42292164Y-44590000D02*
X42507836Y-44590000D01*
X42292164Y-45310000D02*
X42507836Y-45310000D01*
%TO.C,C23*%
X61050000Y-32917836D02*
X61050000Y-32702164D01*
X61770000Y-32917836D02*
X61770000Y-32702164D01*
%TO.C,J4*%
X50940000Y-62040000D02*
X50940000Y-69860000D01*
X50940000Y-63640000D02*
X51860000Y-63640000D01*
X50940000Y-69860000D02*
X61060000Y-69860000D01*
X51700000Y-66000000D02*
X51700000Y-67600000D01*
X51700000Y-67600000D02*
X52700000Y-67600000D01*
X51860000Y-62040000D02*
X50940000Y-62040000D01*
X51860000Y-63640000D02*
X51860000Y-62040000D01*
X52140000Y-63640000D02*
X51860000Y-63640000D01*
X52140000Y-63640000D02*
X52140000Y-62425000D01*
X52200000Y-67600000D02*
X52200000Y-69860000D01*
X52700000Y-66000000D02*
X51700000Y-66000000D01*
X52700000Y-67600000D02*
X52700000Y-66000000D01*
X52700000Y-67600000D02*
X52700000Y-69860000D01*
X53500000Y-65500000D02*
X58500000Y-65500000D01*
X53500000Y-69860000D02*
X53500000Y-65500000D01*
X58500000Y-65500000D02*
X58500000Y-69860000D01*
X59300000Y-66000000D02*
X60300000Y-66000000D01*
X59300000Y-67600000D02*
X59300000Y-66000000D01*
X60140000Y-62040000D02*
X60140000Y-63640000D01*
X60140000Y-63640000D02*
X59860000Y-63640000D01*
X60300000Y-66000000D02*
X60300000Y-67600000D01*
X60300000Y-67600000D02*
X59300000Y-67600000D01*
X61060000Y-62040000D02*
X60140000Y-62040000D01*
X61060000Y-63640000D02*
X60140000Y-63640000D01*
X61060000Y-69860000D02*
X61060000Y-62040000D01*
%TO.C,Y1*%
X40175000Y-45525000D02*
X40175000Y-49525000D01*
X43475000Y-45525000D02*
X40175000Y-45525000D01*
D12*
%TO.C,U7*%
X37925000Y-39575000D02*
X37925000Y-35425000D01*
X43075000Y-39575000D02*
X43075000Y-35425000D01*
D13*
X38025000Y-40175000D02*
X37695000Y-40415000D01*
X37695000Y-39935000D01*
X38025000Y-40175000D01*
G36*
X38025000Y-40175000D02*
G01*
X37695000Y-40415000D01*
X37695000Y-39935000D01*
X38025000Y-40175000D01*
G37*
%TO.C,C36*%
X54392164Y-53640000D02*
X54607836Y-53640000D01*
X54392164Y-54360000D02*
X54607836Y-54360000D01*
%TO.C,C30*%
X46640000Y-56392164D02*
X46640000Y-56607836D01*
X47360000Y-56392164D02*
X47360000Y-56607836D01*
%TO.C,C31*%
X41582836Y-51990000D02*
X41367164Y-51990000D01*
X41582836Y-52710000D02*
X41367164Y-52710000D01*
%TO.C,R12*%
X49620000Y-56496359D02*
X49620000Y-56803641D01*
X50380000Y-56496359D02*
X50380000Y-56803641D01*
%TO.C,R16*%
X48220000Y-44653641D02*
X48220000Y-44346359D01*
X48980000Y-44653641D02*
X48980000Y-44346359D01*
%TO.C,R2*%
X56346359Y-52120000D02*
X56653641Y-52120000D01*
X56346359Y-52880000D02*
X56653641Y-52880000D01*
%TO.C,D2*%
X61890000Y-54862500D02*
X61890000Y-54212500D01*
X61890000Y-54862500D02*
X61890000Y-55512500D01*
X65010000Y-54862500D02*
X65010000Y-54212500D01*
X65010000Y-54862500D02*
X65010000Y-55512500D01*
X61940000Y-56025000D02*
X61610000Y-56265000D01*
X61610000Y-55785000D01*
X61940000Y-56025000D01*
G36*
X61940000Y-56025000D02*
G01*
X61610000Y-56265000D01*
X61610000Y-55785000D01*
X61940000Y-56025000D01*
G37*
%TO.C,C6*%
X47490000Y-60265580D02*
X47490000Y-59984420D01*
X48510000Y-60265580D02*
X48510000Y-59984420D01*
%TO.C,R7*%
X64453641Y-47620000D02*
X64146359Y-47620000D01*
X64453641Y-48380000D02*
X64146359Y-48380000D01*
%TO.C,R15*%
X49220000Y-44653641D02*
X49220000Y-44346359D01*
X49980000Y-44653641D02*
X49980000Y-44346359D01*
%TO.C,C26*%
X41582836Y-52990000D02*
X41367164Y-52990000D01*
X41582836Y-53710000D02*
X41367164Y-53710000D01*
%TO.C,C4*%
X52965000Y-60502836D02*
X52965000Y-60287164D01*
X53685000Y-60502836D02*
X53685000Y-60287164D01*
%TO.C,R14*%
X38920000Y-42211359D02*
X38920000Y-42518641D01*
X39680000Y-42211359D02*
X39680000Y-42518641D01*
%TO.C,J3*%
X38940000Y-62040000D02*
X38940000Y-69860000D01*
X38940000Y-63640000D02*
X39860000Y-63640000D01*
X38940000Y-69860000D02*
X49060000Y-69860000D01*
X39700000Y-66000000D02*
X39700000Y-67600000D01*
X39700000Y-67600000D02*
X40700000Y-67600000D01*
X39860000Y-62040000D02*
X38940000Y-62040000D01*
X39860000Y-63640000D02*
X39860000Y-62040000D01*
X40140000Y-63640000D02*
X39860000Y-63640000D01*
X40140000Y-63640000D02*
X40140000Y-62425000D01*
X40200000Y-67600000D02*
X40200000Y-69860000D01*
X40700000Y-66000000D02*
X39700000Y-66000000D01*
X40700000Y-67600000D02*
X40700000Y-66000000D01*
X40700000Y-67600000D02*
X40700000Y-69860000D01*
X41500000Y-65500000D02*
X46500000Y-65500000D01*
X41500000Y-69860000D02*
X41500000Y-65500000D01*
X46500000Y-65500000D02*
X46500000Y-69860000D01*
X47300000Y-66000000D02*
X48300000Y-66000000D01*
X47300000Y-67600000D02*
X47300000Y-66000000D01*
X48140000Y-62040000D02*
X48140000Y-63640000D01*
X48140000Y-63640000D02*
X47860000Y-63640000D01*
X48300000Y-66000000D02*
X48300000Y-67600000D01*
X48300000Y-67600000D02*
X47300000Y-67600000D01*
X49060000Y-62040000D02*
X48140000Y-62040000D01*
X49060000Y-63640000D02*
X48140000Y-63640000D01*
X49060000Y-69860000D02*
X49060000Y-62040000D01*
%TO.C,C10*%
X68912836Y-62565000D02*
X68697164Y-62565000D01*
X68912836Y-63285000D02*
X68697164Y-63285000D01*
%TO.C,U4*%
X62512500Y-49640000D02*
X61862500Y-49640000D01*
X62512500Y-49640000D02*
X63162500Y-49640000D01*
X62512500Y-52760000D02*
X61862500Y-52760000D01*
X62512500Y-52760000D02*
X63162500Y-52760000D01*
X61350000Y-49690000D02*
X61110000Y-49360000D01*
X61590000Y-49360000D01*
X61350000Y-49690000D01*
G36*
X61350000Y-49690000D02*
G01*
X61110000Y-49360000D01*
X61590000Y-49360000D01*
X61350000Y-49690000D01*
G37*
%TO.C,C32*%
X46640000Y-44607836D02*
X46640000Y-44392164D01*
X47360000Y-44607836D02*
X47360000Y-44392164D01*
%TO.C,C18*%
X31738748Y-37865000D02*
X32261252Y-37865000D01*
X31738748Y-39335000D02*
X32261252Y-39335000D01*
%TO.C,R9*%
X37620000Y-57963641D02*
X37620000Y-57656359D01*
X38380000Y-57963641D02*
X38380000Y-57656359D01*
%TO.C,R13*%
X39870000Y-42196359D02*
X39870000Y-42503641D01*
X40630000Y-42196359D02*
X40630000Y-42503641D01*
%TO.C,C13*%
X64238748Y-39865000D02*
X64761252Y-39865000D01*
X64238748Y-41335000D02*
X64761252Y-41335000D01*
%TO.C,C5*%
X59765000Y-50832836D02*
X59765000Y-50617164D01*
X60485000Y-50832836D02*
X60485000Y-50617164D01*
%TO.C,U3*%
X50800000Y-58390000D02*
X50000000Y-58390000D01*
X50800000Y-58390000D02*
X51600000Y-58390000D01*
X50800000Y-61510000D02*
X50000000Y-61510000D01*
X50800000Y-61510000D02*
X51600000Y-61510000D01*
X52340000Y-61790000D02*
X51860000Y-61790000D01*
X52100000Y-61460000D01*
X52340000Y-61790000D01*
G36*
X52340000Y-61790000D02*
G01*
X51860000Y-61790000D01*
X52100000Y-61460000D01*
X52340000Y-61790000D01*
G37*
%TO.C,R4*%
X41321359Y-53970000D02*
X41628641Y-53970000D01*
X41321359Y-54730000D02*
X41628641Y-54730000D01*
%TO.C,C7*%
X59765000Y-52442164D02*
X59765000Y-52657836D01*
X60485000Y-52442164D02*
X60485000Y-52657836D01*
%TO.C,J6*%
X43690000Y-29690000D02*
X43690000Y-41410000D01*
X43690000Y-41410000D02*
X45110000Y-41410000D01*
X45110000Y-36910000D02*
X50000000Y-36910000D01*
X45110000Y-41410000D02*
X45110000Y-36910000D01*
X46000000Y-30300000D02*
X46000000Y-35800000D01*
X46000000Y-35800000D02*
X46500000Y-35800000D01*
X46500000Y-30300000D02*
X46000000Y-30300000D01*
X46500000Y-35800000D02*
X46500000Y-30300000D01*
X48500000Y-30300000D02*
X48500000Y-35800000D01*
X48500000Y-35800000D02*
X49000000Y-35800000D01*
X49000000Y-30300000D02*
X48500000Y-30300000D01*
X49000000Y-35800000D02*
X49000000Y-30300000D01*
X50000000Y-29690000D02*
X43690000Y-29690000D01*
X50000000Y-29690000D02*
X56310000Y-29690000D01*
X51000000Y-30300000D02*
X51000000Y-35800000D01*
X51000000Y-35800000D02*
X51500000Y-35800000D01*
X51500000Y-30300000D02*
X51000000Y-30300000D01*
X51500000Y-35800000D02*
X51500000Y-30300000D01*
X53450000Y-41100000D02*
X53750000Y-40500000D01*
X53500000Y-30300000D02*
X53500000Y-35800000D01*
X53500000Y-35800000D02*
X54000000Y-35800000D01*
X53750000Y-40500000D02*
X54050000Y-41100000D01*
X54000000Y-30300000D02*
X53500000Y-30300000D01*
X54000000Y-35800000D02*
X54000000Y-30300000D01*
X54050000Y-41100000D02*
X53450000Y-41100000D01*
X54890000Y-36910000D02*
X50000000Y-36910000D01*
X54890000Y-41410000D02*
X54890000Y-36910000D01*
X56310000Y-29690000D02*
X56310000Y-41410000D01*
X56310000Y-41410000D02*
X54890000Y-41410000D01*
%TO.C,C8*%
X37640000Y-60932836D02*
X37640000Y-60717164D01*
X38360000Y-60932836D02*
X38360000Y-60717164D01*
%TO.C,R3*%
X42451359Y-49720000D02*
X42758641Y-49720000D01*
X42451359Y-50480000D02*
X42758641Y-50480000D01*
%TO.C,D3*%
X62750000Y-57350000D02*
X62750000Y-62400000D01*
X63200000Y-56900000D02*
X62750000Y-57350000D01*
X63550000Y-58750000D02*
X63550000Y-60550000D01*
X68950000Y-58750000D02*
X68950000Y-60550000D01*
X69750000Y-56900000D02*
X63200000Y-56900000D01*
X69750000Y-62400000D02*
X62750000Y-62400000D01*
X69750000Y-62400000D02*
X69750000Y-56900000D01*
%TO.C,SW2*%
X66600000Y-48050000D02*
X66900000Y-48050000D01*
X66600000Y-51350000D02*
X66600000Y-48050000D01*
X66900000Y-51350000D02*
X66600000Y-51350000D01*
X69100000Y-51350000D02*
X69400000Y-51350000D01*
X69400000Y-48050000D02*
X69100000Y-48050000D01*
X69400000Y-51350000D02*
X69400000Y-48050000D01*
%TO.C,U2*%
X53945000Y-42055000D02*
X53945000Y-42315000D01*
X53945000Y-47505000D02*
X53945000Y-47245000D01*
X56670000Y-42055000D02*
X53945000Y-42055000D01*
X56670000Y-42055000D02*
X59395000Y-42055000D01*
X56670000Y-47505000D02*
X53945000Y-47505000D01*
X56670000Y-47505000D02*
X59395000Y-47505000D01*
X59395000Y-42055000D02*
X59395000Y-42315000D01*
X59395000Y-47505000D02*
X59395000Y-47245000D01*
X53162500Y-42315000D02*
X52922500Y-41985000D01*
X53402500Y-41985000D01*
X53162500Y-42315000D01*
G36*
X53162500Y-42315000D02*
G01*
X52922500Y-41985000D01*
X53402500Y-41985000D01*
X53162500Y-42315000D01*
G37*
%TO.C,R6*%
X33653641Y-44495000D02*
X33346359Y-44495000D01*
X33653641Y-45255000D02*
X33346359Y-45255000D01*
%TO.C,C28*%
X54392164Y-54640000D02*
X54607836Y-54640000D01*
X54392164Y-55360000D02*
X54607836Y-55360000D01*
%TD*%
M02*
