%TF.GenerationSoftware,KiCad,Pcbnew,9.0.0*%
%TF.CreationDate,2025-02-20T17:26:32-08:00*%
%TF.ProjectId,Integrated FOC Stepper Driver,496e7465-6772-4617-9465-6420464f4320,rev?*%
%TF.SameCoordinates,Original*%
%TF.FileFunction,Copper,L4,Inr*%
%TF.FilePolarity,Positive*%
%FSLAX46Y46*%
G04 Gerber Fmt 4.6, Leading zero omitted, Abs format (unit mm)*
G04 Created by KiCad (PCBNEW 9.0.0) date 2025-02-20 17:26:32*
%MOMM*%
%LPD*%
G01*
G04 APERTURE LIST*
G04 Aperture macros list*
%AMRoundRect*
0 Rectangle with rounded corners*
0 $1 Rounding radius*
0 $2 $3 $4 $5 $6 $7 $8 $9 X,Y pos of 4 corners*
0 Add a 4 corners polygon primitive as box body*
4,1,4,$2,$3,$4,$5,$6,$7,$8,$9,$2,$3,0*
0 Add four circle primitives for the rounded corners*
1,1,$1+$1,$2,$3*
1,1,$1+$1,$4,$5*
1,1,$1+$1,$6,$7*
1,1,$1+$1,$8,$9*
0 Add four rect primitives between the rounded corners*
20,1,$1+$1,$2,$3,$4,$5,0*
20,1,$1+$1,$4,$5,$6,$7,0*
20,1,$1+$1,$6,$7,$8,$9,0*
20,1,$1+$1,$8,$9,$2,$3,0*%
G04 Aperture macros list end*
%TA.AperFunction,ComponentPad*%
%ADD10C,5.600000*%
%TD*%
%TA.AperFunction,ComponentPad*%
%ADD11R,1.700000X1.700000*%
%TD*%
%TA.AperFunction,ComponentPad*%
%ADD12O,1.700000X1.700000*%
%TD*%
%TA.AperFunction,HeatsinkPad*%
%ADD13O,2.100000X1.000000*%
%TD*%
%TA.AperFunction,HeatsinkPad*%
%ADD14O,1.800000X1.000000*%
%TD*%
%TA.AperFunction,ComponentPad*%
%ADD15C,0.600000*%
%TD*%
%TA.AperFunction,ComponentPad*%
%ADD16RoundRect,0.250000X-0.350000X-0.625000X0.350000X-0.625000X0.350000X0.625000X-0.350000X0.625000X0*%
%TD*%
%TA.AperFunction,ComponentPad*%
%ADD17O,1.200000X1.750000*%
%TD*%
%TA.AperFunction,ComponentPad*%
%ADD18RoundRect,0.250000X0.600000X0.725000X-0.600000X0.725000X-0.600000X-0.725000X0.600000X-0.725000X0*%
%TD*%
%TA.AperFunction,ComponentPad*%
%ADD19O,1.700000X1.950000*%
%TD*%
%TA.AperFunction,ViaPad*%
%ADD20C,0.600000*%
%TD*%
%TA.AperFunction,ViaPad*%
%ADD21C,0.800000*%
%TD*%
%TA.AperFunction,ViaPad*%
%ADD22C,0.400000*%
%TD*%
%TA.AperFunction,Conductor*%
%ADD23C,0.500000*%
%TD*%
%TA.AperFunction,Conductor*%
%ADD24C,0.300000*%
%TD*%
%TA.AperFunction,Conductor*%
%ADD25C,0.200000*%
%TD*%
%TA.AperFunction,Conductor*%
%ADD26C,1.000000*%
%TD*%
G04 APERTURE END LIST*
D10*
%TO.N,N/C*%
%TO.C,H4*%
X34500000Y-65500000D03*
%TD*%
D11*
%TO.N,/CAN_H*%
%TO.C,J5*%
X40500000Y-59850000D03*
D12*
%TO.N,Net-(J5-Pin_2)*%
X43040000Y-59850000D03*
%TD*%
D11*
%TO.N,Net-(J2-Pin_1)*%
%TO.C,J2*%
X68210000Y-45500000D03*
D12*
%TO.N,Net-(J2-Pin_2)*%
X65670000Y-45500000D03*
%TO.N,GND*%
X63130000Y-45500000D03*
%TD*%
D13*
%TO.N,GND*%
%TO.C,J1*%
X37125000Y-46430000D03*
D14*
X32925000Y-46430000D03*
D13*
X37125000Y-55070000D03*
D14*
X32925000Y-55070000D03*
%TD*%
D15*
%TO.N,GND*%
%TO.C,U6*%
X57550000Y-38150000D03*
X58850000Y-38150000D03*
X60150000Y-38150000D03*
X61450000Y-38150000D03*
X57550000Y-36850000D03*
X58850000Y-36850000D03*
X60150000Y-36850000D03*
X61450000Y-36850000D03*
%TD*%
D10*
%TO.N,N/C*%
%TO.C,H2*%
X65500000Y-34500000D03*
%TD*%
D16*
%TO.N,VBUS*%
%TO.C,J4*%
X53000000Y-63500000D03*
D17*
%TO.N,/CAN_H*%
X55000000Y-63500000D03*
%TO.N,/CAN_L*%
X57000000Y-63500000D03*
%TO.N,GND*%
X59000000Y-63500000D03*
%TD*%
D15*
%TO.N,GND*%
%TO.C,U7*%
X38550000Y-38150000D03*
X39850000Y-38150000D03*
X41150000Y-38150000D03*
X42450000Y-38150000D03*
X38550000Y-36850000D03*
X39850000Y-36850000D03*
X41150000Y-36850000D03*
X42450000Y-36850000D03*
%TD*%
D16*
%TO.N,VBUS*%
%TO.C,J3*%
X41000000Y-63500000D03*
D17*
%TO.N,/CAN_H*%
X43000000Y-63500000D03*
%TO.N,/CAN_L*%
X45000000Y-63500000D03*
%TO.N,GND*%
X47000000Y-63500000D03*
%TD*%
D10*
%TO.N,N/C*%
%TO.C,H3*%
X65500000Y-65500000D03*
%TD*%
D18*
%TO.N,/A2*%
%TO.C,J6*%
X53750000Y-39000000D03*
D19*
%TO.N,/A1*%
X51250000Y-39000000D03*
%TO.N,/B2*%
X48750000Y-39000000D03*
%TO.N,/B1*%
X46250000Y-39000000D03*
%TD*%
D10*
%TO.N,N/C*%
%TO.C,H1*%
X34500000Y-34500000D03*
%TD*%
D20*
%TO.N,+3.3V*%
X45680000Y-53390000D03*
X50240000Y-48730000D03*
D21*
X61575000Y-52150000D03*
D20*
X45640000Y-48590000D03*
X40965000Y-54350000D03*
X42002500Y-52302500D03*
X62426567Y-48625219D03*
D21*
X61405000Y-40200000D03*
D20*
X43760000Y-44400000D03*
X48600000Y-43990000D03*
X49600000Y-43990000D03*
D22*
X44410000Y-47190000D03*
D21*
X42405000Y-40450000D03*
D20*
X51330000Y-54210000D03*
X52415000Y-47410000D03*
D21*
X61050000Y-42295000D03*
%TO.N,GND*%
X34550000Y-40600000D03*
D20*
X48000000Y-59350000D03*
D21*
X57360000Y-45800000D03*
X67050000Y-42600000D03*
X39865000Y-35300000D03*
D20*
X37300000Y-60350000D03*
X39681250Y-45237500D03*
X44660000Y-42700000D03*
D21*
X52800000Y-55100000D03*
X32950000Y-38600000D03*
X50050000Y-63450000D03*
D20*
X49000000Y-50800000D03*
D21*
X61575000Y-50250000D03*
X34550000Y-42600000D03*
X31650000Y-48350000D03*
X35200000Y-49600000D03*
X64900000Y-59625000D03*
X54794881Y-51375000D03*
X58865000Y-35300000D03*
X60150000Y-64850000D03*
X58865000Y-34300000D03*
D20*
X42675000Y-46425000D03*
D21*
X32950000Y-40600000D03*
X66150000Y-58400000D03*
D20*
X40995000Y-53350000D03*
D21*
X60125000Y-53030000D03*
X39865000Y-34300000D03*
D20*
X52000000Y-57650000D03*
X61410000Y-32330000D03*
D21*
X54980000Y-54025000D03*
X43300000Y-67650000D03*
D20*
X47000000Y-50800000D03*
D21*
X46300000Y-42850000D03*
X50100000Y-67450000D03*
X65450000Y-42600000D03*
X34550000Y-38600000D03*
D20*
X47000000Y-44020000D03*
D21*
X54600000Y-68350000D03*
X68000000Y-52000000D03*
D20*
X37725000Y-53950000D03*
D21*
X61161372Y-60134644D03*
X55575000Y-49065000D03*
D20*
X48000000Y-52000000D03*
X46480000Y-57460000D03*
D21*
X47300000Y-40750000D03*
X31300000Y-58000000D03*
X67050000Y-40600000D03*
D20*
X37725000Y-47550000D03*
X44443750Y-46031250D03*
D21*
X59100000Y-54900000D03*
X53180000Y-46570000D03*
X67050000Y-38600000D03*
X63800000Y-58000000D03*
X32950000Y-42600000D03*
D20*
X42260000Y-43260000D03*
D21*
X51937500Y-59950000D03*
D20*
X50000000Y-57675000D03*
D21*
X50150000Y-34150000D03*
D20*
X39775000Y-43250000D03*
X47000000Y-52000000D03*
D21*
X31750000Y-53500000D03*
X65450000Y-40600000D03*
D20*
X46490000Y-60390000D03*
X68325000Y-62925000D03*
X48000000Y-50800000D03*
X40741268Y-48858732D03*
D21*
X53050000Y-31450000D03*
X40850000Y-57050000D03*
X65450000Y-38600000D03*
X58450000Y-58000000D03*
X37900000Y-63950000D03*
D20*
X38550000Y-32160000D03*
D21*
X57700000Y-67000000D03*
D20*
X50600000Y-44020000D03*
D21*
X33750000Y-58050000D03*
D20*
%TO.N,+1V1*%
X50727492Y-50799999D03*
X45411254Y-51461254D03*
D21*
%TO.N,VBUS*%
X31050000Y-40600000D03*
X55900000Y-36575000D03*
X68950000Y-42600000D03*
X42405000Y-35300000D03*
X31050000Y-38600000D03*
X36450000Y-38600000D03*
D20*
X39510000Y-32160000D03*
D21*
X55900000Y-37975000D03*
X36450000Y-40600000D03*
X42405000Y-34300000D03*
X63550000Y-38600000D03*
X61405000Y-35300000D03*
X68950000Y-40600000D03*
X44275000Y-40825000D03*
X31050000Y-42600000D03*
X68950000Y-38600000D03*
X61405000Y-34300000D03*
X47900000Y-31860000D03*
X63550000Y-40600000D03*
X63550000Y-42600000D03*
X36450000Y-42600000D03*
D20*
%TO.N,/USB_D+*%
X57010000Y-51500000D03*
X36863907Y-50499999D03*
%TO.N,/USB_D-*%
X57010000Y-52500000D03*
X38713632Y-51138490D03*
D21*
%TO.N,/B2*%
X38595000Y-34300000D03*
X38595000Y-35300000D03*
%TO.N,/B1*%
X41135000Y-34300000D03*
X41135000Y-35300000D03*
%TO.N,/A2*%
X57595000Y-34300000D03*
X57595000Y-35300000D03*
%TO.N,/A1*%
X60135000Y-34300000D03*
X60135000Y-35300000D03*
D20*
%TO.N,/NEOPIXEL*%
X38000000Y-57300000D03*
X43702569Y-48901594D03*
%TO.N,/A_CURRENT*%
X48359527Y-55525811D03*
D21*
X40965748Y-41834252D03*
X57595000Y-40200000D03*
D20*
%TO.N,/B_CURRENT*%
X49084474Y-55516833D03*
D21*
X38835000Y-41390000D03*
D20*
%TO.N,+5V*%
X59975000Y-58315000D03*
D21*
X63450000Y-53925000D03*
X68700000Y-61300000D03*
X36200000Y-61300000D03*
D20*
%TO.N,/SCL*%
X48636962Y-46275513D03*
%TO.N,/MT6701_PUSH*%
X44562500Y-48275000D03*
%TO.N,/SDA*%
X49257757Y-46650001D03*
%TO.N,/CAN_TX*%
X49446758Y-48724999D03*
X59975000Y-60855000D03*
%TO.N,/CAN_S*%
X43755882Y-53325000D03*
X55025000Y-60855000D03*
%TO.N,/CAN_RX*%
X50125000Y-45919492D03*
X59980000Y-57150000D03*
%TO.N,/MT6701_ANALOG*%
X49800000Y-55400000D03*
%TO.N,/VUSB*%
X38771232Y-52828768D03*
X62500000Y-55800000D03*
%TO.N,Net-(D1-DOUT)*%
X63800000Y-61300000D03*
X36200000Y-58000000D03*
%TO.N,Net-(U3-VOUT)*%
X49662500Y-60900000D03*
X64400000Y-55800000D03*
%TO.N,Net-(J2-Pin_2)*%
X43713536Y-52163993D03*
%TO.N,Net-(J2-Pin_1)*%
X45401422Y-52199539D03*
%TO.N,Net-(U1-RUN)*%
X68000000Y-56200000D03*
X42650000Y-54350000D03*
%TD*%
D23*
%TO.N,VBUS*%
X61405000Y-34300000D02*
X61405000Y-34226497D01*
X61405000Y-34226497D02*
X60528503Y-33350000D01*
X44275000Y-36145000D02*
X44275000Y-40825000D01*
X40265000Y-32160000D02*
X39510000Y-32160000D01*
X60528503Y-33350000D02*
X57075000Y-33350000D01*
X42405000Y-34300000D02*
X40265000Y-32160000D01*
X42405000Y-34300000D02*
X42405000Y-35300000D01*
X55900000Y-34525000D02*
X55900000Y-37975000D01*
X57075000Y-33350000D02*
X55900000Y-34525000D01*
X42405000Y-34275000D02*
X44275000Y-36145000D01*
D24*
%TO.N,/USB_D+*%
X38395433Y-50499999D02*
X39270432Y-49625000D01*
X39270432Y-49625000D02*
X54771397Y-49625000D01*
X54771397Y-49625000D02*
X56646397Y-51500000D01*
X36863907Y-50499999D02*
X38395433Y-50499999D01*
X56646397Y-51500000D02*
X57010000Y-51500000D01*
%TO.N,/USB_D-*%
X39456830Y-50075000D02*
X54585000Y-50075000D01*
X38713632Y-50818198D02*
X39456830Y-50075000D01*
X54585000Y-50075000D02*
X57010000Y-52500000D01*
X38713632Y-51138490D02*
X38713632Y-50818198D01*
D25*
%TO.N,/NEOPIXEL*%
X36200000Y-49750000D02*
X36200000Y-51000000D01*
X39450000Y-55850000D02*
X38000000Y-57300000D01*
X36200000Y-51000000D02*
X39450000Y-54250000D01*
X39450000Y-54250000D02*
X39450000Y-55850000D01*
X43702569Y-48901594D02*
X43134707Y-48333732D01*
X43134707Y-48333732D02*
X37616268Y-48333732D01*
X37616268Y-48333732D02*
X36200000Y-49750000D01*
D23*
%TO.N,/A_CURRENT*%
X57595000Y-40200000D02*
X55960748Y-41834252D01*
X55960748Y-41834252D02*
X40965748Y-41834252D01*
%TO.N,+5V*%
X48703248Y-61975000D02*
X64079595Y-61975000D01*
X63450000Y-55866116D02*
X63450000Y-53925000D01*
X64754595Y-61300000D02*
X68700000Y-61300000D01*
X36200000Y-61300000D02*
X48028248Y-61300000D01*
X63450000Y-53925000D02*
X63749999Y-53925000D01*
X63749999Y-53925000D02*
X68700000Y-58875001D01*
X68700000Y-58875001D02*
X68700000Y-61300000D01*
X48028248Y-61300000D02*
X48703248Y-61975000D01*
X61001116Y-58315000D02*
X63450000Y-55866116D01*
X59975000Y-58315000D02*
X61001116Y-58315000D01*
X64079595Y-61975000D02*
X64754595Y-61300000D01*
D24*
%TO.N,/VUSB*%
X42301827Y-56500000D02*
X61800000Y-56500000D01*
X38771232Y-52828768D02*
X38771232Y-52969405D01*
X38771232Y-52969405D02*
X42301827Y-56500000D01*
X61800000Y-56500000D02*
X62500000Y-55800000D01*
D25*
%TO.N,Net-(D1-DOUT)*%
X45400000Y-58000000D02*
X48850000Y-61450000D01*
X36200000Y-58000000D02*
X45400000Y-58000000D01*
X48850000Y-61450000D02*
X63650000Y-61450000D01*
X63650000Y-61450000D02*
X63800000Y-61300000D01*
D26*
%TO.N,/CAN_L*%
X45000000Y-63500000D02*
X45000000Y-63775000D01*
X46225000Y-65000000D02*
X55507412Y-65000000D01*
X45000000Y-63775000D02*
X46225000Y-65000000D01*
X57000000Y-63507412D02*
X57000000Y-63500000D01*
X55507412Y-65000000D02*
X57000000Y-63507412D01*
D23*
%TO.N,Net-(U3-VOUT)*%
X49662500Y-60900000D02*
X53862500Y-60900000D01*
X60025000Y-60175000D02*
X64400000Y-55800000D01*
X53862500Y-60900000D02*
X54587500Y-60175000D01*
X54587500Y-60175000D02*
X60025000Y-60175000D01*
D25*
%TO.N,Net-(J2-Pin_2)*%
X58426082Y-53374000D02*
X60776082Y-51024000D01*
X55460034Y-52699000D02*
X56135034Y-53374000D01*
X65670000Y-47578966D02*
X65670000Y-45500000D01*
X44941275Y-50936254D02*
X45686254Y-50936254D01*
X43713536Y-52163993D02*
X44941275Y-50936254D01*
X60776082Y-51024000D02*
X62224966Y-51024000D01*
X45686254Y-50936254D02*
X46050000Y-51300000D01*
X56135034Y-53374000D02*
X58426082Y-53374000D01*
X46050000Y-51300000D02*
X46050000Y-52387083D01*
X62224966Y-51024000D02*
X65670000Y-47578966D01*
X46361917Y-52699000D02*
X55460034Y-52699000D01*
X46050000Y-52387083D02*
X46361917Y-52699000D01*
%TO.N,Net-(J2-Pin_1)*%
X56000000Y-53700000D02*
X58561116Y-53700000D01*
X45401422Y-52199539D02*
X46226883Y-53025000D01*
X55325000Y-53025000D02*
X56000000Y-53700000D01*
X46226883Y-53025000D02*
X55325000Y-53025000D01*
X62360000Y-51350000D02*
X68210000Y-45500000D01*
X58561116Y-53700000D02*
X60911116Y-51350000D01*
X60911116Y-51350000D02*
X62360000Y-51350000D01*
%TO.N,Net-(U1-RUN)*%
X63796751Y-53300000D02*
X66696751Y-56200000D01*
X44425000Y-56125000D02*
X60325000Y-56125000D01*
X42650000Y-54350000D02*
X44425000Y-56125000D01*
X66696751Y-56200000D02*
X68000000Y-56200000D01*
X60325000Y-56125000D02*
X63150000Y-53300000D01*
X63150000Y-53300000D02*
X63796751Y-53300000D01*
%TD*%
%TA.AperFunction,Conductor*%
%TO.N,GND*%
G36*
X65106256Y-56061021D02*
G01*
X65117286Y-56070811D01*
X68113181Y-59066706D01*
X68146666Y-59128029D01*
X68149500Y-59154387D01*
X68149500Y-60625500D01*
X68129815Y-60692539D01*
X68077011Y-60738294D01*
X68025500Y-60749500D01*
X64682120Y-60749500D01*
X64583435Y-60775943D01*
X64542109Y-60787016D01*
X64416576Y-60859491D01*
X64400331Y-60875737D01*
X64339007Y-60909221D01*
X64269316Y-60904235D01*
X64224971Y-60875735D01*
X64168717Y-60819481D01*
X64168709Y-60819475D01*
X64031790Y-60740426D01*
X64031786Y-60740424D01*
X64031784Y-60740423D01*
X63879057Y-60699500D01*
X63720943Y-60699500D01*
X63568216Y-60740423D01*
X63568209Y-60740426D01*
X63431290Y-60819475D01*
X63431282Y-60819481D01*
X63319481Y-60931282D01*
X63319479Y-60931285D01*
X63287025Y-60987499D01*
X63236458Y-61035715D01*
X63179637Y-61049500D01*
X60699500Y-61049500D01*
X60632461Y-61029815D01*
X60586706Y-60977011D01*
X60575500Y-60925500D01*
X60575500Y-60775945D01*
X60575500Y-60775943D01*
X60534577Y-60623216D01*
X60516532Y-60591962D01*
X60500061Y-60524063D01*
X60522914Y-60458036D01*
X60536234Y-60442289D01*
X64592431Y-56386092D01*
X64625104Y-56364262D01*
X64624745Y-56363640D01*
X64631780Y-56359577D01*
X64631784Y-56359577D01*
X64768716Y-56280520D01*
X64880520Y-56168716D01*
X64922218Y-56096491D01*
X64972784Y-56048277D01*
X65041391Y-56035053D01*
X65106256Y-56061021D01*
G37*
%TD.AperFunction*%
%TA.AperFunction,Conductor*%
G36*
X40055703Y-54891425D02*
G01*
X40062181Y-54897457D01*
X42025213Y-56860489D01*
X42025214Y-56860490D01*
X42025216Y-56860491D01*
X42084520Y-56894729D01*
X42084523Y-56894732D01*
X42118764Y-56914500D01*
X42127941Y-56919799D01*
X42242518Y-56950500D01*
X59255500Y-56950500D01*
X59322539Y-56970185D01*
X59368294Y-57022989D01*
X59379500Y-57074500D01*
X59379500Y-57229057D01*
X59419693Y-57379057D01*
X59420423Y-57381783D01*
X59420426Y-57381790D01*
X59499475Y-57518709D01*
X59499479Y-57518714D01*
X59499480Y-57518716D01*
X59611284Y-57630520D01*
X59611286Y-57630521D01*
X59613586Y-57632286D01*
X59615036Y-57634272D01*
X59617031Y-57636267D01*
X59616720Y-57636577D01*
X59654789Y-57688713D01*
X59658944Y-57758459D01*
X59624732Y-57819380D01*
X59612226Y-57828866D01*
X59612735Y-57829530D01*
X59606282Y-57834481D01*
X59494481Y-57946282D01*
X59494475Y-57946290D01*
X59415426Y-58083209D01*
X59415423Y-58083216D01*
X59374500Y-58235943D01*
X59374500Y-58394057D01*
X59412799Y-58536989D01*
X59415423Y-58546783D01*
X59415426Y-58546790D01*
X59494475Y-58683709D01*
X59494479Y-58683714D01*
X59494480Y-58683716D01*
X59606284Y-58795520D01*
X59606286Y-58795521D01*
X59606290Y-58795524D01*
X59743209Y-58874573D01*
X59743216Y-58874577D01*
X59895943Y-58915500D01*
X59895945Y-58915500D01*
X60054055Y-58915500D01*
X60054057Y-58915500D01*
X60206784Y-58874577D01*
X60206785Y-58874576D01*
X60214635Y-58872473D01*
X60214746Y-58872888D01*
X60218428Y-58870523D01*
X60253363Y-58865500D01*
X60256613Y-58865500D01*
X60323652Y-58885185D01*
X60369407Y-58937989D01*
X60379351Y-59007147D01*
X60350326Y-59070703D01*
X60344294Y-59077181D01*
X59833294Y-59588181D01*
X59771971Y-59621666D01*
X59745613Y-59624500D01*
X54515025Y-59624500D01*
X54410017Y-59652637D01*
X54375014Y-59662016D01*
X54249486Y-59734489D01*
X54249483Y-59734491D01*
X53670794Y-60313181D01*
X53609471Y-60346666D01*
X53583113Y-60349500D01*
X49940863Y-60349500D01*
X49902320Y-60341834D01*
X49902135Y-60342527D01*
X49894285Y-60340423D01*
X49894284Y-60340423D01*
X49741557Y-60299500D01*
X49583443Y-60299500D01*
X49430716Y-60340423D01*
X49430709Y-60340426D01*
X49293790Y-60419475D01*
X49293782Y-60419481D01*
X49181981Y-60531282D01*
X49181975Y-60531290D01*
X49102926Y-60668209D01*
X49102923Y-60668216D01*
X49062394Y-60819475D01*
X49059897Y-60828793D01*
X49056856Y-60827978D01*
X49034542Y-60878323D01*
X48976190Y-60916752D01*
X48906325Y-60917533D01*
X48852246Y-60885854D01*
X45645915Y-57679522D01*
X45645914Y-57679521D01*
X45645913Y-57679520D01*
X45600250Y-57653156D01*
X45554589Y-57626793D01*
X45503657Y-57613146D01*
X45452727Y-57599500D01*
X45452726Y-57599500D01*
X38703032Y-57599500D01*
X38686388Y-57594612D01*
X38669045Y-57594751D01*
X38653561Y-57584973D01*
X38635993Y-57579815D01*
X38624635Y-57566707D01*
X38609969Y-57557446D01*
X38602229Y-57540849D01*
X38590238Y-57527011D01*
X38587667Y-57509624D01*
X38580439Y-57494124D01*
X38581787Y-57469853D01*
X38580158Y-57458831D01*
X38581217Y-57451019D01*
X38600500Y-57379057D01*
X38600500Y-57308884D01*
X38601626Y-57300584D01*
X38612605Y-57276026D01*
X38620185Y-57250214D01*
X38629083Y-57239171D01*
X38630144Y-57236799D01*
X38631943Y-57235622D01*
X38636814Y-57229576D01*
X39685703Y-56180687D01*
X39685708Y-56180684D01*
X39695911Y-56170480D01*
X39695913Y-56170480D01*
X39770480Y-56095913D01*
X39823207Y-56004587D01*
X39825145Y-55997353D01*
X39850501Y-55902727D01*
X39850501Y-55797273D01*
X39850500Y-55797269D01*
X39850500Y-54985138D01*
X39870185Y-54918099D01*
X39922989Y-54872344D01*
X39992147Y-54862400D01*
X40055703Y-54891425D01*
G37*
%TD.AperFunction*%
%TA.AperFunction,Conductor*%
G36*
X50084800Y-50545185D02*
G01*
X50130555Y-50597989D01*
X50140499Y-50667147D01*
X50137538Y-50681581D01*
X50126992Y-50720942D01*
X50126992Y-50879056D01*
X50165559Y-51022988D01*
X50167915Y-51031782D01*
X50167918Y-51031789D01*
X50246967Y-51168708D01*
X50246971Y-51168713D01*
X50246972Y-51168715D01*
X50358776Y-51280519D01*
X50358778Y-51280520D01*
X50358782Y-51280523D01*
X50483845Y-51352727D01*
X50495708Y-51359576D01*
X50648435Y-51400499D01*
X50648437Y-51400499D01*
X50806547Y-51400499D01*
X50806549Y-51400499D01*
X50959276Y-51359576D01*
X51096208Y-51280519D01*
X51208012Y-51168715D01*
X51287069Y-51031783D01*
X51327992Y-50879056D01*
X51327992Y-50720942D01*
X51317448Y-50681591D01*
X51319111Y-50611744D01*
X51358273Y-50553881D01*
X51422502Y-50526377D01*
X51437223Y-50525500D01*
X54347035Y-50525500D01*
X54414074Y-50545185D01*
X54434716Y-50561819D01*
X56373299Y-52500402D01*
X56406784Y-52561725D01*
X56408556Y-52571893D01*
X56409498Y-52579050D01*
X56422470Y-52627465D01*
X56450423Y-52731784D01*
X56461037Y-52750169D01*
X56482591Y-52787501D01*
X56484022Y-52793402D01*
X56487997Y-52797989D01*
X56492161Y-52826951D01*
X56499063Y-52855401D01*
X56497077Y-52861138D01*
X56497941Y-52867147D01*
X56485783Y-52893768D01*
X56476210Y-52921428D01*
X56471437Y-52925180D01*
X56468916Y-52930703D01*
X56444293Y-52946526D01*
X56421288Y-52964618D01*
X56413938Y-52966034D01*
X56410138Y-52968477D01*
X56375203Y-52973500D01*
X56352289Y-52973500D01*
X56285250Y-52953815D01*
X56264608Y-52937181D01*
X55705949Y-52378522D01*
X55705947Y-52378520D01*
X55653515Y-52348248D01*
X55614623Y-52325793D01*
X55563691Y-52312146D01*
X55512761Y-52298500D01*
X55512760Y-52298500D01*
X46579172Y-52298500D01*
X46549731Y-52289855D01*
X46519745Y-52283332D01*
X46514729Y-52279577D01*
X46512133Y-52278815D01*
X46491491Y-52262181D01*
X46486819Y-52257509D01*
X46453334Y-52196186D01*
X46450500Y-52169828D01*
X46450500Y-51362729D01*
X46450501Y-51362716D01*
X46450501Y-51247276D01*
X46450501Y-51247274D01*
X46423207Y-51145413D01*
X46399347Y-51104087D01*
X46399346Y-51104085D01*
X46399346Y-51104084D01*
X46370482Y-51054090D01*
X46370478Y-51054085D01*
X46053574Y-50737181D01*
X46020089Y-50675858D01*
X46025073Y-50606166D01*
X46066945Y-50550233D01*
X46132409Y-50525816D01*
X46141255Y-50525500D01*
X50017761Y-50525500D01*
X50084800Y-50545185D01*
G37*
%TD.AperFunction*%
%TA.AperFunction,Conductor*%
G36*
X42984491Y-48753917D02*
G01*
X43005133Y-48770551D01*
X43065750Y-48831168D01*
X43077349Y-48852409D01*
X43092563Y-48871235D01*
X43096942Y-48888292D01*
X43099235Y-48892491D01*
X43100110Y-48900629D01*
X43101340Y-48905420D01*
X43102069Y-48912111D01*
X43102069Y-48980651D01*
X43114651Y-49027608D01*
X43115682Y-49037071D01*
X43103373Y-49105848D01*
X43055835Y-49157052D01*
X42992411Y-49174500D01*
X39211123Y-49174500D01*
X39130583Y-49196080D01*
X39096541Y-49205202D01*
X39096540Y-49205203D01*
X39061009Y-49225718D01*
X39061007Y-49225719D01*
X38993824Y-49264506D01*
X38993816Y-49264512D01*
X38245149Y-50013180D01*
X38183826Y-50046665D01*
X38157468Y-50049499D01*
X37313838Y-50049499D01*
X37246799Y-50029814D01*
X37238350Y-50023874D01*
X37232616Y-50019474D01*
X37095697Y-49940425D01*
X37095693Y-49940423D01*
X37095691Y-49940422D01*
X36942964Y-49899499D01*
X36916256Y-49899499D01*
X36849217Y-49879814D01*
X36803462Y-49827010D01*
X36793518Y-49757852D01*
X36822543Y-49694296D01*
X36828575Y-49687818D01*
X37745842Y-48770551D01*
X37807165Y-48737066D01*
X37833523Y-48734232D01*
X42917452Y-48734232D01*
X42984491Y-48753917D01*
G37*
%TD.AperFunction*%
%TA.AperFunction,Conductor*%
G36*
X66932627Y-30220185D02*
G01*
X66953269Y-30236819D01*
X69763181Y-33046731D01*
X69796666Y-33108054D01*
X69799500Y-33134412D01*
X69799500Y-38201725D01*
X69779815Y-38268764D01*
X69727011Y-38314519D01*
X69657853Y-38324463D01*
X69594297Y-38295438D01*
X69572398Y-38270616D01*
X69494114Y-38153458D01*
X69494111Y-38153454D01*
X69396545Y-38055888D01*
X69396541Y-38055885D01*
X69281817Y-37979228D01*
X69281804Y-37979221D01*
X69154332Y-37926421D01*
X69154322Y-37926418D01*
X69018995Y-37899500D01*
X69018993Y-37899500D01*
X68881007Y-37899500D01*
X68881005Y-37899500D01*
X68745677Y-37926418D01*
X68745667Y-37926421D01*
X68618195Y-37979221D01*
X68618182Y-37979228D01*
X68503458Y-38055885D01*
X68503454Y-38055888D01*
X68405888Y-38153454D01*
X68405885Y-38153458D01*
X68329228Y-38268182D01*
X68329221Y-38268195D01*
X68276421Y-38395667D01*
X68276418Y-38395677D01*
X68249500Y-38531004D01*
X68249500Y-38531007D01*
X68249500Y-38668993D01*
X68249500Y-38668995D01*
X68249499Y-38668995D01*
X68276418Y-38804322D01*
X68276421Y-38804332D01*
X68329221Y-38931804D01*
X68329228Y-38931817D01*
X68405885Y-39046541D01*
X68405888Y-39046545D01*
X68503454Y-39144111D01*
X68503458Y-39144114D01*
X68618182Y-39220771D01*
X68618195Y-39220778D01*
X68716571Y-39261526D01*
X68745672Y-39273580D01*
X68745676Y-39273580D01*
X68745677Y-39273581D01*
X68881004Y-39300500D01*
X68881007Y-39300500D01*
X69018995Y-39300500D01*
X69110041Y-39282389D01*
X69154328Y-39273580D01*
X69281811Y-39220775D01*
X69396542Y-39144114D01*
X69494114Y-39046542D01*
X69533553Y-38987516D01*
X69572398Y-38929383D01*
X69626010Y-38884578D01*
X69695335Y-38875871D01*
X69758363Y-38906026D01*
X69795082Y-38965469D01*
X69799500Y-38998274D01*
X69799500Y-40201725D01*
X69779815Y-40268764D01*
X69727011Y-40314519D01*
X69657853Y-40324463D01*
X69594297Y-40295438D01*
X69572398Y-40270616D01*
X69494114Y-40153458D01*
X69494111Y-40153454D01*
X69396545Y-40055888D01*
X69396541Y-40055885D01*
X69281817Y-39979228D01*
X69281804Y-39979221D01*
X69154332Y-39926421D01*
X69154322Y-39926418D01*
X69018995Y-39899500D01*
X69018993Y-39899500D01*
X68881007Y-39899500D01*
X68881005Y-39899500D01*
X68745677Y-39926418D01*
X68745667Y-39926421D01*
X68618195Y-39979221D01*
X68618182Y-39979228D01*
X68503458Y-40055885D01*
X68503454Y-40055888D01*
X68405888Y-40153454D01*
X68405885Y-40153458D01*
X68329228Y-40268182D01*
X68329221Y-40268195D01*
X68276421Y-40395667D01*
X68276418Y-40395677D01*
X68249500Y-40531004D01*
X68249500Y-40531007D01*
X68249500Y-40668993D01*
X68249500Y-40668995D01*
X68249499Y-40668995D01*
X68276418Y-40804322D01*
X68276421Y-40804332D01*
X68329221Y-40931804D01*
X68329228Y-40931817D01*
X68405885Y-41046541D01*
X68405888Y-41046545D01*
X68503454Y-41144111D01*
X68503458Y-41144114D01*
X68618182Y-41220771D01*
X68618195Y-41220778D01*
X68740752Y-41271542D01*
X68745672Y-41273580D01*
X68745676Y-41273580D01*
X68745677Y-41273581D01*
X68881004Y-41300500D01*
X68881007Y-41300500D01*
X69018995Y-41300500D01*
X69110041Y-41282389D01*
X69154328Y-41273580D01*
X69281811Y-41220775D01*
X69396542Y-41144114D01*
X69494114Y-41046542D01*
X69533553Y-40987516D01*
X69572398Y-40929383D01*
X69626010Y-40884578D01*
X69695335Y-40875871D01*
X69758363Y-40906026D01*
X69795082Y-40965469D01*
X69799500Y-40998274D01*
X69799500Y-42201725D01*
X69779815Y-42268764D01*
X69727011Y-42314519D01*
X69657853Y-42324463D01*
X69594297Y-42295438D01*
X69572398Y-42270616D01*
X69494114Y-42153458D01*
X69494111Y-42153454D01*
X69396545Y-42055888D01*
X69396541Y-42055885D01*
X69281817Y-41979228D01*
X69281804Y-41979221D01*
X69154332Y-41926421D01*
X69154322Y-41926418D01*
X69018995Y-41899500D01*
X69018993Y-41899500D01*
X68881007Y-41899500D01*
X68881005Y-41899500D01*
X68745677Y-41926418D01*
X68745667Y-41926421D01*
X68618195Y-41979221D01*
X68618182Y-41979228D01*
X68503458Y-42055885D01*
X68503454Y-42055888D01*
X68405888Y-42153454D01*
X68405885Y-42153458D01*
X68329228Y-42268182D01*
X68329221Y-42268195D01*
X68276421Y-42395667D01*
X68276418Y-42395677D01*
X68249500Y-42531004D01*
X68249500Y-42531007D01*
X68249500Y-42668993D01*
X68249500Y-42668995D01*
X68249499Y-42668995D01*
X68276418Y-42804322D01*
X68276421Y-42804332D01*
X68329221Y-42931804D01*
X68329228Y-42931817D01*
X68405885Y-43046541D01*
X68405888Y-43046545D01*
X68503454Y-43144111D01*
X68503458Y-43144114D01*
X68618182Y-43220771D01*
X68618195Y-43220778D01*
X68745667Y-43273578D01*
X68745672Y-43273580D01*
X68745676Y-43273580D01*
X68745677Y-43273581D01*
X68881004Y-43300500D01*
X68881007Y-43300500D01*
X69018995Y-43300500D01*
X69110041Y-43282389D01*
X69154328Y-43273580D01*
X69281811Y-43220775D01*
X69396542Y-43144114D01*
X69494114Y-43046542D01*
X69546208Y-42968578D01*
X69572398Y-42929383D01*
X69626010Y-42884578D01*
X69695335Y-42875871D01*
X69758363Y-42906026D01*
X69795082Y-42965469D01*
X69799500Y-42998274D01*
X69799500Y-66865588D01*
X69779815Y-66932627D01*
X69763181Y-66953269D01*
X66953269Y-69763181D01*
X66891946Y-69796666D01*
X66865588Y-69799500D01*
X33134412Y-69799500D01*
X33067373Y-69779815D01*
X33046731Y-69763181D01*
X30236819Y-66953269D01*
X30203334Y-66891946D01*
X30200500Y-66865588D01*
X30200500Y-65325875D01*
X31399500Y-65325875D01*
X31399500Y-65674124D01*
X31438489Y-66020158D01*
X31438491Y-66020170D01*
X31515982Y-66359684D01*
X31515985Y-66359692D01*
X31630999Y-66688382D01*
X31782092Y-67002130D01*
X31967371Y-67296999D01*
X31967372Y-67297001D01*
X32184487Y-67569256D01*
X32430743Y-67815512D01*
X32702998Y-68032627D01*
X32703001Y-68032628D01*
X32703003Y-68032630D01*
X32997867Y-68217906D01*
X33311621Y-68369002D01*
X33558488Y-68455384D01*
X33640307Y-68484014D01*
X33640315Y-68484017D01*
X33640318Y-68484017D01*
X33640319Y-68484018D01*
X33979829Y-68561509D01*
X34325876Y-68600499D01*
X34325877Y-68600500D01*
X34325880Y-68600500D01*
X34674123Y-68600500D01*
X34674123Y-68600499D01*
X35020171Y-68561509D01*
X35359681Y-68484018D01*
X35688379Y-68369002D01*
X36002133Y-68217906D01*
X36296997Y-68032630D01*
X36297001Y-68032627D01*
X36569256Y-67815512D01*
X36569258Y-67815509D01*
X36569263Y-67815506D01*
X36815506Y-67569263D01*
X37032630Y-67296997D01*
X37217906Y-67002133D01*
X37369002Y-66688379D01*
X37484018Y-66359681D01*
X37561509Y-66020171D01*
X37600500Y-65674120D01*
X37600500Y-65325880D01*
X37561509Y-64979829D01*
X37484018Y-64640319D01*
X37369002Y-64311621D01*
X37217906Y-63997867D01*
X37032630Y-63703003D01*
X37032628Y-63703000D01*
X37032627Y-63702998D01*
X36815512Y-63430743D01*
X36569256Y-63184487D01*
X36297001Y-62967372D01*
X36296999Y-62967371D01*
X36002130Y-62782092D01*
X35688382Y-62630999D01*
X35359692Y-62515985D01*
X35359684Y-62515982D01*
X35105048Y-62457863D01*
X35020171Y-62438491D01*
X35020167Y-62438490D01*
X35020158Y-62438489D01*
X34674124Y-62399500D01*
X34674120Y-62399500D01*
X34325880Y-62399500D01*
X34325875Y-62399500D01*
X33979841Y-62438489D01*
X33979829Y-62438491D01*
X33640315Y-62515982D01*
X33640307Y-62515985D01*
X33311617Y-62630999D01*
X32997869Y-62782092D01*
X32703000Y-62967371D01*
X32702998Y-62967372D01*
X32430743Y-63184487D01*
X32184487Y-63430743D01*
X31967372Y-63702998D01*
X31967371Y-63703000D01*
X31782092Y-63997869D01*
X31630999Y-64311617D01*
X31515985Y-64640307D01*
X31515982Y-64640315D01*
X31438491Y-64979829D01*
X31438489Y-64979841D01*
X31399500Y-65325875D01*
X30200500Y-65325875D01*
X30200500Y-61368995D01*
X35499499Y-61368995D01*
X35526418Y-61504322D01*
X35526421Y-61504332D01*
X35579221Y-61631804D01*
X35579228Y-61631817D01*
X35655885Y-61746541D01*
X35655888Y-61746545D01*
X35753454Y-61844111D01*
X35753458Y-61844114D01*
X35868182Y-61920771D01*
X35868195Y-61920778D01*
X35995667Y-61973578D01*
X35995672Y-61973580D01*
X35995676Y-61973580D01*
X35995677Y-61973581D01*
X36131004Y-62000500D01*
X36131007Y-62000500D01*
X36268995Y-62000500D01*
X36360041Y-61982389D01*
X36404328Y-61973580D01*
X36531811Y-61920775D01*
X36605709Y-61871398D01*
X36672386Y-61850520D01*
X36674600Y-61850500D01*
X47748861Y-61850500D01*
X47815900Y-61870185D01*
X47836542Y-61886819D01*
X48365233Y-62415510D01*
X48490763Y-62487984D01*
X48630773Y-62525500D01*
X52013873Y-62525500D01*
X52080912Y-62545185D01*
X52126667Y-62597989D01*
X52136611Y-62667147D01*
X52129228Y-62694990D01*
X52110122Y-62743438D01*
X52107987Y-62761220D01*
X52099500Y-62831898D01*
X52099500Y-62831903D01*
X52099500Y-64075500D01*
X52079815Y-64142539D01*
X52027011Y-64188294D01*
X51975500Y-64199500D01*
X46607940Y-64199500D01*
X46540901Y-64179815D01*
X46520259Y-64163181D01*
X45936819Y-63579741D01*
X45903334Y-63518418D01*
X45900500Y-63492060D01*
X45900500Y-63136306D01*
X45900499Y-63136304D01*
X45865896Y-62962341D01*
X45865893Y-62962332D01*
X45798016Y-62798459D01*
X45798009Y-62798446D01*
X45699464Y-62650965D01*
X45699461Y-62650961D01*
X45574038Y-62525538D01*
X45574034Y-62525535D01*
X45426553Y-62426990D01*
X45426540Y-62426983D01*
X45262667Y-62359106D01*
X45262658Y-62359103D01*
X45088694Y-62324500D01*
X45088691Y-62324500D01*
X44911309Y-62324500D01*
X44911306Y-62324500D01*
X44737341Y-62359103D01*
X44737332Y-62359106D01*
X44573459Y-62426983D01*
X44573446Y-62426990D01*
X44425965Y-62525535D01*
X44425961Y-62525538D01*
X44300538Y-62650961D01*
X44300535Y-62650965D01*
X44201990Y-62798446D01*
X44201983Y-62798459D01*
X44134106Y-62962332D01*
X44134104Y-62962340D01*
X44121617Y-63025118D01*
X44089232Y-63087028D01*
X44028516Y-63121603D01*
X43958747Y-63117863D01*
X43902075Y-63076996D01*
X43878383Y-63025118D01*
X43865895Y-62962340D01*
X43865894Y-62962334D01*
X43841284Y-62902919D01*
X43798016Y-62798459D01*
X43798009Y-62798446D01*
X43699464Y-62650965D01*
X43699461Y-62650961D01*
X43574038Y-62525538D01*
X43574034Y-62525535D01*
X43426553Y-62426990D01*
X43426540Y-62426983D01*
X43262667Y-62359106D01*
X43262658Y-62359103D01*
X43088694Y-62324500D01*
X43088691Y-62324500D01*
X42911309Y-62324500D01*
X42911306Y-62324500D01*
X42737341Y-62359103D01*
X42737332Y-62359106D01*
X42573459Y-62426983D01*
X42573446Y-62426990D01*
X42425965Y-62525535D01*
X42425961Y-62525538D01*
X42300538Y-62650961D01*
X42300535Y-62650965D01*
X42201990Y-62798446D01*
X42201983Y-62798459D01*
X42139061Y-62950371D01*
X42095221Y-63004775D01*
X42028927Y-63026840D01*
X41961227Y-63009561D01*
X41913616Y-62958424D01*
X41900500Y-62902919D01*
X41900500Y-62831903D01*
X41900500Y-62831898D01*
X41889877Y-62743436D01*
X41834361Y-62602658D01*
X41834360Y-62602657D01*
X41834360Y-62602656D01*
X41742922Y-62482077D01*
X41622343Y-62390639D01*
X41526192Y-62352722D01*
X41481564Y-62335123D01*
X41481563Y-62335122D01*
X41481561Y-62335122D01*
X41435926Y-62329642D01*
X41393102Y-62324500D01*
X40606898Y-62324500D01*
X40567853Y-62329188D01*
X40518438Y-62335122D01*
X40377656Y-62390639D01*
X40257077Y-62482077D01*
X40165639Y-62602656D01*
X40110122Y-62743438D01*
X40107987Y-62761220D01*
X40099500Y-62831898D01*
X40099500Y-64168102D01*
X40103516Y-64201541D01*
X40110122Y-64256561D01*
X40165639Y-64397343D01*
X40257077Y-64517922D01*
X40377656Y-64609360D01*
X40377657Y-64609360D01*
X40377658Y-64609361D01*
X40518436Y-64664877D01*
X40606898Y-64675500D01*
X40606903Y-64675500D01*
X41393097Y-64675500D01*
X41393102Y-64675500D01*
X41481564Y-64664877D01*
X41622342Y-64609361D01*
X41742922Y-64517922D01*
X41834361Y-64397342D01*
X41889877Y-64256564D01*
X41900500Y-64168102D01*
X41900500Y-64097080D01*
X41920185Y-64030041D01*
X41972989Y-63984286D01*
X42042147Y-63974342D01*
X42105703Y-64003367D01*
X42139061Y-64049628D01*
X42201983Y-64201541D01*
X42201990Y-64201553D01*
X42300535Y-64349034D01*
X42300538Y-64349038D01*
X42425961Y-64474461D01*
X42425965Y-64474464D01*
X42573446Y-64573009D01*
X42573459Y-64573016D01*
X42696363Y-64623923D01*
X42737334Y-64640894D01*
X42737336Y-64640894D01*
X42737341Y-64640896D01*
X42911304Y-64675499D01*
X42911307Y-64675500D01*
X42911309Y-64675500D01*
X43088693Y-64675500D01*
X43088694Y-64675499D01*
X43187493Y-64655847D01*
X43262658Y-64640896D01*
X43262661Y-64640894D01*
X43262666Y-64640894D01*
X43426547Y-64573013D01*
X43574035Y-64474464D01*
X43699464Y-64349035D01*
X43798013Y-64201547D01*
X43865894Y-64037666D01*
X43873811Y-63997869D01*
X43878383Y-63974882D01*
X43910768Y-63912971D01*
X43971483Y-63878397D01*
X44041253Y-63882136D01*
X44097925Y-63923003D01*
X44121617Y-63974882D01*
X44134103Y-64037658D01*
X44134106Y-64037667D01*
X44201983Y-64201540D01*
X44201990Y-64201553D01*
X44300535Y-64349034D01*
X44300538Y-64349038D01*
X44425961Y-64474461D01*
X44425965Y-64474464D01*
X44573449Y-64573011D01*
X44573451Y-64573011D01*
X44573453Y-64573013D01*
X44708540Y-64628967D01*
X44748769Y-64655847D01*
X45714707Y-65621786D01*
X45714711Y-65621789D01*
X45845814Y-65709390D01*
X45845818Y-65709392D01*
X45845821Y-65709394D01*
X45991503Y-65769738D01*
X46146153Y-65800499D01*
X46146157Y-65800500D01*
X46146158Y-65800500D01*
X55586256Y-65800500D01*
X55586257Y-65800499D01*
X55740909Y-65769737D01*
X55886591Y-65709394D01*
X56017701Y-65621789D01*
X56927671Y-64711819D01*
X56988994Y-64678334D01*
X57015352Y-64675500D01*
X57088693Y-64675500D01*
X57088694Y-64675499D01*
X57187493Y-64655847D01*
X57262658Y-64640896D01*
X57262661Y-64640894D01*
X57262666Y-64640894D01*
X57426547Y-64573013D01*
X57574035Y-64474464D01*
X57699464Y-64349035D01*
X57798013Y-64201547D01*
X57865894Y-64037666D01*
X57900500Y-63863691D01*
X57900500Y-63136309D01*
X57900500Y-63136306D01*
X57900499Y-63136304D01*
X57865896Y-62962341D01*
X57865893Y-62962332D01*
X57798016Y-62798459D01*
X57798012Y-62798452D01*
X57787082Y-62782094D01*
X57744516Y-62718390D01*
X57723639Y-62651714D01*
X57742123Y-62584334D01*
X57794102Y-62537643D01*
X57847619Y-62525500D01*
X63987410Y-62525500D01*
X64054449Y-62545185D01*
X64100204Y-62597989D01*
X64110148Y-62667147D01*
X64081123Y-62730703D01*
X64041211Y-62761220D01*
X63997872Y-62782090D01*
X63703000Y-62967371D01*
X63702998Y-62967372D01*
X63430743Y-63184487D01*
X63184487Y-63430743D01*
X62967372Y-63702998D01*
X62967371Y-63703000D01*
X62782092Y-63997869D01*
X62630999Y-64311617D01*
X62515985Y-64640307D01*
X62515982Y-64640315D01*
X62438491Y-64979829D01*
X62438489Y-64979841D01*
X62399500Y-65325875D01*
X62399500Y-65674124D01*
X62438489Y-66020158D01*
X62438491Y-66020170D01*
X62515982Y-66359684D01*
X62515985Y-66359692D01*
X62630999Y-66688382D01*
X62782092Y-67002130D01*
X62967371Y-67296999D01*
X62967372Y-67297001D01*
X63184487Y-67569256D01*
X63430743Y-67815512D01*
X63702998Y-68032627D01*
X63703001Y-68032628D01*
X63703003Y-68032630D01*
X63997867Y-68217906D01*
X64311621Y-68369002D01*
X64558488Y-68455384D01*
X64640307Y-68484014D01*
X64640315Y-68484017D01*
X64640318Y-68484017D01*
X64640319Y-68484018D01*
X64979829Y-68561509D01*
X65325876Y-68600499D01*
X65325877Y-68600500D01*
X65325880Y-68600500D01*
X65674123Y-68600500D01*
X65674123Y-68600499D01*
X66020171Y-68561509D01*
X66359681Y-68484018D01*
X66688379Y-68369002D01*
X67002133Y-68217906D01*
X67296997Y-68032630D01*
X67297001Y-68032627D01*
X67569256Y-67815512D01*
X67569258Y-67815509D01*
X67569263Y-67815506D01*
X67815506Y-67569263D01*
X68032630Y-67296997D01*
X68217906Y-67002133D01*
X68369002Y-66688379D01*
X68484018Y-66359681D01*
X68561509Y-66020171D01*
X68600500Y-65674120D01*
X68600500Y-65325880D01*
X68561509Y-64979829D01*
X68484018Y-64640319D01*
X68369002Y-64311621D01*
X68217906Y-63997867D01*
X68032630Y-63703003D01*
X68032628Y-63703000D01*
X68032627Y-63702998D01*
X67815512Y-63430743D01*
X67569256Y-63184487D01*
X67297001Y-62967372D01*
X67296999Y-62967371D01*
X67002130Y-62782092D01*
X66688382Y-62630999D01*
X66359692Y-62515985D01*
X66359684Y-62515982D01*
X66105048Y-62457863D01*
X66020171Y-62438491D01*
X66020167Y-62438490D01*
X66020158Y-62438489D01*
X65674124Y-62399500D01*
X65674120Y-62399500D01*
X65325880Y-62399500D01*
X65325875Y-62399500D01*
X64979841Y-62438489D01*
X64979825Y-62438491D01*
X64641179Y-62515785D01*
X64571441Y-62511512D01*
X64515083Y-62470213D01*
X64490000Y-62405001D01*
X64504154Y-62336580D01*
X64525903Y-62307216D01*
X64946301Y-61886819D01*
X65007624Y-61853334D01*
X65033982Y-61850500D01*
X68225400Y-61850500D01*
X68292439Y-61870185D01*
X68294291Y-61871398D01*
X68368189Y-61920775D01*
X68368191Y-61920776D01*
X68368195Y-61920778D01*
X68495667Y-61973578D01*
X68495672Y-61973580D01*
X68495676Y-61973580D01*
X68495677Y-61973581D01*
X68631004Y-62000500D01*
X68631007Y-62000500D01*
X68768995Y-62000500D01*
X68860041Y-61982389D01*
X68904328Y-61973580D01*
X69031811Y-61920775D01*
X69146542Y-61844114D01*
X69244114Y-61746542D01*
X69320775Y-61631811D01*
X69373580Y-61504328D01*
X69400500Y-61368993D01*
X69400500Y-61231007D01*
X69400500Y-61231004D01*
X69373581Y-61095677D01*
X69373580Y-61095676D01*
X69373580Y-61095672D01*
X69354455Y-61049500D01*
X69320778Y-60968195D01*
X69320771Y-60968182D01*
X69271398Y-60894290D01*
X69250520Y-60827612D01*
X69250500Y-60825399D01*
X69250500Y-58802528D01*
X69250500Y-58802526D01*
X69212984Y-58662516D01*
X69177178Y-58600499D01*
X69140511Y-58536989D01*
X69140506Y-58536983D01*
X67475707Y-56872184D01*
X67442222Y-56810861D01*
X67447206Y-56741169D01*
X67489078Y-56685236D01*
X67554542Y-56660819D01*
X67622815Y-56675671D01*
X67625388Y-56677116D01*
X67631284Y-56680520D01*
X67768216Y-56759577D01*
X67920943Y-56800500D01*
X67920945Y-56800500D01*
X68079055Y-56800500D01*
X68079057Y-56800500D01*
X68231784Y-56759577D01*
X68368716Y-56680520D01*
X68480520Y-56568716D01*
X68559577Y-56431784D01*
X68600500Y-56279057D01*
X68600500Y-56120943D01*
X68559577Y-55968216D01*
X68524727Y-55907853D01*
X68480524Y-55831290D01*
X68480518Y-55831282D01*
X68368717Y-55719481D01*
X68368709Y-55719475D01*
X68231790Y-55640426D01*
X68231786Y-55640424D01*
X68231784Y-55640423D01*
X68079057Y-55599500D01*
X67920943Y-55599500D01*
X67768216Y-55640423D01*
X67768209Y-55640426D01*
X67631290Y-55719475D01*
X67631282Y-55719481D01*
X67587583Y-55763181D01*
X67526260Y-55796666D01*
X67499902Y-55799500D01*
X66914006Y-55799500D01*
X66846967Y-55779815D01*
X66826325Y-55763181D01*
X64042666Y-52979522D01*
X64042664Y-52979520D01*
X63985517Y-52946526D01*
X63951340Y-52926793D01*
X63900408Y-52913146D01*
X63849478Y-52899500D01*
X63097273Y-52899500D01*
X62995413Y-52926793D01*
X62995410Y-52926794D01*
X62920229Y-52970199D01*
X62920230Y-52970200D01*
X62904085Y-52979521D01*
X60195426Y-55688181D01*
X60134103Y-55721666D01*
X60107745Y-55724500D01*
X50496333Y-55724500D01*
X50429294Y-55704815D01*
X50383539Y-55652011D01*
X50373595Y-55582853D01*
X50376554Y-55568422D01*
X50400500Y-55479057D01*
X50400500Y-55320943D01*
X50359577Y-55168216D01*
X50353155Y-55157093D01*
X50280524Y-55031290D01*
X50280518Y-55031282D01*
X50168717Y-54919481D01*
X50168709Y-54919475D01*
X50031790Y-54840426D01*
X50031786Y-54840424D01*
X50031784Y-54840423D01*
X49879057Y-54799500D01*
X49720943Y-54799500D01*
X49568216Y-54840423D01*
X49568209Y-54840426D01*
X49431283Y-54919479D01*
X49427795Y-54922967D01*
X49366468Y-54956445D01*
X49308030Y-54955051D01*
X49188289Y-54922967D01*
X49163531Y-54916333D01*
X49005417Y-54916333D01*
X48852690Y-54957256D01*
X48852685Y-54957258D01*
X48776222Y-55001403D01*
X48708322Y-55017874D01*
X48652224Y-55001402D01*
X48591313Y-54966235D01*
X48591312Y-54966234D01*
X48591311Y-54966234D01*
X48438584Y-54925311D01*
X48280470Y-54925311D01*
X48127743Y-54966234D01*
X48127736Y-54966237D01*
X47990817Y-55045286D01*
X47990809Y-55045292D01*
X47879008Y-55157093D01*
X47879002Y-55157101D01*
X47799953Y-55294020D01*
X47799950Y-55294027D01*
X47759027Y-55446754D01*
X47759027Y-55600500D01*
X47739342Y-55667539D01*
X47686538Y-55713294D01*
X47635027Y-55724500D01*
X44642255Y-55724500D01*
X44575216Y-55704815D01*
X44554574Y-55688181D01*
X43286819Y-54420426D01*
X43253334Y-54359103D01*
X43250500Y-54332745D01*
X43250500Y-54270945D01*
X43250500Y-54270943D01*
X43209577Y-54118216D01*
X43189300Y-54083095D01*
X43130524Y-53981290D01*
X43130518Y-53981282D01*
X43018717Y-53869481D01*
X43018709Y-53869475D01*
X42881790Y-53790426D01*
X42881786Y-53790424D01*
X42881784Y-53790423D01*
X42729057Y-53749500D01*
X42570943Y-53749500D01*
X42418216Y-53790423D01*
X42418209Y-53790426D01*
X42281290Y-53869475D01*
X42281282Y-53869481D01*
X42169481Y-53981282D01*
X42169475Y-53981290D01*
X42090426Y-54118209D01*
X42090423Y-54118216D01*
X42049500Y-54270943D01*
X42049500Y-54429056D01*
X42090423Y-54581783D01*
X42090426Y-54581790D01*
X42169475Y-54718709D01*
X42169479Y-54718714D01*
X42169480Y-54718716D01*
X42281284Y-54830520D01*
X42281286Y-54830521D01*
X42281290Y-54830524D01*
X42397223Y-54897457D01*
X42418216Y-54909577D01*
X42570943Y-54950500D01*
X42632745Y-54950500D01*
X42699784Y-54970185D01*
X42720426Y-54986819D01*
X43571426Y-55837819D01*
X43604911Y-55899142D01*
X43599927Y-55968834D01*
X43558055Y-56024767D01*
X43492591Y-56049184D01*
X43483745Y-56049500D01*
X42539792Y-56049500D01*
X42472753Y-56029815D01*
X42452111Y-56013181D01*
X41389264Y-54950334D01*
X41355779Y-54889011D01*
X41360763Y-54819319D01*
X41389264Y-54774972D01*
X41394663Y-54769573D01*
X41445520Y-54718716D01*
X41524577Y-54581784D01*
X41565500Y-54429057D01*
X41565500Y-54270943D01*
X41524577Y-54118216D01*
X41504300Y-54083095D01*
X41445524Y-53981290D01*
X41445518Y-53981282D01*
X41333717Y-53869481D01*
X41333709Y-53869475D01*
X41196790Y-53790426D01*
X41196786Y-53790424D01*
X41196784Y-53790423D01*
X41044057Y-53749500D01*
X40885943Y-53749500D01*
X40733216Y-53790423D01*
X40733209Y-53790426D01*
X40596290Y-53869475D01*
X40596282Y-53869481D01*
X40540028Y-53925736D01*
X40478705Y-53959221D01*
X40409013Y-53954237D01*
X40364666Y-53925736D01*
X39408051Y-52969121D01*
X39374566Y-52907798D01*
X39371732Y-52881440D01*
X39371732Y-52749713D01*
X39371732Y-52749711D01*
X39330809Y-52596984D01*
X39314223Y-52568256D01*
X39251756Y-52460058D01*
X39251750Y-52460050D01*
X39139949Y-52348249D01*
X39139944Y-52348245D01*
X39095705Y-52322704D01*
X39095704Y-52322704D01*
X39003016Y-52269191D01*
X38905456Y-52243050D01*
X38850289Y-52228268D01*
X38692175Y-52228268D01*
X38539448Y-52269191D01*
X38539441Y-52269194D01*
X38402522Y-52348243D01*
X38402518Y-52348246D01*
X38346259Y-52404505D01*
X38284935Y-52437989D01*
X38215244Y-52433004D01*
X38170897Y-52404504D01*
X37989836Y-52223443D01*
X41402000Y-52223443D01*
X41402000Y-52381557D01*
X41442502Y-52532710D01*
X41442923Y-52534283D01*
X41442926Y-52534290D01*
X41521975Y-52671209D01*
X41521979Y-52671214D01*
X41521980Y-52671216D01*
X41633784Y-52783020D01*
X41633786Y-52783021D01*
X41633790Y-52783024D01*
X41750664Y-52850500D01*
X41770716Y-52862077D01*
X41923443Y-52903000D01*
X41923445Y-52903000D01*
X42081555Y-52903000D01*
X42081557Y-52903000D01*
X42234284Y-52862077D01*
X42371216Y-52783020D01*
X42483020Y-52671216D01*
X42562077Y-52534284D01*
X42603000Y-52381557D01*
X42603000Y-52223443D01*
X42562077Y-52070716D01*
X42532496Y-52019480D01*
X42483024Y-51933790D01*
X42483018Y-51933782D01*
X42371217Y-51821981D01*
X42371209Y-51821975D01*
X42234290Y-51742926D01*
X42234286Y-51742924D01*
X42234284Y-51742923D01*
X42081557Y-51702000D01*
X41923443Y-51702000D01*
X41770716Y-51742923D01*
X41770709Y-51742926D01*
X41633790Y-51821975D01*
X41633782Y-51821981D01*
X41521981Y-51933782D01*
X41521975Y-51933790D01*
X41442926Y-52070709D01*
X41442923Y-52070716D01*
X41402000Y-52223443D01*
X37989836Y-52223443D01*
X37034835Y-51268442D01*
X37001350Y-51207119D01*
X37006334Y-51137427D01*
X37048206Y-51081494D01*
X37062308Y-51072359D01*
X37075659Y-51064943D01*
X37095691Y-51059576D01*
X37232623Y-50980519D01*
X37238818Y-50974323D01*
X37253630Y-50966097D01*
X37279132Y-50960357D01*
X37303519Y-50950929D01*
X37313838Y-50950499D01*
X37989132Y-50950499D01*
X38056171Y-50970184D01*
X38101926Y-51022988D01*
X38113132Y-51074499D01*
X38113132Y-51217547D01*
X38152034Y-51362729D01*
X38154055Y-51370273D01*
X38154058Y-51370280D01*
X38233107Y-51507199D01*
X38233111Y-51507204D01*
X38233112Y-51507206D01*
X38344916Y-51619010D01*
X38344918Y-51619011D01*
X38344922Y-51619014D01*
X38456570Y-51683473D01*
X38481848Y-51698067D01*
X38634575Y-51738990D01*
X38634577Y-51738990D01*
X38792687Y-51738990D01*
X38792689Y-51738990D01*
X38945416Y-51698067D01*
X39082348Y-51619010D01*
X39194152Y-51507206D01*
X39273209Y-51370274D01*
X39314132Y-51217547D01*
X39314132Y-51059433D01*
X39289416Y-50967191D01*
X39291079Y-50897346D01*
X39321506Y-50847425D01*
X39607116Y-50561817D01*
X39668439Y-50528334D01*
X39694796Y-50525500D01*
X44486274Y-50525500D01*
X44553313Y-50545185D01*
X44599068Y-50597989D01*
X44609012Y-50667147D01*
X44579987Y-50730703D01*
X44573955Y-50737181D01*
X43783962Y-51527174D01*
X43722639Y-51560659D01*
X43696281Y-51563493D01*
X43634479Y-51563493D01*
X43481752Y-51604416D01*
X43481745Y-51604419D01*
X43344826Y-51683468D01*
X43344818Y-51683474D01*
X43233017Y-51795275D01*
X43233011Y-51795283D01*
X43153962Y-51932202D01*
X43153959Y-51932209D01*
X43113036Y-52084936D01*
X43113036Y-52243050D01*
X43150149Y-52381555D01*
X43153959Y-52395776D01*
X43153962Y-52395783D01*
X43233011Y-52532702D01*
X43233015Y-52532707D01*
X43233016Y-52532709D01*
X43344820Y-52644513D01*
X43356186Y-52651075D01*
X43358491Y-52652406D01*
X43406706Y-52702974D01*
X43419928Y-52771581D01*
X43393960Y-52836446D01*
X43384172Y-52847474D01*
X43275360Y-52956286D01*
X43275357Y-52956290D01*
X43196308Y-53093209D01*
X43196305Y-53093216D01*
X43155382Y-53245943D01*
X43155382Y-53404057D01*
X43172799Y-53469056D01*
X43196305Y-53556783D01*
X43196308Y-53556790D01*
X43275357Y-53693709D01*
X43275361Y-53693714D01*
X43275362Y-53693716D01*
X43387166Y-53805520D01*
X43387168Y-53805521D01*
X43387172Y-53805524D01*
X43499747Y-53870518D01*
X43524098Y-53884577D01*
X43676825Y-53925500D01*
X43676827Y-53925500D01*
X43834937Y-53925500D01*
X43834939Y-53925500D01*
X43987666Y-53884577D01*
X44124598Y-53805520D01*
X44236402Y-53693716D01*
X44315459Y-53556784D01*
X44356382Y-53404057D01*
X44356382Y-53245943D01*
X44315459Y-53093216D01*
X44273933Y-53021290D01*
X44236406Y-52956290D01*
X44236400Y-52956282D01*
X44124597Y-52844479D01*
X44110924Y-52836585D01*
X44062710Y-52786016D01*
X44049489Y-52717409D01*
X44075458Y-52652545D01*
X44085230Y-52641534D01*
X44194056Y-52532709D01*
X44273113Y-52395777D01*
X44314036Y-52243050D01*
X44314036Y-52181247D01*
X44333721Y-52114208D01*
X44350351Y-52093570D01*
X44675368Y-51768552D01*
X44736689Y-51735069D01*
X44806380Y-51740053D01*
X44862314Y-51781924D01*
X44886731Y-51847389D01*
X44871879Y-51915662D01*
X44870435Y-51918233D01*
X44841847Y-51967750D01*
X44841845Y-51967755D01*
X44800922Y-52120482D01*
X44800922Y-52278596D01*
X44832321Y-52395777D01*
X44841845Y-52431322D01*
X44841848Y-52431329D01*
X44920897Y-52568248D01*
X44920901Y-52568253D01*
X44920902Y-52568255D01*
X45032706Y-52680059D01*
X45032708Y-52680060D01*
X45032712Y-52680063D01*
X45122295Y-52731783D01*
X45169638Y-52759116D01*
X45192484Y-52765237D01*
X45252142Y-52801598D01*
X45282673Y-52864444D01*
X45274380Y-52933820D01*
X45248072Y-52972691D01*
X45199481Y-53021282D01*
X45199475Y-53021290D01*
X45120426Y-53158209D01*
X45120423Y-53158216D01*
X45079500Y-53310943D01*
X45079500Y-53469057D01*
X45108531Y-53577400D01*
X45120423Y-53621783D01*
X45120426Y-53621790D01*
X45199475Y-53758709D01*
X45199479Y-53758714D01*
X45199480Y-53758716D01*
X45311284Y-53870520D01*
X45311286Y-53870521D01*
X45311290Y-53870524D01*
X45417709Y-53931964D01*
X45448216Y-53949577D01*
X45600943Y-53990500D01*
X45600945Y-53990500D01*
X45759055Y-53990500D01*
X45759057Y-53990500D01*
X45911784Y-53949577D01*
X46048716Y-53870520D01*
X46160520Y-53758716D01*
X46239577Y-53621784D01*
X46267545Y-53517405D01*
X46303909Y-53457746D01*
X46366756Y-53427217D01*
X46387319Y-53425500D01*
X51025020Y-53425500D01*
X51092059Y-53445185D01*
X51137814Y-53497989D01*
X51147758Y-53567147D01*
X51118733Y-53630703D01*
X51087020Y-53656886D01*
X51023242Y-53693709D01*
X50961285Y-53729479D01*
X50961282Y-53729481D01*
X50849481Y-53841282D01*
X50849475Y-53841290D01*
X50770426Y-53978209D01*
X50770423Y-53978216D01*
X50729500Y-54130943D01*
X50729500Y-54289057D01*
X50770186Y-54440897D01*
X50770423Y-54441783D01*
X50770426Y-54441790D01*
X50849475Y-54578709D01*
X50849479Y-54578714D01*
X50849480Y-54578716D01*
X50961284Y-54690520D01*
X50961286Y-54690521D01*
X50961290Y-54690524D01*
X51098209Y-54769573D01*
X51098216Y-54769577D01*
X51250943Y-54810500D01*
X51250945Y-54810500D01*
X51409055Y-54810500D01*
X51409057Y-54810500D01*
X51561784Y-54769577D01*
X51698716Y-54690520D01*
X51810520Y-54578716D01*
X51889577Y-54441784D01*
X51930500Y-54289057D01*
X51930500Y-54130943D01*
X51889577Y-53978216D01*
X51875733Y-53954237D01*
X51810524Y-53841290D01*
X51810518Y-53841282D01*
X51698717Y-53729481D01*
X51698716Y-53729480D01*
X51572980Y-53656886D01*
X51524765Y-53606321D01*
X51511541Y-53537714D01*
X51537509Y-53472849D01*
X51594423Y-53432320D01*
X51634980Y-53425500D01*
X55107745Y-53425500D01*
X55174784Y-53445185D01*
X55195426Y-53461819D01*
X55754087Y-54020480D01*
X55845412Y-54073207D01*
X55947273Y-54100500D01*
X55947275Y-54100500D01*
X58613841Y-54100500D01*
X58613843Y-54100500D01*
X58715704Y-54073207D01*
X58807029Y-54020480D01*
X60666332Y-52161175D01*
X60727653Y-52127692D01*
X60797344Y-52132676D01*
X60853278Y-52174548D01*
X60875628Y-52224667D01*
X60901418Y-52354320D01*
X60901421Y-52354332D01*
X60954221Y-52481804D01*
X60954228Y-52481817D01*
X61030885Y-52596541D01*
X61030888Y-52596545D01*
X61128454Y-52694111D01*
X61128458Y-52694114D01*
X61243182Y-52770771D01*
X61243195Y-52770778D01*
X61370667Y-52823578D01*
X61370672Y-52823580D01*
X61370676Y-52823580D01*
X61370677Y-52823581D01*
X61506004Y-52850500D01*
X61506007Y-52850500D01*
X61643995Y-52850500D01*
X61744926Y-52830423D01*
X61779328Y-52823580D01*
X61906811Y-52770775D01*
X62021542Y-52694114D01*
X62119114Y-52596542D01*
X62195775Y-52481811D01*
X62248580Y-52354328D01*
X62263644Y-52278595D01*
X62275500Y-52218995D01*
X62275500Y-52081004D01*
X62248581Y-51945677D01*
X62248580Y-51945676D01*
X62248580Y-51945672D01*
X62238754Y-51921952D01*
X62231286Y-51852484D01*
X62262561Y-51790004D01*
X62322650Y-51754352D01*
X62353316Y-51750500D01*
X62412725Y-51750500D01*
X62412727Y-51750500D01*
X62514588Y-51723207D01*
X62605913Y-51670480D01*
X67589574Y-46686817D01*
X67650897Y-46653333D01*
X67677255Y-46650499D01*
X69104856Y-46650499D01*
X69104864Y-46650499D01*
X69104879Y-46650497D01*
X69104882Y-46650497D01*
X69129987Y-46647586D01*
X69129988Y-46647585D01*
X69129991Y-46647585D01*
X69232765Y-46602206D01*
X69312206Y-46522765D01*
X69357585Y-46419991D01*
X69360500Y-46394865D01*
X69360499Y-44605136D01*
X69358802Y-44590499D01*
X69357586Y-44580012D01*
X69357585Y-44580010D01*
X69357585Y-44580009D01*
X69312206Y-44477235D01*
X69232765Y-44397794D01*
X69222886Y-44393432D01*
X69129992Y-44352415D01*
X69104865Y-44349500D01*
X67315143Y-44349500D01*
X67315117Y-44349502D01*
X67290012Y-44352413D01*
X67290008Y-44352415D01*
X67187235Y-44397793D01*
X67107794Y-44477234D01*
X67062415Y-44580006D01*
X67062415Y-44580008D01*
X67059500Y-44605131D01*
X67059500Y-45342868D01*
X67039815Y-45409907D01*
X66987011Y-45455662D01*
X66917853Y-45465606D01*
X66854297Y-45436581D01*
X66816523Y-45377803D01*
X66813027Y-45362266D01*
X66801685Y-45290664D01*
X66792171Y-45230591D01*
X66736211Y-45058361D01*
X66736211Y-45058360D01*
X66706729Y-45000499D01*
X66653996Y-44897006D01*
X66640396Y-44878287D01*
X66547558Y-44750505D01*
X66547554Y-44750500D01*
X66419499Y-44622445D01*
X66419494Y-44622441D01*
X66272997Y-44516006D01*
X66272996Y-44516005D01*
X66272994Y-44516004D01*
X66196906Y-44477235D01*
X66111639Y-44433788D01*
X66111636Y-44433787D01*
X65939410Y-44377829D01*
X65760551Y-44349500D01*
X65760546Y-44349500D01*
X65579454Y-44349500D01*
X65579449Y-44349500D01*
X65400589Y-44377829D01*
X65228363Y-44433787D01*
X65228360Y-44433788D01*
X65067002Y-44516006D01*
X64920505Y-44622441D01*
X64920500Y-44622445D01*
X64792445Y-44750500D01*
X64792441Y-44750505D01*
X64686006Y-44897002D01*
X64603788Y-45058360D01*
X64603787Y-45058363D01*
X64547829Y-45230589D01*
X64519500Y-45409448D01*
X64519500Y-45590551D01*
X64547829Y-45769410D01*
X64603787Y-45941636D01*
X64603788Y-45941639D01*
X64652894Y-46038013D01*
X64679599Y-46090424D01*
X64686006Y-46102997D01*
X64792441Y-46249494D01*
X64792445Y-46249499D01*
X64920500Y-46377554D01*
X64920505Y-46377558D01*
X65067001Y-46483993D01*
X65067003Y-46483994D01*
X65067006Y-46483996D01*
X65201796Y-46552675D01*
X65252591Y-46600648D01*
X65269500Y-46663159D01*
X65269500Y-47361711D01*
X65249815Y-47428750D01*
X65233181Y-47449392D01*
X62095392Y-50587181D01*
X62034069Y-50620666D01*
X62007711Y-50623500D01*
X60723355Y-50623500D01*
X60621492Y-50650793D01*
X60530169Y-50703520D01*
X60530166Y-50703522D01*
X58296508Y-52937181D01*
X58235185Y-52970666D01*
X58208827Y-52973500D01*
X57644797Y-52973500D01*
X57577758Y-52953815D01*
X57532003Y-52901011D01*
X57522059Y-52831853D01*
X57537409Y-52787501D01*
X57547064Y-52770778D01*
X57569577Y-52731784D01*
X57610500Y-52579057D01*
X57610500Y-52420943D01*
X57569577Y-52268216D01*
X57555047Y-52243049D01*
X57490524Y-52131290D01*
X57490518Y-52131282D01*
X57446917Y-52087681D01*
X57413432Y-52026358D01*
X57418416Y-51956666D01*
X57446917Y-51912319D01*
X57446995Y-51912241D01*
X57490520Y-51868716D01*
X57569577Y-51731784D01*
X57610500Y-51579057D01*
X57610500Y-51420943D01*
X57569577Y-51268216D01*
X57569573Y-51268209D01*
X57490524Y-51131290D01*
X57490518Y-51131282D01*
X57378717Y-51019481D01*
X57378709Y-51019475D01*
X57241790Y-50940426D01*
X57241786Y-50940424D01*
X57241784Y-50940423D01*
X57089057Y-50899500D01*
X56930943Y-50899500D01*
X56804547Y-50933367D01*
X56734697Y-50931704D01*
X56684773Y-50901273D01*
X55048013Y-49264513D01*
X55048011Y-49264511D01*
X54980820Y-49225718D01*
X54945285Y-49205201D01*
X54933177Y-49201957D01*
X54921070Y-49198713D01*
X54921067Y-49198712D01*
X54869116Y-49184792D01*
X54830706Y-49174500D01*
X54830705Y-49174500D01*
X50891540Y-49174500D01*
X50824501Y-49154815D01*
X50778746Y-49102011D01*
X50768802Y-49032853D01*
X50784152Y-48988501D01*
X50788684Y-48980651D01*
X50799577Y-48961784D01*
X50840500Y-48809057D01*
X50840500Y-48650943D01*
X50812424Y-48546162D01*
X61826067Y-48546162D01*
X61826067Y-48704276D01*
X61860981Y-48834575D01*
X61866990Y-48857002D01*
X61866993Y-48857009D01*
X61946042Y-48993928D01*
X61946046Y-48993933D01*
X61946047Y-48993935D01*
X62057851Y-49105739D01*
X62057853Y-49105740D01*
X62057857Y-49105743D01*
X62194776Y-49184792D01*
X62194783Y-49184796D01*
X62347510Y-49225719D01*
X62347512Y-49225719D01*
X62505622Y-49225719D01*
X62505624Y-49225719D01*
X62658351Y-49184796D01*
X62795283Y-49105739D01*
X62907087Y-48993935D01*
X62986144Y-48857003D01*
X63027067Y-48704276D01*
X63027067Y-48546162D01*
X62986144Y-48393435D01*
X62966088Y-48358696D01*
X62907091Y-48256509D01*
X62907085Y-48256501D01*
X62795284Y-48144700D01*
X62795276Y-48144694D01*
X62658357Y-48065645D01*
X62658353Y-48065643D01*
X62658351Y-48065642D01*
X62505624Y-48024719D01*
X62347510Y-48024719D01*
X62194783Y-48065642D01*
X62194776Y-48065645D01*
X62057857Y-48144694D01*
X62057849Y-48144700D01*
X61946048Y-48256501D01*
X61946042Y-48256509D01*
X61866993Y-48393428D01*
X61866990Y-48393435D01*
X61826067Y-48546162D01*
X50812424Y-48546162D01*
X50799577Y-48498216D01*
X50755026Y-48421050D01*
X50720524Y-48361290D01*
X50720518Y-48361282D01*
X50608717Y-48249481D01*
X50608709Y-48249475D01*
X50471790Y-48170426D01*
X50471786Y-48170424D01*
X50471784Y-48170423D01*
X50319057Y-48129500D01*
X50160943Y-48129500D01*
X50008216Y-48170423D01*
X50008215Y-48170423D01*
X49909709Y-48227295D01*
X49841809Y-48243766D01*
X49785711Y-48227295D01*
X49678542Y-48165422D01*
X49525815Y-48124499D01*
X49367701Y-48124499D01*
X49214974Y-48165422D01*
X49214967Y-48165425D01*
X49078048Y-48244474D01*
X49078040Y-48244480D01*
X48966239Y-48356281D01*
X48966233Y-48356289D01*
X48887184Y-48493208D01*
X48887181Y-48493215D01*
X48846258Y-48645942D01*
X48846258Y-48804056D01*
X48877789Y-48921729D01*
X48887181Y-48956782D01*
X48887182Y-48956785D01*
X48890068Y-48961783D01*
X48903765Y-48985508D01*
X48905493Y-48988500D01*
X48921966Y-49056400D01*
X48899114Y-49122427D01*
X48844193Y-49165617D01*
X48798106Y-49174500D01*
X46204098Y-49174500D01*
X46137059Y-49154815D01*
X46091304Y-49102011D01*
X46081360Y-49032853D01*
X46110385Y-48969297D01*
X46116417Y-48962819D01*
X46117453Y-48961783D01*
X46120520Y-48958716D01*
X46199577Y-48821784D01*
X46240500Y-48669057D01*
X46240500Y-48510943D01*
X46199577Y-48358216D01*
X46198772Y-48356822D01*
X46120524Y-48221290D01*
X46120518Y-48221282D01*
X46008717Y-48109481D01*
X46008709Y-48109475D01*
X45871790Y-48030426D01*
X45871786Y-48030424D01*
X45871784Y-48030423D01*
X45719057Y-47989500D01*
X45560943Y-47989500D01*
X45408216Y-48030423D01*
X45408215Y-48030423D01*
X45295457Y-48095523D01*
X45227556Y-48111994D01*
X45161530Y-48089142D01*
X45126070Y-48050134D01*
X45122077Y-48043219D01*
X45122077Y-48043216D01*
X45043020Y-47906284D01*
X44931216Y-47794480D01*
X44931215Y-47794479D01*
X44931212Y-47794477D01*
X44806238Y-47722324D01*
X44758023Y-47671757D01*
X44744799Y-47603150D01*
X44770767Y-47538286D01*
X44780550Y-47527263D01*
X44810500Y-47497314D01*
X44876392Y-47383186D01*
X44890390Y-47330943D01*
X51814500Y-47330943D01*
X51814500Y-47489057D01*
X51848972Y-47617706D01*
X51855423Y-47641783D01*
X51855426Y-47641790D01*
X51934475Y-47778709D01*
X51934479Y-47778714D01*
X51934480Y-47778716D01*
X52046284Y-47890520D01*
X52046286Y-47890521D01*
X52046290Y-47890524D01*
X52120264Y-47933232D01*
X52183216Y-47969577D01*
X52335943Y-48010500D01*
X52335945Y-48010500D01*
X52494055Y-48010500D01*
X52494057Y-48010500D01*
X52646784Y-47969577D01*
X52783716Y-47890520D01*
X52895520Y-47778716D01*
X52974577Y-47641784D01*
X53015500Y-47489057D01*
X53015500Y-47330943D01*
X52974577Y-47178216D01*
X52947041Y-47130521D01*
X52895524Y-47041290D01*
X52895518Y-47041282D01*
X52783717Y-46929481D01*
X52783709Y-46929475D01*
X52646790Y-46850426D01*
X52646786Y-46850424D01*
X52646784Y-46850423D01*
X52494057Y-46809500D01*
X52335943Y-46809500D01*
X52183216Y-46850423D01*
X52183209Y-46850426D01*
X52046290Y-46929475D01*
X52046282Y-46929481D01*
X51934481Y-47041282D01*
X51934475Y-47041290D01*
X51855426Y-47178209D01*
X51855423Y-47178216D01*
X51814500Y-47330943D01*
X44890390Y-47330943D01*
X44910500Y-47255892D01*
X44910500Y-47124108D01*
X44876392Y-46996814D01*
X44810500Y-46882686D01*
X44717314Y-46789500D01*
X44612626Y-46729058D01*
X44603187Y-46723608D01*
X44539539Y-46706554D01*
X44475892Y-46689500D01*
X44344108Y-46689500D01*
X44216812Y-46723608D01*
X44102686Y-46789500D01*
X44102683Y-46789502D01*
X44009502Y-46882683D01*
X44009500Y-46882686D01*
X43943608Y-46996812D01*
X43909500Y-47124108D01*
X43909500Y-47255891D01*
X43943608Y-47383187D01*
X43969914Y-47428750D01*
X44009500Y-47497314D01*
X44102686Y-47590500D01*
X44147890Y-47616598D01*
X44149808Y-47617706D01*
X44198024Y-47668273D01*
X44211246Y-47736880D01*
X44185278Y-47801745D01*
X44175490Y-47812774D01*
X44081978Y-47906286D01*
X44081975Y-47906290D01*
X44002926Y-48043209D01*
X44002923Y-48043216D01*
X43962000Y-48195943D01*
X43960939Y-48204003D01*
X43957386Y-48203535D01*
X43942315Y-48254864D01*
X43889511Y-48300619D01*
X43826786Y-48311317D01*
X43816186Y-48310354D01*
X43781626Y-48301094D01*
X43714204Y-48301094D01*
X43708610Y-48300586D01*
X43681129Y-48289732D01*
X43652785Y-48281409D01*
X43645793Y-48275775D01*
X43643626Y-48274919D01*
X43642102Y-48272800D01*
X43632143Y-48264775D01*
X43380622Y-48013254D01*
X43380620Y-48013252D01*
X43329383Y-47983670D01*
X43289296Y-47960525D01*
X43238364Y-47946878D01*
X43187434Y-47933232D01*
X37563541Y-47933232D01*
X37461680Y-47960525D01*
X37421592Y-47983670D01*
X37421590Y-47983671D01*
X37411495Y-47989500D01*
X37370355Y-48013252D01*
X37265203Y-48118403D01*
X37261708Y-48121415D01*
X37233915Y-48134012D01*
X37207131Y-48148637D01*
X37202395Y-48148298D01*
X37198070Y-48150259D01*
X37167875Y-48145829D01*
X37137439Y-48143653D01*
X37133637Y-48140807D01*
X37128940Y-48140118D01*
X37105933Y-48120067D01*
X37081506Y-48101781D01*
X37079846Y-48097332D01*
X37076267Y-48094213D01*
X37067753Y-48064908D01*
X37057089Y-48036316D01*
X37057672Y-48030208D01*
X37056774Y-48027117D01*
X37058534Y-48021185D01*
X37060998Y-47995379D01*
X37080500Y-47922601D01*
X37080500Y-47797399D01*
X37048095Y-47676464D01*
X36985495Y-47568036D01*
X36896964Y-47479505D01*
X36788536Y-47416905D01*
X36788537Y-47416905D01*
X36748224Y-47406103D01*
X36667601Y-47384500D01*
X36542399Y-47384500D01*
X36461775Y-47406103D01*
X36421463Y-47416905D01*
X36313037Y-47479504D01*
X36313034Y-47479506D01*
X36224506Y-47568034D01*
X36224504Y-47568037D01*
X36161905Y-47676463D01*
X36161905Y-47676464D01*
X36129500Y-47797399D01*
X36129500Y-47922601D01*
X36161905Y-48043536D01*
X36224505Y-48151964D01*
X36313036Y-48240495D01*
X36421464Y-48303095D01*
X36542399Y-48335500D01*
X36542401Y-48335500D01*
X36667600Y-48335500D01*
X36667601Y-48335500D01*
X36740378Y-48315999D01*
X36810226Y-48317660D01*
X36868089Y-48356822D01*
X36895594Y-48421050D01*
X36884008Y-48489952D01*
X36860152Y-48523454D01*
X35879522Y-49504084D01*
X35879518Y-49504090D01*
X35826792Y-49595412D01*
X35826793Y-49595413D01*
X35799500Y-49697273D01*
X35799500Y-50947273D01*
X35799500Y-51052727D01*
X35801335Y-51059576D01*
X35826793Y-51154589D01*
X35853156Y-51200250D01*
X35879520Y-51245913D01*
X35879522Y-51245915D01*
X39013181Y-54379574D01*
X39046666Y-54440897D01*
X39049500Y-54467255D01*
X39049500Y-55632745D01*
X39029815Y-55699784D01*
X39013181Y-55720426D01*
X38070426Y-56663181D01*
X38009103Y-56696666D01*
X37982745Y-56699500D01*
X37920943Y-56699500D01*
X37768216Y-56740423D01*
X37768209Y-56740426D01*
X37631290Y-56819475D01*
X37631282Y-56819481D01*
X37519481Y-56931282D01*
X37519475Y-56931290D01*
X37440426Y-57068209D01*
X37440423Y-57068216D01*
X37399500Y-57220943D01*
X37399500Y-57379057D01*
X37416742Y-57443408D01*
X37415080Y-57513256D01*
X37375918Y-57571119D01*
X37311689Y-57598623D01*
X37296968Y-57599500D01*
X36700098Y-57599500D01*
X36633059Y-57579815D01*
X36612417Y-57563181D01*
X36568717Y-57519481D01*
X36568709Y-57519475D01*
X36431790Y-57440426D01*
X36431786Y-57440424D01*
X36431784Y-57440423D01*
X36279057Y-57399500D01*
X36120943Y-57399500D01*
X35968216Y-57440423D01*
X35968209Y-57440426D01*
X35831290Y-57519475D01*
X35831282Y-57519481D01*
X35719481Y-57631282D01*
X35719475Y-57631290D01*
X35640426Y-57768209D01*
X35640423Y-57768216D01*
X35599500Y-57920943D01*
X35599500Y-58079057D01*
X35600615Y-58083216D01*
X35640423Y-58231783D01*
X35640426Y-58231790D01*
X35719475Y-58368709D01*
X35719479Y-58368714D01*
X35719480Y-58368716D01*
X35831284Y-58480520D01*
X35831286Y-58480521D01*
X35831290Y-58480524D01*
X35946068Y-58546790D01*
X35968216Y-58559577D01*
X36120943Y-58600500D01*
X36120945Y-58600500D01*
X36279055Y-58600500D01*
X36279057Y-58600500D01*
X36431784Y-58559577D01*
X36568716Y-58480520D01*
X36612417Y-58436819D01*
X36673740Y-58403334D01*
X36700098Y-58400500D01*
X45182745Y-58400500D01*
X45249784Y-58420185D01*
X45270426Y-58436819D01*
X47371427Y-60537819D01*
X47404912Y-60599142D01*
X47399928Y-60668834D01*
X47358056Y-60724767D01*
X47292592Y-60749184D01*
X47283746Y-60749500D01*
X44051936Y-60749500D01*
X43984897Y-60729815D01*
X43939142Y-60677011D01*
X43929198Y-60607853D01*
X43951618Y-60552615D01*
X43982896Y-60509564D01*
X44023996Y-60452994D01*
X44106211Y-60291639D01*
X44162171Y-60119409D01*
X44176765Y-60027259D01*
X44190500Y-59940551D01*
X44190500Y-59759448D01*
X44169125Y-59624500D01*
X44162171Y-59580591D01*
X44106211Y-59408361D01*
X44106211Y-59408360D01*
X44077740Y-59352484D01*
X44023996Y-59247006D01*
X43937555Y-59128029D01*
X43917558Y-59100505D01*
X43917554Y-59100500D01*
X43789499Y-58972445D01*
X43789494Y-58972441D01*
X43642997Y-58866006D01*
X43642996Y-58866005D01*
X43642994Y-58866004D01*
X43566906Y-58827235D01*
X43481639Y-58783788D01*
X43481636Y-58783787D01*
X43309410Y-58727829D01*
X43130551Y-58699500D01*
X43130546Y-58699500D01*
X42949454Y-58699500D01*
X42949449Y-58699500D01*
X42770589Y-58727829D01*
X42598363Y-58783787D01*
X42598360Y-58783788D01*
X42437002Y-58866006D01*
X42290505Y-58972441D01*
X42290500Y-58972445D01*
X42162445Y-59100500D01*
X42162441Y-59100505D01*
X42056006Y-59247002D01*
X41973788Y-59408360D01*
X41973787Y-59408363D01*
X41917829Y-59580589D01*
X41896972Y-59712271D01*
X41867042Y-59775405D01*
X41807731Y-59812336D01*
X41737868Y-59811338D01*
X41679636Y-59772728D01*
X41651522Y-59708764D01*
X41650499Y-59692872D01*
X41650499Y-58955143D01*
X41650499Y-58955137D01*
X41650499Y-58955136D01*
X41650497Y-58955117D01*
X41647586Y-58930012D01*
X41647585Y-58930010D01*
X41647585Y-58930009D01*
X41602206Y-58827235D01*
X41522765Y-58747794D01*
X41522763Y-58747793D01*
X41419992Y-58702415D01*
X41394865Y-58699500D01*
X39605143Y-58699500D01*
X39605117Y-58699502D01*
X39580012Y-58702413D01*
X39580008Y-58702415D01*
X39477235Y-58747793D01*
X39397794Y-58827234D01*
X39352415Y-58930006D01*
X39352415Y-58930008D01*
X39352415Y-58930009D01*
X39349500Y-58955135D01*
X39349500Y-59812336D01*
X39349501Y-60625500D01*
X39329816Y-60692539D01*
X39277013Y-60738294D01*
X39225501Y-60749500D01*
X36674600Y-60749500D01*
X36607561Y-60729815D01*
X36605709Y-60728602D01*
X36531816Y-60679228D01*
X36531804Y-60679221D01*
X36404332Y-60626421D01*
X36404322Y-60626418D01*
X36268995Y-60599500D01*
X36268993Y-60599500D01*
X36131007Y-60599500D01*
X36131005Y-60599500D01*
X35995677Y-60626418D01*
X35995667Y-60626421D01*
X35868195Y-60679221D01*
X35868182Y-60679228D01*
X35753458Y-60755885D01*
X35753454Y-60755888D01*
X35655888Y-60853454D01*
X35655885Y-60853458D01*
X35579228Y-60968182D01*
X35579221Y-60968195D01*
X35526421Y-61095667D01*
X35526418Y-61095677D01*
X35499500Y-61231004D01*
X35499500Y-61231007D01*
X35499500Y-61368993D01*
X35499500Y-61368995D01*
X35499499Y-61368995D01*
X30200500Y-61368995D01*
X30200500Y-53577399D01*
X36129500Y-53577399D01*
X36129500Y-53702601D01*
X36161905Y-53823536D01*
X36224505Y-53931964D01*
X36313036Y-54020495D01*
X36421464Y-54083095D01*
X36542399Y-54115500D01*
X36542401Y-54115500D01*
X36667599Y-54115500D01*
X36667601Y-54115500D01*
X36788536Y-54083095D01*
X36896964Y-54020495D01*
X36985495Y-53931964D01*
X37048095Y-53823536D01*
X37080500Y-53702601D01*
X37080500Y-53577399D01*
X37048095Y-53456464D01*
X36985495Y-53348036D01*
X36896964Y-53259505D01*
X36788536Y-53196905D01*
X36788537Y-53196905D01*
X36748224Y-53186103D01*
X36667601Y-53164500D01*
X36542399Y-53164500D01*
X36461775Y-53186103D01*
X36421463Y-53196905D01*
X36313037Y-53259504D01*
X36313034Y-53259506D01*
X36224506Y-53348034D01*
X36224504Y-53348037D01*
X36161905Y-53456463D01*
X36150778Y-53497989D01*
X36129500Y-53577399D01*
X30200500Y-53577399D01*
X30200500Y-46196456D01*
X48036462Y-46196456D01*
X48036462Y-46354570D01*
X48071142Y-46483995D01*
X48077385Y-46507296D01*
X48077388Y-46507303D01*
X48156437Y-46644222D01*
X48156441Y-46644227D01*
X48156442Y-46644229D01*
X48268246Y-46756033D01*
X48268248Y-46756034D01*
X48268252Y-46756037D01*
X48360854Y-46809500D01*
X48405178Y-46835090D01*
X48557905Y-46876013D01*
X48623256Y-46876013D01*
X48690295Y-46895698D01*
X48730642Y-46938012D01*
X48777237Y-47018717D01*
X48889041Y-47130521D01*
X48889043Y-47130522D01*
X48889047Y-47130525D01*
X48971652Y-47178216D01*
X49025973Y-47209578D01*
X49178700Y-47250501D01*
X49178702Y-47250501D01*
X49336812Y-47250501D01*
X49336814Y-47250501D01*
X49489541Y-47209578D01*
X49626473Y-47130521D01*
X49738277Y-47018717D01*
X49817334Y-46881785D01*
X49858257Y-46729058D01*
X49858257Y-46631301D01*
X49877942Y-46564262D01*
X49930746Y-46518507D01*
X49999904Y-46508563D01*
X50014335Y-46511522D01*
X50045943Y-46519992D01*
X50045946Y-46519992D01*
X50204055Y-46519992D01*
X50204057Y-46519992D01*
X50356784Y-46479069D01*
X50493716Y-46400012D01*
X50605520Y-46288208D01*
X50684577Y-46151276D01*
X50725500Y-45998549D01*
X50725500Y-45840435D01*
X50684577Y-45687708D01*
X50666924Y-45657131D01*
X50605524Y-45550782D01*
X50605518Y-45550774D01*
X50493717Y-45438973D01*
X50493709Y-45438967D01*
X50356790Y-45359918D01*
X50356786Y-45359916D01*
X50356784Y-45359915D01*
X50204057Y-45318992D01*
X50045943Y-45318992D01*
X49893216Y-45359915D01*
X49893209Y-45359918D01*
X49756290Y-45438967D01*
X49756282Y-45438973D01*
X49644481Y-45550774D01*
X49644475Y-45550782D01*
X49565426Y-45687701D01*
X49565423Y-45687708D01*
X49524500Y-45840435D01*
X49524500Y-45938191D01*
X49504815Y-46005230D01*
X49452011Y-46050985D01*
X49388364Y-46061596D01*
X49378236Y-46060599D01*
X49336814Y-46049501D01*
X49265377Y-46049501D01*
X49259327Y-46048906D01*
X49232340Y-46038013D01*
X49204424Y-46029816D01*
X49199663Y-46024823D01*
X49194536Y-46022754D01*
X49185447Y-46009914D01*
X49164075Y-45987500D01*
X49117482Y-45906797D01*
X49005678Y-45794993D01*
X49005676Y-45794992D01*
X49005671Y-45794988D01*
X48868752Y-45715939D01*
X48868748Y-45715937D01*
X48868746Y-45715936D01*
X48716019Y-45675013D01*
X48557905Y-45675013D01*
X48405178Y-45715936D01*
X48405171Y-45715939D01*
X48268252Y-45794988D01*
X48268244Y-45794994D01*
X48156443Y-45906795D01*
X48156437Y-45906803D01*
X48077388Y-46043722D01*
X48077385Y-46043729D01*
X48036462Y-46196456D01*
X30200500Y-46196456D01*
X30200500Y-44320943D01*
X43159500Y-44320943D01*
X43159500Y-44479057D01*
X43193283Y-44605135D01*
X43200423Y-44631783D01*
X43200426Y-44631790D01*
X43279475Y-44768709D01*
X43279479Y-44768714D01*
X43279480Y-44768716D01*
X43391284Y-44880520D01*
X43391286Y-44880521D01*
X43391290Y-44880524D01*
X43528209Y-44959573D01*
X43528216Y-44959577D01*
X43680943Y-45000500D01*
X43680945Y-45000500D01*
X43839055Y-45000500D01*
X43839057Y-45000500D01*
X43991784Y-44959577D01*
X44128716Y-44880520D01*
X44240520Y-44768716D01*
X44319577Y-44631784D01*
X44360500Y-44479057D01*
X44360500Y-44320943D01*
X44319577Y-44168216D01*
X44262328Y-44069057D01*
X44240524Y-44031290D01*
X44240518Y-44031282D01*
X44128717Y-43919481D01*
X44128709Y-43919475D01*
X44113931Y-43910943D01*
X47999500Y-43910943D01*
X47999500Y-44069056D01*
X48040423Y-44221783D01*
X48040426Y-44221790D01*
X48119475Y-44358709D01*
X48119479Y-44358714D01*
X48119480Y-44358716D01*
X48231284Y-44470520D01*
X48231286Y-44470521D01*
X48231290Y-44470524D01*
X48368209Y-44549573D01*
X48368216Y-44549577D01*
X48520943Y-44590500D01*
X48520945Y-44590500D01*
X48679055Y-44590500D01*
X48679057Y-44590500D01*
X48831784Y-44549577D01*
X48968716Y-44470520D01*
X49012319Y-44426917D01*
X49073642Y-44393432D01*
X49143334Y-44398416D01*
X49187681Y-44426917D01*
X49231284Y-44470520D01*
X49231286Y-44470521D01*
X49231290Y-44470524D01*
X49368209Y-44549573D01*
X49368216Y-44549577D01*
X49520943Y-44590500D01*
X49520945Y-44590500D01*
X49679055Y-44590500D01*
X49679057Y-44590500D01*
X49831784Y-44549577D01*
X49968716Y-44470520D01*
X50080520Y-44358716D01*
X50159577Y-44221784D01*
X50200500Y-44069057D01*
X50200500Y-43910943D01*
X50159577Y-43758216D01*
X50100000Y-43655024D01*
X50080524Y-43621290D01*
X50080518Y-43621282D01*
X49968717Y-43509481D01*
X49968709Y-43509475D01*
X49831790Y-43430426D01*
X49831786Y-43430424D01*
X49831784Y-43430423D01*
X49679057Y-43389500D01*
X49520943Y-43389500D01*
X49368216Y-43430423D01*
X49368209Y-43430426D01*
X49231290Y-43509475D01*
X49231282Y-43509481D01*
X49187681Y-43553083D01*
X49126358Y-43586568D01*
X49056666Y-43581584D01*
X49012319Y-43553083D01*
X48968717Y-43509481D01*
X48968709Y-43509475D01*
X48831790Y-43430426D01*
X48831786Y-43430424D01*
X48831784Y-43430423D01*
X48679057Y-43389500D01*
X48520943Y-43389500D01*
X48368216Y-43430423D01*
X48368209Y-43430426D01*
X48231290Y-43509475D01*
X48231282Y-43509481D01*
X48119481Y-43621282D01*
X48119475Y-43621290D01*
X48040426Y-43758209D01*
X48040423Y-43758216D01*
X47999500Y-43910943D01*
X44113931Y-43910943D01*
X43991790Y-43840426D01*
X43991786Y-43840424D01*
X43991784Y-43840423D01*
X43839057Y-43799500D01*
X43680943Y-43799500D01*
X43528216Y-43840423D01*
X43528209Y-43840426D01*
X43391290Y-43919475D01*
X43391282Y-43919481D01*
X43279481Y-44031282D01*
X43279475Y-44031290D01*
X43200426Y-44168209D01*
X43200423Y-44168216D01*
X43159500Y-44320943D01*
X30200500Y-44320943D01*
X30200500Y-42998274D01*
X30220185Y-42931235D01*
X30272989Y-42885480D01*
X30342147Y-42875536D01*
X30405703Y-42904561D01*
X30427602Y-42929383D01*
X30505885Y-43046541D01*
X30505888Y-43046545D01*
X30603454Y-43144111D01*
X30603458Y-43144114D01*
X30718182Y-43220771D01*
X30718195Y-43220778D01*
X30845667Y-43273578D01*
X30845672Y-43273580D01*
X30845676Y-43273580D01*
X30845677Y-43273581D01*
X30981004Y-43300500D01*
X30981007Y-43300500D01*
X31118995Y-43300500D01*
X31210041Y-43282389D01*
X31254328Y-43273580D01*
X31381811Y-43220775D01*
X31496542Y-43144114D01*
X31594114Y-43046542D01*
X31670775Y-42931811D01*
X31723580Y-42804328D01*
X31750500Y-42668995D01*
X35749499Y-42668995D01*
X35776418Y-42804322D01*
X35776421Y-42804332D01*
X35829221Y-42931804D01*
X35829228Y-42931817D01*
X35905885Y-43046541D01*
X35905888Y-43046545D01*
X36003454Y-43144111D01*
X36003458Y-43144114D01*
X36118182Y-43220771D01*
X36118195Y-43220778D01*
X36245667Y-43273578D01*
X36245672Y-43273580D01*
X36245676Y-43273580D01*
X36245677Y-43273581D01*
X36381004Y-43300500D01*
X36381007Y-43300500D01*
X36518995Y-43300500D01*
X36610041Y-43282389D01*
X36654328Y-43273580D01*
X36781811Y-43220775D01*
X36896542Y-43144114D01*
X36994114Y-43046542D01*
X37070775Y-42931811D01*
X37123580Y-42804328D01*
X37150500Y-42668993D01*
X37150500Y-42531007D01*
X37150500Y-42531004D01*
X37123581Y-42395677D01*
X37123580Y-42395676D01*
X37123580Y-42395672D01*
X37116412Y-42378366D01*
X37070778Y-42268195D01*
X37070771Y-42268182D01*
X36994114Y-42153458D01*
X36994111Y-42153454D01*
X36896545Y-42055888D01*
X36896541Y-42055885D01*
X36781817Y-41979228D01*
X36781804Y-41979221D01*
X36654332Y-41926421D01*
X36654322Y-41926418D01*
X36518995Y-41899500D01*
X36518993Y-41899500D01*
X36381007Y-41899500D01*
X36381005Y-41899500D01*
X36245677Y-41926418D01*
X36245667Y-41926421D01*
X36118195Y-41979221D01*
X36118182Y-41979228D01*
X36003458Y-42055885D01*
X36003454Y-42055888D01*
X35905888Y-42153454D01*
X35905885Y-42153458D01*
X35829228Y-42268182D01*
X35829221Y-42268195D01*
X35776421Y-42395667D01*
X35776418Y-42395677D01*
X35749500Y-42531004D01*
X35749500Y-42531007D01*
X35749500Y-42668993D01*
X35749500Y-42668995D01*
X35749499Y-42668995D01*
X31750500Y-42668995D01*
X31750500Y-42668993D01*
X31750500Y-42531007D01*
X31750500Y-42531004D01*
X31723581Y-42395677D01*
X31723580Y-42395676D01*
X31723580Y-42395672D01*
X31716412Y-42378366D01*
X31670778Y-42268195D01*
X31670771Y-42268182D01*
X31594114Y-42153458D01*
X31594111Y-42153454D01*
X31496545Y-42055888D01*
X31496541Y-42055885D01*
X31381817Y-41979228D01*
X31381804Y-41979221D01*
X31254332Y-41926421D01*
X31254322Y-41926418D01*
X31118995Y-41899500D01*
X31118993Y-41899500D01*
X30981007Y-41899500D01*
X30981005Y-41899500D01*
X30845677Y-41926418D01*
X30845667Y-41926421D01*
X30718195Y-41979221D01*
X30718182Y-41979228D01*
X30603458Y-42055885D01*
X30603454Y-42055888D01*
X30505888Y-42153454D01*
X30505885Y-42153458D01*
X30427602Y-42270616D01*
X30373989Y-42315421D01*
X30304664Y-42324128D01*
X30241637Y-42293973D01*
X30204918Y-42234530D01*
X30200500Y-42201725D01*
X30200500Y-41458995D01*
X38134499Y-41458995D01*
X38161418Y-41594322D01*
X38161421Y-41594332D01*
X38214221Y-41721804D01*
X38214228Y-41721817D01*
X38290885Y-41836541D01*
X38290888Y-41836545D01*
X38388454Y-41934111D01*
X38388458Y-41934114D01*
X38503182Y-42010771D01*
X38503195Y-42010778D01*
X38630667Y-42063578D01*
X38630672Y-42063580D01*
X38630676Y-42063580D01*
X38630677Y-42063581D01*
X38766004Y-42090500D01*
X38766007Y-42090500D01*
X38903995Y-42090500D01*
X38995041Y-42072389D01*
X39039328Y-42063580D01*
X39166811Y-42010775D01*
X39281542Y-41934114D01*
X39379114Y-41836542D01*
X39455775Y-41721811D01*
X39508580Y-41594328D01*
X39517389Y-41550041D01*
X39535500Y-41458995D01*
X39535500Y-41321004D01*
X39508581Y-41185677D01*
X39508580Y-41185676D01*
X39508580Y-41185672D01*
X39498224Y-41160670D01*
X39455778Y-41058195D01*
X39455771Y-41058182D01*
X39379114Y-40943458D01*
X39379111Y-40943454D01*
X39281545Y-40845888D01*
X39281541Y-40845885D01*
X39166817Y-40769228D01*
X39166804Y-40769221D01*
X39039332Y-40716421D01*
X39039322Y-40716418D01*
X38903995Y-40689500D01*
X38903993Y-40689500D01*
X38766007Y-40689500D01*
X38766005Y-40689500D01*
X38630677Y-40716418D01*
X38630667Y-40716421D01*
X38503195Y-40769221D01*
X38503182Y-40769228D01*
X38388458Y-40845885D01*
X38388454Y-40845888D01*
X38290888Y-40943454D01*
X38290885Y-40943458D01*
X38214228Y-41058182D01*
X38214221Y-41058195D01*
X38161421Y-41185667D01*
X38161418Y-41185677D01*
X38134500Y-41321004D01*
X38134500Y-41321007D01*
X38134500Y-41458993D01*
X38134500Y-41458995D01*
X38134499Y-41458995D01*
X30200500Y-41458995D01*
X30200500Y-40998274D01*
X30220185Y-40931235D01*
X30272989Y-40885480D01*
X30342147Y-40875536D01*
X30405703Y-40904561D01*
X30427602Y-40929383D01*
X30505885Y-41046541D01*
X30505888Y-41046545D01*
X30603454Y-41144111D01*
X30603458Y-41144114D01*
X30718182Y-41220771D01*
X30718195Y-41220778D01*
X30840752Y-41271542D01*
X30845672Y-41273580D01*
X30845676Y-41273580D01*
X30845677Y-41273581D01*
X30981004Y-41300500D01*
X30981007Y-41300500D01*
X31118995Y-41300500D01*
X31210041Y-41282389D01*
X31254328Y-41273580D01*
X31381811Y-41220775D01*
X31496542Y-41144114D01*
X31594114Y-41046542D01*
X31670775Y-40931811D01*
X31723580Y-40804328D01*
X31750500Y-40668995D01*
X35749499Y-40668995D01*
X35776418Y-40804322D01*
X35776421Y-40804332D01*
X35829221Y-40931804D01*
X35829228Y-40931817D01*
X35905885Y-41046541D01*
X35905888Y-41046545D01*
X36003454Y-41144111D01*
X36003458Y-41144114D01*
X36118182Y-41220771D01*
X36118195Y-41220778D01*
X36240752Y-41271542D01*
X36245672Y-41273580D01*
X36245676Y-41273580D01*
X36245677Y-41273581D01*
X36381004Y-41300500D01*
X36381007Y-41300500D01*
X36518995Y-41300500D01*
X36610041Y-41282389D01*
X36654328Y-41273580D01*
X36781811Y-41220775D01*
X36792729Y-41213480D01*
X36795223Y-41211814D01*
X36795224Y-41211813D01*
X36843453Y-41179587D01*
X36896542Y-41144114D01*
X36994114Y-41046542D01*
X37070775Y-40931811D01*
X37123580Y-40804328D01*
X37150500Y-40668993D01*
X37150500Y-40531007D01*
X37150500Y-40531004D01*
X37123581Y-40395677D01*
X37123580Y-40395676D01*
X37123580Y-40395672D01*
X37105744Y-40352612D01*
X37070778Y-40268195D01*
X37070771Y-40268182D01*
X36994114Y-40153458D01*
X36994111Y-40153454D01*
X36896545Y-40055888D01*
X36896541Y-40055885D01*
X36781817Y-39979228D01*
X36781804Y-39979221D01*
X36654332Y-39926421D01*
X36654322Y-39926418D01*
X36518995Y-39899500D01*
X36518993Y-39899500D01*
X36381007Y-39899500D01*
X36381005Y-39899500D01*
X36245677Y-39926418D01*
X36245667Y-39926421D01*
X36118195Y-39979221D01*
X36118182Y-39979228D01*
X36003458Y-40055885D01*
X36003454Y-40055888D01*
X35905888Y-40153454D01*
X35905885Y-40153458D01*
X35829228Y-40268182D01*
X35829221Y-40268195D01*
X35776421Y-40395667D01*
X35776418Y-40395677D01*
X35749500Y-40531004D01*
X35749500Y-40531007D01*
X35749500Y-40668993D01*
X35749500Y-40668995D01*
X35749499Y-40668995D01*
X31750500Y-40668995D01*
X31750500Y-40668993D01*
X31750500Y-40531007D01*
X31750500Y-40531004D01*
X31723581Y-40395677D01*
X31723580Y-40395676D01*
X31723580Y-40395672D01*
X31705744Y-40352612D01*
X31670778Y-40268195D01*
X31670771Y-40268182D01*
X31594114Y-40153458D01*
X31594111Y-40153454D01*
X31496545Y-40055888D01*
X31496541Y-40055885D01*
X31381817Y-39979228D01*
X31381804Y-39979221D01*
X31254332Y-39926421D01*
X31254322Y-39926418D01*
X31118995Y-39899500D01*
X31118993Y-39899500D01*
X30981007Y-39899500D01*
X30981005Y-39899500D01*
X30845677Y-39926418D01*
X30845667Y-39926421D01*
X30718195Y-39979221D01*
X30718182Y-39979228D01*
X30603458Y-40055885D01*
X30603454Y-40055888D01*
X30505888Y-40153454D01*
X30505885Y-40153458D01*
X30427602Y-40270616D01*
X30373989Y-40315421D01*
X30304664Y-40324128D01*
X30241637Y-40293973D01*
X30204918Y-40234530D01*
X30200500Y-40201725D01*
X30200500Y-38998274D01*
X30220185Y-38931235D01*
X30272989Y-38885480D01*
X30342147Y-38875536D01*
X30405703Y-38904561D01*
X30427602Y-38929383D01*
X30505885Y-39046541D01*
X30505888Y-39046545D01*
X30603454Y-39144111D01*
X30603458Y-39144114D01*
X30718182Y-39220771D01*
X30718195Y-39220778D01*
X30816571Y-39261526D01*
X30845672Y-39273580D01*
X30845676Y-39273580D01*
X30845677Y-39273581D01*
X30981004Y-39300500D01*
X30981007Y-39300500D01*
X31118995Y-39300500D01*
X31210041Y-39282389D01*
X31254328Y-39273580D01*
X31381811Y-39220775D01*
X31496542Y-39144114D01*
X31594114Y-39046542D01*
X31670775Y-38931811D01*
X31723580Y-38804328D01*
X31736481Y-38739471D01*
X31750500Y-38668995D01*
X35749499Y-38668995D01*
X35776418Y-38804322D01*
X35776421Y-38804332D01*
X35829221Y-38931804D01*
X35829228Y-38931817D01*
X35905885Y-39046541D01*
X35905888Y-39046545D01*
X36003454Y-39144111D01*
X36003458Y-39144114D01*
X36118182Y-39220771D01*
X36118195Y-39220778D01*
X36216571Y-39261526D01*
X36245672Y-39273580D01*
X36245676Y-39273580D01*
X36245677Y-39273581D01*
X36381004Y-39300500D01*
X36381007Y-39300500D01*
X36518995Y-39300500D01*
X36610041Y-39282389D01*
X36654328Y-39273580D01*
X36781811Y-39220775D01*
X36896542Y-39144114D01*
X36994114Y-39046542D01*
X37070775Y-38931811D01*
X37123580Y-38804328D01*
X37136481Y-38739471D01*
X37150500Y-38668995D01*
X37150500Y-38531004D01*
X37123581Y-38395677D01*
X37123580Y-38395676D01*
X37123580Y-38395672D01*
X37123578Y-38395667D01*
X37070778Y-38268195D01*
X37070771Y-38268182D01*
X36994114Y-38153458D01*
X36994111Y-38153454D01*
X36896545Y-38055888D01*
X36896541Y-38055885D01*
X36781817Y-37979228D01*
X36781804Y-37979221D01*
X36654332Y-37926421D01*
X36654322Y-37926418D01*
X36518995Y-37899500D01*
X36518993Y-37899500D01*
X36381007Y-37899500D01*
X36381005Y-37899500D01*
X36245677Y-37926418D01*
X36245667Y-37926421D01*
X36118195Y-37979221D01*
X36118182Y-37979228D01*
X36003458Y-38055885D01*
X36003454Y-38055888D01*
X35905888Y-38153454D01*
X35905885Y-38153458D01*
X35829228Y-38268182D01*
X35829221Y-38268195D01*
X35776421Y-38395667D01*
X35776418Y-38395677D01*
X35749500Y-38531004D01*
X35749500Y-38531007D01*
X35749500Y-38668993D01*
X35749500Y-38668995D01*
X35749499Y-38668995D01*
X31750500Y-38668995D01*
X31750500Y-38531004D01*
X31723581Y-38395677D01*
X31723580Y-38395676D01*
X31723580Y-38395672D01*
X31723578Y-38395667D01*
X31670778Y-38268195D01*
X31670771Y-38268182D01*
X31594114Y-38153458D01*
X31594111Y-38153454D01*
X31496545Y-38055888D01*
X31496541Y-38055885D01*
X31381817Y-37979228D01*
X31381804Y-37979221D01*
X31254332Y-37926421D01*
X31254322Y-37926418D01*
X31118995Y-37899500D01*
X31118993Y-37899500D01*
X30981007Y-37899500D01*
X30981005Y-37899500D01*
X30845677Y-37926418D01*
X30845667Y-37926421D01*
X30718195Y-37979221D01*
X30718182Y-37979228D01*
X30603458Y-38055885D01*
X30603454Y-38055888D01*
X30505888Y-38153454D01*
X30505885Y-38153458D01*
X30427602Y-38270616D01*
X30373989Y-38315421D01*
X30304664Y-38324128D01*
X30241637Y-38293973D01*
X30204918Y-38234530D01*
X30200500Y-38201725D01*
X30200500Y-34325875D01*
X31399500Y-34325875D01*
X31399500Y-34674124D01*
X31438489Y-35020158D01*
X31438490Y-35020167D01*
X31438491Y-35020171D01*
X31455724Y-35095672D01*
X31515982Y-35359684D01*
X31515985Y-35359692D01*
X31630999Y-35688382D01*
X31782092Y-36002130D01*
X31967371Y-36296999D01*
X31967372Y-36297001D01*
X32184487Y-36569256D01*
X32430743Y-36815512D01*
X32702998Y-37032627D01*
X32703001Y-37032628D01*
X32703003Y-37032630D01*
X32997867Y-37217906D01*
X33311621Y-37369002D01*
X33558488Y-37455384D01*
X33640307Y-37484014D01*
X33640315Y-37484017D01*
X33640318Y-37484017D01*
X33640319Y-37484018D01*
X33979829Y-37561509D01*
X34325876Y-37600499D01*
X34325877Y-37600500D01*
X34325880Y-37600500D01*
X34674123Y-37600500D01*
X34674123Y-37600499D01*
X35020171Y-37561509D01*
X35359681Y-37484018D01*
X35688379Y-37369002D01*
X36002133Y-37217906D01*
X36296997Y-37032630D01*
X36297001Y-37032627D01*
X36569256Y-36815512D01*
X36569258Y-36815509D01*
X36569263Y-36815506D01*
X36815506Y-36569263D01*
X36865954Y-36506004D01*
X37032627Y-36297001D01*
X37032628Y-36296999D01*
X37032630Y-36296997D01*
X37217906Y-36002133D01*
X37369002Y-35688379D01*
X37484018Y-35359681D01*
X37561509Y-35020171D01*
X37600500Y-34674120D01*
X37600500Y-34368995D01*
X37894499Y-34368995D01*
X37921418Y-34504322D01*
X37921421Y-34504332D01*
X37974221Y-34631804D01*
X37974228Y-34631817D01*
X38040573Y-34731109D01*
X38061451Y-34797787D01*
X38042966Y-34865167D01*
X38040573Y-34868891D01*
X37974228Y-34968182D01*
X37974221Y-34968195D01*
X37921421Y-35095667D01*
X37921418Y-35095677D01*
X37894500Y-35231004D01*
X37894500Y-35231007D01*
X37894500Y-35368993D01*
X37894500Y-35368995D01*
X37894499Y-35368995D01*
X37921418Y-35504322D01*
X37921421Y-35504332D01*
X37974221Y-35631804D01*
X37974228Y-35631817D01*
X38050885Y-35746541D01*
X38050888Y-35746545D01*
X38148454Y-35844111D01*
X38148458Y-35844114D01*
X38263182Y-35920771D01*
X38263195Y-35920778D01*
X38390667Y-35973578D01*
X38390672Y-35973580D01*
X38390676Y-35973580D01*
X38390677Y-35973581D01*
X38526004Y-36000500D01*
X38526007Y-36000500D01*
X38663995Y-36000500D01*
X38755041Y-35982389D01*
X38799328Y-35973580D01*
X38926811Y-35920775D01*
X39041542Y-35844114D01*
X39139114Y-35746542D01*
X39215775Y-35631811D01*
X39268580Y-35504328D01*
X39295500Y-35368993D01*
X39295500Y-35231007D01*
X39295500Y-35231004D01*
X39268581Y-35095677D01*
X39268580Y-35095676D01*
X39268580Y-35095672D01*
X39237306Y-35020170D01*
X39215778Y-34968195D01*
X39215776Y-34968191D01*
X39215775Y-34968189D01*
X39149425Y-34868890D01*
X39128548Y-34802214D01*
X39147032Y-34734834D01*
X39149426Y-34731109D01*
X39187502Y-34674124D01*
X39215775Y-34631811D01*
X39268580Y-34504328D01*
X39278884Y-34452525D01*
X39295500Y-34368995D01*
X39295500Y-34231004D01*
X39268581Y-34095677D01*
X39268580Y-34095673D01*
X39268580Y-34095672D01*
X39258755Y-34071953D01*
X39215778Y-33968195D01*
X39215771Y-33968182D01*
X39139114Y-33853458D01*
X39139111Y-33853454D01*
X39041545Y-33755888D01*
X39041541Y-33755885D01*
X38926817Y-33679228D01*
X38926804Y-33679221D01*
X38799332Y-33626421D01*
X38799322Y-33626418D01*
X38663995Y-33599500D01*
X38663993Y-33599500D01*
X38526007Y-33599500D01*
X38526005Y-33599500D01*
X38390677Y-33626418D01*
X38390667Y-33626421D01*
X38263195Y-33679221D01*
X38263182Y-33679228D01*
X38148458Y-33755885D01*
X38148454Y-33755888D01*
X38050888Y-33853454D01*
X38050885Y-33853458D01*
X37974228Y-33968182D01*
X37974221Y-33968195D01*
X37921421Y-34095667D01*
X37921418Y-34095677D01*
X37894500Y-34231004D01*
X37894500Y-34231007D01*
X37894500Y-34368993D01*
X37894500Y-34368995D01*
X37894499Y-34368995D01*
X37600500Y-34368995D01*
X37600500Y-34325880D01*
X37600499Y-34325875D01*
X37600499Y-34325873D01*
X37590689Y-34238798D01*
X37568531Y-34042147D01*
X37561509Y-33979829D01*
X37484018Y-33640319D01*
X37477702Y-33622270D01*
X37431864Y-33491270D01*
X37369002Y-33311621D01*
X37217906Y-32997867D01*
X37032630Y-32703003D01*
X37032628Y-32703000D01*
X37032627Y-32702998D01*
X36815512Y-32430743D01*
X36569262Y-32184493D01*
X36550791Y-32169763D01*
X36550789Y-32169761D01*
X36439415Y-32080943D01*
X38909500Y-32080943D01*
X38909500Y-32239057D01*
X38927584Y-32306545D01*
X38950423Y-32391783D01*
X38950426Y-32391790D01*
X39029475Y-32528709D01*
X39029479Y-32528714D01*
X39029480Y-32528716D01*
X39141284Y-32640520D01*
X39141286Y-32640521D01*
X39141290Y-32640524D01*
X39278209Y-32719573D01*
X39278216Y-32719577D01*
X39430943Y-32760500D01*
X39430945Y-32760500D01*
X39589055Y-32760500D01*
X39589057Y-32760500D01*
X39741784Y-32719577D01*
X39741785Y-32719576D01*
X39749635Y-32717473D01*
X39749746Y-32717888D01*
X39753428Y-32715523D01*
X39788363Y-32710500D01*
X39985613Y-32710500D01*
X40052652Y-32730185D01*
X40073294Y-32746819D01*
X40817745Y-33491270D01*
X40851230Y-33552593D01*
X40846246Y-33622285D01*
X40804374Y-33678218D01*
X40798955Y-33682053D01*
X40688458Y-33755885D01*
X40688454Y-33755888D01*
X40590888Y-33853454D01*
X40590885Y-33853458D01*
X40514228Y-33968182D01*
X40514221Y-33968195D01*
X40461421Y-34095667D01*
X40461418Y-34095677D01*
X40434500Y-34231004D01*
X40434500Y-34231007D01*
X40434500Y-34368993D01*
X40434500Y-34368995D01*
X40434499Y-34368995D01*
X40461418Y-34504322D01*
X40461421Y-34504332D01*
X40514221Y-34631804D01*
X40514228Y-34631817D01*
X40580573Y-34731109D01*
X40601451Y-34797787D01*
X40582966Y-34865167D01*
X40580573Y-34868891D01*
X40514228Y-34968182D01*
X40514221Y-34968195D01*
X40461421Y-35095667D01*
X40461418Y-35095677D01*
X40434500Y-35231004D01*
X40434500Y-35231007D01*
X40434500Y-35368993D01*
X40434500Y-35368995D01*
X40434499Y-35368995D01*
X40461418Y-35504322D01*
X40461421Y-35504332D01*
X40514221Y-35631804D01*
X40514228Y-35631817D01*
X40590885Y-35746541D01*
X40590888Y-35746545D01*
X40688454Y-35844111D01*
X40688458Y-35844114D01*
X40803182Y-35920771D01*
X40803195Y-35920778D01*
X40930667Y-35973578D01*
X40930672Y-35973580D01*
X40930676Y-35973580D01*
X40930677Y-35973581D01*
X41066004Y-36000500D01*
X41066007Y-36000500D01*
X41203995Y-36000500D01*
X41295041Y-35982389D01*
X41339328Y-35973580D01*
X41466811Y-35920775D01*
X41581542Y-35844114D01*
X41618671Y-35806985D01*
X41682319Y-35743338D01*
X41743642Y-35709853D01*
X41813334Y-35714837D01*
X41857681Y-35743338D01*
X41958454Y-35844111D01*
X41958458Y-35844114D01*
X42073182Y-35920771D01*
X42073195Y-35920778D01*
X42200667Y-35973578D01*
X42200672Y-35973580D01*
X42200676Y-35973580D01*
X42200677Y-35973581D01*
X42336004Y-36000500D01*
X42336007Y-36000500D01*
X42473995Y-36000500D01*
X42565041Y-35982389D01*
X42609328Y-35973580D01*
X42736811Y-35920775D01*
X42851542Y-35844114D01*
X42888671Y-35806985D01*
X42935885Y-35759772D01*
X42997208Y-35726287D01*
X43066900Y-35731271D01*
X43111247Y-35759772D01*
X43688181Y-36336706D01*
X43721666Y-36398029D01*
X43724500Y-36424387D01*
X43724500Y-40350399D01*
X43704815Y-40417438D01*
X43703602Y-40419290D01*
X43654228Y-40493182D01*
X43654221Y-40493195D01*
X43601421Y-40620667D01*
X43601418Y-40620677D01*
X43574500Y-40756004D01*
X43574500Y-40756007D01*
X43574500Y-40893993D01*
X43574500Y-40893995D01*
X43574499Y-40893995D01*
X43601418Y-41029322D01*
X43601420Y-41029328D01*
X43608551Y-41046545D01*
X43635788Y-41112299D01*
X43643257Y-41181768D01*
X43611982Y-41244248D01*
X43551893Y-41279900D01*
X43521227Y-41283752D01*
X42826842Y-41283752D01*
X42759803Y-41264067D01*
X42714048Y-41211263D01*
X42704104Y-41142105D01*
X42733129Y-41078549D01*
X42757951Y-41056650D01*
X42798841Y-41029328D01*
X42851542Y-40994114D01*
X42949114Y-40896542D01*
X43025775Y-40781811D01*
X43078580Y-40654328D01*
X43102949Y-40531817D01*
X43105500Y-40518995D01*
X43105500Y-40381004D01*
X43078581Y-40245677D01*
X43078580Y-40245676D01*
X43078580Y-40245672D01*
X43040384Y-40153458D01*
X43025778Y-40118195D01*
X43025771Y-40118182D01*
X42949114Y-40003458D01*
X42949111Y-40003454D01*
X42851545Y-39905888D01*
X42851541Y-39905885D01*
X42736817Y-39829228D01*
X42736804Y-39829221D01*
X42609332Y-39776421D01*
X42609322Y-39776418D01*
X42473995Y-39749500D01*
X42473993Y-39749500D01*
X42336007Y-39749500D01*
X42336005Y-39749500D01*
X42200677Y-39776418D01*
X42200667Y-39776421D01*
X42073195Y-39829221D01*
X42073182Y-39829228D01*
X41958458Y-39905885D01*
X41958454Y-39905888D01*
X41860888Y-40003454D01*
X41860885Y-40003458D01*
X41784228Y-40118182D01*
X41784221Y-40118195D01*
X41731421Y-40245667D01*
X41731418Y-40245677D01*
X41704500Y-40381004D01*
X41704500Y-40381007D01*
X41704500Y-40518993D01*
X41704500Y-40518995D01*
X41704499Y-40518995D01*
X41731418Y-40654322D01*
X41731421Y-40654332D01*
X41784221Y-40781804D01*
X41784228Y-40781817D01*
X41860885Y-40896541D01*
X41860888Y-40896545D01*
X41958454Y-40994111D01*
X41958458Y-40994114D01*
X42052049Y-41056650D01*
X42096854Y-41110262D01*
X42105561Y-41179587D01*
X42075407Y-41242615D01*
X42015964Y-41279334D01*
X41983158Y-41283752D01*
X41440348Y-41283752D01*
X41373309Y-41264067D01*
X41371457Y-41262854D01*
X41297564Y-41213480D01*
X41297552Y-41213473D01*
X41170080Y-41160673D01*
X41170070Y-41160670D01*
X41034743Y-41133752D01*
X41034741Y-41133752D01*
X40896755Y-41133752D01*
X40896753Y-41133752D01*
X40761425Y-41160670D01*
X40761415Y-41160673D01*
X40633943Y-41213473D01*
X40633930Y-41213480D01*
X40519206Y-41290137D01*
X40519202Y-41290140D01*
X40421636Y-41387706D01*
X40421633Y-41387710D01*
X40344976Y-41502434D01*
X40344969Y-41502447D01*
X40292169Y-41629919D01*
X40292166Y-41629929D01*
X40265248Y-41765256D01*
X40265248Y-41765259D01*
X40265248Y-41903245D01*
X40265248Y-41903247D01*
X40265247Y-41903247D01*
X40292166Y-42038574D01*
X40292169Y-42038584D01*
X40344969Y-42166056D01*
X40344976Y-42166069D01*
X40421633Y-42280793D01*
X40421636Y-42280797D01*
X40519202Y-42378363D01*
X40519206Y-42378366D01*
X40633930Y-42455023D01*
X40633943Y-42455030D01*
X40740865Y-42499318D01*
X40761420Y-42507832D01*
X40761424Y-42507832D01*
X40761425Y-42507833D01*
X40896752Y-42534752D01*
X40896755Y-42534752D01*
X41034743Y-42534752D01*
X41125789Y-42516641D01*
X41170076Y-42507832D01*
X41297559Y-42455027D01*
X41371457Y-42405650D01*
X41438134Y-42384772D01*
X41440348Y-42384752D01*
X56033220Y-42384752D01*
X56033222Y-42384752D01*
X56033223Y-42384752D01*
X56110688Y-42363995D01*
X60349499Y-42363995D01*
X60376418Y-42499322D01*
X60376421Y-42499332D01*
X60429221Y-42626804D01*
X60429228Y-42626817D01*
X60505885Y-42741541D01*
X60505888Y-42741545D01*
X60603454Y-42839111D01*
X60603458Y-42839114D01*
X60718182Y-42915771D01*
X60718195Y-42915778D01*
X60838161Y-42965469D01*
X60845672Y-42968580D01*
X60845676Y-42968580D01*
X60845677Y-42968581D01*
X60981004Y-42995500D01*
X60981007Y-42995500D01*
X61118995Y-42995500D01*
X61210041Y-42977389D01*
X61254328Y-42968580D01*
X61381811Y-42915775D01*
X61496542Y-42839114D01*
X61594114Y-42741542D01*
X61642588Y-42668995D01*
X62849499Y-42668995D01*
X62876418Y-42804322D01*
X62876421Y-42804332D01*
X62929221Y-42931804D01*
X62929228Y-42931817D01*
X63005885Y-43046541D01*
X63005888Y-43046545D01*
X63103454Y-43144111D01*
X63103458Y-43144114D01*
X63218182Y-43220771D01*
X63218195Y-43220778D01*
X63345667Y-43273578D01*
X63345672Y-43273580D01*
X63345676Y-43273580D01*
X63345677Y-43273581D01*
X63481004Y-43300500D01*
X63481007Y-43300500D01*
X63618995Y-43300500D01*
X63710041Y-43282389D01*
X63754328Y-43273580D01*
X63881811Y-43220775D01*
X63996542Y-43144114D01*
X64094114Y-43046542D01*
X64170775Y-42931811D01*
X64223580Y-42804328D01*
X64250500Y-42668993D01*
X64250500Y-42531007D01*
X64250500Y-42531004D01*
X64223581Y-42395677D01*
X64223580Y-42395676D01*
X64223580Y-42395672D01*
X64216412Y-42378366D01*
X64170778Y-42268195D01*
X64170771Y-42268182D01*
X64094114Y-42153458D01*
X64094111Y-42153454D01*
X63996545Y-42055888D01*
X63996541Y-42055885D01*
X63881817Y-41979228D01*
X63881804Y-41979221D01*
X63754332Y-41926421D01*
X63754322Y-41926418D01*
X63618995Y-41899500D01*
X63618993Y-41899500D01*
X63481007Y-41899500D01*
X63481005Y-41899500D01*
X63345677Y-41926418D01*
X63345667Y-41926421D01*
X63218195Y-41979221D01*
X63218182Y-41979228D01*
X63103458Y-42055885D01*
X63103454Y-42055888D01*
X63005888Y-42153454D01*
X63005885Y-42153458D01*
X62929228Y-42268182D01*
X62929221Y-42268195D01*
X62876421Y-42395667D01*
X62876418Y-42395677D01*
X62849500Y-42531004D01*
X62849500Y-42531007D01*
X62849500Y-42668993D01*
X62849500Y-42668995D01*
X62849499Y-42668995D01*
X61642588Y-42668995D01*
X61670775Y-42626811D01*
X61723580Y-42499328D01*
X61750500Y-42363993D01*
X61750500Y-42226007D01*
X61750500Y-42226004D01*
X61723581Y-42090677D01*
X61723580Y-42090676D01*
X61723580Y-42090672D01*
X61712358Y-42063580D01*
X61670778Y-41963195D01*
X61670771Y-41963182D01*
X61594114Y-41848458D01*
X61594111Y-41848454D01*
X61496545Y-41750888D01*
X61496541Y-41750885D01*
X61381817Y-41674228D01*
X61381804Y-41674221D01*
X61254332Y-41621421D01*
X61254322Y-41621418D01*
X61118995Y-41594500D01*
X61118993Y-41594500D01*
X60981007Y-41594500D01*
X60981005Y-41594500D01*
X60845677Y-41621418D01*
X60845667Y-41621421D01*
X60718195Y-41674221D01*
X60718182Y-41674228D01*
X60603458Y-41750885D01*
X60603454Y-41750888D01*
X60505888Y-41848454D01*
X60505885Y-41848458D01*
X60429228Y-41963182D01*
X60429221Y-41963195D01*
X60376421Y-42090667D01*
X60376418Y-42090677D01*
X60349500Y-42226004D01*
X60349500Y-42226007D01*
X60349500Y-42363993D01*
X60349500Y-42363995D01*
X60349499Y-42363995D01*
X56110688Y-42363995D01*
X56173233Y-42347236D01*
X56194856Y-42334752D01*
X56298763Y-42274762D01*
X57648671Y-40924852D01*
X57709992Y-40891369D01*
X57712012Y-40890947D01*
X57799328Y-40873580D01*
X57926811Y-40820775D01*
X58041542Y-40744114D01*
X58139114Y-40646542D01*
X58215775Y-40531811D01*
X58268580Y-40404328D01*
X58294206Y-40275500D01*
X58295500Y-40268995D01*
X60704499Y-40268995D01*
X60731418Y-40404322D01*
X60731421Y-40404332D01*
X60784221Y-40531804D01*
X60784228Y-40531817D01*
X60860885Y-40646541D01*
X60860888Y-40646545D01*
X60958454Y-40744111D01*
X60958458Y-40744114D01*
X61073182Y-40820771D01*
X61073195Y-40820778D01*
X61133817Y-40845888D01*
X61200672Y-40873580D01*
X61200676Y-40873580D01*
X61200677Y-40873581D01*
X61336004Y-40900500D01*
X61336007Y-40900500D01*
X61473995Y-40900500D01*
X61597810Y-40875871D01*
X61609328Y-40873580D01*
X61736811Y-40820775D01*
X61851542Y-40744114D01*
X61926661Y-40668995D01*
X62849499Y-40668995D01*
X62876418Y-40804322D01*
X62876421Y-40804332D01*
X62929221Y-40931804D01*
X62929228Y-40931817D01*
X63005885Y-41046541D01*
X63005888Y-41046545D01*
X63103454Y-41144111D01*
X63103458Y-41144114D01*
X63218182Y-41220771D01*
X63218195Y-41220778D01*
X63340752Y-41271542D01*
X63345672Y-41273580D01*
X63345676Y-41273580D01*
X63345677Y-41273581D01*
X63481004Y-41300500D01*
X63481007Y-41300500D01*
X63618995Y-41300500D01*
X63710041Y-41282389D01*
X63754328Y-41273580D01*
X63881811Y-41220775D01*
X63996542Y-41144114D01*
X64094114Y-41046542D01*
X64170775Y-40931811D01*
X64223580Y-40804328D01*
X64250500Y-40668993D01*
X64250500Y-40531007D01*
X64250500Y-40531004D01*
X64223581Y-40395677D01*
X64223580Y-40395676D01*
X64223580Y-40395672D01*
X64205744Y-40352612D01*
X64170778Y-40268195D01*
X64170771Y-40268182D01*
X64094114Y-40153458D01*
X64094111Y-40153454D01*
X63996545Y-40055888D01*
X63996541Y-40055885D01*
X63881817Y-39979228D01*
X63881804Y-39979221D01*
X63754332Y-39926421D01*
X63754322Y-39926418D01*
X63618995Y-39899500D01*
X63618993Y-39899500D01*
X63481007Y-39899500D01*
X63481005Y-39899500D01*
X63345677Y-39926418D01*
X63345667Y-39926421D01*
X63218195Y-39979221D01*
X63218182Y-39979228D01*
X63103458Y-40055885D01*
X63103454Y-40055888D01*
X63005888Y-40153454D01*
X63005885Y-40153458D01*
X62929228Y-40268182D01*
X62929221Y-40268195D01*
X62876421Y-40395667D01*
X62876418Y-40395677D01*
X62849500Y-40531004D01*
X62849500Y-40531007D01*
X62849500Y-40668993D01*
X62849500Y-40668995D01*
X62849499Y-40668995D01*
X61926661Y-40668995D01*
X61949114Y-40646542D01*
X62025775Y-40531811D01*
X62031084Y-40518995D01*
X62048287Y-40477463D01*
X62064615Y-40438042D01*
X62078580Y-40404328D01*
X62104206Y-40275500D01*
X62105500Y-40268995D01*
X62105500Y-40131004D01*
X62078581Y-39995677D01*
X62078580Y-39995676D01*
X62078580Y-39995672D01*
X62071769Y-39979228D01*
X62025778Y-39868195D01*
X62025771Y-39868182D01*
X61949114Y-39753458D01*
X61949111Y-39753454D01*
X61851545Y-39655888D01*
X61851541Y-39655885D01*
X61736817Y-39579228D01*
X61736804Y-39579221D01*
X61609332Y-39526421D01*
X61609322Y-39526418D01*
X61473995Y-39499500D01*
X61473993Y-39499500D01*
X61336007Y-39499500D01*
X61336005Y-39499500D01*
X61200677Y-39526418D01*
X61200667Y-39526421D01*
X61073195Y-39579221D01*
X61073182Y-39579228D01*
X60958458Y-39655885D01*
X60958454Y-39655888D01*
X60860888Y-39753454D01*
X60860885Y-39753458D01*
X60784228Y-39868182D01*
X60784221Y-39868195D01*
X60731421Y-39995667D01*
X60731418Y-39995677D01*
X60704500Y-40131004D01*
X60704500Y-40131007D01*
X60704500Y-40268993D01*
X60704500Y-40268995D01*
X60704499Y-40268995D01*
X58295500Y-40268995D01*
X58295500Y-40131004D01*
X58268581Y-39995677D01*
X58268580Y-39995676D01*
X58268580Y-39995672D01*
X58261769Y-39979228D01*
X58215778Y-39868195D01*
X58215771Y-39868182D01*
X58139114Y-39753458D01*
X58139111Y-39753454D01*
X58041545Y-39655888D01*
X58041541Y-39655885D01*
X57926817Y-39579228D01*
X57926804Y-39579221D01*
X57799332Y-39526421D01*
X57799322Y-39526418D01*
X57663995Y-39499500D01*
X57663993Y-39499500D01*
X57526007Y-39499500D01*
X57526005Y-39499500D01*
X57390677Y-39526418D01*
X57390667Y-39526421D01*
X57263195Y-39579221D01*
X57263182Y-39579228D01*
X57148458Y-39655885D01*
X57148454Y-39655888D01*
X57050888Y-39753454D01*
X57050885Y-39753458D01*
X56974228Y-39868182D01*
X56974221Y-39868195D01*
X56921421Y-39995667D01*
X56921418Y-39995677D01*
X56904080Y-40082840D01*
X56871694Y-40144751D01*
X56870144Y-40146329D01*
X55769042Y-41247433D01*
X55707719Y-41280918D01*
X55681361Y-41283752D01*
X45028773Y-41283752D01*
X44961734Y-41264067D01*
X44915979Y-41211263D01*
X44906035Y-41142105D01*
X44914212Y-41112299D01*
X44915056Y-41110262D01*
X44948580Y-41029328D01*
X44957389Y-40985041D01*
X44975500Y-40893995D01*
X44975500Y-40756004D01*
X44948581Y-40620677D01*
X44948580Y-40620676D01*
X44948580Y-40620672D01*
X44948578Y-40620667D01*
X44895778Y-40493195D01*
X44895771Y-40493182D01*
X44846398Y-40419290D01*
X44825520Y-40352612D01*
X44825500Y-40350399D01*
X44825500Y-38784448D01*
X45099500Y-38784448D01*
X45099500Y-39215551D01*
X45127829Y-39394410D01*
X45183787Y-39566636D01*
X45183788Y-39566639D01*
X45266006Y-39727997D01*
X45372441Y-39874494D01*
X45372445Y-39874499D01*
X45500500Y-40002554D01*
X45500505Y-40002558D01*
X45611005Y-40082840D01*
X45647006Y-40108996D01*
X45734267Y-40153458D01*
X45808360Y-40191211D01*
X45808363Y-40191212D01*
X45894476Y-40219191D01*
X45980591Y-40247171D01*
X46063429Y-40260291D01*
X46159449Y-40275500D01*
X46159454Y-40275500D01*
X46340551Y-40275500D01*
X46427259Y-40261765D01*
X46519409Y-40247171D01*
X46691639Y-40191211D01*
X46852994Y-40108996D01*
X46999501Y-40002553D01*
X47127553Y-39874501D01*
X47233996Y-39727994D01*
X47316211Y-39566639D01*
X47372171Y-39394409D01*
X47377527Y-39360594D01*
X47407456Y-39297459D01*
X47466768Y-39260528D01*
X47536630Y-39261526D01*
X47594863Y-39300136D01*
X47622473Y-39360594D01*
X47627829Y-39394410D01*
X47683787Y-39566636D01*
X47683788Y-39566639D01*
X47766006Y-39727997D01*
X47872441Y-39874494D01*
X47872445Y-39874499D01*
X48000500Y-40002554D01*
X48000505Y-40002558D01*
X48111005Y-40082840D01*
X48147006Y-40108996D01*
X48234267Y-40153458D01*
X48308360Y-40191211D01*
X48308363Y-40191212D01*
X48394476Y-40219191D01*
X48480591Y-40247171D01*
X48563429Y-40260291D01*
X48659449Y-40275500D01*
X48659454Y-40275500D01*
X48840551Y-40275500D01*
X48927259Y-40261765D01*
X49019409Y-40247171D01*
X49191639Y-40191211D01*
X49352994Y-40108996D01*
X49499501Y-40002553D01*
X49627553Y-39874501D01*
X49733996Y-39727994D01*
X49816211Y-39566639D01*
X49872171Y-39394409D01*
X49877527Y-39360594D01*
X49907456Y-39297459D01*
X49966768Y-39260528D01*
X50036630Y-39261526D01*
X50094863Y-39300136D01*
X50122473Y-39360594D01*
X50127829Y-39394410D01*
X50183787Y-39566636D01*
X50183788Y-39566639D01*
X50266006Y-39727997D01*
X50372441Y-39874494D01*
X50372445Y-39874499D01*
X50500500Y-40002554D01*
X50500505Y-40002558D01*
X50611005Y-40082840D01*
X50647006Y-40108996D01*
X50734267Y-40153458D01*
X50808360Y-40191211D01*
X50808363Y-40191212D01*
X50894476Y-40219191D01*
X50980591Y-40247171D01*
X51063429Y-40260291D01*
X51159449Y-40275500D01*
X51159454Y-40275500D01*
X51340551Y-40275500D01*
X51427259Y-40261765D01*
X51519409Y-40247171D01*
X51691639Y-40191211D01*
X51852994Y-40108996D01*
X51999501Y-40002553D01*
X52127553Y-39874501D01*
X52233996Y-39727994D01*
X52316211Y-39566639D01*
X52316212Y-39566636D01*
X52357569Y-39439351D01*
X52397006Y-39381676D01*
X52461364Y-39354477D01*
X52530211Y-39366391D01*
X52581687Y-39413635D01*
X52599500Y-39477669D01*
X52599500Y-39768102D01*
X52605126Y-39814954D01*
X52610122Y-39856561D01*
X52610122Y-39856563D01*
X52610123Y-39856564D01*
X52627055Y-39899500D01*
X52665639Y-39997343D01*
X52757077Y-40117922D01*
X52877656Y-40209360D01*
X52877657Y-40209360D01*
X52877658Y-40209361D01*
X53018436Y-40264877D01*
X53106898Y-40275500D01*
X53106903Y-40275500D01*
X54393097Y-40275500D01*
X54393102Y-40275500D01*
X54481564Y-40264877D01*
X54622342Y-40209361D01*
X54742922Y-40117922D01*
X54834361Y-39997342D01*
X54889877Y-39856564D01*
X54900500Y-39768102D01*
X54900500Y-38231898D01*
X54889877Y-38143436D01*
X54834361Y-38002658D01*
X54834360Y-38002657D01*
X54834360Y-38002656D01*
X54742922Y-37882077D01*
X54622343Y-37790639D01*
X54481561Y-37735122D01*
X54435926Y-37729642D01*
X54393102Y-37724500D01*
X53106898Y-37724500D01*
X53067853Y-37729188D01*
X53018438Y-37735122D01*
X52877656Y-37790639D01*
X52757077Y-37882077D01*
X52665639Y-38002656D01*
X52610122Y-38143438D01*
X52605813Y-38179328D01*
X52599500Y-38231898D01*
X52599500Y-38231903D01*
X52599500Y-38522330D01*
X52579815Y-38589369D01*
X52527011Y-38635124D01*
X52457853Y-38645068D01*
X52394297Y-38616043D01*
X52357569Y-38560648D01*
X52316212Y-38433363D01*
X52316211Y-38433360D01*
X52260724Y-38324463D01*
X52233996Y-38272006D01*
X52166662Y-38179328D01*
X52127558Y-38125505D01*
X52127554Y-38125500D01*
X51999499Y-37997445D01*
X51999494Y-37997441D01*
X51852997Y-37891006D01*
X51852996Y-37891005D01*
X51852994Y-37891004D01*
X51801300Y-37864664D01*
X51691639Y-37808788D01*
X51691636Y-37808787D01*
X51519410Y-37752829D01*
X51340551Y-37724500D01*
X51340546Y-37724500D01*
X51159454Y-37724500D01*
X51159449Y-37724500D01*
X50980589Y-37752829D01*
X50808363Y-37808787D01*
X50808360Y-37808788D01*
X50647002Y-37891006D01*
X50500505Y-37997441D01*
X50500500Y-37997445D01*
X50372445Y-38125500D01*
X50372441Y-38125505D01*
X50266006Y-38272002D01*
X50183788Y-38433360D01*
X50183787Y-38433363D01*
X50127829Y-38605589D01*
X50122473Y-38639406D01*
X50092543Y-38702540D01*
X50033232Y-38739471D01*
X49963369Y-38738473D01*
X49905137Y-38699863D01*
X49877527Y-38639406D01*
X49873826Y-38616043D01*
X49872171Y-38605591D01*
X49844072Y-38519111D01*
X49816212Y-38433363D01*
X49816211Y-38433360D01*
X49760724Y-38324463D01*
X49733996Y-38272006D01*
X49666662Y-38179328D01*
X49627558Y-38125505D01*
X49627554Y-38125500D01*
X49499499Y-37997445D01*
X49499494Y-37997441D01*
X49352997Y-37891006D01*
X49352996Y-37891005D01*
X49352994Y-37891004D01*
X49301300Y-37864664D01*
X49191639Y-37808788D01*
X49191636Y-37808787D01*
X49019410Y-37752829D01*
X48840551Y-37724500D01*
X48840546Y-37724500D01*
X48659454Y-37724500D01*
X48659449Y-37724500D01*
X48480589Y-37752829D01*
X48308363Y-37808787D01*
X48308360Y-37808788D01*
X48147002Y-37891006D01*
X48000505Y-37997441D01*
X48000500Y-37997445D01*
X47872445Y-38125500D01*
X47872441Y-38125505D01*
X47766006Y-38272002D01*
X47683788Y-38433360D01*
X47683787Y-38433363D01*
X47627829Y-38605589D01*
X47622473Y-38639406D01*
X47592543Y-38702540D01*
X47533232Y-38739471D01*
X47463369Y-38738473D01*
X47405137Y-38699863D01*
X47377527Y-38639406D01*
X47373826Y-38616043D01*
X47372171Y-38605591D01*
X47344072Y-38519111D01*
X47316212Y-38433363D01*
X47316211Y-38433360D01*
X47260724Y-38324463D01*
X47233996Y-38272006D01*
X47166662Y-38179328D01*
X47127558Y-38125505D01*
X47127554Y-38125500D01*
X46999499Y-37997445D01*
X46999494Y-37997441D01*
X46852997Y-37891006D01*
X46852996Y-37891005D01*
X46852994Y-37891004D01*
X46801300Y-37864664D01*
X46691639Y-37808788D01*
X46691636Y-37808787D01*
X46519410Y-37752829D01*
X46340551Y-37724500D01*
X46340546Y-37724500D01*
X46159454Y-37724500D01*
X46159449Y-37724500D01*
X45980589Y-37752829D01*
X45808363Y-37808787D01*
X45808360Y-37808788D01*
X45647002Y-37891006D01*
X45500505Y-37997441D01*
X45500500Y-37997445D01*
X45372445Y-38125500D01*
X45372441Y-38125505D01*
X45266006Y-38272002D01*
X45183788Y-38433360D01*
X45183787Y-38433363D01*
X45127829Y-38605589D01*
X45099500Y-38784448D01*
X44825500Y-38784448D01*
X44825500Y-36643995D01*
X55199499Y-36643995D01*
X55226418Y-36779322D01*
X55226421Y-36779332D01*
X55279222Y-36906806D01*
X55279223Y-36906807D01*
X55279225Y-36906811D01*
X55328602Y-36980708D01*
X55349480Y-37047385D01*
X55349500Y-37049599D01*
X55349500Y-37500399D01*
X55329815Y-37567438D01*
X55328602Y-37569290D01*
X55279228Y-37643182D01*
X55279221Y-37643195D01*
X55226421Y-37770667D01*
X55226418Y-37770677D01*
X55199500Y-37906004D01*
X55199500Y-37906007D01*
X55199500Y-38043993D01*
X55199500Y-38043995D01*
X55199499Y-38043995D01*
X55226418Y-38179322D01*
X55226421Y-38179332D01*
X55279221Y-38306804D01*
X55279228Y-38306817D01*
X55355885Y-38421541D01*
X55355888Y-38421545D01*
X55453454Y-38519111D01*
X55453458Y-38519114D01*
X55568182Y-38595771D01*
X55568195Y-38595778D01*
X55617120Y-38616043D01*
X55695672Y-38648580D01*
X55695676Y-38648580D01*
X55695677Y-38648581D01*
X55831004Y-38675500D01*
X55831007Y-38675500D01*
X55968995Y-38675500D01*
X56001696Y-38668995D01*
X62849499Y-38668995D01*
X62876418Y-38804322D01*
X62876421Y-38804332D01*
X62929221Y-38931804D01*
X62929228Y-38931817D01*
X63005885Y-39046541D01*
X63005888Y-39046545D01*
X63103454Y-39144111D01*
X63103458Y-39144114D01*
X63218182Y-39220771D01*
X63218195Y-39220778D01*
X63316571Y-39261526D01*
X63345672Y-39273580D01*
X63345676Y-39273580D01*
X63345677Y-39273581D01*
X63481004Y-39300500D01*
X63481007Y-39300500D01*
X63618995Y-39300500D01*
X63710041Y-39282389D01*
X63754328Y-39273580D01*
X63881811Y-39220775D01*
X63996542Y-39144114D01*
X64094114Y-39046542D01*
X64170775Y-38931811D01*
X64223580Y-38804328D01*
X64236481Y-38739471D01*
X64250500Y-38668995D01*
X64250500Y-38531004D01*
X64223581Y-38395677D01*
X64223580Y-38395676D01*
X64223580Y-38395672D01*
X64223578Y-38395667D01*
X64170778Y-38268195D01*
X64170771Y-38268182D01*
X64094114Y-38153458D01*
X64094111Y-38153454D01*
X63996545Y-38055888D01*
X63996541Y-38055885D01*
X63881817Y-37979228D01*
X63881804Y-37979221D01*
X63754332Y-37926421D01*
X63754322Y-37926418D01*
X63618995Y-37899500D01*
X63618993Y-37899500D01*
X63481007Y-37899500D01*
X63481005Y-37899500D01*
X63345677Y-37926418D01*
X63345667Y-37926421D01*
X63218195Y-37979221D01*
X63218182Y-37979228D01*
X63103458Y-38055885D01*
X63103454Y-38055888D01*
X63005888Y-38153454D01*
X63005885Y-38153458D01*
X62929228Y-38268182D01*
X62929221Y-38268195D01*
X62876421Y-38395667D01*
X62876418Y-38395677D01*
X62849500Y-38531004D01*
X62849500Y-38531007D01*
X62849500Y-38668993D01*
X62849500Y-38668995D01*
X62849499Y-38668995D01*
X56001696Y-38668995D01*
X56060041Y-38657389D01*
X56104328Y-38648580D01*
X56231811Y-38595775D01*
X56346542Y-38519114D01*
X56346545Y-38519111D01*
X56428423Y-38437234D01*
X56444111Y-38421545D01*
X56444114Y-38421542D01*
X56520775Y-38306811D01*
X56573580Y-38179328D01*
X56598134Y-38055888D01*
X56600500Y-38043995D01*
X56600500Y-37906004D01*
X56573581Y-37770677D01*
X56573580Y-37770676D01*
X56573580Y-37770672D01*
X56554455Y-37724500D01*
X56520778Y-37643195D01*
X56520771Y-37643182D01*
X56471398Y-37569290D01*
X56450520Y-37502612D01*
X56450500Y-37500399D01*
X56450500Y-37049599D01*
X56470185Y-36982560D01*
X56471398Y-36980708D01*
X56520775Y-36906811D01*
X56573580Y-36779328D01*
X56600500Y-36643993D01*
X56600500Y-36506007D01*
X56600500Y-36506004D01*
X56573581Y-36370677D01*
X56573580Y-36370676D01*
X56573580Y-36370672D01*
X56543063Y-36296997D01*
X56520778Y-36243195D01*
X56520771Y-36243182D01*
X56471398Y-36169290D01*
X56450520Y-36102612D01*
X56450500Y-36100399D01*
X56450500Y-34804387D01*
X56470185Y-34737348D01*
X56486819Y-34716706D01*
X56571721Y-34631804D01*
X56725110Y-34478414D01*
X56786431Y-34444931D01*
X56856122Y-34449915D01*
X56912056Y-34491786D01*
X56927350Y-34518645D01*
X56974221Y-34631804D01*
X56974228Y-34631817D01*
X57040573Y-34731109D01*
X57061451Y-34797787D01*
X57042966Y-34865167D01*
X57040573Y-34868891D01*
X56974228Y-34968182D01*
X56974221Y-34968195D01*
X56921421Y-35095667D01*
X56921418Y-35095677D01*
X56894500Y-35231004D01*
X56894500Y-35231007D01*
X56894500Y-35368993D01*
X56894500Y-35368995D01*
X56894499Y-35368995D01*
X56921418Y-35504322D01*
X56921421Y-35504332D01*
X56974221Y-35631804D01*
X56974228Y-35631817D01*
X57050885Y-35746541D01*
X57050888Y-35746545D01*
X57148454Y-35844111D01*
X57148458Y-35844114D01*
X57263182Y-35920771D01*
X57263195Y-35920778D01*
X57390667Y-35973578D01*
X57390672Y-35973580D01*
X57390676Y-35973580D01*
X57390677Y-35973581D01*
X57526004Y-36000500D01*
X57526007Y-36000500D01*
X57663995Y-36000500D01*
X57755041Y-35982389D01*
X57799328Y-35973580D01*
X57926811Y-35920775D01*
X58041542Y-35844114D01*
X58139114Y-35746542D01*
X58215775Y-35631811D01*
X58268580Y-35504328D01*
X58295500Y-35368993D01*
X58295500Y-35231007D01*
X58295500Y-35231004D01*
X58268581Y-35095677D01*
X58268580Y-35095676D01*
X58268580Y-35095672D01*
X58237306Y-35020170D01*
X58215778Y-34968195D01*
X58215776Y-34968191D01*
X58215775Y-34968189D01*
X58149425Y-34868890D01*
X58128548Y-34802214D01*
X58147032Y-34734834D01*
X58149426Y-34731109D01*
X58187502Y-34674124D01*
X58215775Y-34631811D01*
X58268580Y-34504328D01*
X58278884Y-34452525D01*
X58295500Y-34368995D01*
X58295500Y-34231004D01*
X58268581Y-34095677D01*
X58268580Y-34095673D01*
X58268580Y-34095672D01*
X58258754Y-34071952D01*
X58251286Y-34002484D01*
X58282561Y-33940004D01*
X58342650Y-33904352D01*
X58373316Y-33900500D01*
X59356684Y-33900500D01*
X59423723Y-33920185D01*
X59469478Y-33972989D01*
X59479422Y-34042147D01*
X59471245Y-34071953D01*
X59461420Y-34095671D01*
X59461418Y-34095677D01*
X59434500Y-34231004D01*
X59434500Y-34231007D01*
X59434500Y-34368993D01*
X59434500Y-34368995D01*
X59434499Y-34368995D01*
X59461418Y-34504322D01*
X59461421Y-34504332D01*
X59514221Y-34631804D01*
X59514228Y-34631817D01*
X59580573Y-34731109D01*
X59601451Y-34797787D01*
X59582966Y-34865167D01*
X59580573Y-34868891D01*
X59514228Y-34968182D01*
X59514221Y-34968195D01*
X59461421Y-35095667D01*
X59461418Y-35095677D01*
X59434500Y-35231004D01*
X59434500Y-35231007D01*
X59434500Y-35368993D01*
X59434500Y-35368995D01*
X59434499Y-35368995D01*
X59461418Y-35504322D01*
X59461421Y-35504332D01*
X59514221Y-35631804D01*
X59514228Y-35631817D01*
X59590885Y-35746541D01*
X59590888Y-35746545D01*
X59688454Y-35844111D01*
X59688458Y-35844114D01*
X59803182Y-35920771D01*
X59803195Y-35920778D01*
X59930667Y-35973578D01*
X59930672Y-35973580D01*
X59930676Y-35973580D01*
X59930677Y-35973581D01*
X60066004Y-36000500D01*
X60066007Y-36000500D01*
X60203995Y-36000500D01*
X60295041Y-35982389D01*
X60339328Y-35973580D01*
X60466811Y-35920775D01*
X60581542Y-35844114D01*
X60618671Y-35806985D01*
X60682319Y-35743338D01*
X60743642Y-35709853D01*
X60813334Y-35714837D01*
X60857681Y-35743338D01*
X60958454Y-35844111D01*
X60958458Y-35844114D01*
X61073182Y-35920771D01*
X61073195Y-35920778D01*
X61200667Y-35973578D01*
X61200672Y-35973580D01*
X61200676Y-35973580D01*
X61200677Y-35973581D01*
X61336004Y-36000500D01*
X61336007Y-36000500D01*
X61473995Y-36000500D01*
X61565041Y-35982389D01*
X61609328Y-35973580D01*
X61736811Y-35920775D01*
X61851542Y-35844114D01*
X61949114Y-35746542D01*
X62025775Y-35631811D01*
X62078580Y-35504328D01*
X62105500Y-35368993D01*
X62105500Y-35231007D01*
X62105500Y-35231004D01*
X62078581Y-35095677D01*
X62078580Y-35095676D01*
X62078580Y-35095672D01*
X62047306Y-35020170D01*
X62025778Y-34968195D01*
X62025776Y-34968191D01*
X62025775Y-34968189D01*
X61959425Y-34868890D01*
X61938548Y-34802214D01*
X61957032Y-34734834D01*
X61959426Y-34731109D01*
X61997502Y-34674124D01*
X62025775Y-34631811D01*
X62078580Y-34504328D01*
X62088884Y-34452525D01*
X62105500Y-34368995D01*
X62105500Y-34325875D01*
X62399500Y-34325875D01*
X62399500Y-34674124D01*
X62438489Y-35020158D01*
X62438490Y-35020167D01*
X62438491Y-35020171D01*
X62455724Y-35095672D01*
X62515982Y-35359684D01*
X62515985Y-35359692D01*
X62630999Y-35688382D01*
X62782092Y-36002130D01*
X62967371Y-36296999D01*
X62967372Y-36297001D01*
X63184487Y-36569256D01*
X63430743Y-36815512D01*
X63702998Y-37032627D01*
X63703001Y-37032628D01*
X63703003Y-37032630D01*
X63997867Y-37217906D01*
X64311621Y-37369002D01*
X64558488Y-37455384D01*
X64640307Y-37484014D01*
X64640315Y-37484017D01*
X64640318Y-37484017D01*
X64640319Y-37484018D01*
X64979829Y-37561509D01*
X65325876Y-37600499D01*
X65325877Y-37600500D01*
X65325880Y-37600500D01*
X65674123Y-37600500D01*
X65674123Y-37600499D01*
X66020171Y-37561509D01*
X66359681Y-37484018D01*
X66688379Y-37369002D01*
X67002133Y-37217906D01*
X67296997Y-37032630D01*
X67297001Y-37032627D01*
X67569256Y-36815512D01*
X67569258Y-36815509D01*
X67569263Y-36815506D01*
X67815506Y-36569263D01*
X67865954Y-36506004D01*
X68032627Y-36297001D01*
X68032628Y-36296999D01*
X68032630Y-36296997D01*
X68217906Y-36002133D01*
X68369002Y-35688379D01*
X68484018Y-35359681D01*
X68561509Y-35020171D01*
X68600500Y-34674120D01*
X68600500Y-34325880D01*
X68561509Y-33979829D01*
X68484018Y-33640319D01*
X68477702Y-33622270D01*
X68431864Y-33491270D01*
X68369002Y-33311621D01*
X68217906Y-32997867D01*
X68032630Y-32703003D01*
X68032628Y-32703000D01*
X68032627Y-32702998D01*
X67815512Y-32430743D01*
X67569256Y-32184487D01*
X67297001Y-31967372D01*
X67296999Y-31967371D01*
X67002130Y-31782092D01*
X66688382Y-31630999D01*
X66359692Y-31515985D01*
X66359684Y-31515982D01*
X66105048Y-31457863D01*
X66020171Y-31438491D01*
X66020167Y-31438490D01*
X66020158Y-31438489D01*
X65674124Y-31399500D01*
X65674120Y-31399500D01*
X65325880Y-31399500D01*
X65325875Y-31399500D01*
X64979841Y-31438489D01*
X64979829Y-31438491D01*
X64640315Y-31515982D01*
X64640307Y-31515985D01*
X64311617Y-31630999D01*
X63997869Y-31782092D01*
X63703000Y-31967371D01*
X63702998Y-31967372D01*
X63430743Y-32184487D01*
X63184487Y-32430743D01*
X62967372Y-32702998D01*
X62967371Y-32703000D01*
X62782092Y-32997869D01*
X62630999Y-33311617D01*
X62515985Y-33640307D01*
X62515982Y-33640315D01*
X62438491Y-33979829D01*
X62438489Y-33979841D01*
X62399500Y-34325875D01*
X62105500Y-34325875D01*
X62105500Y-34231004D01*
X62078581Y-34095677D01*
X62078580Y-34095673D01*
X62078580Y-34095672D01*
X62068755Y-34071953D01*
X62025778Y-33968195D01*
X62025771Y-33968182D01*
X61949114Y-33853458D01*
X61949111Y-33853454D01*
X61851545Y-33755888D01*
X61851541Y-33755885D01*
X61736817Y-33679228D01*
X61736804Y-33679221D01*
X61609332Y-33626421D01*
X61603502Y-33624653D01*
X61604224Y-33622270D01*
X61551983Y-33594929D01*
X61550424Y-33593396D01*
X60866519Y-32909491D01*
X60866518Y-32909490D01*
X60740988Y-32837016D01*
X60740985Y-32837015D01*
X60714895Y-32830023D01*
X60714895Y-32830024D01*
X60657936Y-32814762D01*
X60600978Y-32799500D01*
X57002525Y-32799500D01*
X56888608Y-32830024D01*
X56888607Y-32830023D01*
X56862517Y-32837015D01*
X56862514Y-32837016D01*
X56736986Y-32909489D01*
X56736983Y-32909491D01*
X55459489Y-34186985D01*
X55458601Y-34188524D01*
X55434075Y-34231007D01*
X55432285Y-34234107D01*
X55432284Y-34234108D01*
X55387017Y-34312512D01*
X55387016Y-34312513D01*
X55371882Y-34368995D01*
X55349500Y-34452525D01*
X55349500Y-34452527D01*
X55349500Y-36100399D01*
X55329815Y-36167438D01*
X55328602Y-36169290D01*
X55279228Y-36243182D01*
X55279221Y-36243195D01*
X55226421Y-36370667D01*
X55226418Y-36370677D01*
X55199500Y-36506004D01*
X55199500Y-36506007D01*
X55199500Y-36643993D01*
X55199500Y-36643995D01*
X55199499Y-36643995D01*
X44825500Y-36643995D01*
X44825500Y-36072527D01*
X44825500Y-36072525D01*
X44787984Y-35932515D01*
X44754489Y-35874500D01*
X44715510Y-35806985D01*
X43123646Y-34215121D01*
X43090161Y-34153798D01*
X43089737Y-34151765D01*
X43078580Y-34095672D01*
X43056409Y-34042147D01*
X43025778Y-33968195D01*
X43025771Y-33968182D01*
X42949114Y-33853458D01*
X42949111Y-33853454D01*
X42851545Y-33755888D01*
X42851541Y-33755885D01*
X42736817Y-33679228D01*
X42736804Y-33679221D01*
X42609332Y-33626421D01*
X42609322Y-33626418D01*
X42522158Y-33609080D01*
X42460247Y-33576695D01*
X42458669Y-33575144D01*
X40812520Y-31928995D01*
X47199499Y-31928995D01*
X47226418Y-32064322D01*
X47226421Y-32064332D01*
X47279221Y-32191804D01*
X47279228Y-32191817D01*
X47355885Y-32306541D01*
X47355888Y-32306545D01*
X47453454Y-32404111D01*
X47453458Y-32404114D01*
X47568182Y-32480771D01*
X47568195Y-32480778D01*
X47695667Y-32533578D01*
X47695672Y-32533580D01*
X47695676Y-32533580D01*
X47695677Y-32533581D01*
X47831004Y-32560500D01*
X47831007Y-32560500D01*
X47968995Y-32560500D01*
X48060041Y-32542389D01*
X48104328Y-32533580D01*
X48231811Y-32480775D01*
X48346542Y-32404114D01*
X48444114Y-32306542D01*
X48520775Y-32191811D01*
X48573580Y-32064328D01*
X48592866Y-31967371D01*
X48600500Y-31928995D01*
X48600500Y-31791004D01*
X48573581Y-31655677D01*
X48573580Y-31655676D01*
X48573580Y-31655672D01*
X48551280Y-31601834D01*
X48520778Y-31528195D01*
X48520771Y-31528182D01*
X48444114Y-31413458D01*
X48444111Y-31413454D01*
X48346545Y-31315888D01*
X48346541Y-31315885D01*
X48231817Y-31239228D01*
X48231804Y-31239221D01*
X48104332Y-31186421D01*
X48104322Y-31186418D01*
X47968995Y-31159500D01*
X47968993Y-31159500D01*
X47831007Y-31159500D01*
X47831005Y-31159500D01*
X47695677Y-31186418D01*
X47695667Y-31186421D01*
X47568195Y-31239221D01*
X47568182Y-31239228D01*
X47453458Y-31315885D01*
X47453454Y-31315888D01*
X47355888Y-31413454D01*
X47355885Y-31413458D01*
X47279228Y-31528182D01*
X47279221Y-31528195D01*
X47226421Y-31655667D01*
X47226418Y-31655677D01*
X47199500Y-31791004D01*
X47199500Y-31791007D01*
X47199500Y-31928993D01*
X47199500Y-31928995D01*
X47199499Y-31928995D01*
X40812520Y-31928995D01*
X40603016Y-31719491D01*
X40603015Y-31719490D01*
X40477485Y-31647016D01*
X40477486Y-31647016D01*
X40417709Y-31630999D01*
X40337475Y-31609500D01*
X40337472Y-31609500D01*
X39788363Y-31609500D01*
X39749820Y-31601834D01*
X39749635Y-31602527D01*
X39741785Y-31600423D01*
X39741784Y-31600423D01*
X39589057Y-31559500D01*
X39430943Y-31559500D01*
X39278216Y-31600423D01*
X39278209Y-31600426D01*
X39141290Y-31679475D01*
X39141282Y-31679481D01*
X39029481Y-31791282D01*
X39029475Y-31791290D01*
X38950426Y-31928209D01*
X38950423Y-31928216D01*
X38909500Y-32080943D01*
X36439415Y-32080943D01*
X36297001Y-31967372D01*
X36296999Y-31967371D01*
X36002130Y-31782092D01*
X35688382Y-31630999D01*
X35359692Y-31515985D01*
X35359684Y-31515982D01*
X35105048Y-31457863D01*
X35020171Y-31438491D01*
X35020167Y-31438490D01*
X35020158Y-31438489D01*
X34674124Y-31399500D01*
X34674120Y-31399500D01*
X34325880Y-31399500D01*
X34325875Y-31399500D01*
X33979841Y-31438489D01*
X33979829Y-31438491D01*
X33640315Y-31515982D01*
X33640307Y-31515985D01*
X33311617Y-31630999D01*
X32997869Y-31782092D01*
X32703000Y-31967371D01*
X32702998Y-31967372D01*
X32430743Y-32184487D01*
X32184487Y-32430743D01*
X31967372Y-32702998D01*
X31967371Y-32703000D01*
X31782092Y-32997869D01*
X31630999Y-33311617D01*
X31515985Y-33640307D01*
X31515982Y-33640315D01*
X31438491Y-33979829D01*
X31438489Y-33979841D01*
X31399500Y-34325875D01*
X30200500Y-34325875D01*
X30200500Y-33134412D01*
X30220185Y-33067373D01*
X30236819Y-33046731D01*
X33046731Y-30236819D01*
X33108054Y-30203334D01*
X33134412Y-30200500D01*
X66865588Y-30200500D01*
X66932627Y-30220185D01*
G37*
%TD.AperFunction*%
%TD*%
M02*
